<svg width="486" height="426" viewBox="0 0 486 426" fill="none" xmlns="http://www.w3.org/2000/svg">
<path d="M4.7998 296.9H17.1998V347H52.5998V357.8H4.7998V296.9Z" fill="#7721AD"/>
<path d="M91.6996 296.9H104.8L134.3 357.8H121.3L116.4 347.5H80.7996L76.0996 357.8H63.0996L91.6996 296.9ZM111.5 337.4L98.2996 309.7L85.4996 337.4H111.5Z" fill="#7721AD"/>
<path d="M147.3 296.9H178.3C183 296.9 187 297.4 190.5 298.4C193.9 299.4 196.8 300.8 199 302.6C201.3 304.4 202.9 306.7 204 309.3C205.1 312 205.7 315 205.7 318.3C205.7 320.6 205.4 322.7 204.9 324.8C204.4 326.8 203.5 328.7 202.4 330.4C201.3 332.1 199.8 333.6 198.1 335C196.4 336.3 194.4 337.4 192.1 338.3L205.4 357.8H190.3L178.8 340.5H178.4H159.7V357.8H147.3V296.9ZM178.6 329.8C180.9 329.8 183 329.5 184.7 329C186.5 328.5 187.9 327.7 189.1 326.7C190.3 325.7 191.2 324.5 191.8 323.1C192.4 321.7 192.7 320.1 192.7 318.4C192.7 315 191.5 312.4 189.2 310.5C186.9 308.6 183.3 307.7 178.6 307.7H159.7V329.8H178.6V329.8Z" fill="#7721AD"/>
<path d="M245.9 296.9H259L288.5 357.8H275.5L270.6 347.5H235L230.3 357.8H217.3L245.9 296.9ZM265.7 337.4L252.5 309.7L239.7 337.4H265.7Z" fill="#7721AD"/>
<path d="M300.8 296.9H313.2V357.8H300.8V296.9Z" fill="#7721AD"/>
<path d="M329.1 326.8C329.1 322.5 329.9 318.5 331.5 314.8C333.1 311.1 335.5 307.8 338.6 305.1C341.7 302.3 345.5 300.2 350 298.6C354.5 297 359.7 296.2 365.5 296.2C367.6 296.2 369.7 296.3 371.8 296.5C373.9 296.7 376 297.1 378.1 297.5C380.2 298 382.2 298.6 384.1 299.3C386.1 300 387.9 300.9 389.7 301.9L384 311.3C382.9 310.7 381.7 310.1 380.4 309.6C379 309.1 377.6 308.7 376.1 308.3C374.6 308 373 307.7 371.3 307.5C369.6 307.3 368 307.2 366.3 307.2C362.5 307.2 359 307.7 356 308.7C353 309.7 350.4 311 348.4 312.8C346.3 314.6 344.7 316.7 343.6 319.1C342.5 321.5 342 324.2 342 327.1C342 330.1 342.6 332.9 343.7 335.4C344.8 337.9 346.5 340.1 348.6 341.9C350.7 343.7 353.3 345.1 356.2 346.2C359.2 347.2 362.5 347.7 366.2 347.7C369.1 347.7 371.8 347.4 374.3 346.7C376.7 346 378.9 345.1 380.7 343.9C382.5 342.7 384 341.2 385.1 339.5C386.2 337.8 387 335.8 387.4 333.7H366.1V323.5H398.5C399.1 326.6 399.4 329.7 399.1 332.6C398.8 335.5 398.2 338.3 397.1 340.9C396 343.5 394.5 345.9 392.6 348.1C390.7 350.3 388.4 352.2 385.7 353.7C383 355.3 380 356.5 376.6 357.4C373.2 358.3 369.5 358.7 365.4 358.7C359.7 358.7 354.7 357.9 350.2 356.2C345.7 354.5 341.9 352.3 338.8 349.4C335.7 346.5 333.3 343.1 331.6 339.3C329.9 335.3 329.1 331.2 329.1 326.8Z" fill="#7721AD"/>
<path d="M412.7 327.2C412.7 322.6 413.5 318.4 415.2 314.6C416.9 310.8 419.3 307.5 422.3 304.8C425.4 302.1 429 299.9 433.3 298.4C437.6 296.9 442.3 296.1 447.5 296.1C452.7 296.1 457.4 296.9 461.7 298.4C466 299.9 469.7 302 472.7 304.8C475.8 307.5 478.1 310.8 479.8 314.6C481.5 318.4 482.3 322.6 482.3 327.2C482.3 331.8 481.5 336.1 479.8 339.9C478.1 343.8 475.7 347.1 472.7 349.9C469.6 352.7 466 354.8 461.7 356.4C457.4 357.9 452.7 358.7 447.5 358.7C442.3 358.7 437.6 357.9 433.3 356.4C429 354.9 425.4 352.7 422.3 349.9C419.2 347.1 416.9 343.8 415.2 339.9C413.6 336.1 412.7 331.8 412.7 327.2ZM425.1 327.2C425.1 330.3 425.7 333.2 426.8 335.7C427.9 338.2 429.5 340.4 431.5 342.2C433.5 344 435.9 345.4 438.6 346.3C441.3 347.3 444.3 347.7 447.5 347.7C450.7 347.7 453.7 347.2 456.4 346.3C459.1 345.3 461.5 344 463.5 342.2C465.5 340.4 467.1 338.3 468.2 335.7C469.3 333.2 469.9 330.3 469.9 327.2C469.9 324.1 469.3 321.2 468.2 318.7C467.1 316.2 465.5 314.1 463.5 312.4C461.5 310.7 459.1 309.4 456.4 308.4C453.7 307.5 450.7 307 447.5 307C444.3 307 441.3 307.5 438.6 308.4C435.9 309.3 433.5 310.6 431.5 312.4C429.5 314.1 427.9 316.2 426.8 318.7C425.6 321.2 425.1 324 425.1 327.2Z" fill="#7721AD"/>
<path d="M360.3 113.4C358.2 50.8001 306.7 0.600098 243.6 0.600098C179.4 0.600098 127.2 52.6001 126.8 116.7C126.8 116.8 126.8 116.9 126.8 117C126.8 117.1 126.8 117.2 126.8 117.3C126.8 181.7 179.2 234.1 243.6 234.1C308 234.1 360.4 181.7 360.4 117.3C360.4 116 360.3 114.7 360.3 113.4ZM243.6 221.2C210.5 221.2 181 205.6 162 181.4C174.1 189.3 188.6 193.9 204.1 193.9C246.7 193.9 281.3 159.2 281.3 116.7C281.3 100.8 276.5 85.6001 267.5 72.6001L256.9 80.0001C264.4 90.8001 268.4 103.5 268.4 116.7C268.4 152.1 239.6 181 204.1 181C168.8 181 140 152.4 139.8 117.1C140 60.0001 186.5 13.6001 243.6 13.6001C276.1 13.6001 305.1 28.6001 324.1 52.0001C312.2 44.5001 298.2 40.2001 283.1 40.2001C240.5 40.2001 205.9 74.9001 205.9 117.4C205.9 133.3 210.7 148.5 219.7 161.5L230.3 154.1C222.8 143.3 218.8 130.6 218.8 117.4C218.8 82.0001 247.6 53.1001 283.1 53.1001C317.4 53.1001 345.6 80.2001 347.3 114.1C347.3 115.2 347.4 116.3 347.4 117.4C347.4 174.6 300.8 221.2 243.6 221.2Z" fill="#7721AD"/>
<path d="M13.7998 416C13.3998 416.2 12.9998 416.4 12.3998 416.6C11.8998 416.8 11.1998 417 10.5998 417.1C9.89981 417.3 9.1998 417.3 8.4998 417.3C7.5998 417.3 6.7998 417.1 5.9998 416.8C5.1998 416.5 4.5998 416 4.1998 415.3C3.6998 414.6 3.4998 413.7 3.4998 412.6V399.9H0.799805V396.6H3.4998V389.9H7.7998V396.6H12.1998V399.9H7.7998V411.2C7.8998 411.9 8.0998 412.4 8.4998 412.7C8.8998 413 9.3998 413.2 9.9998 413.2C10.5998 413.2 11.1998 413.1 11.6998 412.9C12.1998 412.7 12.5998 412.5 12.8998 412.4L13.7998 416Z" fill="#7721AD"/>
<path d="M34.7 417H30.4V405.7C30.4 403.9 30.1 402.5 29.4 401.6C28.7 400.7 27.8 400.3 26.6 400.3C25.8 400.3 25.1 400.5 24.3 400.9C23.5 401.3 22.8 401.9 22.2 402.6C21.6 403.3 21.1 404.1 20.8 405V417H16.5V388.6H20.8V400.9C21.6 399.5 22.6 398.5 24 397.7C25.3 396.9 26.8 396.5 28.4 396.5C29.7 396.5 30.7 396.7 31.6 397.2C32.4 397.6 33.1 398.2 33.6 399C34.1 399.8 34.4 400.6 34.6 401.6C34.8 402.6 34.9 403.6 34.9 404.7V417H34.7Z" fill="#7721AD"/>
<path d="M48.8998 417.4C47.2998 417.4 45.8998 417.1 44.5998 416.6C43.2998 416 42.1998 415.3 41.2998 414.3C40.3998 413.3 39.5998 412.2 39.0998 411C38.5998 409.8 38.2998 408.4 38.2998 407C38.2998 405.1 38.6998 403.4 39.5998 401.8C40.4998 400.2 41.6998 399 43.2998 398C44.8998 397 46.6998 396.6 48.8998 396.6C50.9998 396.6 52.8998 397.1 54.3998 398C55.8998 399 57.0998 400.2 57.9998 401.8C58.8998 403.4 59.2998 405 59.2998 406.8C59.2998 407.1 59.2998 407.4 59.2998 407.7C59.2998 408 59.1998 408.2 59.1998 408.4H42.8998C42.9998 409.6 43.2998 410.6 43.8998 411.5C44.4998 412.4 45.1998 413.1 46.0998 413.6C46.9998 414.1 47.9998 414.3 48.9998 414.3C50.0998 414.3 51.1998 414 52.1998 413.4C53.1998 412.8 53.8998 412.1 54.2998 411.1L57.9998 412.2C57.5998 413.2 56.8998 414.1 55.9998 414.9C55.0998 415.7 53.9998 416.3 52.7998 416.8C51.5998 417.1 50.2998 417.4 48.8998 417.4ZM42.7998 405.4H55.0998C54.9998 404.3 54.6998 403.2 54.0998 402.4C53.4998 401.5 52.7998 400.8 51.8998 400.3C50.9998 399.8 49.9998 399.6 48.8998 399.6C47.7998 399.6 46.8998 399.8 45.9998 400.3C45.0998 400.8 44.3998 401.5 43.7998 402.4C43.1998 403.3 42.7998 404.3 42.7998 405.4Z" fill="#7721AD"/>
<path d="M81.6 417.4C80 417.4 78.6 417.1 77.3 416.6C76 416 74.9 415.3 74 414.3C73.1 413.3 72.3 412.2 71.8 410.9C71.3 409.6 71 408.3 71 406.9C71 405 71.4 403.3 72.3 401.7C73.2 400.1 74.4 398.9 76 397.9C77.6 396.9 79.4 396.5 81.6 396.5C83.7 396.5 85.5 397 87 397.9C88.5 398.8 89.7 400 90.4 401.6L86.2 402.9C85.7 402 85.1 401.4 84.2 400.9C83.4 400.4 82.4 400.2 81.4 400.2C80.3 400.2 79.2 400.5 78.3 401.1C77.4 401.7 76.7 402.5 76.1 403.5C75.6 404.5 75.3 405.7 75.3 407C75.3 408.3 75.6 409.4 76.1 410.5C76.6 411.5 77.4 412.4 78.3 413C79.2 413.6 80.3 413.9 81.4 413.9C82.1 413.9 82.8 413.8 83.4 413.5C84.1 413.3 84.6 412.9 85.1 412.5C85.6 412.1 85.9 411.6 86.2 411.1L90.4 412.3C90 413.3 89.3 414.2 88.4 415C87.5 415.8 86.5 416.4 85.3 416.8C84.4 417.1 83.1 417.4 81.6 417.4Z" fill="#7721AD"/>
<path d="M93.5 408.2V404.3H105.1V408.2H93.5Z" fill="#7721AD"/>
<path d="M119.7 417.4C118.1 417.4 116.7 417.1 115.4 416.6C114.1 416 113 415.3 112.1 414.3C111.2 413.3 110.4 412.2 109.9 410.9C109.4 409.6 109.1 408.3 109.1 406.9C109.1 405 109.5 403.3 110.4 401.7C111.3 400.1 112.5 398.9 114.1 397.9C115.7 396.9 117.5 396.5 119.7 396.5C121.8 396.5 123.6 397 125.1 397.9C126.6 398.8 127.8 400 128.5 401.6L124.3 402.9C123.8 402 123.2 401.4 122.3 400.9C121.5 400.4 120.5 400.2 119.5 400.2C118.4 400.2 117.3 400.5 116.4 401.1C115.5 401.7 114.8 402.5 114.2 403.5C113.7 404.5 113.4 405.7 113.4 407C113.4 408.3 113.7 409.4 114.2 410.5C114.7 411.5 115.5 412.4 116.4 413C117.3 413.6 118.4 413.9 119.5 413.9C120.2 413.9 120.9 413.8 121.5 413.5C122.2 413.3 122.7 412.9 123.2 412.5C123.7 412.1 124 411.6 124.3 411.1L128.5 412.3C128.1 413.3 127.4 414.2 126.5 415C125.6 415.8 124.6 416.4 123.4 416.8C122.5 417.1 121.2 417.4 119.7 417.4Z" fill="#7721AD"/>
<path d="M141 417.4C139.4 417.4 138 417.1 136.7 416.6C135.4 416 134.3 415.3 133.4 414.3C132.5 413.3 131.8 412.2 131.3 411C130.8 409.8 130.6 408.4 130.6 407C130.6 405.6 130.8 404.3 131.3 403C131.8 401.7 132.5 400.6 133.4 399.7C134.3 398.7 135.4 398 136.7 397.4C138 396.8 139.4 396.6 141 396.6C142.6 396.6 144 396.9 145.3 397.4C146.6 398 147.7 398.7 148.6 399.7C149.5 400.7 150.2 401.8 150.7 403C151.2 404.3 151.4 405.6 151.4 407C151.4 408.4 151.2 409.7 150.7 411C150.2 412.2 149.5 413.4 148.6 414.3C147.7 415.3 146.6 416 145.3 416.6C144 417.1 142.6 417.4 141 417.4ZM134.9 406.9C134.9 408.2 135.2 409.3 135.7 410.4C136.2 411.4 137 412.2 137.9 412.8C138.8 413.4 139.8 413.7 141 413.7C142.1 413.7 143.1 413.4 144.1 412.8C145 412.2 145.8 411.4 146.3 410.3C146.8 409.3 147.1 408.1 147.1 406.9C147.1 405.6 146.8 404.5 146.3 403.4C145.8 402.4 145 401.6 144.1 401C143.2 400.4 142.2 400.1 141 400.1C139.9 400.1 138.8 400.4 137.9 401C137 401.6 136.3 402.4 135.7 403.4C135.2 404.5 134.9 405.6 134.9 406.9Z" fill="#7721AD"/>
<path d="M186.3 417H182V405.7C182 403.8 181.7 402.5 181.1 401.6C180.5 400.7 179.6 400.3 178.4 400.3C177.2 400.3 176.1 400.7 175.1 401.6C174.1 402.5 173.4 403.6 172.9 405V417H168.6V405.7C168.6 403.8 168.3 402.5 167.7 401.6C167.1 400.7 166.2 400.3 165 400.3C163.8 400.3 162.7 400.7 161.7 401.6C160.7 402.5 159.9 403.6 159.5 405V417H155.2V396.8H159.1V400.9C159.9 399.5 161 398.4 162.3 397.6C163.6 396.8 165.1 396.5 166.8 396.5C168.5 396.5 169.8 396.9 170.8 397.8C171.8 398.7 172.4 399.8 172.6 401.1C173.5 399.6 174.6 398.5 175.8 397.7C177 396.9 178.6 396.5 180.2 396.5C181.4 396.5 182.4 396.7 183.2 397.2C184 397.6 184.6 398.2 185.1 399C185.5 399.8 185.9 400.6 186.1 401.6C186.3 402.6 186.4 403.6 186.4 404.7V417H186.3Z" fill="#7721AD"/>
<path d="M222.3 417H218V405.7C218 403.8 217.7 402.5 217.1 401.6C216.5 400.7 215.6 400.3 214.4 400.3C213.2 400.3 212.1 400.7 211.1 401.6C210.1 402.5 209.4 403.6 208.9 405V417H204.6V405.7C204.6 403.8 204.3 402.5 203.7 401.6C203.1 400.7 202.2 400.3 201 400.3C199.8 400.3 198.7 400.7 197.7 401.6C196.7 402.5 195.9 403.6 195.5 405V417H191.2V396.8H195.1V400.9C195.9 399.5 197 398.4 198.3 397.6C199.6 396.8 201.1 396.5 202.8 396.5C204.5 396.5 205.8 396.9 206.8 397.8C207.8 398.7 208.4 399.8 208.6 401.1C209.5 399.6 210.6 398.5 211.8 397.7C213 396.9 214.6 396.5 216.2 396.5C217.4 396.5 218.4 396.7 219.2 397.2C220 397.6 220.6 398.2 221.1 399C221.5 399.8 221.9 400.6 222.1 401.6C222.3 402.6 222.4 403.6 222.4 404.7V417H222.3Z" fill="#7721AD"/>
<path d="M236.4 417.4C234.8 417.4 233.4 417.1 232.1 416.6C230.8 416 229.7 415.3 228.8 414.3C227.9 413.3 227.1 412.2 226.6 411C226.1 409.8 225.8 408.4 225.8 407C225.8 405.1 226.2 403.4 227.1 401.8C228 400.2 229.2 399 230.8 398C232.4 397 234.2 396.6 236.4 396.6C238.5 396.6 240.4 397.1 241.9 398C243.4 399 244.6 400.2 245.5 401.8C246.4 403.4 246.8 405 246.8 406.8C246.8 407.1 246.8 407.4 246.8 407.7C246.8 408 246.7 408.2 246.7 408.4H230.4C230.5 409.6 230.8 410.6 231.4 411.5C232 412.4 232.7 413.1 233.6 413.6C234.5 414.1 235.5 414.3 236.5 414.3C237.6 414.3 238.7 414 239.7 413.4C240.7 412.8 241.4 412.1 241.8 411.1L245.5 412.2C245.1 413.2 244.4 414.1 243.5 414.9C242.6 415.7 241.5 416.3 240.3 416.8C239.2 417.1 237.9 417.4 236.4 417.4ZM230.3 405.4H242.6C242.5 404.3 242.2 403.2 241.6 402.4C241 401.5 240.3 400.8 239.4 400.3C238.5 399.8 237.5 399.6 236.4 399.6C235.3 399.6 234.4 399.8 233.5 400.3C232.6 400.8 231.9 401.5 231.3 402.4C230.7 403.3 230.4 404.3 230.3 405.4Z" fill="#7721AD"/>
<path d="M261.8 400.3C260.1 400.3 258.7 400.7 257.4 401.4C256.1 402.1 255.2 403.2 254.7 404.5V417H250.4V396.8H254.4V401.2C255.1 399.8 256 398.7 257.2 397.8C258.3 397 259.5 396.5 260.8 396.4C261.1 396.4 261.3 396.4 261.4 396.4C261.6 396.4 261.7 396.4 261.8 396.4V400.3V400.3Z" fill="#7721AD"/>
<path d="M273.6 417.4C272 417.4 270.6 417.1 269.3 416.6C268 416 266.9 415.3 266 414.3C265.1 413.3 264.3 412.2 263.8 410.9C263.3 409.6 263 408.3 263 406.9C263 405 263.4 403.3 264.3 401.7C265.2 400.1 266.4 398.9 268 397.9C269.6 396.9 271.4 396.5 273.6 396.5C275.7 396.5 277.5 397 279 397.9C280.5 398.8 281.7 400 282.4 401.6L278.2 402.9C277.7 402 277.1 401.4 276.2 400.9C275.4 400.4 274.4 400.2 273.4 400.2C272.3 400.2 271.2 400.5 270.3 401.1C269.4 401.7 268.7 402.5 268.1 403.5C267.6 404.5 267.3 405.7 267.3 407C267.3 408.3 267.6 409.4 268.1 410.5C268.6 411.5 269.4 412.4 270.3 413C271.2 413.6 272.3 413.9 273.4 413.9C274.1 413.9 274.8 413.8 275.4 413.5C276.1 413.3 276.6 412.9 277.1 412.5C277.6 412.1 277.9 411.6 278.2 411.1L282.4 412.3C282 413.3 281.3 414.2 280.4 415C279.5 415.8 278.5 416.4 277.3 416.8C276.3 417.1 275 417.4 273.6 417.4Z" fill="#7721AD"/>
<path d="M294.9 417.4C293.3 417.4 291.9 417.1 290.6 416.6C289.3 416 288.2 415.3 287.3 414.3C286.4 413.3 285.6 412.2 285.1 411C284.6 409.8 284.3 408.4 284.3 407C284.3 405.1 284.7 403.4 285.6 401.8C286.5 400.2 287.7 399 289.3 398C290.9 397 292.7 396.6 294.9 396.6C297 396.6 298.9 397.1 300.4 398C301.9 399 303.1 400.2 304 401.8C304.9 403.4 305.3 405 305.3 406.8C305.3 407.1 305.3 407.4 305.3 407.7C305.3 408 305.2 408.2 305.2 408.4H288.9C289 409.6 289.3 410.6 289.9 411.5C290.5 412.4 291.2 413.1 292.1 413.6C293 414.1 294 414.3 295 414.3C296.1 414.3 297.2 414 298.2 413.4C299.2 412.8 299.9 412.1 300.3 411.1L304 412.2C303.6 413.2 302.9 414.1 302 414.9C301.1 415.7 300 416.3 298.8 416.8C297.7 417.1 296.3 417.4 294.9 417.4ZM288.8 405.4H301.1C301 404.3 300.7 403.2 300.1 402.4C299.5 401.5 298.8 400.8 297.9 400.3C297 399.8 296 399.6 294.9 399.6C293.8 399.6 292.9 399.8 292 400.3C291.1 400.8 290.4 401.5 289.8 402.4C289.2 403.3 288.9 404.3 288.8 405.4Z" fill="#7721AD"/>
<path d="M319.2 421.7C319.6 421.8 320 421.8 320.3 421.9C320.7 422 321 422 321.2 422C321.6 422 322 421.9 322.3 421.6C322.6 421.3 323 420.8 323.3 420.1C323.6 419.4 324.1 418.3 324.5 417L316.1 396.8H320.6L326.8 412.7L332.3 396.8H336.4L327.2 421.7C326.9 422.4 326.5 423.1 326 423.8C325.5 424.5 324.8 424.9 324 425.3C323.2 425.7 322.2 425.8 321.2 425.8C320.9 425.8 320.6 425.8 320.2 425.7C319.9 425.6 319.5 425.6 319.1 425.5V421.7H319.2Z" fill="#7721AD"/>
<path d="M347.8 417.4C346.2 417.4 344.8 417.1 343.5 416.6C342.2 416 341.1 415.3 340.2 414.3C339.3 413.3 338.6 412.2 338.1 411C337.6 409.8 337.4 408.4 337.4 407C337.4 405.6 337.6 404.3 338.1 403C338.6 401.7 339.3 400.6 340.2 399.7C341.1 398.7 342.2 398 343.5 397.4C344.8 396.8 346.2 396.6 347.8 396.6C349.4 396.6 350.8 396.9 352.1 397.4C353.4 398 354.5 398.7 355.4 399.7C356.3 400.7 357 401.8 357.5 403C358 404.3 358.2 405.6 358.2 407C358.2 408.4 358 409.7 357.5 411C357 412.2 356.3 413.4 355.4 414.3C354.5 415.3 353.4 416 352.1 416.6C350.9 417.1 349.4 417.4 347.8 417.4ZM341.8 406.9C341.8 408.2 342.1 409.3 342.6 410.4C343.1 411.4 343.9 412.2 344.8 412.8C345.7 413.4 346.7 413.7 347.9 413.7C349 413.7 350 413.4 351 412.8C351.9 412.2 352.7 411.4 353.2 410.3C353.7 409.3 354 408.1 354 406.9C354 405.6 353.7 404.5 353.2 403.4C352.7 402.4 351.9 401.6 351 401C350.1 400.4 349.1 400.1 347.9 400.1C346.8 400.1 345.7 400.4 344.8 401C343.9 401.6 343.2 402.4 342.6 403.4C342.1 404.5 341.8 405.6 341.8 406.9Z" fill="#7721AD"/>
<path d="M361.8 409.1V396.7H366.1V408.2C366.1 410 366.4 411.4 367.1 412.3C367.8 413.2 368.7 413.7 370 413.7C370.8 413.7 371.6 413.5 372.4 413.2C373.2 412.9 373.9 412.4 374.5 411.7C375.1 411 375.6 410.3 376 409.3V396.7H380.3V412.1C380.3 412.6 380.4 412.9 380.6 413.1C380.8 413.3 381.1 413.4 381.5 413.4V416.8C381.1 416.9 380.7 416.9 380.4 417C380.1 417 379.8 417 379.6 417C378.8 417 378.2 416.8 377.7 416.4C377.2 416 376.9 415.4 376.8 414.8L376.7 412.8C375.8 414.3 374.6 415.4 373.2 416.1C371.7 416.9 370.2 417.2 368.4 417.2C366.3 417.2 364.7 416.5 363.6 415.1C362.4 413.9 361.8 411.8 361.8 409.1Z" fill="#7721AD"/>
<path d="M413.6 417H409.3V405.7C409.3 403.8 409 402.5 408.4 401.6C407.8 400.7 406.9 400.3 405.7 400.3C404.9 400.3 404 400.5 403.2 400.9C402.4 401.3 401.6 401.9 401 402.6C400.4 403.3 399.9 404.1 399.6 405V417H395.3V396.8H399.2V400.9C399.7 400 400.4 399.2 401.2 398.6C402 397.9 403 397.4 404.1 397.1C405.2 396.7 406.3 396.6 407.5 396.6C408.7 396.6 409.7 396.8 410.5 397.3C411.3 397.7 411.9 398.3 412.4 399.1C412.9 399.9 413.2 400.7 413.3 401.7C413.5 402.7 413.6 403.7 413.6 404.8V417V417Z" fill="#7721AD"/>
<path d="M427.7 417.4C426.1 417.4 424.7 417.1 423.4 416.6C422.1 416 421 415.3 420.1 414.3C419.2 413.3 418.4 412.2 417.9 411C417.4 409.8 417.1 408.4 417.1 407C417.1 405.1 417.5 403.4 418.4 401.8C419.3 400.2 420.5 399 422.1 398C423.7 397 425.5 396.6 427.7 396.6C429.8 396.6 431.7 397.1 433.2 398C434.7 399 435.9 400.2 436.8 401.8C437.7 403.4 438.1 405 438.1 406.8C438.1 407.1 438.1 407.4 438.1 407.7C438.1 408 438 408.2 438 408.4H421.7C421.8 409.6 422.1 410.6 422.7 411.5C423.3 412.4 424 413.1 424.9 413.6C425.8 414.1 426.8 414.3 427.8 414.3C428.9 414.3 430 414 431 413.4C432 412.8 432.7 412.1 433.1 411.1L436.8 412.2C436.4 413.2 435.7 414.1 434.8 414.9C433.9 415.7 432.8 416.3 431.6 416.8C430.5 417.1 429.2 417.4 427.7 417.4ZM421.6 405.4H433.9C433.8 404.3 433.5 403.2 432.9 402.4C432.3 401.5 431.6 400.8 430.7 400.3C429.8 399.8 428.8 399.6 427.7 399.6C426.6 399.6 425.7 399.8 424.8 400.3C423.9 400.8 423.2 401.5 422.6 402.4C422 403.3 421.7 404.3 421.6 405.4Z" fill="#7721AD"/>
<path d="M451 417.4C449.4 417.4 448 417.1 446.7 416.6C445.4 416 444.3 415.3 443.4 414.3C442.5 413.3 441.7 412.2 441.2 411C440.7 409.8 440.4 408.4 440.4 407C440.4 405.1 440.8 403.4 441.7 401.8C442.6 400.2 443.8 399 445.4 398C447 397 448.8 396.6 451 396.6C453.1 396.6 455 397.1 456.5 398C458 399 459.2 400.2 460.1 401.8C461 403.4 461.4 405 461.4 406.8C461.4 407.1 461.4 407.4 461.4 407.7C461.4 408 461.3 408.2 461.3 408.4H445C445.1 409.6 445.4 410.6 446 411.5C446.6 412.4 447.3 413.1 448.2 413.6C449.1 414.1 450.1 414.3 451.1 414.3C452.2 414.3 453.3 414 454.3 413.4C455.3 412.8 456 412.1 456.4 411.1L460.1 412.2C459.7 413.2 459 414.1 458.1 414.9C457.2 415.7 456.1 416.3 454.9 416.8C453.8 417.1 452.4 417.4 451 417.4ZM444.9 405.4H457.2C457.1 404.3 456.8 403.2 456.2 402.4C455.6 401.5 454.9 400.8 454 400.3C453.1 399.8 452.1 399.6 451 399.6C449.9 399.6 449 399.8 448.1 400.3C447.2 400.8 446.5 401.5 445.9 402.4C445.3 403.3 445 404.3 444.9 405.4Z" fill="#7721AD"/>
<path d="M463.8 406.9C463.8 405 464.2 403.2 465 401.6C465.8 400 466.9 398.8 468.2 397.8C469.6 396.9 471.2 396.4 472.9 396.4C474.5 396.4 475.9 396.8 477.1 397.6C478.4 398.4 479.3 399.4 480 400.6V388.5H484.3V412.1C484.3 412.6 484.4 412.9 484.6 413.2C484.8 413.4 485.1 413.5 485.5 413.6V417C484.7 417.1 484.1 417.2 483.6 417.2C482.8 417.2 482.1 417 481.6 416.5C481 416 480.8 415.5 480.7 414.8V413.3C479.9 414.6 478.9 415.6 477.5 416.3C476.2 417 474.8 417.4 473.4 417.4C472 417.4 470.7 417.1 469.5 416.6C468.3 416.1 467.3 415.3 466.4 414.3C465.5 413.3 464.9 412.2 464.4 410.9C464 409.7 463.8 408.3 463.8 406.9ZM480.1 409.7V404.4C479.8 403.6 479.4 402.8 478.7 402.2C478.1 401.5 477.3 401 476.6 400.6C475.8 400.2 475 400 474.2 400C473.3 400 472.5 400.2 471.7 400.6C471 401 470.3 401.5 469.8 402.1C469.3 402.7 468.9 403.5 468.6 404.3C468.3 405.1 468.2 406 468.2 406.9C468.2 407.8 468.4 408.7 468.7 409.5C469 410.3 469.5 411 470 411.6C470.6 412.2 471.3 412.7 472 413.1C472.8 413.4 473.6 413.6 474.5 413.6C475.1 413.6 475.6 413.5 476.2 413.3C476.8 413.1 477.3 412.8 477.9 412.5C478.4 412.1 478.9 411.7 479.3 411.2C479.7 410.8 479.9 410.3 480.1 409.7Z" fill="#7721AD"/>
</svg>
