<svg width="422" height="202" viewBox="0 0 422 202" fill="none" xmlns="http://www.w3.org/2000/svg">
<path opacity="0.9" fill-rule="evenodd" clip-rule="evenodd" d="M218.561 22.8571V137.429H328.141V22.8571L218.561 22.8571Z" fill="#A3B1BF" fill-opacity="0.25"/>
<path fill-rule="evenodd" clip-rule="evenodd" d="M218.561 22.8571V137.429H328.141V22.8571L218.561 22.8571Z" stroke="#A3B1BF" stroke-width="1.62"/>
<path fill-rule="evenodd" clip-rule="evenodd" d="M322.202 21.4471C322.202 16.8852 325.949 13.1527 330.529 13.1527L343.068 13.1527C347.647 13.1527 351.395 16.8852 351.395 21.4471V138.935C351.395 143.497 347.647 147.23 343.068 147.23H330.529C325.949 147.23 322.202 143.497 322.202 138.935V21.4471Z" fill="#F0F2F5"/>
<path fill-rule="evenodd" clip-rule="evenodd" d="M322.202 21.4471C322.202 16.8852 325.949 13.1527 330.529 13.1527L343.068 13.1527C347.647 13.1527 351.395 16.8852 351.395 21.4471V138.935C351.395 143.497 347.647 147.23 343.068 147.23H330.529C325.949 147.23 322.202 143.497 322.202 138.935V21.4471V21.4471Z" stroke="#A3B1BF" stroke-width="1.62"/>
<path fill-rule="evenodd" clip-rule="evenodd" d="M343.956 24.0422C343.13 24.0422 342.46 23.3745 342.46 22.5513C342.46 21.727 343.13 21.0593 343.956 21.0593C344.783 21.0593 345.453 21.727 345.453 22.5513C345.453 23.3745 344.783 24.0422 343.956 24.0422V24.0422Z" stroke="#A3B1BF" stroke-width="0.81"/>
<path fill-rule="evenodd" clip-rule="evenodd" d="M343.956 32.9659C343.13 32.9659 342.46 32.2982 342.46 31.475C342.46 30.6507 343.13 29.983 343.956 29.983C344.783 29.983 345.453 30.6507 345.453 31.475C345.453 32.2982 344.783 32.9659 343.956 32.9659Z" fill="white"/>
<path fill-rule="evenodd" clip-rule="evenodd" d="M343.956 32.9659C343.13 32.9659 342.46 32.2982 342.46 31.475C342.46 30.6507 343.13 29.983 343.956 29.983C344.783 29.983 345.453 30.6507 345.453 31.475C345.453 32.2982 344.783 32.9659 343.956 32.9659V32.9659Z" stroke="#A3B1BF" stroke-width="0.81"/>
<path fill-rule="evenodd" clip-rule="evenodd" d="M343.956 41.8896C343.13 41.8896 342.46 41.2219 342.46 40.3987C342.46 39.5744 343.13 38.9067 343.956 38.9067C344.783 38.9067 345.453 39.5744 345.453 40.3987C345.453 41.2219 344.783 41.8896 343.956 41.8896Z" fill="white"/>
<path fill-rule="evenodd" clip-rule="evenodd" d="M343.956 41.8896C343.13 41.8896 342.46 41.2219 342.46 40.3987C342.46 39.5744 343.13 38.9067 343.956 38.9067C344.783 38.9067 345.453 39.5744 345.453 40.3987C345.453 41.2219 344.783 41.8896 343.956 41.8896V41.8896Z" stroke="#A3B1BF" stroke-width="0.81"/>
<path fill-rule="evenodd" clip-rule="evenodd" d="M343.956 50.8133C343.13 50.8133 342.46 50.1456 342.46 49.3224C342.46 48.4981 343.13 47.8304 343.956 47.8304C344.783 47.8304 345.453 48.4981 345.453 49.3224C345.453 50.1456 344.783 50.8133 343.956 50.8133Z" fill="white"/>
<path fill-rule="evenodd" clip-rule="evenodd" d="M343.956 50.8133C343.13 50.8133 342.46 50.1456 342.46 49.3224C342.46 48.4981 343.13 47.8304 343.956 47.8304C344.783 47.8304 345.453 48.4981 345.453 49.3224C345.453 50.1456 344.783 50.8133 343.956 50.8133V50.8133Z" stroke="#A3B1BF" stroke-width="0.81"/>
<path fill-rule="evenodd" clip-rule="evenodd" d="M343.956 59.737C343.13 59.737 342.46 59.0693 342.46 58.2461C342.46 57.4219 343.13 56.7542 343.956 56.7542C344.783 56.7542 345.453 57.4219 345.453 58.2461C345.453 59.0693 344.783 59.737 343.956 59.737Z" fill="white"/>
<path fill-rule="evenodd" clip-rule="evenodd" d="M343.956 59.737C343.13 59.737 342.46 59.0693 342.46 58.2461C342.46 57.4219 343.13 56.7542 343.956 56.7542C344.783 56.7542 345.453 57.4219 345.453 58.2461C345.453 59.0693 344.783 59.737 343.956 59.737V59.737Z" stroke="#A3B1BF" stroke-width="0.81"/>
<path fill-rule="evenodd" clip-rule="evenodd" d="M343.956 68.6607C343.13 68.6607 342.46 67.993 342.46 67.1698C342.46 66.3456 343.13 65.6779 343.956 65.6779C344.783 65.6779 345.453 66.3456 345.453 67.1698C345.453 67.993 344.783 68.6607 343.956 68.6607Z" fill="white"/>
<path fill-rule="evenodd" clip-rule="evenodd" d="M343.956 68.6607C343.13 68.6607 342.46 67.993 342.46 67.1698C342.46 66.3456 343.13 65.6779 343.956 65.6779C344.783 65.6779 345.453 66.3456 345.453 67.1698C345.453 67.993 344.783 68.6607 343.956 68.6607V68.6607Z" stroke="#A3B1BF" stroke-width="0.81"/>
<path fill-rule="evenodd" clip-rule="evenodd" d="M327.903 22.5513C327.903 21.727 328.573 21.0593 329.4 21.0593C330.226 21.0593 330.896 21.727 330.896 22.5513C330.896 23.3745 330.226 24.0422 329.4 24.0422C328.573 24.0422 327.903 23.3745 327.903 22.5513Z" fill="white"/>
<path fill-rule="evenodd" clip-rule="evenodd" d="M329.4 24.0422C328.573 24.0422 327.903 23.3745 327.903 22.5513C327.903 21.727 328.573 21.0593 329.4 21.0593C330.226 21.0593 330.896 21.727 330.896 22.5513C330.896 23.3745 330.226 24.0422 329.4 24.0422V24.0422Z" stroke="#A3B1BF" stroke-width="0.81"/>
<path fill-rule="evenodd" clip-rule="evenodd" d="M329.4 32.9659C328.573 32.9659 327.903 32.2982 327.903 31.475C327.903 30.6507 328.573 29.983 329.4 29.983C330.226 29.983 330.896 30.6507 330.896 31.475C330.896 32.2982 330.226 32.9659 329.4 32.9659Z" fill="white"/>
<path fill-rule="evenodd" clip-rule="evenodd" d="M329.4 32.9659C328.573 32.9659 327.903 32.2982 327.903 31.475C327.903 30.6507 328.573 29.983 329.4 29.983C330.226 29.983 330.896 30.6507 330.896 31.475C330.896 32.2982 330.226 32.9659 329.4 32.9659V32.9659Z" stroke="#A3B1BF" stroke-width="0.81"/>
<path fill-rule="evenodd" clip-rule="evenodd" d="M329.4 41.8896C328.573 41.8896 327.903 41.2219 327.903 40.3987C327.903 39.5744 328.573 38.9067 329.4 38.9067C330.226 38.9067 330.896 39.5744 330.896 40.3987C330.896 41.2219 330.226 41.8896 329.4 41.8896Z" fill="white"/>
<path fill-rule="evenodd" clip-rule="evenodd" d="M329.4 41.8896C328.573 41.8896 327.903 41.2219 327.903 40.3987C327.903 39.5744 328.573 38.9067 329.4 38.9067C330.226 38.9067 330.896 39.5744 330.896 40.3987C330.896 41.2219 330.226 41.8896 329.4 41.8896V41.8896Z" stroke="#A3B1BF" stroke-width="0.81"/>
<path fill-rule="evenodd" clip-rule="evenodd" d="M329.4 50.8133C328.573 50.8133 327.903 50.1456 327.903 49.3224C327.903 48.4981 328.573 47.8304 329.4 47.8304C330.226 47.8304 330.896 48.4981 330.896 49.3224C330.896 50.1456 330.226 50.8133 329.4 50.8133Z" fill="white"/>
<path fill-rule="evenodd" clip-rule="evenodd" d="M329.4 50.8133C328.573 50.8133 327.903 50.1456 327.903 49.3224C327.903 48.4981 328.573 47.8304 329.4 47.8304C330.226 47.8304 330.896 48.4981 330.896 49.3224C330.896 50.1456 330.226 50.8133 329.4 50.8133V50.8133Z" stroke="#A3B1BF" stroke-width="0.81"/>
<path fill-rule="evenodd" clip-rule="evenodd" d="M329.4 59.737C328.573 59.737 327.903 59.0693 327.903 58.2461C327.903 57.4219 328.573 56.7542 329.4 56.7542C330.226 56.7542 330.896 57.4219 330.896 58.2461C330.896 59.0693 330.226 59.737 329.4 59.737Z" fill="white"/>
<path fill-rule="evenodd" clip-rule="evenodd" d="M329.4 59.737C328.573 59.737 327.903 59.0693 327.903 58.2461C327.903 57.4219 328.573 56.7542 329.4 56.7542C330.226 56.7542 330.896 57.4219 330.896 58.2461C330.896 59.0693 330.226 59.737 329.4 59.737V59.737Z" stroke="#A3B1BF" stroke-width="0.81"/>
<path fill-rule="evenodd" clip-rule="evenodd" d="M329.4 68.6607C328.573 68.6607 327.903 67.993 327.903 67.1698C327.903 66.3456 328.573 65.6779 329.4 65.6779C330.226 65.6779 330.896 66.3456 330.896 67.1698C330.896 67.993 330.226 68.6607 329.4 68.6607Z" fill="white"/>
<path fill-rule="evenodd" clip-rule="evenodd" d="M329.4 68.6607C328.573 68.6607 327.903 67.993 327.903 67.1698C327.903 66.3456 328.573 65.6779 329.4 65.6779C330.226 65.6779 330.896 66.3456 330.896 67.1698C330.896 67.993 330.226 68.6607 329.4 68.6607V68.6607Z" stroke="#A3B1BF" stroke-width="0.81"/>
<path fill-rule="evenodd" clip-rule="evenodd" d="M335.182 26.6076C335.182 25.7833 335.853 25.1156 336.679 25.1156C337.505 25.1156 338.176 25.7833 338.176 26.6076C338.176 27.4308 337.505 28.0985 336.679 28.0985C335.853 28.0985 335.182 27.4308 335.182 26.6076Z" fill="white"/>
<path fill-rule="evenodd" clip-rule="evenodd" d="M336.679 28.0985C335.853 28.0985 335.182 27.4308 335.182 26.6076C335.182 25.7833 335.853 25.1156 336.679 25.1156C337.505 25.1156 338.176 25.7833 338.176 26.6076C338.176 27.4308 337.505 28.0985 336.679 28.0985V28.0985Z" stroke="#A3B1BF" stroke-width="0.81"/>
<path fill-rule="evenodd" clip-rule="evenodd" d="M336.679 37.0222C335.853 37.0222 335.182 36.3545 335.182 35.5313C335.182 34.707 335.853 34.0393 336.679 34.0393C337.505 34.0393 338.176 34.707 338.176 35.5313C338.176 36.3545 337.505 37.0222 336.679 37.0222Z" fill="white"/>
<path fill-rule="evenodd" clip-rule="evenodd" d="M336.679 37.0222C335.853 37.0222 335.182 36.3545 335.182 35.5313C335.182 34.707 335.853 34.0393 336.679 34.0393C337.505 34.0393 338.176 34.707 338.176 35.5313C338.176 36.3545 337.505 37.0222 336.679 37.0222V37.0222Z" stroke="#A3B1BF" stroke-width="0.81"/>
<path fill-rule="evenodd" clip-rule="evenodd" d="M336.679 45.9459C335.853 45.9459 335.182 45.2782 335.182 44.455C335.182 43.6307 335.853 42.963 336.679 42.963C337.505 42.963 338.176 43.6307 338.176 44.455C338.176 45.2782 337.505 45.9459 336.679 45.9459Z" fill="white"/>
<path fill-rule="evenodd" clip-rule="evenodd" d="M336.679 45.9459C335.853 45.9459 335.182 45.2782 335.182 44.455C335.182 43.6307 335.853 42.963 336.679 42.963C337.505 42.963 338.176 43.6307 338.176 44.455C338.176 45.2782 337.505 45.9459 336.679 45.9459V45.9459Z" stroke="#A3B1BF" stroke-width="0.81"/>
<path fill-rule="evenodd" clip-rule="evenodd" d="M336.679 54.8695C335.853 54.8695 335.182 54.2018 335.182 53.3786C335.182 52.5544 335.853 51.8867 336.679 51.8867C337.505 51.8867 338.176 52.5544 338.176 53.3786C338.176 54.2018 337.505 54.8695 336.679 54.8695Z" fill="white"/>
<path fill-rule="evenodd" clip-rule="evenodd" d="M336.679 54.8695C335.853 54.8695 335.182 54.2018 335.182 53.3786C335.182 52.5544 335.853 51.8867 336.679 51.8867C337.505 51.8867 338.176 52.5544 338.176 53.3786C338.176 54.2018 337.505 54.8695 336.679 54.8695V54.8695Z" stroke="#A3B1BF" stroke-width="0.81"/>
<path fill-rule="evenodd" clip-rule="evenodd" d="M336.679 63.7932C335.853 63.7932 335.182 63.1255 335.182 62.3023C335.182 61.4781 335.853 60.8104 336.679 60.8104C337.505 60.8104 338.176 61.4781 338.176 62.3023C338.176 63.1255 337.505 63.7932 336.679 63.7932Z" fill="white"/>
<path fill-rule="evenodd" clip-rule="evenodd" d="M336.679 63.7932C335.853 63.7932 335.182 63.1255 335.182 62.3023C335.182 61.4781 335.853 60.8104 336.679 60.8104C337.505 60.8104 338.176 61.4781 338.176 62.3023C338.176 63.1255 337.505 63.7932 336.679 63.7932V63.7932Z" stroke="#A3B1BF" stroke-width="0.81"/>
<path fill-rule="evenodd" clip-rule="evenodd" d="M336.679 72.7169C335.853 72.7169 335.182 72.0492 335.182 71.226C335.182 70.4018 335.853 69.7341 336.679 69.7341C337.505 69.7341 338.176 70.4018 338.176 71.226C338.176 72.0492 337.505 72.7169 336.679 72.7169Z" fill="white"/>
<path fill-rule="evenodd" clip-rule="evenodd" d="M336.679 72.7169C335.853 72.7169 335.182 72.0492 335.182 71.226C335.182 70.4018 335.853 69.7341 336.679 69.7341C337.505 69.7341 338.176 70.4018 338.176 71.226C338.176 72.0492 337.505 72.7169 336.679 72.7169V72.7169Z" stroke="#A3B1BF" stroke-width="0.81"/>
<path fill-rule="evenodd" clip-rule="evenodd" d="M332.747 131.667C332.747 129.278 334.691 127.341 337.089 127.341C339.487 127.341 341.432 129.278 341.432 131.667C341.432 134.056 339.487 135.992 337.089 135.992C334.691 135.992 332.747 134.056 332.747 131.667Z" fill="#A3B1BF"/>
<path fill-rule="evenodd" clip-rule="evenodd" d="M308.374 123.014C307.548 123.014 306.878 122.346 306.878 121.523C306.878 120.699 307.548 120.031 308.374 120.031C309.201 120.031 309.871 120.699 309.871 121.523C309.871 122.346 309.201 123.014 308.374 123.014Z" fill="#F5F5F5"/>
<path fill-rule="evenodd" clip-rule="evenodd" d="M308.374 123.014C307.548 123.014 306.878 122.346 306.878 121.523C306.878 120.699 307.548 120.031 308.374 120.031C309.201 120.031 309.871 120.699 309.871 121.523C309.871 122.346 309.201 123.014 308.374 123.014V123.014Z" stroke="#A3B1BF" stroke-width="0.81"/>
<path fill-rule="evenodd" clip-rule="evenodd" d="M294.626 123.014C293.8 123.014 293.13 122.346 293.13 121.523C293.13 120.699 293.8 120.031 294.626 120.031C295.453 120.031 296.123 120.699 296.123 121.523C296.123 122.346 295.453 123.014 294.626 123.014Z" fill="#F5F5F5"/>
<path fill-rule="evenodd" clip-rule="evenodd" d="M294.626 123.014C293.8 123.014 293.13 122.346 293.13 121.523C293.13 120.699 293.8 120.031 294.626 120.031C295.453 120.031 296.123 120.699 296.123 121.523C296.123 122.346 295.453 123.014 294.626 123.014V123.014Z" stroke="#A3B1BF" stroke-width="0.81"/>
<path fill-rule="evenodd" clip-rule="evenodd" d="M308.374 40.2672C307.548 40.2672 306.878 39.5995 306.878 38.7763C306.878 37.952 307.548 37.2843 308.374 37.2843C309.201 37.2843 309.871 37.952 309.871 38.7763C309.871 39.5995 309.201 40.2672 308.374 40.2672Z" fill="#F5F5F5"/>
<path fill-rule="evenodd" clip-rule="evenodd" d="M308.374 40.2672C307.548 40.2672 306.878 39.5995 306.878 38.7763C306.878 37.952 307.548 37.2843 308.374 37.2843C309.201 37.2843 309.871 37.952 309.871 38.7763C309.871 39.5995 309.201 40.2672 308.374 40.2672V40.2672Z" stroke="#A3B1BF" stroke-width="0.81"/>
<path fill-rule="evenodd" clip-rule="evenodd" d="M294.626 40.2672C293.8 40.2672 293.13 39.5995 293.13 38.7763C293.13 37.952 293.8 37.2843 294.626 37.2843C295.453 37.2843 296.123 37.952 296.123 38.7763C296.123 39.5995 295.453 40.2672 294.626 40.2672Z" fill="#F5F5F5"/>
<path fill-rule="evenodd" clip-rule="evenodd" d="M294.626 40.2672C293.8 40.2672 293.13 39.5995 293.13 38.7763C293.13 37.952 293.8 37.2843 294.626 37.2843C295.453 37.2843 296.123 37.952 296.123 38.7763C296.123 39.5995 295.453 40.2672 294.626 40.2672V40.2672Z" stroke="#A3B1BF" stroke-width="0.81"/>
<path fill-rule="evenodd" clip-rule="evenodd" d="M251.845 21.4471C251.845 16.8852 255.592 13.1527 260.171 13.1527L272.71 13.1527C277.29 13.1527 281.037 16.8852 281.037 21.4471V138.935C281.037 143.497 277.29 147.23 272.71 147.23H260.171C255.592 147.23 251.845 143.497 251.845 138.935V21.4471Z" fill="#F0F2F5"/>
<path fill-rule="evenodd" clip-rule="evenodd" d="M251.845 21.4471C251.845 16.8852 255.592 13.1527 260.171 13.1527L272.71 13.1527C277.29 13.1527 281.037 16.8852 281.037 21.4471V138.935C281.037 143.497 277.29 147.23 272.71 147.23H260.171C255.592 147.23 251.845 143.497 251.845 138.935V21.4471V21.4471Z" stroke="#A3B1BF" stroke-width="1.62"/>
<path fill-rule="evenodd" clip-rule="evenodd" d="M273.599 24.0422C272.773 24.0422 272.102 23.3745 272.102 22.5513C272.102 21.727 272.773 21.0593 273.599 21.0593C274.425 21.0593 275.096 21.727 275.096 22.5513C275.096 23.3745 274.425 24.0422 273.599 24.0422Z" fill="white"/>
<path fill-rule="evenodd" clip-rule="evenodd" d="M273.599 24.0422C272.773 24.0422 272.102 23.3745 272.102 22.5513C272.102 21.727 272.773 21.0593 273.599 21.0593C274.425 21.0593 275.096 21.727 275.096 22.5513C275.096 23.3745 274.425 24.0422 273.599 24.0422V24.0422Z" stroke="#A3B1BF" stroke-width="0.81"/>
<path fill-rule="evenodd" clip-rule="evenodd" d="M273.599 32.9659C272.773 32.9659 272.102 32.2982 272.102 31.475C272.102 30.6507 272.773 29.983 273.599 29.983C274.425 29.983 275.096 30.6507 275.096 31.475C275.096 32.2982 274.425 32.9659 273.599 32.9659Z" fill="white"/>
<path fill-rule="evenodd" clip-rule="evenodd" d="M273.599 32.9659C272.773 32.9659 272.102 32.2982 272.102 31.475C272.102 30.6507 272.773 29.983 273.599 29.983C274.425 29.983 275.096 30.6507 275.096 31.475C275.096 32.2982 274.425 32.9659 273.599 32.9659V32.9659Z" stroke="#A3B1BF" stroke-width="0.81"/>
<path fill-rule="evenodd" clip-rule="evenodd" d="M273.599 41.8896C272.773 41.8896 272.102 41.2219 272.102 40.3987C272.102 39.5744 272.773 38.9067 273.599 38.9067C274.425 38.9067 275.096 39.5744 275.096 40.3987C275.096 41.2219 274.425 41.8896 273.599 41.8896Z" fill="white"/>
<path fill-rule="evenodd" clip-rule="evenodd" d="M273.599 41.8896C272.773 41.8896 272.102 41.2219 272.102 40.3987C272.102 39.5744 272.773 38.9067 273.599 38.9067C274.425 38.9067 275.096 39.5744 275.096 40.3987C275.096 41.2219 274.425 41.8896 273.599 41.8896V41.8896Z" stroke="#A3B1BF" stroke-width="0.81"/>
<path fill-rule="evenodd" clip-rule="evenodd" d="M273.599 50.8133C272.773 50.8133 272.102 50.1456 272.102 49.3224C272.102 48.4981 272.773 47.8304 273.599 47.8304C274.425 47.8304 275.096 48.4981 275.096 49.3224C275.096 50.1456 274.425 50.8133 273.599 50.8133Z" fill="white"/>
<path fill-rule="evenodd" clip-rule="evenodd" d="M273.599 50.8133C272.773 50.8133 272.102 50.1456 272.102 49.3224C272.102 48.4981 272.773 47.8304 273.599 47.8304C274.425 47.8304 275.096 48.4981 275.096 49.3224C275.096 50.1456 274.425 50.8133 273.599 50.8133V50.8133Z" stroke="#A3B1BF" stroke-width="0.81"/>
<path fill-rule="evenodd" clip-rule="evenodd" d="M273.599 59.737C272.773 59.737 272.102 59.0693 272.102 58.2461C272.102 57.4219 272.773 56.7542 273.599 56.7542C274.425 56.7542 275.096 57.4219 275.096 58.2461C275.096 59.0693 274.425 59.737 273.599 59.737Z" fill="white"/>
<path fill-rule="evenodd" clip-rule="evenodd" d="M273.599 59.737C272.773 59.737 272.102 59.0693 272.102 58.2461C272.102 57.4219 272.773 56.7542 273.599 56.7542C274.425 56.7542 275.096 57.4219 275.096 58.2461C275.096 59.0693 274.425 59.737 273.599 59.737V59.737Z" stroke="#A3B1BF" stroke-width="0.81"/>
<path fill-rule="evenodd" clip-rule="evenodd" d="M272.102 67.1698C272.102 66.3456 272.773 65.6779 273.599 65.6779C274.425 65.6779 275.096 66.3456 275.096 67.1698C275.096 67.993 274.425 68.6607 273.599 68.6607C272.773 68.6607 272.102 67.993 272.102 67.1698Z" fill="white"/>
<path fill-rule="evenodd" clip-rule="evenodd" d="M273.599 68.6607C272.773 68.6607 272.102 67.993 272.102 67.1698C272.102 66.3456 272.773 65.6779 273.599 65.6779C274.425 65.6779 275.096 66.3456 275.096 67.1698C275.096 67.993 274.425 68.6607 273.599 68.6607V68.6607Z" stroke="#A3B1BF" stroke-width="0.81"/>
<path fill-rule="evenodd" clip-rule="evenodd" d="M259.042 24.0422C258.216 24.0422 257.546 23.3745 257.546 22.5513C257.546 21.727 258.216 21.0593 259.042 21.0593C259.869 21.0593 260.539 21.727 260.539 22.5513C260.539 23.3745 259.869 24.0422 259.042 24.0422Z" fill="white"/>
<path fill-rule="evenodd" clip-rule="evenodd" d="M259.042 24.0422C258.216 24.0422 257.546 23.3745 257.546 22.5513C257.546 21.727 258.216 21.0593 259.042 21.0593C259.869 21.0593 260.539 21.727 260.539 22.5513C260.539 23.3745 259.869 24.0422 259.042 24.0422V24.0422Z" stroke="#A3B1BF" stroke-width="0.81"/>
<path fill-rule="evenodd" clip-rule="evenodd" d="M259.042 32.9659C258.216 32.9659 257.546 32.2982 257.546 31.475C257.546 30.6507 258.216 29.983 259.042 29.983C259.869 29.983 260.539 30.6507 260.539 31.475C260.539 32.2982 259.869 32.9659 259.042 32.9659Z" fill="white"/>
<path fill-rule="evenodd" clip-rule="evenodd" d="M259.042 32.9659C258.216 32.9659 257.546 32.2982 257.546 31.475C257.546 30.6507 258.216 29.983 259.042 29.983C259.869 29.983 260.539 30.6507 260.539 31.475C260.539 32.2982 259.869 32.9659 259.042 32.9659V32.9659Z" stroke="#A3B1BF" stroke-width="0.81"/>
<path fill-rule="evenodd" clip-rule="evenodd" d="M259.042 41.8896C258.216 41.8896 257.546 41.2219 257.546 40.3987C257.546 39.5744 258.216 38.9067 259.042 38.9067C259.869 38.9067 260.539 39.5744 260.539 40.3987C260.539 41.2219 259.869 41.8896 259.042 41.8896Z" fill="white"/>
<path fill-rule="evenodd" clip-rule="evenodd" d="M259.042 41.8896C258.216 41.8896 257.546 41.2219 257.546 40.3987C257.546 39.5744 258.216 38.9067 259.042 38.9067C259.869 38.9067 260.539 39.5744 260.539 40.3987C260.539 41.2219 259.869 41.8896 259.042 41.8896V41.8896Z" stroke="#A3B1BF" stroke-width="0.81"/>
<path fill-rule="evenodd" clip-rule="evenodd" d="M259.042 50.8133C258.216 50.8133 257.546 50.1456 257.546 49.3224C257.546 48.4981 258.216 47.8304 259.042 47.8304C259.869 47.8304 260.539 48.4981 260.539 49.3224C260.539 50.1456 259.869 50.8133 259.042 50.8133Z" fill="white"/>
<path fill-rule="evenodd" clip-rule="evenodd" d="M259.042 50.8133C258.216 50.8133 257.546 50.1456 257.546 49.3224C257.546 48.4981 258.216 47.8304 259.042 47.8304C259.869 47.8304 260.539 48.4981 260.539 49.3224C260.539 50.1456 259.869 50.8133 259.042 50.8133V50.8133Z" stroke="#A3B1BF" stroke-width="0.81"/>
<path fill-rule="evenodd" clip-rule="evenodd" d="M259.042 59.737C258.216 59.737 257.546 59.0693 257.546 58.2461C257.546 57.4219 258.216 56.7542 259.042 56.7542C259.869 56.7542 260.539 57.4219 260.539 58.2461C260.539 59.0693 259.869 59.737 259.042 59.737Z" fill="white"/>
<path fill-rule="evenodd" clip-rule="evenodd" d="M259.042 59.737C258.216 59.737 257.546 59.0693 257.546 58.2461C257.546 57.4219 258.216 56.7542 259.042 56.7542C259.869 56.7542 260.539 57.4219 260.539 58.2461C260.539 59.0693 259.869 59.737 259.042 59.737V59.737Z" stroke="#A3B1BF" stroke-width="0.81"/>
<path fill-rule="evenodd" clip-rule="evenodd" d="M259.042 68.6607C258.216 68.6607 257.546 67.993 257.546 67.1698C257.546 66.3456 258.216 65.6779 259.042 65.6779C259.869 65.6779 260.539 66.3456 260.539 67.1698C260.539 67.993 259.869 68.6607 259.042 68.6607Z" fill="white"/>
<path fill-rule="evenodd" clip-rule="evenodd" d="M259.042 68.6607C258.216 68.6607 257.546 67.993 257.546 67.1698C257.546 66.3456 258.216 65.6779 259.042 65.6779C259.869 65.6779 260.539 66.3456 260.539 67.1698C260.539 67.993 259.869 68.6607 259.042 68.6607V68.6607Z" stroke="#A3B1BF" stroke-width="0.81"/>
<path fill-rule="evenodd" clip-rule="evenodd" d="M266.322 28.0985C265.495 28.0985 264.825 27.4308 264.825 26.6076C264.825 25.7833 265.495 25.1156 266.322 25.1156C267.148 25.1156 267.818 25.7833 267.818 26.6076C267.818 27.4308 267.148 28.0985 266.322 28.0985Z" fill="white"/>
<path fill-rule="evenodd" clip-rule="evenodd" d="M266.322 28.0985C265.495 28.0985 264.825 27.4308 264.825 26.6076C264.825 25.7833 265.495 25.1156 266.322 25.1156C267.148 25.1156 267.818 25.7833 267.818 26.6076C267.818 27.4308 267.148 28.0985 266.322 28.0985V28.0985Z" stroke="#A3B1BF" stroke-width="0.81"/>
<path fill-rule="evenodd" clip-rule="evenodd" d="M266.322 37.0222C265.495 37.0222 264.825 36.3545 264.825 35.5313C264.825 34.707 265.495 34.0393 266.322 34.0393C267.148 34.0393 267.818 34.707 267.818 35.5313C267.818 36.3545 267.148 37.0222 266.322 37.0222Z" fill="white"/>
<path fill-rule="evenodd" clip-rule="evenodd" d="M266.322 37.0222C265.495 37.0222 264.825 36.3545 264.825 35.5313C264.825 34.707 265.495 34.0393 266.322 34.0393C267.148 34.0393 267.818 34.707 267.818 35.5313C267.818 36.3545 267.148 37.0222 266.322 37.0222V37.0222Z" stroke="#A3B1BF" stroke-width="0.81"/>
<path fill-rule="evenodd" clip-rule="evenodd" d="M266.322 45.9459C265.495 45.9459 264.825 45.2782 264.825 44.455C264.825 43.6307 265.495 42.963 266.322 42.963C267.148 42.963 267.818 43.6307 267.818 44.455C267.818 45.2782 267.148 45.9459 266.322 45.9459Z" fill="white"/>
<path fill-rule="evenodd" clip-rule="evenodd" d="M266.322 45.9459C265.495 45.9459 264.825 45.2782 264.825 44.455C264.825 43.6307 265.495 42.963 266.322 42.963C267.148 42.963 267.818 43.6307 267.818 44.455C267.818 45.2782 267.148 45.9459 266.322 45.9459V45.9459Z" stroke="#A3B1BF" stroke-width="0.81"/>
<path fill-rule="evenodd" clip-rule="evenodd" d="M266.322 54.8695C265.495 54.8695 264.825 54.2018 264.825 53.3786C264.825 52.5544 265.495 51.8867 266.322 51.8867C267.148 51.8867 267.818 52.5544 267.818 53.3786C267.818 54.2018 267.148 54.8695 266.322 54.8695Z" fill="white"/>
<path fill-rule="evenodd" clip-rule="evenodd" d="M266.322 54.8695C265.495 54.8695 264.825 54.2018 264.825 53.3786C264.825 52.5544 265.495 51.8867 266.322 51.8867C267.148 51.8867 267.818 52.5544 267.818 53.3786C267.818 54.2018 267.148 54.8695 266.322 54.8695V54.8695Z" stroke="#A3B1BF" stroke-width="0.81"/>
<path fill-rule="evenodd" clip-rule="evenodd" d="M266.322 63.7932C265.495 63.7932 264.825 63.1255 264.825 62.3023C264.825 61.4781 265.495 60.8104 266.322 60.8104C267.148 60.8104 267.818 61.4781 267.818 62.3023C267.818 63.1255 267.148 63.7932 266.322 63.7932Z" fill="white"/>
<path fill-rule="evenodd" clip-rule="evenodd" d="M266.322 63.7932C265.495 63.7932 264.825 63.1255 264.825 62.3023C264.825 61.4781 265.495 60.8104 266.322 60.8104C267.148 60.8104 267.818 61.4781 267.818 62.3023C267.818 63.1255 267.148 63.7932 266.322 63.7932V63.7932Z" stroke="#A3B1BF" stroke-width="0.81"/>
<path fill-rule="evenodd" clip-rule="evenodd" d="M266.322 72.7169C265.495 72.7169 264.825 72.0492 264.825 71.226C264.825 70.4018 265.495 69.7341 266.322 69.7341C267.148 69.7341 267.818 70.4018 267.818 71.226C267.818 72.0492 267.148 72.7169 266.322 72.7169Z" fill="white"/>
<path fill-rule="evenodd" clip-rule="evenodd" d="M266.322 72.7169C265.495 72.7169 264.825 72.0492 264.825 71.226C264.825 70.4018 265.495 69.7341 266.322 69.7341C267.148 69.7341 267.818 70.4018 267.818 71.226C267.818 72.0492 267.148 72.7169 266.322 72.7169V72.7169Z" stroke="#A3B1BF" stroke-width="0.81"/>
<path fill-rule="evenodd" clip-rule="evenodd" d="M261.581 131.667C261.581 129.278 263.525 127.341 265.923 127.341C268.321 127.341 270.266 129.278 270.266 131.667C270.266 134.056 268.321 135.992 265.923 135.992C263.525 135.992 261.581 134.056 261.581 131.667Z" fill="#A3B1BF"/>
<path fill-rule="evenodd" clip-rule="evenodd" d="M216.261 21.4471C216.261 16.8852 220.008 13.1527 224.587 13.1527L237.126 13.1527C241.706 13.1527 245.453 16.8852 245.453 21.4471V138.935C245.453 143.497 241.706 147.23 237.126 147.23H224.587C220.008 147.23 216.261 143.497 216.261 138.935V21.4471Z" fill="#F0F2F5"/>
<path fill-rule="evenodd" clip-rule="evenodd" d="M216.261 21.4471C216.261 16.8852 220.008 13.1527 224.587 13.1527L237.126 13.1527C241.706 13.1527 245.453 16.8852 245.453 21.4471V138.935C245.453 143.497 241.706 147.23 237.126 147.23H224.587C220.008 147.23 216.261 143.497 216.261 138.935V21.4471V21.4471Z" stroke="#A3B1BF" stroke-width="1.62"/>
<path fill-rule="evenodd" clip-rule="evenodd" d="M238.017 24.0422C237.191 24.0422 236.52 23.3745 236.52 22.5513C236.52 21.727 237.191 21.0593 238.017 21.0593C238.843 21.0593 239.514 21.727 239.514 22.5513C239.514 23.3745 238.843 24.0422 238.017 24.0422V24.0422Z" stroke="#A3B1BF" stroke-width="0.81"/>
<path fill-rule="evenodd" clip-rule="evenodd" d="M238.017 32.9659C237.191 32.9659 236.52 32.2982 236.52 31.475C236.52 30.6507 237.191 29.983 238.017 29.983C238.843 29.983 239.514 30.6507 239.514 31.475C239.514 32.2982 238.843 32.9659 238.017 32.9659V32.9659Z" stroke="#A3B1BF" stroke-width="0.81"/>
<path fill-rule="evenodd" clip-rule="evenodd" d="M238.017 41.8896C237.191 41.8896 236.52 41.2219 236.52 40.3987C236.52 39.5744 237.191 38.9067 238.017 38.9067C238.843 38.9067 239.514 39.5744 239.514 40.3987C239.514 41.2219 238.843 41.8896 238.017 41.8896V41.8896Z" stroke="#A3B1BF" stroke-width="0.81"/>
<path fill-rule="evenodd" clip-rule="evenodd" d="M238.017 50.8133C237.191 50.8133 236.52 50.1456 236.52 49.3224C236.52 48.4981 237.191 47.8304 238.017 47.8304C238.843 47.8304 239.514 48.4981 239.514 49.3224C239.514 50.1456 238.843 50.8133 238.017 50.8133V50.8133Z" stroke="#A3B1BF" stroke-width="0.81"/>
<path fill-rule="evenodd" clip-rule="evenodd" d="M238.017 59.737C237.191 59.737 236.52 59.0693 236.52 58.2461C236.52 57.4219 237.191 56.7542 238.017 56.7542C238.843 56.7542 239.514 57.4219 239.514 58.2461C239.514 59.0693 238.843 59.737 238.017 59.737V59.737Z" stroke="#A3B1BF" stroke-opacity="0.85" stroke-width="0.81"/>
<path fill-rule="evenodd" clip-rule="evenodd" d="M238.017 68.6607C237.191 68.6607 236.52 67.993 236.52 67.1698C236.52 66.3456 237.191 65.6779 238.017 65.6779C238.843 65.6779 239.514 66.3456 239.514 67.1698C239.514 67.993 238.843 68.6607 238.017 68.6607V68.6607Z" stroke="#A3B1BF" stroke-width="0.81"/>
<path fill-rule="evenodd" clip-rule="evenodd" d="M224.269 24.0422C223.442 24.0422 222.772 23.3745 222.772 22.5513C222.772 21.727 223.442 21.0593 224.269 21.0593C225.095 21.0593 225.766 21.727 225.766 22.5513C225.766 23.3745 225.095 24.0422 224.269 24.0422V24.0422Z" stroke="#A3B1BF" stroke-width="0.81"/>
<path fill-rule="evenodd" clip-rule="evenodd" d="M224.269 32.9659C223.442 32.9659 222.772 32.2982 222.772 31.475C222.772 30.6507 223.442 29.983 224.269 29.983C225.095 29.983 225.766 30.6507 225.766 31.475C225.766 32.2982 225.095 32.9659 224.269 32.9659V32.9659Z" stroke="#A3B1BF" stroke-width="0.81"/>
<path fill-rule="evenodd" clip-rule="evenodd" d="M224.269 41.8896C223.442 41.8896 222.772 41.2219 222.772 40.3987C222.772 39.5744 223.442 38.9067 224.269 38.9067C225.095 38.9067 225.766 39.5744 225.766 40.3987C225.766 41.2219 225.095 41.8896 224.269 41.8896V41.8896Z" stroke="#A3B1BF" stroke-width="0.81"/>
<path fill-rule="evenodd" clip-rule="evenodd" d="M224.269 50.8133C223.442 50.8133 222.772 50.1456 222.772 49.3224C222.772 48.4981 223.442 47.8304 224.269 47.8304C225.095 47.8304 225.766 48.4981 225.766 49.3224C225.766 50.1456 225.095 50.8133 224.269 50.8133V50.8133Z" stroke="#A3B1BF" stroke-width="0.81"/>
<path fill-rule="evenodd" clip-rule="evenodd" d="M224.269 59.737C223.442 59.737 222.772 59.0693 222.772 58.2461C222.772 57.4219 223.442 56.7542 224.269 56.7542C225.095 56.7542 225.766 57.4219 225.766 58.2461C225.766 59.0693 225.095 59.737 224.269 59.737V59.737Z" stroke="#A3B1BF" stroke-width="0.81"/>
<path fill-rule="evenodd" clip-rule="evenodd" d="M224.269 68.6607C223.442 68.6607 222.772 67.993 222.772 67.1698C222.772 66.3456 223.442 65.6779 224.269 65.6779C225.095 65.6779 225.766 66.3456 225.766 67.1698C225.766 67.993 225.095 68.6607 224.269 68.6607V68.6607Z" stroke="#A3B1BF" stroke-width="0.81"/>
<path fill-rule="evenodd" clip-rule="evenodd" d="M230.738 28.0985C229.911 28.0985 229.241 27.4308 229.241 26.6076C229.241 25.7833 229.911 25.1156 230.738 25.1156C231.564 25.1156 232.234 25.7833 232.234 26.6076C232.234 27.4308 231.564 28.0985 230.738 28.0985V28.0985Z" stroke="#A3B1BF" stroke-width="0.81"/>
<path fill-rule="evenodd" clip-rule="evenodd" d="M230.738 37.0222C229.911 37.0222 229.241 36.3545 229.241 35.5313C229.241 34.707 229.911 34.0393 230.738 34.0393C231.564 34.0393 232.234 34.707 232.234 35.5313C232.234 36.3545 231.564 37.0222 230.738 37.0222V37.0222Z" stroke="#A3B1BF" stroke-width="0.81"/>
<path fill-rule="evenodd" clip-rule="evenodd" d="M230.738 45.9459C229.911 45.9459 229.241 45.2782 229.241 44.455C229.241 43.6307 229.911 42.963 230.738 42.963C231.564 42.963 232.234 43.6307 232.234 44.455C232.234 45.2782 231.564 45.9459 230.738 45.9459V45.9459Z" stroke="#A3B1BF" stroke-width="0.81"/>
<path fill-rule="evenodd" clip-rule="evenodd" d="M230.738 54.8695C229.911 54.8695 229.241 54.2018 229.241 53.3786C229.241 52.5544 229.911 51.8867 230.738 51.8867C231.564 51.8867 232.234 52.5544 232.234 53.3786C232.234 54.2018 231.564 54.8695 230.738 54.8695V54.8695Z" stroke="#A3B1BF" stroke-width="0.81"/>
<path fill-rule="evenodd" clip-rule="evenodd" d="M230.738 63.7932C229.911 63.7932 229.241 63.1255 229.241 62.3023C229.241 61.4781 229.911 60.8104 230.738 60.8104C231.564 60.8104 232.234 61.4781 232.234 62.3023C232.234 63.1255 231.564 63.7932 230.738 63.7932V63.7932Z" stroke="#A3B1BF" stroke-width="0.81"/>
<path fill-rule="evenodd" clip-rule="evenodd" d="M230.738 72.7169C229.911 72.7169 229.241 72.0492 229.241 71.226C229.241 70.4018 229.911 69.7341 230.738 69.7341C231.564 69.7341 232.234 70.4018 232.234 71.226C232.234 72.0492 231.564 72.7169 230.738 72.7169V72.7169Z" stroke="#A3B1BF" stroke-width="0.81"/>
<path fill-rule="evenodd" clip-rule="evenodd" d="M231.15 135.992C228.752 135.992 226.807 134.056 226.807 131.667C226.807 129.278 228.752 127.341 231.15 127.341C233.548 127.341 235.492 129.278 235.492 131.667C235.492 134.056 233.548 135.992 231.15 135.992V129.328Z" fill="#A3B1BF"/>
<path fill-rule="evenodd" clip-rule="evenodd" d="M153.138 19.9874L165.026 16.0123C169.368 14.5608 174.112 16.9123 175.569 21.2368C175.569 21.2368 184.589 48.0029 189.099 61.386C197.1 85.1298 213.102 132.617 213.102 132.617C214.559 136.943 212.2 141.669 207.858 143.12L195.971 147.095C191.629 148.547 186.884 146.196 185.427 141.871L147.894 30.4902C146.437 26.1657 148.797 21.4389 153.138 19.9874Z" stroke="#A3B1BF" stroke-width="1.62"/>
<path fill-rule="evenodd" clip-rule="evenodd" d="M171.093 36.0053C170.83 35.2246 171.251 34.3796 172.036 34.1173C172.82 33.855 173.668 34.2759 173.931 35.0566C174.195 35.8374 173.772 36.6823 172.988 36.9447C172.205 37.207 171.355 36.786 171.093 36.0053Z" stroke="#A3B1BF" stroke-width="0.81"/>
<path fill-rule="evenodd" clip-rule="evenodd" d="M173.519 44.929C173.256 44.1483 173.677 43.3033 174.462 43.041C175.246 42.7787 176.094 43.1996 176.357 43.9803C176.621 44.7611 176.198 45.6061 175.414 45.8684C174.63 46.1307 173.781 45.7097 173.519 44.929Z" stroke="#A3B1BF" stroke-width="0.81"/>
<path fill-rule="evenodd" clip-rule="evenodd" d="M176.753 53.0414C176.49 52.2607 176.911 51.4157 177.696 51.1534C178.48 50.8911 179.328 51.3121 179.592 52.0928C179.855 52.8735 179.432 53.7185 178.649 53.9808C177.865 54.2431 177.016 53.8222 176.753 53.0414Z" stroke="#A3B1BF" stroke-width="0.81"/>
<path fill-rule="evenodd" clip-rule="evenodd" d="M181.076 62.9045C180.293 63.1668 179.443 62.7459 179.181 61.9652C178.918 61.1844 179.339 60.3394 180.124 60.0771C180.908 59.8148 181.756 60.2358 182.019 61.0165C182.283 61.7972 181.86 62.6422 181.076 62.9045V62.9045Z" stroke="#A3B1BF" stroke-width="0.81"/>
<path fill-rule="evenodd" clip-rule="evenodd" d="M184.311 71.0169C183.527 71.2792 182.678 70.8583 182.415 70.0776C182.152 69.2969 182.574 68.4519 183.358 68.1896C184.142 67.9273 184.99 68.3482 185.254 69.1289C185.517 69.9096 185.094 70.7546 184.311 71.0169V71.0169Z" stroke="#A3B1BF" stroke-width="0.81"/>
<path fill-rule="evenodd" clip-rule="evenodd" d="M186.737 79.9406C185.953 80.2029 185.103 79.782 184.841 79.0013C184.578 78.2206 184.999 77.3756 185.784 77.1133C186.568 76.851 187.416 77.2719 187.68 78.0526C187.943 78.8333 187.52 79.6783 186.737 79.9406V79.9406Z" stroke="#A3B1BF" stroke-width="0.81"/>
<path fill-rule="evenodd" clip-rule="evenodd" d="M157.068 40.8727C156.804 40.092 157.226 39.247 158.011 38.9847C158.794 38.7224 159.643 39.1434 159.906 39.9241C160.169 40.7048 159.747 41.5498 158.963 41.8121C158.179 42.0744 157.33 41.6535 157.068 40.8727Z" stroke="#A3B1BF" stroke-width="0.81"/>
<path fill-rule="evenodd" clip-rule="evenodd" d="M161.391 49.9246C160.607 50.1869 159.758 49.7659 159.495 48.9852C159.232 48.2045 159.654 47.3595 160.438 47.0972C161.222 46.8349 162.07 47.2558 162.334 48.0366C162.597 48.8173 162.175 49.6623 161.391 49.9246V49.9246Z" stroke="#A3B1BF" stroke-width="0.81"/>
<path fill-rule="evenodd" clip-rule="evenodd" d="M164.625 58.8482C163.841 59.1105 162.992 58.6896 162.73 57.9089C162.466 57.1282 162.888 56.2832 163.673 56.0209C164.457 55.7585 165.305 56.1795 165.568 56.9602C165.832 57.7409 165.409 58.5859 164.625 58.8482V58.8482Z" stroke="#A3B1BF" stroke-width="0.81"/>
<path fill-rule="evenodd" clip-rule="evenodd" d="M167.328 66.9607C166.545 67.223 165.695 66.8021 165.433 66.0214C165.17 65.2407 165.591 64.3957 166.376 64.1333C167.16 63.871 168.008 64.292 168.271 65.0727C168.535 65.8534 168.112 66.6984 167.328 66.9607V66.9607Z" stroke="#A3B1BF" stroke-width="0.81"/>
<path fill-rule="evenodd" clip-rule="evenodd" d="M170.563 75.8844C169.779 76.1467 168.93 75.7257 168.667 74.945C168.404 74.1643 168.826 73.3193 169.61 73.057C170.394 72.7947 171.242 73.2156 171.506 73.9963C171.769 74.777 171.346 75.622 170.563 75.8844V75.8844Z" stroke="#A3B1BF" stroke-width="0.81"/>
<path fill-rule="evenodd" clip-rule="evenodd" d="M173.797 83.9968C173.013 84.2592 172.164 83.8382 171.902 83.0575C171.638 82.2768 172.06 81.4318 172.845 81.1695C173.628 80.9072 174.477 81.3281 174.74 82.1088C175.003 82.8895 174.581 83.7345 173.797 83.9968V83.9968Z" stroke="#A3B1BF" stroke-width="0.81"/>
<path fill-rule="evenodd" clip-rule="evenodd" d="M167.328 43.4346C166.545 43.697 165.695 43.276 165.433 42.4953C165.17 41.7146 165.591 40.8696 166.376 40.6073C167.16 40.345 168.008 40.7659 168.271 41.5466C168.535 42.3273 168.112 43.1723 167.328 43.4346V43.4346Z" stroke="#A3B1BF" stroke-width="0.81"/>
<path fill-rule="evenodd" clip-rule="evenodd" d="M170.563 52.3583C169.779 52.6206 168.93 52.1997 168.667 51.4189C168.404 50.6382 168.826 49.7932 169.61 49.5309C170.394 49.2686 171.242 49.6896 171.506 50.4703C171.769 51.251 171.346 52.096 170.563 52.3583V52.3583Z" stroke="#A3B1BF" stroke-opacity="0.85" stroke-width="0.81"/>
<path fill-rule="evenodd" clip-rule="evenodd" d="M172.988 60.4707C172.205 60.733 171.355 60.3121 171.093 59.5314C170.83 58.7507 171.251 57.9057 172.036 57.6434C172.82 57.381 173.668 57.802 173.931 58.5827C174.195 59.3634 173.772 60.2084 172.988 60.4707V60.4707Z" stroke="#A3B1BF" stroke-width="0.81"/>
<path fill-rule="evenodd" clip-rule="evenodd" d="M176.223 69.3944C175.439 69.6567 174.59 69.2358 174.327 68.4551C174.064 67.6744 174.486 66.8294 175.27 66.5671C176.054 66.3048 176.903 66.7257 177.166 67.5064C177.429 68.2871 177.007 69.1321 176.223 69.3944V69.3944Z" stroke="#A3B1BF" stroke-width="0.81"/>
<path fill-rule="evenodd" clip-rule="evenodd" d="M178.649 77.5068C177.865 77.7692 177.016 77.3482 176.753 76.5675C176.49 75.7868 176.911 74.9418 177.696 74.6795C178.48 74.4172 179.328 74.8381 179.592 75.6188C179.855 76.3995 179.432 77.2445 178.649 77.5068V77.5068Z" stroke="#A3B1BF" stroke-width="0.81"/>
<path fill-rule="evenodd" clip-rule="evenodd" d="M181.885 86.4306C181.101 86.6929 180.252 86.2719 179.99 85.4912C179.726 84.7105 180.148 83.8655 180.933 83.6032C181.716 83.3409 182.565 83.7618 182.828 84.5425C183.091 85.3233 182.669 86.1682 181.885 86.4306V86.4306Z" stroke="#A3B1BF" stroke-width="0.81"/>
<path fill-rule="evenodd" clip-rule="evenodd" d="M198.567 135.769C196.294 136.529 193.831 135.31 193.068 133.044C192.306 130.78 193.53 128.328 195.804 127.568C198.077 126.807 200.539 128.027 201.303 130.291C202.066 132.557 200.84 135.009 198.567 135.769Z" fill="#A3B1BF"/>
<path fill-rule="evenodd" clip-rule="evenodd" d="M193.654 11.2174L196.28 9.70679L198.906 11.2174V14.2376L196.28 15.7482L193.654 14.2376V11.2174V11.2174Z" stroke="#A3B1BF" stroke-width="0.81"/>
<path fill-rule="evenodd" clip-rule="evenodd" d="M263.203 192.125L265.829 190.614L268.455 192.125V195.145L265.829 196.656L263.203 195.145V192.125V192.125Z" stroke="#A3B1BF" stroke-width="0.81"/>
<path fill-rule="evenodd" clip-rule="evenodd" d="M201.942 42.1565L204.568 43.6671V46.6873L201.942 48.1979L199.316 46.6873V43.6671L201.942 42.1565Z" stroke="#A3B1BF" stroke-width="0.81"/>
<path fill-rule="evenodd" clip-rule="evenodd" d="M205.177 32.4216L207.803 33.9323V36.9525L205.177 38.4631L202.551 36.9525V33.9323L205.177 32.4216Z" stroke="#A3B1BF" stroke-width="0.81"/>
<path d="M30.709 149.637H410.801" stroke="#A3B1BF" stroke-width="2.43"/>
<path fill-rule="evenodd" clip-rule="evenodd" d="M128.737 157.344C132.786 157.344 140.957 157.344 140.957 157.344C140.957 157.344 148.694 157.344 152.586 157.344C277.808 157.344 410.396 157.344 410.396 157.344C410.396 157.344 350.148 204.396 276.151 201.557C202.155 198.717 177.893 186.549 159.293 179.64C140.693 172.732 103.923 169.918 78.412 175.597C52.9005 181.276 30.3047 157.344 30.3047 157.344C30.3047 157.344 36.363 157.344 128.737 157.344Z" fill="#A3B1BF" fill-opacity="0.25"/>
<path fill-rule="evenodd" clip-rule="evenodd" d="M37.5831 147.203C57.235 147.203 73.1661 131.222 73.1661 111.508C73.1661 91.7948 57.235 75.8137 37.5831 75.8137C17.9311 75.8137 2 91.7948 2 111.508C2 131.222 17.9311 147.203 37.5831 147.203Z" fill="#A3B1BF" fill-opacity="0.25" stroke="#A3B1BF" stroke-width="2.43"/>
<path fill-rule="evenodd" clip-rule="evenodd" d="M37.8519 142.336C54.6752 142.336 68.3131 128.655 68.3131 111.779C68.3131 94.9028 54.6752 81.222 37.8519 81.222C21.0286 81.222 7.39062 94.9028 7.39062 111.779C7.39062 128.655 21.0286 142.336 37.8519 142.336Z" fill="#F0F2F5"/>
<path d="M41.627 107.858L80.4448 119.215" stroke="#A3B1BF" stroke-width="0.81"/>
<path d="M67.9101 140.713L34.7532 115.565" stroke="#A3B1BF" stroke-width="0.81"/>
<path fill-rule="evenodd" clip-rule="evenodd" d="M70.3094 128.793C69.2135 131.976 70.7562 135.405 73.7493 136.435C76.7421 137.466 80.069 135.714 81.165 132.531C82.2609 129.349 80.7173 125.921 77.7245 124.89C74.7314 123.86 71.4053 125.611 70.3094 128.793ZM67.8874 127.959C69.472 123.357 74.283 120.824 78.6114 122.315C82.9401 123.805 85.1716 128.763 83.587 133.365C82.0021 137.968 77.1913 140.501 72.8627 139.01C68.5343 137.52 66.3025 132.562 67.8874 127.959L80.8173 133.419Z" fill="#A3B1BF" fill-opacity="0.4"/>
<path fill-rule="evenodd" clip-rule="evenodd" d="M65.7964 127C63.8672 132.603 66.5838 138.637 71.852 140.451C77.1209 142.265 82.9763 139.182 84.9055 133.58C86.8345 127.977 84.1182 121.943 78.8493 120.129C73.581 118.315 67.7255 121.397 65.7964 127ZM63.3744 126.166C65.7925 119.143 73.1323 115.28 79.7362 117.554C86.34 119.828 89.7462 127.391 87.3281 134.414C84.9099 141.437 77.5689 145.301 70.965 143.027C64.3612 140.753 60.9561 133.189 63.3744 126.166Z" fill="#A3B1BF"/>
<path fill-rule="evenodd" clip-rule="evenodd" d="M33.6465 109.507C32.7752 112.038 33.9402 114.742 36.2437 115.535C38.5474 116.328 41.1302 114.915 42.0016 112.384C42.8729 109.853 41.7079 107.149 39.4042 106.356C37.1008 105.563 34.5179 106.977 33.6465 109.507ZM32.5876 109.142C33.6798 105.97 36.9174 104.199 39.8048 105.193C42.6922 106.187 44.1531 109.577 43.0608 112.749C41.9686 115.921 38.7305 117.693 35.8431 116.699C32.9556 115.704 31.4953 112.315 32.5876 109.142Z" fill="#A3B1BF"/>
<path fill-rule="evenodd" clip-rule="evenodd" d="M40.4495 111.782L81.0304 86.6858L128.751 97.7474L73.3222 125.952L73.8173 127.095L40.4495 111.782ZM35.945 113.71L73.2077 130.809C74.0204 131.097 74.7505 130.86 75.2123 130.31L76.3646 132.967L131.858 104.728L133.622 145.413C133.668 146.472 134.324 147.326 135.219 147.634C135.513 147.736 135.833 147.778 136.167 147.749C137.51 147.632 138.551 146.395 138.49 144.989L135.687 80.3506L139.382 81.623L136.987 88.5799C136.715 89.37 137.096 90.2182 137.84 90.4742L151.701 95.2469C152.064 95.3722 152.468 95.3355 152.817 95.1443L162.72 89.7287C163.063 90.3445 163.403 91.3021 163.206 92.5035C162.87 94.5497 160.92 97.8042 153.535 101.692C152.816 102.069 152.504 102.975 152.838 103.715C153.004 104.085 153.301 104.344 153.645 104.463C153.989 104.581 154.382 104.56 154.741 104.371C161.616 100.752 165.418 96.8697 166.042 92.8322C166.617 89.1092 164.234 86.7907 164.132 86.6938C163.7 86.2821 163.059 86.2036 162.523 86.4965L152.116 92.1887L140.171 88.0757L142.074 82.5498L143.778 83.1367C145.042 83.5717 146.441 82.8349 146.903 81.4918C147.366 80.1484 146.717 78.7064 145.454 78.2714L133.925 74.3018C133.159 74.0382 132.304 74.1993 131.647 74.7308C130.989 75.2624 130.616 76.0942 130.654 76.9472L131.421 94.6397L83.3247 83.4909L85.4195 71.0727C85.4936 70.0775 84.7866 69.237 83.8383 69.1984C82.8913 69.1587 82.0643 69.9342 81.9909 70.9305L79.9018 83.2631L35.8525 110.505C35.2881 110.854 34.9449 111.499 34.9648 112.174C34.9835 112.85 35.3624 113.442 35.945 113.71Z" fill="#A3B1BF"/>
<path fill-rule="evenodd" clip-rule="evenodd" d="M122.092 133.006C122.092 133.006 119.262 133.006 119.262 134.223C119.262 135.44 130.179 144.364 130.179 144.364L122.092 133.006Z" fill="#A3B1BF"/>
<path fill-rule="evenodd" clip-rule="evenodd" d="M148.376 133.006C148.376 133.006 151.207 133.006 151.207 134.223C151.207 135.44 140.289 144.364 140.289 144.364L148.376 133.006Z" fill="#A3B1BF"/>
<path fill-rule="evenodd" clip-rule="evenodd" d="M116.923 137.65C116.923 137.65 114.299 138.71 114.754 139.838C115.21 140.966 128.676 145.15 128.676 145.15L116.923 137.65Z" fill="#A3B1BF"/>
<path fill-rule="evenodd" clip-rule="evenodd" d="M152.029 138.479C152.029 138.479 154.654 139.542 154.199 140.671C153.745 141.799 140.289 145.971 140.289 145.971L152.029 138.479Z" fill="#A3B1BF"/>
<path fill-rule="evenodd" clip-rule="evenodd" d="M76.4014 59.5888C74.9748 59.2311 70.3703 57.9193 69.9317 60.4001C69.5757 62.4143 72.5124 68.415 75.5927 69.3238C82.4667 71.3519 90.1494 68.5125 97.0234 70.5406C103.897 72.5688 103.5 68.9256 102.28 67.7013C99.8539 65.2676 79.6362 60.4001 76.4014 59.5888Z" stroke="#A3B1BF" stroke-width="2.43"/>
<path fill-rule="evenodd" clip-rule="evenodd" d="M384.267 147.609C403.919 147.609 419.85 131.628 419.85 111.914C419.85 92.2005 403.919 76.2194 384.267 76.2194C364.615 76.2194 348.684 92.2005 348.684 111.914C348.684 131.628 364.615 147.609 384.267 147.609Z" fill="#DCE1E7" stroke="#A3B1BF" stroke-width="2.43"/>
<path fill-rule="evenodd" clip-rule="evenodd" d="M384.535 142.741C401.359 142.741 414.997 129.061 414.997 112.185C414.997 95.3085 401.359 81.6277 384.535 81.6277C367.712 81.6277 354.074 95.3085 354.074 112.185C354.074 129.061 367.712 142.741 384.535 142.741Z" fill="#F0F2F5"/>
<path fill-rule="evenodd" clip-rule="evenodd" d="M366.901 93.2555C365.566 94.0035 363.93 95.8495 362.413 99.4015C357.56 110.759 358.773 120.899 358.773 120.899C358.773 120.899 360.391 101.43 366.861 97.779" fill="#A3B1BF"/>
<path fill-rule="evenodd" clip-rule="evenodd" d="M402.135 131.446C403.469 130.698 405.105 128.852 406.623 125.3C411.475 113.942 410.262 103.802 410.262 103.802C410.262 103.802 408.644 123.272 402.175 126.922" fill="#A3B1BF"/>
</svg>
