<?xml version="1.0" encoding="iso-8859-1"?>
<!-- Uploaded to: SVG Repo, www.svgrepo.com, Generator: SVG Repo Mixer Tools -->
<svg height="800px" width="800px" version="1.1" id="Layer_1" xmlns="http://www.w3.org/2000/svg" xmlns:xlink="http://www.w3.org/1999/xlink" 
	 viewBox="0 0 512 512" xml:space="preserve">
<path style="fill:#FFDA79;" d="M409.507,512H102.493c-9.864,0-17.86-7.997-17.86-17.86V132.528c0-9.864,7.997-17.86,17.86-17.86
	h307.014c9.864,0,17.86,7.997,17.86,17.86V494.14C427.368,504.003,419.371,512,409.507,512z"/>
<path style="fill:#FFD155;" d="M409.507,114.668H256V512h153.507c9.864,0,17.86-7.997,17.86-17.86V132.528
	C427.368,122.664,419.371,114.668,409.507,114.668z"/>
<path style="fill:#36495E;" d="M436.611,150.389H75.389c-9.864,0-17.86-7.997-17.86-17.86V62.083c0-9.864,7.997-17.86,17.86-17.86
	h121.145C204.224,18.667,227.972,0,256,0c28.027,0,51.775,18.667,59.465,44.223h121.146c9.864,0,17.86,7.997,17.86,17.86v70.445
	C454.471,142.392,446.475,150.389,436.611,150.389z"/>
<g>
	<path style="fill:#6A82A1;" d="M277.077,235.259H165.155c-9.864,0-17.86-7.997-17.86-17.86c0-9.864,7.997-17.86,17.86-17.86
		h111.922c9.864,0,17.86,7.997,17.86,17.86C294.937,227.264,286.94,235.259,277.077,235.259z"/>
	<path style="fill:#6A82A1;" d="M277.077,311.123H165.155c-9.864,0-17.86-7.997-17.86-17.86s7.997-17.86,17.86-17.86h111.922
		c9.864,0,17.86,7.997,17.86,17.86C294.937,303.127,286.94,311.123,277.077,311.123z"/>
	<path style="fill:#6A82A1;" d="M277.077,386.986H165.155c-9.864,0-17.86-7.997-17.86-17.86s7.997-17.86,17.86-17.86h111.922
		c9.864,0,17.86,7.997,17.86,17.86C294.937,378.99,286.94,386.986,277.077,386.986z"/>
	<path style="fill:#6A82A1;" d="M277.077,462.849H165.155c-9.864,0-17.86-7.997-17.86-17.86s7.997-17.86,17.86-17.86h111.922
		c9.864,0,17.86,7.997,17.86,17.86C294.937,454.852,286.94,462.849,277.077,462.849z"/>
</g>
<path style="fill:#2C3E50;" d="M436.611,44.223H315.465C307.775,18.667,284.027,0,256,0v150.389h180.611
	c9.864,0,17.86-7.997,17.86-17.86V62.083C454.471,52.219,446.475,44.223,436.611,44.223z"/>
<g>
	<path style="fill:#36495E;" d="M277.077,199.538H256v35.721h21.077c9.864,0,17.86-7.997,17.86-17.86
		C294.937,207.535,286.94,199.538,277.077,199.538z"/>
	<path style="fill:#36495E;" d="M346.845,235.259h-14.535c-9.864,0-17.86-7.997-17.86-17.86c0-9.864,7.997-17.86,17.86-17.86h14.535
		c9.864,0,17.86,7.997,17.86,17.86C364.706,227.264,356.709,235.259,346.845,235.259z"/>
	<path style="fill:#36495E;" d="M277.077,275.402H256v35.721h21.077c9.864,0,17.86-7.997,17.86-17.86
		C294.937,283.399,286.94,275.402,277.077,275.402z"/>
	<path style="fill:#36495E;" d="M346.845,311.123h-14.535c-9.864,0-17.86-7.997-17.86-17.86s7.997-17.86,17.86-17.86h14.535
		c9.864,0,17.86,7.997,17.86,17.86C364.706,303.127,356.709,311.123,346.845,311.123z"/>
	<path style="fill:#36495E;" d="M277.077,351.265H256v35.721h21.077c9.864,0,17.86-7.997,17.86-17.86
		S286.94,351.265,277.077,351.265z"/>
	<path style="fill:#36495E;" d="M346.845,386.986h-14.535c-9.864,0-17.86-7.997-17.86-17.86s7.997-17.86,17.86-17.86h14.535
		c9.864,0,17.86,7.997,17.86,17.86S356.709,386.986,346.845,386.986z"/>
	<path style="fill:#36495E;" d="M277.077,427.128H256v35.721h21.077c9.864,0,17.86-7.997,17.86-17.86
		S286.94,427.128,277.077,427.128z"/>
	<path style="fill:#36495E;" d="M346.845,462.849h-14.535c-9.864,0-17.86-7.997-17.86-17.86s7.997-17.86,17.86-17.86h14.535
		c9.864,0,17.86,7.997,17.86,17.86S356.709,462.849,346.845,462.849z"/>
</g>
</svg>