<?xml version="1.0" encoding="UTF-8"?><svg id="Capa_1" xmlns="http://www.w3.org/2000/svg" viewBox="0 0 400 400"><defs><style>.cls-1{fill:#260c62;stroke-width:0px;}</style></defs><path class="cls-1" d="M336.64,109.1c0-21.61-17.58-39.2-39.2-39.2H102.58c-21.63,0-39.23,17.6-39.23,39.22v129.75c0,20.9,16.34,38.1,37.19,39.16l3.07.16v45.17c0,2.61,1.46,4.94,3.82,6.08,2.28,1.11,5.12.8,7.13-.78l38.56-30.49c16.4-12.95,36.91-20.08,57.77-20.08h86.52c21.63.01,39.22-17.58,39.22-39.21V109.1ZM297.41,264.59h-86.52c-23.91,0-47.4,8.16-66.14,22.98l-27.63,21.85v-38.08c0-3.72-3.03-6.75-6.75-6.75h-7.82c-14.17,0-25.69-11.53-25.69-25.69V109.13c0-14.18,11.54-25.72,25.72-25.72h194.86c14.17,0,25.69,11.53,25.69,25.69v129.76c0,14.18-11.54,25.72-25.72,25.72Z"/><path class="cls-1" d="M195.74,198.15h-32.25l-6.06,17.99h-19.12l31.24-87.54h20.67l31,87.54h-19.84l-5.64-17.99ZM190.63,183.06l-10.93-34.45-11.28,34.45h22.21Z"/><path class="cls-1" d="M230.9,128.6h18.17v87.54h-18.17v-87.54Z"/><path class="cls-1" d="M27.82,155.39c-10,0-18.13,8.13-18.13,18.13s8.13,18.13,18.13,18.13c7.72,0,14.3-4.85,16.92-11.66h30.84v-12.95h-30.84c-2.61-6.81-9.2-11.66-16.92-11.66ZM27.82,178.7c-2.86,0-5.18-2.32-5.18-5.18s2.32-5.18,5.18-5.18,5.18,2.32,5.18,5.18-2.32,5.18-5.18,5.18Z"/><path class="cls-1" d="M372.18,155.39c-7.72,0-14.3,4.85-16.92,11.66h-30.84v12.95h30.84c2.61,6.81,9.2,11.66,16.92,11.66,10,0,18.13-8.14,18.13-18.13s-8.13-18.13-18.13-18.13ZM372.18,178.7c-2.86,0-5.18-2.32-5.18-5.18s2.32-5.18,5.18-5.18,5.18,2.32,5.18,5.18-2.32,5.18-5.18,5.18Z"/></svg>