<svg id="Layer_1" data-name="Layer 1" xmlns="http://www.w3.org/2000/svg" viewBox="0 0 22.11 22.11"><title>Ai_laraigo_color copy</title><path d="M10.62,12.36H8.49l-.33,1H6.25l2.24-6h2l2.24,6h-2Zm-.38-1.25L9.58,9l-.65,2.14Zm3.17-3.72h1.86v6H13.41ZM12,1.26a2.58,2.58,0,0,0-.82.88l-.06,0c0,.06-.16,0-.21,0a7.84,7.84,0,0,0-.82-.93A3,3,0,0,0,9,.77H9a4.05,4.05,0,0,0-1.1,0,3.43,3.43,0,0,0-1,.39A3.4,3.4,0,0,0,6,1.87a3.13,3.13,0,0,0-.55.93c0,.05-.05.11-.05.16s-.06.11-.06.16,0,.11-.16.11a2.66,2.66,0,0,0-1.15.39,2.9,2.9,0,0,0-1,.87,4.23,4.23,0,0,0-.71,1.2,3.72,3.72,0,0,0-.28,1.37v.38a.23.23,0,0,1,0,.17l-.66.49a4.12,4.12,0,0,0-.49.55,4.19,4.19,0,0,0-.55,1,3.5,3.5,0,0,0-.16,1.09,3.11,3.11,0,0,0,.16,1,2.94,2.94,0,0,0,.44.93,3.84,3.84,0,0,0,.38.49,4.56,4.56,0,0,0,.44.44.18.18,0,0,1,.06.16,2.46,2.46,0,0,0-.06.66,2.42,2.42,0,0,0,.06.65A3.68,3.68,0,0,0,2,16.14a4.22,4.22,0,0,0,.66,1,3.4,3.4,0,0,0,.82.71,3,3,0,0,0,.93.49,1.14,1.14,0,0,0,.44.11,1.07,1.07,0,0,0,.43.06c.06,0,.17.05.17.11a2.9,2.9,0,0,0,.38.93,5.12,5.12,0,0,0,.71.76,3.66,3.66,0,0,0,1.2.6A3.67,3.67,0,0,0,9,21a2.21,2.21,0,0,0,1.09-.5,2.92,2.92,0,0,0,.87-1l.06,0c0-.06.16,0,.22,0a4.3,4.3,0,0,0,.71.93,2.11,2.11,0,0,0,1,.49,4,4,0,0,0,1.37.06,4.51,4.51,0,0,0,1.37-.6,3.2,3.2,0,0,0,.82-.82,2,2,0,0,0,.43-1,.13.13,0,0,1,.11-.11,3.25,3.25,0,0,0,1.21-.49,4.14,4.14,0,0,0,1-1,3.94,3.94,0,0,0,.6-1.26A5.94,5.94,0,0,0,20,14.28a.23.23,0,0,1,0-.17,6.27,6.27,0,0,0,.66-.54,1.76,1.76,0,0,0,.49-.61,3.74,3.74,0,0,0,.49-.92,6.36,6.36,0,0,0,.22-1,6.66,6.66,0,0,0-.11-1,5.17,5.17,0,0,0-.38-.93h0a4.2,4.2,0,0,0-.39-.54L20.57,8a.2.2,0,0,1-.05-.16,2.43,2.43,0,0,0,.05-.6v-.6a3.35,3.35,0,0,0-.33-1.1,3.05,3.05,0,0,0-.65-1,6,6,0,0,0-.82-.77,4.18,4.18,0,0,0-.93-.49h0a1.79,1.79,0,0,0-.55-.11h0a1.63,1.63,0,0,0-.49,0c-.05,0-.16-.06-.16-.11a.37.37,0,0,0-.06-.33l-.16-.33a5,5,0,0,0-.6-.76A3.34,3.34,0,0,0,14,.72a1.92,1.92,0,0,0-1,.05A2.35,2.35,0,0,0,12,1.26Zm4.65,3.18c0-.06.05-.11.16-.11h.38a1,1,0,0,1,.39.11,4,4,0,0,1,.71.32,3.47,3.47,0,0,1,.6.55h0a3,3,0,0,1,.43.71,3.28,3.28,0,0,1,.22.82v.6a1.74,1.74,0,0,1-.11.55h0a.38.38,0,0,0,0,.33.54.54,0,0,0,.22.27h0a4.53,4.53,0,0,1,.55.49c.16.17.27.39.44.55a3.06,3.06,0,0,1,.27.66,2.39,2.39,0,0,1,.11.65,2.91,2.91,0,0,1-.11.71,3.39,3.39,0,0,1-.33.66h0a6.9,6.9,0,0,1-.54.55c-.22.16-.44.32-.72.49h0a.52.52,0,0,0-.21.27A.65.65,0,0,0,19,14h0a2.78,2.78,0,0,1-.05,1.2,3.22,3.22,0,0,1-.5,1.09,6.67,6.67,0,0,1-.54.61,4.47,4.47,0,0,1-.66.38h0c-.11,0-.16,0-.22-.11-.32-.6-.27-.71-.65-.93a.79.79,0,0,0-.49-.11.79.79,0,0,0-.33.27h0a.89.89,0,0,0-.06.39.68.68,0,0,0,.28.32.7.7,0,0,1,.32.82,7.08,7.08,0,0,1-.32.88,2.94,2.94,0,0,1-.66.71,2.84,2.84,0,0,1-.93.44,2.9,2.9,0,0,1-.93,0,1.57,1.57,0,0,1-1.09-.82,3.33,3.33,0,0,1-.38-1.21v-.05c0-.22-.17-.33-.39-.38a.45.45,0,0,0-.27-.06c-.11,0-.22,0-.27.06a.46.46,0,0,0-.39.38v.05a3.47,3.47,0,0,1-.65,1.43,2.25,2.25,0,0,1-1.1.71A1.45,1.45,0,0,1,7.94,20a2.86,2.86,0,0,1-.82-.38,1.53,1.53,0,0,1-.54-.66,1.77,1.77,0,0,1-.22-.76,1,1,0,0,1,.33-.93A.87.87,0,0,0,7,16.9a.34.34,0,0,0-.06-.38.56.56,0,0,0-.32-.28c-.11,0-.22-.1-.5.06a1.59,1.59,0,0,0-.43.55,5.35,5.35,0,0,0-.28.54c0,.06-.11.11-.16.11s-.22,0-.27-.05a2.57,2.57,0,0,1-.28-.06A3.32,3.32,0,0,1,4,17.06a2.58,2.58,0,0,1-.6-.54,4.69,4.69,0,0,1-.5-.77A1.77,1.77,0,0,1,2.69,15h0a1.22,1.22,0,0,1,0-.6,2.61,2.61,0,0,1,.11-.61h0a.31.31,0,0,0,0-.32h0a.6.6,0,0,0-.21-.28h0a3.83,3.83,0,0,1-.5-.43c-.16-.28-.27-.44-.38-.61l-.33-.65a4.11,4.11,0,0,1-.11-.71,3.49,3.49,0,0,1,.11-.71,3.8,3.8,0,0,1,.39-.66c.16-.16.32-.38.49-.55l.65-.49a.4.4,0,0,0,.22-.22h0a.63.63,0,0,0,.06-.32V7.77h0c0-.11,0-.22-.06-.27V7.17a3.21,3.21,0,0,1,.22-1,3.25,3.25,0,0,1,.49-.87,3.11,3.11,0,0,1,.6-.55,1.68,1.68,0,0,1,.66-.27c.11,0,.16,0,.22.11a2.09,2.09,0,0,0,.27.65c.11.17.11.22.22.38h0c.11.17.82-.49.88-.71a2.57,2.57,0,0,1-.39-.6,1.68,1.68,0,0,1,0-1,1.45,1.45,0,0,1,.39-.6,2.12,2.12,0,0,1,.54-.44h0a3.49,3.49,0,0,1,.71-.27,1.7,1.7,0,0,1,.71,0,1.52,1.52,0,0,1,.93.55,2.53,2.53,0,0,1,.66,1.09h0c0,.17.27.27.49.33h.33a.65.65,0,0,0,.33-.06c.16-.05.33-.16.33-.27V3.4a1.66,1.66,0,0,1,.49-1,1.93,1.93,0,0,1,1-.6,1.43,1.43,0,0,1,.65,0,2,2,0,0,1,.6.22h0a2,2,0,0,1,.55.38,3.31,3.31,0,0,1,.38.5A2.07,2.07,0,0,1,15.71,4l-.44.71c-.11.11-.06.11-.06.27l.55.44c.27,0,.49-.33.55-.44C16.53,4.71,16.53,4.82,16.64,4.44Z"/></svg>