<svg width="22" height="22" viewBox="0 0 22 22" fill="none" xmlns="http://www.w3.org/2000/svg">
<g clip-path="url(#clip0_141_82)">
<path d="M15.1534 2.62666L17.8012 3.96909L14.9405 9.61158L10.3155 7.26672L7.74141 12.506L5.10846 9.73231L2.20188 13.8922L2.20169 17.4167L5.10846 13.2916L8.22839 15.2119L11.1221 9.7323L15.7471 12.0772L19.4431 4.80152L22.0909 6.14395L20.3808 0.916561L15.1534 2.62666Z"/>
<circle cx="12.9809" cy="15.125" r="5.04167" fill="none"/>
<path d="M16.4643 17.3158C16.8676 16.6742 17.1059 15.9317 17.1059 15.125C17.1059 12.8425 15.2634 11 12.9809 11C10.6984 11 8.85593 12.8425 8.85593 15.125C8.85593 17.4075 10.6984 19.25 12.9718 19.25C13.7784 19.25 14.5301 19.0117 15.1626 18.6083L18.0226 21.4683L19.3243 20.1667L16.4643 17.3158ZM12.9809 17.4167C11.7159 17.4167 10.6893 16.39 10.6893 15.125C10.6893 13.86 11.7159 12.8333 12.9809 12.8333C14.2459 12.8333 15.2726 13.86 15.2726 15.125C15.2726 16.39 14.2459 17.4167 12.9809 17.4167Z"   stroke="none"/>
</g>
<defs>
<clipPath id="clip0_141_82">
<rect width="22" height="22" fill="none"/>
</clipPath>
</defs>
</svg>
