<svg viewBox="0 0 84 100" fill="none" xmlns="http://www.w3.org/2000/svg">
<path d="M52.193 99.9997C55.5366 99.9997 58.4524 97.0839 58.4524 93.7403V79.1221H62.6318C65.1398 79.1221 66.8113 77.4499 66.8113 74.9426V33.1907H16.6975V74.9429C16.6975 77.4506 18.3693 79.1224 20.8769 79.1224H25.0567V93.7407C25.0567 97.0842 27.9718 100 31.3161 100C34.6593 100 37.5747 97.0842 37.5747 93.7407V79.1224H45.934V93.7407C45.9337 97.0839 48.8494 99.9997 52.193 99.9997Z" fill="current"/>
<path d="M77.2504 74.9429C80.594 74.9429 83.5091 72.0275 83.5091 68.6836V39.4474C83.5091 36.1215 80.594 33.1907 77.2504 33.1907C73.9065 33.1907 70.9911 36.1215 70.9911 39.4474V68.6836C70.9911 72.0272 73.9062 74.9429 77.2504 74.9429Z" fill="current"/>
<path d="M6.25868 74.9429C9.60258 74.9429 12.518 72.0275 12.518 68.6836V39.4474C12.518 36.1215 9.60291 33.1907 6.25868 33.1907C2.91511 33.1907 0 36.1215 0 39.4474V68.6836C0 72.0272 2.91511 74.9429 6.25868 74.9429Z" fill="current"/>
<path d="M61.7956 0.630673C60.96 -0.210224 59.716 -0.210224 58.8805 0.630673L53.2748 6.21763L53.0162 6.47591C49.6923 4.81147 45.9657 3.98025 41.8156 3.97224C41.7952 3.97224 41.7752 3.97157 41.7549 3.97157H41.7542C41.7332 3.97157 41.7138 3.97224 41.6928 3.97224C37.543 3.98025 33.8164 4.81147 30.4929 6.47591L30.2336 6.21763L24.6283 0.630673C23.792 -0.210224 22.5487 -0.210224 21.7132 0.630673C20.8769 1.4669 20.8769 2.70789 21.7132 3.54345L27.1356 8.9669C25.3884 10.1335 23.8041 11.561 22.4263 13.1937C19.1277 17.1036 17.0238 22.192 16.7345 27.7052C16.7318 27.7626 16.7262 27.8193 16.7235 27.8767C16.7058 28.2521 16.6975 28.6295 16.6975 29.0083H66.8113C66.8113 28.6295 66.8023 28.2521 66.7852 27.8767C66.7826 27.8193 66.7769 27.7626 66.7736 27.7052C66.4849 22.192 64.3803 17.1032 61.0818 13.1941C59.7047 11.5613 58.1197 10.1338 56.3725 8.96723L61.7956 3.54378C62.6318 2.70789 62.6318 1.4669 61.7956 0.630673ZM31.3081 21.7108C29.5789 21.7108 28.1771 20.309 28.1771 18.5798C28.1771 16.8506 29.5789 15.4488 31.3081 15.4488C33.0372 15.4488 34.4391 16.8506 34.4391 18.5798C34.4391 20.309 33.0372 21.7108 31.3081 21.7108ZM52.2007 21.7108C50.4715 21.7108 49.0697 20.309 49.0697 18.5798C49.0697 16.8506 50.4715 15.4488 52.2007 15.4488C53.9299 15.4488 55.3317 16.8506 55.3317 18.5798C55.3317 20.309 53.9299 21.7108 52.2007 21.7108Z" fill="current"/>
</svg>
