<svg width="24" height="24" viewBox="0 0 24 24" fill="none" xmlns="http://www.w3.org/2000/svg">
<g clip-path="url(#clip0_141_90)">
<path d="M11 3.06V1.05C8.71 1.25 6.64 2.17 4.97 3.56L6.39 4.98C7.69 3.94 9.27 3.25 11 3.06Z" stroke="none"/>
<path d="M4.98 6.39L3.56 4.97C2.17 6.64 1.26 8.71 1.05 11H3.06C3.25 9.27 3.94 7.69 4.98 6.39Z"  stroke="none"/>
<path d="M12 21C8.89 21 6.15 19.41 4.54 17H7V15H1V21H3V18.3C4.99 21.14 8.27 23 12 23C16.87 23 21 19.83 22.44 15.44L20.48 14.99C19.25 18.48 15.92 21 12 21Z"  stroke="none"/>
<path d="M14.3092 10.0754C14.7363 10.3119 14.888 10.8627 14.6462 11.2995C14.4044 11.7362 13.8571 11.9001 13.43 11.6637C13.0029 11.4272 12.8512 10.8764 13.093 10.4396C13.3347 10.0029 13.882 9.83899 14.3092 10.0754ZM15.1884 8.48724C13.8991 7.77358 12.2694 8.26159 11.5397 9.57981C10.81 10.898 11.2616 12.5382 12.5508 13.2519C13.84 13.9655 15.4698 13.4775 16.1995 12.1593C16.9292 10.8411 16.4776 9.20089 15.1884 8.48724ZM18.7235 13.5565C18.7763 13.4612 18.8334 13.358 18.8784 13.2584L21.0313 12.9251L20.9931 8.41184L18.8402 8.19529C18.7421 8.00607 18.6284 7.80826 18.5059 7.62632L19.3279 5.59149L15.4447 3.44192L14.1523 5.22674C13.9331 5.21951 13.7129 5.23246 13.4926 5.24541L12.1706 3.528L8.32558 5.89169L9.18605 7.89306C9.12554 7.98406 9.06839 8.08729 9.01564 8.18258C8.96289 8.27788 8.90574 8.38111 8.86076 8.4807L6.7079 8.814L6.74606 13.3273L8.89893 13.5438C8.99711 13.733 9.11082 13.9309 9.23332 14.1128L8.4113 16.1476L12.2945 18.2972L13.5869 16.5124C13.8061 16.5196 14.0219 16.5146 14.2466 16.4937L15.573 18.2032L19.418 15.8395L18.5575 13.8381C18.6136 13.755 18.6708 13.6518 18.7235 13.5565ZM16.0206 15.8366L14.9979 14.5131C14.2993 14.7488 13.5312 14.7801 12.803 14.5742L11.799 15.948L10.6651 15.3204L11.3041 13.7444C10.743 13.2367 10.3618 12.5692 10.1906 11.852L8.52612 11.6879L8.51746 10.3656L10.1714 10.1088C10.2496 9.7475 10.3833 9.39612 10.5723 9.05465C10.7613 8.71319 10.9881 8.4134 11.2528 8.15529L10.5923 6.61737L11.7175 5.9227L12.7402 7.24615C13.4389 7.01044 14.207 6.97917 14.9351 7.18512L15.9402 5.79108L17.0818 6.42306L16.4428 7.99897C17.0039 8.50668 17.3852 9.17423 17.5563 9.89144L19.2208 10.0555L19.2295 11.3779L17.5756 11.6346C17.4973 11.9959 17.3637 12.3473 17.1747 12.6888C16.9856 13.0302 16.7588 13.33 16.4942 13.5881L17.1546 15.126L16.0206 15.8366Z" stroke="none"/>
</g>
<defs>
<clipPath id="clip0_141_90">
<rect width="24" height="24" fill="none"/>
</clipPath>
</defs>
</svg>
