<?xml version="1.0" encoding="UTF-8" standalone="no"?> <svg id="레이어_1" data-name="레이어 1" xmlns="http://www.w3.org/2000/svg" viewBox="0 0 48 48"><path d="M21.3,38.12l-9.8,0V22.09H31.26v1a1,1,0,0,0,2,0c-.11-.84.45-3-1-3H10.5a1,1,0,0,0-1,1V38.17c-1.32,0-3.54.28-3.5-1.7.28-.69-.73-18.67.71-18.34L20.21,8.6a1.47,1.47,0,0,1,1.69,0l13.45,9.23c1.3.64.5,4.16.68,5.25a1,1,0,0,0,2,0l0-3.82a3.74,3.74,0,0,0-1.6-3.11L23,6.94a3.44,3.44,0,0,0-4,0L5.56,16.49A3.74,3.74,0,0,0,4,19.56V36.47c.13,3.85,3.63,3.87,6.56,3.69l10.75,0A1,1,0,0,0,21.3,38.12Z"/><path d="M43,32.68H39.81v-6a1,1,0,0,0-1-1H30.43a1,1,0,0,0-1,1v6c-.87.2-4.26-.65-4.18,1v7a1,1,0,0,0,1,1H43a1,1,0,0,0,1-1v-7A1,1,0,0,0,43,32.68Zm-11.57-5h6.38v5H31.43Zm-4.18,7h6.37v5H27.25Zm14.75,5H35.62v-5H42Z"/></svg>