<svg width="49" height="49" viewBox="0 0 49 49" fill="none" xmlns="http://www.w3.org/2000/svg">
<path d="M26.5417 17.4161C24.9287 17.4161 23.6221 18.7168 23.6221 20.3222C23.6221 21.9277 24.9287 23.2283 26.5417 23.2283C28.1546 23.2283 29.4612 21.9277 29.4612 20.3222C29.4612 18.7168 28.1546 17.4161 26.5417 17.4161Z" fill="url(#paint0_linear_49_2663)"/>
<path d="M26.5417 6.09668C18.8855 6.09668 12.6584 12.0714 12.2909 19.5906L8.37088 24.7931C7.86047 25.4637 8.35047 26.4188 9.18755 26.4188H12.25V32.5155C12.25 34.7509 14.0875 36.5799 16.3334 36.5799H18.375V42.6765H32.6667V33.1658C37.4851 30.8897 40.8334 25.9921 40.8334 20.3222C40.8334 12.4575 34.443 6.09668 26.5417 6.09668ZM32.6667 20.3222C32.6667 20.5864 32.6463 20.8506 32.6259 21.1147L34.3205 22.456C34.4838 22.5779 34.5246 22.7812 34.4226 22.9641L32.7892 25.7888C32.6871 25.9717 32.4625 26.0327 32.2992 25.9717L30.278 25.1589C29.8492 25.484 29.4 25.7482 28.91 25.9514L28.5834 28.1056C28.563 28.3088 28.3792 28.451 28.1751 28.451H24.9084C24.7042 28.451 24.5409 28.3088 24.5 28.1056L24.1938 25.9514C23.6834 25.7482 23.2342 25.484 22.8055 25.1589L20.7842 25.9717C20.6005 26.0327 20.3759 25.9717 20.2738 25.7888L18.6405 22.9641C18.5384 22.8015 18.5792 22.5779 18.7425 22.456L20.4576 21.1147C20.4371 20.8506 20.4167 20.5864 20.4167 20.3222C20.4167 20.058 20.4575 19.7735 20.4984 19.5296L18.763 18.1884C18.5996 18.0664 18.5588 17.8632 18.6609 17.66L20.2942 14.8555C20.3963 14.6726 20.6005 14.6117 20.7842 14.6726L22.8259 15.4855C23.2342 15.1807 23.7038 14.8962 24.1938 14.6929L24.5 12.5388C24.5409 12.3356 24.7042 12.1933 24.9084 12.1933H28.1751C28.3792 12.1933 28.5425 12.3356 28.5834 12.5388L28.8896 14.6929C29.3796 14.8962 29.8288 15.1604 30.2575 15.4855L32.2992 14.6726C32.483 14.6117 32.7075 14.6726 32.7892 14.8555L34.4226 17.66C34.5246 17.8429 34.4838 18.0664 34.3205 18.1884L32.5851 19.5296C32.6463 19.7735 32.6667 20.0377 32.6667 20.3222Z" fill="url(#paint1_linear_49_2663)"/>
<defs>
<linearGradient id="paint0_linear_49_2663" x1="23.9349" y1="23.2283" x2="29.4612" y2="23.2283" gradientUnits="userSpaceOnUse">
<stop stop-color="#001AFF"/>
<stop offset="1" stop-color="#001AFF" stop-opacity="0.27"/>
</linearGradient>
<linearGradient id="paint1_linear_49_2663" x1="9.91328" y1="42.6765" x2="40.8334" y2="42.6765" gradientUnits="userSpaceOnUse">
<stop stop-color="#001AFF"/>
<stop offset="1" stop-color="#001AFF" stop-opacity="0.27"/>
</linearGradient>
</defs>
</svg>
