<svg width="22" height="22" viewBox="0 0 22 22" fill="none" xmlns="http://www.w3.org/2000/svg">
<path d="M11.9992 18.3334H4.58333V9.16669H2.75V18.3334C2.75 18.8196 2.94315 19.2859 3.28697 19.6297C3.63079 19.9735 4.0971 20.1667 4.58333 20.1667H12.6592C12.322 19.6043 12.0979 18.9816 11.9992 18.3334ZM18.3333 13.75V16.5H21.0833V18.3334H18.3333V21.0834H16.5V18.3334H13.75V16.5H16.5V13.75H18.3333Z" fill="current"/>
<path d="M11.9167 16.5H8.25002C7.24169 16.5 6.41669 15.675 6.41669 14.6667V2.75002C6.41669 1.74169 7.24169 0.916687 8.25002 0.916687H13.75L19.25 6.41669V11.9167L17.4167 11V7.33335H12.8334V2.75002H8.25002V14.6667H11L11.9167 16.5Z" fill="current"/>
</svg>
