<svg width="40" height="40" viewBox="0 0 40 40" fill="none" xmlns="http://www.w3.org/2000/svg">
<path d="M30.8333 35H9.16667C6.86583 35 5 33.1342 5 30.8333V9.16667C5 6.86583 6.86583 5 9.16667 5H30.8333C33.1342 5 35 6.86583 35 9.16667V30.8333C35 33.1342 33.1342 35 30.8333 35Z" fill="#FF6F00"/>
<path d="M27.9168 18.3333H27.0835C26.3935 18.3333 25.8335 17.7733 25.8335 17.0833V16.6667C25.8335 13.445 23.2218 10.8333 20.0002 10.8333H16.6668C13.4452 10.8333 10.8335 13.445 10.8335 16.6667V23.3333C10.8335 26.555 13.4452 29.1667 16.6668 29.1667H23.3335C26.5552 29.1667 29.1668 26.555 29.1668 23.3333V19.5833C29.1668 18.8933 28.6068 18.3333 27.9168 18.3333ZM16.6668 15.8333H20.8335C21.2943 15.8333 21.6668 16.2067 21.6668 16.6667C21.6668 17.1267 21.2943 17.5 20.8335 17.5H16.6668C16.206 17.5 15.8335 17.1267 15.8335 16.6667C15.8335 16.2067 16.206 15.8333 16.6668 15.8333ZM23.3335 24.1667H16.6668C16.206 24.1667 15.8335 23.7933 15.8335 23.3333C15.8335 22.8733 16.206 22.5 16.6668 22.5H23.3335C23.7943 22.5 24.1668 22.8733 24.1668 23.3333C24.1668 23.7933 23.7943 24.1667 23.3335 24.1667Z" fill="white"/>
</svg>
