<svg width="17" height="16" viewBox="0 0 17 16" fill="none" xmlns="http://www.w3.org/2000/svg">
<path d="M1.60435 0.79192H10.6156H10.6066C11.1022 0.78291 11.5077 1.18841 11.5077 1.68403V15.2009H1.59534H1.58633C1.0817 15.1919 0.685206 14.7954 0.685206 14.2907V14.2899V1.67413V1.67413C0.676196 1.1695 1.0817 0.764 1.57732 0.764L1.60435 0.79192Z" stroke="current" stroke-width="1.5" stroke-linecap="round" stroke-linejoin="round"/>
<path d="M11.5171 4.39632L10.9865 4.92636C11.1272 5.06719 11.3181 5.14632 11.5171 5.14632V4.39632ZM16.0228 5.14632C16.437 5.14632 16.7728 4.81053 16.7728 4.39632C16.7728 3.98211 16.437 3.64632 16.0228 3.64632V5.14632ZM16.0138 4.39632L16.0001 3.64644C15.5886 3.65392 15.26 3.9916 15.2638 4.40314C15.2675 4.81467 15.6022 5.14632 16.0138 5.14632V4.39632ZM11.5081 15.2008H10.7581C10.7581 15.615 11.0939 15.9508 11.5081 15.9508V15.2008ZM11.5081 4.3873L12.0388 3.85726C11.8243 3.64259 11.5017 3.57827 11.2213 3.69431C10.941 3.81035 10.7581 4.08388 10.7581 4.3873H11.5081ZM4.30817 5.03368C4.72238 5.03368 5.05817 4.69789 5.05817 4.28368C5.05817 3.86947 4.72238 3.53368 4.30817 3.53368V5.03368ZM4.29014 4.49995V5.24995C4.33144 5.24995 4.37267 5.24654 4.41341 5.23975L4.29014 4.49995ZM4.22763 3.52117C3.81447 3.55071 3.50349 3.90959 3.53303 4.32275C3.56257 4.73591 3.92144 5.04689 4.3346 5.01735L4.22763 3.52117ZM7.91266 5.03368C8.32687 5.03368 8.66266 4.69789 8.66266 4.28368C8.66266 3.86947 8.32687 3.53368 7.91266 3.53368V5.03368ZM7.89464 4.49995V5.24995C7.93594 5.24995 7.97717 5.24654 8.01791 5.23975L7.89464 4.49995ZM7.83213 3.52207C7.41897 3.55161 7.10799 3.91049 7.13753 4.32365C7.16707 4.73681 7.52594 5.04779 7.9391 5.01825L7.83213 3.52207ZM4.23362 8.62996C4.64578 8.67113 5.01328 8.37038 5.05445 7.95822C5.09562 7.54605 4.79488 7.17856 4.38271 7.13738L4.23362 8.62996ZM4.29916 7.88277L4.3737 7.13648C4.34893 7.13401 4.32405 7.13277 4.29916 7.13277V7.88277ZM4.29014 8.09904V8.84904C4.33144 8.84904 4.37267 8.84563 4.41341 8.83884L4.29014 8.09904ZM4.22763 7.12026C3.81447 7.1498 3.50349 7.50868 3.53303 7.92184C3.56257 8.335 3.92144 8.64598 4.3346 8.61644L4.22763 7.12026ZM7.91266 8.63367C8.32687 8.63367 8.66266 8.29788 8.66266 7.88367C8.66266 7.46946 8.32687 7.13367 7.91266 7.13367V8.63367ZM7.89464 8.09994V8.84994C7.93594 8.84994 7.97717 8.84653 8.01791 8.83974L7.89464 8.09994ZM7.83213 7.12206C7.41897 7.1516 7.10799 7.51048 7.13753 7.92364C7.16707 8.3368 7.52594 8.64778 7.9391 8.61824L7.83213 7.12206ZM4.23362 12.2344C4.64578 12.2756 5.01328 11.9749 5.05445 11.5627C5.09562 11.1505 4.79488 10.783 4.38271 10.7419L4.23362 12.2344ZM4.29916 11.4873L4.3737 10.741C4.34893 10.7385 4.32405 10.7373 4.29916 10.7373V11.4873ZM4.29014 11.7035V12.4535C4.33144 12.4535 4.37267 12.4501 4.41341 12.4433L4.29014 11.7035ZM4.22763 10.7248C3.81447 10.7543 3.50349 11.1132 3.53303 11.5263C3.56257 11.9395 3.92144 12.2505 4.3346 12.2209L4.22763 10.7248ZM7.83811 12.2344C8.25027 12.2756 8.61777 11.9749 8.65894 11.5627C8.70011 11.1505 8.39936 10.783 7.9872 10.7419L7.83811 12.2344ZM7.90365 11.4873L7.97819 10.741C7.95342 10.7385 7.92854 10.7373 7.90365 10.7373V11.4873ZM7.89464 11.7035V12.4535C7.93594 12.4535 7.97717 12.4501 8.01791 12.4433L7.89464 11.7035ZM7.83213 10.7248C7.41897 10.7543 7.10799 11.1132 7.13753 11.5263C7.16707 11.9395 7.52594 12.2505 7.9391 12.2209L7.83213 10.7248ZM11.5171 5.14632H16.0228V3.64632H11.5171V5.14632ZM16.0228 3.64632H16.0138V5.14632H16.0228V3.64632ZM16.0274 5.1462C16.0955 5.14496 16.1649 5.20431 16.1649 5.28843H17.6649C17.6649 4.38133 16.9232 3.62966 16.0001 3.64644L16.0274 5.1462ZM16.1649 5.28843V14.2997H17.6649V5.28843H16.1649ZM16.1649 14.2997C16.1649 14.3811 16.0952 14.4508 16.0138 14.4508V15.9508C16.9236 15.9508 17.6649 15.2095 17.6649 14.2997H16.1649ZM16.0138 14.4508H11.5081V15.9508H16.0138V14.4508ZM12.2581 15.2008V4.3873H10.7581V15.2008H12.2581ZM10.9775 4.91734L10.9865 4.92636L12.0478 3.86628L12.0388 3.85726L10.9775 4.91734ZM4.30817 3.53368H4.29916V5.03368H4.30817V3.53368ZM4.29916 3.53368C3.90252 3.53368 3.43201 3.83823 3.43201 4.39181H4.93201C4.93201 4.81925 4.56963 5.03368 4.29916 5.03368V3.53368ZM3.43201 4.39181C3.43201 4.81909 3.773 5.24995 4.29014 5.24995V3.74995C4.68113 3.74995 4.93201 4.07267 4.93201 4.39181H3.43201ZM4.41341 5.23975C4.71742 5.18909 5.14827 4.91526 5.14827 4.3828H3.64827C3.64827 4.1867 3.73548 4.03001 3.83412 3.93135C3.92643 3.83903 4.04256 3.78086 4.16686 3.76015L4.41341 5.23975ZM5.14827 4.3828V4.3819H3.64827V4.3828H5.14827ZM5.14827 4.3819C5.14827 3.91667 4.75724 3.4833 4.22763 3.52117L4.3346 5.01735C3.93115 5.0462 3.64827 4.72097 3.64827 4.3819H5.14827ZM7.91266 3.53368H7.90365V5.03368H7.91266V3.53368ZM7.90365 3.53368C7.50701 3.53368 7.0365 3.83823 7.0365 4.39181H8.5365C8.5365 4.81925 8.17412 5.03368 7.90365 5.03368V3.53368ZM7.0365 4.39181C7.0365 4.81914 7.37754 5.24995 7.89464 5.24995V3.74995C8.28558 3.74995 8.5365 4.07263 8.5365 4.39181H7.0365ZM8.01791 5.23975C8.32192 5.18909 8.75277 4.91526 8.75277 4.3828H7.25277C7.25277 4.1867 7.33998 4.03001 7.43862 3.93135C7.53093 3.83903 7.64706 3.78086 7.77136 3.76015L8.01791 5.23975ZM8.75277 4.3828C8.75277 3.91757 8.36174 3.4842 7.83213 3.52207L7.9391 5.01825C7.53565 5.0471 7.25277 4.72187 7.25277 4.3828H8.75277ZM4.38271 7.13738L4.3737 7.13648L4.22461 8.62906L4.23362 8.62996L4.38271 7.13738ZM4.29916 7.13277C3.90252 7.13277 3.43201 7.43732 3.43201 7.9909H4.93201C4.93201 8.41834 4.56963 8.63277 4.29916 8.63277V7.13277ZM3.43201 7.9909C3.43201 8.41818 3.773 8.84904 4.29014 8.84904V7.34904C4.68113 7.34904 4.93201 7.67176 4.93201 7.9909H3.43201ZM4.41341 8.83884C4.71742 8.78818 5.14827 8.51435 5.14827 7.98189H3.64827C3.64827 7.78579 3.73548 7.6291 3.83412 7.53044C3.92643 7.43812 4.04256 7.37995 4.16686 7.35924L4.41341 8.83884ZM5.14827 7.98189V7.98099H3.64827V7.98189H5.14827ZM5.14827 7.98099C5.14827 7.51576 4.75724 7.08239 4.22763 7.12026L4.3346 8.61644C3.93115 8.64529 3.64827 8.32006 3.64827 7.98099H5.14827ZM7.91266 7.13367H7.90365V8.63367H7.91266V7.13367ZM7.90365 7.13367C7.50701 7.13367 7.0365 7.43822 7.0365 7.9918H8.5365C8.5365 8.41924 8.17412 8.63367 7.90365 8.63367V7.13367ZM7.0365 7.9918C7.0365 8.41913 7.37754 8.84994 7.89464 8.84994V7.34994C8.28558 7.34994 8.5365 7.67262 8.5365 7.9918H7.0365ZM8.01791 8.83974C8.32192 8.78908 8.75277 8.51525 8.75277 7.98279H7.25277C7.25277 7.78669 7.33998 7.63 7.43862 7.53134C7.53093 7.43902 7.64706 7.38085 7.77136 7.36014L8.01791 8.83974ZM8.75277 7.98279C8.75277 7.51756 8.36174 7.08419 7.83213 7.12206L7.9391 8.61824C7.53565 8.64709 7.25277 8.32186 7.25277 7.98279H8.75277ZM4.38271 10.7419L4.3737 10.741L4.22461 12.2335L4.23362 12.2344L4.38271 10.7419ZM4.29916 10.7373C3.90247 10.7373 3.43201 11.0419 3.43201 11.5954H4.93201C4.93201 12.0228 4.56968 12.2373 4.29916 12.2373V10.7373ZM3.43201 11.5954C3.43201 12.0228 3.77309 12.4535 4.29014 12.4535V10.9535C4.68105 10.9535 4.93201 11.2762 4.93201 11.5954H3.43201ZM4.41341 12.4433C4.71742 12.3927 5.14827 12.1188 5.14827 11.5864H3.64827C3.64827 11.3903 3.73548 11.2336 3.83412 11.1349C3.92643 11.0426 4.04256 10.9844 4.16686 10.9637L4.41341 12.4433ZM5.14827 11.5864V11.5855H3.64827V11.5864H5.14827ZM5.14827 11.5855C5.14827 11.1202 4.75724 10.6869 4.22763 10.7248L4.3346 12.2209C3.93115 12.2498 3.64827 11.9246 3.64827 11.5855H5.14827ZM7.9872 10.7419L7.97819 10.741L7.8291 12.2335L7.83811 12.2344L7.9872 10.7419ZM7.90365 10.7373C7.50696 10.7373 7.0365 11.0419 7.0365 11.5954H8.5365C8.5365 12.0228 8.17417 12.2373 7.90365 12.2373V10.7373ZM7.0365 11.5954C7.0365 12.0228 7.37762 12.4535 7.89464 12.4535V10.9535C8.28549 10.9535 8.5365 11.2761 8.5365 11.5954H7.0365ZM8.01791 12.4433C8.32192 12.3927 8.75277 12.1188 8.75277 11.5864H7.25277C7.25277 11.3903 7.33998 11.2336 7.43862 11.1349C7.53093 11.0426 7.64706 10.9844 7.77136 10.9637L8.01791 12.4433ZM8.75277 11.5864V11.5855H7.25277V11.5864H8.75277ZM8.75277 11.5855C8.75277 11.1202 8.36174 10.6869 7.83213 10.7248L7.9391 12.2209C7.53565 12.2498 7.25277 11.9246 7.25277 11.5855H8.75277Z" fill="current"/>
<path d="M14.2203 8.6338C14.6345 8.6338 14.9703 8.29801 14.9703 7.8838C14.9703 7.46958 14.6345 7.1338 14.2203 7.1338V8.6338ZM14.2023 8.10006V8.85006C14.2436 8.85006 14.2848 8.84664 14.3255 8.83986L14.2023 8.10006ZM14.1398 7.12218C13.7266 7.15172 13.4156 7.5106 13.4452 7.92376C13.4747 8.33692 13.8336 8.6479 14.2468 8.61836L14.1398 7.12218ZM14.1457 12.2346C14.5579 12.2757 14.9254 11.975 14.9666 11.5628C15.0077 11.1507 14.707 10.7832 14.2948 10.742L14.1457 12.2346ZM14.2113 11.4874L14.2858 10.7411C14.261 10.7386 14.2362 10.7374 14.2113 10.7374V11.4874ZM14.2023 11.7037V12.4537C14.2436 12.4537 14.2848 12.4502 14.3255 12.4435L14.2023 11.7037ZM14.1398 10.7249C13.7266 10.7544 13.4156 11.1133 13.4452 11.5265C13.4747 11.9396 13.8336 12.2506 14.2468 12.2211L14.1398 10.7249ZM14.2203 7.1338H14.2113V8.6338H14.2203V7.1338ZM14.2113 7.1338C13.8146 7.1338 13.3441 7.43834 13.3441 7.99193H14.8441C14.8441 8.41937 14.4817 8.6338 14.2113 8.6338V7.1338ZM13.3441 7.99193C13.3441 8.41934 13.6852 8.85006 14.2023 8.85006V7.35006C14.5931 7.35006 14.8441 7.67265 14.8441 7.99193H13.3441ZM14.3255 8.83986C14.6294 8.78921 15.0604 8.51543 15.0604 7.98291H13.5604C13.5604 7.78676 13.6476 7.63006 13.7463 7.53143C13.8386 7.43912 13.9547 7.38097 14.079 7.36026L14.3255 8.83986ZM15.0604 7.98291C15.0604 7.51772 14.6694 7.0843 14.1398 7.12218L14.2468 8.61836C13.8432 8.64721 13.5604 8.32193 13.5604 7.98291H15.0604ZM14.2948 10.742L14.2858 10.7411L14.1367 12.2337L14.1457 12.2346L14.2948 10.742ZM14.2113 10.7374C13.8146 10.7374 13.3441 11.042 13.3441 11.5955H14.8441C14.8441 12.0229 14.4818 12.2374 14.2113 12.2374V10.7374ZM13.3441 11.5955C13.3441 12.0229 13.6852 12.4537 14.2023 12.4537V10.9537C14.5931 10.9537 14.8441 11.2763 14.8441 11.5955H13.3441ZM14.3255 12.4435C14.6294 12.3928 15.0604 12.119 15.0604 11.5865H13.5604C13.5604 11.3904 13.6476 11.2337 13.7463 11.135C13.8386 11.0427 13.9547 10.9846 14.079 10.9639L14.3255 12.4435ZM15.0604 11.5865V11.5856H13.5604V11.5865H15.0604ZM15.0604 11.5856C15.0604 11.1204 14.6694 10.687 14.1398 10.7249L14.2468 12.2211C13.8432 12.2499 13.5604 11.9246 13.5604 11.5856H15.0604Z" fill="current"/>
</svg>
