<?xml version="1.0" encoding="utf-8"?>
<!-- Generator: Adobe Illustrator 26.0.0, SVG Export Plug-In . SVG Version: 6.00 Build 0)  -->
<svg version="1.1" id="Layer_1" xmlns="http://www.w3.org/2000/svg" xmlns:xlink="http://www.w3.org/1999/xlink" x="0px" y="0px"
	 viewBox="0 0 1000 1000" style="enable-background:new 0 0 1000 1000;" xml:space="preserve">
<g>
	<path d="M397.1,969H136.4c-1.1-0.5-2.1-1.2-3.3-1.4C76.4,957,40.9,914.5,40.9,857c-0.1-209.7-0.1-419.4,0.1-629.1
		c0-9,0.7-18.1,2.7-26.8c11.5-50,53.9-84,105.1-84.7c14.3-0.2,28.6,0,43.5,0V44h72.1v71.7h476V44h72.1l0,72.3
		c16.2,0,31.1-0.5,46.1,0.1c34.4,1.3,62.2,15.9,83.4,43c12.2,15.5,17.9,33.7,21.9,52.6l0,310.7c-2.4-2.2-4.7-4.4-7.1-6.6
		c-18.8-16.8-37.2-34-56.5-50.1c-5.8-4.9-8.9-9-8.7-16.9c0.6-21.6,0.2-43.2,0.2-64.9H113v10.4c0,153,0,305.9,0,458.9
		c0,29.5,13.6,43.2,42.8,43.2c93.2,0,186.3,0.4,279.5-0.4l4.5,18.4C446.5,942.3,425.6,969,397.1,969z M264.1,189v71.4h-42.2
		c-16.4,0-29.8-13.3-29.8-29.8v-41.8c-16.3,0-31.6-0.8-46.8,0.2c-17.9,1.2-31.3,16-32.3,34.2c-0.4,8.4-0.2,16.9-0.2,25.3
		c0,20.7,0,41.4,0,62.4l778.7,0c0-30.3,0.7-60-0.3-89.8c-0.5-15.1-9.6-27.4-24.4-30.1c-17.7-3.2-36-2.3-54.8-3.3v29.9
		c0,23.5-19.1,42.6-42.6,42.6h-29.4V189H264.1z"/>
	<path d="M632.2,951.6c-74.1-29.4-124.3-83.1-145.1-160.1c-26.4-98-0.6-183.2,75.2-250.6c55-49,121.1-67.8,194-56.4
		c87.6,13.7,150.1,62.6,186.6,143c9.9,21.8,13.2,46.6,19.4,70c0.4,1.6,0.7,3.3,1,5c2.5,15.5,2.3,31.3-0.4,46.8
		c-2.4,13.9-4.3,28-8.3,41.4c-22.6,76.6-70.8,131-144.8,160.5c-7.2,2.9-14.6,5.1-22.2,7.1c-43.9,11.3-90,11.4-133.9,0.2
		C646.4,956.6,639.2,954.4,632.2,951.6z M720.4,553.5c-94.3,0.2-171.4,77.8-171,172.1c0.4,94.2,77.1,171,171.1,171.1
		c94.2,0.2,171.5-77.2,171.5-171.6C891.9,630.6,814.5,553.3,720.4,553.5z"/>
	<rect x="178.4" y="460.3" width="71" height="71.1"/>
	<rect x="322.5" y="460" width="71.3" height="71.1"/>
	<rect x="467" y="459.9" width="71" height="71.1"/>
	<rect x="178.4" y="604.5" width="70.9" height="71.5"/>
	<rect x="322.7" y="604.6" width="71.1" height="71.1"/>
	<rect x="178.4" y="749.3" width="71" height="71.1"/>
	<rect x="322.6" y="749.3" width="71.1" height="71.1"/>
	<path d="M683.4,604.5h40.3c17.1,0,31,13.9,31,31v53.1h21.8c21.6,0,39.2,17.5,39.2,39.2v33H683.4V604.5z"/>
</g>
</svg>
