<svg width="17" height="18" viewBox="0 0 17 18" fill="none" xmlns="http://www.w3.org/2000/svg">
<g clip-path="url(#clip0_413_135)">
<path d="M14.3837 12.367C13.3261 12.367 12.3107 12.2041 11.3631 11.9026C11.067 11.813 10.737 11.8782 10.5001 12.0982L8.63868 13.8906C6.24422 12.7174 4.28126 10.8353 3.06288 8.52135L4.9243 6.72072C5.16121 6.50888 5.2289 6.19113 5.13582 5.90596C4.82277 4.99343 4.65355 4.01571 4.65355 2.99726C4.65355 2.54914 4.2728 2.1825 3.80745 2.1825H0.8461C0.380745 2.1825 0 2.54914 0 2.99726C0 10.6479 6.43882 16.8482 14.3837 16.8482C14.849 16.8482 15.2298 16.4816 15.2298 16.0335V13.1818C15.2298 12.7337 14.849 12.367 14.3837 12.367Z" fill="#7721AD"/>
<path d="M12.384 10.2423L15.884 6.1514L14.897 4.99776L13.084 7.10867V1.24231H11.684V7.10867L9.87103 4.99776L8.88403 6.1514L12.384 10.2423Z" fill="#7721AD"/>
</g>
<defs>
<clipPath id="clip0_413_135">
<rect width="16.7143" height="18" fill="white"/>
</clipPath>
</defs>
</svg>
