<svg viewBox="0 0 25 25" fill="none" xmlns="http://www.w3.org/2000/svg">
<path d="M19.4745 17.11L20.0052 16.58L20.0049 16.5797L19.4745 17.11ZM16.1805 15.937L16.7109 16.4673L16.7113 16.4669L16.1805 15.937ZM14.4745 17.017L14.7765 16.3305L14.7754 16.33L14.4745 17.017ZM7.99955 10.551L8.68597 10.2488L8.68511 10.2468L7.99955 10.551ZM8.16155 9.73999L8.69188 10.2703L8.16155 9.73999ZM8.98755 8.91399L8.45722 8.38366L8.98755 8.91399ZM9.07255 6.70799L8.54222 7.23832L9.07255 6.70799ZM7.89955 5.53499L8.42988 5.00466L7.89955 5.53499ZM5.07155 5.53499L5.60147 6.06573L5.60188 6.06532L5.07155 5.53499ZM4.41955 6.18599L3.88962 5.65525L3.88922 5.65566L4.41955 6.18599ZM3.56955 9.05599L2.83255 9.19504L2.8326 9.19531L3.56955 9.05599ZM15.9535 21.44L15.8142 22.1769L15.8145 22.177L15.9535 21.44ZM13.4994 6.74106C13.0852 6.74668 12.754 7.087 12.7596 7.50117C12.7652 7.91535 13.1056 8.24654 13.5197 8.24092L13.4994 6.74106ZM15.8332 9.17632C16.1261 9.46921 16.601 9.46921 16.8939 9.17632C17.1868 8.88343 17.1868 8.40855 16.8939 8.11566L15.8332 9.17632ZM18.6612 6.34832C18.9541 6.64121 19.429 6.64121 19.7219 6.34832C20.0148 6.05543 20.0148 5.58055 19.7219 5.28766L18.6612 6.34832ZM13.5095 2.71399C13.0953 2.71399 12.7595 3.04978 12.7595 3.46399C12.7595 3.8782 13.0953 4.21399 13.5095 4.21399V2.71399ZM16.7686 11.4898C16.763 11.904 17.0942 12.2443 17.5084 12.2499C17.9225 12.2555 18.2629 11.9243 18.2685 11.5102L16.7686 11.4898ZM16.8939 8.11566C16.601 7.82277 16.1261 7.82277 15.8332 8.11566C15.5403 8.40855 15.5403 8.88343 15.8332 9.17632L16.8939 8.11566ZM19.7219 5.28766C19.429 4.99477 18.9541 4.99477 18.6612 5.28766C18.3683 5.58055 18.3683 6.05543 18.6612 6.34832L19.7219 5.28766ZM20.7955 11.5C20.7955 11.9142 21.1313 12.25 21.5455 12.25C21.9598 12.25 22.2955 11.9142 22.2955 11.5H20.7955ZM20.0049 16.5797L18.8319 15.4067L17.7712 16.4673L18.9442 17.6403L20.0049 16.5797ZM18.8319 15.4067C17.9532 14.528 16.528 14.5274 15.6498 15.4071L16.7113 16.4669C17.0031 16.1746 17.4779 16.174 17.7712 16.4673L18.8319 15.4067ZM15.6502 15.4067L14.7282 16.3287L15.7889 17.3893L16.7109 16.4673L15.6502 15.4067ZM14.7282 16.3287C14.7291 16.3278 14.7313 16.3259 14.7369 16.3247C14.7437 16.3233 14.7587 16.3226 14.7765 16.3305L14.1726 17.7035C14.7422 17.954 15.3804 17.7978 15.7889 17.3893L14.7282 16.3287ZM14.7754 16.33C13.5271 15.7834 12.2845 14.9503 11.1719 13.8377L10.1112 14.8983C11.3526 16.1397 12.75 17.0806 14.1737 17.704L14.7754 16.33ZM11.1719 13.8377C10.0641 12.7299 9.2337 11.4929 8.68596 10.2488L7.31313 10.8532C7.9374 12.2711 8.87496 13.6621 10.1112 14.8983L11.1719 13.8377ZM8.68511 10.2468C8.68779 10.2529 8.68926 10.259 8.68977 10.2642C8.69026 10.2691 8.6898 10.2721 8.68957 10.2732C8.6893 10.2745 8.68958 10.2726 8.69188 10.2703L7.63122 9.20966C7.21519 9.62569 7.05713 10.2762 7.31398 10.8551L8.68511 10.2468ZM8.69188 10.2703L9.51788 9.44432L8.45722 8.38366L7.63122 9.20966L8.69188 10.2703ZM9.51788 9.44432C10.4545 8.50772 10.5083 7.08312 9.60288 6.17766L8.54222 7.23832C8.80875 7.50486 8.86262 7.97826 8.45722 8.38366L9.51788 9.44432ZM9.60288 6.17766L8.42988 5.00466L7.36922 6.06532L8.54222 7.23832L9.60288 6.17766ZM8.42988 5.00466C7.35598 3.93077 5.61511 3.93077 4.54122 5.00466L5.60188 6.06532C6.08998 5.57721 6.88111 5.57721 7.36922 6.06532L8.42988 5.00466ZM4.54162 5.00425L3.88962 5.65525L4.94947 6.71673L5.60147 6.06573L4.54162 5.00425ZM3.88922 5.65566C2.96245 6.58243 2.58942 7.90643 2.83255 9.19504L4.30654 8.91693C4.14968 8.08554 4.39464 7.27155 4.94988 6.71632L3.88922 5.65566ZM2.8326 9.19531C3.35839 11.9765 4.95998 14.9691 7.50022 17.5093L8.56088 16.4487C6.20311 14.0909 4.7687 11.3615 4.30649 8.91667L2.8326 9.19531ZM7.50022 17.5093C10.0405 20.0496 13.0331 21.6511 15.8142 22.1769L16.0929 20.703C13.648 20.2408 10.9186 18.8064 8.56088 16.4487L7.50022 17.5093ZM15.8145 22.177C17.1031 22.4201 18.4271 22.0471 19.3539 21.1203L18.2932 20.0597C17.738 20.6149 16.924 20.8599 16.0926 20.703L15.8145 22.177ZM19.3539 21.1203L20.0049 20.4693L18.9442 19.4087L18.2932 20.0597L19.3539 21.1203ZM20.0049 20.4693C21.079 19.3952 21.0785 17.6546 20.0052 16.58L18.9439 17.64C19.4326 18.1294 19.4321 18.9207 18.9442 19.4087L20.0049 20.4693ZM13.5197 8.24092C14.3589 8.22953 15.1967 8.53977 15.8332 9.17632L16.8939 8.11566C15.9564 7.17821 14.7222 6.72445 13.4994 6.74106L13.5197 8.24092ZM19.7219 5.28766C18.0066 3.57242 15.7564 2.71399 13.5095 2.71399V4.21399C15.3747 4.21399 17.2385 4.92556 18.6612 6.34832L19.7219 5.28766ZM18.2685 11.5102C18.2851 10.2873 17.8313 9.05311 16.8939 8.11566L15.8332 9.17632C16.4698 9.81287 16.78 10.6507 16.7686 11.4898L18.2685 11.5102ZM18.6612 6.34832C20.084 7.77108 20.7955 9.63486 20.7955 11.5H22.2955C22.2955 9.25312 21.4371 7.0029 19.7219 5.28766L18.6612 6.34832Z" fill="current"/>
</svg>
