<svg width="936" height="771" viewBox="0 0 936 771" fill="none" xmlns="http://www.w3.org/2000/svg">
<rect x="0.0100098" width="936" height="771" rx="4.5" fill="white" stroke="#EBEAED"/>
<path d="M572.475 109.11L573.005 108.58L573.005 108.58L572.475 109.11ZM569.181 107.937L569.711 108.467L569.711 108.467L569.181 107.937ZM567.475 109.017L567.777 108.33L567.775 108.33L567.475 109.017ZM561 102.551L561.686 102.249L561.685 102.247L561 102.551ZM561.162 101.74L561.692 102.27L561.162 101.74ZM561.988 100.914L561.457 100.384L561.988 100.914ZM562.073 98.708L561.542 99.2383L562.073 98.708ZM560.9 97.535L561.43 97.0047L560.9 97.535ZM558.072 97.535L558.601 98.0657L558.602 98.0653L558.072 97.535ZM557.42 98.186L556.89 97.6553L556.889 97.6557L557.42 98.186ZM556.57 101.056L555.833 101.195L555.833 101.195L556.57 101.056ZM568.954 113.44L568.814 114.177L568.814 114.177L568.954 113.44ZM566.499 98.7411C566.085 98.7467 565.754 99.087 565.76 99.5012C565.765 99.9153 566.106 100.247 566.52 100.241L566.499 98.7411ZM568.833 101.176C569.126 101.469 569.601 101.469 569.894 101.176C570.187 100.883 570.187 100.409 569.894 100.116L568.833 101.176ZM571.661 98.3483C571.954 98.6412 572.429 98.6412 572.722 98.3483C573.015 98.0554 573.015 97.5806 572.722 97.2877L571.661 98.3483ZM566.51 94.714C566.095 94.714 565.76 95.0498 565.76 95.464C565.76 95.8782 566.095 96.214 566.51 96.214V94.714ZM569.769 103.49C569.763 103.904 570.094 104.244 570.508 104.25C570.923 104.256 571.263 103.924 571.268 103.51L569.769 103.49ZM569.894 100.116C569.601 99.8228 569.126 99.8228 568.833 100.116C568.54 100.409 568.54 100.883 568.833 101.176L569.894 100.116ZM572.722 97.2877C572.429 96.9948 571.954 96.9948 571.661 97.2877C571.368 97.5806 571.368 98.0554 571.661 98.3483L572.722 97.2877ZM573.796 103.5C573.796 103.914 574.131 104.25 574.546 104.25C574.96 104.25 575.296 103.914 575.296 103.5H573.796ZM573.005 108.58L571.832 107.407L570.771 108.467L571.944 109.64L573.005 108.58ZM571.832 107.407C570.953 106.528 569.528 106.527 568.65 107.407L569.711 108.467C570.003 108.175 570.478 108.174 570.771 108.467L571.832 107.407ZM568.65 107.407L567.728 108.329L568.789 109.389L569.711 108.467L568.65 107.407ZM567.728 108.329C567.729 108.328 567.731 108.326 567.737 108.325C567.744 108.323 567.759 108.323 567.777 108.33L567.173 109.704C567.742 109.954 568.38 109.798 568.789 109.389L567.728 108.329ZM567.775 108.33C566.527 107.783 565.285 106.95 564.172 105.838L563.111 106.898C564.353 108.14 565.75 109.081 567.174 109.704L567.775 108.33ZM564.172 105.838C563.064 104.73 562.234 103.493 561.686 102.249L560.313 102.853C560.937 104.271 561.875 105.662 563.111 106.898L564.172 105.838ZM561.685 102.247C561.688 102.253 561.689 102.259 561.69 102.264C561.69 102.269 561.69 102.272 561.69 102.273C561.689 102.275 561.69 102.273 561.692 102.27L560.631 101.21C560.215 101.626 560.057 102.276 560.314 102.855L561.685 102.247ZM561.692 102.27L562.518 101.444L561.457 100.384L560.631 101.21L561.692 102.27ZM562.518 101.444C563.454 100.508 563.508 99.0831 562.603 98.1777L561.542 99.2383C561.809 99.5049 561.863 99.9783 561.457 100.384L562.518 101.444ZM562.603 98.1777L561.43 97.0047L560.369 98.0653L561.542 99.2383L562.603 98.1777ZM561.43 97.0047C560.356 95.9308 558.615 95.9308 557.541 97.0047L558.602 98.0653C559.09 97.5772 559.881 97.5772 560.369 98.0653L561.43 97.0047ZM557.542 97.0043L556.89 97.6553L557.949 98.7167L558.601 98.0657L557.542 97.0043ZM556.889 97.6557C555.962 98.5824 555.589 99.9064 555.833 101.195L557.307 100.917C557.15 100.086 557.395 99.2716 557.95 98.7163L556.889 97.6557ZM555.833 101.195C556.358 103.976 557.96 106.969 560.5 109.509L561.561 108.449C559.203 106.091 557.769 103.362 557.306 100.917L555.833 101.195ZM560.5 109.509C563.04 112.05 566.033 113.651 568.814 114.177L569.093 112.703C566.648 112.241 563.919 110.806 561.561 108.449L560.5 109.509ZM568.814 114.177C570.103 114.42 571.427 114.047 572.354 113.12L571.293 112.06C570.738 112.615 569.924 112.86 569.093 112.703L568.814 114.177ZM572.354 113.12L573.005 112.469L571.944 111.409L571.293 112.06L572.354 113.12ZM573.005 112.469C574.079 111.395 574.078 109.655 573.005 108.58L571.944 109.64C572.433 110.129 572.432 110.921 571.944 111.409L573.005 112.469ZM566.52 100.241C567.359 100.23 568.197 100.54 568.833 101.176L569.894 100.116C568.956 99.1782 567.722 98.7245 566.499 98.7411L566.52 100.241ZM572.722 97.2877C571.007 95.5724 568.756 94.714 566.51 94.714V96.214C568.375 96.214 570.238 96.9256 571.661 98.3483L572.722 97.2877ZM571.268 103.51C571.285 102.287 570.831 101.053 569.894 100.116L568.833 101.176C569.47 101.813 569.78 102.651 569.769 103.49L571.268 103.51ZM571.661 98.3483C573.084 99.7711 573.796 101.635 573.796 103.5H575.296C575.296 101.253 574.437 99.0029 572.722 97.2877L571.661 98.3483Z" fill="#323232"/>
</svg>
