<?xml version="1.0" encoding="UTF-8"?>
<svg id="Capa_1" data-name="Capa 1" xmlns="http://www.w3.org/2000/svg" version="1.1" viewBox="0 0 1080 1080">
  <defs>
    <style>
      .cls-1 {
        fill: #3a3d40;
      }

      .cls-1, .cls-2, .cls-3, .cls-4, .cls-5, .cls-6, .cls-7, .cls-8, .cls-9, .cls-10 {
        stroke-width: 0px;
      }

      .cls-2 {
        fill: #949da8;
      }

      .cls-3 {
        fill: #efcfb3;
      }

      .cls-4 {
        fill: #e5e8ec;
      }

      .cls-5 {
        fill: #a34cd5;
      }

      .cls-6 {
        fill: #653096;
      }

      .cls-7 {
        fill: #a8b0bb;
      }

      .cls-8 {
        fill: #90dbf2;
      }

      .cls-9 {
        fill: #fefefe;
      }

      .cls-10 {
        fill: #fad56f;
      }
    </style>
  </defs>
  <path class="cls-1" d="M19.2,311.7v-43.8c7.6-52.6,36.2-90,83.4-113.4,52.9-26.2,118.4-17.1,162.7,22.3q9.6,8.5,20.3,1.6c35.9-23.2,74.3-41,115.4-52.8,8.2-2.4,12.5-6.6,15.2-14.9,11.9-36.4,52.1-70.5,94.5-67.9,11.2.7,22.6.8,33.8,0,37.7-2.9,79.9,27.6,92.5,63.4,4.1,11.6,10.3,17.6,22.1,21,30,8.7,58.7,20.8,85.8,36.6,7.5,4.3,15.1,7.5,24.2,8.1,27.3,1.7,40,15.2,40.9,42.6.5,15.6,0,31.2.2,46.8,0,3.8-.8,9,5.1,8.9,5.9,0,5.1-5.3,5.1-9,.1-37.8,0-75.6,0-113.4,0-26.8,12.9-39.8,39.4-39.9,8.6,0,17.2,0,25.9,0,24.1.2,37.7,13.6,37.8,37.5.1,37.2,0,74.3.2,111.5,0,4.8-2.6,12.9,4.7,13,8.4.2,5.3-8.3,5.4-13.2.2-55.1.1-110.1.2-165.2,0-5,0-9.9.6-14.9,3.4-23.5,15-33.6,38.5-33.6,10.6,0,21.2,0,31.8,0,19.2,0,33.1,13.8,33.2,33.2.2,44.8,0,89.6,0,134.3,0,20.6.1,41.1,0,61.7-.2,22.3-13.8,36.1-35.9,36.3-29.9.2-59.7,0-89.6.1-3.1,0-7.3-1.4-9.1,2-1.6,3,1.7,5.4,3.1,7.9,7.1,12,14.6,23.9,19.8,36.8,4.1,10.3,10.8,14.4,21.6,15.4,23.3,2.1,42,13.5,56.4,31.9,25.4,32.4,23.4,77.2-4.5,107.6-3.6,3.9-8.5,7.7-2.1,13,25.3,21.3,33,50.1,35.4,81.5,1.4,18.5,4.1,36.8,5.7,55.3.7,8.4-2.4,10.7-9.7,10.8-19.9,0-39.8.4-59.7-.1-9.3-.3-13.6,3.1-16.1,12-6.8,24-16.4,47-27.7,69.2-6.5,12.7-6.3,13.3,3.5,23.2,59,59.9,58.6,154-.9,212.9-62.7,62.1-167.2,55.9-222.2-13.1q-8.1-10.1-20.6-5.6c-51.2,18.7-103.8,29.7-158.7,28.1-22.2-.7-44.4-.1-66.7-.1q-15.8,0-19.8,15.8c-1.1,4.2-2.2,8.3-3.1,12.6-4.3,20.8-14.9,35.1-37.9,36.5h-10c-19.7-3.9-29.7-16.9-33.6-35.7-1.2-5.8-2.8-11.6-4.3-17.4-3-11.1-3.9-11.9-15.8-11.9-16.9,0-33.8-.8-50.7.2-28.2,1.6-39-19.4-39.4-38.5-.4-16.9-.3-33.8,0-50.7.2-8-2.9-13.3-8.8-18.7-25.9-23.7-51-48.4-70.9-77.5-5-7.4-10.8-10.9-19.9-12.5-59.6-10-100.2-43.6-121.5-100.3-3.1-8.1-2.5-16.9-5.2-25.1v-43.8c2.5-30.9,16.4-56.7,36.1-79.9,6.3-7.4,14-13.2,21.4-19.2,4.7-3.8,7.2-8.3,7.5-14.4,1.3-29,7.2-57.2,15-85,1.4-5.2.6-7.4-4-10-31.7-17.4-54-43.2-68.2-76.4-4.6-10.9-5.4-22.3-7.9-33.5Z"/>
  <path class="cls-9" d="M920.9,667.5c-7.6,27.3-18.4,52.4-30.9,76.7-3.3,6.5-6.8,1.6-9.7.4-55.9-21.5-108.1-14.7-153.3,24.5-47.1,40.9-61.4,93.4-44.9,153.7,1.9,6.9,1,9.4-5.8,12-40.3,15.2-81.8,24-124.7,27.1-7.2.5-7.4-2.3-7.3-7.7.2-28.2.1-56.4,0-84.6,0-25.7-12.8-38.3-38.6-38.4-72.6,0-145.3.1-217.9-.1-15.6,0-28.1,4.4-35.3,18.9-3.2,6.4-5.1,1.2-6.9-.5-17.2-16.1-32.7-33.8-47.4-53.8,53.4-14.5,91-46.3,108.8-98.8,11.8-34.5,10.2-69.2-3.9-102.9-26-62.5-97.7-108.6-182.6-83.4,1-20.2,5.4-39.4,10-58.6.9-3.5,2.1-7,2.6-10.6.9-5.9,3.9-6.9,9.6-6.1,84.3,12.5,157.8-41.5,170.4-125.6,4.5-30.2-.6-59.5-15.1-86.6-3.2-5.9-2.6-8.7,3-12.4,32.6-21.4,67.3-38,104.4-49.8,5.9-1.9,9-2.5,10.3,5.6,2.5,15.9,9.7,30.1,19.8,42.7,12.8,16,25.5,32.2,38.6,48.1,3.4,4.1,4.9,8.2,4.7,13.5-.3,6.9-.2,13.9,0,20.9.9,26.6,22.5,47.6,48.9,47.6,26.4,0,50-21.1,48.5-47.5-1.3-22.1,6.1-38.4,20.5-54,11.2-12.1,20.9-25.7,30.5-39.2,7-9.8,10.9-21.2,13-33,.9-5.1,2-7,7.5-5.2,21.4,6.9,42.4,14.8,62.6,24.8,4,2,4.5,3.5,2.2,7.4-3.7,6.1-4.4,13-4.3,20.1.2,19.2,0,38.5,0,57.7,0,22.6,13.1,35.7,35.8,35.9,34.5.2,69,.2,103.5,0,6,0,9.6,1.9,13,6.7,13.7,19.5,25.9,40,36.5,61.3,2.4,4.8,2.9,7.4-2.5,11-46.6,31-51.9,90-12,128.8,1.8,1.7,7.5,3,1.9,7.1-26.6,19.3-36.1,46.9-38.9,78.2-1.8,20.1-4.5,40.2-7.6,60.1-1.1,7.3,1.5,8.1,7.7,8,24.8-.3,49.7-.1,75.3-.1Z"/>
  <path class="cls-4" d="M52.2,290.5c-.5-62.9,50.3-114.2,113.8-115.1,62.5-.9,115.2,50.7,115.8,113.3.6,63.3-51,115.9-114,116.3-63.4.4-115.1-50.8-115.6-114.5Z"/>
  <path class="cls-4" d="M396.7,864.2c35.5,0,71,.2,106.4-.2,6.6,0,8.2,1.9,8.2,8.3-.3,27.5-.4,55.1,0,82.6.1,7.1-2.5,7.9-8.5,7.8-26.2-.3-52.4,0-78.6-.3-6.1,0-8.5,1.6-9.8,7.8-3.3,15.8-7.5,31.5-11.7,47.2-1,3.8-.3,10-6.1,10.1-6.5.1-5.5-6.6-6.6-10.6-4.3-15.6-8.3-31.3-11.7-47.2-1.2-5.7-3.4-7.3-9.1-7.3-26.2.3-52.4-.2-78.6.4-7.8.2-9.1-2.2-9-9.4.4-26.9.4-53.7,0-80.6,0-6.8,1.4-8.9,8.6-8.9,35.5.4,71,.2,106.4.2Z"/>
  <path class="cls-5" d="M806.6,783.5q0,15.2-15.3,15.2-17.7,0-17.7,17.4c0,10.9-.2,21.9,0,32.8.8,25.5,20.4,46,45.6,47.9,16.4,1.3,25.1,14.4,19.9,30.1-.4,1.3-1,2.2-2.3,2.8-14.2,6.2-29.9-3.9-30.3-19.5q-.3-13.3-14-13.3c-21,0-21.2,0-18.7,21,2,17.3,10.7,30.5,26.3,38.5,4.9,2.5,7.1,5.2,6.5,10.6-.4,3.9,0,8,0,11.9q0,15.9-15.1,11.7c-49.8-14.1-84.1-60-83.4-111.8.7-50.9,36.3-96.4,85.7-109.2q12.8-3.3,12.8,9.9c0,1.3,0,2.7,0,4Z"/>
  <path class="cls-5" d="M839.3,993.5c0-8.7.1-17.2,0-25.8,0-3.8,1.2-5.3,5.1-5.1,7,.2,13.9-.2,20.9.1,4.7.2,7.3-.6,7.1-6.3-.5-15.2.3-30.5-.5-45.7-1.4-25.3-19.7-43.6-44.9-46-17.2-1.7-24.8-13-20.2-30,.4-1.3.6-2.4,2-3.1,12.6-6.5,30.2,3.9,30.7,18.1,0,2,.3,4,0,6-1.1,6.9,1.5,9.9,8.6,8.7,1.3-.2,2.6,0,4,0,22.5,0,22.6,0,19.6-22.9-2.1-16.2-10.6-28.6-25-36-6.1-3.2-7.9-6.8-7.3-13.1.4-4.9.7-10,0-14.9-1.5-10.2,2.8-10.2,11-8.2,54.6,13.5,90.5,62.9,87,120.6-3.1,52-45.8,97.6-97.9,103.7Z"/>
  <path class="cls-8" d="M526.5,76.9c13.4-.3,25-.3,36.2,3.5,42.6,14.4,60.9,65,35.6,102.2-13,19.1-28.6,36.5-42.9,54.8-2.4,3.1-5.3,4.1-8.7,3.2-4.2-1.2-2.1-4.9-2.4-7.6-.3-2.3.1-4.7,0-7-1.3-12.6.7-21.8,13.7-29.7,18.1-10.9,23.2-35.1,15.7-54.9-7.7-20.3-27.4-32.9-49.2-31.6-21.6,1.4-39.4,16.4-44.7,37.6-5,20.2,3.9,42.5,22.7,52.8,7.4,4,9.6,8.5,8.8,16.2-.6,5.9,0,11.9-.2,17.9,0,2.1,1.3,5.1-1.8,6-2.8.9-6,1.1-8.2-1.7-16.1-21.4-36.4-40-48.5-64.1-21.9-43.7,9.9-95.7,58.8-97.7,5.6-.2,11.3,0,15.1,0Z"/>
  <path class="cls-6" d="M936.9,634.4c-18.2,0-36.5-.3-54.7.2-6.5.2-7.9-2-7.1-7.9,2.2-14.7,3.5-29.6,6-44.3,4.6-26.3,28.8-45.8,56-46,27.9-.1,52.3,19,57.2,45.7,2.7,15,3.9,30.2,6.2,45.3.9,6-1.4,7.2-6.9,7.1-18.9-.3-37.8-.1-56.7-.1Z"/>
  <path class="cls-3" d="M986.8,454.1c0,27.5-21.7,49-49.3,48.9-27.4,0-48.9-21.9-48.7-49.5.2-27,21.7-48.4,48.8-48.4,27.4,0,49.2,21.6,49.2,49.1Z"/>
  <path class="cls-8" d="M166.5,683.8c-12.6,0-25.2-.2-37.8,0-5.1.1-7.5-1-8.5-6.7-3.1-17.9-3.2-35.5.1-53.4.9-4.7,2.7-5.9,7.1-5.8,26.2.2,52.4.2,78.6,0,4.5,0,6.4,1.1,7.3,5.7,3.5,18.1,3.5,36.2,0,54.3-1,5.2-3.6,5.9-8.1,5.9-12.9-.2-25.9,0-38.8,0Z"/>
  <path class="cls-5" d="M1003.2,176.3c0,29.5-.3,58.9.2,88.4.1,7.6-2.1,9.3-9.4,9.2-23.3-.3-23.3,0-23.3-23.8,0-54.6.2-109.3-.2-163.9,0-7.9,2.1-9.8,9.8-9.7,22.9.4,23,.1,23,23.3s0,51,0,76.5Z"/>
  <path class="cls-5" d="M888.8,208.6c0,19.2-.2,38.4.1,57.6.1,6.2-1.7,7.7-7.8,7.8-25.5.3-25.5.5-25.5-24.7,0-32.7.2-65.5-.2-98.2,0-7,1.9-8.8,8.8-8.8,24.5.1,24.5-.1,24.5,24.7s0,27.8,0,41.7Z"/>
  <path class="cls-8" d="M261.6,683.8c-14.9,0-14.7,0-13.7-15.1,1-14.9,1.6-29.8-1.4-44.5-1-5,.5-6.8,5.4-6.1,1,.1,2,0,3,0,24-.1,24.1-.2,26.5,24,.8,8.2.2,16.5-1,24.7-2.5,16.9-2.4,16.9-18.8,16.9Z"/>
  <path class="cls-5" d="M773.7,241.5c0,8.9-.2,17.8,0,26.8.1,4.4-1.5,6.1-5.7,5.5-.3,0-.7,0-1,0q-25.9,1-25.9-25c0-11.2.3-22.5-.1-33.7-.2-5.8,2-7,7.4-7.1,25.3-.5,25.3-.7,25.3,24.6s0,5.9,0,8.9Z"/>
  <path class="cls-8" d="M52.4,649.7c0-2-.1-4,0-6,1.7-26.1,3.8-27.7,29.9-25.7,4.9.4,5.3,2.2,4.6,6.1-2.9,17.8-3,35.6,0,53.4.7,4.5,0,7-5.3,6.4-2.3-.3-4.6,0-7,0q-20.1,0-21.8-20.3c-.4-4.6-.6-9.3-.9-13.9.1,0,.3,0,.4,0Z"/>
  <path class="cls-8" d="M134.2,716.4c20.6,0,39.4.1,58.3,0,5.8,0,7.2,1.3,4,6.6-7.2,12-16,22.7-26,32.5-2.1,2-3.7,3.5-6.5.7-11.5-11.4-22.1-23.4-29.8-39.7Z"/>
  <path class="cls-8" d="M199.3,584.8h-64.8c7.3-15.5,17.9-27.5,29.4-39,2.7-2.7,4.4-1.5,6.5.6,11,11,21.1,22.7,28.9,38.3Z"/>
  <path class="cls-7" d="M528,273.5c7.2,1.5,17.9-4.6,16.6,10.7-1.3,14.6-6.1,22.1-17.2,21.9-10.9-.2-15.5-7.7-16.5-22.5-1.1-16.9,11.6-6.9,17-10.1Z"/>
  <path class="cls-8" d="M527.7,175c-8.9,0-16.5-7.4-16.5-16.2,0-8.7,7.7-16.4,16.4-16.4,8.8,0,16.5,7.6,16.5,16.3,0,8.9-7.4,16.2-16.4,16.3Z"/>
  <path class="cls-8" d="M116.6,752.9c-17.6-7.6-31.3-19.6-44-36.5,8.3,0,14.7,0,21,0,3.2,0,4.7,1.6,5.8,4.3,4.7,11.3,11.3,21.5,17.1,32.2Z"/>
  <path class="cls-8" d="M217,753c5.4-9.9,11.7-18.8,15.5-29,2.4-6.4,6.2-8.5,12.7-7.7,4.5.5,9.1,0,15.4,0-11.8,17.4-26.2,28.8-43.6,36.7Z"/>
  <path class="cls-8" d="M116.4,549c-5.7,10.8-12.3,20.9-17,32.1-1.2,2.8-2.8,4.2-5.8,4.2-6.1,0-12.3,0-20.5,0,12.1-17,26-28.5,43.3-36.2Z"/>
  <path class="cls-8" d="M215.5,547.1c18.8,9.4,32.7,20.9,43.7,36.1-14.6,5.5-22.1,2.8-28.8-9.9-4.3-8.1-9.1-16-14.9-26.2Z"/>
  <path class="cls-1" d="M484,437.3c22,0,44.9.1,67.8,0,14.5,0,28-4.5,40.8-11.2,10.5-5.6,18.6-11.5,18.3-26-.3-15,13.5-26.7,29.9-27.8,11.9-.8,23.9-.8,35.8,0,19.1,1.2,31.4,14.8,31.6,34,.2,19.9.4,39.8-.2,59.7-.2,6.8,2.2,9.3,8.3,10.4,5.5,1,11,2.5,16.3,4.2,25.4,8,41.5,30.2,41.1,56.9-.3,25.6-17.5,47.6-42.5,55-7.6,2.2-18.2,1.1-21.9,7.1-3.6,5.8-1.1,15.4-1.1,23.4,0,14.6.1,29.2,0,43.8-.3,19.6-13.7,33-33.1,33.3-10.6.2-21.2.2-31.8,0-19.1-.3-32.9-13.3-32.8-32.3,0-7.8-3-12-8.9-16-19.7-13.5-41.6-18.2-65.1-17.1-8.2.4-19-3.8-23.7,1.9-4,4.7-1.4,15.2-1.4,23.1,0,23.9,0,47.8,0,71.6-.1,21.4-13.4,34.4-34.9,34.6-9.9,0-19.9.2-29.9,0-19.6-.4-33.1-13.7-33.2-33.2-.2-29.5-.2-59,0-88.6,0-6.7-.7-9.5-8.8-10-49.3-2.9-89.1-46.1-90-96.8-.8-48.8,36.9-92.6,85.2-98.1,27.8-3.2,55.7-.4,84.4-1.6Z"/>
  <path class="cls-1" d="M101.1,290.3c0-12.9-.2-25.9,0-38.8.6-34.5,34.2-54.2,64-37.2,21,11.9,41.7,24.4,62.1,37.4,28.7,18.3,29.1,57.9.5,76.4-20.8,13.5-42.1,26.3-63.8,38.4-28.4,15.8-61.7-3.7-62.7-36.3-.4-13.3,0-26.5,0-39.8Z"/>
  <path class="cls-1" d="M463,896.9q15.7,0,15.7,16.3t-16.5,16.7-16.7-16.5,17.5-16.5Z"/>
  <path class="cls-1" d="M331,896.9q16.5,0,16.5,16.4t-16.6,16.6-16.6-16.7,16.7-16.3Z"/>
  <path class="cls-1" d="M396.6,896.9q16.5,0,16.5,16.5t-16.7,16.5-16.5-16.7,16.7-16.3Z"/>
  <path class="cls-4" d="M609.3,618.5c-31.5-19.4-65.6-16.6-99.2-16.5-18.9,0-37.8-.2-56.7.1-5.9.1-8.1-1.2-8-7.6.3-38.8.3-77.6,0-116.4,0-6.5,2.2-7.6,8-7.5,20.2.3,40.4,0,60.7.2,32.5.4,65,1.3,95.3-16.6v164.3Z"/>
  <path class="cls-8" d="M675.5,536.6c0,40.5-.2,80.9.2,121.4,0,7.2-1.5,9.8-9.2,9.7-24-.2-24,.1-24-23.4,0-76.3.1-152.6-.2-228.9,0-8,1.5-10.8,10.1-10.6,23.2.6,23.2.1,23.2,23.3,0,36.2,0,72.3,0,108.5h0Z"/>
  <path class="cls-8" d="M413.1,536.8c0,19.2-.2,38.4.1,57.6.1,6.5-1.9,7.7-8.1,6.9-32.2-4.4-56.7-30.8-57.6-62.3-.9-33.6,21.3-61.4,53.8-67.6,11.1-2.1,11.8-1.5,11.8,9.7,0,18.5,0,37.1,0,55.6Z"/>
  <path class="cls-2" d="M445.5,683.1c0-13.6.3-27.2-.1-40.8-.2-5.9,1.3-8,7.7-8.1,25.7-.4,25.6-.7,25.6,24.8,0,21.9-.2,43.8.1,65.7,0,6.3-1.4,8.6-8.2,8.7-25.1.3-25.1.5-25.1-24.4,0-8.6,0-17.2,0-25.9Z"/>
  <path class="cls-10" d="M708.1,564.3c0-17.6.2-33.8,0-50,0-5,1.3-6.4,6.2-5.1,8.7,2.4,17.2,4.5,22.6,12.9,8.7,13.7,3,32-12.4,37.8-4.9,1.8-10.1,2.7-16.3,4.3Z"/>
  <path class="cls-6" d="M134.2,289.4c0-12.3-.2-24.5,0-36.8.2-10.7,6.4-14.6,15.6-9.2,19.8,11.4,39.4,23.1,58.8,35.1,10.2,6.3,10.1,16.7-.1,23-19.4,12-39,23.7-58.7,35.2-8.9,5.2-15.3,1.1-15.5-9.6-.2-12.6,0-25.2,0-37.8Z"/>
  <path class="cls-1" d="M511.2,537.4q0,15.1-15.7,15.1t-16.8-17,16.2-15.8,16.3,17.6Z"/>
  <path class="cls-1" d="M576.8,536.5q0,16-15.8,16t-16.7-17.1,15.3-15.7,17.2,16.8Z"/>
</svg>