<svg width="24" height="24" viewBox="0 0 24 24" fill="none" xmlns="http://www.w3.org/2000/svg">
<g clip-path="url(#clip0_1143_1848)">
<path d="M17 19.22H5V7H12V5H5C3.9 5 3 5.9 3 7V19C3 20.1 3.9 21 5 21H17C18.1 21 19 20.1 19 19V12H17V19.22Z" fill="current"/>
<path d="M16.54 10.07L13 6.53L14.41 5.12L16.53 7.24L20.77 3L22.18 4.41L16.54 10.07Z" fill="current"/>
<path d="M12 9H7V11H12V9Z" fill="current"/>
<path d="M7 12V14H12V12H10.125H7Z" fill="current"/>
<path d="M12 15H7V17H12V15Z" fill="current"/>
</g>
<defs>
<clipPath id="clip0_1143_1848">
<rect width="24" height="24" fill="white"/>
</clipPath>
</defs>
</svg>
