<svg width="36" height="36" viewBox="0 0 36 36" fill="none" xmlns="http://www.w3.org/2000/svg">
<path d="M24.7849 24.9908L23.5627 26.213C23.3444 26.4302 22.7051 26.5675 22.686 26.5675C18.8169 26.6001 15.0919 25.0809 12.3544 22.3427C9.60901 19.5979 8.08804 15.8582 8.13025 11.9778C8.13025 11.9755 8.27038 11.3543 8.48815 11.1383L9.71035 9.91496C10.1588 9.46705 11.0175 9.26448 11.619 9.46478L11.8767 9.55143C12.4782 9.75174 13.1068 10.4157 13.2733 11.0268L13.8889 13.2855C14.056 13.8977 13.8315 14.7687 13.3836 15.2166L12.5666 16.0337C13.3679 19.0036 15.6968 21.332 18.6651 22.1345L19.4821 21.3174C19.93 20.8694 20.8033 20.6455 21.4156 20.8121L23.6743 21.4288C24.2842 21.5942 24.9482 22.2222 25.1497 22.8243L25.2352 23.082C25.4354 23.6842 25.2328 24.5429 24.7849 24.9908ZM18.5007 17.3482H19.6531C19.6531 16.0754 18.6212 15.0434 17.3483 15.0434V16.1958C17.9836 16.1958 18.5007 16.7135 18.5007 17.3482ZM23.1103 17.3482C23.1103 14.1656 20.5309 11.5862 17.3483 11.5862V12.7386C19.8906 12.7386 21.9579 14.8071 21.9579 17.3482H23.1103ZM17.3483 8.12897V9.28137C21.7959 9.28137 25.4151 12.9006 25.4151 17.3482H26.5675C26.5675 12.2569 22.4396 8.12897 17.3483 8.12897Z" fill="#7721AD"/>
<path fill-rule="evenodd" clip-rule="evenodd" d="M17 31.45C24.9805 31.45 31.45 24.9805 31.45 17C31.45 9.01949 24.9805 2.55 17 2.55C9.01949 2.55 2.55 9.01949 2.55 17C2.55 24.9805 9.01949 31.45 17 31.45ZM17 34C26.3888 34 34 26.3888 34 17C34 7.61116 26.3888 0 17 0C7.61116 0 0 7.61116 0 17C0 26.3888 7.61116 34 17 34Z" fill="#7721AD"/>
</svg>
