<svg width="24" height="24" viewBox="0 0 24 24" fill="none" xmlns="http://www.w3.org/2000/svg">
<path d="M21 21.75C21.4142 21.75 21.75 21.4142 21.75 21C21.75 20.5858 21.4142 20.25 21 20.25V21.75ZM3 20.25C2.58579 20.25 2.25 20.5858 2.25 21C2.25 21.4142 2.58579 21.75 3 21.75V20.25ZM9.667 21V21.75C10.0812 21.75 10.417 21.4142 10.417 21H9.667ZM9.667 9H10.417C10.417 8.58579 10.0812 8.25 9.667 8.25V9ZM5 21H4.25C4.25 21.4142 4.58579 21.75 5 21.75V21ZM21 20.25H3V21.75H21V20.25ZM10.417 21V9H8.917V21H10.417ZM9.667 8.25H6V9.75H9.667V8.25ZM6 8.25C5.03379 8.25 4.25 9.03379 4.25 10H5.75C5.75 9.86221 5.86221 9.75 6 9.75V8.25ZM4.25 10L4.25 21H5.75L5.75 10H4.25ZM5 21.75H9.667V20.25H5V21.75Z" fill="current" stroke="none" />
<path d="M14.333 21V21.75C14.7472 21.75 15.083 21.4142 15.083 21H14.333ZM9.66602 21H8.91602C8.91602 21.4142 9.2518 21.75 9.66602 21.75V21ZM19 21V21.75C19.4142 21.75 19.75 21.4142 19.75 21H19ZM14.333 6V5.25C13.9188 5.25 13.583 5.58579 13.583 6H14.333ZM14.333 21H13.583C13.583 21.4142 13.9188 21.75 14.333 21.75V21ZM15.083 21V4H13.583V21H15.083ZM15.083 4C15.083 3.03379 14.2992 2.25 13.333 2.25L13.333 3.75C13.4708 3.75 13.583 3.86221 13.583 4H15.083ZM13.333 2.25H10.666V3.75H13.333L13.333 2.25ZM10.666 2.25C9.6998 2.25 8.91602 3.03379 8.91602 4H10.416C10.416 3.86221 10.5282 3.75 10.666 3.75V2.25ZM8.91602 4L8.91602 21H10.416L10.416 4H8.91602ZM9.66602 21.75H14.333V20.25H9.66602V21.75ZM19.75 21V7H18.25V21H19.75ZM19.75 7C19.75 6.03379 18.9662 5.25 18 5.25V6.75C18.1378 6.75 18.25 6.86221 18.25 7H19.75ZM18 5.25H14.333V6.75H18V5.25ZM13.583 6V21H15.083V6H13.583ZM14.333 21.75H19V20.25H14.333V21.75Z" fill="current" stroke="none" />
</svg>
