<svg width="25" height="22" viewBox="0 0 25 22" fill="none" xmlns="http://www.w3.org/2000/svg">
<path d="M15.4297 21.9727C15.8344 21.9727 16.1621 21.645 16.1621 21.2402V18.3105C16.1621 17.9058 15.8344 17.5781 15.4297 17.5781H9.57031C9.16557 17.5781 8.83789 17.9058 8.83789 18.3105V21.2402C8.83789 21.645 9.16557 21.9727 9.57031 21.9727H15.4297Z" stroke="none" fill="current"/>
<path d="M24.2676 17.5781H22.0215V15.3809C22.0215 14.9761 21.6938 14.6484 21.2891 14.6484H19.0918V13.1836H21.2891C21.6938 13.1836 22.0215 12.8559 22.0215 12.4512V9.52148C22.0215 9.11674 21.6938 8.78906 21.2891 8.78906H19.0918V6.5918C19.0918 6.18706 18.7641 5.85938 18.3594 5.85938H13.2324V4.39453H15.4297C15.8344 4.39453 16.1621 4.06685 16.1621 3.66211V0.732422C16.1621 0.327683 15.8344 0 15.4297 0H9.57031C9.16557 0 8.83789 0.327683 8.83789 0.732422V3.66211C8.83789 4.06685 9.16557 4.39453 9.57031 4.39453H11.7676V5.85938H6.64062C6.23589 5.85938 5.9082 6.18706 5.9082 6.5918V8.78906H3.71094C3.3062 8.78906 2.97852 9.11674 2.97852 9.52148V12.4512C2.97852 12.8559 3.3062 13.1836 3.71094 13.1836H5.9082V14.6484H3.71094C3.3062 14.6484 2.97852 14.9761 2.97852 15.3809V17.5781H0.732422C0.327683 17.5781 0 17.9058 0 18.3105V21.2402C0 21.645 0.327683 21.9727 0.732422 21.9727H6.64062C7.04536 21.9727 7.37305 21.645 7.37305 21.2402V18.3105C7.37305 17.9058 7.04536 17.5781 6.64062 17.5781H4.44336V16.1133H20.5566V17.5781H18.3594C17.9546 17.5781 17.627 17.9058 17.627 18.3105V21.2402C17.627 21.645 17.9546 21.9727 18.3594 21.9727H24.2676C24.6723 21.9727 25 21.645 25 21.2402V18.3105C25 17.9058 24.6723 17.5781 24.2676 17.5781ZM17.627 7.32422V8.78906H15.4297C15.0249 8.78906 14.6973 9.11674 14.6973 9.52148V12.4512C14.6973 12.8559 15.0249 13.1836 15.4297 13.1836H17.627V14.6484H13.2324V7.32422H17.627ZM7.37305 13.1836H9.57031C9.97505 13.1836 10.3027 12.8559 10.3027 12.4512V9.52148C10.3027 9.11674 9.97505 8.78906 9.57031 8.78906H7.37305V7.32422H11.7676V14.6484H7.37305V13.1836Z" stroke="none" fill="current"/>
</svg>
