<?xml version="1.0" encoding="UTF-8" standalone="no"?> <svg xmlns="http://www.w3.org/2000/svg" viewBox="0 0 32 32"><title>Decision</title><g id="_11-20" data-name="11-20"><g id="Desicion"><path d="M29.887,15.559,25.9,7.553a.993.993,0,0,0-1-.547l-6.2.69A3,3,0,0,0,17,6.184V5a1,1,0,0,0-2,0V6.184a3,3,0,0,0-1.914,2.133l-6.2.689a1,1,0,0,0-.785.547l-3.99,8A.978.978,0,0,0,2,18a4,4,0,0,0,4,4H8a4,4,0,0,0,4-4,.978.978,0,0,0-.1-.427c0-.008-3.36-6.738-3.36-6.738l4.775-.531A3,3,0,0,0,15,11.816V23H11a4,4,0,0,0-4,4,1,1,0,0,0,1,1H24a1,1,0,0,0,1-1,4,4,0,0,0-4-4H17V11.816a3,3,0,0,0,1.914-2.133L23.283,9.2s-3.178,6.371-3.182,6.381A.982.982,0,0,0,20,16a4,4,0,0,0,4,4h2a4,4,0,0,0,4-4A.978.978,0,0,0,29.887,15.559ZM21,25a2,2,0,0,1,1.731,1H9.269A2,2,0,0,1,11,25Zm6.382-10H22.618L25,10.237ZM7,12.236,9.382,17H4.618ZM8,20H6a2,2,0,0,1-1.731-1H9.731A2,2,0,0,1,8,20Zm8-10a1,1,0,1,1,1-1A1,1,0,0,1,16,10Zm10,8H24a2,2,0,0,1-1.731-1h5.462A2,2,0,0,1,26,18Z"/></g></g></svg>