<svg width="130" height="140" viewBox="0 0 130 140" fill="none" xmlns="http://www.w3.org/2000/svg">
<path d="M18 71.27H21.55C21.8041 71.283 22.0559 71.2169 22.2708 71.0807C22.4857 70.9446 22.6531 70.7452 22.75 70.51C22.8669 70.2915 22.9058 70.0397 22.8603 69.7961C22.8149 69.5525 22.6878 69.3317 22.5 69.17C22.166 68.9149 21.7601 68.7714 21.34 68.76H12.89C12.5371 68.7126 12.178 68.7675 11.8554 68.9182C11.5328 69.0689 11.2602 69.309 11.07 69.61V70.47C11.2584 70.7728 11.5307 71.0144 11.8538 71.1653C12.1769 71.3162 12.5369 71.3699 12.89 71.32C14.63 71.24 16.34 71.27 18 71.27Z" fill="#7721AD"/>
<path d="M117.07 68.72H108.73C108.481 68.7164 108.232 68.7432 107.99 68.8C107.738 68.874 107.516 69.0261 107.356 69.2342C107.197 69.4423 107.107 69.6958 107.1 69.9582C107.093 70.2205 107.17 70.4782 107.319 70.6942C107.468 70.9102 107.682 71.0733 107.93 71.16C108.17 71.2331 108.42 71.2669 108.67 71.26H117.07C117.423 71.3074 117.782 71.2525 118.105 71.1018C118.427 70.9511 118.7 70.711 118.89 70.41V69.55C118.698 69.2518 118.425 69.015 118.102 68.8678C117.779 68.7207 117.421 68.6694 117.07 68.72Z" fill="#7721AD"/>
<path d="M66.27 113.73C66.2731 113.478 66.2462 113.226 66.19 112.98C66.109 112.728 65.9501 112.508 65.7363 112.352C65.5224 112.197 65.2646 112.113 65 112.113C64.7354 112.113 64.4776 112.197 64.2637 112.352C64.0499 112.508 63.891 112.728 63.81 112.98C63.7489 113.225 63.722 113.477 63.73 113.73V122.07C63.6826 122.423 63.7375 122.782 63.8882 123.105C64.0389 123.427 64.279 123.7 64.58 123.89H65.44C65.741 123.7 65.9811 123.427 66.1318 123.105C66.2825 122.782 66.3374 122.423 66.29 122.07C66.25 119.29 66.27 116.51 66.27 113.73Z" fill="#7721AD"/>
<path d="M63.73 23.85V26.65C63.73 26.8154 63.763 26.9791 63.8272 27.1315C63.8914 27.284 63.9854 27.422 64.1037 27.5376C64.2221 27.6531 64.3623 27.7438 64.5163 27.8043C64.6702 27.8649 64.8347 27.894 65 27.89C65.3275 27.8983 65.6454 27.7787 65.8863 27.5565C66.1271 27.3344 66.2719 27.0271 66.29 26.7V17.93C66.3374 17.5771 66.2825 17.218 66.1318 16.8954C65.9811 16.5728 65.741 16.3002 65.44 16.11H64.58C64.2772 16.2983 64.0356 16.5706 63.8847 16.8938C63.7338 17.2169 63.6801 17.5769 63.73 17.93C63.76 19.9 63.73 21.88 63.73 23.85Z" fill="#7721AD"/>
<path d="M116.16 54.25C115.16 55.38 114.05 56.5 113 57.64C112.839 57.8314 112.636 57.9833 112.408 58.0839C112.179 58.1845 111.93 58.231 111.68 58.22H108.61C107.67 58.22 107.12 58.69 107.11 59.47C107.1 60.25 107.67 60.73 108.59 60.74H112C112.875 60.7509 113.719 60.4168 114.35 59.81C115.64 58.51 116.9 57.17 118.12 55.81C118.222 55.6831 118.298 55.5371 118.343 55.3806C118.389 55.224 118.402 55.0601 118.384 54.8982C118.365 54.7363 118.315 54.5797 118.235 54.4375C118.155 54.2954 118.048 54.1704 117.92 54.07C117.748 53.9295 117.54 53.8395 117.32 53.81C117.105 53.7844 116.888 53.8111 116.686 53.8877C116.484 53.9643 116.304 54.0886 116.16 54.25Z" fill="#7721AD"/>
<path d="M18.14 60.74H21.48C21.6464 60.7575 21.8146 60.7417 21.9748 60.6935C22.135 60.6453 22.284 60.5656 22.4131 60.4592C22.5422 60.3528 22.6488 60.2218 22.7267 60.0737C22.8046 59.9257 22.8523 59.7636 22.8669 59.5969C22.8815 59.4303 22.8628 59.2624 22.8118 59.103C22.7608 58.9437 22.6786 58.7961 22.57 58.6688C22.4614 58.5416 22.3285 58.4373 22.1791 58.3619C22.0298 58.2866 21.8669 58.2417 21.7 58.23H18.35C18.0947 58.2352 17.8415 58.1841 17.6082 58.0804C17.3748 57.9767 17.1672 57.8229 17 57.63C15.94 56.47 14.87 55.34 13.8 54.21C13.597 53.9516 13.2997 53.7843 12.9734 53.7449C12.6472 53.7056 12.3186 53.7973 12.06 54H12C11.876 54.1102 11.7752 54.244 11.7034 54.3936C11.6317 54.5431 11.5904 54.7055 11.582 54.8712C11.5737 55.0368 11.5983 55.2025 11.6547 55.3585C11.711 55.5146 11.7978 55.6579 11.91 55.78L12 55.87C13.12 57.08 14.25 58.29 15.39 59.48C15.7333 59.8724 16.1559 60.1876 16.6299 60.4047C17.104 60.6219 17.6186 60.7362 18.14 60.74Z" fill="#7721AD"/>
<path d="M78.47 119C76.47 117.09 76.82 117.87 76.78 115.09V113.47C76.7975 113.304 76.7817 113.135 76.7334 112.975C76.6852 112.815 76.6056 112.666 76.4992 112.537C76.3928 112.408 76.2617 112.301 76.1137 112.223C75.9656 112.145 75.8036 112.098 75.6369 112.083C75.4702 112.068 75.3023 112.087 75.143 112.138C74.9837 112.189 74.8361 112.271 74.7088 112.38C74.5816 112.489 74.4772 112.621 74.4019 112.771C74.3266 112.92 74.2817 113.083 74.27 113.25C74.26 113.323 74.26 113.397 74.27 113.47V116.81C74.2663 117.341 74.3738 117.868 74.5857 118.355C74.7975 118.842 75.1089 119.28 75.5 119.64C76.66 120.73 77.83 121.83 79 122.91C79.2148 123.175 79.5262 123.344 79.8656 123.38C80.2051 123.415 80.5448 123.315 80.81 123.1C81.0752 122.885 81.2442 122.574 81.2799 122.234C81.3155 121.895 81.2148 121.555 81 121.29C80.9298 121.207 80.8492 121.133 80.76 121.07C80 120.43 79.21 119.74 78.47 119Z" fill="#7721AD"/>
<path d="M75.51 27.89C75.8329 27.8981 76.146 27.7789 76.3818 27.5582C76.6175 27.3374 76.757 27.0327 76.77 26.71V23.45C76.7554 23.1653 76.8064 22.8811 76.9191 22.6193C77.0318 22.3575 77.2032 22.125 77.42 21.94C78.56 20.94 79.66 19.86 80.77 18.81C80.9347 18.7283 81.0796 18.6116 81.1945 18.4679C81.3093 18.3243 81.3913 18.1573 81.4347 17.9786C81.4782 17.7999 81.4819 17.6139 81.4458 17.4336C81.4097 17.2533 81.3345 17.083 81.2256 16.9349C81.1167 16.7867 80.9767 16.6641 80.8154 16.5758C80.6541 16.4875 80.4754 16.4356 80.2919 16.4237C80.1084 16.4118 79.9245 16.4402 79.7531 16.507C79.5818 16.5737 79.4271 16.6771 79.3 16.81C79.2031 16.8705 79.1183 16.9485 79.05 17.04C77.82 18.17 76.61 19.32 75.4 20.47C75.0692 20.765 74.8007 21.123 74.6101 21.5231C74.4195 21.9232 74.3106 22.3573 74.29 22.8C74.24 24.12 74.29 25.45 74.29 26.8C74.32 27.1014 74.462 27.3806 74.6879 27.5824C74.9137 27.7842 75.2071 27.894 75.51 27.89Z" fill="#7721AD"/>
<path d="M52.63 22C52.8254 22.1689 52.9801 22.38 53.0822 22.6173C53.1844 22.8546 53.2315 23.1119 53.22 23.37V26.6C53.2025 26.7664 53.2183 26.9346 53.2665 27.0948C53.3147 27.255 53.3944 27.404 53.5008 27.5331C53.6072 27.6622 53.7382 27.7688 53.8863 27.8467C54.0343 27.9246 54.1964 27.9723 54.3631 27.9869C54.5297 28.0015 54.6976 27.9828 54.857 27.9318C55.0163 27.8808 55.1639 27.7986 55.2912 27.69C55.4184 27.5814 55.5227 27.4485 55.5981 27.2991C55.6734 27.1498 55.7183 26.9869 55.73 26.82C55.74 26.747 55.74 26.673 55.73 26.6V23.42C55.7666 22.7998 55.6583 22.1795 55.4135 21.6085C55.1688 21.0374 54.7944 20.5312 54.32 20.13C53.21 19.13 52.14 18.13 51.05 17.07C50.8299 16.8394 50.5316 16.6993 50.2137 16.677C49.8957 16.6547 49.5808 16.7518 49.3306 16.9494C49.0805 17.147 48.9131 17.4309 48.8612 17.7454C48.8093 18.0599 48.8766 18.3825 49.05 18.65C49.1273 18.749 49.2182 18.8365 49.32 18.91C50.42 19.93 51.51 21 52.63 22Z" fill="#7721AD"/>
<path d="M55.74 113.6V113.49C55.7678 113.153 55.6614 112.82 55.4442 112.561C55.2269 112.303 54.9163 112.141 54.58 112.11H54.48C54.3158 112.107 54.1528 112.137 54.0001 112.197C53.8474 112.258 53.7081 112.348 53.5902 112.462C53.4723 112.576 53.378 112.712 53.3128 112.863C53.2475 113.014 53.2126 113.176 53.21 113.34C53.2051 113.39 53.2051 113.44 53.21 113.49V116.61C53.2261 116.878 53.1794 117.146 53.0735 117.392C52.9676 117.639 52.8054 117.857 52.6 118.03C51.48 119.03 50.39 120.09 49.29 121.12C49.026 121.317 48.848 121.607 48.7927 121.932C48.7375 122.256 48.8094 122.589 48.9934 122.862C49.1775 123.135 49.4595 123.327 49.7811 123.397C50.1026 123.467 50.4388 123.411 50.72 123.24C50.8226 123.171 50.9166 123.091 51 123C51.76 122.29 52.47 121.52 53.29 120.88C55.11 119.45 56.15 117.71 55.7 115.32L55.74 113.6Z" fill="#7721AD"/>
<path d="M13.88 85.69C14.59 84.95 15.28 84.19 15.99 83.45C17.86 81.45 17.09 81.81 19.85 81.78H21.52C21.6855 81.801 21.8534 81.7892 22.0144 81.7453C22.1753 81.7014 22.326 81.6262 22.4578 81.5241C22.5897 81.422 22.7001 81.2948 22.7829 81.15C22.8656 81.0052 22.919 80.8455 22.94 80.68C22.961 80.5145 22.9492 80.3466 22.9053 80.1856C22.8614 80.0247 22.7862 79.874 22.6841 79.7422C22.5819 79.6103 22.4548 79.4999 22.31 79.4171C22.1652 79.3344 22.0055 79.281 21.84 79.26C21.7336 79.25 21.6264 79.25 21.52 79.26H18.22C17.6567 79.2408 17.0961 79.3454 16.5778 79.5666C16.0594 79.7878 15.5959 80.1201 15.22 80.54L12.05 84C11.9237 84.1115 11.8206 84.2468 11.7467 84.3981C11.6727 84.5495 11.6294 84.714 11.6192 84.8822C11.609 85.0503 11.6321 85.2188 11.6871 85.3781C11.7422 85.5373 11.8281 85.6841 11.94 85.81L12 85.87C12.256 86.0966 12.5915 86.2123 12.9328 86.1916C13.274 86.171 13.5931 86.0158 13.82 85.76L13.88 85.69Z" fill="#7721AD"/>
<path d="M108.49 81.78H111.61C111.878 81.7662 112.145 81.814 112.391 81.9198C112.637 82.0255 112.856 82.1864 113.03 82.39C114.03 83.51 115.09 84.6 116.12 85.7C116.222 85.8355 116.35 85.9495 116.497 86.0354C116.643 86.1213 116.805 86.1775 116.973 86.2007C117.141 86.2239 117.312 86.2137 117.477 86.1707C117.641 86.1277 117.795 86.0527 117.93 85.95L118.02 85.87C118.265 85.6384 118.409 85.3194 118.42 84.9824C118.431 84.6453 118.309 84.3174 118.08 84.07L118 84L114.68 80.46C114.318 80.0712 113.878 79.7632 113.388 79.5564C112.899 79.3496 112.371 79.2486 111.84 79.26H108.5C108.334 79.2425 108.165 79.2583 108.005 79.3066C107.845 79.3548 107.696 79.4344 107.567 79.5408C107.438 79.6472 107.331 79.7783 107.253 79.9263C107.175 80.0743 107.128 80.2364 107.113 80.4031C107.098 80.5698 107.117 80.7377 107.168 80.897C107.219 81.0563 107.301 81.2039 107.41 81.3312C107.519 81.4584 107.651 81.5628 107.801 81.6381C107.95 81.7134 108.113 81.7583 108.28 81.77C108.353 81.78 108.427 81.78 108.5 81.77L108.49 81.78Z" fill="#7721AD"/>
<path d="M101.47 104.6L92.71 95.84C99.2178 88.8241 102.839 79.6112 102.85 70.0418C102.861 60.4723 99.2615 51.251 92.77 44.22L101.54 35.45C103.081 36.6264 104.916 37.3552 106.844 37.5562C108.772 37.7571 110.718 37.4225 112.468 36.589C114.218 35.7556 115.705 34.4556 116.764 32.8321C117.823 31.2086 118.414 29.3244 118.472 27.3868C118.53 25.4492 118.052 23.5332 117.091 21.8495C116.131 20.1658 114.724 18.7797 113.027 17.8435C111.329 16.9074 109.407 16.4575 107.47 16.5433C105.533 16.6291 103.658 17.2474 102.05 18.33C99.9518 19.7051 98.4403 21.8118 97.81 24.24C97.3575 25.8221 97.2866 27.489 97.6029 29.1039C97.9193 30.7187 98.614 32.2356 99.63 33.53L90.86 42.3C83.8332 35.7832 74.6036 32.1621 65.02 32.1621C55.4364 32.1621 46.2068 35.7832 39.18 42.3C36.18 39.36 33.32 36.44 30.39 33.53C32.0111 31.4017 32.7631 28.7371 32.4938 26.0753C32.2244 23.4135 30.9539 20.9535 28.9394 19.1931C26.9248 17.4327 24.3167 16.5034 21.6428 16.5933C18.969 16.6832 16.4291 17.7856 14.5374 19.6774C12.6456 21.5691 11.5432 24.109 11.4533 26.7828C11.3634 29.4566 12.2927 32.0648 14.0531 34.0793C15.8135 36.0939 18.2735 37.3644 20.9353 37.6338C23.5971 37.9031 26.2617 37.1511 28.39 35.53L37.18 44.31C30.7041 51.3394 27.115 60.551 27.128 70.1087C27.1409 79.6664 30.7551 88.8682 37.25 95.88L37.32 95.95L28.64 104.63C26.5206 102.99 23.8559 102.22 21.1886 102.477C18.5213 102.733 16.0522 103.997 14.2841 106.011C12.5161 108.024 11.5821 110.636 11.6726 113.314C11.7631 115.992 12.8711 118.535 14.771 120.424C16.6709 122.314 19.2197 123.408 21.8982 123.484C24.5767 123.56 27.1834 122.612 29.1873 120.833C31.1912 119.054 32.4415 116.578 32.6835 113.91C32.9256 111.241 32.1411 108.58 30.49 106.47L39.15 97.78L39.21 97.84C46.2477 104.335 55.4781 107.933 65.0546 107.914C74.6311 107.896 83.8475 104.262 90.86 97.74L99.6 106.5C97.9451 108.614 97.1586 111.28 97.4006 113.954C97.6426 116.628 98.8951 119.109 100.903 120.892C102.91 122.674 105.522 123.624 108.206 123.549C110.89 123.473 113.444 122.376 115.347 120.483C117.251 118.59 118.361 116.042 118.452 113.358C118.542 110.675 117.606 108.058 115.834 106.041C114.063 104.023 111.588 102.758 108.916 102.501C106.243 102.244 103.573 103.017 101.45 104.66L101.47 104.6ZM108 19.05C109.582 19.05 111.129 19.5192 112.445 20.3982C113.76 21.2773 114.786 22.5267 115.391 23.9885C115.997 25.4503 116.155 27.0589 115.846 28.6107C115.538 30.1626 114.776 31.588 113.657 32.7069C112.538 33.8257 111.113 34.5876 109.561 34.8963C108.009 35.205 106.4 35.0465 104.939 34.441C103.477 33.8355 102.227 32.8102 101.348 31.4946C100.469 30.179 100 28.6323 100 27.05V27C100.013 24.8869 100.862 22.8649 102.361 21.3754C103.86 19.886 105.887 19.05 108 19.05ZM22.09 35.05C20.5078 35.05 18.961 34.5808 17.6454 33.7018C16.3299 32.8227 15.3045 31.5733 14.699 30.1115C14.0935 28.6497 13.935 27.0411 14.2437 25.4893C14.5524 23.9374 15.3143 22.512 16.4332 21.3932C17.552 20.2743 18.9774 19.5124 20.5293 19.2037C22.0811 18.895 23.6897 19.0535 25.1515 19.659C26.6133 20.2645 27.8627 21.2898 28.7418 22.6054C29.6208 23.921 30.09 25.4678 30.09 27.05C30.09 29.1717 29.2472 31.2066 27.7469 32.7069C26.2466 34.2072 24.2117 35.05 22.09 35.05ZM22.17 120.91C20.5878 120.91 19.041 120.441 17.7255 119.562C16.4099 118.683 15.3845 117.433 14.779 115.971C14.1735 114.51 14.015 112.901 14.3237 111.349C14.6324 109.797 15.3943 108.372 16.5132 107.253C17.632 106.134 19.0574 105.372 20.6093 105.064C22.1611 104.755 23.7697 104.913 25.2315 105.519C26.6933 106.124 27.9427 107.15 28.8218 108.465C29.7008 109.781 30.17 111.328 30.17 112.91V113C30.1489 115.118 29.2885 117.142 27.7775 118.626C26.2665 120.111 24.2283 120.936 22.11 120.92L22.17 120.91ZM65 105.35C58.006 105.35 51.1691 103.276 45.354 99.3901C39.5389 95.5042 35.0067 89.9812 32.3307 83.5194C29.6547 77.0576 28.955 69.9474 30.3202 63.0879C31.6854 56.2285 35.0541 49.928 40.0003 44.9832C44.9464 40.0384 51.2479 36.6715 58.1077 35.3082C64.9676 33.945 72.0776 34.6466 78.5386 37.3245C84.9996 40.0023 90.5214 44.5361 94.4056 50.3523C98.2898 56.1686 100.362 63.006 100.36 70C100.357 79.3763 96.6308 88.3677 89.9998 94.9968C83.3688 101.626 74.3763 105.35 65 105.35ZM108 121C106.418 121.012 104.868 120.554 103.546 119.685C102.223 118.816 101.189 117.574 100.572 116.117C99.9559 114.66 99.7854 113.052 100.082 111.498C100.38 109.944 101.131 108.513 102.241 107.386C103.351 106.259 104.771 105.486 106.321 105.166C107.87 104.846 109.48 104.992 110.946 105.586C112.412 106.181 113.669 107.197 114.558 108.506C115.447 109.815 115.928 111.358 115.94 112.94C115.948 113.991 115.749 115.032 115.354 116.006C114.959 116.98 114.377 117.866 113.639 118.615C112.902 119.363 112.025 119.959 111.057 120.368C110.089 120.777 109.051 120.992 108 121Z" fill="#FFA555"/>
<path d="M88.21 79.63H84.31V71.34H88.37C88.7042 71.34 89.0247 71.2072 89.261 70.971C89.4973 70.7347 89.63 70.4142 89.63 70.08C89.63 69.7458 89.4973 69.4253 89.261 69.189C89.0247 68.9528 88.7042 68.82 88.37 68.82H84.37V60.55H88.37C88.6986 60.5778 89.0248 60.4746 89.2777 60.263C89.5305 60.0513 89.6895 59.7483 89.72 59.42V59.32C89.7364 58.989 89.6218 58.6649 89.4009 58.4178C89.1801 58.1707 88.8708 58.0206 88.54 58H84.32C83.32 54.23 80.96 52.48 77.12 52.56V48.66C77.12 47.75 76.62 47.17 75.85 47.18C75.6806 47.1839 75.5136 47.2211 75.3586 47.2896C75.2036 47.358 75.0635 47.4564 74.9465 47.5789C74.8295 47.7015 74.7378 47.846 74.6766 48.004C74.6155 48.162 74.586 48.3306 74.59 48.5C74.585 48.5432 74.585 48.5868 74.59 48.63V52C74.59 52.51 74.43 52.63 73.95 52.63H66.3V48.63C66.3 48.2958 66.1673 47.9753 65.931 47.739C65.6947 47.5027 65.3742 47.37 65.04 47.37C64.7058 47.37 64.3854 47.5027 64.1491 47.739C63.9128 47.9753 63.78 48.2958 63.78 48.63V52.63H55.45V48.5C55.4566 48.3345 55.4305 48.1694 55.3732 48.014C55.316 47.8586 55.2287 47.716 55.1163 47.5944C54.8894 47.3487 54.5742 47.2033 54.24 47.19C53.9058 47.1767 53.5801 47.2968 53.3344 47.5237C53.0887 47.7506 52.9433 48.0658 52.93 48.4C52.925 48.4666 52.925 48.5334 52.93 48.6V52.6H52.2C50.7274 52.5598 49.2876 53.0386 48.1323 53.9526C46.9769 54.8666 46.1797 56.1577 45.88 57.6C45.79 57.96 45.65 58.05 45.3 58.04H41.59C41.2585 58.04 40.9405 58.1717 40.7061 58.4061C40.4717 58.6405 40.34 58.9585 40.34 59.29C40.34 59.6215 40.4717 59.9395 40.7061 60.1739C40.9405 60.4083 41.2585 60.54 41.59 60.54H45.69V68.83H41.69C41.3558 68.7876 41.0185 68.8796 40.7522 69.0859C40.4859 69.2922 40.3124 69.5958 40.27 69.93C40.2276 70.2642 40.3196 70.6015 40.5259 70.8678C40.7322 71.1341 41.0358 71.3076 41.37 71.35H45.64V79.6H41.64C41.4758 79.5905 41.3113 79.6136 41.1561 79.6678C41.0008 79.722 40.8577 79.8064 40.7351 79.916C40.6125 80.0256 40.5127 80.1584 40.4414 80.3066C40.3702 80.4549 40.3289 80.6158 40.32 80.78V80.87C40.3213 81.0368 40.3555 81.2017 40.4205 81.3553C40.4855 81.5088 40.5802 81.6481 40.699 81.7651C40.8179 81.8821 40.9586 81.9746 41.1132 82.0372C41.2678 82.0998 41.4332 82.1313 41.6 82.13H45.73C46.73 85.91 49.13 87.64 52.93 87.56V91.56C52.9125 91.7264 52.9283 91.8946 52.9766 92.0548C53.0248 92.215 53.1044 92.364 53.2108 92.4931C53.3172 92.6222 53.4482 92.7288 53.5963 92.8067C53.7443 92.8846 53.9064 92.9323 54.0731 92.9469C54.2398 92.9615 54.4077 92.9428 54.567 92.8918C54.7263 92.8408 54.8739 92.7586 55.0012 92.65C55.1284 92.5414 55.2328 92.4085 55.3081 92.2591C55.3834 92.1098 55.4283 91.9469 55.44 91.78C55.45 91.707 55.45 91.633 55.44 91.56V87.56H63.72V91.56C63.699 91.7268 63.711 91.8961 63.7555 92.0582C63.7999 92.2203 63.8758 92.3721 63.9788 92.5049C64.0819 92.6377 64.2101 92.7489 64.3562 92.8321C64.5022 92.9153 64.6632 92.969 64.83 92.99C64.9968 93.011 65.1661 92.999 65.3282 92.9546C65.4903 92.9101 65.6421 92.8342 65.7749 92.7312C65.9077 92.6281 66.0189 92.4999 66.1021 92.3538C66.1853 92.2078 66.239 92.0468 66.26 91.88C66.27 91.7736 66.27 91.6664 66.26 91.56V87.56H74.52V91.48C74.52 92.48 75 92.97 75.81 92.97C75.9758 92.9727 76.1405 92.9423 76.2945 92.8806C76.4485 92.819 76.5887 92.7274 76.7069 92.611C76.8251 92.4947 76.9189 92.356 76.983 92.203C77.047 92.05 77.08 91.8858 77.08 91.72C77.085 91.6601 77.085 91.5999 77.08 91.54V87.54C80.92 87.61 83.33 85.86 84.28 82.11H88.28C88.6164 82.1497 88.9549 82.0556 89.2224 81.8479C89.4899 81.6403 89.6651 81.3357 89.71 81C89.715 80.9568 89.715 80.9132 89.71 80.87C89.6978 80.6883 89.6486 80.5109 89.5655 80.3488C89.4825 80.1867 89.3672 80.0433 89.2268 79.9272C89.0864 79.8112 88.9239 79.725 88.749 79.6739C88.5742 79.6228 88.3908 79.6078 88.21 79.63ZM77.67 85H52.24C51.3521 85.0469 50.4759 84.7801 49.7648 84.2463C49.0537 83.7125 48.5529 82.9457 48.35 82.08C48.2767 81.7113 48.2432 81.3358 48.25 80.96V59.14C48.2202 58.6442 48.2885 58.1474 48.4508 57.678C48.6131 57.2086 48.8664 56.7758 49.1961 56.4043C49.5257 56.0328 49.9254 55.73 50.3722 55.513C50.819 55.2961 51.3042 55.1693 51.8 55.14H77.62C78.1171 55.0946 78.6182 55.1476 79.0948 55.2959C79.5714 55.4442 80.0141 55.685 80.3976 56.0044C80.7812 56.3239 81.098 56.7158 81.33 57.1577C81.5621 57.5996 81.7048 58.0829 81.75 58.58C81.77 58.8062 81.77 59.0338 81.75 59.26V81C81.7742 81.5018 81.6992 82.0034 81.5293 82.4762C81.3594 82.9489 81.0979 83.3835 80.7597 83.755C80.4216 84.1266 80.0135 84.4278 79.5589 84.6414C79.1042 84.8551 78.6118 84.9769 78.11 85H77.67Z" fill="#6E6E6E"/>
<path d="M57.9 60.33V81H52.36V60.33H57.9Z" fill="#7721AD"/>
<path d="M66 76.21L64.88 81H59.14L65.14 60.34H72.53L78.67 81H72.67L71.35 76.22L66 76.21ZM70.57 72.13L69.57 68.42C69.26 67.26 68.86 65.54 68.57 64.35H68.51C68.21 65.54 67.9 67.26 67.62 68.42L66.74 72.13H70.57Z" fill="#7721AD"/>
</svg>
