<svg id="Capa_1" data-name="Capa 1" xmlns="http://www.w3.org/2000/svg" viewBox="0 0 22.11 22.11"><title>Artboard 1</title><path d="M11.2.22l0,0h-.24l0,0a.49.49,0,0,0-.23.47V2.42a.38.38,0,0,0,.37.37V2.66h0v.13h0a.38.38,0,0,0,.38-.36V.71A.53.53,0,0,0,11.2.22Z"/><path d="M14.4.47A.38.38,0,0,0,13.9.3l-.1.07-.05,0c-.24.23-.49.45-.72.68a.78.78,0,0,0-.26.55c0,.18,0,.35,0,.53s0,.18,0,.28a.35.35,0,0,0,.36.33h0a.38.38,0,0,0,.37-.36V1.78a.22.22,0,0,1,.08-.2l.53-.49L14.25,1A.38.38,0,0,0,14.4.47Z"/><path d="M8.37.43a.38.38,0,0,0-.53,0,.37.37,0,0,0,0,.49A.23.23,0,0,0,7.86,1l.24.23.41.38a.23.23,0,0,1,.08.18V2.4a.38.38,0,0,0,.33.41H9a.41.41,0,0,0,.24-.08.43.43,0,0,0,.13-.26s0-.05,0-.06V1.79A.92.92,0,0,0,9,1C8.79.84,8.58.64,8.37.43Z"/><path d="M11.42,19.69a.43.43,0,0,0,0-.19.39.39,0,0,0-.18-.22.41.41,0,0,0-.29,0,.4.4,0,0,0-.24.25,1.1,1.1,0,0,0,0,.18v1.64a.49.49,0,0,0,.23.48l.06,0h.18l.06,0a.5.5,0,0,0,.23-.47c0-.41,0-.82,0-1.24Z"/><path d="M14.31,21.11a.17.17,0,0,0-.06-.06,5.49,5.49,0,0,1-.44-.41l-.15-.13c-.15-.14-.15-.14-.15-.35v-.51a.4.4,0,0,0-.08-.28.43.43,0,0,0-.26-.13.35.35,0,0,0-.4.31v.75A.87.87,0,0,0,13,21l.69.64a.35.35,0,0,0,.25.14h0a.36.36,0,0,0,.24-.09.35.35,0,0,0,.14-.25A.37.37,0,0,0,14.31,21.11Z"/><path d="M9.34,19.67h0A.39.39,0,0,0,9,19.24H9a.38.38,0,0,0-.38.36v.67a.21.21,0,0,1-.07.18l-.46.42-.19.18a.38.38,0,0,0,.22.69.42.42,0,0,0,.21-.06l.07-.06.14-.14.3-.28A1.16,1.16,0,0,0,9.33,20Z"/><path d="M.72,11.4h1.7a.37.37,0,0,0,.36-.21.35.35,0,0,0-.09-.43.45.45,0,0,0-.3-.1H.73a.48.48,0,0,0-.48.22.1.1,0,0,0,0,.07v.17a.07.07,0,0,0,0,.06.49.49,0,0,0,.41.24Z"/><path d="M.45,8.3,1.11,9a.85.85,0,0,0,.64.29h.69a.36.36,0,0,0,.24-.09A.35.35,0,0,0,2.82,9a.37.37,0,0,0-.09-.28.39.39,0,0,0-.27-.13H1.79a.27.27,0,0,1-.17-.08C1.41,8.25,1.2,8,1,7.81a.35.35,0,0,0-.24-.14.36.36,0,0,0-.25,0l0,0a.38.38,0,0,0,0,.53Z"/><path d="M2.5,12.73H1.77a.94.94,0,0,0-.69.29l-.62.68A.37.37,0,0,0,.34,14a.33.33,0,0,0,.09.27l0,0a.4.4,0,0,0,.25.09.37.37,0,0,0,.3-.14L1.21,14l.21-.22.13-.14c.14-.16.14-.15.33-.15h.53a.39.39,0,0,0,.42-.33A.37.37,0,0,0,2.5,12.73Z"/><path d="M21.84,10.86a.49.49,0,0,0-.47-.22H19.72a.37.37,0,0,0-.18,0,.36.36,0,0,0-.25.46.4.4,0,0,0,.24.25l.18,0h1.71a.48.48,0,0,0,.42-.23.14.14,0,0,0,0-.06v-.17A.14.14,0,0,0,21.84,10.86Z"/><path d="M19.69,9.3h.69a.75.75,0,0,0,.54-.22c.25-.25.5-.51.76-.8A.38.38,0,0,0,21.76,8a.35.35,0,0,0-.14-.25.37.37,0,0,0-.18-.08h0a.39.39,0,0,0-.34.13c-.12.14-.25.27-.38.41l-.25.26a.21.21,0,0,1-.16.07H19.7a.39.39,0,0,0-.43.38.36.36,0,0,0,.1.25A.44.44,0,0,0,19.69,9.3Z"/><path d="M21,13a.85.85,0,0,0-.64-.28h-.66a.37.37,0,0,0-.41.33.36.36,0,0,0,.08.28.39.39,0,0,0,.22.13h.72a.22.22,0,0,1,.18.08l.42.45.19.19a.33.33,0,0,0,.25.15h.05a.35.35,0,0,0,.23-.09l0,0a.37.37,0,0,0,0-.54Z"/><path d="M21,17.7a2.32,2.32,0,0,0-2.68-.14l-1.43-1.43a7.89,7.89,0,0,0,0-10.22l1.42-1.42a2.34,2.34,0,0,0,1.55.33,2.34,2.34,0,0,0,2-2.63A2.3,2.3,0,0,0,21,.64,2.33,2.33,0,0,0,18.26.56a2.25,2.25,0,0,0-1,1.31,2.38,2.38,0,0,0,.28,1.89L16.17,5.18a7.88,7.88,0,0,0-10.24,0L5.05,4.3l-.54-.55A2.34,2.34,0,0,0,4.84,2.2,2.3,2.3,0,0,0,3.94.65,2.43,2.43,0,0,0,2.21.19,2.36,2.36,0,0,0,.66,1.1a2.34,2.34,0,0,0,3.1,3.4L5.19,5.93a7.79,7.79,0,0,0,0,10.22l-1.4,1.41a2.34,2.34,0,0,0-2.68,3.82,2.26,2.26,0,0,0,1.72.47,2.33,2.33,0,0,0,1.68-3.57l1.4-1.41a7.87,7.87,0,0,0,10.24,0l1.41,1.42a2.35,2.35,0,0,0,2,3.61l.29,0A2.34,2.34,0,0,0,21.4,21a2.29,2.29,0,0,0,.48-1.73A2.32,2.32,0,0,0,21,17.7Zm-18.45.49a1.34,1.34,0,0,1,.07,2.67H2.55a1.34,1.34,0,0,1,0-2.67Zm0-14.36A1.34,1.34,0,1,1,3.87,2.5,1.34,1.34,0,0,1,2.54,3.83Zm15.7-1.34a1.34,1.34,0,1,1,1.34,1.34,1.34,1.34,0,0,1-1.34-1.34h0ZM11.05,4.25A6.77,6.77,0,1,1,4.29,11,6.77,6.77,0,0,1,11.05,4.25ZM20.9,19.53a1.33,1.33,0,0,1-.38.95,1.31,1.31,0,0,1-1,.4,1.34,1.34,0,0,1-.93-.38,1.31,1.31,0,0,1-.4-.95,1.28,1.28,0,0,1,.38-.94,1.34,1.34,0,0,1,2.29.92Z"/><rect x="6.6" y="7.15" width="1.99" height="7.42"/><path d="M11.15,7.16,9,14.57h2.06l.42-1.72h1.9l.48,1.71H16l-2.2-7.41Zm.59,4.23.32-1.33c.1-.42.21-1,.32-1.46h0c.1.42.25,1,.36,1.46l.36,1.33Z"/></svg>