<svg width="23" height="22" viewBox="0 0 23 22" fill="none" xmlns="http://www.w3.org/2000/svg">
<path d="M3.04069 10.7427L3.0408 10.7426L3.03615 10.739C2.95505 10.677 2.85648 10.6422 2.75444 10.6394L2.75444 10.6393H2.75173H1.12858C1.04381 10.6293 0.957872 10.6431 0.880453 10.6793C0.800889 10.7165 0.733676 10.7757 0.686787 10.85L0.671347 10.8745V10.9034V11.0693V11.0979L0.686416 11.1221C0.732966 11.197 0.800267 11.2568 0.880141 11.2941C0.958494 11.3307 1.04563 11.3442 1.13132 11.3331C1.39111 11.3213 1.64687 11.3222 1.9001 11.3232C1.96947 11.3235 2.03865 11.3237 2.10767 11.3237H2.7899C2.85862 11.3267 2.92661 11.3085 2.98475 11.2717C3.04227 11.2352 3.08736 11.1822 3.11417 11.1197C3.14558 11.0586 3.15582 10.9886 3.1432 10.921C3.13027 10.8516 3.09412 10.7888 3.04069 10.7427Z" fill="black" stroke="black" stroke-width="0.2"/>
<path d="M19.4378 10.6496L19.4378 10.6498C19.4923 10.637 19.5481 10.631 19.604 10.6317M19.4378 10.6496L21.2115 10.7317M19.4378 10.6496L19.4324 10.6512C19.3635 10.6715 19.3028 10.7131 19.2591 10.77C19.2154 10.827 19.1909 10.8963 19.189 10.9681C19.1872 11.0399 19.2082 11.1104 19.249 11.1695C19.2897 11.2286 19.3482 11.2732 19.416 11.297L19.4159 11.297L19.4199 11.2982C19.4759 11.3154 19.5344 11.3233 19.593 11.3219H21.2052C21.29 11.3319 21.376 11.3181 21.4534 11.282C21.5329 11.2448 21.6001 11.1855 21.647 11.1112L21.6625 11.0868V11.0579V10.8919V10.8625L21.6466 10.8378C21.5992 10.7641 21.5317 10.7056 21.452 10.6693C21.3747 10.634 21.289 10.621 21.2048 10.6317M19.4378 10.6496L21.2115 10.7317M19.604 10.6317C19.6043 10.6317 19.6045 10.6317 19.6048 10.6317L19.6033 10.7317V10.6317H19.604ZM19.604 10.6317H21.2048M21.2048 10.6317C21.2023 10.632 21.1997 10.6324 21.1972 10.6327L21.2115 10.7317M21.2048 10.6317H21.2115V10.7317" fill="black" stroke="black" stroke-width="0.2"/>
<path d="M11.4985 19.2507L11.4981 19.2507C11.5107 19.3057 11.5167 19.362 11.5161 19.4184M11.4985 19.2507L11.5161 19.419C11.5161 19.4188 11.5161 19.4186 11.5161 19.4184M11.4985 19.2507L11.4958 19.2424C11.4737 19.1736 11.4303 19.1137 11.372 19.0711C11.3136 19.0286 11.2432 19.0056 11.171 19.0056C11.0987 19.0056 11.0284 19.0286 10.97 19.0711C10.9116 19.1137 10.8682 19.1736 10.8461 19.2424L10.8459 19.2424L10.8443 19.2488C10.8304 19.3045 10.8242 19.3619 10.8259 19.4193V21.021C10.8158 21.1058 10.8296 21.1918 10.8658 21.2692C10.903 21.3488 10.9622 21.4161 11.0365 21.463L11.061 21.4785H11.0899H11.2559H11.2848L11.3093 21.463C11.3836 21.4161 11.4428 21.3488 11.48 21.2692C11.5163 21.1915 11.5301 21.1053 11.5198 21.0202M11.4985 19.2507L11.5198 21.0202M11.5161 19.4184C11.5161 19.5527 11.5158 19.6868 11.5156 19.8209C11.5149 20.2212 11.5141 20.6206 11.5198 21.0202M11.5161 19.4184L11.5198 21.0202" fill="black" stroke="black" stroke-width="0.2"/>
<path d="M11.041 2.92882C11.0824 2.94508 11.1265 2.95305 11.1709 2.9523C11.2592 2.95391 11.3448 2.92138 11.4098 2.86143C11.4754 2.80093 11.5148 2.71725 11.5198 2.62816L11.5199 2.62816V2.62263V0.936449C11.53 0.851643 11.5162 0.76566 11.48 0.6882C11.4428 0.608595 11.3836 0.541335 11.3093 0.494408L11.2848 0.478949H11.2559H11.0899H11.0614L11.0371 0.494036C10.9622 0.540624 10.9025 0.607972 10.8651 0.687888C10.8288 0.76579 10.8152 0.852361 10.826 0.937571C10.8297 1.18816 10.8285 1.43878 10.8272 1.69027C10.8265 1.81746 10.8259 1.94488 10.8259 2.07263V2.61295C10.8259 2.61296 10.8259 2.61297 10.8259 2.61298C10.8259 2.65823 10.8349 2.70302 10.8525 2.74472C10.87 2.78643 10.8958 2.82421 10.9282 2.85582C10.9605 2.88744 10.9989 2.91226 11.041 2.92882Z" fill="black" stroke="black" stroke-width="0.2"/>
<path d="M20.2333 9.29173C20.4281 9.29398 20.616 9.21947 20.7564 9.08429L20.7564 9.08431L20.758 9.08266C21.008 8.83052 21.2522 8.57069 21.4885 8.30707L21.4886 8.30717L21.4919 8.30301C21.5199 8.26819 21.5407 8.22816 21.5531 8.18523C21.5656 8.1423 21.5693 8.09734 21.5642 8.05295C21.5591 8.00856 21.5453 7.96562 21.5234 7.92662C21.5018 7.88793 21.4727 7.85389 21.4379 7.82645C21.3905 7.78799 21.3335 7.76334 21.273 7.75524L21.273 7.75523L21.2716 7.75507C21.2142 7.74821 21.156 7.75535 21.102 7.77586C21.048 7.79637 20.9997 7.82964 20.9613 7.87284L20.9611 7.87303C20.8456 8.00363 20.7245 8.1314 20.6015 8.26113C20.5192 8.34798 20.436 8.4357 20.3531 8.52576L20.353 8.52569L20.3501 8.52919C20.329 8.55439 20.3023 8.57437 20.2722 8.5876C20.2421 8.60084 20.2094 8.60696 20.1766 8.60551L20.1766 8.60541H20.1722H19.5802C19.4739 8.60541 19.3767 8.63196 19.304 8.693C19.2292 8.75579 19.1922 8.84528 19.1909 8.94536C19.1896 9.04721 19.2272 9.1375 19.3014 9.20094C19.3735 9.26253 19.4704 9.29058 19.5752 9.29172L19.5752 9.29173H19.5763H20.2333ZM20.2333 9.29173C20.233 9.29173 20.2328 9.29172 20.2326 9.29172L20.2339 9.19173M20.2333 9.29173H20.2339V9.19173M20.2339 9.19173H19.5763M20.2339 9.19173C20.4026 9.19382 20.5654 9.12935 20.687 9.01226C20.9358 8.76138 21.1787 8.50278 21.414 8.24033C21.4337 8.21583 21.4483 8.18766 21.4571 8.15745C21.4658 8.12724 21.4685 8.0956 21.4649 8.06436C21.4613 8.03312 21.4515 8.0029 21.4362 7.97546C21.4208 7.94803 21.4002 7.92392 21.3754 7.90454C21.3422 7.87741 21.3022 7.86004 21.2597 7.85436C21.2184 7.84942 21.1764 7.85456 21.1375 7.86935C21.0985 7.88413 21.0637 7.90812 21.036 7.93927C20.9199 8.07057 20.7962 8.20116 20.6718 8.33232C20.5897 8.419 20.5073 8.50594 20.4267 8.59348L19.5763 9.19173M19.5763 9.19173C19.3989 9.1898 19.289 9.09717 19.2909 8.94664C19.2928 8.79611 19.3989 8.70541 19.5802 8.70541H20.1722L19.5763 9.19173Z" fill="black" stroke="black" stroke-width="0.2"/>
<path d="M2.82816 8.60761L2.82818 8.60737H2.82115H2.17517V8.60735L2.17314 8.60739C2.1386 8.60809 2.10433 8.60117 2.07276 8.58713C2.04118 8.57308 2.01307 8.55225 1.99043 8.52611L1.99046 8.52609L1.98869 8.52415C1.78455 8.30058 1.57859 8.08286 1.37332 7.86591C1.31791 7.79743 1.23797 7.75313 1.15039 7.74255C1.07352 7.73326 0.996188 7.75061 0.931019 7.79105H0.912642L0.884219 7.81634C0.850394 7.84643 0.822897 7.88295 0.803326 7.92377C0.783755 7.9646 0.772501 8.00891 0.770216 8.05412C0.767932 8.09934 0.774663 8.14456 0.790019 8.18714C0.805375 8.22973 0.829049 8.26884 0.859666 8.30219L0.859601 8.30225L0.862591 8.30524L0.878581 8.32125C1.09381 8.55394 1.3112 8.7869 1.53063 9.01617C1.60587 9.10171 1.69826 9.17047 1.80181 9.21795C1.90606 9.26576 2.01926 9.29091 2.13394 9.29175L2.13394 9.29175H2.13467H2.77394C2.81738 9.2956 2.86118 9.29111 2.90298 9.27852C2.94659 9.26539 2.98715 9.2437 3.02229 9.21471C3.05743 9.18573 3.08644 9.15003 3.10765 9.10971C3.12885 9.0694 3.14181 9.02526 3.14579 8.97988C3.14976 8.9345 3.14467 8.88879 3.1308 8.8454C3.11693 8.80201 3.09456 8.76181 3.065 8.72716C3.03544 8.6925 2.99927 8.66408 2.95861 8.64355C2.91795 8.62302 2.8736 8.61081 2.82816 8.60761Z" fill="black" stroke="black" stroke-width="0.2"/>
<path d="M13.839 20.3641L13.839 20.3641C13.9777 20.503 14.1264 20.6331 14.2712 20.7552C14.2939 20.7717 14.3146 20.7909 14.3326 20.8124L14.3338 20.8138L14.3338 20.8138C14.3919 20.8856 14.4191 20.9776 14.4095 21.0694C14.3999 21.1613 14.3542 21.2456 14.2824 21.3037C14.2107 21.3619 14.1188 21.3892 14.0269 21.3795C13.9376 21.3701 13.8556 21.3266 13.7977 21.2583C13.58 21.0572 13.3624 20.8525 13.1469 20.6499L13.1274 20.6315C13.0419 20.5527 12.9738 20.4569 12.9275 20.3502C12.8811 20.2435 12.8576 20.1282 12.8583 20.0118M13.839 20.3641L12.9583 20.0122M13.839 20.3641L13.8373 20.3625C13.7884 20.3158 13.7467 20.2773 13.7114 20.2449C13.7062 20.2401 13.7011 20.2354 13.6962 20.2309C13.6677 20.2048 13.6445 20.1835 13.6249 20.1647C13.578 20.1197 13.5631 20.099 13.5555 20.0812C13.5477 20.063 13.543 20.0375 13.5423 19.9715C13.542 19.9458 13.5422 19.9165 13.5425 19.881C13.5426 19.8719 13.5427 19.8623 13.5427 19.8523C13.5431 19.8042 13.5433 19.7473 13.5423 19.6795M13.839 20.3641L13.4423 19.6802M12.8583 20.0118C12.8583 20.0117 12.8583 20.0116 12.8583 20.0115L12.9583 20.0122M12.8583 20.0118V20.0122H12.9583M12.8583 20.0118V19.3736M12.9583 20.0122V19.3676M12.8583 19.3736C12.8586 19.3761 12.8589 19.3787 12.8593 19.3812L12.9583 19.3676M12.8583 19.3736C12.8562 19.3541 12.8564 19.3344 12.8588 19.315M12.8583 19.3736V19.3676H12.9583M12.9583 19.3676L12.8588 19.315M12.8588 19.315C12.8587 19.316 12.8586 19.3171 12.8586 19.3182L12.9583 19.3252L12.8593 19.3116C12.8591 19.3127 12.8589 19.3139 12.8588 19.315ZM12.8588 19.315C12.8623 19.2707 12.8744 19.2274 12.8945 19.1877C12.915 19.147 12.9434 19.1108 12.978 19.0812C13.0126 19.0516 13.0528 19.0293 13.0962 19.0154C13.1396 19.0015 13.1853 18.9964 13.2306 19.0004C13.276 19.0043 13.3202 19.0173 13.3605 19.0385C13.4008 19.0598 13.4364 19.0888 13.4654 19.124C13.4943 19.1591 13.516 19.1997 13.5291 19.2433C13.5417 19.2851 13.5462 19.329 13.5423 19.3724M12.8588 19.315L13.4423 19.3676M13.5423 19.3724V19.3676H13.4423M13.5423 19.3724C13.5422 19.3743 13.542 19.3762 13.5418 19.3781L13.4423 19.3676M13.5423 19.3724V19.6795M13.4423 19.3676V19.6802M13.5423 19.6795C13.5423 19.6793 13.5423 19.6791 13.5423 19.6788L13.4423 19.6802M13.5423 19.6795V19.6802H13.4423M14.2561 20.8767C14.2975 20.9279 14.3169 20.9935 14.3101 21.059C14.3032 21.1245 14.2706 21.1846 14.2194 21.226C14.1683 21.2675 14.1028 21.2869 14.0373 21.28C13.9719 21.2732 13.9118 21.2406 13.8704 21.1894L14.2561 20.8767ZM14.2561 20.8767C14.2426 20.8606 14.227 20.8464 14.2098 20.8343L14.2561 20.8767Z" fill="black" stroke="black" stroke-width="0.2"/>
<path d="M13.5403 2.62848L13.5404 2.62849V2.62445V1.99533H13.5405L13.5403 1.99021C13.5382 1.95057 13.5453 1.91099 13.561 1.87453C13.5767 1.83808 13.6005 1.80572 13.6307 1.77996L13.6307 1.77997L13.6317 1.77908C13.7982 1.63296 13.9607 1.47759 14.1212 1.32421C14.1712 1.27647 14.221 1.22892 14.2706 1.18191C14.3095 1.16024 14.3439 1.13118 14.3717 1.0963C14.403 1.05719 14.4253 1.0117 14.4371 0.963045C14.4489 0.914388 14.4499 0.863735 14.4401 0.814638C14.4303 0.765543 14.4098 0.71919 14.3802 0.678834C14.3506 0.638478 14.3124 0.605098 14.2685 0.581043C14.2246 0.556987 14.176 0.542839 14.126 0.539597C14.0761 0.536354 14.026 0.544095 13.9793 0.562276C13.9365 0.57898 13.8975 0.604123 13.8646 0.636165C13.8426 0.651321 13.823 0.669561 13.8063 0.690324C13.5708 0.906905 13.3393 1.12715 13.1084 1.34673C13.0353 1.41231 12.9759 1.49176 12.9336 1.58049C12.8911 1.66971 12.8669 1.76652 12.8623 1.86523L12.8623 1.86523L12.8623 1.86611C12.8558 2.03799 12.8579 2.21284 12.8601 2.38616C12.8611 2.47194 12.8622 2.55734 12.8622 2.64182H12.8617L12.8627 2.65172C12.8709 2.73478 12.91 2.81173 12.9723 2.86736C13.034 2.92257 13.1141 2.9528 13.1968 2.95219C13.2847 2.9539 13.3698 2.92123 13.4339 2.8611C13.4986 2.80053 13.5368 2.71698 13.5403 2.62848Z" fill="black" stroke="black" stroke-width="0.2"/>
<path d="M8.71881 1.79011L8.7188 1.79012L8.72002 1.79117C8.74628 1.81389 8.76706 1.84228 8.78079 1.8742C8.79453 1.90612 8.80086 1.94074 8.79931 1.97547L8.79921 1.97547V1.97993V2.59848C8.79538 2.64193 8.79985 2.68574 8.81242 2.72754C8.82554 2.77117 8.84721 2.81175 8.87616 2.84691C8.90512 2.88207 8.94079 2.91111 8.98109 2.93234C9.0214 2.95357 9.06552 2.96655 9.1109 2.97053C9.15627 2.97451 9.20198 2.96941 9.24536 2.95552C9.28875 2.94163 9.32892 2.91924 9.36356 2.88965C9.39819 2.86006 9.42658 2.82387 9.44708 2.78319C9.46711 2.74346 9.47921 2.70022 9.48274 2.65589C9.48514 2.63644 9.4853 2.61677 9.48322 2.59729V1.99244C9.49067 1.85827 9.46703 1.72417 9.41412 1.60062C9.36103 1.47664 9.27992 1.36668 9.17717 1.27938C8.96485 1.08794 8.76019 0.896513 8.55173 0.693664C8.49223 0.632011 8.41201 0.59454 8.32649 0.58854C8.24031 0.582492 8.15498 0.608847 8.0872 0.662432C8.01943 0.716015 7.97409 0.792964 7.96003 0.878212C7.94597 0.963459 7.9642 1.05089 8.01117 1.12341L8.01084 1.12362L8.01626 1.13056C8.0356 1.15536 8.05813 1.17748 8.08326 1.19635C8.16006 1.26767 8.23761 1.34121 8.31573 1.4153C8.44872 1.54141 8.58338 1.6691 8.71881 1.79011Z" fill="black" stroke="black" stroke-width="0.2"/>
<path d="M9.14292 19.0051C9.09842 19.0045 9.05422 19.0126 9.01284 19.029C8.97118 19.0455 8.93318 19.07 8.901 19.1012C8.86883 19.1324 8.84312 19.1696 8.82532 19.2107C8.80806 19.2506 8.79858 19.2935 8.79738 19.3369C8.79633 19.3498 8.7963 19.3628 8.79728 19.3757V19.9735H8.7971L8.79747 19.9795C8.79964 20.0157 8.79334 20.0518 8.77907 20.0851C8.76479 20.1183 8.74294 20.1478 8.71527 20.171L8.71525 20.171L8.71303 20.173C8.56259 20.3074 8.41425 20.4481 8.26739 20.5873C8.20358 20.6478 8.14005 20.7081 8.07676 20.7674C8.00792 20.8206 7.96153 20.8978 7.94691 20.9838C7.93195 21.0717 7.95141 21.162 8.00127 21.236C8.05113 21.31 8.12755 21.3619 8.21469 21.381C8.30183 21.4001 8.39296 21.3848 8.46915 21.3384L8.4692 21.3385L8.47275 21.3361C8.49801 21.3192 8.52125 21.2995 8.54203 21.2773C8.59095 21.2315 8.63715 21.1862 8.68237 21.1418C8.77855 21.0475 8.87029 20.9576 8.97427 20.8764L8.97452 20.8762C9.1577 20.7321 9.30779 20.5678 9.39965 20.3732C9.49099 20.1798 9.52191 19.9625 9.47765 19.7166L9.48512 19.395L9.48515 19.395V19.3927V19.3752C9.49139 19.2855 9.46258 19.1968 9.40468 19.1279C9.34581 19.0578 9.26165 19.0138 9.17051 19.0055L9.17055 19.0051H9.16147H9.14292ZM9.14292 19.0051C9.14321 19.0051 9.1435 19.0051 9.1438 19.0051L9.14218 19.1051M9.14292 19.0051H9.14218V19.1051M9.14218 19.1051H9.16147L8.89728 19.3714C8.89633 19.3618 8.89633 19.3521 8.89728 19.3425C8.89779 19.3108 8.90452 19.2795 8.9171 19.2505C8.92968 19.2214 8.94786 19.1951 8.9706 19.173C8.99334 19.151 9.0202 19.1336 9.04964 19.122C9.07908 19.1103 9.11053 19.1046 9.14218 19.1051Z" fill="black" stroke="black" stroke-width="0.2"/>
<path d="M1.79227 13.6436L1.79227 13.6436L1.79315 13.6427C1.83889 13.5937 1.87652 13.552 1.90815 13.5168C1.91207 13.5125 1.91587 13.5082 1.91958 13.5041C1.94616 13.4745 1.96756 13.4506 1.98644 13.4306C2.03036 13.384 2.0502 13.3699 2.06695 13.3628C2.08421 13.3554 2.10902 13.351 2.17479 13.3506C2.19916 13.3505 2.22672 13.3509 2.25982 13.3514C2.27035 13.3515 2.28145 13.3516 2.29317 13.3518C2.34101 13.3524 2.39758 13.3528 2.46496 13.3521H2.78066C2.82339 13.3567 2.86662 13.3532 2.90811 13.3419C2.95182 13.33 2.99274 13.3095 3.02855 13.2818C3.06436 13.254 3.09435 13.2195 3.11681 13.1801C3.13927 13.1408 3.15376 13.0974 3.15947 13.0524C3.16517 13.0075 3.16197 12.9618 3.15005 12.9181C3.13813 12.8744 3.11773 12.8335 3.08999 12.7976C3.06226 12.7618 3.02774 12.7318 2.98841 12.7093C2.94908 12.6868 2.9057 12.6723 2.86075 12.6666L2.86076 12.6666L2.85751 12.6662C2.83242 12.6639 2.80717 12.6637 2.78206 12.6658H2.15175C2.02909 12.6619 1.90704 12.6848 1.79415 12.733C1.6809 12.7814 1.57963 12.854 1.49746 12.9457L0.889847 13.6094C0.857572 13.6389 0.831142 13.6742 0.811961 13.7135C0.791938 13.7546 0.780207 13.7991 0.777439 13.8447C0.774671 13.8903 0.780921 13.936 0.795831 13.9791C0.81074 14.0223 0.834018 14.0621 0.864333 14.0962L0.864203 14.0963L0.868372 14.1005L0.879942 14.1121L0.87981 14.1122L0.884379 14.1163C0.953591 14.1776 1.0443 14.2089 1.13659 14.2033C1.22887 14.1977 1.31515 14.1557 1.37647 14.0865L1.37648 14.0865L1.37759 14.0852L1.38734 14.0739C1.4556 14.0026 1.52284 13.9305 1.58955 13.859L1.58978 13.8587C1.65735 13.7863 1.72437 13.7144 1.79227 13.6436Z" fill="black" stroke="black" stroke-width="0.2"/>
<path d="M19.2727 13.2303C19.2982 13.2602 19.3287 13.2855 19.3627 13.305L19.3157 13.352H19.557H20.1587V13.3521L20.1638 13.3519C20.2001 13.35 20.2364 13.3565 20.2698 13.3708C20.3032 13.3852 20.3328 13.4071 20.3565 13.4347L20.3565 13.4347L20.3579 13.4363C20.4922 13.5869 20.6327 13.7353 20.7719 13.8823C20.8324 13.9462 20.8926 14.0099 20.952 14.0733C20.979 14.1079 21.0124 14.1372 21.0503 14.1594C21.0899 14.1827 21.1337 14.1979 21.1791 14.2042C21.2246 14.2105 21.2709 14.2077 21.3153 14.1961C21.3597 14.1844 21.4013 14.1641 21.4379 14.1363L21.4381 14.1366L21.4438 14.1315L21.4612 14.116L21.4612 14.1161L21.4634 14.114C21.5298 14.0512 21.5688 13.9647 21.5718 13.8733C21.5749 13.782 21.5418 13.6931 21.4797 13.626L21.4801 13.6256L21.4722 13.6187L21.4604 13.6084L20.8239 12.9292C20.8238 12.9291 20.8238 12.9291 20.8237 12.929C20.7443 12.8437 20.6478 12.7762 20.5405 12.7308C20.4335 12.6855 20.3181 12.6634 20.202 12.6657H19.5637C19.5203 12.6618 19.4765 12.6663 19.4347 12.6789C19.3911 12.6921 19.3505 12.7138 19.3154 12.7427C19.2803 12.7717 19.2512 12.8074 19.23 12.8477C19.2088 12.888 19.1959 12.9322 19.1919 12.9776C19.1879 13.0229 19.193 13.0687 19.2069 13.112C19.2208 13.1554 19.2431 13.1956 19.2727 13.2303Z" fill="black" stroke="black" stroke-width="0.2"/>
<mask id="path-13-outside-1_141_112" maskUnits="userSpaceOnUse" x="-0.155869" y="-0.33945" width="22" height="22" fill="black">
<rect fill="white" x="-0.155869" y="-0.33945" width="22" height="22"/>
<path d="M18.2034 17.6559L16.5142 15.9654C17.7691 14.6115 18.4674 12.8335 18.4695 10.9868C18.4716 9.14007 17.7775 7.36052 16.5257 6.00366L18.2169 4.31121C18.514 4.53824 18.8679 4.67888 19.2396 4.71766C19.6114 4.75644 19.9867 4.69186 20.3242 4.53102C20.6617 4.37018 20.9483 4.11931 21.1525 3.806C21.3568 3.49269 21.4707 3.12908 21.4819 2.75515C21.493 2.38123 21.4009 2.01147 21.2156 1.68655C21.0304 1.36163 20.7592 1.09413 20.4319 0.913466C20.1045 0.732805 19.7338 0.645982 19.3603 0.662545C18.9869 0.679109 18.6253 0.798417 18.3152 1.00735C17.9106 1.27271 17.6191 1.67927 17.4976 2.14787C17.4103 2.4532 17.3967 2.77487 17.4577 3.08651C17.5187 3.39815 17.6526 3.69088 17.8486 3.94068L16.1574 5.63314C14.8024 4.37551 13.0227 3.67669 11.1746 3.67669C9.32663 3.67669 7.54686 4.37551 6.19187 5.63314C5.61337 5.06577 5.06187 4.50226 4.49688 3.94068C4.80948 3.52996 4.95448 3.01573 4.90255 2.50205C4.85061 1.98838 4.60562 1.51364 4.21715 1.17391C3.82867 0.834183 3.32574 0.654847 2.81014 0.672198C2.29454 0.689549 1.80478 0.902292 1.43999 1.26737C1.0752 1.63244 0.862619 2.12259 0.845282 2.63859C0.827944 3.15459 1.00714 3.65792 1.3466 4.0467C1.68606 4.43547 2.16044 4.68066 2.67371 4.73263C3.18698 4.78461 3.70082 4.63949 4.11121 4.32665L5.80621 6.02103C4.55745 7.37759 3.86535 9.15526 3.86785 10.9997C3.87035 12.8442 4.56727 14.62 5.8197 15.9731L5.8332 15.9866L4.15942 17.6617C3.75074 17.3453 3.23689 17.1967 2.72256 17.2462C2.20822 17.2957 1.73209 17.5396 1.39115 17.9282C1.05021 18.3167 0.870122 18.8208 0.887565 19.3376C0.905007 19.8544 1.11867 20.3451 1.48503 20.7098C1.85139 21.0744 2.34288 21.2856 2.85938 21.3003C3.37588 21.3149 3.87854 21.132 4.26496 20.7887C4.65137 20.4454 4.89247 19.9675 4.93914 19.4525C4.98582 18.9375 4.83455 18.4241 4.51616 18.0168L6.18608 16.3398L6.19765 16.3514C7.55475 17.6047 9.33466 18.2991 11.1813 18.2955C13.028 18.2919 14.8052 17.5907 16.1574 16.3321L17.8428 18.0226C17.5236 18.4306 17.372 18.945 17.4187 19.4611C17.4653 19.9771 17.7068 20.4559 18.094 20.7999C18.4811 21.144 18.9847 21.3273 19.5023 21.3127C20.0198 21.298 20.5123 21.0865 20.8794 20.7211C21.2464 20.3557 21.4605 19.864 21.478 19.3461C21.4954 18.8283 21.3149 18.3233 20.9733 17.934C20.6316 17.5447 20.1545 17.3004 19.6391 17.2509C19.1238 17.2014 18.6089 17.3504 18.1995 17.6675L18.2034 17.6559ZM19.4626 1.1463C19.7677 1.1463 20.0659 1.23684 20.3196 1.40648C20.5733 1.57612 20.771 1.81724 20.8878 2.09935C21.0045 2.38145 21.0351 2.69187 20.9756 2.99135C20.916 3.29083 20.7691 3.56592 20.5534 3.78183C20.3376 3.99774 20.0628 4.14478 19.7635 4.20435C19.4643 4.26392 19.1541 4.23335 18.8722 4.1165C18.5903 3.99964 18.3494 3.80176 18.1799 3.54788C18.0104 3.29399 17.9199 2.9955 17.9199 2.69016V2.68051C17.9224 2.27272 18.0861 1.88251 18.3751 1.59506C18.6642 1.30762 19.0551 1.14629 19.4626 1.1463V1.1463ZM2.89637 4.23401C2.59127 4.23401 2.29301 4.14347 2.03932 3.97383C1.78563 3.80419 1.58791 3.56307 1.47115 3.28096C1.35439 2.99886 1.32384 2.68844 1.38336 2.38896C1.44288 2.08948 1.58981 1.81439 1.80555 1.59848C2.0213 1.38257 2.29617 1.23553 2.59542 1.17596C2.89466 1.11639 3.20484 1.14696 3.48672 1.26382C3.76861 1.38067 4.00954 1.57855 4.17904 1.83243C4.34855 2.08632 4.43903 2.38481 4.43903 2.69016C4.43903 3.09961 4.2765 3.4923 3.9872 3.78183C3.69789 4.07136 3.30551 4.23401 2.89637 4.23401ZM2.9118 20.8035C2.60669 20.8035 2.30844 20.7129 2.05475 20.5433C1.80106 20.3737 1.60333 20.1325 1.48657 19.8504C1.36981 19.5683 1.33926 19.2579 1.39879 18.9584C1.45831 18.659 1.60523 18.3839 1.82098 18.168C2.03672 17.952 2.3116 17.805 2.61084 17.7454C2.91009 17.6859 3.22027 17.7164 3.50215 17.8333C3.78403 17.9501 4.02496 18.148 4.19447 18.4019C4.36398 18.6558 4.45445 18.9543 4.45445 19.2596V19.277C4.45038 19.6858 4.28447 20.0763 3.9931 20.3628C3.70173 20.6493 3.30871 20.8085 2.90023 20.8054L2.9118 20.8035ZM11.1708 17.8007C9.82213 17.8007 8.50376 17.4004 7.38241 16.6505C6.26107 15.9006 5.38712 14.8348 4.8711 13.5878C4.35508 12.3407 4.22016 10.9686 4.48341 9.64484C4.74666 8.32109 5.39626 7.1052 6.35004 6.15094C7.30382 5.19669 8.51895 4.54693 9.84174 4.28385C11.1645 4.02076 12.5356 4.15617 13.7815 4.67295C15.0274 5.18973 16.0921 6.06466 16.8411 7.18709C17.5901 8.30952 17.9897 9.62904 17.9893 10.9788C17.9888 12.7882 17.2702 14.5234 15.9915 15.8027C14.7129 17.082 12.9788 17.8007 11.1708 17.8007V17.8007ZM19.4626 20.8209C19.1575 20.8231 18.8585 20.7348 18.6036 20.5671C18.3486 20.3994 18.1491 20.1597 18.0303 19.8785C17.9114 19.5973 17.8785 19.2871 17.9358 18.9872C17.9931 18.6873 18.1379 18.4111 18.3521 18.1936C18.5662 17.9761 18.8399 17.827 19.1387 17.7651C19.4375 17.7033 19.7479 17.7316 20.0307 17.8463C20.3134 17.961 20.5558 18.1571 20.7272 18.4097C20.8986 18.6623 20.9913 18.9601 20.9936 19.2654C20.9952 19.4682 20.9568 19.6692 20.8807 19.8571C20.8045 20.045 20.6922 20.2161 20.55 20.3605C20.4078 20.5049 20.2386 20.6199 20.052 20.6989C19.8654 20.7779 19.6651 20.8193 19.4626 20.8209Z"/>
</mask>
<path d="M18.2034 17.6559L16.5142 15.9654C17.7691 14.6115 18.4674 12.8335 18.4695 10.9868C18.4716 9.14007 17.7775 7.36052 16.5257 6.00366L18.2169 4.31121C18.514 4.53824 18.8679 4.67888 19.2396 4.71766C19.6114 4.75644 19.9867 4.69186 20.3242 4.53102C20.6617 4.37018 20.9483 4.11931 21.1525 3.806C21.3568 3.49269 21.4707 3.12908 21.4819 2.75515C21.493 2.38123 21.4009 2.01147 21.2156 1.68655C21.0304 1.36163 20.7592 1.09413 20.4319 0.913466C20.1045 0.732805 19.7338 0.645982 19.3603 0.662545C18.9869 0.679109 18.6253 0.798417 18.3152 1.00735C17.9106 1.27271 17.6191 1.67927 17.4976 2.14787C17.4103 2.4532 17.3967 2.77487 17.4577 3.08651C17.5187 3.39815 17.6526 3.69088 17.8486 3.94068L16.1574 5.63314C14.8024 4.37551 13.0227 3.67669 11.1746 3.67669C9.32663 3.67669 7.54686 4.37551 6.19187 5.63314C5.61337 5.06577 5.06187 4.50226 4.49688 3.94068C4.80948 3.52996 4.95448 3.01573 4.90255 2.50205C4.85061 1.98838 4.60562 1.51364 4.21715 1.17391C3.82867 0.834183 3.32574 0.654847 2.81014 0.672198C2.29454 0.689549 1.80478 0.902292 1.43999 1.26737C1.0752 1.63244 0.862619 2.12259 0.845282 2.63859C0.827944 3.15459 1.00714 3.65792 1.3466 4.0467C1.68606 4.43547 2.16044 4.68066 2.67371 4.73263C3.18698 4.78461 3.70082 4.63949 4.11121 4.32665L5.80621 6.02103C4.55745 7.37759 3.86535 9.15526 3.86785 10.9997C3.87035 12.8442 4.56727 14.62 5.8197 15.9731L5.8332 15.9866L4.15942 17.6617C3.75074 17.3453 3.23689 17.1967 2.72256 17.2462C2.20822 17.2957 1.73209 17.5396 1.39115 17.9282C1.05021 18.3167 0.870122 18.8208 0.887565 19.3376C0.905007 19.8544 1.11867 20.3451 1.48503 20.7098C1.85139 21.0744 2.34288 21.2856 2.85938 21.3003C3.37588 21.3149 3.87854 21.132 4.26496 20.7887C4.65137 20.4454 4.89247 19.9675 4.93914 19.4525C4.98582 18.9375 4.83455 18.4241 4.51616 18.0168L6.18608 16.3398L6.19765 16.3514C7.55475 17.6047 9.33466 18.2991 11.1813 18.2955C13.028 18.2919 14.8052 17.5907 16.1574 16.3321L17.8428 18.0226C17.5236 18.4306 17.372 18.945 17.4187 19.4611C17.4653 19.9771 17.7068 20.4559 18.094 20.7999C18.4811 21.144 18.9847 21.3273 19.5023 21.3127C20.0198 21.298 20.5123 21.0865 20.8794 20.7211C21.2464 20.3557 21.4605 19.864 21.478 19.3461C21.4954 18.8283 21.3149 18.3233 20.9733 17.934C20.6316 17.5447 20.1545 17.3004 19.6391 17.2509C19.1238 17.2014 18.6089 17.3504 18.1995 17.6675L18.2034 17.6559ZM19.4626 1.1463C19.7677 1.1463 20.0659 1.23684 20.3196 1.40648C20.5733 1.57612 20.771 1.81724 20.8878 2.09935C21.0045 2.38145 21.0351 2.69187 20.9756 2.99135C20.916 3.29083 20.7691 3.56592 20.5534 3.78183C20.3376 3.99774 20.0628 4.14478 19.7635 4.20435C19.4643 4.26392 19.1541 4.23335 18.8722 4.1165C18.5903 3.99964 18.3494 3.80176 18.1799 3.54788C18.0104 3.29399 17.9199 2.9955 17.9199 2.69016V2.68051C17.9224 2.27272 18.0861 1.88251 18.3751 1.59506C18.6642 1.30762 19.0551 1.14629 19.4626 1.1463V1.1463ZM2.89637 4.23401C2.59127 4.23401 2.29301 4.14347 2.03932 3.97383C1.78563 3.80419 1.58791 3.56307 1.47115 3.28096C1.35439 2.99886 1.32384 2.68844 1.38336 2.38896C1.44288 2.08948 1.58981 1.81439 1.80555 1.59848C2.0213 1.38257 2.29617 1.23553 2.59542 1.17596C2.89466 1.11639 3.20484 1.14696 3.48672 1.26382C3.76861 1.38067 4.00954 1.57855 4.17904 1.83243C4.34855 2.08632 4.43903 2.38481 4.43903 2.69016C4.43903 3.09961 4.2765 3.4923 3.9872 3.78183C3.69789 4.07136 3.30551 4.23401 2.89637 4.23401ZM2.9118 20.8035C2.60669 20.8035 2.30844 20.7129 2.05475 20.5433C1.80106 20.3737 1.60333 20.1325 1.48657 19.8504C1.36981 19.5683 1.33926 19.2579 1.39879 18.9584C1.45831 18.659 1.60523 18.3839 1.82098 18.168C2.03672 17.952 2.3116 17.805 2.61084 17.7454C2.91009 17.6859 3.22027 17.7164 3.50215 17.8333C3.78403 17.9501 4.02496 18.148 4.19447 18.4019C4.36398 18.6558 4.45445 18.9543 4.45445 19.2596V19.277C4.45038 19.6858 4.28447 20.0763 3.9931 20.3628C3.70173 20.6493 3.30871 20.8085 2.90023 20.8054L2.9118 20.8035ZM11.1708 17.8007C9.82213 17.8007 8.50376 17.4004 7.38241 16.6505C6.26107 15.9006 5.38712 14.8348 4.8711 13.5878C4.35508 12.3407 4.22016 10.9686 4.48341 9.64484C4.74666 8.32109 5.39626 7.1052 6.35004 6.15094C7.30382 5.19669 8.51895 4.54693 9.84174 4.28385C11.1645 4.02076 12.5356 4.15617 13.7815 4.67295C15.0274 5.18973 16.0921 6.06466 16.8411 7.18709C17.5901 8.30952 17.9897 9.62904 17.9893 10.9788C17.9888 12.7882 17.2702 14.5234 15.9915 15.8027C14.7129 17.082 12.9788 17.8007 11.1708 17.8007V17.8007ZM19.4626 20.8209C19.1575 20.8231 18.8585 20.7348 18.6036 20.5671C18.3486 20.3994 18.1491 20.1597 18.0303 19.8785C17.9114 19.5973 17.8785 19.2871 17.9358 18.9872C17.9931 18.6873 18.1379 18.4111 18.3521 18.1936C18.5662 17.9761 18.8399 17.827 19.1387 17.7651C19.4375 17.7033 19.7479 17.7316 20.0307 17.8463C20.3134 17.961 20.5558 18.1571 20.7272 18.4097C20.8986 18.6623 20.9913 18.9601 20.9936 19.2654C20.9952 19.4682 20.9568 19.6692 20.8807 19.8571C20.8045 20.045 20.6922 20.2161 20.55 20.3605C20.4078 20.5049 20.2386 20.6199 20.052 20.6989C19.8654 20.7779 19.6651 20.8193 19.4626 20.8209Z" fill="black"/>
<path d="M18.2034 17.6559L16.5142 15.9654C17.7691 14.6115 18.4674 12.8335 18.4695 10.9868C18.4716 9.14007 17.7775 7.36052 16.5257 6.00366L18.2169 4.31121C18.514 4.53824 18.8679 4.67888 19.2396 4.71766C19.6114 4.75644 19.9867 4.69186 20.3242 4.53102C20.6617 4.37018 20.9483 4.11931 21.1525 3.806C21.3568 3.49269 21.4707 3.12908 21.4819 2.75515C21.493 2.38123 21.4009 2.01147 21.2156 1.68655C21.0304 1.36163 20.7592 1.09413 20.4319 0.913466C20.1045 0.732805 19.7338 0.645982 19.3603 0.662545C18.9869 0.679109 18.6253 0.798417 18.3152 1.00735C17.9106 1.27271 17.6191 1.67927 17.4976 2.14787C17.4103 2.4532 17.3967 2.77487 17.4577 3.08651C17.5187 3.39815 17.6526 3.69088 17.8486 3.94068L16.1574 5.63314C14.8024 4.37551 13.0227 3.67669 11.1746 3.67669C9.32663 3.67669 7.54686 4.37551 6.19187 5.63314C5.61337 5.06577 5.06187 4.50226 4.49688 3.94068C4.80948 3.52996 4.95448 3.01573 4.90255 2.50205C4.85061 1.98838 4.60562 1.51364 4.21715 1.17391C3.82867 0.834183 3.32574 0.654847 2.81014 0.672198C2.29454 0.689549 1.80478 0.902292 1.43999 1.26737C1.0752 1.63244 0.862619 2.12259 0.845282 2.63859C0.827944 3.15459 1.00714 3.65792 1.3466 4.0467C1.68606 4.43547 2.16044 4.68066 2.67371 4.73263C3.18698 4.78461 3.70082 4.63949 4.11121 4.32665L5.80621 6.02103C4.55745 7.37759 3.86535 9.15526 3.86785 10.9997C3.87035 12.8442 4.56727 14.62 5.8197 15.9731L5.8332 15.9866L4.15942 17.6617C3.75074 17.3453 3.23689 17.1967 2.72256 17.2462C2.20822 17.2957 1.73209 17.5396 1.39115 17.9282C1.05021 18.3167 0.870122 18.8208 0.887565 19.3376C0.905007 19.8544 1.11867 20.3451 1.48503 20.7098C1.85139 21.0744 2.34288 21.2856 2.85938 21.3003C3.37588 21.3149 3.87854 21.132 4.26496 20.7887C4.65137 20.4454 4.89247 19.9675 4.93914 19.4525C4.98582 18.9375 4.83455 18.4241 4.51616 18.0168L6.18608 16.3398L6.19765 16.3514C7.55475 17.6047 9.33466 18.2991 11.1813 18.2955C13.028 18.2919 14.8052 17.5907 16.1574 16.3321L17.8428 18.0226C17.5236 18.4306 17.372 18.945 17.4187 19.4611C17.4653 19.9771 17.7068 20.4559 18.094 20.7999C18.4811 21.144 18.9847 21.3273 19.5023 21.3127C20.0198 21.298 20.5123 21.0865 20.8794 20.7211C21.2464 20.3557 21.4605 19.864 21.478 19.3461C21.4954 18.8283 21.3149 18.3233 20.9733 17.934C20.6316 17.5447 20.1545 17.3004 19.6391 17.2509C19.1238 17.2014 18.6089 17.3504 18.1995 17.6675L18.2034 17.6559ZM19.4626 1.1463C19.7677 1.1463 20.0659 1.23684 20.3196 1.40648C20.5733 1.57612 20.771 1.81724 20.8878 2.09935C21.0045 2.38145 21.0351 2.69187 20.9756 2.99135C20.916 3.29083 20.7691 3.56592 20.5534 3.78183C20.3376 3.99774 20.0628 4.14478 19.7635 4.20435C19.4643 4.26392 19.1541 4.23335 18.8722 4.1165C18.5903 3.99964 18.3494 3.80176 18.1799 3.54788C18.0104 3.29399 17.9199 2.9955 17.9199 2.69016V2.68051C17.9224 2.27272 18.0861 1.88251 18.3751 1.59506C18.6642 1.30762 19.0551 1.14629 19.4626 1.1463V1.1463ZM2.89637 4.23401C2.59127 4.23401 2.29301 4.14347 2.03932 3.97383C1.78563 3.80419 1.58791 3.56307 1.47115 3.28096C1.35439 2.99886 1.32384 2.68844 1.38336 2.38896C1.44288 2.08948 1.58981 1.81439 1.80555 1.59848C2.0213 1.38257 2.29617 1.23553 2.59542 1.17596C2.89466 1.11639 3.20484 1.14696 3.48672 1.26382C3.76861 1.38067 4.00954 1.57855 4.17904 1.83243C4.34855 2.08632 4.43903 2.38481 4.43903 2.69016C4.43903 3.09961 4.2765 3.4923 3.9872 3.78183C3.69789 4.07136 3.30551 4.23401 2.89637 4.23401ZM2.9118 20.8035C2.60669 20.8035 2.30844 20.7129 2.05475 20.5433C1.80106 20.3737 1.60333 20.1325 1.48657 19.8504C1.36981 19.5683 1.33926 19.2579 1.39879 18.9584C1.45831 18.659 1.60523 18.3839 1.82098 18.168C2.03672 17.952 2.3116 17.805 2.61084 17.7454C2.91009 17.6859 3.22027 17.7164 3.50215 17.8333C3.78403 17.9501 4.02496 18.148 4.19447 18.4019C4.36398 18.6558 4.45445 18.9543 4.45445 19.2596V19.277C4.45038 19.6858 4.28447 20.0763 3.9931 20.3628C3.70173 20.6493 3.30871 20.8085 2.90023 20.8054L2.9118 20.8035ZM11.1708 17.8007C9.82213 17.8007 8.50376 17.4004 7.38241 16.6505C6.26107 15.9006 5.38712 14.8348 4.8711 13.5878C4.35508 12.3407 4.22016 10.9686 4.48341 9.64484C4.74666 8.32109 5.39626 7.1052 6.35004 6.15094C7.30382 5.19669 8.51895 4.54693 9.84174 4.28385C11.1645 4.02076 12.5356 4.15617 13.7815 4.67295C15.0274 5.18973 16.0921 6.06466 16.8411 7.18709C17.5901 8.30952 17.9897 9.62904 17.9893 10.9788C17.9888 12.7882 17.2702 14.5234 15.9915 15.8027C14.7129 17.082 12.9788 17.8007 11.1708 17.8007V17.8007ZM19.4626 20.8209C19.1575 20.8231 18.8585 20.7348 18.6036 20.5671C18.3486 20.3994 18.1491 20.1597 18.0303 19.8785C17.9114 19.5973 17.8785 19.2871 17.9358 18.9872C17.9931 18.6873 18.1379 18.4111 18.3521 18.1936C18.5662 17.9761 18.8399 17.827 19.1387 17.7651C19.4375 17.7033 19.7479 17.7316 20.0307 17.8463C20.3134 17.961 20.5558 18.1571 20.7272 18.4097C20.8986 18.6623 20.9913 18.9601 20.9936 19.2654C20.9952 19.4682 20.9568 19.6692 20.8807 19.8571C20.8045 20.045 20.6922 20.2161 20.55 20.3605C20.4078 20.5049 20.2386 20.6199 20.052 20.6989C19.8654 20.7779 19.6651 20.8193 19.4626 20.8209Z" stroke="black" stroke-width="0.4" mask="url(#path-13-outside-1_141_112)"/>
<path d="M9.06339 7.3331V13.8146H7.32758V7.3331H9.06339Z" fill="black"/>
<path d="M11.6014 12.3126L11.2504 13.8146H9.45195L11.3319 7.33626H13.6474L15.5712 13.8146H13.6912L13.2776 12.3157L11.6014 12.3126ZM13.0332 11.0332L12.7199 9.8699C12.6228 9.50616 12.4975 8.96682 12.4066 8.59367H12.3878C12.2938 8.96682 12.1967 9.50616 12.1089 9.8699L11.8332 11.0332H13.0332Z" fill="black"/>
</svg>
