<svg id="Capa_1" data-name="Capa 1" xmlns="http://www.w3.org/2000/svg" viewBox="0 0 130 140"><defs><style></style></defs><title>conectividad Ai-es</title><path class="cls-1" d="M18,71.27h3.55a1.23,1.23,0,0,0,1.2-.76,1.09,1.09,0,0,0-.25-1.34,2,2,0,0,0-1.16-.41H12.89a1.86,1.86,0,0,0-1.82.85v.86a1.84,1.84,0,0,0,1.82.85C14.63,71.24,16.34,71.27,18,71.27Z"/><path class="cls-1" d="M117.07,68.72h-8.34a3.05,3.05,0,0,0-.74.08,1.24,1.24,0,0,0-.06,2.36,2.32,2.32,0,0,0,.74.1h8.4a1.86,1.86,0,0,0,1.82-.85v-.86A1.85,1.85,0,0,0,117.07,68.72Z"/><path class="cls-1" d="M66.27,113.73a3.19,3.19,0,0,0-.08-.75,1.25,1.25,0,0,0-2.38,0,2.74,2.74,0,0,0-.08.75v8.34a1.86,1.86,0,0,0,.85,1.82h.86a1.86,1.86,0,0,0,.85-1.82C66.25,119.29,66.27,116.51,66.27,113.73Z"/><path class="cls-1" d="M63.73,23.85v2.8A1.24,1.24,0,0,0,65,27.89h0a1.26,1.26,0,0,0,1.29-1.19V17.93a1.86,1.86,0,0,0-.85-1.82h-.86a1.84,1.84,0,0,0-.85,1.82C63.76,19.9,63.73,21.88,63.73,23.85Z"/><path class="cls-1" d="M116.16,54.25c-1,1.13-2.11,2.25-3.16,3.39a1.63,1.63,0,0,1-1.32.58h-3.07c-.94,0-1.49.47-1.5,1.25s.56,1.26,1.48,1.27H112a3.33,3.33,0,0,0,2.35-.93c1.29-1.3,2.55-2.64,3.77-4a1.23,1.23,0,0,0-.2-1.74,1.2,1.2,0,0,0-.6-.26A1.34,1.34,0,0,0,116.16,54.25Z"/><path class="cls-1" d="M18.14,60.74h3.34a1.26,1.26,0,1,0,.22-2.51H18.35a1.74,1.74,0,0,1-1.35-.6c-1.06-1.16-2.13-2.29-3.2-3.42A1.24,1.24,0,0,0,12.06,54l-.06,0a1.25,1.25,0,0,0-.09,1.78l.09.09c1.12,1.21,2.25,2.42,3.39,3.61A3.69,3.69,0,0,0,18.14,60.74Z"/><path class="cls-1" d="M78.47,119c-2-1.91-1.65-1.13-1.69-3.91v-1.62a1.26,1.26,0,1,0-2.51-.22.81.81,0,0,0,0,.22v3.34a3.81,3.81,0,0,0,1.23,2.83c1.16,1.09,2.33,2.19,3.5,3.27a1.27,1.27,0,0,0,2-1.62,1.26,1.26,0,0,0-.24-.22C80,120.43,79.21,119.74,78.47,119Z"/><path class="cls-1" d="M75.51,27.89a1.23,1.23,0,0,0,1.26-1.18V23.45a1.86,1.86,0,0,1,.65-1.51c1.14-1,2.24-2.08,3.35-3.13a1.26,1.26,0,1,0-1.47-2,.92.92,0,0,0-.25.23c-1.23,1.13-2.44,2.28-3.65,3.43a3.33,3.33,0,0,0-1.11,2.33c-.05,1.32,0,2.65,0,4A1.21,1.21,0,0,0,75.51,27.89Z"/><path class="cls-1" d="M52.63,22a1.71,1.71,0,0,1,.59,1.37V26.6a1.26,1.26,0,1,0,2.51.22.81.81,0,0,0,0-.22V23.42a4,4,0,0,0-1.41-3.29c-1.11-1-2.18-2-3.27-3.06a1.28,1.28,0,0,0-2,1.58,1.33,1.33,0,0,0,.27.26C50.42,19.93,51.51,21,52.63,22Z"/><path class="cls-1" d="M55.74,113.6v-.11a1.28,1.28,0,0,0-1.16-1.38h-.1a1.25,1.25,0,0,0-1.27,1.23.76.76,0,0,0,0,.15v3.12a1.72,1.72,0,0,1-.61,1.42c-1.12,1-2.21,2.06-3.31,3.09a1.28,1.28,0,0,0,1.43,2.12A1.55,1.55,0,0,0,51,123c.76-.71,1.47-1.48,2.29-2.12,1.82-1.43,2.86-3.17,2.41-5.56Z"/><path class="cls-1" d="M13.88,85.69c.71-.74,1.4-1.5,2.11-2.24,1.87-2,1.1-1.64,3.86-1.67h1.67a1.27,1.27,0,1,0,.32-2.52,1.71,1.71,0,0,0-.32,0h-3.3a3.85,3.85,0,0,0-3,1.28L12.05,84a1.28,1.28,0,0,0-.11,1.81l.06.06a1.29,1.29,0,0,0,1.82-.11Z"/><path class="cls-1" d="M108.49,81.78h3.12a1.75,1.75,0,0,1,1.42.61c1,1.12,2.06,2.21,3.09,3.31a1.29,1.29,0,0,0,1.81.25l.09-.08a1.28,1.28,0,0,0,.06-1.8L118,84l-3.32-3.54a3.77,3.77,0,0,0-2.84-1.2H108.5a1.26,1.26,0,1,0-.22,2.51.81.81,0,0,0,.22,0Z"/><path class="cls-2" d="M101.47,104.6l-8.76-8.76a38,38,0,0,0,.06-51.62l8.77-8.77a10.54,10.54,0,1,0,.51-17.12,10.1,10.1,0,0,0-4.24,5.91,10.41,10.41,0,0,0,1.82,9.29L90.86,42.3a38,38,0,0,0-51.68,0c-3-2.94-5.86-5.86-8.79-8.77a10.55,10.55,0,1,0-2,2l8.79,8.78a38,38,0,0,0,.07,51.57l.07.07-8.68,8.68a10.53,10.53,0,1,0,1.85,1.84l8.66-8.69.06.06a38,38,0,0,0,51.65-.1l8.74,8.76a10.55,10.55,0,1,0,1.85-1.84ZM108,19.05a8,8,0,1,1-8,8V27A8,8,0,0,1,108,19.05Zm-85.91,16a8,8,0,1,1,8-8,8,8,0,0,1-8,8h0Zm.08,85.86a8,8,0,1,1,8-8V113a8,8,0,0,1-8.06,7.92ZM65,105.35A35.36,35.36,0,1,1,100.36,70,35.36,35.36,0,0,1,65,105.35h0ZM108,121a8,8,0,1,1,7.94-8.06A8,8,0,0,1,108,121Z"/><path class="cls-3" d="M88.21,79.63h-3.9V71.34h4.06a1.26,1.26,0,0,0,0-2.52h-4V60.55h4a1.25,1.25,0,0,0,1.35-1.13v-.1A1.26,1.26,0,0,0,88.54,58H84.32c-1-3.77-3.36-5.52-7.2-5.44v-3.9c0-.91-.5-1.49-1.27-1.48a1.29,1.29,0,0,0-1.26,1.32.57.57,0,0,0,0,.13V52c0,.51-.16.63-.64.63H66.3v-4a1.26,1.26,0,1,0-2.52,0v4H55.45V48.5a1.26,1.26,0,1,0-2.52-.1,1.34,1.34,0,0,0,0,.2v4H52.2a6.28,6.28,0,0,0-6.32,5c-.09.36-.23.45-.58.44H41.59a1.25,1.25,0,0,0,0,2.5h4.1v8.29h-4a1.27,1.27,0,0,0-.32,2.52h4.27v8.25h-4a1.25,1.25,0,0,0-1.32,1.18v.09a1.27,1.27,0,0,0,1.28,1.26h4.13c1,3.78,3.4,5.51,7.2,5.43v4a1.26,1.26,0,1,0,2.51.22.81.81,0,0,0,0-.22v-4h8.28v4a1.28,1.28,0,1,0,2.54.32,1.71,1.71,0,0,0,0-.32v-4h8.26v3.92c0,1,.48,1.49,1.29,1.49a1.25,1.25,0,0,0,1.27-1.25,1.09,1.09,0,0,0,0-.18v-4c3.84.07,6.25-1.68,7.2-5.43h4A1.29,1.29,0,0,0,89.71,81a.57.57,0,0,0,0-.13A1.34,1.34,0,0,0,88.21,79.63ZM77.67,85H52.24a3.79,3.79,0,0,1-3.89-2.92,5.25,5.25,0,0,1-.1-1.12V59.14a3.78,3.78,0,0,1,3.55-4H77.62a3.8,3.8,0,0,1,4.13,3.44,3.86,3.86,0,0,1,0,.68V81a3.82,3.82,0,0,1-3.64,4Z"/><path class="cls-1" d="M78.47,60.33V81H72.92V60.33Z"/><path class="cls-1" d="M58.82,76.21,57.65,81H51.92l6-20.66h7.39L71.45,81h-6l-1.32-4.78Zm4.57-4.08-1-3.71c-.31-1.16-.71-2.88-1-4.07h-.06c-.3,1.19-.61,2.91-.89,4.07l-.89,3.71Z"/></svg>