<svg width="122" height="131" viewBox="0 0 122 131" fill="none" xmlns="http://www.w3.org/2000/svg">
<path d="M64.2846 35.2764H61.6569C59.9677 35.2764 58.9354 34.5279 58.9354 33.1243C58.9354 31.7207 59.9677 31.1593 61.6569 31.1593C68.1323 31.1593 66.5369 31.1593 73.1061 31.1593C73.9508 31.3464 74.7954 30.8786 75.3584 30.0364C77.3292 27.0422 79.4877 24.1414 81.4584 21.1472C81.9277 20.5857 82.0215 19.8372 81.6461 19.2757C80.3323 16.8429 80.8954 14.0357 82.8661 12.1643C84.8369 10.48 87.6523 10.1993 89.9046 11.6029C92.1569 13.0064 93.1892 15.72 92.4384 18.2464C91.6877 20.96 89.1538 22.6443 86.5261 22.4572C85.7754 22.4572 85.1184 22.7379 84.6492 23.4864C82.2092 27.0422 79.8631 30.4107 77.6107 33.7793C77.0477 34.8086 75.9215 35.37 74.7954 35.1829C71.2292 35.2764 67.8507 35.2764 64.2846 35.2764ZM88.6846 16.7493C88.6846 15.72 87.84 14.8779 86.8077 14.8779H86.62C85.5877 14.8779 84.9307 15.72 84.9307 16.5622V16.7493C84.9307 17.7786 85.7754 18.6207 86.8077 18.6207C87.84 18.5272 88.6846 17.685 88.6846 16.7493Z" fill="url(#paint0_linear_209_995)"/>
<path d="M88.4031 24.1414C82.3031 24.1414 77.3292 19.1821 77.3292 13.1C77.3292 7.01785 82.3031 2.05856 88.4031 2.05856C94.5031 2.05856 99.4769 7.01785 99.4769 13.1C99.3831 19.1821 94.5031 24.1414 88.4031 24.1414Z" fill="url(#paint1_linear_209_995)"/>
<path d="M97.9754 59.1371C95.2538 59.1371 93.0015 61.0086 92.3446 63.3479H60.7184V67.1843H92.5323C93.3769 69.43 95.5354 71.0207 98.0692 71.0207C101.354 71.0207 103.982 68.3071 103.982 65.1257C103.982 61.9443 101.26 59.1371 97.9754 59.1371Z" fill="url(#paint2_linear_209_995)"/>
<path d="M14.0769 65.2193C11.5431 62.9736 9.66615 59.8857 9.00923 56.4236C7.03846 47.815 12.1062 39.0193 20.6462 36.4929C21.6785 36.3057 22.3354 35.37 22.2415 34.3407C22.4292 27.6036 27.7785 22.0829 34.5354 21.5214C35.2862 21.5214 35.9431 21.2407 36.2246 20.4921C39.04 14.9714 45.4215 12.1643 51.4277 13.755C57.5277 15.3457 61.7508 20.7729 61.6569 27.0421C61.6569 38.1771 61.6569 38.0836 61.6569 60.26V66.9971V68.6814C61.6569 80.0036 61.6569 91.3257 61.6569 102.461C61.9385 108.824 57.7154 114.344 51.6154 116.029C45.7031 117.619 39.6031 114.999 36.4123 109.666C36.1308 108.824 35.38 108.356 34.5354 108.262C27.4969 107.794 21.96 102.086 21.96 94.975C21.96 94.2264 21.96 93.8521 21.1154 93.5714C12.1062 91.4193 6.85077 82.1557 9.29077 73.0793C10.1354 69.9914 11.8246 67.2779 14.0769 65.2193Z" fill="url(#paint3_linear_209_995)"/>
<path d="M38.1016 42.8557C38.1016 41.8264 37.2569 41.1714 36.2246 41.1714C35.1923 41.1714 34.3477 42.0136 34.3477 43.0428V43.23C34.3477 44.2593 35.1923 45.1014 36.037 45.1014C37.0693 45.1014 37.9139 44.2593 37.9139 43.23C38.1016 43.0428 38.1016 43.0428 38.1016 42.8557Z" fill="white"/>
<path d="M48.9877 30.3171C48.9877 29.2879 48.1431 28.4457 47.1107 28.4457C47.1107 28.4457 47.1107 28.4457 46.9231 28.4457C45.8907 28.4457 45.2338 29.1943 45.2338 30.13V30.3171C45.2338 31.3464 45.9846 32.0014 46.8292 32.1886H47.0169C47.9554 32.095 48.8 31.44 48.9877 30.3171C48.9877 30.4107 48.9877 30.3171 48.9877 30.3171Z" fill="white"/>
<path d="M38.1016 87.3957C38.1016 86.3664 37.2569 85.7114 36.2246 85.7114C35.1923 85.7114 34.3477 86.5536 34.3477 87.5829C34.3477 88.6121 35.1923 89.4543 36.2246 89.4543C37.2569 89.4543 38.1016 88.6121 38.1016 87.5829C38.1016 87.3957 38.1016 87.3957 38.1016 87.3957Z" fill="white"/>
<path d="M48.9877 100.028C48.9877 98.9986 48.143 98.3436 47.2984 98.3436C46.2661 98.3436 45.4215 99.0921 45.4215 100.215C45.4215 101.244 46.1723 101.899 47.0169 102.086C48.0492 102.274 48.9877 101.338 48.9877 100.402C48.9877 100.215 48.9877 100.215 48.9877 100.028Z" fill="white"/>
<path d="M72.5431 50.3414C76.7661 50.3414 81.0831 50.3414 85.3061 50.3414C86.3384 50.5286 87.2769 50.0607 87.84 49.2186C88.3092 48.6571 88.6846 48.1893 89.2477 47.6279C90.5615 46.3179 91.6877 45.3821 91.1246 42.9493C90.28 39.5807 93.3769 36.4929 96.7554 36.4929C100.04 36.4929 102.668 39.2064 102.668 42.3879C102.668 42.575 102.668 42.6686 102.668 42.6686C102.48 45.9436 99.8523 48.2829 96.5677 48.1893C96.2861 48.1893 96.0984 48.1893 95.8169 48.1893C94.7846 47.9086 93.8461 48.3764 93.2831 49.0314C91.9692 50.435 90.7492 51.8386 89.3415 53.1486C88.5908 53.71 87.7461 54.1779 86.9015 54.2714C77.7984 54.2714 72.3554 54.2714 63.2523 54.2714C61.5631 54.2714 60.7184 53.5229 60.7184 52.3064C60.7184 50.9964 61.5631 50.3414 63.2523 50.3414C67.5692 50.3414 68.2261 50.3414 72.5431 50.3414ZM98.6323 42.2943C98.6323 41.265 97.7877 40.61 96.9431 40.61C95.9108 40.61 95.0661 41.3586 95.0661 42.2943V42.4814C95.0661 43.5107 95.8169 44.3529 96.7554 44.3529C96.7554 44.3529 96.7554 44.3529 96.9431 44.3529C97.9754 44.3529 98.82 43.6043 98.82 42.4814C98.6323 42.4814 98.6323 42.2943 98.6323 42.2943Z" fill="url(#paint4_linear_209_995)"/>
<path d="M73.3877 75.8864C77.7985 75.8864 82.3031 75.8864 86.7138 75.8864C87.84 75.6993 88.9661 76.3543 89.7169 77.1964C90.5615 78.2257 91.5938 79.0679 92.4385 80.0036C93.5646 81.5943 95.2538 82.4364 97.1308 82.53C100.228 82.8107 102.48 85.5243 102.198 88.6121C102.198 88.8929 102.011 89.3607 102.011 89.6414C101.166 92.9164 97.8815 94.6943 94.6908 94.0393C94.5031 94.0393 94.5031 94.0393 94.4092 93.8521C91.3123 92.8229 89.6231 89.6414 90.4677 86.6471C90.4677 86.46 90.6554 86.1793 90.6554 86.0857C91.1246 84.9629 90.8431 84.4014 90.1861 83.5593C88.0277 80.565 85.2123 79.7229 81.5523 79.91C74.5138 80.1907 71.1354 80.0971 64.0031 80.0971C63.5338 80.0971 63.1585 80.0971 62.6892 80.0971C61.5631 80.0971 60.7185 79.255 60.5308 78.2257V78.0386C60.5308 76.9157 61.3754 76.0736 62.7831 76.0736C67.4754 76.0736 68.4138 76.0736 73.1061 76.0736L73.3877 75.8864ZM94.5031 88.3314C94.5031 89.3607 95.3477 90.2029 96.38 90.2029C97.4123 90.2029 98.2569 89.1736 98.0692 88.2379C98.0692 87.3957 97.3184 86.5536 96.38 86.5536C95.3477 86.3664 94.5031 87.2086 94.5031 88.3314C94.5031 88.2379 94.5031 88.3314 94.5031 88.3314Z" fill="url(#paint5_linear_209_995)"/>
<path d="M82.0215 109.385C79.5815 106.016 77.3292 102.648 74.9831 99.1857C74.5138 98.7179 73.9508 98.6243 73.2938 98.6243C67.1 98.6243 71.5108 98.6243 65.3169 98.6243C64.8477 98.6243 62.8769 98.6243 62.5015 98.6243C61.4692 98.6243 60.6246 97.7821 60.5308 96.7529V96.5657C60.5308 95.5364 61.2815 94.6007 62.4077 94.6007H63.8154C64.0969 94.6007 64.5661 94.6007 64.8477 94.6007C71.6046 94.6007 67.7569 94.6007 74.6077 94.6007C75.9215 94.4136 77.1415 95.1621 77.8923 96.285C80.3323 99.8407 82.6785 103.209 85.1185 106.765C85.4 107.233 85.9631 107.607 86.5261 107.794C89.3415 107.981 91.7815 110.04 92.1569 112.847C92.72 116.122 90.4677 119.21 87.1831 119.584C83.8985 120.146 80.8015 117.9 80.4261 114.625C80.1446 113.034 80.6138 111.537 81.4585 110.227C81.5523 109.946 81.74 109.666 82.0215 109.385ZM88.1215 113.596C88.1215 112.566 87.3708 111.724 86.4323 111.724H86.2446C85.2123 111.724 84.3677 112.566 84.3677 113.596C84.3677 114.625 85.2123 115.467 86.2446 115.467C87.2769 115.467 88.1215 114.719 88.1215 113.596Z" fill="url(#paint6_linear_209_995)"/>
<path d="M39.5092 63.3478C38.4769 63.1607 37.5385 63.9093 37.5385 65.0321V65.2193C37.5385 66.2486 38.2892 67.0907 39.2277 67.0907H39.4154C40.4477 67.0907 41.2923 66.3421 41.2923 65.4064C41.2923 65.4064 41.2923 65.4064 41.2923 65.2193C41.1985 64.19 40.4477 63.3478 39.5092 63.3478Z" fill="white"/>
<path d="M57.4338 67.2779C57.34 67.2779 57.34 67.2779 57.4338 67.2779V62.88H57.6215V49.78C57.6215 42.1071 57.6215 34.3407 57.6215 26.7614C57.6215 21.7086 53.3985 17.5914 48.1431 17.5914C44.8585 17.5914 41.7615 19.4629 40.1661 22.27C42.6061 23.1121 44.2954 25.6386 47.3923 24.4221C47.58 24.235 47.8615 24.4221 48.1431 24.4221C51.4277 24.89 53.68 27.9779 53.1169 31.1593C52.6477 34.4343 49.5508 36.68 46.36 36.1186C43.0754 35.6507 40.8231 32.5629 41.3861 29.3814C41.3861 29.1943 41.3861 28.9136 41.5738 28.82C41.8554 28.0714 41.5738 27.2293 40.8231 26.9486C40.8231 26.9486 40.8231 26.9486 40.6354 26.9486C36.2246 24.235 30.4062 25.545 27.7785 29.9429C27.2154 30.785 26.9338 31.6271 26.6523 32.6564C26.4646 33.6857 26.3708 34.5279 26.3708 35.4636C28.5292 36.2121 30.3123 36.7736 32.0015 37.4286C32.7523 37.8964 33.5969 37.8964 34.2538 37.6157C36.5061 36.5864 39.2277 37.335 40.7292 39.3C42.3246 41.1714 42.6062 43.7914 41.48 45.9436C40.3538 48.1893 37.9138 49.3121 35.38 49.0314C31.8138 48.5636 30.0308 45.6629 30.4062 41.3586C28.5292 40.2357 26.4646 39.6743 24.3061 39.7679C19.2385 40.2357 14.8277 43.6979 13.1385 48.5636C11.5431 53.3357 12.8569 58.5757 16.4231 62.225C16.8923 62.6929 17.5492 63.3479 17.5492 63.3479H33.5969C34.3477 60.915 36.6 59.1371 39.2277 59.1371C42.5123 59.1371 45.14 61.8507 45.14 65.0321C45.14 68.2136 42.4185 70.9271 39.2277 70.9271C36.6938 70.9271 34.5354 69.3364 33.6908 67.0907H17.6431C17.6431 67.0907 11.8246 72.705 12.8569 79.8164C13.8892 86.7407 21.7723 92.9164 29.4677 89.5479C30.2185 89.2671 30.5938 88.9864 30.5 88.1443C30.2185 85.4307 31.9077 82.8107 34.6292 81.9686C37.7262 80.9393 41.1046 82.7171 42.1369 85.805C43.1692 88.8929 41.3861 92.2614 38.2892 93.2907C36.6938 93.7586 35.1923 93.7586 33.7846 92.8229C33.3154 92.6357 32.94 92.5421 32.6585 92.6357C30.6877 93.3843 28.7169 94.0393 26.5585 94.7879C26.2769 98.3436 27.9661 101.712 31.0631 103.396C34.16 105.268 38.2892 105.081 41.2923 102.929C41.48 102.648 41.5738 102.18 41.5738 101.806C41.5738 100.683 41.5738 99.56 41.7615 98.4371C42.6061 95.3493 45.8908 93.665 48.9877 94.5071C52.0846 95.63 53.4923 99.1857 52.3661 102.18C51.3338 104.706 48.7062 106.297 45.8908 105.829C45.4215 105.642 44.8585 105.549 44.2954 105.642C42.9815 106.391 41.7615 107.233 40.4477 108.075C40.7292 108.543 41.0108 108.917 41.2923 109.385C44.6708 113.315 50.4892 113.783 54.4308 110.414C56.5892 108.73 57.7154 106.016 57.7154 103.396C57.7154 91.7 57.7154 79.8164 57.7154 68.12C57.4338 67.8393 57.4338 67.5586 57.4338 67.2779Z" fill="white"/>
<path d="M99.5708 49.0314C93.4708 49.0314 88.4969 44.0721 88.4969 37.99C88.4969 31.9079 93.4708 26.9486 99.5708 26.9486C105.671 26.9486 110.645 31.9079 110.645 37.99C110.645 44.0721 105.671 49.0314 99.5708 49.0314Z" fill="url(#paint7_linear_209_995)"/>
<path d="M102.668 76.2607C96.5677 76.2607 91.5939 71.3014 91.5939 65.2193C91.5939 59.1371 96.5677 54.1779 102.668 54.1779C108.768 54.1779 113.742 59.1371 113.742 65.2193C113.742 71.3014 108.768 76.2607 102.668 76.2607Z" fill="url(#paint8_linear_209_995)"/>
<path d="M99.1016 103.396C93.0016 103.396 88.0277 98.4371 88.0277 92.355C88.0277 86.2728 93.0016 81.3136 99.1016 81.3136C105.202 81.3136 110.175 86.2728 110.175 92.355C110.082 98.4371 105.108 103.396 99.1016 103.396Z" fill="url(#paint9_linear_209_995)"/>
<path d="M88.9662 128.567C82.8662 128.567 77.8923 123.608 77.8923 117.526C77.8923 111.444 82.8662 106.484 88.9662 106.484C95.0662 106.484 100.04 111.444 100.04 117.526C100.04 123.701 95.0662 128.567 88.9662 128.567Z" fill="url(#paint10_linear_209_995)"/>
<path d="M99.5708 46.5986C94.7846 46.5986 90.937 42.7622 90.937 37.99C90.937 33.2179 94.7846 29.3814 99.5708 29.3814C104.357 29.3814 108.205 33.2179 108.205 37.99C108.298 42.7622 104.357 46.5986 99.5708 46.5986Z" fill="white"/>
<path d="M99.7585 31.44C96.1923 31.44 93.377 34.2471 93.377 37.8029C93.377 41.3586 96.1923 44.1657 99.7585 44.1657C103.325 44.1657 106.14 41.3586 106.14 37.8029C106.14 34.2471 103.231 31.44 99.7585 31.44Z" fill="url(#paint11_linear_209_995)"/>
<path d="M100.603 39.4871H102.292L102.574 37.8029H100.603V36.7736C100.603 36.025 100.885 35.4636 101.448 35.4636H102.48V34.06C102.292 34.06 101.917 33.8729 101.166 33.8729C99.5708 33.8729 98.7262 34.715 98.7262 36.5864V37.7093H97.1308V39.3936H98.7262V44.0721C99.0077 44.0721 99.2893 44.2593 99.7585 44.2593C100.04 44.2593 100.322 44.2593 100.603 44.2593V39.4871Z" fill="white"/>
<path d="M88.4031 21.8021C83.6169 21.8021 79.7692 17.9657 79.7692 13.1936C79.7692 8.42142 83.6169 4.58499 88.4031 4.58499C93.1892 4.58499 97.0369 8.42142 97.0369 13.1936C97.0369 17.8721 93.1892 21.8021 88.4031 21.8021Z" fill="white"/>
<path d="M88.9662 17.9657C87.9339 17.9657 86.9954 17.685 86.2446 17.1236L84.2739 17.685L84.8369 15.8136C84.2739 14.9714 83.8046 13.9421 83.8046 12.8193C83.8046 12.6321 83.8046 12.5386 83.8046 12.3514C84.0862 9.82499 86.2446 7.85999 88.7785 7.85999C91.5 7.85999 93.5646 9.82499 93.7523 12.3514C93.7523 12.5386 93.7523 12.6321 93.7523 12.8193C94.0339 15.72 91.7815 17.9657 88.9662 17.9657Z" fill="#40C351"/>
<path d="M94.7846 12.9128C94.5969 9.63785 92.0631 7.11142 88.8723 7.11142C85.5877 7.11142 83.0538 9.63785 82.96 12.7257C82.96 12.9128 82.96 12.9128 82.96 13.0064C82.96 14.1293 83.2415 15.1586 83.8046 16.0943L82.5846 19.2757L85.8692 18.2464C86.7138 18.7143 87.7461 18.995 88.6846 18.995C91.9692 18.995 94.5969 16.2814 94.5969 13.1C94.7846 12.9128 94.7846 12.9128 94.7846 12.9128ZM88.7784 17.9657C87.7461 17.9657 86.8077 17.685 86.0569 17.1236L84.0861 17.685L84.6492 15.8136C84.0861 14.9714 83.6169 13.9421 83.6169 12.8193C83.6169 12.6321 83.6169 12.5386 83.6169 12.3514C83.8984 9.82499 86.0569 7.85999 88.5908 7.85999C91.3123 7.85999 93.3769 9.82499 93.5646 12.3514C93.5646 12.5386 93.5646 12.6321 93.5646 12.8193C93.7523 15.72 91.5 17.9657 88.7784 17.9657Z" fill="white"/>
<path d="M91.5 14.2228C91.3123 14.0357 90.6554 13.755 90.4677 13.755C90.28 13.755 90.1861 13.5678 90.1861 13.9421C89.9984 14.1293 89.7169 14.41 89.7169 14.5036C89.5292 14.6907 89.5292 14.6907 89.4354 14.5036C89.3415 14.3164 88.8723 14.2228 88.3092 13.755C87.84 13.2871 87.5584 12.9128 87.4646 12.7257C87.2769 12.5386 87.4646 12.445 87.4646 12.445C87.4646 12.445 87.6523 12.2578 87.7461 12.1643C87.7461 12.1643 87.7461 11.9771 87.9338 11.9771C87.9338 11.79 87.9338 11.79 87.9338 11.6964C87.9338 11.5093 87.6523 10.8543 87.4646 10.5736C87.2769 10.2928 87.183 10.2928 87.183 10.2928C86.9954 10.2928 86.9954 10.2928 86.9015 10.2928C86.7138 10.2928 86.62 10.2928 86.4323 10.48C86.2446 10.6671 85.8692 11.0414 85.8692 11.79C85.8692 11.9771 85.8692 12.0707 86.0569 12.2578C86.2446 12.8193 86.5261 13.2871 86.62 13.2871C86.8077 13.4743 87.6523 14.8778 89.1538 15.4393C90.5615 16.0007 90.5615 15.9071 90.8431 15.9071C91.1246 15.9071 91.6877 15.6264 91.8754 15.1586C92.063 14.8778 92.063 14.5971 92.063 14.41C91.7815 14.3164 91.6877 14.3164 91.5 14.2228Z" fill="white"/>
<path d="M102.762 73.8279C97.9754 73.8279 94.1277 69.9914 94.1277 65.2193C94.1277 60.4471 97.9754 56.6107 102.762 56.6107C107.548 56.6107 111.395 60.4471 111.395 65.2193C111.395 69.9914 107.548 73.8279 102.762 73.8279Z" fill="white"/>
<path d="M100.04 65.2193C100.04 64.19 99.2892 63.3478 98.3508 63.3478C97.3185 63.1607 96.4739 63.9093 96.38 65.0321V65.2193C96.38 66.2486 97.1308 67.0907 98.0692 67.0907H98.2569C99.0077 66.9971 99.8523 66.155 100.04 65.2193C99.8523 65.2193 99.8523 65.2193 100.04 65.2193Z" fill="white"/>
<path d="M108.955 64.9386C108.955 68.0264 106.234 70.74 103.043 70.74C102.574 70.74 102.011 70.74 101.635 70.5529C101.448 70.5529 101.354 70.5529 101.166 70.5529L99.8523 71.3014C99.5708 71.4886 99.1015 71.1143 99.1015 70.8336V69.7107C99.1015 69.5236 98.9138 69.43 98.9138 69.2429C97.7877 68.2136 97.0369 66.7164 97.0369 65.0321C97.0369 61.9443 99.7585 59.2307 102.949 59.2307C106.422 59.2307 108.955 61.7571 108.955 64.9386Z" fill="url(#paint12_radial_209_995)"/>
<path opacity="0.05" d="M106.234 63.0671C106.046 63.0671 105.952 63.0671 105.952 63.2543L104.263 64.5643H104.075H103.888L102.762 63.7221C102.48 63.535 102.198 63.4414 101.917 63.4414C101.448 63.4414 101.072 63.7221 100.791 64.0029L100.322 64.5643L99.1954 66.5293C99.0077 66.7164 99.0077 66.9971 99.1954 67.0907C99.3831 67.1843 99.4769 67.3714 99.7585 67.3714C99.9462 67.3714 100.04 67.3714 100.04 67.1843L101.729 65.8743H101.917H102.105L103.231 66.7164C103.512 66.9036 103.794 66.9971 104.075 66.9971C104.545 66.9971 104.92 66.7164 105.202 66.4357L105.671 65.8743L106.985 63.9093C107.172 63.7221 107.172 63.4414 106.985 63.3478C106.703 63.1607 106.515 63.0671 106.234 63.0671Z" fill="black"/>
<path opacity="0.07" d="M106.234 63.1607C106.046 63.1607 106.046 63.1607 105.952 63.3478L104.263 64.6579C104.263 64.6579 104.075 64.845 103.982 64.845C103.794 64.845 103.794 64.845 103.794 64.845L102.668 64.0029C102.48 63.8157 102.198 63.7221 101.917 63.7221C101.448 63.7221 101.072 63.9093 100.885 64.2836L100.415 64.845L99.477 66.4357C99.2893 66.6229 99.2893 66.7164 99.477 66.9036C99.6646 67.0907 99.7585 67.1843 99.9462 67.1843C100.134 67.1843 100.134 67.1843 100.228 66.9971L101.917 65.6871C101.917 65.6871 102.105 65.5 102.198 65.5C102.292 65.5 102.386 65.5 102.386 65.5L103.512 66.3421C103.7 66.5293 103.982 66.6228 104.263 66.6228C104.732 66.6228 105.108 66.4357 105.295 66.0614L105.765 65.5L107.078 63.535C107.266 63.3479 107.266 63.2543 107.078 63.0671C106.515 63.3479 106.422 63.1607 106.234 63.1607Z" fill="black"/>
<path d="M106.14 63.4414L104.451 64.7514C104.263 64.9386 103.982 64.9386 103.888 64.7514L102.762 63.9093C102.292 63.4414 101.635 63.6286 101.166 64.19L100.697 64.7514L99.3831 66.7164C99.1954 66.9972 99.5708 67.2779 99.8523 67.1843L101.542 65.8743C101.729 65.6871 102.011 65.6871 102.105 65.8743L103.231 66.7164C103.7 67.1843 104.357 66.9971 104.826 66.4357L105.295 65.8743L106.609 63.9093C106.703 63.4414 106.422 63.1607 106.14 63.4414Z" fill="white"/>
<path d="M99.1016 100.964C94.3154 100.964 90.4677 97.1271 90.4677 92.355C90.4677 87.5829 94.3154 83.7464 99.1016 83.7464C103.888 83.7464 107.735 87.5829 107.735 92.355C107.735 97.1271 103.888 100.964 99.1016 100.964Z" fill="white"/>
<path d="M102.292 97.5014H96.4738C95.16 97.5014 94.0338 96.4721 94.0338 95.0686V89.2671C94.0338 87.9571 95.0661 86.8343 96.4738 86.8343H102.292C103.606 86.8343 104.732 87.8636 104.732 89.2671V95.0686C104.545 96.3786 103.512 97.5014 102.292 97.5014Z" fill="url(#paint13_radial_209_995)"/>
<path d="M102.292 97.5014H96.4738C95.16 97.5014 94.0338 96.4721 94.0338 95.0686V89.2671C94.0338 87.9571 95.0661 86.8343 96.4738 86.8343H102.292C103.606 86.8343 104.732 87.8636 104.732 89.2671V95.0686C104.545 96.3786 103.512 97.5014 102.292 97.5014Z" fill="url(#paint14_radial_209_995)"/>
<path d="M99.2892 94.32C98.163 94.32 97.3184 93.4778 97.3184 92.355C97.3184 91.2321 98.163 90.39 99.2892 90.39C100.415 90.39 101.26 91.2321 101.26 92.355C101.26 93.3843 100.415 94.32 99.2892 94.32ZM99.2892 90.7643C98.4446 90.7643 97.8815 91.5128 97.8815 92.1678C97.8815 93.01 98.6323 93.5714 99.2892 93.5714C100.134 93.5714 100.697 92.8228 100.697 92.1678C100.885 91.4193 100.134 90.7643 99.2892 90.7643Z" fill="white"/>
<path d="M101.541 90.4836C101.801 90.4836 102.011 90.2741 102.011 90.0157C102.011 89.7573 101.801 89.5479 101.541 89.5479C101.282 89.5479 101.072 89.7573 101.072 90.0157C101.072 90.2741 101.282 90.4836 101.541 90.4836Z" fill="white"/>
<path d="M101.166 96.0043H97.6C96.4738 96.0043 95.6292 95.1621 95.6292 94.0393V90.4836C95.6292 89.3607 96.4738 88.5186 97.6 88.5186H101.166C102.292 88.5186 103.137 89.3607 103.137 90.4836V94.0393C103.137 95.1621 102.292 96.0043 101.166 96.0043ZM97.6 89.08C96.7554 89.08 96.1923 89.8286 96.1923 90.4836V94.0393C96.1923 94.8814 96.9431 95.4428 97.6 95.4428H101.166C102.011 95.4428 102.574 94.6943 102.574 94.0393V90.4836C102.574 89.6414 101.823 89.08 101.166 89.08H97.6Z" fill="white"/>
<path d="M88.9661 126.228C84.18 126.228 80.3323 122.391 80.3323 117.619C80.3323 112.847 84.18 109.011 88.9661 109.011C93.7523 109.011 97.6 112.847 97.6 117.619C97.6 122.391 93.7523 126.228 88.9661 126.228Z" fill="white"/>
<path d="M95.3477 117.619C95.3477 121.175 92.5323 123.982 88.9661 123.982C85.4 123.982 82.5846 121.175 82.5846 117.619C82.5846 114.064 85.4 111.256 88.9661 111.256C92.5323 111.256 95.3477 114.064 95.3477 117.619Z" fill="url(#paint15_linear_209_995)"/>
<path opacity="0.05" d="M84.5554 117.432C87.0892 116.309 90.1861 114.999 90.6554 114.719C91.6877 114.251 92.2508 114.719 92.0631 115.467C91.8754 116.309 91.5 118.742 91.3123 120.426C91.1246 121.456 90.5615 121.736 89.9985 121.269C89.5292 120.988 88.0277 119.959 87.5585 119.584C87.2769 119.304 87.0892 119.023 87.2769 118.742C87.2769 118.555 87.4646 118.461 87.5585 118.461C88.0277 117.994 88.0277 117.9 87.3708 118.274C87.3708 118.274 86.9015 118.555 86.8077 118.742C86.3385 119.023 86.0569 119.023 85.4938 118.742C85.0246 118.555 84.6492 118.461 84.3677 118.274C84.18 118.274 83.9923 117.713 84.5554 117.432Z" fill="black"/>
<path opacity="0.07" d="M84.7431 117.432C87.1831 116.309 90.0923 115.186 90.5615 114.906C91.5938 114.438 91.9692 114.719 91.8754 115.654C91.6877 116.403 91.4061 118.742 91.1246 120.333C90.9369 121.362 90.5615 121.456 89.9985 121.081C89.5292 120.801 88.1215 119.959 87.84 119.678C87.5585 119.397 87.2769 119.21 87.5585 118.836C87.7461 118.649 88.3092 118.087 88.6846 117.713C88.9661 117.432 88.8723 117.245 88.4969 117.526C87.9338 117.994 86.9015 118.555 86.8077 118.649C86.5261 118.929 86.2446 118.929 85.6815 118.836C85.2123 118.649 84.8369 118.555 84.6492 118.555C84.18 118.181 84.18 117.713 84.7431 117.432Z" fill="black"/>
<path d="M85.0246 117.619C87.2769 116.59 90.0923 115.467 90.5615 115.186C91.5938 114.719 91.9692 114.906 91.8754 115.748C91.6877 116.496 91.4061 118.742 91.1246 120.146C90.9369 120.988 90.5615 121.175 89.9984 120.707C89.7169 120.52 88.4031 119.584 88.1215 119.397C87.84 119.21 87.5584 118.929 87.9338 118.555C88.1215 118.368 89.2477 117.432 90.0923 116.59C90.28 116.403 90.0923 116.309 89.9046 116.403C88.7784 117.151 87.1831 118.274 87.0892 118.368C86.8077 118.555 86.5261 118.649 85.963 118.555C85.4938 118.368 85.2123 118.274 84.9307 118.274C84.2738 117.994 84.4615 117.713 85.0246 117.619Z" fill="white"/>
<defs>
<linearGradient id="paint0_linear_209_995" x1="92.7222" y1="22.9948" x2="58.9743" y2="22.9948" gradientUnits="userSpaceOnUse">
<stop stop-color="#FF9F55"/>
<stop offset="1" stop-color="#FFD255"/>
</linearGradient>
<linearGradient id="paint1_linear_209_995" x1="77.3624" y1="13.1425" x2="99.4625" y2="13.1425" gradientUnits="userSpaceOnUse">
<stop stop-color="#FF9F55"/>
<stop offset="1" stop-color="#FFD255"/>
</linearGradient>
<linearGradient id="paint2_linear_209_995" x1="103.972" y1="65.035" x2="60.7275" y2="65.035" gradientUnits="userSpaceOnUse">
<stop stop-color="#FF9F55"/>
<stop offset="1" stop-color="#FFD255"/>
</linearGradient>
<linearGradient id="paint3_linear_209_995" x1="8.5079" y1="64.9076" x2="61.6725" y2="64.9076" gradientUnits="userSpaceOnUse">
<stop stop-color="#FF9F55"/>
<stop offset="1" stop-color="#FFD255"/>
</linearGradient>
<linearGradient id="paint4_linear_209_995" x1="102.697" y1="45.401" x2="60.816" y2="45.401" gradientUnits="userSpaceOnUse">
<stop stop-color="#FF9F55"/>
<stop offset="1" stop-color="#FFD255"/>
</linearGradient>
<linearGradient id="paint5_linear_209_995" x1="102.23" y1="85.016" x2="60.6652" y2="85.016" gradientUnits="userSpaceOnUse">
<stop stop-color="#FF9F55"/>
<stop offset="1" stop-color="#FFD255"/>
</linearGradient>
<linearGradient id="paint6_linear_209_995" x1="92.362" y1="107.233" x2="60.4836" y2="107.233" gradientUnits="userSpaceOnUse">
<stop stop-color="#FF9F55"/>
<stop offset="1" stop-color="#FFD255"/>
</linearGradient>
<linearGradient id="paint7_linear_209_995" x1="88.5479" y1="37.9852" x2="110.648" y2="37.9852" gradientUnits="userSpaceOnUse">
<stop stop-color="#FF9F55"/>
<stop offset="1" stop-color="#FFD255"/>
</linearGradient>
<linearGradient id="paint8_linear_209_995" x1="91.6907" y1="65.2205" x2="113.791" y2="65.2205" gradientUnits="userSpaceOnUse">
<stop stop-color="#FF9F55"/>
<stop offset="1" stop-color="#FFD255"/>
</linearGradient>
<linearGradient id="paint9_linear_209_995" x1="88.0474" y1="92.3542" x2="110.147" y2="92.3542" gradientUnits="userSpaceOnUse">
<stop stop-color="#FF9F55"/>
<stop offset="1" stop-color="#FFD255"/>
</linearGradient>
<linearGradient id="paint10_linear_209_995" x1="77.9119" y1="117.592" x2="100.012" y2="117.592" gradientUnits="userSpaceOnUse">
<stop stop-color="#FF9F55"/>
<stop offset="1" stop-color="#FFD255"/>
</linearGradient>
<linearGradient id="paint11_linear_209_995" x1="95.2063" y1="33.271" x2="105.002" y2="43.0957" gradientUnits="userSpaceOnUse">
<stop stop-color="#2AA4F4"/>
<stop offset="1" stop-color="#007AD9"/>
</linearGradient>
<radialGradient id="paint12_radial_209_995" cx="0" cy="0" r="1" gradientUnits="userSpaceOnUse" gradientTransform="translate(99.203 70.6101) scale(14.0314 13.9903)">
<stop stop-color="#1292FF"/>
<stop offset="0.079" stop-color="#2982FF"/>
<stop offset="0.23" stop-color="#4E69FF"/>
<stop offset="0.351" stop-color="#6559FF"/>
<stop offset="0.428" stop-color="#6D53FF"/>
<stop offset="0.754" stop-color="#DF47AA"/>
<stop offset="0.946" stop-color="#FF6257"/>
</radialGradient>
<radialGradient id="paint13_radial_209_995" cx="0" cy="0" r="1" gradientUnits="userSpaceOnUse" gradientTransform="translate(97.9803 97.4943) scale(13.1351 13.0966)">
<stop stop-color="#FFDD55"/>
<stop offset="0.328" stop-color="#FF543F"/>
<stop offset="0.348" stop-color="#FC5245"/>
<stop offset="0.504" stop-color="#E64771"/>
<stop offset="0.643" stop-color="#D53E91"/>
<stop offset="0.761" stop-color="#CC39A4"/>
<stop offset="0.841" stop-color="#C837AB"/>
</radialGradient>
<radialGradient id="paint14_radial_209_995" cx="0" cy="0" r="1" gradientUnits="userSpaceOnUse" gradientTransform="translate(95.7587 86.8492) scale(8.72178 5.79431)">
<stop stop-color="#4168C9"/>
<stop offset="0.999" stop-color="#4168C9" stop-opacity="0"/>
</radialGradient>
<linearGradient id="paint15_linear_209_995" x1="84.4396" y1="113.078" x2="93.4681" y2="122.134" gradientUnits="userSpaceOnUse">
<stop stop-color="#33BEF0"/>
<stop offset="1" stop-color="#0A85D9"/>
</linearGradient>
</defs>
</svg>
