<svg id="Layer_1" data-name="Layer 1" xmlns="http://www.w3.org/2000/svg" viewBox="0 0 22.11 22.11"><title>Artboard 1</title><path d="M11.84,11.39H17a1.89,1.89,0,1,0,0-.66H11.84v-.52c0-.4,0-1,0-1h4.3a.91.91,0,0,0,.42-.2c.24-.22.44-.46.67-.7a.41.41,0,0,1,.32-.15,1.89,1.89,0,0,0,2.63-1.73,1.89,1.89,0,1,0-3.32,1.22,1.05,1.05,0,0,1-.32.42l-.24.27a.41.41,0,0,1-.43.2h-4s0-1.93,0-2.57h.44c.61,0,1.18,0,1.79,0a.46.46,0,0,0,.48-.24c.38-.57.78-1.15,1.2-1.76h0a1.69,1.69,0,0,0,.64.12A1.89,1.89,0,1,0,14.5,2.16a1.86,1.86,0,0,0,.67,1.43c-.33.49-.68,1-1,1.46a.39.39,0,0,1-.39.19H11.84v-.7a2.33,2.33,0,0,0-1.75-2.27A2.26,2.26,0,0,0,7.51,3.42a.28.28,0,0,1-.29.18A2.27,2.27,0,0,0,5.13,5.79a.34.34,0,0,1-.27.36,2.89,2.89,0,0,0-2,3.4,2.75,2.75,0,0,0,.87,1.5,2.86,2.86,0,0,0-.82,1.34,2.82,2.82,0,0,0,2,3.5c.14,0,.14.11.14.24A2.28,2.28,0,0,0,7.22,18.4a.35.35,0,0,1,.32.24,2.3,2.3,0,0,0,4.3-1.23v-.67c.05,0,.54,0,.62,0h1.36a.36.36,0,0,1,.28.1c.39.57.77,1.13,1.17,1.69a1.88,1.88,0,1,0,1.21-.45,1.78,1.78,0,0,0-.61.11l0-.06c-.42-.61-.82-1.18-1.23-1.79a.58.58,0,0,0-.56-.28H12.2a2.15,2.15,0,0,0-.36,0c0-.85,0-2.48,0-2.48H16a1.55,1.55,0,0,1,.66.6.49.49,0,0,1,.12.24,1.88,1.88,0,1,0,3.28,1.26,1.88,1.88,0,0,0-1.88-1.88,2,2,0,0,0-.69.13,1.08,1.08,0,0,1-.45-.35c-.14-.16-.31-.31-.46-.48a.59.59,0,0,0-.51-.23c-.75,0-4.19,0-4.27,0C11.83,12.44,11.84,11.39,11.84,11.39Zm7-1.5a1.17,1.17,0,1,1-1.16,1.16A1.16,1.16,0,0,1,18.83,9.89Zm-.54-4.65a1.16,1.16,0,0,1,1.16,1.17h0a1.14,1.14,0,0,1-1.16,1.16,1.17,1.17,0,1,1,0-2.33ZM16.39,1a1.17,1.17,0,1,1-1.17,1.17A1.16,1.16,0,0,1,16.39,1ZM11.16,17.57a1.53,1.53,0,0,1-.55,1.19,1.58,1.58,0,0,1-2.24-.17c0-.08-.1-.15-.14-.23L8.88,18a.48.48,0,0,1,.27,0,1,1,0,0,0,.53-1.93,1,1,0,0,0-1.23.67,3.69,3.69,0,0,0,0,.58.41.41,0,0,1-.05.19,1.61,1.61,0,0,1-1.74.08,1.52,1.52,0,0,1-.77-1.47l1-.37a.28.28,0,0,1,.19,0,.87.87,0,0,0,.77.08,1,1,0,0,0,.65-1.27,1,1,0,0,0-1.27-.66A1,1,0,0,0,6.53,15c0,.15,0,.2-.17.24a2.1,2.1,0,0,1-2.83-1.66,2.8,2.8,0,0,1,.81-2.17H7.08A1,1,0,0,0,8,12a1,1,0,0,0,1-1,1,1,0,0,0-2-.29H4.33l-.19-.19a2.29,2.29,0,0,1-.56-2.33,2.25,2.25,0,0,1,1.9-1.5,1.91,1.91,0,0,1,1,.27c-.07.74.24,1.23.84,1.31a1,1,0,0,0,.91-1.66.93.93,0,0,0-1.1-.29.4.4,0,0,1-.38,0C6.5,6.2,6.2,6.1,5.83,6a2.7,2.7,0,0,1,0-.48A1.35,1.35,0,0,1,6.07,5a1.59,1.59,0,0,1,2.19-.52h0a.24.24,0,0,1,.13.32s0,.07,0,.1a1,1,0,0,0,.84,1.15,1,1,0,0,0,.31-2s-.1,0-.13,0c-.53.21-.82-.22-1.23-.36a1.59,1.59,0,0,1,3,.76C11.15,5.79,11.16,15.57,11.16,17.57ZM9.07,17a.32.32,0,0,1,.32-.32.29.29,0,0,1,.29.29v.07a.29.29,0,0,1-.34.28A.32.32,0,0,1,9.07,17ZM7.19,14.87a.32.32,0,0,1,.32-.32.3.3,0,0,1,.32.29v0a.33.33,0,0,1-.32.32A.32.32,0,0,1,7.19,14.87Zm.54-3.82v0a.29.29,0,0,1,.34-.29.33.33,0,0,1,.3.32v0a.3.3,0,0,1-.32.28H8A.3.3,0,0,1,7.73,11.05ZM7.19,7.3v0A.32.32,0,0,1,7.51,7a.3.3,0,0,1,.32.29s0,0,0,.06a.3.3,0,1,1-.6,0ZM9,5.1v0a.28.28,0,0,1,.29-.29h0a.32.32,0,0,1,.32.32.38.38,0,0,1-.34.32h0A.33.33,0,0,1,9,5.1Zm7.44,13.73A1.17,1.17,0,1,1,15.32,20,1.16,1.16,0,0,1,16.48,18.83Zm1.73-4.31A1.17,1.17,0,1,1,17,15.68,1.15,1.15,0,0,1,18.21,14.52Z"/></svg>