<svg width="21" height="22" viewBox="0 0 21 22" fill="none" xmlns="http://www.w3.org/2000/svg">
<path d="M10.7875 5.92429H10.3465C10.063 5.92429 9.88982 5.79857 9.88982 5.56286C9.88982 5.32714 10.063 5.23286 10.3465 5.23286C11.4331 5.23286 11.1654 5.23286 12.2678 5.23286C12.4095 5.26429 12.5512 5.18571 12.6457 5.04429C12.9764 4.54143 13.3387 4.05429 13.6694 3.55143C13.7481 3.45714 13.7639 3.33143 13.7009 3.23714C13.4804 2.82857 13.5749 2.35714 13.9056 2.04286C14.2363 1.76 14.7087 1.71286 15.0867 1.94857C15.4647 2.18429 15.6379 2.64 15.5119 3.06429C15.3859 3.52 14.9607 3.80286 14.5198 3.77143C14.3938 3.77143 14.2835 3.81857 14.2048 3.94429C13.7953 4.54143 13.4016 5.10714 13.0237 5.67286C12.9292 5.84571 12.7402 5.94 12.5512 5.90857C11.9528 5.92429 11.3859 5.92429 10.7875 5.92429ZM14.882 2.81286C14.882 2.64 14.7402 2.49857 14.567 2.49857H14.5355C14.3623 2.49857 14.252 2.64 14.252 2.78143V2.81286C14.252 2.98571 14.3938 3.12714 14.567 3.12714C14.7402 3.11143 14.882 2.97 14.882 2.81286Z" fill="black"/>
<path d="M14.8347 4.05429C13.8111 4.05429 12.9765 3.22143 12.9765 2.2C12.9765 1.17857 13.8111 0.345714 14.8347 0.345714C15.8584 0.345714 16.693 1.17857 16.693 2.2C16.6773 3.22143 15.8584 4.05429 14.8347 4.05429Z" fill="black"/>
<path d="M16.441 9.93143C15.9843 9.93143 15.6064 10.2457 15.4961 10.6386H10.189V11.2829H15.5276C15.6694 11.66 16.0316 11.9271 16.4568 11.9271C17.008 11.9271 17.4489 11.4714 17.4489 10.9371C17.4489 10.4029 16.9922 9.93143 16.441 9.93143Z" fill="black"/>
<path d="M2.36221 10.9529C1.93701 10.5757 1.62205 10.0571 1.51181 9.47571C1.1811 8.03 2.0315 6.55286 3.46458 6.12857C3.63781 6.09714 3.74805 5.94 3.7323 5.76714C3.76379 4.63571 4.66144 3.70857 5.7953 3.61429C5.92129 3.61429 6.03152 3.56714 6.07877 3.44143C6.55121 2.51429 7.62208 2.04286 8.62996 2.31C9.65359 2.57714 10.3623 3.48857 10.3465 4.54143C10.3465 6.41143 10.3465 6.39571 10.3465 10.12V11.2514V11.5343C10.3465 13.4357 10.3465 15.3371 10.3465 17.2071C10.3938 18.2757 9.68509 19.2029 8.66146 19.4857C7.66933 19.7529 6.6457 19.3129 6.11026 18.4171C6.06302 18.2757 5.93703 18.1971 5.7953 18.1814C4.61419 18.1029 3.68505 17.1443 3.68505 15.95C3.68505 15.8243 3.68505 15.7614 3.54332 15.7143C2.0315 15.3529 1.14961 13.7971 1.55906 12.2729C1.70079 11.7543 1.98426 11.2986 2.36221 10.9529Z" fill="black"/>
<path d="M6.39423 7.19714C6.39423 7.02429 6.25238 6.91429 6.07902 6.91429C5.90565 6.91429 5.76381 7.05571 5.76381 7.22857V7.26C5.76381 7.43286 5.90565 7.57429 6.0475 7.57429C6.22086 7.57429 6.36271 7.43286 6.36271 7.26C6.39423 7.22857 6.39423 7.22857 6.39423 7.19714Z" fill="white"/>
<path d="M8.22101 5.09143C8.22101 4.91857 8.07916 4.77714 7.9058 4.77714C7.9058 4.77714 7.9058 4.77714 7.87428 4.77714C7.70091 4.77714 7.59059 4.90286 7.59059 5.06V5.09143C7.59059 5.26429 7.71667 5.37429 7.85852 5.40571H7.89004C8.04764 5.39 8.18949 5.28 8.22101 5.09143C8.22101 5.09143 8.22101 5.10714 8.22101 5.09143Z" fill="white"/>
<path d="M6.39423 14.6771C6.39423 14.5043 6.25238 14.3943 6.07902 14.3943C5.90565 14.3943 5.76381 14.5357 5.76381 14.7086C5.76381 14.8814 5.90565 15.0229 6.07902 15.0229C6.25238 15.0229 6.39423 14.8814 6.39423 14.7086C6.39423 14.6771 6.39423 14.6771 6.39423 14.6771Z" fill="white"/>
<path d="M8.22098 16.7986C8.22098 16.6257 8.07914 16.5157 7.93729 16.5157C7.76393 16.5157 7.62209 16.6414 7.62209 16.83C7.62209 17.0029 7.74817 17.1129 7.89001 17.1443C8.06338 17.1757 8.22098 17.0186 8.22098 16.8614C8.22098 16.83 8.22098 16.83 8.22098 16.7986Z" fill="white"/>
<path d="M12.1733 8.45429C12.882 8.45429 13.6064 8.45429 14.315 8.45429C14.4883 8.48571 14.6457 8.40714 14.7402 8.26571C14.819 8.17143 14.882 8.09286 14.9765 7.99857C15.1969 7.77857 15.3859 7.62143 15.2914 7.21286C15.1497 6.64714 15.6694 6.12857 16.2363 6.12857C16.7875 6.12857 17.2284 6.58429 17.2284 7.11857C17.2284 7.15 17.2284 7.16571 17.2284 7.16571C17.1969 7.71571 16.756 8.10857 16.2048 8.09286C16.1576 8.09286 16.1261 8.09286 16.0788 8.09286C15.9056 8.04571 15.7481 8.12429 15.6536 8.23429C15.4331 8.47 15.2284 8.70571 14.9922 8.92571C14.8662 9.02 14.7245 9.09857 14.5828 9.11429C13.0552 9.11429 12.1418 9.11429 10.6142 9.11429C10.3308 9.11429 10.189 8.98857 10.189 8.78429C10.189 8.56429 10.3308 8.45429 10.6142 8.45429C11.3386 8.45429 11.4489 8.45429 12.1733 8.45429ZM16.5513 7.10286C16.5513 6.93 16.4095 6.82 16.2678 6.82C16.0946 6.82 15.9528 6.94571 15.9528 7.10286V7.13429C15.9528 7.30714 16.0788 7.44857 16.2363 7.44857C16.2363 7.44857 16.2363 7.44857 16.2678 7.44857C16.441 7.44857 16.5828 7.32286 16.5828 7.13429C16.5513 7.13429 16.5513 7.10286 16.5513 7.10286Z" fill="black"/>
<path d="M12.315 12.7443C13.0552 12.7443 13.8111 12.7443 14.5513 12.7443C14.7402 12.7129 14.9292 12.8229 15.0552 12.9643C15.1969 13.1371 15.3702 13.2786 15.5119 13.4357C15.7009 13.7029 15.9843 13.8443 16.2993 13.86C16.819 13.9071 17.1969 14.3629 17.1497 14.8814C17.1497 14.9286 17.1182 15.0071 17.1182 15.0543C16.9765 15.6043 16.4253 15.9029 15.8898 15.7929C15.8584 15.7929 15.8584 15.7929 15.8426 15.7614C15.3229 15.5886 15.0394 15.0543 15.1812 14.5514C15.1812 14.52 15.2127 14.4729 15.2127 14.4571C15.2914 14.2686 15.2442 14.1743 15.1339 14.0329C14.7717 13.53 14.2993 13.3886 13.6851 13.42C12.504 13.4671 11.9371 13.4514 10.7402 13.4514C10.6615 13.4514 10.5985 13.4514 10.5197 13.4514C10.3308 13.4514 10.189 13.31 10.1575 13.1371V13.1057C10.1575 12.9171 10.2993 12.7757 10.5355 12.7757C11.3229 12.7757 11.4804 12.7757 12.2678 12.7757L12.315 12.7443ZM15.8583 14.8343C15.8583 15.0071 16.0001 15.1486 16.1733 15.1486C16.3465 15.1486 16.4883 14.9757 16.4568 14.8186C16.4568 14.6771 16.3308 14.5357 16.1733 14.5357C16.0001 14.5043 15.8583 14.6457 15.8583 14.8343C15.8583 14.8343 15.8583 14.8186 15.8583 14.8343Z" fill="black"/>
<path d="M13.7639 18.37C13.3544 17.8043 12.9764 17.2386 12.5827 16.6571C12.504 16.5786 12.4095 16.5629 12.2993 16.5629C11.2599 16.5629 12.0001 16.5629 10.9607 16.5629C10.8819 16.5629 10.5512 16.5629 10.4882 16.5629C10.315 16.5629 10.1733 16.4214 10.1575 16.2486V16.2171C10.1575 16.0443 10.2835 15.8871 10.4725 15.8871H10.7087C10.756 15.8871 10.8347 15.8871 10.8819 15.8871C12.0158 15.8871 11.3701 15.8871 12.5197 15.8871C12.7402 15.8557 12.9449 15.9814 13.0709 16.17C13.4804 16.7671 13.8741 17.3329 14.2835 17.93C14.3308 18.0086 14.4253 18.0714 14.5198 18.1029C14.9922 18.1343 15.4017 18.48 15.4646 18.9514C15.5591 19.5014 15.1812 20.02 14.63 20.0829C14.0788 20.1771 13.5591 19.8 13.4961 19.25C13.4489 18.9829 13.5276 18.7314 13.6694 18.5114C13.6851 18.4643 13.7166 18.4171 13.7639 18.37ZM14.7875 19.0771C14.7875 18.9043 14.6615 18.7629 14.504 18.7629H14.4725C14.2993 18.7629 14.1576 18.9043 14.1576 19.0771C14.1576 19.25 14.2993 19.3914 14.4725 19.3914C14.6457 19.3914 14.7875 19.2657 14.7875 19.0771Z" fill="black"/>
<path d="M6.63021 10.6386C6.45684 10.6071 6.29924 10.7329 6.29924 10.9214V10.9529C6.29924 11.1257 6.42532 11.2671 6.58293 11.2671H6.61445C6.78781 11.2671 6.92966 11.1414 6.92966 10.9843C6.92966 10.9843 6.92966 10.9843 6.92966 10.9529C6.9139 10.78 6.78781 10.6386 6.63021 10.6386Z" fill="white"/>
<path d="M9.63785 11.2986C9.6221 11.2986 9.6221 11.2986 9.63785 11.2986V10.56H9.66934V8.36C9.66934 7.07143 9.66934 5.76714 9.66934 4.49429C9.66934 3.64571 8.96068 2.95429 8.07878 2.95429C7.5276 2.95429 7.00791 3.26857 6.74019 3.74C7.14964 3.88143 7.43311 4.30571 7.9528 4.10143C7.98429 4.07 8.03154 4.10143 8.07878 4.10143C8.62997 4.18 9.00792 4.69857 8.91343 5.23286C8.83469 5.78286 8.315 6.16 7.77957 6.06571C7.22838 5.98714 6.85043 5.46857 6.94492 4.93429C6.94492 4.90286 6.94492 4.85571 6.97641 4.84C7.02366 4.71429 6.97641 4.57286 6.85043 4.52571C6.85043 4.52571 6.85043 4.52571 6.81893 4.52571C6.07877 4.07 5.10239 4.29 4.66144 5.02857C4.56695 5.17 4.51971 5.31143 4.47246 5.48429C4.44097 5.65714 4.42522 5.79857 4.42522 5.95571C4.78743 6.08143 5.08664 6.17571 5.37011 6.28571C5.49609 6.36429 5.63782 6.36429 5.74806 6.31714C6.12602 6.14429 6.58271 6.27 6.83468 6.6C7.1024 6.91429 7.14964 7.35429 6.96067 7.71571C6.77169 8.09286 6.36224 8.28143 5.93704 8.23429C5.33861 8.15571 5.0394 7.66857 5.10239 6.94571C4.78743 6.75714 4.44097 6.66286 4.07876 6.67857C3.22836 6.75714 2.4882 7.33857 2.20473 8.15571C1.93702 8.95714 2.15749 9.83714 2.75592 10.45C2.83466 10.5286 2.9449 10.6386 2.9449 10.6386H5.63782C5.76381 10.23 6.14176 9.93143 6.58271 9.93143C7.13389 9.93143 7.57484 10.3871 7.57484 10.9214C7.57484 11.4557 7.11815 11.9114 6.58271 11.9114C6.15751 11.9114 5.79531 11.6443 5.65357 11.2671H2.96064C2.96064 11.2671 1.98426 12.21 2.15749 13.4043C2.33072 14.5671 3.65356 15.6043 4.94491 15.0386C5.07089 14.9914 5.13388 14.9443 5.11814 14.8029C5.07089 14.3471 5.35436 13.9071 5.81105 13.7657C6.33074 13.5929 6.89767 13.8914 7.0709 14.41C7.24413 14.9286 6.94492 15.4943 6.42523 15.6671C6.15751 15.7457 5.90554 15.7457 5.66932 15.5886C5.59058 15.5571 5.52759 15.5414 5.48034 15.5571C5.14963 15.6829 4.81892 15.7929 4.45671 15.9186C4.40947 16.5157 4.69294 17.0814 5.21262 17.3643C5.73231 17.6786 6.42523 17.6471 6.92917 17.2857C6.96067 17.2386 6.97641 17.16 6.97641 17.0971C6.97641 16.9086 6.97641 16.72 7.00791 16.5314C7.14964 16.0129 7.70083 15.73 8.22052 15.8714C8.7402 16.06 8.97643 16.6571 8.78745 17.16C8.61422 17.5843 8.17327 17.8514 7.70083 17.7729C7.62209 17.7414 7.5276 17.7257 7.43311 17.7414C7.21264 17.8671 7.00791 18.0086 6.78744 18.15C6.83468 18.2286 6.88193 18.2914 6.92917 18.37C7.4961 19.03 8.47249 19.1086 9.13391 18.5429C9.49611 18.26 9.68509 17.8043 9.68509 17.3643C9.68509 15.4 9.68509 13.4043 9.68509 11.44C9.63785 11.3929 9.63785 11.3457 9.63785 11.2986Z" fill="white"/>
<path d="M16.7088 8.23429C15.6851 8.23429 14.8505 7.40143 14.8505 6.38C14.8505 5.35857 15.6851 4.52571 16.7088 4.52571C17.7324 4.52571 18.567 5.35857 18.567 6.38C18.567 7.40143 17.7324 8.23429 16.7088 8.23429Z" fill="black"/>
<path d="M17.2284 12.8071C16.2048 12.8071 15.3702 11.9743 15.3702 10.9529C15.3702 9.93143 16.2048 9.09857 17.2284 9.09857C18.2521 9.09857 19.0867 9.93143 19.0867 10.9529C19.0867 11.9743 18.2521 12.8071 17.2284 12.8071Z" fill="black"/>
<path d="M16.63 17.3643C15.6064 17.3643 14.7717 16.5314 14.7717 15.51C14.7717 14.4886 15.6064 13.6557 16.63 13.6557C17.6536 13.6557 18.4883 14.4886 18.4883 15.51C18.4725 16.5314 17.6379 17.3643 16.63 17.3643Z" fill="black"/>
<path d="M14.9292 21.5914C13.9056 21.5914 13.0709 20.7586 13.0709 19.7371C13.0709 18.7157 13.9056 17.8829 14.9292 17.8829C15.9528 17.8829 16.7875 18.7157 16.7875 19.7371C16.7875 20.7743 15.9528 21.5914 14.9292 21.5914Z" fill="black"/>
<path d="M16.7088 7.82571C15.9056 7.82571 15.2599 7.18143 15.2599 6.38C15.2599 5.57857 15.9056 4.93429 16.7088 4.93429C17.5119 4.93429 18.1576 5.57857 18.1576 6.38C18.1733 7.18143 17.5119 7.82571 16.7088 7.82571Z" fill="white"/>
<path fill-rule="evenodd" clip-rule="evenodd" d="M17.8578 6.38H17.8578C17.8578 5.74509 17.3472 5.23429 16.7088 5.23429C16.0703 5.23429 15.5597 5.74508 15.5597 6.38C15.5597 7.01491 16.0703 7.52571 16.7088 7.52571C17.3527 7.52571 17.8702 7.01084 17.8579 6.3859L17.8578 6.38ZM18.1576 6.38C18.1576 5.57857 17.5119 4.93429 16.7088 4.93429C15.9056 4.93429 15.2599 5.57857 15.2599 6.38C15.2599 7.18143 15.9056 7.82571 16.7088 7.82571C17.5119 7.82571 18.1733 7.18143 18.1576 6.38Z" fill="black"/>
<path d="M14.8346 3.66144C14.0314 3.66144 13.3858 3.01715 13.3858 2.21573C13.3858 1.4143 14.0314 0.770011 14.8346 0.770011C15.6378 0.770011 16.2834 1.4143 16.2834 2.21573C16.2834 3.00144 15.6378 3.66144 14.8346 3.66144Z" fill="white"/>
<path fill-rule="evenodd" clip-rule="evenodd" d="M13.6855 2.21573C13.6855 2.85064 14.1962 3.36144 14.8346 3.36144C15.4709 3.36144 15.9837 2.83704 15.9837 2.21573C15.9837 1.58081 15.473 1.07001 14.8346 1.07001C14.1962 1.07001 13.6855 1.58081 13.6855 2.21573ZM13.3858 2.21573C13.3858 3.01715 14.0314 3.66144 14.8346 3.66144C15.6378 3.66144 16.2834 3.00144 16.2834 2.21573C16.2834 1.4143 15.6378 0.770011 14.8346 0.770011C14.0314 0.770011 13.3858 1.4143 13.3858 2.21573Z" fill="black"/>
<path d="M17.2442 12.3986C16.441 12.3986 15.7954 11.7543 15.7954 10.9529C15.7954 10.1514 16.441 9.50714 17.2442 9.50714C18.0473 9.50714 18.693 10.1514 18.693 10.9529C18.693 11.7543 18.0473 12.3986 17.2442 12.3986Z" fill="white"/>
<path fill-rule="evenodd" clip-rule="evenodd" d="M16.0951 10.9529C16.0951 11.5878 16.6058 12.0986 17.2442 12.0986C17.8826 12.0986 18.3933 11.5878 18.3933 10.9529C18.3933 10.3179 17.8826 9.80714 17.2442 9.80714C16.6058 9.80714 16.0951 10.3179 16.0951 10.9529ZM15.7954 10.9529C15.7954 11.7543 16.441 12.3986 17.2442 12.3986C18.0473 12.3986 18.693 11.7543 18.693 10.9529C18.693 10.1514 18.0473 9.50714 17.2442 9.50714C16.441 9.50714 15.7954 10.1514 15.7954 10.9529Z" fill="black"/>
<path d="M16.6297 16.9557C15.8266 16.9557 15.1809 16.3114 15.1809 15.51C15.1809 14.7086 15.8266 14.0643 16.6297 14.0643C17.4329 14.0643 18.0785 14.7086 18.0785 15.51C18.0785 16.3114 17.4329 16.9557 16.6297 16.9557Z" fill="white"/>
<path fill-rule="evenodd" clip-rule="evenodd" d="M15.4806 15.51C15.4806 16.1449 15.9913 16.6557 16.6297 16.6557C17.2681 16.6557 17.7788 16.1449 17.7788 15.51C17.7788 14.8751 17.2681 14.3643 16.6297 14.3643C15.9913 14.3643 15.4806 14.8751 15.4806 15.51ZM15.1809 15.51C15.1809 16.3114 15.8266 16.9557 16.6297 16.9557C17.4329 16.9557 18.0785 16.3114 18.0785 15.51C18.0785 14.7086 17.4329 14.0643 16.6297 14.0643C15.8266 14.0643 15.1809 14.7086 15.1809 15.51Z" fill="black"/>
<path d="M14.9292 21.1986C14.1261 21.1986 13.4804 20.5543 13.4804 19.7529C13.4804 18.9514 14.1261 18.3071 14.9292 18.3071C15.7324 18.3071 16.378 18.9514 16.378 19.7529C16.378 20.5543 15.7324 21.1986 14.9292 21.1986Z" fill="white"/>
<path fill-rule="evenodd" clip-rule="evenodd" d="M13.7802 19.7529C13.7802 20.3878 14.2908 20.8986 14.9292 20.8986C15.5676 20.8986 16.0783 20.3878 16.0783 19.7529C16.0783 19.1179 15.5676 18.6071 14.9292 18.6071C14.2908 18.6071 13.7802 19.1179 13.7802 19.7529ZM13.4804 19.7529C13.4804 20.5543 14.1261 21.1986 14.9292 21.1986C15.7324 21.1986 16.378 20.5543 16.378 19.7529C16.378 18.9514 15.7324 18.3071 14.9292 18.3071C14.1261 18.3071 13.4804 18.9514 13.4804 19.7529Z" fill="black"/>
</svg>
