<svg width="22" height="24" viewBox="0 0 22 24" fill="none" xmlns="http://www.w3.org/2000/svg">
<path d="M21.7765 23.1247C21.6776 22.9741 21.5082 22.88 21.32 22.8706C21.1694 22.8612 21.0188 22.8659 20.8541 22.8659C20.8353 22.8659 20.8165 22.8659 20.7976 22.8659V2.40471C20.7976 2.38588 20.7976 2.36235 20.7976 2.34353C20.7976 2.27765 20.8023 2.20706 20.7929 2.13176C20.7553 1.82588 20.5623 1.63765 20.2706 1.60941C20.1812 1.6 20.0917 1.6 20.0259 1.6C17.687 1.6 15.3435 1.6 13.0047 1.6C12.3976 1.6 12.2235 1.77412 12.2235 2.37647C12.2235 2.72471 12.2235 3.06824 12.2235 3.42118V3.70353H11.7623V2.68706C11.7623 2.56 11.7623 2.42824 11.7623 2.30118C11.7576 1.80235 11.5647 1.60471 11.0706 1.6C10.7647 1.6 10.4541 1.6 10.1529 1.6C10.0212 1.6 9.88939 1.6 9.75292 1.6H9.63527C9.63527 1.54824 9.63527 1.49647 9.63527 1.44471C9.63527 1.19529 9.63057 0.964706 9.63998 0.729412C9.6541 0.381176 9.52233 0.150588 9.24939 0.0235294L9.21174 0H8.89645L8.8541 0.0235294C8.59527 0.178824 8.47763 0.418824 8.49174 0.762353C8.50116 0.988235 8.50116 1.20941 8.49645 1.44941C8.49645 1.49647 8.49645 1.54824 8.49645 1.59529H7.35763C7.32469 1.59529 7.29174 1.59529 7.2588 1.59529C7.18351 1.59529 7.10351 1.59529 7.02821 1.59529C6.58116 1.60941 6.3741 1.82118 6.3741 2.26353C6.3741 2.63529 6.3741 2.99765 6.3741 3.38824C6.3741 3.49647 6.3741 3.60941 6.3741 3.72235H5.79998C5.76233 3.72235 5.72939 3.72235 5.69645 3.72235C5.61645 3.72235 5.53645 3.72235 5.45174 3.72235C4.99057 3.73176 4.78351 3.93882 4.7788 4.39529C4.7741 4.91294 4.7788 5.44 4.7788 5.95294C4.7788 6.16471 4.7788 6.37647 4.7788 6.59294V7.44H3.85174C3.15998 7.44 2.46821 7.44 1.77645 7.44C1.26351 7.44 1.05645 7.65176 1.05645 8.16471C1.05645 12.0047 1.05645 15.84 1.05645 19.68V22.8612C0.938803 22.8612 0.825862 22.8612 0.717626 22.8612C0.567038 22.8565 0.167038 22.8424 0.0305674 23.2659C-0.0964914 23.6518 0.204685 23.8635 0.345862 23.9671L0.39292 24H21.5082L21.56 23.9341C21.5835 23.9059 21.6117 23.8776 21.64 23.8447C21.7153 23.7647 21.8047 23.6706 21.847 23.5529C21.8847 23.4118 21.8659 23.2565 21.7765 23.1247ZM7.52233 3.70353V2.75765H10.6094V3.70353H7.52233ZM17.08 12.5318V12.4894C17.08 12.4094 17.08 12.3247 17.0706 12.24C17.0423 11.9388 16.8353 11.7271 16.5529 11.7035C16.2753 11.68 16.0306 11.8682 15.96 12.16C15.9553 12.1788 15.9506 12.2024 15.9459 12.2212H15.4847C15.4423 12.0141 15.32 11.7176 14.9153 11.7035C14.5529 11.6894 14.4165 12 14.36 12.2165H13.3765V2.75765H19.6494V22.8518H17.08V21.5906C17.08 18.5694 17.08 15.5482 17.08 12.5318ZM12.2282 12.1459C12.2282 12.1929 12.2235 12.2165 12.2235 12.2306C12.2094 12.2306 12.1859 12.2353 12.1482 12.2353C11.7765 12.2306 11.4047 12.2259 11.0329 12.2259C10.8353 12.2259 10.6376 12.2259 10.44 12.2259C10.2423 12.2259 10.0447 12.2259 9.84704 12.2259C9.78116 12.2259 9.71998 12.2259 9.6541 12.2259V11.2424C9.71057 11.2424 9.76704 11.2424 9.82351 11.2424C10.0917 11.2424 10.3412 11.2424 10.6 11.2376C10.807 11.2329 10.9812 11.1624 11.0988 11.0306C11.1976 10.9176 11.2447 10.7718 11.2306 10.6165C11.2023 10.32 10.9717 10.1129 10.6565 10.1035C10.3694 10.0941 10.0306 10.0847 9.69645 10.1035C9.66821 10.1035 9.64939 10.1035 9.63527 10.1035C9.63527 10.0894 9.63057 10.0706 9.63527 10.0329C9.64468 9.78353 9.64469 9.53412 9.63998 9.27529C9.63998 9.22353 9.63998 9.17176 9.63998 9.11529H9.75763C10.007 9.11529 10.2423 9.11529 10.4823 9.11529C10.5906 9.11529 10.6941 9.11059 10.7929 9.08706C11.0753 9.02118 11.2682 8.75765 11.2259 8.49412C11.1835 8.18824 10.9859 8 10.7082 7.99059C10.4917 7.98118 10.2706 7.98118 10.0588 7.98118C9.9741 7.98118 9.88939 7.98118 9.79998 7.98118C9.74351 7.98118 9.68704 7.98118 9.63527 7.98118C9.47527 7.49647 9.35763 7.44471 8.7741 7.44471H5.93645V4.88H12.2235C12.2235 4.89882 12.2235 4.92235 12.2235 4.94118C12.2235 5.53412 12.2235 6.12235 12.2235 6.71529C12.2235 8.49412 12.2235 10.3341 12.2282 12.1459ZM9.64939 22.8518V13.3835H15.9223V22.8471H9.64939V22.8518ZM6.98116 21.3835C6.97645 20.9694 6.75057 20.7388 6.35057 20.7388C5.66821 20.7341 4.99527 20.7341 4.33645 20.7388C3.93645 20.7435 3.72468 20.96 3.71527 21.3694C3.71057 21.6941 3.71057 22.0235 3.71057 22.3435C3.71057 22.48 3.71057 22.6212 3.71057 22.7576V22.8565H2.20939V8.60235H8.48233V22.8471H6.98116V22.6353C6.98116 22.5082 6.98116 22.3859 6.98116 22.2588C6.98586 21.9718 6.98586 21.6753 6.98116 21.3835ZM5.82821 21.8918V22.0753C5.78586 22 5.72939 21.9341 5.6588 21.8918H5.82821ZM5.03292 21.8918C4.96704 21.9341 4.91527 21.9906 4.87292 22.0612V21.8918H5.03292Z" fill="#8F92A1"/>
<path d="M18.1011 11.6988C17.8188 11.6941 17.5788 11.9153 17.5506 12.2165C17.5411 12.2965 17.5459 12.3717 17.5459 12.4423C17.5459 12.447 17.5459 12.4517 17.5459 12.4565V12.5317C17.5459 12.56 17.5459 12.5882 17.5459 12.6165C17.5459 12.6823 17.5411 12.7529 17.5506 12.8235C17.5788 13.1247 17.7859 13.3365 18.0729 13.36C18.087 13.36 18.1011 13.36 18.1106 13.36C18.3882 13.36 18.6329 13.1482 18.6611 12.8706C18.6847 12.6259 18.6847 12.3859 18.6564 12.1647C18.6235 11.887 18.407 11.7082 18.1011 11.6988Z" fill="#8F92A1"/>
<path d="M16.5012 8.04234C16.5106 8.04234 16.52 8.04234 16.5294 8.04234C16.8212 8.02822 17.0282 7.83999 17.0612 7.54822C17.0706 7.47293 17.0753 7.39764 17.0753 7.32705C17.0753 7.29881 17.0753 7.27058 17.08 7.24234V7.23293V7.22352C17.08 7.19058 17.0753 7.15293 17.0753 7.11999C17.0753 7.0447 17.0706 6.9647 17.0612 6.8847C17.033 6.60234 16.8447 6.41881 16.5482 6.38117C16.4118 6.36234 16.2706 6.4047 16.1577 6.49411C16.0447 6.58352 15.9788 6.70587 15.96 6.84234C15.9318 7.09175 15.9365 7.34117 15.9647 7.59058C16.0024 7.86352 16.2188 8.04234 16.5012 8.04234Z" fill="#8F92A1"/>
<path d="M17.5459 17.9389C17.5459 18.0141 17.5411 18.0894 17.5506 18.1647C17.5788 18.4518 17.767 18.6353 18.0635 18.673C18.0823 18.6777 18.1058 18.6777 18.1247 18.6777C18.2423 18.6777 18.3647 18.6353 18.4588 18.56C18.5717 18.4706 18.6376 18.3483 18.6517 18.2165C18.68 17.9624 18.68 17.713 18.647 17.4683C18.6329 17.3365 18.5623 17.2141 18.4494 17.1294C18.3317 17.04 18.1859 17.0024 18.0447 17.0212C17.7482 17.0636 17.5694 17.2518 17.5411 17.5389C17.5364 17.6141 17.5364 17.6894 17.5364 17.7647C17.5364 17.793 17.5364 17.8259 17.5364 17.8541V17.9153C17.5458 17.9247 17.5459 17.9341 17.5459 17.9389Z" fill="#8F92A1"/>
<path d="M17.5459 7.31293C17.5459 7.38822 17.5412 7.46352 17.5506 7.53881C17.5788 7.83058 17.7812 8.02352 18.0729 8.04234C18.0918 8.04234 18.1059 8.04234 18.12 8.04234C18.3976 8.04234 18.6094 7.86822 18.6423 7.60469C18.6753 7.33646 18.6753 7.05881 18.6376 6.8047C18.6 6.52705 18.36 6.35764 18.0541 6.38587C17.7718 6.41411 17.5835 6.59764 17.5506 6.87528C17.5412 6.95999 17.5412 7.04469 17.5459 7.11999C17.5459 7.12469 17.5459 7.13411 17.5459 7.13881V7.21411C17.5459 7.25175 17.5459 7.27999 17.5459 7.31293Z" fill="#8F92A1"/>
<path d="M14.3553 7.30352C14.3553 7.38352 14.3506 7.46352 14.36 7.54822C14.3929 7.83528 14.6235 8.04705 14.8965 8.04705C14.9012 8.04705 14.9012 8.04705 14.9059 8.04705C15.2118 8.04234 15.4282 7.86822 15.4565 7.59999C15.4847 7.33646 15.4847 7.07764 15.4565 6.82822C15.4235 6.55058 15.1882 6.37175 14.8871 6.39058C14.5953 6.4094 14.3929 6.60234 14.36 6.89411C14.3506 6.97411 14.3553 7.0494 14.3553 7.12469C14.3553 7.15293 14.3553 7.18587 14.3553 7.21411V7.27528C14.3553 7.27999 14.3553 7.29411 14.3553 7.30352Z" fill="#8F92A1"/>
<path d="M14.36 4.88939C14.3929 5.17174 14.5811 5.35527 14.8588 5.3788C14.8823 5.3835 14.9059 5.3835 14.9294 5.3835C15.2117 5.3835 15.4141 5.21409 15.4517 4.94586C15.4847 4.69174 15.4847 4.4235 15.4517 4.16939C15.4141 3.88233 15.1741 3.70821 14.8588 3.73645C14.5811 3.76468 14.3929 3.94821 14.36 4.22586C14.3506 4.30586 14.3506 4.38115 14.3553 4.45645C14.3553 4.48468 14.3553 4.51292 14.3553 4.54586C14.3553 4.5788 14.3553 4.61174 14.3553 4.63997C14.3553 4.71997 14.3506 4.80468 14.36 4.88939Z" fill="#8F92A1"/>
<path d="M17.5459 4.64003C17.5459 4.71532 17.5411 4.79061 17.5506 4.86591C17.5788 5.16238 17.7623 5.34591 18.0541 5.37885C18.0776 5.38356 18.0964 5.38356 18.12 5.38356C18.3976 5.38356 18.6282 5.19061 18.6611 4.91767C18.6894 4.66356 18.6894 4.41414 18.6564 4.18826C18.6188 3.9012 18.3929 3.72238 18.0823 3.7365C17.8 3.74591 17.5835 3.94826 17.5506 4.23532C17.5411 4.31532 17.5459 4.39061 17.5459 4.4612V4.55061C17.5459 4.57885 17.5459 4.61179 17.5459 4.64003Z" fill="#8F92A1"/>
<path d="M18.0682 10.7012C18.0823 10.7012 18.0964 10.7012 18.1059 10.7012C18.3976 10.7012 18.6235 10.5036 18.6564 10.2259C18.68 9.99062 18.68 9.75062 18.6564 9.52003C18.6235 9.22356 18.3647 9.0212 18.0588 9.04944C17.767 9.07767 17.5788 9.2612 17.5459 9.55767C17.5364 9.63297 17.5412 9.70356 17.5412 9.76944V9.87297C17.5412 9.9012 17.5412 9.92944 17.5412 9.95767C17.5412 10.0236 17.5364 10.0941 17.5459 10.1647C17.5741 10.4753 17.7764 10.6824 18.0682 10.7012Z" fill="#8F92A1"/>
<path d="M18.0588 14.3671C17.767 14.3953 17.5788 14.5835 17.5506 14.8753C17.5411 14.9506 17.5459 15.0259 17.5459 15.0918V15.1906C17.5459 15.2188 17.5459 15.2471 17.5459 15.2753C17.5459 15.3412 17.5411 15.4118 17.5506 15.4824C17.5788 15.7882 17.7811 15.9953 18.0776 16.0141C18.0917 16.0141 18.1011 16.0141 18.1153 16.0141C18.407 16.0141 18.6376 15.8165 18.6659 15.5388C18.6894 15.3035 18.6894 15.0682 18.6659 14.8376C18.6235 14.5365 18.3647 14.3388 18.0588 14.3671Z" fill="#8F92A1"/>
<path d="M18.0635 19.68C17.7717 19.7083 17.5835 19.8918 17.5506 20.1835C17.5411 20.2635 17.5459 20.3388 17.5459 20.4141C17.5459 20.4424 17.5459 20.4753 17.5459 20.5035C17.5459 20.5318 17.5459 20.5647 17.5459 20.593C17.5459 20.6683 17.5411 20.7435 17.5506 20.8235C17.5835 21.12 17.767 21.3035 18.0635 21.3271C18.0823 21.3271 18.1011 21.3318 18.12 21.3318C18.4023 21.3318 18.6282 21.1341 18.6611 20.8565C18.6847 20.6259 18.6894 20.3859 18.6611 20.1553C18.6282 19.8588 18.3694 19.6565 18.0635 19.68Z" fill="#8F92A1"/>
<path d="M15.4894 9.77411C15.4894 9.68941 15.4847 9.60941 15.4706 9.5247C15.4188 9.22823 15.1882 9.04 14.8917 9.0447C14.5906 9.05411 14.3741 9.26588 14.3553 9.56706C14.3412 9.77882 14.3412 9.99059 14.36 10.1882C14.3835 10.4753 14.6 10.6823 14.8917 10.6918C14.8965 10.6918 14.9059 10.6918 14.9106 10.6918C15.1929 10.6918 15.3953 10.5271 15.4612 10.2494C15.4847 10.1553 15.4847 10.0612 15.4894 9.98117C15.4894 9.95294 15.4894 9.9247 15.4941 9.90117V9.89176V9.88235C15.4894 9.84941 15.4894 9.81176 15.4894 9.77411Z" fill="#8F92A1"/>
<path d="M16.5012 5.38352C16.52 5.38352 16.5388 5.38352 16.5576 5.38352C16.8353 5.35999 17.0282 5.18117 17.0659 4.90352C17.0753 4.81881 17.08 4.74352 17.08 4.66352C17.08 4.63528 17.08 4.60234 17.0847 4.57411V4.5647V4.55528C17.0847 4.52234 17.08 4.4894 17.08 4.45646C17.08 4.38587 17.0753 4.31058 17.0659 4.23528C17.0329 3.93881 16.8353 3.75058 16.5482 3.73646C16.2376 3.71764 16.0023 3.89646 15.9694 4.18823C15.9364 4.43764 15.9412 4.69646 15.9694 4.94117C16.007 5.2094 16.2141 5.38352 16.5012 5.38352Z" fill="#8F92A1"/>
<path d="M17.0847 9.88706V9.87765V9.86824C17.0847 9.8353 17.08 9.80236 17.08 9.76941C17.0753 9.69412 17.0753 9.61412 17.0659 9.52941C17.0282 9.24706 16.84 9.07294 16.5577 9.04941C16.2518 9.02588 16.0165 9.1953 15.9788 9.46824C15.9459 9.72706 15.9412 10 15.9788 10.2635C16.0118 10.5271 16.2188 10.6918 16.5012 10.6918C16.5153 10.6918 16.5341 10.6918 16.5482 10.6918C16.8306 10.6729 17.0188 10.4988 17.0612 10.2165C17.0753 10.1318 17.0753 10.0518 17.08 9.97177C17.08 9.94824 17.0847 9.9153 17.0847 9.88706Z" fill="#8F92A1"/>
<path d="M3.75761 12.7623C3.45173 12.7718 3.23055 12.9553 3.20232 13.2376C3.17408 13.4729 3.17879 13.7176 3.20703 13.967C3.22114 14.1035 3.29173 14.2259 3.40467 14.3153C3.49879 14.3906 3.61644 14.4282 3.73408 14.4282C3.75761 14.4282 3.77644 14.4282 3.79997 14.4235C4.09644 14.3859 4.28467 14.1976 4.31291 13.9153C4.32232 13.8353 4.31761 13.76 4.31761 13.6894C4.31761 13.6847 4.31761 13.6753 4.31761 13.6706V13.6C4.31761 13.5718 4.31761 13.5388 4.31761 13.5106C4.31761 13.4353 4.32232 13.36 4.31291 13.2847C4.27997 12.9788 4.04467 12.7576 3.75761 12.7623Z" fill="#8F92A1"/>
<path d="M5.3247 12.7671C5.04234 12.7812 4.83999 12.96 4.79764 13.233C4.78352 13.3177 4.78352 13.3977 4.77882 13.473C4.77882 13.5012 4.77881 13.5294 4.77411 13.5577V13.5671V13.5765C4.77411 13.6141 4.77882 13.6518 4.77882 13.6847C4.78352 13.7647 4.78352 13.84 4.79293 13.92C4.82587 14.2118 5.02823 14.4 5.31999 14.4188C5.33411 14.4188 5.34823 14.4188 5.36234 14.4188C5.6447 14.4188 5.86117 14.24 5.8894 13.9765C5.91764 13.7083 5.91764 13.44 5.8847 13.1812C5.84705 12.9224 5.61646 12.7483 5.3247 12.7671Z" fill="#8F92A1"/>
<path d="M7.4988 13.2612C7.46586 12.9741 7.23527 12.7623 6.96233 12.7623H6.95762C6.65174 12.7623 6.43527 12.9412 6.40233 13.2094C6.36939 13.4682 6.36939 13.727 6.40233 13.9812C6.43527 14.2447 6.64704 14.4235 6.92939 14.4235C6.94351 14.4235 6.95762 14.4235 6.97174 14.4235C7.26821 14.4047 7.47057 14.2164 7.4988 13.9247C7.50821 13.84 7.50351 13.76 7.50351 13.68C7.50351 13.647 7.50351 13.6141 7.50351 13.5859C7.50351 13.5576 7.50351 13.5247 7.50351 13.4964C7.50351 13.4212 7.50821 13.3412 7.4988 13.2612Z" fill="#8F92A1"/>
<path d="M4.3129 18.5976C4.28938 18.3153 4.10585 18.127 3.80938 18.0847C3.6729 18.0659 3.52702 18.1035 3.40938 18.1929C3.29643 18.2776 3.22585 18.4 3.21173 18.5364C3.18349 18.7812 3.18349 19.0353 3.21173 19.2847C3.22585 19.4212 3.29643 19.5435 3.40938 19.6282C3.5082 19.7035 3.62585 19.7459 3.74349 19.7459C3.76702 19.7459 3.78585 19.7459 3.80938 19.7412C4.10585 19.7035 4.28938 19.5153 4.31761 19.2329C4.32702 19.1576 4.32232 19.0823 4.32232 19.007C4.32232 18.9788 4.32232 18.9459 4.32232 18.9176C4.32232 18.8894 4.32232 18.8612 4.32232 18.8282C4.31761 18.7529 4.31761 18.6776 4.3129 18.5976Z" fill="#8F92A1"/>
<path d="M5.3247 18.0847C5.04234 18.0988 4.83999 18.2777 4.79764 18.5506C4.78352 18.6353 4.78352 18.7153 4.77882 18.7906C4.77882 18.8235 4.77411 18.8518 4.77411 18.8847V18.8941V18.9035C4.77411 18.9412 4.77882 18.9741 4.77882 19.0118C4.78352 19.0965 4.78352 19.1812 4.79764 19.2706C4.83999 19.5483 5.03293 19.7271 5.31999 19.7412C5.33411 19.7412 5.34823 19.7412 5.36234 19.7412C5.63529 19.7412 5.84705 19.5765 5.87999 19.3224C5.91293 19.0588 5.91293 18.7765 5.87999 18.5035C5.84705 18.2447 5.62117 18.0706 5.3247 18.0847Z" fill="#8F92A1"/>
<path d="M7.49881 19.2471C7.50822 19.1624 7.50822 19.0777 7.50351 19.0024C7.50351 18.993 7.50351 18.9836 7.50351 18.9741V18.9036C7.50351 18.8753 7.50351 18.8424 7.50351 18.8141C7.50351 18.7388 7.50822 18.6636 7.49881 18.5883C7.47057 18.2965 7.26822 18.1036 6.97645 18.0847C6.67528 18.0659 6.43998 18.2447 6.40704 18.5224C6.3741 18.7718 6.3741 19.04 6.40234 19.2941C6.43528 19.5624 6.65175 19.7412 6.95292 19.7412H6.95763C7.23528 19.7412 7.46587 19.5294 7.49881 19.2471Z" fill="#8F92A1"/>
<path d="M3.73882 11.76C3.76235 11.76 3.78117 11.76 3.8047 11.7553C4.08235 11.7318 4.27059 11.5482 4.30823 11.2659C4.31764 11.1812 4.31764 11.0965 4.31294 11.0212C4.31294 10.9882 4.31294 10.9553 4.31294 10.9223C4.31294 10.8941 4.31294 10.8659 4.31294 10.8376C4.31294 10.7623 4.31764 10.6871 4.30823 10.6023C4.27529 10.32 4.09176 10.1365 3.81412 10.1082C3.49882 10.0753 3.25882 10.2494 3.21647 10.5365C3.17882 10.7906 3.17882 11.0588 3.21647 11.3176C3.24941 11.5906 3.45647 11.76 3.73882 11.76Z" fill="#8F92A1"/>
<path d="M4.31294 16.1647C4.31294 16.0894 4.31764 16.0141 4.30823 15.9388C4.27529 15.6424 4.08706 15.4541 3.79529 15.4306C3.4847 15.4071 3.24941 15.5812 3.20706 15.8729C3.17411 16.1176 3.16941 16.3765 3.20235 16.6306C3.24 16.9035 3.45176 17.0823 3.73882 17.0823C3.75294 17.0823 3.77176 17.0823 3.78588 17.0823C4.07764 17.0635 4.27058 16.8753 4.30823 16.5835C4.31764 16.5035 4.31294 16.4282 4.31294 16.3529C4.31294 16.3388 4.31294 16.3294 4.31294 16.3153V16.2635C4.31294 16.2259 4.31294 16.1976 4.31294 16.1647Z" fill="#8F92A1"/>
<path d="M6.9294 17.0777C6.94822 17.0777 6.96234 17.0777 6.98116 17.0777C7.27293 17.0541 7.46587 16.8659 7.49881 16.5741C7.50822 16.4941 7.50351 16.4188 7.50351 16.3435C7.50351 16.3153 7.50351 16.2871 7.50351 16.2541C7.50351 16.2259 7.50351 16.1929 7.50351 16.1647C7.50351 16.0894 7.50822 16.0141 7.49881 15.9388C7.46587 15.6424 7.27293 15.4541 6.98116 15.4353C6.67057 15.4118 6.43528 15.5906 6.39763 15.8824C6.36469 16.1271 6.36469 16.3906 6.39763 16.6353C6.43528 16.9035 6.64704 17.0777 6.9294 17.0777Z" fill="#8F92A1"/>
<path d="M6.92939 11.76C6.94821 11.76 6.97174 11.76 6.99056 11.7553C7.27292 11.7318 7.46115 11.5482 7.49409 11.2706C7.5035 11.1859 7.5035 11.1012 7.4988 11.0212C7.4988 11.0071 7.4988 10.993 7.4988 10.9835V10.9271C7.4988 10.8988 7.4988 10.8659 7.4988 10.8377C7.4988 10.7624 7.5035 10.6871 7.49409 10.6071C7.46115 10.32 7.28233 10.1412 6.99997 10.113C6.68468 10.08 6.43997 10.2494 6.40233 10.5412C6.36468 10.7953 6.36468 11.0635 6.39762 11.3177C6.43527 11.5906 6.64703 11.76 6.92939 11.76Z" fill="#8F92A1"/>
<path d="M4.79764 16.6023C4.83529 16.8706 5.01411 17.04 5.28234 17.0729C5.31058 17.0776 5.33411 17.0776 5.36234 17.0776C5.63529 17.0776 5.84234 16.9176 5.87529 16.6682C5.91293 16.3953 5.91293 16.1035 5.87058 15.8212C5.83293 15.5623 5.59764 15.3976 5.29646 15.4259C5.02823 15.4494 4.8447 15.6141 4.79764 15.8776C4.78352 15.9623 4.77882 16.047 4.77882 16.1223C4.77882 16.1506 4.77881 16.1835 4.77411 16.2118V16.2212V16.2306C4.77411 16.2682 4.77882 16.3059 4.77882 16.3388C4.77882 16.4329 4.78352 16.5176 4.79764 16.6023Z" fill="#8F92A1"/>
<path d="M5.31529 10.113C5.03293 10.1271 4.83999 10.3059 4.79764 10.5835C4.78352 10.6683 4.78352 10.753 4.77882 10.8235C4.77882 10.8518 4.77881 10.8847 4.77411 10.913V10.9224V10.9318C4.77411 10.9647 4.77882 11.0024 4.77882 11.0353C4.77882 11.1153 4.78352 11.1953 4.79293 11.2753C4.83058 11.5577 5.01411 11.7365 5.29646 11.76C5.31529 11.76 5.33882 11.7647 5.35764 11.7647C5.63999 11.7647 5.85176 11.5906 5.8847 11.3224C5.91764 11.073 5.91764 10.8047 5.87999 10.5459C5.84705 10.2683 5.62117 10.0941 5.31529 10.113Z" fill="#8F92A1"/>
<path d="M14.9529 15.3788V15.3741C14.9529 15.28 14.9529 15.1765 14.9341 15.0777C14.8917 14.8188 14.7035 14.6447 14.4353 14.6165C14.167 14.5882 13.9459 14.7294 13.8611 14.9788C13.8188 15.1059 13.8141 15.2377 13.8141 15.3271C13.8141 17.7035 13.8141 18.6635 13.8141 21.0353C13.8141 21.1247 13.8188 21.2612 13.8611 21.3835C13.9411 21.6141 14.1294 21.7506 14.3741 21.7506C14.3929 21.7506 14.4117 21.7506 14.4306 21.7459C14.7035 21.7224 14.8823 21.5577 14.9294 21.2941C14.9482 21.1953 14.9482 21.1012 14.9482 21.0071V20.9882C14.9482 20.0706 14.9482 19.7271 14.9482 19.0588V18.4141V17.7271C14.9529 16.9318 14.9529 16.3059 14.9529 15.3788Z" fill="#8F92A1"/>
<path d="M11.7624 15.393V15.3788C11.7624 15.2894 11.7624 15.1906 11.7482 15.0965C11.7106 14.8188 11.5224 14.64 11.24 14.6165C10.9765 14.593 10.7553 14.7341 10.6706 14.9883C10.6424 15.0777 10.6235 15.1765 10.6235 15.2941C10.6235 17.6377 10.6235 18.6212 10.6235 21.073C10.6235 21.2047 10.6424 21.313 10.6753 21.4024C10.76 21.633 10.9435 21.76 11.1835 21.76C11.2071 21.76 11.2306 21.76 11.2541 21.7553C11.5224 21.7271 11.7012 21.5624 11.7482 21.2941C11.7624 21.2 11.7624 21.1059 11.7624 21.0165V20.9883C11.7624 20.0659 11.7624 19.713 11.7624 19.0353V17.7083C11.7624 16.9224 11.7624 16.3106 11.7624 15.393Z" fill="#8F92A1"/>
<path d="M13.1694 14.7576C13.0659 14.6588 12.9341 14.6071 12.7788 14.6071C12.4494 14.6118 12.2329 14.8659 12.2188 15.2518C12.2188 15.2753 12.2188 15.2988 12.2188 15.3224V16.2776C12.2188 18.0141 12.2188 18.9976 12.2188 21.0306V21.0494C12.2188 21.1247 12.2188 21.2047 12.2329 21.2894C12.28 21.5529 12.4588 21.7224 12.727 21.7506C12.7506 21.7506 12.7741 21.7553 12.7976 21.7553C13.0376 21.7553 13.2259 21.6235 13.3059 21.3976C13.3482 21.2753 13.3576 21.1388 13.3576 21.0259C13.3576 20.1223 13.3576 19.76 13.3576 19.1106V15.9576C13.3576 15.8165 13.3576 15.7365 13.3576 15.6753C13.3576 15.5718 13.3576 15.52 13.3576 15.2659C13.3576 15.0541 13.2918 14.88 13.1694 14.7576Z" fill="#8F92A1"/>
<path d="M10.6329 5.85415C10.2659 5.84474 9.89411 5.84944 9.53175 5.84944C9.37175 5.84944 9.21175 5.84944 9.05646 5.84944C8.91058 5.84944 8.75999 5.84944 8.61411 5.84944C8.25175 5.84944 7.87528 5.84474 7.50822 5.85415C7.15058 5.85885 6.91999 6.08003 6.91528 6.40944C6.91528 6.56944 6.96705 6.71062 7.07058 6.81415C7.17411 6.92238 7.3294 6.98356 7.49881 6.98356C8.01646 6.98827 8.49646 6.98827 8.94352 6.98827C9.55058 6.98827 10.1106 6.98356 10.6423 6.97885C10.807 6.97885 11.0141 6.86591 11.1223 6.72474C11.2447 6.56003 11.2682 6.35768 11.1835 6.17885C11.0894 5.98591 10.8776 5.85885 10.6329 5.85415Z" fill="#8F92A1"/>
</svg>
