<?xml version="1.0" encoding="UTF-8" standalone="no"?> <svg id="Layer_1" data-name="Layer 1" xmlns="http://www.w3.org/2000/svg" viewBox="0 0 100 100"><path d="M77.49,24.69a4.57,4.57,0,0,1,1-5.05l3.86-4L73.43,7l-3.22,3.29a4.54,4.54,0,0,1-5.06,1.06A4.6,4.6,0,0,1,62.26,7.1V2.5H49.88V8A4.64,4.64,0,0,1,42,11.35L38,7.49l-8.65,8.86,3.29,3.21a4.55,4.55,0,0,1,1.06,5.07,4.61,4.61,0,0,1-4.29,2.89h-4.6v1.57a32.52,32.52,0,0,1,3.7-.22,32.13,32.13,0,0,1,10,1.59A17.83,17.83,0,1,1,59.3,51.24a32,32,0,0,1,1.59,10,32.83,32.83,0,0,1-.22,3.71h1.59V59.39a4.63,4.63,0,0,1,7.87-3.31l4,3.87,8.64-8.87-3.3-3.21a4.55,4.55,0,0,1-1.06-5.07,4.62,4.62,0,0,1,4.29-2.89h4.61V27.52H81.76A4.55,4.55,0,0,1,77.49,24.69Z"/><path d="M71,33.71a14.92,14.92,0,0,0-29.68-2.2,32.37,32.37,0,0,1,16.94,17A15,15,0,0,0,71,33.71Z"/><path d="M39.21,33.78a29.07,29.07,0,0,0-10.66-2,28.52,28.52,0,0,0-4.9.42,29.43,29.43,0,1,0,33.91,34A29.29,29.29,0,0,0,56,50.57,29.43,29.43,0,0,0,39.21,33.78ZM29.45,60a1.49,1.49,0,0,1,.63.14c5.71.85,10.07,5.31,10.07,10.67,0,5-3.87,9.28-9.09,10.47v4.38H28.15v-4h0c-6.64,0-12-4.85-12-10.81H19c0,4.36,4.1,7.91,9.14,7.91s9.14-3.55,9.14-7.91-4.1-7.9-9.14-7.9a1.45,1.45,0,0,1-.65-.16c-5.43-.85-9.58-5.12-9.58-10.24,0-5.34,4.51-9.75,10.28-10.33V36.81h2.91V42.2c5.62.71,10,5,10,10.28H38.11c0-4.13-3.88-7.49-8.66-7.49s-8.67,3.36-8.67,7.49S24.67,60,29.45,60Z"/></svg>