<svg width="24" height="24" viewBox="0 0 24 24" fill="current" xmlns="http://www.w3.org/2000/svg">
<path d="M3 8.25C2.58579 8.25 2.25 8.58579 2.25 9C2.25 9.41421 2.58579 9.75 3 9.75V8.25ZM21 9.75C21.4142 9.75 21.75 9.41421 21.75 9C21.75 8.58579 21.4142 8.25 21 8.25V9.75ZM9.57 13.75C9.98421 13.75 10.32 13.4142 10.32 13C10.32 12.5858 9.98421 12.25 9.57 12.25V13.75ZM7 12.25C6.58579 12.25 6.25 12.5858 6.25 13C6.25 13.4142 6.58579 13.75 7 13.75V12.25ZM3 9.75H21V8.25H3V9.75ZM9.57 12.25H7V13.75H9.57V12.25ZM18 18.25H6V19.75H18V18.25ZM6 18.25C4.75721 18.25 3.75 17.2428 3.75 16H2.25C2.25 18.0712 3.92879 19.75 6 19.75V18.25ZM3.75 16V8H2.25V16H3.75ZM3.75 8C3.75 6.75721 4.75721 5.75 6 5.75V4.25C3.92879 4.25 2.25 5.92879 2.25 8H3.75ZM6 5.75H18V4.25H6V5.75ZM18 5.75C19.2428 5.75 20.25 6.75721 20.25 8H21.75C21.75 5.92879 20.0712 4.25 18 4.25V5.75ZM20.25 8V16H21.75V8H20.25ZM20.25 16C20.25 17.2428 19.2428 18.25 18 18.25V19.75C20.0712 19.75 21.75 18.0712 21.75 16H20.25Z" fill="current" stroke="none" />
</svg>
