<?xml version="1.0" encoding="utf-8"?>
<!-- Generator: Adobe Illustrator 25.2.1, SVG Export Plug-In . SVG Version: 6.00 Build 0)  -->
<svg version="1.1" id="Capa_1" xmlns="http://www.w3.org/2000/svg" xmlns:xlink="http://www.w3.org/1999/xlink" x="0px" y="0px"
	 viewBox="0 0 195 160" style="enable-background:new 0 0 195 160;" xml:space="preserve">
<g>
	<path style="fill:#FFFFFF" d="M80.5,89.4c-0.6-0.4-1-0.7-1.3-1c-1.7-1.3-3.3-2.7-5-4c-3.6-2.7-7.6-3.3-11.8-1.6c-6.6,2.7-8.6,11.5-4.2,17.6
		c5.5,7.6,11,15.3,16.5,22.9c1.4,1.9,2.8,3.9,4.3,5.9c-1.3,1.5-1.5,3.3-1.4,5.2c0,3.6,0,7.1,0,10.7c0,4.4,2.4,6.8,6.7,6.8
		c16,0,32,0,48,0c3.8,0,6.4-2.6,6.4-6.3c0-3.8-0.1-7.5,0-11.3c0.1-3.1-0.9-5.4-3.8-6.8c-0.1,0-0.1-0.1-0.1-0.2
		c3.4-4.9,5.1-10.3,5.1-16.2c0-11.7,0-23.4,0-35.1c0-4.9-3.5-8.8-8.4-9.1c-1.9-0.1-3.8,0.4-5.8,0.6c-3.5-4.3-6.7-5.1-13-3
		c-3-3.7-6.8-4.6-11.4-3.4c0-0.9,0-1.6,0-2.4c0-5.3,0-10.7,0-16c0-5.9-4.5-10.5-10.3-10.5c-6,0-10.6,4.4-10.6,10.4
		c0,12.6,0,25.2,0,37.8C80.5,83.2,80.5,86.2,80.5,89.4z"/>
	<path style="fill:#FFFFFF" d="M117.9,46.9c1.8,0,3.7,0,5.5,0c2,0,3.3-1.2,3.3-3c0-1.8-1.3-3-3.2-3c-3.7,0-7.4,0-11,0c-1.9,0-3.2,1.3-3.2,3
		c0,1.8,1.3,3,3.3,3.1C114.3,46.9,116.1,46.9,117.9,46.9z"/>
	<path style="fill:#FFFFFF" d="M63.7,46.9c1.8,0,3.7,0,5.5,0c2,0,3.3-1.3,3.3-3.1c0-1.7-1.3-3-3.2-3c-3.7,0-7.4,0-11,0c-1.9,0-3.2,1.2-3.2,3
		c0,1.8,1.3,3,3.3,3.1C60.1,46.9,61.9,46.9,63.7,46.9z"/>
	<path style="fill:#FFFFFF" d="M68.2,17.6c-1.7,0.1-2.7,0.6-3.2,1.8c-0.5,1.3-0.4,2.4,0.6,3.4c2.6,2.7,5.3,5.3,8,8c1.3,1.3,3.2,1.3,4.4,0.1
		c1.2-1.2,1.1-3.1-0.2-4.4c-2.6-2.6-5.2-5.2-7.8-7.8C69.4,18.2,68.5,17.9,68.2,17.6z"/>
	<path style="fill:#FFFFFF" d="M106.2,31.9c0.4-0.2,1.2-0.4,1.8-0.9c2.8-2.7,5.5-5.4,8.2-8.2c1.2-1.2,1.1-3.1-0.1-4.2
		c-1.1-1.1-2.9-1.2-4.1-0.1c-0.7,0.6-1.3,1.2-1.9,1.9c-2.1,2.1-4.2,4.2-6.3,6.3c-1,1-1.2,2.2-0.7,3.4
		C103.7,31.2,104.6,31.7,106.2,31.9z"/>
	<path style="fill:#FFFFFF" d="M93.9,16.8c0-1.9,0-3.8,0-5.6c0-1.8-1.3-3.1-3-3.1c-1.7,0-3,1.3-3,3.2c0,3.7,0,7.4,0,11.2c0,1.9,1.3,3.2,3,3.2
		c1.7,0,3-1.3,3-3.2C93.9,20.5,93.9,18.7,93.9,16.8z"/>
	<path style="fill:#A166C4" d="M80.5,89.4c0-3.2,0-6.2,0-9.1c0-12.6,0-25.2,0-37.8c0-6,4.6-10.4,10.6-10.4c5.8,0,10.3,4.5,10.3,10.5
		c0,5.3,0,10.7,0,16c0,0.8,0,1.5,0,2.4c4.6-1.2,8.4-0.2,11.4,3.4c6.2-2.1,9.5-1.3,13,3c2.1-0.2,4-0.7,5.8-0.6c5,0.3,8.4,4.1,8.4,9.1
		c0,11.7,0,23.4,0,35.1c0,6-1.8,11.4-5.1,16.2c0,0.1,0.1,0.2,0.1,0.2c2.8,1.4,3.8,3.7,3.8,6.8c-0.1,3.8,0,7.5,0,11.3
		c0,3.8-2.6,6.3-6.4,6.3c-16,0-32,0-48,0c-4.4,0-6.7-2.4-6.7-6.8c0-3.6,0-7.1,0-10.7c0-1.9,0.1-3.7,1.4-5.2c-1.4-2-2.9-4-4.3-5.9
		c-5.5-7.6-11-15.3-16.5-22.9c-4.4-6.1-2.3-14.9,4.2-17.6c4.2-1.7,8.2-1.1,11.8,1.6c1.7,1.3,3.3,2.7,5,4
		C79.5,88.7,79.9,89,80.5,89.4z M86.5,68.7C86.5,68.7,86.5,68.7,86.5,68.7c0,8.5,0,17,0,25.5c0,0.5,0,1.1-0.1,1.6
		c-0.5,2.8-3.2,3.7-5.3,2C80,96.9,79,96,77.9,95.2c-2.5-2-4.9-4.1-7.5-6.1c-1.8-1.4-3.9-1.7-6-0.6c-2,1-2.7,2.8-2.5,4.9
		c0.1,1.2,0.5,2.5,1.2,3.4C68.8,105,74.7,113,80.5,121c1.2,1.7,2.5,3.4,3.7,5c0.5,0.7,1.2,1.1,2.1,1c1.6-0.1,3.3,0,4.9,0
		c11.5,0,23,0,34.5,0c0.6,0,1.4-0.1,1.7-0.5c3.9-4.1,6.3-8.9,6.3-14.5c0.1-12.1,0.1-24.1,0-36.2c0-1.8-1.5-3.1-3.4-3.1
		c-2,0-3.4,1.3-3.4,3.1c0,1.7,0,3.4,0,5.2c0,2.1-1.2,3.4-3,3.4c-1.8,0-2.9-1.3-3-3.4c0-2.8,0-5.7,0-8.5c0-1.9-1.4-3.3-3.4-3.3
		c-2,0-3.4,1.3-3.4,3.2c0,1.8,0,3.6,0,5.4c-0.1,1.9-1.4,3.2-3.3,3.1c-1.6-0.1-2.7-1.3-2.8-3.2c0-2.6,0-5.2,0-7.8
		c0-2.2-1.3-3.5-3.4-3.5c-2.1,0-3.4,1.3-3.4,3.5c0,2.5,0,5.1,0,7.6c0,2.1-1.2,3.4-3,3.4c-1.8,0-3-1.3-3-3.4c0-4.1,0-8.3,0-12.4
		c0-7.5,0-15.1,0-22.6c0-2.4-1.5-4.1-3.7-4.4c-2.9-0.4-5.1,1.6-5.1,4.7C86.5,51.5,86.5,60.1,86.5,68.7z M83.6,145.9
		c16.4,0,32.6,0,48.9,0c0-4.3,0-8.5,0-12.7c-16.3,0-32.6,0-48.9,0C83.6,137.4,83.6,141.6,83.6,145.9z"/>
	<path style="fill:#A166C4" d="M117.9,46.9c-1.8,0-3.6,0-5.4,0c-2,0-3.3-1.3-3.3-3.1c0-1.7,1.3-3,3.2-3c3.7,0,7.4,0,11,0c2,0,3.2,1.2,3.2,3
		c0,1.8-1.3,3-3.3,3C121.5,46.9,119.7,46.9,117.9,46.9z"/>
	<path style="fill:#A166C4" d="M63.7,46.9c-1.8,0-3.6,0-5.4,0c-2,0-3.3-1.3-3.3-3.1c0-1.7,1.3-3,3.2-3c3.7,0,7.4,0,11,0c1.9,0,3.2,1.3,3.2,3
		c0,1.8-1.3,3-3.3,3.1C67.4,46.9,65.6,46.9,63.7,46.9z"/>
	<path style="fill:#A166C4" d="M68.2,17.6c0.4,0.2,1.2,0.5,1.8,1.1c2.6,2.6,5.2,5.2,7.8,7.8c1.3,1.3,1.4,3.2,0.2,4.4
		c-1.2,1.2-3.1,1.2-4.4-0.1c-2.7-2.6-5.3-5.3-8-8c-1-1-1.2-2.2-0.6-3.4C65.5,18.2,66.5,17.7,68.2,17.6z"/>
	<path style="fill:#A166C4" d="M106.2,31.9c-1.6-0.2-2.6-0.7-3-1.9c-0.5-1.3-0.3-2.4,0.7-3.4c2.1-2.1,4.2-4.2,6.3-6.3
		c0.6-0.6,1.2-1.3,1.9-1.9c1.3-1.1,3-1,4.1,0.1c1.2,1.1,1.2,3,0.1,4.2c-2.7,2.8-5.4,5.5-8.2,8.2C107.5,31.5,106.6,31.7,106.2,31.9z"
		/>
	<path style="fill:#A166C4" d="M93.9,16.8c0,1.8,0,3.7,0,5.5c0,1.9-1.2,3.2-3,3.2c-1.8,0-3-1.3-3-3.2c0-3.7,0-7.4,0-11.2c0-1.9,1.3-3.2,3-3.2
		c1.7,0,2.9,1.3,3,3.1C93.9,13.1,93.9,14.9,93.9,16.8z"/>
</g>
</svg>
