<?xml version="1.0" encoding="utf-8"?>
<!-- Generator: Adobe Illustrator 25.2.1, SVG Export Plug-In . SVG Version: 6.00 Build 0)  -->
<svg version="1.1" id="Capa_1" xmlns="http://www.w3.org/2000/svg" xmlns:xlink="http://www.w3.org/1999/xlink" x="0px" y="0px"
	 viewBox="0 0 108.4 161.1" style="enable-background:new 0 0 108.4 161.1;" xml:space="preserve">
<g>
	<path style="fill:#FFFFFF" d="M74.5,48.5c1.8,0,3.7,0,5.5,0c2,0,3.3-1.2,3.3-3s-1.3-3-3.2-3c-3.7,0-7.4,0-11,0c-1.9,0-3.2,1.3-3.2,3
		c0,1.8,1.3,3,3.3,3.1C70.9,48.5,72.7,48.5,74.5,48.5z"/>
	<path style="fill:#FFFFFF" d="M20.3,48.5c1.8,0,3.7,0,5.5,0c2,0,3.3-1.3,3.3-3.1c0-1.7-1.3-3-3.2-3c-3.7,0-7.4,0-11,0c-1.9,0-3.2,1.2-3.2,3
		s1.3,3,3.3,3.1C16.7,48.5,18.5,48.5,20.3,48.5z"/>
	<path style="fill:#FFFFFF" d="M24.8,19.2c-1.7,0.1-2.7,0.6-3.2,1.8c-0.5,1.3-0.4,2.4,0.6,3.4c2.6,2.7,5.3,5.3,8,8c1.3,1.3,3.2,1.3,4.4,0.1
		s1.1-3.1-0.2-4.4c-2.6-2.6-5.2-5.2-7.8-7.8C26,19.8,25.1,19.5,24.8,19.2z"/>
	<path style="fill:#FFFFFF" d="M62.8,33.5c0.4-0.2,1.2-0.4,1.8-0.9c2.8-2.7,5.5-5.4,8.2-8.2c1.2-1.2,1.1-3.1-0.1-4.2
		c-1.1-1.1-2.9-1.2-4.1-0.1c-0.7,0.6-1.3,1.2-1.9,1.9c-2.1,2.1-4.2,4.2-6.3,6.3c-1,1-1.2,2.2-0.7,3.4C60.3,32.8,61.2,33.3,62.8,33.5
		z"/>
	<path style="fill:#FFFFFF" d="M50.5,18.4c0-1.9,0-3.8,0-5.6s-1.3-3.1-3-3.1s-3,1.3-3,3.2c0,3.7,0,7.4,0,11.2c0,1.9,1.3,3.2,3,3.2
		s3-1.3,3-3.2C50.5,22.1,50.5,20.3,50.5,18.4z"/>
	<path d="M37.1,91c0-3.2,0-6.2,0-9.1c0-12.6,0-25.2,0-37.8c0-6,4.6-10.4,10.6-10.4c5.8,0,10.3,4.5,10.3,10.5c0,5.3,0,10.7,0,16
		c0,0.8,0,1.5,0,2.4c4.6-1.2,8.4-0.2,11.4,3.4c6.2-2.1,9.5-1.3,13,3c2.1-0.2,4-0.7,5.8-0.6c5,0.3,8.4,4.1,8.4,9.1
		c0,11.7,0,23.4,0,35.1c0,6-1.8,11.4-5.1,16.2c0,0.1,0.1,0.2,0.1,0.2c2.8,1.4,3.8,3.7,3.8,6.8c-0.1,3.8,0,7.5,0,11.3
		s-2.6,6.3-6.4,6.3c-16,0-32,0-48,0c-4.4,0-6.7-2.4-6.7-6.8c0-3.6,0-7.1,0-10.7c0-1.9,0.1-3.7,1.4-5.2c-1.4-2-2.9-4-4.3-5.9
		c-5.5-7.6-11-15.3-16.5-22.9c-4.4-6.1-2.3-14.9,4.2-17.6c4.2-1.7,8.2-1.1,11.8,1.6c1.7,1.3,3.3,2.7,5,4
		C36.1,90.3,36.5,90.6,37.1,91z M43.1,70.3L43.1,70.3c0,8.5,0,17,0,25.5c0,0.5,0,1.1-0.1,1.6c-0.5,2.8-3.2,3.7-5.3,2
		c-1.1-0.9-2.1-1.8-3.2-2.6c-2.5-2-4.9-4.1-7.5-6.1c-1.8-1.4-3.9-1.7-6-0.6c-2,1-2.7,2.8-2.5,4.9c0.1,1.2,0.5,2.5,1.2,3.4
		c5.7,8.2,11.6,16.2,17.4,24.2c1.2,1.7,2.5,3.4,3.7,5c0.5,0.7,1.2,1.1,2.1,1c1.6-0.1,3.3,0,4.9,0c11.5,0,23,0,34.5,0
		c0.6,0,1.4-0.1,1.7-0.5c3.9-4.1,6.3-8.9,6.3-14.5c0.1-12.1,0.1-24.1,0-36.2c0-1.8-1.5-3.1-3.4-3.1c-2,0-3.4,1.3-3.4,3.1
		c0,1.7,0,3.4,0,5.2c0,2.1-1.2,3.4-3,3.4s-2.9-1.3-3-3.4c0-2.8,0-5.7,0-8.5c0-1.9-1.4-3.3-3.4-3.3s-3.4,1.3-3.4,3.2
		c0,1.8,0,3.6,0,5.4c-0.1,1.9-1.4,3.2-3.3,3.1c-1.6-0.1-2.7-1.3-2.8-3.2c0-2.6,0-5.2,0-7.8c0-2.2-1.3-3.5-3.4-3.5s-3.4,1.3-3.4,3.5
		c0,2.5,0,5.1,0,7.6c0,2.1-1.2,3.4-3,3.4s-3-1.3-3-3.4c0-4.1,0-8.3,0-12.4c0-7.5,0-15.1,0-22.6c0-2.4-1.5-4.1-3.7-4.4
		c-2.9-0.4-5.1,1.6-5.1,4.7C43.1,53.1,43.1,61.7,43.1,70.3z M40.2,147.5c16.4,0,32.6,0,48.9,0c0-4.3,0-8.5,0-12.7
		c-16.3,0-32.6,0-48.9,0C40.2,139,40.2,143.2,40.2,147.5z"/>
	<path d="M74.5,48.5c-1.8,0-3.6,0-5.4,0c-2,0-3.3-1.3-3.3-3.1c0-1.7,1.3-3,3.2-3c3.7,0,7.4,0,11,0c2,0,3.2,1.2,3.2,3s-1.3,3-3.3,3
		C78.1,48.5,76.3,48.5,74.5,48.5z"/>
	<path d="M20.3,48.5c-1.8,0-3.6,0-5.4,0c-2,0-3.3-1.3-3.3-3.1c0-1.7,1.3-3,3.2-3c3.7,0,7.4,0,11,0c1.9,0,3.2,1.3,3.2,3
		c0,1.8-1.3,3-3.3,3.1C24,48.5,22.2,48.5,20.3,48.5z"/>
	<path d="M24.8,19.2c0.4,0.2,1.2,0.5,1.8,1.1c2.6,2.6,5.2,5.2,7.8,7.8c1.3,1.3,1.4,3.2,0.2,4.4s-3.1,1.2-4.4-0.1
		c-2.7-2.6-5.3-5.3-8-8c-1-1-1.2-2.2-0.6-3.4C22.1,19.8,23.1,19.3,24.8,19.2z"/>
	<path d="M62.8,33.5c-1.6-0.2-2.6-0.7-3-1.9c-0.5-1.3-0.3-2.4,0.7-3.4c2.1-2.1,4.2-4.2,6.3-6.3c0.6-0.6,1.2-1.3,1.9-1.9
		c1.3-1.1,3-1,4.1,0.1c1.2,1.1,1.2,3,0.1,4.2c-2.7,2.8-5.4,5.5-8.2,8.2C64.1,33.1,63.2,33.3,62.8,33.5z"/>
	<path d="M50.5,18.4c0,1.8,0,3.7,0,5.5c0,1.9-1.2,3.2-3,3.2s-3-1.3-3-3.2c0-3.7,0-7.4,0-11.2c0-1.9,1.3-3.2,3-3.2s2.9,1.3,3,3.1
		C50.5,14.7,50.5,16.5,50.5,18.4z"/>
</g>
</svg>
