<?xml version="1.0" encoding="utf-8"?>
<!-- Generator: Adobe Illustrator 23.0.5, SVG Export Plug-In . SVG Version: 6.00 Build 0)  -->
<svg version="1.1" id="Bold" xmlns="http://www.w3.org/2000/svg" xmlns:xlink="http://www.w3.org/1999/xlink" x="0px" y="0px"
	 viewBox="0 0 512 512" style="enable-background:new 0 0 512 512;" xml:space="preserve">
<g>
	<path d="M510.3,227c-1-0.6-1.9-1.3-2.8-1.9c-2.1-1.5-4.3-3-6.8-4c-10.1-4.2-20.4-8-29.1-11.2c-2.3-0.8-3.3-2-3.8-4.4
		c-5.1-22-13.9-43.5-26.4-64.1c-0.7-1.1-0.8-3.5-0.3-4.8c4.7-11.4,9.2-21.4,13.6-30.6c2.7-5.7,1.9-10.2-2.5-14.6
		c-10.6-10.3-21.2-20.9-31.5-31.5c-4.3-4.5-8.8-5.2-14.6-2.5c-9.3,4.4-19.3,8.9-30.6,13.6c-1.3,0.5-3.7,0.4-4.8-0.3
		c-20.5-12.5-42.1-21.4-64.1-26.4c-2.5-0.6-3.6-1.6-4.6-4.3c-3.1-8.5-6.9-18.6-11-28.6c-1-2.4-2.5-4.6-4-6.8
		c-0.6-0.9-1.3-1.9-1.9-2.8c-0.3-0.4-0.8-0.7-1.3-0.7h-55.4c-0.5,0-1,0.3-1.3,0.7c-0.6,1-1.3,1.9-1.9,2.8c-1.5,2.1-3,4.3-4,6.8
		c-3.7,9-7.4,18.6-11,28.7c-0.9,2.6-2.3,3.8-5.1,4.4c-21.7,4.9-42.4,13.5-63.2,26c-1.3,0.8-3.8,1-5.2,0.4
		c-11.1-4.6-22.1-9.6-31.6-13.9c-4.9-2.2-9.1-1.5-12.9,2.4C80,71.5,69.4,82.1,59.5,91.8c-4,4-4.8,8.2-2.5,13.3
		c2.6,5.5,5.1,11.2,7.5,16.7c2.1,4.7,4.3,9.6,6.4,14.4c1,2.2,1,3.5-0.2,5.4c-12.5,19.9-21.4,41.4-26.6,64.1c-0.5,2.3-1.5,3.4-4,4.3
		c-5.1,1.9-10.2,3.9-15.2,5.8c-5.3,2-10.8,4.2-16.2,6.2c-5.4,2-7.9,5.7-7.9,11.5c0.1,10.1,0.1,20.3,0.1,30.2c0,4.8,0,9.6,0,14.3
		c0,7.4,1.5,9.6,8.7,12.3c2.5,1,5,1.9,7.5,2.9c7.5,2.9,15.3,6,23,8.8c2.5,0.9,3.6,2.1,4.2,4.7c5.1,22.3,14,43.7,26.4,63.6
		c1.2,1.9,1.3,3.3,0.3,5.4c-2.1,4.5-4.1,9.1-6.1,13.6c-2.5,5.6-5,11.4-7.7,17.1c-2.6,5.5-1.8,9.9,2.5,14.1
		c9.8,9.6,20.2,20,31.8,31.8c4.1,4.2,8.5,5,13.7,2.6c11.2-5.2,21.3-9.7,31.1-13.7c1.5-0.6,4-0.5,5.2,0.3
		c21,12.7,41.8,21.2,63.7,26.2c2.5,0.6,3.7,1.7,4.6,4.3c2.2,6.2,4.6,12.4,7,18.4c1.7,4.3,3.4,8.7,5,13.1c1.9,5.2,5.5,7.7,11,7.7
		c0,0,0.1,0,0.1,0c16.1-0.1,31-0.1,45.5,0c0.1,0,0.1,0,0.2,0c5.7,0,9.2-2.5,11.3-8c1.9-5.2,4-10.5,5.9-15.5c2-5.2,4.1-10.6,6-15.9
		c0.9-2.3,2-3.3,4.4-3.8c22-5.1,43.6-14,64.1-26.5c1.2-0.7,3.5-0.9,4.8-0.3c11.3,4.7,21.3,9.1,30.6,13.6c5.7,2.7,10.2,1.9,14.6-2.5
		c9.4-9.6,19.7-19.9,31.5-31.5c4.3-4.3,5.2-8.7,2.7-14.1c-4.4-9.2-8.9-19.4-13.8-31.1c-0.5-1.3-0.5-3.4,0.1-4.4
		c12.3-20,21.4-41.9,27-65c0.3-1.3,1.9-3.1,3.2-3.6c4.7-2,9.6-3.8,14.3-5.6c5.4-2.1,11-4.2,16.5-6.5c2.3-1,4.1-2.6,5.9-4.3
		c0.8-0.7,1.6-1.4,2.3-2c0.4-0.3,0.6-0.7,0.6-1.2v-54.5C511,227.7,510.7,227.3,510.3,227z M450.7,296.4
		c-4.9,24.4-14.4,47.4-28.3,68.5c-2.8,4.3-3.2,8.4-1,13c2.3,5,4.6,10.1,6.7,15c2.1,4.7,4.2,9.6,6.4,14.3c1.1,2.4,1,3.5-0.7,5.1
		c-7.2,6.8-14.4,14-21.4,21.4c-1.6,1.7-2.7,1.9-5.1,0.8c-4.9-2.3-10-4.5-14.8-6.6c-4.8-2.1-9.7-4.3-14.5-6.5c-4.6-2.1-8.7-1.8-13,1
		c-21.2,14-44.2,23.5-68.5,28.3c-4.9,1-8,3.7-9.8,8.6c-1.6,4.3-3.3,8.6-4.9,12.8c-2.1,5.5-4.3,11.1-6.3,16.8c-1,2.7-2.1,3.5-5,3.3
		c-3.4-0.2-6.8-0.2-10.2-0.1c-2.9,0-5.8,0-8.7,0c-3.4-0.1-7-0.1-10.5,0.1c-2.6,0.2-3.5-0.5-4.5-3.3c-1.9-5.2-3.9-10.3-5.8-15.4
		c-1.8-4.7-3.7-9.5-5.4-14.2c-1.8-4.9-5.1-7.7-10.3-8.8c-24-4.9-46.5-14.1-66.7-27.4c-3.1-2-5.9-3-8.8-3c-2.2,0-4.5,0.6-7,1.8
		c-5.1,2.5-10.3,4.8-15.4,7c-4.1,1.8-8.3,3.7-12.5,5.6c-2.4,1.1-3.5,0.9-5.5-1.1c-6.7-7-13.8-14.1-21.1-21c-1.8-1.7-1.9-2.8-0.9-5.1
		c2.2-4.8,4.4-9.7,6.5-14.5c2.1-4.9,4.4-9.9,6.6-14.8c2.2-4.6,1.9-8.8-1-13c-13.9-21.1-23.4-44.1-28.3-68.4c-1-4.9-3.7-8.1-8.6-9.9
		c-4.8-1.8-9.7-3.6-14.4-5.5c-5.1-2-10.4-4-15.6-5.9c-2.3-0.8-2.9-1.8-2.9-4.3c0.2-11.5,0.2-21,0-29.8c-0.1-2.6,0.6-3.5,3.3-4.5
		c5-1.8,10.1-3.8,15-5.7c4.8-1.8,9.7-3.7,14.5-5.5c5-1.8,7.8-5.1,8.8-10.3c4.9-24,14.2-46.6,27.7-67.1c3.3-5,3.7-9.6,1.2-14.8
		c-2.4-4.9-4.6-9.9-6.7-14.8c-1.9-4.5-4-9.1-6.1-13.5c-1.1-2.4-0.9-3.5,1.1-5.5c7.1-6.8,14.2-13.8,21-21.1c1.7-1.8,2.8-1.9,5.1-0.9
		c4.8,2.2,9.6,4.4,14.3,6.5c4.9,2.2,10,4.4,14.9,6.7c4.6,2.2,8.8,1.9,13.1-1c21-13.9,44-23.4,68.4-28.3c4.9-1,8.1-3.7,9.8-8.7
		c1.9-5.2,3.9-10.4,5.9-15.5c1.8-4.8,3.7-9.7,5.5-14.6c0.9-2.3,1.7-2.9,3.8-2.9c10,0.2,20.3,0.2,30.8,0c2.3,0,3.1,0.5,3.9,2.8
		c1.8,4.9,3.7,9.9,5.6,14.7c1.9,5,3.9,10.2,5.8,15.4c1.8,4.9,5.1,7.7,10.3,8.8c24,4.8,46.4,14.1,66.7,27.4
		c5.4,3.5,10.2,3.9,15.7,1.2c4.9-2.4,9.9-4.6,14.8-6.7c4.3-1.9,8.8-3.8,13.1-5.9c2.4-1.1,3.5-0.9,5.5,1.1c6.8,7.1,13.9,14.2,21.1,21
		c1.8,1.7,1.9,2.7,0.8,5.1c-2.2,4.8-4.4,9.7-6.5,14.4c-2.2,4.9-4.4,9.9-6.7,14.9c-2.2,4.6-1.8,8.8,1,13c13.9,21,23.4,44,28.3,68.5
		c1,4.9,3.6,7.9,8.2,9.6c4.9,1.8,9.8,3.7,14.6,5.5c5,2,10.3,4,15.5,5.9c2.7,1,3.4,1.9,3.3,4.5c-0.3,9.9-0.3,19.9,0,29.8
		c0.1,2.6-0.6,3.6-3.3,4.5c-5.1,1.9-10.3,3.9-15.4,5.8c-4.8,1.9-9.8,3.8-14.7,5.6C454.3,288.5,451.7,291.5,450.7,296.4z"/>
	<path d="M256.2,104.2c-0.1,0-0.2,0-0.3,0c-83.4,0-151.3,67.9-151.6,151.6c-0.1,40.3,15.6,78.3,44.4,107.1
		c28.7,28.8,66.8,44.7,107.2,44.8c0.1,0,0.3,0,0.4,0c40.1,0,78-15.8,106.7-44.4c28.8-28.7,44.7-66.8,44.8-107.2
		c0.1-40.3-15.6-78.4-44.3-107.2C334.7,120.2,296.6,104.3,256.2,104.2z M282.4,351.7c0,0.7-1.1,2.6-1.7,3c-1.7,0.3-3.7,0-5.9-0.4
		c-0.4-0.1-0.8-0.1-1.2-0.2l4.5-8.8c0.3,0.4,0.5,0.7,0.8,1C280.4,348.3,281.7,349.9,282.4,351.7z M259.7,339.2
		c-2.2,5.5-5.2,10.7-8.6,16.4c-0.4,0.7-1.5,1.3-2.3,1.7c-0.2,0.1-0.4,0.2-0.5,0.3c-2-0.1-3.6-0.9-4.5-2.2c-0.7-1.1-0.7-2.4-0.1-3.7
		c2.8-6.1,6.1-12,8.8-16.4c0.7-1.2,1.7-1.9,2.8-2.1c0.2,0,0.3,0,0.5,0c0.7,0,1.5,0.3,2.1,0.8C259.2,335,260.1,338.1,259.7,339.2z
		 M236.2,323.9c-0.1,0.4-0.3,0.8-0.4,1.2c-0.3,0.9-0.5,1.5-0.7,2.1c-3,5.7-6,11.3-8.8,16.6c-1.6,2.9-3.7,3.7-6.3,2.4
		c-1.2-0.6-1.9-1.4-2.2-2.3c-0.5-1.4,0.1-3,0.7-4.1c0.7-1.4,1.4-2.7,2.1-4.1c2.2-4.3,4.4-8.7,7.1-12.7c0.8-1.1,3.3-2.2,5.2-2.2
		c0.1,0,0.2,0,0.3,0c0.5,0,1.6,1.5,2.2,2.2C235.7,323.3,236,323.6,236.2,323.9z M211.1,313.4c-4.1,8.1-8.1,15.5-12.1,22.5
		c-0.4,0.7-1.5,1.3-2.3,1.7c-0.2,0.1-0.4,0.2-0.5,0.3c-2.1-0.1-3.7-0.9-4.5-2.2c-0.7-1.2-0.7-2.6,0-4c3.5-7.1,7.3-14,11.8-22.1
		c0.9-1.7,2.7-3.4,5.6-2c1.3,0.7,2.2,1.5,2.5,2.6C211.9,311.1,211.7,312.2,211.1,313.4z M174.1,315c-1.2-0.8-2.4-3.5-2.2-4.2
		c2.9-6.6,6.3-12.9,10.2-18.8c0.3-0.4,1.7-0.7,3.1-0.7c0.6,0,1.3,0.1,1.8,0.3c0.6,0.2,1.3,1.5,2,2.6c0.3,0.5,0.5,0.9,0.8,1.4
		c-0.9,1.6-1.8,3.1-2.7,4.7c-2.9,5.2-5.7,10.1-8.9,14.8C177.5,315.4,174.8,315.5,174.1,315z M353.4,181.9c-10.2,5.6-19.7,11-29.7,16
		c-1.3,0.6-3.9,1.1-9.3-0.4c-3.3-0.9-6.7-2.3-9.9-3.6c-1.9-0.8-3.8-1.5-5.7-2.2c-6-2.2-11.9-3.2-17.7-3.2c-7.7,0-15.3,1.9-22.7,5.6
		c-1.3,0.7-3.5,0.8-4.5,0.3c-11.3-5.2-22.7-6-33.9-2.5c-12.9,4-24.1,2.4-35.1-5.2c-6.7-4.6-13.7-8.4-21.2-12.4
		c-2.8-1.5-5.6-3-8.5-4.6c27.4-30.8,61.1-46.4,100.4-46.4c0.1,0,0.1,0,0.2,0c42.9,0,78.9,18,107,53.5
		C359.6,178.4,356.5,180.2,353.4,181.9z M213.9,212.3l1.1-0.3c4.5-1.1,9.2-2.2,13.8-2.8c2.3-0.3,4.8-0.2,7.6-0.2c0.5,0,1,0,1.5,0
		c-0.4,0.5-0.7,0.9-1,1.1c-2.7,2.1-5.4,4.1-8.1,6.2c-8.1,6.2-16.5,12.7-25,18.7c-4,2.9-6,5.4-6.4,8.2c-0.4,2.6,0.7,5.5,3.4,9
		c11.8,15.1,27.3,20,46,14.5c7.7-2.2,15.3-5.3,22.4-8.2c10.2-4.2,18.4-3.7,26.7,1.7c8.5,5.6,17.5,10.5,26.3,15.4
		c3.8,2.1,7.7,4.2,11.5,6.4l0.4,0.2c0.9,0.5,1.7,1,2.5,1.5c2.6,1.7,3.3,3.7,2,6.1c-0.7,1.2-1.5,1.9-2.5,2.2c-1.4,0.4-3-0.2-4-0.8
		c-6.4-3.6-12.9-7.2-19.3-10.9l-9.5-5.4c-1-0.6-2.1-1.2-3.1-1.7c-3-1.7-5.8-2.3-8.4-1.8c-2.6,0.5-4.7,2.1-6.1,4.6
		c-2.8,5.1-0.7,10.2,5.4,13.7c5.6,3.2,11.3,6.4,16.9,9.6l7.2,4.1c0.3,0.2,0.7,0.4,1.1,0.6c0.6,0.4,1.3,0.7,1.9,1.1
		c4.3,2.7,2.7,5.4,2.2,6.3c-0.5,0.9-2.1,3.8-6.5,1.3c-6.7-3.7-13.3-7.5-20-11.2l-11.7-6.6c-1.2-0.7-2.5-1.4-3.7-2
		c-6-3.1-11.2-2-13.9,3.1c-2.7,5-0.9,10.1,5,13.4c5.2,2.9,10.4,5.9,15.5,8.7c3.3,1.9,6.6,3.7,9.9,5.6c0.4,0.2,0.8,0.4,1.2,0.6
		c0.6,0.3,1.6,0.8,1.8,1.1c1.7,4.4,1.3,5.4,1.2,5.5c-0.9,1.3-4.2,2.4-5,2c-8.3-4.1-16-8.5-22.9-13.2c-5.7-3.8-10.7-5.6-16.3-5.7
		c-1.1,0-2.8-0.8-3.3-1.6c-4.9-7.5-11.9-11.2-21.2-11.4c-1,0-2.6-0.9-3.2-1.8c-4.3-6.4-10.3-10.1-18.2-11.1
		c-1.1-0.2-2.3-0.9-2.6-1.4c-5.6-10-11.9-14.7-20.6-14.7c-3.5,0-7.4,0.8-11.8,2.3c-2.8-8-10.1-11.2-15.9-13.8
		c-10.6-4.7-21.2-10.2-31.3-15.5l-0.9-0.5c-0.9-0.4-1.9-2.2-1.8-2.9c2.2-20.7,8.6-39.2,19.7-56.7c0.1,0,0.1,0.1,0.2,0.1
		c0.9,0.4,1.7,0.8,2.5,1.2c3.6,2,7.2,4,10.8,6c8.9,4.9,18.2,10.1,27.1,15.4C193.5,213.3,203.2,214.8,213.9,212.3z M125.8,265.8
		c3.1,1.5,6.1,2.9,9.1,4.4c1.2,0.6,2.4,1.3,3.6,1.9c2.6,1.4,5.3,2.9,8.3,3.7c7.8,2,11.5,7,12,16.3c0.1,1.7-0.9,3.9-1.7,5.5
		c-2.6,4.9-5.2,10.8-3.9,17.5c2,10.2,8.4,16.8,19.1,19.4c0.7,7.3,3.5,12.8,8.3,16.9c5.4,4.5,11.8,6.1,20.2,5
		c1.1-0.2,2.9,0.4,3.5,1.1c5.6,6.1,12.4,8.7,20.7,8c1.7-0.1,2.9,0.2,3.2,0.5c12.7,12.6,21.9,13.9,34.9,4.7c1.6,0.4,3.1,0.9,4.6,1.3
		c3.7,1.1,7.2,2.2,10.9,2.3c11.5,0.5,21.2-8,22.6-19.6c0.3-2.3,1-3.1,3.2-4c6.8-2.6,11.5-7.9,13.8-15.6c0.3-1.1,1.8-2.6,2.9-2.8
		c10.8-2.7,17-9.3,18.8-20.1c0.1-0.7,1.1-1.8,1.8-2.1c9.7-3.6,15.2-10.5,16.3-20.6c0.1-0.8,0.8-1.9,1.3-2.1c6.9-3.1,14-6.1,20.9-9
		l4.5-1.9c0.7-0.3,1.5-0.6,2.3-0.9c-6.1,56-58.9,113.2-130.5,113.2c-1.7,0-3.3,0-5-0.1c-82.5-3.1-126.4-73-127.3-123.6L125.8,265.8z
		 M386.9,254.8c-11.1,4.9-22.5,9.8-34.9,14.9c-0.7,0.3-2.2,0.1-3.1-0.4c-8.1-4.6-16.2-9.3-24.1-13.8c-8.8-5.1-17.9-10.3-26.9-15.4
		c-4.5-2.5-9.3-3.8-14.5-3.8c-3.9,0-8.1,0.7-12.6,2.2c-5.1,1.6-10.1,3.5-15.1,5.3c-4,1.5-8.2,3.1-12.4,4.5
		c-9.2,3.1-15.9,2.6-21.7-1.7c0.6-0.5,1.1-0.9,1.7-1.3l5.7-4.6c7.3-5.9,14.6-11.9,21.9-17.8c1.3-1,2.5-2.1,3.8-3.2
		c2.3-2,4.7-4,7.2-5.8c9.9-7,20.6-8.4,31.9-4c4.9,1.9,10.7,4.2,16.7,6.2c8.3,2.9,16.6,2,24.5-2.5c8.3-4.7,16.8-9.4,25-13.9
		c3.2-1.7,6.4-3.5,9.5-5.2c0.9-0.5,1.9-1,2.9-1.5c0.1,0,0.2-0.1,0.2-0.1c10,18.3,15.4,38.4,15.9,59.6
		C388.7,253,387.7,254.5,386.9,254.8z"/>
</g>
</svg>
