<?xml version="1.0" encoding="utf-8"?>
<!-- Generator: Adobe Illustrator 23.0.5, SVG Export Plug-In . SVG Version: 6.00 Build 0)  -->
<svg version="1.1" id="Bold" xmlns="http://www.w3.org/2000/svg" xmlns:xlink="http://www.w3.org/1999/xlink" x="0px" y="0px"
	 viewBox="0 0 512 512" style="enable-background:new 0 0 512 512;" xml:space="preserve">
<g>
	<path d="M511,104.5L511,104.5c0-21.1-11.5-32.7-32.5-32.7H311.8H33.9C12.7,71.9,1,83.5,1,104.6V407c0,21.7,11.4,33.1,33,33.1h444.2
		c21.2,0,32.9-11.6,32.9-32.7C511,280.7,511,231.2,511,104.5z M129.9,230.6v183.6c-32.3,0-64.4,0-96.7,0c-5.8,0-6.2-0.4-6.2-6.2
		c0-44.3,0-88.8,0-133.1v-44.2L129.9,230.6L129.9,230.6z M27.2,204.1V100.3c0.3-1.3,0.8-1.9,2.2-2.2h100.3v106H27.2z M156.5,204.2
		v-106h326.1c1.7,0.3,2,0.5,2.3,2.6v103.4H156.5z M485,230.6v176.7c0,4.5-0.7,5.7-0.9,6c-0.3,0.3-1.3,0.9-5.6,0.9H156.5V230.6H485z"
		/>
	<path d="M239.2,397.6h176.8c2.7,0,4.9-2.2,4.9-4.9v-79.9c0-2.7-2.2-4.9-4.9-4.9h-48.3c-2.7,0-4.9,2.2-4.9,4.9v59h-6.4V251.7
		c0-2.7-2.2-4.9-4.9-4.9h-48.3c-2.7,0-4.9,2.2-4.9,4.9v120h-6.4V284c0-2.7-2.2-4.9-4.9-4.9h-48c-2.7,0-4.9,2.2-4.9,4.9v108.8
		C234.3,395.5,236.5,397.6,239.2,397.6z M265.9,305.1v66.8h-5.7v-66.8H265.9z M330.5,272.7v99.1h-5.7v-99.1H330.5z M395,333.9v38
		h-5.7v-38H395z"/>
	<g>
		<path d="M223,113L223,113c-20.4,0-37.1,16.4-37.3,36.6c-0.1,10,3.7,19.4,10.7,26.6c7,7.1,16.2,11.1,26.1,11.2c0.1,0,0.2,0,0.3,0
			c9.8,0,19.1-3.8,26.2-10.8c7.1-7,11-16.3,11.1-26.2c0.1-9.9-3.8-19.3-10.8-26.4C242.3,116.9,233,113,223,113z M223,161.4
			c-2.9,0-5.9-1.2-8-3.3c-2.2-2.2-3.3-5-3.3-8c0.1-6.1,5.1-11.1,11.2-11.1c0,0,0,0,0.1,0c6.1,0,11.2,5.2,11.2,11.2
			C234.2,156.2,229.1,161.3,223,161.4z"/>
		<path d="M319.8,113L319.8,113c-9.9,0-19.2,3.9-26.3,11c-7.1,7.1-10.9,16.5-10.9,26.4c0.1,20.3,16.6,36.9,36.9,37
			c0.1,0,0.1,0,0.2,0c9.9,0,19.1-3.8,26.2-10.8c7.1-7.1,11-16.4,11-26.2c0-9.9-3.8-19.3-10.9-26.4C339,116.8,329.7,113,319.8,113z
			 M331,150.4c-0.1,6-5.2,11-11.2,11h-0.1c-2.9,0-5.8-1.3-7.9-3.4c-2.2-2.3-3.2-5.1-3.1-8.1c0.2-5.9,5.3-10.8,11.3-10.8
			c0.1,0,0.2,0,0.3,0C326.1,139.1,331.1,144.3,331,150.4z"/>
		<path d="M416.6,113L416.6,113L416.6,113c-9.9,0-19.2,3.9-26.3,10.9c-7.1,7.1-10.9,16.4-10.9,26.4c0,20.3,16.6,36.9,36.9,37.1
			c0.1,0,0.2,0,0.3,0c9.8,0,19.1-3.8,26.2-10.8s11-16.3,11.1-26.2c0-9.9-3.8-19.3-10.9-26.4C435.9,116.8,426.6,113,416.6,113z
			 M427.8,150.2c0,3-1.3,5.8-3.4,7.9c-2.3,2.2-5.1,3.3-8,3.2l0,0c-6-0.2-11-5.4-10.9-11.5s5.1-11,11.2-11h0.1
			C422.7,139,427.8,144.1,427.8,150.2z"/>
	</g>
	<path d="M112.9,115.3H44.3c-2.4,0-4.2,1.9-4.2,4.2v63.3c0,2.4,1.9,4.2,4.2,4.2h68.7c2.4,0,4.2-1.9,4.2-4.2v-63.3
		C117.1,117.1,115.2,115.3,112.9,115.3z M62.3,164.8v-27.3h32.6v27.3H62.3z"/>
	<path d="M44.3,315.1h68.7c2.4,0,4.2-1.9,4.2-4.2v-63.3c0-2.4-1.9-4.2-4.2-4.2H44.3c-2.4,0-4.2,1.9-4.2,4.2v63.3
		C40,313.3,41.9,315.1,44.3,315.1z M94.9,265.8v27.3H62.3v-27.3H94.9z"/>
	<path d="M44.3,399.5h68.7c2.4,0,4.2-1.9,4.2-4.2V332c0-2.4-1.9-4.2-4.2-4.2H44.3c-2.4,0-4.2,1.9-4.2,4.2v63.3
		C40,397.6,41.9,399.5,44.3,399.5z M94.9,350.2v27.3H62.3v-27.3H94.9z"/>
</g>
</svg>
