<svg id="Layer_1" data-name="Layer 1" xmlns="http://www.w3.org/2000/svg" viewBox="0 0 50 50"><defs><style>.cls-1{fill:none;}</style></defs><title>delivery</title><rect class="cls-1" width="50" height="50"/><path d="M40.91,16.67H35.74l2.59-8.34H12.11l-.72,1.73-1,2.44H32.33l-6,18.75h-11a6.18,6.18,0,0,0-9.25,0H4.57L2.84,35.42H4.49a6.25,6.25,0,0,0,12.5,0h12.5a6.25,6.25,0,1,0,12.5,0h3.17l2-10.42ZM10.74,37.5a2.09,2.09,0,1,1,2.09-2.08A2.09,2.09,0,0,1,10.74,37.5Zm25,0a2.09,2.09,0,1,1,2.09-2.08A2.09,2.09,0,0,1,35.74,37.5ZM33.33,25l1.5-5.21,4.3,0L43,25Z"/><polygon points="19.92 16.33 8.05 16.33 6.29 20.33 18.16 20.33 19.92 16.33"/><polygon points="16.8 23.33 4.97 23.33 3.2 27.33 15.04 27.33 16.8 23.33"/></svg>