<?xml version="1.0" encoding="UTF-8" standalone="no"?> <svg id="a1005c6b-ebf6-44ab-8b4d-dace951f413d" data-name="glyph" xmlns="http://www.w3.org/2000/svg" viewBox="0 0 64 64"><title>1</title><path d="M15,32.14A11.01508,11.01508,0,0,0,4,43.15c.6,14.6,21.41,14.58,22.01,0A11.02363,11.02363,0,0,0,15,32.14Zm0,19.08a8.0789,8.0789,0,0,1-8.07-8.07c.43-10.72,15.72-10.7,16.15,0A8.081,8.081,0,0,1,15,51.22Z"/><path d="M13.82239,16.64a7.9812,7.9812,0,0,0-3.44947,4.48l-3.71221,12.199A12.62751,12.62751,0,0,1,26.0108,36.64233l.00006-13.2088A7.99678,7.99678,0,0,0,13.82239,16.64Z"/><path d="M18.78607,13.51733a9.43128,9.43128,0,0,1,5.24768,2.10328V14.3902a4.76256,4.76256,0,0,0-4.92169-4.53247,4.76164,4.76164,0,0,0-4.92163,4.4273A9.6768,9.6768,0,0,1,18.78607,13.51733Z"/><path d="M49,32.19A11.02368,11.02368,0,0,0,37.99,43.2c.6,14.59,21.41,14.59,22.01,0A11.01512,11.01512,0,0,0,49,32.19Zm0,19.08A8.081,8.081,0,0,1,40.92,43.2c.43-10.71,15.72-10.71,16.15,0A8.07889,8.07889,0,0,1,49,51.27Z"/><path d="M48.99982,30.143a12.51793,12.51793,0,0,1,8.33947,3.1759L53.62708,21.10938a7.99269,7.99269,0,0,0-15.63794,2.33471V36.64215A12.5931,12.5931,0,0,1,48.99982,30.143Z"/><path d="M49.80957,14.277c-.2973-5.87171-9.61359-5.92426-9.84332.08423v1.25134A9.57819,9.57819,0,0,1,49.80957,14.277Z"/><rect x="27.98279" y="23.84583" width="8.03455" height="5.14252"/><path d="M27.98,35.96h8.04V30.94H27.98ZM32,32.39a1.05519,1.05519,0,0,1,0,2.11A1.05519,1.05519,0,0,1,32,32.39Z"/></svg>