<?xml version="1.0" encoding="utf-8"?>
<!-- Generator: Adobe Illustrator 25.2.1, SVG Export Plug-In . SVG Version: 6.00 Build 0)  -->
<svg version="1.1" id="Capa_1" xmlns="http://www.w3.org/2000/svg" xmlns:xlink="http://www.w3.org/1999/xlink" x="0px" y="0px"
	 viewBox="0 0 195 160" style="enable-background:new 0 0 195 160;" xml:space="preserve">
<g>
	<g>
		<polygon style="fill:#FFFFFF" points="137.6,32.4 115.5,9.7 60.8,7.8 60.8,25.8 60.8,108.3 133.5,108.3 137.6,99.9 		"/>
		<g>
			<g>
				<path class="st1" d="M112.8,113.1c-16.8,0-33.5,0-50.3,0c-3.8,0-5.4-1.7-5.4-5.5c0-32.2,0-64.5,0-96.7c0-3.9,1.6-5.5,5.4-5.5
					c17.4,0,34.7,0,52.1,0c1.8,0,3.5,0.7,4.8,2c7,7.1,14.1,14.1,21.2,21.1c1.2,1.2,1.9,2.9,1.9,4.6c0,11.1,0,22.2,0,33.3
					c0,0.5,0,1,0,1.7l0,36.7c0,4.5-3.7,8.2-8.2,8.2L112.8,113.1 M133.4,69.4c0-0.1,0.1-23,0-34.2c0-0.6-0.3-1.3-0.7-1.7
					c-6.1-6.1-12.2-12.2-18.3-18.2c-0.5-0.5-1.4-0.9-2.2-0.9c-14.9,0-29.8,0-44.6,0c-0.5,0-0.9,0-1.4,0V104c15.1,0,30.1,0,45,0h14.6
					c4.3,0,7.8-3.5,7.8-7.8L133.4,69.4z"/>
				<g>
					<path class="st1" d="M99.8,54.8c-6.6,0-13.1,0-19.7,0c-3,0-5-1.8-5.1-4.4c0-2.7,2-4.5,5-4.5c13.2,0,26.5,0,39.7,0
						c2.3,0,3.9,1.2,4.5,3.3c0.6,1.8-0.1,3.9-1.8,4.9c-0.9,0.5-2,0.8-3,0.8C112.9,54.8,106.4,54.8,99.8,54.8z"/>
					<path class="st1" d="M99.8,72.7c-6.6,0-13.1,0-19.7,0c-3,0-5-1.8-5.1-4.4c0-2.7,2-4.5,5-4.5c13.2,0,26.5,0,39.7,0
						c2.3,0,3.9,1.2,4.5,3.3c0.6,1.8-0.1,3.9-1.8,4.9c-0.9,0.5-2,0.8-3,0.8C112.9,72.8,106.4,72.7,99.8,72.7z"/>
					<path class="st1" d="M86.3,36.9c-2.2,0-4.4,0-6.6,0c-2.7,0-4.7-2-4.7-4.6c0-2.5,2-4.4,4.7-4.4c4.4,0,8.8,0,13.2,0
						c2.6,0,4.6,2,4.6,4.5c0,2.5-2,4.4-4.6,4.5C90.7,36.9,88.5,36.9,86.3,36.9z"/>
					<path class="st1" d="M106.5,36.9c-2.4,0-4.4-2.1-4.4-4.5c0-2.5,2-4.4,4.5-4.4c2.5,0,4.5,2.1,4.5,4.6
						C111,34.9,108.9,36.9,106.5,36.9z"/>
					<path class="st1" d="M124.5,32.3c0,2.4-1.9,4.5-4.4,4.5c-2.4,0.1-4.5-1.9-4.6-4.3c-0.1-2.5,1.9-4.6,4.5-4.6
						C122.4,27.9,124.5,29.9,124.5,32.3z"/>
				</g>
			</g>
		</g>
	</g>
	<g>
		<path style="fill:#FFFFFF" d="M126.7,98.8c-1.4,0-2.9,0.1-4.2,0.3V59l-22.1-22.7l-54.8-1.8v17.9v82.6h56.7c3.9,9.6,13.3,16.4,24.3,16.4
			c14.5,0,26.2-11.8,26.2-26.2S141.2,98.8,126.7,98.8z"/>
		<g>
			<g>
				<path class="st1" d="M126.7,93.6c5.7,0.1,10.9,1.4,15.7,4.2c11.4,6.4,17.7,19.8,15.4,32.6c-2.3,13.1-12.6,23.4-25.4,25.5
					c-13.8,2.3-26.9-4-33.5-16.4c-0.5-0.9-1.1-1-1.9-1c-16.8,0-33.5,0-50.3,0c-3.8,0-5.4-1.7-5.4-5.5c0-32.2,0-64.5,0-96.7
					c0-3.9,1.6-5.5,5.4-5.5c17.4,0,34.7,0,52.1,0c1.9,0,3.4,0.6,4.7,1.9c7,7.1,14.1,14.2,21.2,21.2c1.3,1.3,1.9,2.7,1.9,4.6
					c0,11.1,0,22.2,0,33.3C126.7,92.5,126.7,93,126.7,93.6z M117.7,94.8c0-0.1,0-0.4,0-0.7c0-11.2,0-22.3,0-33.5
					c0-0.6-0.3-1.3-0.7-1.7c-6.1-6.1-12.2-12.2-18.3-18.2c-0.5-0.5-1.4-0.9-2.2-0.9c-14.9,0-29.8,0-44.6,0c-0.5,0-0.9,0-1.4,0
					c0,30,0,59.8,0,89.6c15.1,0,30.1,0,45,0C94.4,112.5,101.8,101,117.7,94.8z M126.7,147.5c12.3,0,22.4-10.1,22.4-22.4
					c0-12.5-10.1-22.5-22.6-22.5c-12.3,0-22.3,10.1-22.3,22.6C104.2,137.4,114.4,147.5,126.7,147.5z"/>
				<g>
					<path class="st1" d="M84,80.2c-6.6,0-13.1,0-19.7,0c-3,0-5-1.8-5.1-4.4c0-2.7,2-4.5,5-4.5c13.2,0,26.5,0,39.7,0
						c2.3,0,3.9,1.2,4.5,3.3c0.6,1.8-0.1,3.9-1.8,4.9c-0.9,0.5-2,0.8-3,0.8C97.1,80.3,90.6,80.2,84,80.2z"/>
					<path class="st1" d="M84,98.2c-6.6,0-13.1,0-19.7,0c-3,0-5-1.8-5.1-4.4c0-2.7,2-4.5,5-4.5c13.2,0,26.5,0,39.7,0
						c2.3,0,3.9,1.2,4.5,3.3c0.6,1.8-0.1,3.9-1.8,4.9c-0.9,0.5-2,0.8-3,0.8C97.1,98.2,90.6,98.2,84,98.2z"/>
					<path class="st1" d="M70.6,62.3c-2.2,0-4.4,0-6.6,0c-2.7,0-4.7-2-4.7-4.6c0-2.5,2-4.4,4.7-4.4c4.4,0,8.8,0,13.2,0
						c2.6,0,4.6,2,4.6,4.5c0,2.5-2,4.4-4.6,4.5C75,62.3,72.8,62.3,70.6,62.3z"/>
					<path class="st1" d="M90.7,62.3c-2.4,0-4.4-2.1-4.4-4.5c0-2.5,2-4.4,4.5-4.4c2.5,0,4.5,2.1,4.5,4.6
						C95.2,60.3,93.1,62.3,90.7,62.3z"/>
					<path class="st1" d="M108.7,57.7c0,2.4-1.9,4.5-4.4,4.5c-2.4,0.1-4.5-1.9-4.6-4.3c-0.1-2.5,1.9-4.6,4.5-4.6
						C106.6,53.3,108.7,55.3,108.7,57.7z"/>
				</g>
			</g>
			<path class="st1" d="M131.2,129.6c0,1.5,0,2.9,0,4.3c0,2.7-2,4.7-4.5,4.7c-2.5,0-4.4-2-4.4-4.6c0-1.4,0-2.8,0-4.3
				c-1.5,0-2.9,0-4.3,0c-2.7,0-4.7-2-4.7-4.5c0-2.6,2-4.4,4.7-4.5c1.3,0,2.7,0,4.2,0c0-1.4,0-2.7,0-4.1c0-2.9,1.9-4.9,4.5-4.9
				c2.6,0,4.5,2,4.5,4.8c0,1.3,0,2.6,0,4.1c1.4,0,2.7,0,4.1,0c2.9,0,4.9,1.8,4.9,4.4c0,2.6-2,4.5-5,4.5
				C133.9,129.6,132.6,129.6,131.2,129.6z"/>
		</g>
	</g>
</g>
</svg>
