<svg width="19" height="18" viewBox="0 0 19 18" fill="none" xmlns="http://www.w3.org/2000/svg">
<path d="M11.1276 3.00842L1.21339 12.9234C1.16351 12.9734 1.1275 13.0366 1.11035 13.1045L0.0114462 17.5152C-0.0214251 17.648 0.0175917 17.7892 0.11449 17.8861C0.187808 17.9594 0.287708 18 0.389894 18C0.421194 18 0.453207 17.9961 0.484364 17.9883L4.89511 16.8892C4.96386 16.8721 5.02631 16.8362 5.07619 16.7863L14.9913 6.87208L11.1276 3.00842Z" fill="current"/>
<path d="M17.4475 1.65655L16.3439 0.552934C15.6063 -0.184669 14.3207 -0.183954 13.584 0.552934L12.2321 1.9048L16.0956 5.76832L17.4475 4.41645C17.8159 4.04815 18.0189 3.55794 18.0189 3.03657C18.0189 2.5152 17.8159 2.02499 17.4475 1.65655Z" fill="current"/>
</svg>
