<svg viewBox="0 0 100 77" fill="none" xmlns="http://www.w3.org/2000/svg">
<path d="M91.2109 0H8.78907C7.43614 0 6.16953 0.332618 5.02364 0.88086L49.8047 45.6619L59.8416 36.016C59.8416 36.016 59.8424 36.015 59.8426 36.0146C59.8428 36.0143 59.8435 36.0139 59.8435 36.0139L94.9777 0.881641C93.8316 0.333008 92.5643 0 91.2109 0Z" fill="current"/>
<path d="M99.1203 5.025L66.0572 38.0863L99.1191 71.1482C99.6674 70.0023 100 68.7357 100 67.3828V8.78906C100 7.43691 99.6682 6.17051 99.1203 5.025Z" fill="current"/>
<path d="M0.880859 5.02363C0.332617 6.16953 0 7.43613 0 8.78906V67.3828C0 68.735 0.332227 70.0018 0.880078 71.1473L33.9432 38.0859L0.880859 5.02363Z" fill="current"/>
<path d="M61.9145 42.2291L51.8762 51.8762C51.3039 52.4484 50.5543 52.7346 49.8049 52.7346C49.0555 52.7346 48.3057 52.4484 47.7336 51.8762L38.0859 42.2287L5.02226 75.2902C6.16836 75.8389 7.43574 76.1719 8.78906 76.1719H91.2109C92.5639 76.1719 93.8305 75.8393 94.9764 75.291L61.9145 42.2291Z" fill="current"/>
</svg>
