<svg width="25" height="25" viewBox="0 0 25 25" fill="none" xmlns="http://www.w3.org/2000/svg">
<path d="M21.3388 3.66116C18.9779 1.30024 15.8388 0 12.5 0C9.16119 0 6.02207 1.30024 3.66116 3.66116C1.30024 6.02207 0 9.16119 0 12.5C0 15.8388 1.30024 18.9779 3.66116 21.3388C6.02207 23.6998 9.16119 25 12.5 25C15.8388 25 18.9779 23.6998 21.3388 21.3388C23.6998 18.9779 25 15.8388 25 12.5C25 9.16119 23.6998 6.02207 21.3388 3.66116ZM7.48043 10.2085C7.48043 9.50985 8.04901 8.94146 8.74767 8.94146C9.44633 8.94146 10.0147 9.50985 10.0147 10.2085C10.0147 10.9072 9.44633 11.4756 8.74767 11.4756C8.04901 11.4756 7.48043 10.9072 7.48043 10.2085ZM16.5876 18.4231C16.4724 18.4895 16.3465 18.5211 16.2226 18.5211C15.9693 18.5211 15.7228 18.3895 15.5872 18.1543C14.9513 17.0509 13.7665 16.3654 12.4947 16.3654C11.2253 16.3654 10.0414 17.049 9.40514 18.1492C9.20258 18.4994 8.75435 18.619 8.40435 18.4164C8.05416 18.2138 7.93457 17.7658 8.13713 17.4156C9.03454 15.8644 10.7042 14.9006 12.4947 14.9006C14.2885 14.9006 15.9597 15.867 16.8564 17.4227C17.0584 17.7732 16.938 18.2211 16.5876 18.4231ZM16.2455 11.4756C15.5466 11.4756 14.9782 10.9072 14.9782 10.2085C14.9782 9.50985 15.5466 8.94146 16.2455 8.94146C16.9439 8.94146 17.5123 9.50985 17.5123 10.2085C17.5125 10.9072 16.9439 11.4756 16.2455 11.4756Z" stroke="none" fill="current"/>
</svg>
