<svg width="249" height="247" viewBox="0 0 249 247" fill="none" xmlns="http://www.w3.org/2000/svg">
<path d="M107.617 163.954C107.617 166.055 106.994 168.109 105.828 169.855C104.662 171.602 103.004 172.963 101.065 173.767C99.1256 174.571 96.9916 174.781 94.9328 174.371C92.8739 173.962 90.9828 172.95 89.4984 171.465C88.0141 169.979 87.0032 168.087 86.5937 166.027C86.1842 163.966 86.3944 161.831 87.1977 159.89C88.001 157.949 89.3614 156.291 91.1068 155.123C92.8522 153.956 94.9042 153.333 97.0034 153.333C99.8179 153.335 102.517 154.454 104.507 156.446C106.497 158.437 107.616 161.138 107.617 163.954Z" fill="white"/>
<path d="M106.893 163.954C106.895 165.777 106.394 167.564 105.444 169.119C104.494 170.673 103.134 171.935 101.512 172.764L101.368 172.838C99.1703 173.917 96.651 174.143 94.2965 173.472L94.206 173.448C92.4515 172.925 90.8766 171.926 89.6571 170.56C88.4376 169.194 87.6216 167.515 87.3002 165.712C86.9787 163.909 87.1646 162.052 87.8369 160.348C88.5092 158.645 89.6416 157.162 91.1075 156.065C92.5734 154.968 94.3152 154.3 96.1382 154.137C97.9613 153.973 99.794 154.32 101.431 155.138C103.069 155.957 104.447 157.215 105.411 158.772C106.376 160.328 106.889 162.123 106.893 163.954Z" fill="white"/>
<path d="M112.562 149.723L113.734 152.103L116.351 152.481L114.458 154.33L114.903 156.94L112.562 155.709L110.217 156.94L110.665 154.33L108.769 152.481L111.389 152.103L112.562 149.723Z" fill="white"/>
<path d="M123.965 149.723L125.138 152.103L127.758 152.481L125.862 154.33L126.31 156.94L123.965 155.709L121.62 156.94L122.069 154.33L120.172 152.481L122.793 152.103L123.965 149.723Z" fill="white"/>
<path d="M135.369 149.723L136.541 152.103L139.162 152.481L137.265 154.33L137.709 156.94L135.369 155.709L133.024 156.94L133.472 154.33L131.576 152.481L134.196 152.103L135.369 149.723Z" fill="white"/>
<path d="M146.772 149.723L147.945 152.103L150.565 152.481L148.669 154.33L149.117 156.94L146.772 155.709L144.427 156.94L144.876 154.33L142.979 152.481L145.6 152.103L146.772 149.723Z" fill="white"/>
<path d="M158.176 149.723L159.348 152.103L161.968 152.481L160.072 154.33L160.52 156.94L158.176 155.709L155.835 156.94L156.279 154.33L154.387 152.481L157.003 152.103L158.176 149.723Z" fill="white"/>
<path d="M153.692 160.513H111.13V161.538H153.692V160.513Z" fill="white"/>
<path d="M161.257 165.111H111.13V166.136H161.257V165.111Z" fill="white"/>
<path d="M161.257 169.71H111.13V170.735H161.257V169.71Z" fill="white"/>
<mask id="mask0_610_1221" style="mask-type:luminance" maskUnits="userSpaceOnUse" x="24" y="20" width="206" height="206">
<path d="M127.413 225.507C183.981 225.507 229.838 179.618 229.838 123.01C229.838 66.4027 183.981 20.5134 127.413 20.5134C70.8446 20.5134 24.9872 66.4027 24.9872 123.01C24.9872 179.618 70.8446 225.507 127.413 225.507Z" fill="white"/>
</mask>
<g mask="url(#mask0_610_1221)">
<path d="M128.655 232.406C188.41 232.406 236.852 183.931 236.852 124.134C236.852 64.3367 188.41 15.8615 128.655 15.8615C68.8994 15.8615 20.4579 64.3367 20.4579 124.134C20.4579 183.931 68.8994 232.406 128.655 232.406Z" fill="#CFD0E8"/>
<path d="M39.9038 206.208V171.138L47.4856 166.083H59.6501V159.496H45.4739L33.3218 167.614V206.208C31.1259 206.985 29.2752 208.514 28.0968 210.524C26.9184 212.534 26.488 214.897 26.8819 217.194C27.2757 219.491 28.4684 221.575 30.249 223.077C32.0297 224.579 34.2838 225.403 36.6128 225.403C38.9418 225.403 41.1959 224.579 42.9765 223.077C44.7572 221.575 45.9499 219.491 46.3437 217.194C46.7376 214.897 46.3072 212.534 45.1288 210.524C43.9503 208.514 42.0997 206.985 39.9038 206.208ZM36.6128 218.776C35.9619 218.776 35.3256 218.583 34.7844 218.221C34.2432 217.859 33.8214 217.345 33.5723 216.743C33.3232 216.141 33.258 215.479 33.385 214.84C33.512 214.201 33.8254 213.615 34.2857 213.154C34.7459 212.694 35.3323 212.38 35.9707 212.253C36.6091 212.126 37.2709 212.191 37.8722 212.44C38.4736 212.689 38.9876 213.112 39.3492 213.653C39.7108 214.195 39.9038 214.831 39.9038 215.483C39.9038 216.356 39.5571 217.194 38.9399 217.812C38.3227 218.429 37.4856 218.776 36.6128 218.776Z" fill="white"/>
<path d="M42.5737 152.909H59.6501V146.323H42.5737C41.7974 144.125 40.2697 142.273 38.2609 141.094C36.252 139.915 33.8912 139.484 31.5957 139.878C29.3002 140.273 27.2178 141.466 25.7167 143.248C24.2155 145.03 23.3921 147.285 23.3921 149.616C23.3921 151.947 24.2155 154.202 25.7167 155.984C27.2178 157.766 29.3002 158.96 31.5957 159.354C33.8912 159.748 36.252 159.317 38.2609 158.138C40.2697 156.959 41.7974 155.107 42.5737 152.909ZM30.0143 149.616C30.0143 148.965 30.2073 148.328 30.5689 147.786C30.9305 147.245 31.4445 146.823 32.0459 146.573C32.6472 146.324 33.309 146.259 33.9474 146.386C34.5858 146.513 35.1722 146.827 35.6324 147.287C36.0927 147.748 36.4061 148.335 36.5331 148.974C36.6601 149.612 36.5949 150.275 36.3458 150.876C36.0967 151.478 35.6749 151.993 35.1337 152.354C34.5925 152.716 33.9562 152.909 33.3053 152.909C32.4353 152.905 31.6025 152.556 30.9888 151.939C30.3752 151.322 30.0307 150.487 30.0307 149.616H30.0143Z" fill="white"/>
<path d="M33.3218 133.149C35.3566 133.141 37.3392 132.504 38.9983 131.325C40.6574 130.146 41.9119 128.483 42.5902 126.563H59.6501V119.976H42.5737C41.9698 118.267 40.9075 116.757 39.5031 115.611C38.0988 114.466 36.4065 113.729 34.6117 113.482C32.8169 113.235 30.9887 113.486 29.3273 114.209C27.6659 114.933 26.2353 116.099 25.1923 117.582C24.1493 119.064 23.5341 120.805 23.4139 122.614C23.2937 124.423 23.6733 126.231 24.5111 127.838C25.3488 129.446 26.6125 130.792 28.1636 131.728C29.7147 132.665 31.4936 133.157 33.3053 133.149H33.3218ZM33.3218 119.976C33.9727 119.976 34.609 120.169 35.1502 120.531C35.6914 120.893 36.1132 121.407 36.3623 122.009C36.6114 122.611 36.6766 123.273 36.5496 123.912C36.4226 124.551 36.1091 125.138 35.6489 125.598C35.1886 126.059 34.6022 126.372 33.9638 126.5C33.3254 126.627 32.6637 126.561 32.0623 126.312C31.461 126.063 30.947 125.641 30.5854 125.099C30.2237 124.558 30.0307 123.921 30.0307 123.269C30.0307 122.396 30.3775 121.558 30.9947 120.941C31.6118 120.323 32.4489 119.976 33.3218 119.976Z" fill="white"/>
<path d="M59.6336 133.149H46.4695V139.736H59.6336V133.149Z" fill="white"/>
<path d="M59.6336 106.803H46.4695V113.389H59.6336V106.803Z" fill="white"/>
<path d="M59.6336 93.6295H23.4322V100.216H59.6336V93.6295Z" fill="white"/>
<path d="M48.3988 87.0428H59.6501V80.4561H51.1263L43.1949 72.5027V66.69C45.3907 65.9131 47.2414 64.3844 48.4198 62.3741C49.5983 60.3639 50.0286 58.0014 49.6348 55.7043C49.2409 53.4072 48.0483 51.3234 46.2676 49.8212C44.4869 48.319 42.2329 47.495 39.9038 47.495C37.5748 47.495 35.3208 48.319 33.5401 49.8212C31.7594 51.3234 30.5668 53.4072 30.1729 55.7043C29.7791 58.0014 30.2094 60.3639 31.3878 62.3741C32.5663 64.3844 34.417 65.9131 36.6128 66.69V75.2485L48.3988 87.0428ZM39.9038 54.1095C40.5547 54.1095 41.191 54.3026 41.7322 54.6645C42.2735 55.0264 42.6953 55.5407 42.9444 56.1425C43.1935 56.7443 43.2586 57.4064 43.1316 58.0453C43.0047 58.6841 42.6912 59.2709 42.231 59.7315C41.7707 60.1921 41.1843 60.5058 40.5459 60.6328C39.9075 60.7599 39.2458 60.6947 38.6444 60.4454C38.0431 60.1962 37.5291 59.7741 37.1674 59.2325C36.8058 58.6909 36.6128 58.0542 36.6128 57.4028C36.6128 56.5293 36.9595 55.6917 37.5767 55.0741C38.1939 54.4564 39.031 54.1095 39.9038 54.1095Z" fill="white"/>
<path d="M82.675 48.8854V57.4028H89.2571V46.1561L77.4546 34.3495H23.4363V40.9361H74.7271L82.675 48.8854Z" fill="white"/>
<path d="M95.8392 35.7121V57.4028H102.421V32.9827L90.6188 21.1761H23.4363V27.7628H87.8913L95.8392 35.7121Z" fill="white"/>
<path d="M115.581 44.2295H108.999V57.4028H115.581V44.2295Z" fill="white"/>
<path d="M155.074 21.1761H148.492V57.4028H155.074V21.1761Z" fill="white"/>
<path d="M122.18 40.3433V57.4193H128.762V45.5921L135.344 52.1787V57.4028H141.926V49.4494L131.395 38.9107C133.152 37.5853 134.416 35.7106 134.986 33.5841C135.557 31.4577 135.402 29.2014 134.545 27.1735C133.688 25.1456 132.179 23.4622 130.257 22.3906C128.334 21.319 126.11 20.9206 123.936 21.2586C121.761 21.5966 119.762 22.6517 118.256 24.2563C116.749 25.8609 115.821 27.9232 115.62 30.1157C115.418 32.3082 115.954 34.5053 117.142 36.3583C118.331 38.2112 120.104 39.6138 122.18 40.3433ZM125.471 27.7793C126.122 27.7793 126.758 27.9724 127.299 28.3343C127.84 28.6962 128.262 29.2105 128.511 29.8123C128.76 30.4141 128.826 31.0762 128.699 31.7151C128.572 32.3539 128.258 32.9408 127.798 33.4013C127.338 33.8619 126.751 34.1756 126.113 34.3026C125.474 34.4297 124.813 34.3645 124.211 34.1152C123.61 33.866 123.096 33.4439 122.734 32.9023C122.373 32.3607 122.18 31.724 122.18 31.0726C122.178 30.6387 122.261 30.2087 122.426 29.8072C122.59 29.4058 122.832 29.0408 123.138 28.7332C123.444 28.4256 123.807 28.1816 124.208 28.015C124.608 27.8485 125.037 27.7628 125.471 27.7628V27.7793Z" fill="white"/>
<path d="M168.254 42.2987L176.202 34.3495H208.356C208.845 35.729 209.635 36.9824 210.668 38.019C211.701 39.0556 212.952 39.8495 214.329 40.3433V85.6761L206.385 93.6295H191.292V100.216H209.113L220.911 88.4054V40.3433C222.482 39.7911 223.888 38.8492 224.997 37.6056C226.105 36.362 226.881 34.8573 227.25 33.2323C227.62 31.6074 227.572 29.9151 227.11 28.3138C226.649 26.7125 225.789 25.2544 224.612 24.076C223.434 22.8976 221.977 22.0372 220.377 21.5754C218.777 21.1136 217.086 21.0654 215.462 21.4353C213.838 21.8052 212.334 22.5812 211.091 23.6907C209.849 24.8001 208.907 26.2068 208.356 27.7793H173.458L161.672 39.5694V57.4028H168.254V42.2987ZM217.62 27.7628C218.271 27.7628 218.907 27.9559 219.448 28.3178C219.99 28.6797 220.411 29.194 220.66 29.7958C220.91 30.3976 220.975 31.0598 220.848 31.6986C220.721 32.3375 220.407 32.9243 219.947 33.3849C219.487 33.8454 218.9 34.1591 218.262 34.2862C217.624 34.4133 216.962 34.348 216.36 34.0988C215.759 33.8495 215.245 33.4274 214.884 32.8858C214.522 32.3442 214.329 31.7075 214.329 31.0561C214.329 30.1827 214.676 29.345 215.293 28.7274C215.91 28.1098 216.747 27.7628 217.62 27.7628Z" fill="white"/>
<path d="M193.76 61.2684L201.165 68.6454V72.5027L193.221 80.4561H191.292V87.0428H195.948L207.747 75.2321V65.9161L195.948 54.1095H193.978C193.199 51.9548 191.693 50.14 189.72 48.9784C187.746 47.8169 185.429 47.3817 183.169 47.7479C180.909 48.1141 178.848 49.2588 177.341 50.9842C175.835 52.7096 174.978 54.9074 174.919 57.1978C174.86 59.4882 175.602 61.7273 177.017 63.5284C178.432 65.3295 180.432 66.5793 182.67 67.062C184.908 67.5447 187.244 67.23 189.275 66.1721C191.306 65.1143 192.904 63.3798 193.793 61.2684H193.76ZM184.71 60.6961C184.059 60.6961 183.422 60.503 182.881 60.1411C182.34 59.7792 181.918 59.2649 181.669 58.6631C181.42 58.0613 181.355 57.3991 181.482 56.7603C181.609 56.1215 181.922 55.5346 182.382 55.0741C182.843 54.6135 183.429 54.2998 184.067 54.1728C184.706 54.0457 185.368 54.1109 185.969 54.3602C186.57 54.6094 187.084 55.0315 187.446 55.5731C187.808 56.1147 188.001 56.7514 188.001 57.4028C188.001 58.2762 187.654 59.1139 187.037 59.7315C186.419 60.3492 185.582 60.6961 184.71 60.6961Z" fill="white"/>
<path d="M227.477 106.803H191.275V113.389H227.477V106.803Z" fill="white"/>
<path d="M220.911 206.208V131.783L209.113 119.976H191.292V126.563H206.385L214.329 134.512V151.543L209.113 146.323H191.292V152.909H206.385L214.329 160.859V206.208C212.133 206.985 210.282 208.514 209.104 210.524C207.925 212.534 207.495 214.897 207.889 217.194C208.283 219.491 209.475 221.575 211.256 223.077C213.037 224.579 215.291 225.403 217.62 225.403C219.949 225.403 222.203 224.579 223.984 223.077C225.764 221.575 226.957 219.491 227.351 217.194C227.745 214.897 227.314 212.534 226.136 210.524C224.957 208.514 223.107 206.985 220.911 206.208ZM217.62 218.776C216.969 218.776 216.333 218.583 215.792 218.221C215.25 217.859 214.828 217.345 214.579 216.743C214.33 216.141 214.265 215.479 214.392 214.84C214.519 214.201 214.833 213.615 215.293 213.154C215.753 212.693 216.339 212.38 216.978 212.253C217.616 212.126 218.278 212.191 218.879 212.44C219.481 212.689 219.995 213.112 220.356 213.653C220.718 214.195 220.911 214.831 220.911 215.483C220.911 216.356 220.564 217.194 219.947 217.812C219.33 218.429 218.493 218.776 217.62 218.776Z" fill="white"/>
<path d="M204.439 133.149H191.275V139.736H204.439V133.149Z" fill="white"/>
<path d="M207.747 171.303L195.948 159.496H191.292V166.083H193.221L201.165 174.032V192.429H168.254V189.136H161.672V199.016H201.165V204.236L193.221 212.189H187.379C186.603 209.992 185.075 208.14 183.067 206.961C181.058 205.782 178.697 205.351 176.401 205.745C174.106 206.139 172.023 207.333 170.522 209.115C169.021 210.897 168.198 213.152 168.198 215.483C168.198 217.813 169.021 220.069 170.522 221.851C172.023 223.633 174.106 224.826 176.401 225.221C178.697 225.615 181.058 225.184 183.067 224.005C185.075 222.825 186.603 220.974 187.379 218.776H195.932L207.747 206.965V171.303ZM178.127 218.776C177.477 218.776 176.84 218.583 176.299 218.221C175.758 217.859 175.336 217.345 175.087 216.743C174.838 216.141 174.773 215.479 174.9 214.84C175.027 214.201 175.34 213.615 175.8 213.154C176.261 212.694 176.847 212.38 177.485 212.253C178.124 212.126 178.785 212.191 179.387 212.44C179.988 212.689 180.502 213.112 180.864 213.653C181.225 214.195 181.418 214.831 181.418 215.483C181.418 216.356 181.072 217.194 180.455 217.812C179.837 218.429 179 218.776 178.127 218.776Z" fill="white"/>
<path d="M89.2694 189.136H82.6873V192.429H65.611C64.8346 190.232 63.307 188.38 61.2981 187.201C59.2892 186.022 56.9284 185.591 54.6329 185.985C52.3375 186.379 50.2551 187.573 48.7539 189.355C47.2527 191.137 46.4294 193.392 46.4294 195.723C46.4294 198.053 47.2527 200.309 48.7539 202.091C50.2551 203.873 52.3375 205.066 54.6329 205.461C56.9284 205.855 59.2892 205.424 61.2981 204.245C63.307 203.065 64.8346 201.213 65.611 199.016H89.2694V189.136ZM56.359 199.016C55.7081 199.016 55.0718 198.823 54.5306 198.461C53.9894 198.099 53.5676 197.585 53.3185 196.983C53.0694 196.381 53.0042 195.719 53.1312 195.08C53.2582 194.441 53.5717 193.855 54.0319 193.394C54.4922 192.933 55.0786 192.62 55.717 192.493C56.3554 192.366 57.0171 192.431 57.6185 192.68C58.2198 192.929 58.7338 193.352 59.0954 193.893C59.4571 194.435 59.6501 195.071 59.6501 195.723C59.6501 196.596 59.3033 197.434 58.6861 198.052C58.069 198.669 57.2319 199.016 56.359 199.016Z" fill="white"/>
<path d="M155.074 189.136H148.492V225.363H155.074V189.136Z" fill="white"/>
<path d="M141.91 189.136H135.328V225.363H141.91V189.136Z" fill="white"/>
<path d="M122.18 194.356L115.598 200.943V189.136H109.016V206.208C106.941 206.94 105.169 208.345 103.983 210.199C102.797 212.054 102.263 214.252 102.468 216.444C102.672 218.636 103.603 220.697 105.111 222.3C106.62 223.903 108.621 224.956 110.795 225.291C112.97 225.626 115.194 225.225 117.115 224.15C119.036 223.076 120.543 221.391 121.397 219.361C122.251 217.332 122.404 215.076 121.83 212.95C121.256 210.824 119.989 208.951 118.231 207.628L128.762 197.085V189.136H122.18V194.356ZM112.307 218.776C111.656 218.776 111.02 218.583 110.478 218.221C109.937 217.859 109.515 217.345 109.266 216.743C109.017 216.141 108.952 215.479 109.079 214.84C109.206 214.201 109.519 213.615 109.98 213.154C110.44 212.693 111.026 212.38 111.665 212.253C112.303 212.126 112.965 212.191 113.566 212.44C114.167 212.689 114.681 213.112 115.043 213.653C115.405 214.195 115.598 214.831 115.598 215.483C115.598 216.356 115.251 217.194 114.634 217.812C114.017 218.429 113.18 218.776 112.307 218.776Z" fill="white"/>
<path d="M102.421 189.136H95.8391V197.649L85.966 207.529V225.363H92.5481V210.259L102.421 200.379V189.136Z" fill="white"/>
<path d="M161.672 182.549H168.254V175.963H178.127V166.083H184.71V159.496H178.127V152.909H184.71V146.323H178.127V139.736H184.71V133.149H178.127V126.563H184.71V119.976H178.127V113.389H184.71V106.803H178.127V100.216H184.71V93.6295H178.127V87.0428H184.71V80.4561H178.127V70.5761H168.254V63.9895H161.672V70.5761H155.09V63.9895H148.508V70.5761H141.926V63.9895H135.344V70.5761H128.762V63.9895H122.18V70.5761H115.598V63.9895H109.016V70.5761H102.434V63.9895H95.8515V70.5761H89.2694V63.9895H82.6873V70.5761H81.3257L72.8142 79.0894V80.4561H66.2321V87.0428H72.8142V93.6295H66.2321V100.216H72.8142V106.803H66.2321V113.389H72.8142V119.976H66.2321V126.563H72.8142V133.149H66.2321V139.736H72.8142V146.323H66.2321V152.909H72.8142V159.496H66.2321V166.083H72.8142V175.963H82.6873V182.549H89.2694V175.963H95.8515V182.549H102.434V175.963H109.016V182.549H115.598V175.963H122.18V182.549H128.762V175.963H135.344V182.549H141.926V175.963H148.508V182.549H155.09V175.963H161.672V182.549ZM79.3963 169.376V81.8188L84.0531 77.1628H171.545V169.376H79.3963Z" fill="white"/>
<path d="M154.617 108.054L160.376 102.291L146.418 88.3231L140.659 94.0864C138.946 93.1879 137.157 92.4453 135.311 91.8675V83.7495H115.598V91.8675C113.752 92.4444 111.962 93.187 110.25 94.0864L104.49 88.3231L90.5324 102.291L96.2917 108.054C95.3955 109.769 94.6535 111.56 94.0743 113.406H85.9784V133.166H94.0949C94.6725 135.006 95.4146 136.79 96.3123 138.497L90.5529 144.26L104.511 158.228L110.27 152.465C111.978 153.355 113.76 154.092 115.598 154.667V162.789H135.344V154.667C137.19 154.09 138.98 153.348 140.692 152.448L146.451 158.212L160.409 144.244L154.65 138.481C155.546 136.773 156.288 134.989 156.867 133.149H164.963V113.389H156.834C156.257 111.548 155.515 109.762 154.617 108.054ZM158.365 126.579H151.692L151.108 129.14C150.451 132.027 149.309 134.782 147.731 137.287L146.328 139.514L151.059 144.248L146.402 148.904L141.675 144.17L139.458 145.557C136.954 147.137 134.202 148.281 131.317 148.941L128.762 149.521V156.203H122.18V149.521L119.621 148.941C116.737 148.281 113.986 147.137 111.484 145.557L109.258 144.153L104.49 148.887L99.8378 144.232L104.569 139.497L103.166 137.27C101.587 134.765 100.443 132.011 99.7843 129.123L99.2043 126.563H92.5605V119.976H99.2372L99.8172 117.411C100.477 114.524 101.62 111.77 103.199 109.265L104.602 107.037L99.8707 102.307L104.49 97.6473L109.221 102.377L111.447 100.974C113.951 99.3961 116.704 98.2534 119.588 97.5938L122.147 97.0134V90.3361H128.729V97.0134L131.292 97.5979C134.185 98.2538 136.947 99.3967 139.458 100.978L141.683 102.381L146.41 97.6515L151.067 102.307L146.328 107.033L147.731 109.26C149.309 111.765 150.451 114.52 151.108 117.407L151.692 119.968H158.381L158.365 126.579Z" fill="white"/>
<path d="M125.471 106.803C122.216 106.803 119.035 107.769 116.329 109.578C113.623 111.387 111.514 113.959 110.268 116.968C109.023 119.977 108.697 123.288 109.332 126.482C109.967 129.676 111.534 132.61 113.835 134.913C116.137 137.216 119.069 138.784 122.261 139.42C125.453 140.055 128.761 139.729 131.768 138.483C134.775 137.236 137.345 135.126 139.153 132.418C140.961 129.71 141.926 126.526 141.926 123.269C141.926 118.902 140.192 114.714 137.106 111.626C134.02 108.538 129.835 106.803 125.471 106.803ZM125.471 133.149C123.518 133.149 121.609 132.57 119.986 131.484C118.362 130.399 117.097 128.856 116.349 127.05C115.602 125.245 115.406 123.259 115.787 121.342C116.168 119.425 117.109 117.665 118.489 116.283C119.87 114.902 121.629 113.961 123.545 113.579C125.46 113.198 127.445 113.394 129.249 114.142C131.053 114.889 132.595 116.156 133.68 117.78C134.765 119.405 135.344 121.315 135.344 123.269C135.344 125.89 134.304 128.403 132.452 130.256C130.601 132.109 128.089 133.149 125.471 133.149Z" fill="white"/>
</g>
<path d="M147.212 171.998H105.548C104.926 171.998 104.311 171.876 103.736 171.638C103.162 171.4 102.64 171.05 102.201 170.61C101.762 170.17 101.413 169.648 101.176 169.073C100.938 168.498 100.816 167.882 100.817 167.26V83.98C100.817 82.7244 101.315 81.5203 102.203 80.6324C103.09 79.7446 104.293 79.2458 105.548 79.2458H147.212C148.467 79.2458 149.67 79.7446 150.558 80.6324C151.445 81.5203 151.943 82.7244 151.943 83.98V167.26C151.944 167.882 151.822 168.498 151.584 169.073C151.347 169.648 150.998 170.17 150.559 170.61C150.12 171.05 149.598 171.4 149.024 171.638C148.449 171.876 147.834 171.998 147.212 171.998Z" fill="#FDCC00"/>
<path d="M100.817 159.208H151.943V88.8541H100.817V159.208Z" fill="#FFE100"/>
<path d="M147.212 79.2623H142.42C143.041 79.2623 143.657 79.3849 144.231 79.6231C144.805 79.8612 145.327 80.2103 145.766 80.6504C146.206 81.0904 146.554 81.6128 146.792 82.1876C147.029 82.7625 147.151 83.3785 147.151 84.0006V167.26C147.151 167.882 147.029 168.498 146.792 169.073C146.554 169.648 146.206 170.17 145.766 170.61C145.327 171.05 144.805 171.4 144.231 171.638C143.657 171.876 143.041 171.998 142.42 171.998H147.212C147.834 171.998 148.449 171.876 149.024 171.638C149.598 171.4 150.12 171.05 150.559 170.61C150.998 170.17 151.347 169.648 151.584 169.073C151.822 168.498 151.944 167.882 151.943 167.26V83.98C151.943 82.7244 151.445 81.5203 150.558 80.6324C149.67 79.7446 148.467 79.2458 147.212 79.2458" fill="#FFA800"/>
<path d="M105.548 79.2623H110.344C109.089 79.2623 107.884 79.7615 106.996 80.6501C106.108 81.5387 105.609 82.7439 105.609 84.0006V167.26C105.609 168.517 106.108 169.722 106.996 170.611C107.884 171.499 109.089 171.998 110.344 171.998H105.548C104.926 171.998 104.311 171.876 103.736 171.638C103.162 171.4 102.64 171.05 102.201 170.61C101.762 170.17 101.413 169.648 101.176 169.073C100.938 168.498 100.816 167.882 100.817 167.26V83.98C100.817 82.7244 101.315 81.5203 102.203 80.6324C103.09 79.7446 104.293 79.2458 105.548 79.2458" fill="white"/>
<path d="M166.276 128.827H144.008L140.811 136.822L137.615 128.827C136.331 128.827 135.099 128.316 134.191 127.408C133.283 126.499 132.773 125.267 132.773 123.982V101.682C132.772 101.045 132.897 100.415 133.14 99.8262C133.383 99.2379 133.74 98.7032 134.19 98.2529C134.639 97.8025 135.173 97.4452 135.761 97.2015C136.349 96.9577 136.979 96.8322 137.615 96.8322H166.276C166.913 96.8301 167.545 96.9539 168.135 97.1967C168.724 97.4395 169.26 97.7964 169.711 98.247C170.163 98.6976 170.521 99.233 170.765 99.8224C171.009 100.412 171.135 101.044 171.134 101.682V123.965C171.134 125.25 170.624 126.483 169.716 127.391C168.808 128.3 167.576 128.811 166.292 128.811" fill="#C37EB3"/>
<path d="M166.276 96.8569H161.483C162.767 96.8569 163.999 97.3674 164.907 98.2761C165.815 99.1848 166.325 100.417 166.325 101.702V123.986C166.328 124.624 166.204 125.256 165.962 125.846C165.72 126.437 165.364 126.973 164.914 127.425C164.464 127.877 163.93 128.236 163.341 128.481C162.752 128.726 162.121 128.852 161.483 128.852H166.276C166.915 128.854 167.548 128.729 168.138 128.486C168.729 128.242 169.266 127.883 169.717 127.431C170.169 126.979 170.527 126.441 170.77 125.85C171.013 125.259 171.137 124.625 171.134 123.986V101.702C171.134 100.417 170.624 99.1848 169.716 98.2761C168.808 97.3674 167.576 96.8569 166.292 96.8569" fill="#9A519A"/>
<path d="M83.2921 144.816H105.56L108.756 152.811L111.953 144.816C112.589 144.816 113.219 144.691 113.807 144.447C114.394 144.203 114.928 143.846 115.378 143.395C115.828 142.945 116.184 142.41 116.427 141.822C116.671 141.234 116.795 140.603 116.795 139.967V117.683C116.795 116.398 116.285 115.166 115.377 114.257C114.469 113.348 113.237 112.838 111.953 112.838H83.2921C82.0075 112.838 80.7755 113.348 79.8668 114.257C78.9581 115.165 78.4471 116.398 78.446 117.683V139.967C78.4471 141.252 78.9581 142.485 79.8668 143.393C80.7755 144.302 82.0075 144.812 83.2921 144.812" fill="#B7E2FA"/>
<path d="M83.2921 112.838H88.0846C87.4484 112.838 86.8185 112.963 86.2308 113.207C85.643 113.451 85.1091 113.808 84.6594 114.258C84.2098 114.709 83.8532 115.243 83.6101 115.832C83.367 116.42 83.2422 117.051 83.2427 117.687V139.967C83.2427 141.252 83.7528 142.484 84.6609 143.393C85.5689 144.301 86.8005 144.812 88.0846 144.812H83.2921C82.0075 144.812 80.7755 144.302 79.8668 143.393C78.9581 142.485 78.4471 141.252 78.446 139.967V117.683C78.4471 116.398 78.9581 115.165 79.8668 114.257C80.7755 113.348 82.0075 112.838 83.2921 112.838Z" fill="white"/>
<path d="M131.173 165.601C131.173 166.55 130.892 167.477 130.365 168.266C129.838 169.054 129.09 169.669 128.214 170.032C127.338 170.395 126.375 170.49 125.445 170.305C124.515 170.12 123.661 169.663 122.991 168.992C122.321 168.322 121.864 167.467 121.68 166.537C121.495 165.606 121.59 164.642 121.952 163.766C122.315 162.889 122.929 162.14 123.717 161.613C124.506 161.087 125.432 160.805 126.38 160.805C127.01 160.805 127.633 160.928 128.215 161.169C128.796 161.41 129.325 161.763 129.77 162.209C130.215 162.654 130.568 163.183 130.809 163.765C131.05 164.347 131.173 164.971 131.173 165.601Z" fill="#FFE100"/>
<path d="M132.773 85.6596H124.784C124.567 85.6706 124.35 85.6374 124.147 85.562C123.944 85.4866 123.757 85.3706 123.6 85.221C123.443 85.0714 123.318 84.8913 123.232 84.6918C123.147 84.4923 123.102 84.2774 123.102 84.0603C123.102 83.8431 123.147 83.6283 123.232 83.4287C123.318 83.2292 123.443 83.0492 123.6 82.8996C123.757 82.75 123.944 82.634 124.147 82.5586C124.35 82.4832 124.567 82.4499 124.784 82.461H132.773C133.183 82.4818 133.569 82.6593 133.852 82.957C134.134 83.2546 134.292 83.6496 134.292 84.0603C134.292 84.4709 134.134 84.8659 133.852 85.1636C133.569 85.4612 133.183 85.6388 132.773 85.6596Z" fill="black"/>
<path d="M119.991 85.6596H118.391C117.981 85.6388 117.595 85.4612 117.312 85.1635C117.029 84.8659 116.872 84.4709 116.872 84.0603C116.872 83.6496 117.029 83.2546 117.312 82.957C117.595 82.6593 117.981 82.4818 118.391 82.4609H119.991C120.401 82.4818 120.787 82.6593 121.07 82.957C121.353 83.2546 121.51 83.6496 121.51 84.0603C121.51 84.4709 121.353 84.8659 121.07 85.1635C120.787 85.4612 120.401 85.6388 119.991 85.6596Z" fill="black"/>
<path d="M99.2207 96.8487C98.797 96.8487 98.3906 96.6806 98.0906 96.3811C97.7906 96.0817 97.6215 95.6754 97.6204 95.2514V93.6542C97.6094 93.4373 97.6426 93.2205 97.718 93.0169C97.7933 92.8133 97.9093 92.6271 98.0588 92.4697C98.2083 92.3123 98.3882 92.187 98.5876 92.1014C98.787 92.0158 99.0017 91.9716 99.2186 91.9716C99.4356 91.9716 99.6503 92.0158 99.8497 92.1014C100.049 92.187 100.229 92.3123 100.379 92.4697C100.528 92.6271 100.644 92.8133 100.719 93.0169C100.795 93.2205 100.828 93.4373 100.817 93.6542V95.2514C100.817 95.4612 100.776 95.6689 100.695 95.8627C100.615 96.0565 100.498 96.2326 100.349 96.3809C100.201 96.5292 100.025 96.6468 99.8315 96.7271C99.6379 96.8074 99.4303 96.8487 99.2207 96.8487Z" fill="black"/>
<path d="M99.2207 103.246C98.797 103.246 98.3906 103.078 98.0906 102.778C97.7906 102.479 97.6215 102.073 97.6204 101.649V100.035C97.6412 99.6249 97.8187 99.2384 98.1161 98.9555C98.4136 98.6725 98.8083 98.5148 99.2186 98.5148C99.629 98.5148 100.024 98.6725 100.321 98.9555C100.619 99.2384 100.796 99.6249 100.817 100.035V101.636C100.818 101.847 100.778 102.056 100.699 102.251C100.619 102.447 100.502 102.624 100.354 102.774C100.205 102.923 100.029 103.042 99.8344 103.123C99.6399 103.204 99.4313 103.246 99.2207 103.246Z" fill="black"/>
<path d="M126.38 171.998C125.116 171.998 123.88 171.623 122.828 170.92C121.777 170.217 120.958 169.218 120.474 168.049C119.99 166.88 119.863 165.594 120.11 164.353C120.357 163.112 120.966 161.972 121.86 161.078C122.754 160.183 123.893 159.574 125.133 159.327C126.373 159.08 127.658 159.207 128.826 159.691C129.995 160.175 130.993 160.995 131.695 162.047C132.398 163.099 132.773 164.336 132.773 165.601C132.772 167.297 132.098 168.924 130.899 170.124C129.701 171.323 128.075 171.997 126.38 171.998ZM126.38 162.403C125.748 162.403 125.13 162.59 124.604 162.942C124.079 163.293 123.669 163.793 123.427 164.377C123.185 164.962 123.122 165.605 123.245 166.225C123.368 166.846 123.673 167.416 124.12 167.863C124.567 168.31 125.136 168.615 125.756 168.738C126.376 168.862 127.019 168.798 127.603 168.556C128.187 168.314 128.687 167.904 129.038 167.378C129.389 166.852 129.576 166.234 129.576 165.601C129.575 164.753 129.238 163.94 128.639 163.341C128.04 162.741 127.227 162.404 126.38 162.403Z" fill="black"/>
<path d="M140.811 138.423C140.491 138.423 140.179 138.326 139.914 138.147C139.649 137.967 139.445 137.712 139.326 137.414L136.496 130.33C135.005 130.064 133.656 129.283 132.683 128.122C131.71 126.962 131.175 125.496 131.173 123.982V101.682C131.175 99.9726 131.854 98.3341 133.062 97.1256C134.27 95.917 135.907 95.2371 137.615 95.235H166.276C167.984 95.2371 169.621 95.917 170.829 97.1256C172.036 98.3341 172.716 99.9726 172.718 101.682V123.965C172.716 125.674 172.036 127.313 170.829 128.521C169.621 129.73 167.984 130.41 166.276 130.412H145.085L142.296 137.41C142.178 137.708 141.974 137.964 141.709 138.145C141.444 138.325 141.132 138.422 140.811 138.423ZM137.615 98.4501C136.754 98.4512 135.929 98.7937 135.321 99.4026C134.712 100.012 134.37 100.837 134.369 101.698V123.982C134.37 124.843 134.712 125.668 135.321 126.277C135.929 126.886 136.754 127.229 137.615 127.23C137.934 127.23 138.246 127.326 138.511 127.505C138.775 127.684 138.98 127.938 139.1 128.234L140.811 132.52L142.523 128.234C142.64 127.938 142.845 127.683 143.109 127.504C143.373 127.325 143.684 127.229 144.003 127.23H166.276C167.136 127.229 167.961 126.886 168.57 126.277C169.178 125.668 169.52 124.843 169.521 123.982V101.682C169.52 100.821 169.178 99.995 168.57 99.3861C167.961 98.7772 167.136 98.4347 166.276 98.4336L137.615 98.4501Z" fill="black"/>
<path d="M158.336 108.042H145.554C145.338 108.053 145.121 108.02 144.918 107.944C144.714 107.869 144.528 107.753 144.371 107.603C144.214 107.454 144.088 107.274 144.003 107.074C143.917 106.875 143.873 106.66 143.873 106.443C143.873 106.225 143.917 106.011 144.003 105.811C144.088 105.612 144.214 105.431 144.371 105.282C144.528 105.132 144.714 105.016 144.918 104.941C145.121 104.865 145.338 104.832 145.554 104.843H158.336C158.746 104.864 159.132 105.042 159.415 105.339C159.698 105.637 159.855 106.032 159.855 106.443C159.855 106.853 159.698 107.248 159.415 107.546C159.132 107.844 158.746 108.021 158.336 108.042Z" fill="black"/>
<path d="M158.336 120.832H145.554C145.338 120.843 145.121 120.81 144.918 120.735C144.714 120.659 144.528 120.543 144.371 120.394C144.214 120.244 144.088 120.064 144.003 119.865C143.917 119.665 143.873 119.45 143.873 119.233C143.873 119.016 143.917 118.801 144.003 118.602C144.088 118.402 144.214 118.222 144.371 118.072C144.528 117.923 144.714 117.807 144.918 117.731C145.121 117.656 145.338 117.623 145.554 117.634H158.336C158.746 117.655 159.132 117.832 159.415 118.13C159.698 118.427 159.855 118.822 159.855 119.233C159.855 119.644 159.698 120.039 159.415 120.336C159.132 120.634 158.746 120.812 158.336 120.832Z" fill="black"/>
<path d="M163.129 114.443H140.762C140.545 114.454 140.328 114.421 140.125 114.346C139.922 114.27 139.735 114.154 139.578 114.005C139.421 113.855 139.296 113.675 139.21 113.476C139.125 113.276 139.08 113.061 139.08 112.844C139.08 112.627 139.125 112.412 139.21 112.212C139.296 112.013 139.421 111.833 139.578 111.683C139.735 111.534 139.922 111.418 140.125 111.342C140.328 111.267 140.545 111.234 140.762 111.245H163.129C163.345 111.234 163.562 111.267 163.765 111.342C163.969 111.418 164.155 111.534 164.312 111.683C164.469 111.833 164.595 112.013 164.68 112.212C164.766 112.412 164.81 112.627 164.81 112.844C164.81 113.061 164.766 113.276 164.68 113.476C164.595 113.675 164.469 113.855 164.312 114.005C164.155 114.154 163.969 114.27 163.765 114.346C163.562 114.421 163.345 114.454 163.129 114.443Z" fill="black"/>
<path d="M104.013 124.031H91.2317C91.015 124.042 90.7983 124.009 90.5948 123.933C90.3914 123.858 90.2054 123.742 90.0481 123.592C89.8908 123.443 89.7656 123.263 89.68 123.063C89.5945 122.864 89.5503 122.649 89.5503 122.432C89.5503 122.215 89.5945 122 89.68 121.8C89.7656 121.601 89.8908 121.421 90.0481 121.271C90.2054 121.121 90.3914 121.005 90.5948 120.93C90.7983 120.855 91.015 120.821 91.2317 120.832H104.013C104.423 120.853 104.809 121.031 105.092 121.328C105.375 121.626 105.532 122.021 105.532 122.432C105.532 122.842 105.375 123.237 105.092 123.535C104.809 123.833 104.423 124.01 104.013 124.031Z" fill="black"/>
<path d="M104.013 136.822H91.2317C91.015 136.833 90.7983 136.799 90.5948 136.724C90.3914 136.649 90.2054 136.532 90.0481 136.383C89.8908 136.233 89.7656 136.053 89.68 135.854C89.5945 135.654 89.5503 135.439 89.5503 135.222C89.5503 135.005 89.5945 134.79 89.68 134.591C89.7656 134.391 89.8908 134.211 90.0481 134.062C90.2054 133.912 90.3914 133.796 90.5948 133.72C90.7983 133.645 91.015 133.612 91.2317 133.623H104.013C104.423 133.644 104.809 133.821 105.092 134.119C105.375 134.417 105.532 134.812 105.532 135.222C105.532 135.633 105.375 136.028 105.092 136.325C104.809 136.623 104.423 136.801 104.013 136.822Z" fill="black"/>
<path d="M108.806 130.428H86.435C86.0252 130.408 85.639 130.23 85.3562 129.932C85.0735 129.635 84.9159 129.24 84.9159 128.829C84.9159 128.418 85.0735 128.023 85.3562 127.726C85.639 127.428 86.0252 127.251 86.435 127.23H108.806C109.216 127.251 109.602 127.428 109.885 127.726C110.167 128.023 110.325 128.418 110.325 128.829C110.325 129.24 110.167 129.635 109.885 129.932C109.602 130.23 109.216 130.408 108.806 130.428Z" fill="black"/>
<path d="M108.756 154.408C108.437 154.409 108.125 154.313 107.86 154.134C107.595 153.955 107.39 153.7 107.271 153.403L104.478 146.405H83.288C81.5818 146.403 79.9462 145.724 78.7394 144.517C77.5326 143.31 76.8531 141.674 76.8499 139.967V117.683C76.852 115.975 77.531 114.338 78.7379 113.13C79.9448 111.922 81.5811 111.243 83.288 111.241H111.949C113.656 111.242 115.294 111.921 116.501 113.129C117.709 114.336 118.389 115.974 118.391 117.683V139.967C118.389 141.481 117.856 142.947 116.883 144.107C115.911 145.268 114.562 146.049 113.072 146.315L110.25 153.403C110.131 153.702 109.925 153.958 109.659 154.137C109.392 154.316 109.078 154.411 108.756 154.408ZM83.2921 114.443C82.4319 114.443 81.607 114.785 80.9984 115.393C80.3898 116.001 80.0474 116.827 80.0463 117.687V139.967C80.0474 140.828 80.3897 141.653 80.9981 142.262C81.6066 142.871 82.4316 143.214 83.2921 143.215H105.56C105.88 143.215 106.192 143.31 106.456 143.489C106.721 143.668 106.926 143.923 107.045 144.219L108.756 148.501L110.468 144.219C110.586 143.922 110.791 143.668 111.056 143.489C111.321 143.31 111.633 143.214 111.953 143.215C112.812 143.211 113.634 142.868 114.24 142.259C114.846 141.65 115.186 140.826 115.186 139.967V117.683C115.186 116.823 114.845 115.998 114.237 115.389C113.629 114.781 112.804 114.439 111.945 114.439L83.2921 114.443Z" fill="black"/>
<path d="M147.212 173.596H105.548C103.87 173.594 102.261 172.925 101.075 171.737C99.8886 170.55 99.2218 168.939 99.2207 167.26V144.816C99.2207 144.392 99.3889 143.986 99.6882 143.687C99.9875 143.387 100.394 143.219 100.817 143.219H105.56C105.88 143.218 106.192 143.314 106.457 143.493C106.722 143.672 106.927 143.926 107.045 144.223L108.756 148.505L110.468 144.223C110.586 143.926 110.791 143.672 111.056 143.493C111.321 143.314 111.633 143.218 111.953 143.219C112.812 143.216 113.635 142.871 114.242 142.262C114.848 141.652 115.187 140.827 115.186 139.967V117.683C115.186 116.823 114.845 115.998 114.237 115.389C113.629 114.781 112.804 114.439 111.945 114.439H100.817C100.392 114.439 99.9854 114.27 99.6853 113.97C99.3852 113.67 99.2166 113.263 99.2166 112.838V83.98C99.2198 82.3011 99.8881 80.6919 101.075 79.5051C102.262 78.3184 103.87 77.6507 105.548 77.6486H147.212C148.89 77.6496 150.499 78.3169 151.686 79.5039C152.873 80.691 153.541 82.3008 153.543 83.98V96.8322C153.543 97.2569 153.375 97.6643 153.075 97.9646C152.775 98.2649 152.368 98.4336 151.943 98.4336H137.615C136.754 98.4347 135.929 98.7773 135.321 99.3861C134.712 99.995 134.37 100.821 134.369 101.682V123.965C134.37 124.826 134.712 125.652 135.321 126.261C135.929 126.87 136.754 127.212 137.615 127.213C137.934 127.213 138.246 127.309 138.511 127.488C138.776 127.667 138.981 127.921 139.1 128.218L140.811 132.503L142.523 128.218C142.64 127.921 142.845 127.667 143.109 127.488C143.373 127.308 143.685 127.213 144.004 127.213H151.943C152.153 127.213 152.361 127.254 152.555 127.334C152.749 127.414 152.926 127.531 153.074 127.68C153.223 127.828 153.341 128.004 153.422 128.198C153.502 128.392 153.543 128.6 153.543 128.81V167.26C153.542 168.94 152.875 170.551 151.688 171.739C150.501 172.927 148.891 173.595 147.212 173.596ZM102.413 146.426V167.26C102.413 168.092 102.743 168.89 103.331 169.478C103.919 170.067 104.716 170.397 105.548 170.397H147.212C148.044 170.397 148.841 170.067 149.429 169.478C150.017 168.89 150.347 168.092 150.347 167.26V130.428H145.085L142.296 137.427C142.177 137.723 141.972 137.978 141.708 138.157C141.443 138.336 141.131 138.432 140.811 138.432C140.492 138.432 140.18 138.336 139.915 138.157C139.65 137.978 139.445 137.723 139.326 137.427L136.496 130.338C135.006 130.074 133.655 129.294 132.682 128.134C131.709 126.974 131.175 125.509 131.173 123.994V101.682C131.175 99.9726 131.854 98.3341 133.062 97.1256C134.27 95.917 135.907 95.2371 137.615 95.235H150.368V83.98C150.366 83.1484 150.036 82.3511 149.448 81.7631C148.861 81.175 148.064 80.8442 147.233 80.8431H105.548C104.72 80.8496 103.929 81.1828 103.346 81.7703C102.762 82.3578 102.435 83.1519 102.434 83.98V111.224H111.973C113.68 111.226 115.317 111.906 116.523 113.113C117.73 114.321 118.409 115.959 118.412 117.667V139.967C118.41 141.481 117.876 142.947 116.904 144.107C115.931 145.268 114.582 146.049 113.092 146.315L110.25 153.403C110.132 153.702 109.928 153.958 109.663 154.138C109.398 154.319 109.085 154.415 108.765 154.415C108.444 154.415 108.131 154.319 107.866 154.138C107.602 153.958 107.397 153.702 107.28 153.403L104.486 146.405H102.429L102.413 146.426Z" fill="black"/>
<path d="M151.943 160.805H100.817C100.394 160.805 99.9875 160.637 99.6882 160.337C99.3889 160.038 99.2207 159.632 99.2207 159.208V144.8C99.2207 144.376 99.3889 143.97 99.6882 143.67C99.9875 143.371 100.394 143.202 100.817 143.202H105.56C105.88 143.202 106.192 143.297 106.457 143.476C106.722 143.655 106.927 143.91 107.045 144.207L108.756 148.488L110.468 144.207C110.586 143.91 110.791 143.655 111.056 143.476C111.321 143.297 111.633 143.202 111.953 143.202C112.809 143.199 113.63 142.857 114.236 142.251C114.841 141.645 115.183 140.824 115.186 139.967V117.683C115.186 116.823 114.845 115.998 114.237 115.389C113.629 114.781 112.804 114.439 111.945 114.439H100.817C100.392 114.439 99.9854 114.27 99.6853 113.97C99.3852 113.67 99.2166 113.263 99.2166 112.838V88.8541C99.2177 88.4301 99.3868 88.0239 99.6867 87.7244C99.9867 87.425 100.393 87.2569 100.817 87.2569H151.943C152.367 87.2569 152.773 87.425 153.073 87.7244C153.373 88.0239 153.542 88.4301 153.543 88.8541V96.8487C153.543 97.2734 153.375 97.6807 153.075 97.981C152.775 98.2814 152.368 98.4501 151.943 98.4501H137.615C136.754 98.4512 135.929 98.7937 135.321 99.4026C134.712 100.012 134.37 100.837 134.369 101.698V123.982C134.37 124.843 134.712 125.668 135.321 126.277C135.929 126.886 136.754 127.229 137.615 127.23C137.934 127.23 138.246 127.326 138.511 127.505C138.775 127.684 138.98 127.938 139.1 128.234L140.811 132.52L142.523 128.234C142.64 127.938 142.845 127.683 143.109 127.504C143.373 127.325 143.685 127.229 144.004 127.23H151.943C152.153 127.229 152.361 127.27 152.555 127.35C152.749 127.43 152.926 127.548 153.074 127.696C153.223 127.844 153.341 128.021 153.422 128.215C153.502 128.409 153.543 128.617 153.543 128.827V159.208C153.542 159.632 153.373 160.038 153.073 160.338C152.773 160.637 152.367 160.805 151.943 160.805ZM102.434 157.607H150.347V130.437H145.085L142.296 137.435C142.177 137.732 141.972 137.986 141.708 138.165C141.443 138.344 141.131 138.44 140.811 138.44C140.492 138.44 140.18 138.344 139.915 138.165C139.65 137.986 139.445 137.732 139.326 137.435L136.496 130.346C135.006 130.082 133.655 129.302 132.682 128.142C131.709 126.982 131.175 125.517 131.173 124.002V101.682C131.175 99.9726 131.854 98.3341 133.062 97.1256C134.27 95.917 135.907 95.2371 137.615 95.235H150.368V90.4555H102.434V111.241H111.973C113.68 111.243 115.317 111.922 116.523 113.13C117.73 114.338 118.409 115.975 118.412 117.683V139.967C118.41 141.481 117.876 142.947 116.904 144.107C115.931 145.268 114.582 146.049 113.092 146.315L110.25 153.403C110.132 153.702 109.928 153.958 109.663 154.138C109.398 154.319 109.085 154.415 108.765 154.415C108.444 154.415 108.131 154.319 107.866 154.138C107.602 153.958 107.397 153.702 107.28 153.403L104.486 146.405H102.429V157.594L102.434 157.607Z" fill="black"/>
<path d="M157.781 66.3977H173.685L175.964 72.1034L178.247 66.3977C179.164 66.3966 180.043 66.0314 180.69 65.3822C181.338 64.7331 181.702 63.8531 181.702 62.9356V47.0247C181.702 46.1072 181.338 45.2272 180.69 44.578C180.043 43.9289 179.164 43.5637 178.247 43.5626H157.781C156.864 43.5637 155.985 43.9289 155.337 44.578C154.689 45.2272 154.325 46.1072 154.325 47.0247V62.9356C154.325 63.8531 154.689 64.7331 155.337 65.3822C155.985 66.0314 156.864 66.3966 157.781 66.3977Z" fill="#73B733" stroke="black" stroke-width="5" stroke-miterlimit="10"/>
<path d="M167.152 62.2152L160.261 55.8632L162.66 53.2614L166.79 57.0652L174.935 47.107L177.675 49.3506L167.152 62.2152Z" fill="#1D1D1B"/>
<path d="M63.7351 179.005C71.5575 179.005 77.8989 172.659 77.8989 164.831C77.8989 157.003 71.5575 150.658 63.7351 150.658C55.9126 150.658 49.5713 157.003 49.5713 164.831C49.5713 172.659 55.9126 179.005 63.7351 179.005Z" fill="#FFE100"/>
<path d="M74.3199 157.29C74.143 157.043 73.9579 156.804 73.7645 156.569C72.5522 155.087 71.026 153.892 69.2961 153.072C67.5663 152.252 65.676 151.827 63.7618 151.827C61.8476 151.827 59.9573 152.252 58.2275 153.072C56.4977 153.892 54.9714 155.087 53.7591 156.569C53.5658 156.804 53.3848 157.043 53.2079 157.29C51.649 159.483 50.8134 162.109 50.8179 164.8C50.8223 167.492 51.6665 170.115 53.2325 172.303C53.4094 172.55 53.5946 172.789 53.7879 173.023C55.001 174.495 56.5242 175.68 58.2485 176.493C59.9728 177.307 61.8555 177.729 63.7618 177.729C65.6681 177.729 67.5508 177.307 69.2751 176.493C70.9994 175.68 72.5226 174.495 73.7357 173.023C73.9291 172.789 74.1142 172.55 74.2911 172.303C75.8566 170.115 76.7008 167.492 76.7059 164.801C76.7111 162.11 75.877 159.484 74.3199 157.29ZM73.024 157.096C72.8183 157.232 72.6126 157.36 72.374 157.483C71.6683 157.87 70.9289 158.193 70.1649 158.446C69.8724 157.503 69.488 156.59 69.0172 155.721C68.5178 154.778 67.8627 153.926 67.0796 153.202C69.4069 153.873 71.4782 155.23 73.024 157.096ZM70.4282 161.052C70.5544 161.052 70.6792 161.079 70.7943 161.13C70.9695 161.21 71.1137 161.345 71.2049 161.515C71.296 161.685 71.3291 161.88 71.299 162.07C71.269 162.26 71.1774 162.435 71.0384 162.568C70.8994 162.702 70.7206 162.786 70.5293 162.807C70.3381 162.829 70.145 162.788 69.9795 162.689C69.8141 162.591 69.6854 162.441 69.6133 162.262C69.5412 162.084 69.5295 161.886 69.5801 161.701C69.6307 161.515 69.7407 161.351 69.8934 161.233C70.0464 161.115 70.2347 161.051 70.4282 161.052ZM64.2164 152.765C65.7097 152.967 67.1166 154.157 68.2191 156.162C68.6632 156.975 69.0242 157.832 69.2969 158.718C67.6402 159.17 65.9333 159.412 64.2164 159.438V152.765ZM64.2164 160.348C66.0239 160.323 67.8208 160.068 69.5643 159.591C69.6219 159.821 69.6754 160.056 69.7289 160.291C69.3747 160.446 69.0804 160.712 68.8898 161.048C68.6993 161.385 68.6229 161.774 68.672 162.158C68.7211 162.542 68.8931 162.9 69.1622 163.177C69.4313 163.455 69.7831 163.638 70.1649 163.699C70.1649 163.919 70.1732 164.137 70.1896 164.354H65.4999C65.4229 164.04 65.2632 163.754 65.0374 163.523C64.8115 163.293 64.528 163.128 64.2164 163.045V160.348ZM69.5232 170.018C67.7902 169.545 66.0043 169.293 64.2082 169.269V166.511C64.5086 166.432 64.7836 166.277 65.0063 166.061C65.2291 165.845 65.3921 165.574 65.4793 165.276H70.1608C70.1349 166.876 69.9209 168.468 69.5232 170.018ZM69.7124 173.312C69.7113 173.546 69.6178 173.771 69.4522 173.936C69.2865 174.102 69.0622 174.196 68.828 174.197H68.7992C68.6388 174.192 68.4829 174.143 68.3486 174.055C68.2143 173.967 68.1069 173.844 68.0381 173.699C67.9784 173.58 67.9474 173.449 67.9476 173.316C67.9485 173.109 68.0224 172.908 68.1564 172.75C68.2903 172.592 68.4757 172.486 68.6799 172.451C68.7291 172.447 68.7787 172.447 68.828 172.451C68.9632 172.451 69.0967 172.482 69.218 172.542C69.3393 172.602 69.4451 172.69 69.5273 172.797C69.6457 172.943 69.7136 173.124 69.7206 173.312H69.7124ZM63.299 152.757V159.438C61.5834 159.411 59.878 159.169 58.2226 158.718C58.2884 158.5 58.3625 158.282 58.4406 158.072H58.5517C58.891 158.071 59.2232 157.975 59.5096 157.793C59.796 157.61 60.0248 157.351 60.1692 157.043C60.3137 156.736 60.3679 156.394 60.3255 156.057C60.2831 155.72 60.1459 155.403 59.9298 155.141C60.9253 153.753 62.0896 152.93 63.3072 152.765L63.299 152.757ZM57.9716 159.583C59.7085 160.058 61.4984 160.313 63.299 160.34V163.036C62.9878 163.12 62.7047 163.286 62.479 163.516C62.2533 163.746 62.0933 164.033 62.0155 164.346H57.3546C57.3759 162.742 57.5858 161.146 57.9799 159.591L57.9716 159.583ZM57.6713 156.289C57.6713 156.056 57.7641 155.832 57.9292 155.666C58.0943 155.501 58.3182 155.408 58.5517 155.408H58.6751C58.8852 155.438 59.0775 155.543 59.2165 155.703C59.3556 155.863 59.4322 156.069 59.432 156.281C59.4296 156.465 59.3695 156.643 59.2602 156.791C59.151 156.939 58.9981 157.048 58.8232 157.104C58.7357 157.134 58.644 157.149 58.5517 157.15C58.3185 157.149 58.0952 157.055 57.9304 156.89C57.7655 156.725 57.6724 156.502 57.6713 156.269V156.289ZM60.4399 153.206C59.9773 153.629 59.5634 154.103 59.2058 154.618C59.0012 154.538 58.7835 154.498 58.564 154.498C58.1779 154.498 57.802 154.623 57.4925 154.854C57.183 155.085 56.9565 155.41 56.8468 155.781C56.7371 156.151 56.7501 156.547 56.8839 156.91C57.0177 157.272 57.265 157.582 57.5891 157.792C57.5109 158.006 57.4368 158.228 57.3669 158.451C56.6016 158.197 55.8609 157.875 55.1537 157.487C54.9274 157.364 54.7135 157.236 54.5078 157.1C56.0511 155.233 58.1213 153.874 60.4481 153.202L60.4399 153.206ZM53.936 157.825C54.1787 157.985 54.4338 158.138 54.7053 158.286C55.472 158.704 56.2746 159.053 57.1036 159.327C56.683 160.972 56.4592 162.661 56.4372 164.358H51.7351C51.816 162.009 52.5841 159.736 53.9442 157.821L53.936 157.825ZM57.4451 166.943C57.601 167.049 57.7192 167.202 57.7824 167.379C57.8455 167.557 57.8504 167.75 57.7962 167.931C57.742 168.111 57.6317 168.27 57.4812 168.383C57.3307 168.496 57.148 168.559 56.9596 168.561C56.8844 168.561 56.8096 168.55 56.7375 168.528C56.5684 168.483 56.4164 168.389 56.301 168.258C56.1855 168.126 56.1118 167.963 56.0893 167.79C56.0668 167.616 56.0965 167.44 56.1746 167.283C56.2526 167.126 56.3756 166.997 56.5277 166.91C56.653 166.838 56.7944 166.798 56.9391 166.795C57.1212 166.789 57.3007 166.839 57.4533 166.939L57.4451 166.943ZM51.731 165.268H56.4372C56.4372 165.498 56.4454 165.729 56.4619 165.959C56.0534 166.08 55.7014 166.343 55.4691 166.7C55.2368 167.057 55.1394 167.485 55.1944 167.908C55.2494 168.331 55.4533 168.72 55.7693 169.005C56.0853 169.291 56.4928 169.455 56.9185 169.467C56.9802 169.747 57.046 170.022 57.116 170.29C56.2836 170.568 55.477 170.918 54.7053 171.336C54.4475 171.481 54.2007 171.629 53.9648 171.78C52.6009 169.873 51.827 167.607 51.7392 165.264L51.731 165.268ZM54.5325 172.488C54.73 172.361 54.9439 172.241 55.1496 172.122C55.863 171.734 56.6091 171.409 57.3793 171.15C57.6667 172.077 58.0442 172.973 58.5064 173.826C59.0062 174.77 59.6628 175.622 60.4481 176.346C58.1359 175.679 56.0758 174.336 54.5325 172.488ZM63.3072 176.782C61.8139 176.58 60.4276 175.395 59.3045 173.39C58.8722 172.59 58.5182 171.751 58.2473 170.883C59.8974 170.434 61.5974 170.195 63.3072 170.171V176.782ZM63.3072 169.261C61.5149 169.289 59.7332 169.544 58.0046 170.018C57.9387 169.767 57.8811 169.512 57.8235 169.253C58.1441 169.081 58.4049 168.816 58.5713 168.493C58.7376 168.169 58.8016 167.803 58.7547 167.442C58.7078 167.082 58.5522 166.744 58.3087 166.474C58.0652 166.204 57.7453 166.014 57.3916 165.93C57.3916 165.708 57.3834 165.486 57.3669 165.264H62.0525C62.1383 165.562 62.3003 165.833 62.5225 166.049C62.7447 166.266 63.0194 166.421 63.3196 166.499V169.257L63.3072 169.261ZM63.3072 165.523C63.196 165.455 63.1006 165.364 63.0275 165.255C62.9332 165.111 62.8832 164.942 62.8835 164.77C62.8838 164.625 62.9221 164.483 62.9946 164.358C63.0686 164.223 63.1763 164.109 63.3072 164.029C63.4454 163.946 63.603 163.902 63.7639 163.901C63.9211 163.902 64.0753 163.945 64.2105 164.025C64.3457 164.105 64.4571 164.22 64.5331 164.358C64.6038 164.484 64.642 164.625 64.6442 164.77C64.6451 164.943 64.5934 165.112 64.4961 165.255C64.4255 165.366 64.3296 165.457 64.2164 165.523C64.0805 165.607 63.9237 165.651 63.7639 165.651C63.6036 165.654 63.4455 165.612 63.3072 165.531V165.523ZM64.2164 176.782V170.179C65.9275 170.203 67.6289 170.443 69.2805 170.891C69.2119 171.113 69.1379 171.332 69.0583 171.546C68.9843 171.542 68.9102 171.542 68.8362 171.546C68.4896 171.545 68.1503 171.645 67.8596 171.834C67.5689 172.023 67.3392 172.292 67.1985 172.609C67.0577 172.926 67.012 173.277 67.0669 173.62C67.1217 173.962 67.2748 174.281 67.5074 174.538C66.5407 175.848 65.4094 176.63 64.2164 176.79V176.782ZM67.096 176.346C67.541 175.946 67.941 175.499 68.289 175.012C68.4718 175.075 68.6636 175.107 68.8568 175.107C69.2338 175.107 69.6013 174.989 69.907 174.768C70.2127 174.547 70.4409 174.235 70.559 173.877C70.6771 173.519 70.6791 173.132 70.5648 172.773C70.4504 172.413 70.2256 172.099 69.9222 171.875C70.0086 171.636 70.0909 171.397 70.1691 171.15C70.9379 171.409 71.6826 171.734 72.3946 172.122C72.6085 172.241 72.806 172.361 73.0117 172.488C71.4641 174.342 69.3962 175.689 67.0755 176.354L67.096 176.346ZM73.5712 171.768C73.3367 171.616 73.0898 171.467 72.8348 171.323C72.0631 170.905 71.2565 170.555 70.4241 170.278C70.8457 168.636 71.0722 166.95 71.0988 165.255H75.8091C75.7103 167.603 74.925 169.871 73.5506 171.776L73.5712 171.768ZM75.8091 164.358H71.0823C71.0823 164.107 71.0823 163.86 71.0576 163.613C71.4355 163.471 71.7542 163.205 71.9622 162.859C72.1701 162.513 72.255 162.106 72.2031 161.706C72.1511 161.305 71.9654 160.934 71.6761 160.653C71.3867 160.371 71.0108 160.196 70.6092 160.155C70.5516 159.875 70.4858 159.599 70.4159 159.331C71.2449 159.057 72.0475 158.708 72.8142 158.29C73.0816 158.142 73.3367 157.989 73.5794 157.829C74.9405 159.742 75.7088 162.015 75.7885 164.362L75.8091 164.358Z" fill="#333333"/>
<path d="M73.1063 98.6847H58.6052L56.5236 103.888L54.442 98.6847C54.0278 98.6847 53.6177 98.603 53.2352 98.4443C52.8526 98.2856 52.505 98.0529 52.2123 97.7597C51.9197 97.4664 51.6876 97.1183 51.5295 96.7353C51.3714 96.3522 51.2903 95.9417 51.2908 95.5273V81.016C51.2908 80.1797 51.6228 79.3776 52.2138 78.7862C52.8047 78.1949 53.6063 77.8626 54.442 77.8626H73.1063C73.9421 77.8626 74.7436 78.1949 75.3345 78.7862C75.9255 79.3776 76.2575 80.1797 76.2575 81.016V95.5273C76.258 95.9417 76.1769 96.3522 76.0188 96.7353C75.8607 97.1183 75.6286 97.4664 75.336 97.7597C75.0433 98.0529 74.6957 98.2856 74.3132 98.4443C73.9306 98.603 73.5205 98.6847 73.1063 98.6847Z" fill="#C37EB3" stroke="#1D1D1B" stroke-width="5" stroke-miterlimit="10"/>
<path d="M69.552 95.482C70.4021 95.0251 71.1128 94.3466 71.6089 93.5183C71.7472 93.3914 71.8312 93.2159 71.8434 93.0284C71.8434 92.979 71.8845 92.9296 71.901 92.8802H71.8434C71.8341 92.6899 71.7531 92.5101 71.6166 92.3771C71.4801 92.2442 71.2984 92.1679 71.1079 92.1637C70.9175 92.1596 70.7326 92.2278 70.5904 92.3546C70.4483 92.4815 70.3594 92.6575 70.3418 92.8473C69.732 93.5817 68.9343 94.1366 68.034 94.4528C66.9393 94.8603 65.7793 95.064 64.6113 95.0538C63.3817 95.0596 62.1633 94.8189 61.0282 94.3458C59.9769 93.9237 59.0867 93.1784 58.4859 92.2174C57.8981 91.2839 57.5924 90.2003 57.6055 89.097C57.6172 87.9064 57.8985 86.734 58.4283 85.6678C58.9403 84.593 59.7705 83.7019 60.8061 83.1155C61.9472 82.4743 63.2415 82.1569 64.5496 82.1975C66.3185 82.1975 67.7008 82.6627 68.6881 83.5683C69.6754 84.474 69.9716 85.602 69.9716 86.9522C69.9951 87.702 69.8415 88.4467 69.5232 89.1258C69.2441 89.7283 68.8114 90.2466 68.2685 90.6284C67.7725 90.9673 67.2125 91.2013 66.623 91.3159C66.5797 91.3157 66.5371 91.306 66.498 91.2875C66.4589 91.269 66.4243 91.2421 66.3967 91.2089C66.3615 91.1669 66.335 91.1184 66.3187 91.0661C66.3025 91.0138 66.2968 90.9588 66.3021 90.9042C66.3203 90.6491 66.3588 90.3958 66.4173 90.1468L67.6514 85.4208C67.7144 85.3162 67.7498 85.1972 67.7543 85.075V85.0133C67.7482 84.873 67.7022 84.7374 67.6217 84.6224C67.5412 84.5074 67.4295 84.4178 67.2999 84.3642C67.1702 84.3106 67.0279 84.2951 66.8898 84.3197C66.7516 84.3442 66.6234 84.4078 66.5201 84.5028C66.4517 84.5691 66.3971 84.6484 66.3597 84.736C66.3222 84.8237 66.3027 84.9179 66.3021 85.0133V85.0791C66.3067 85.1231 66.3178 85.1661 66.335 85.2068L66.2568 85.4826C65.7879 84.7375 64.6812 84.2764 63.6857 84.2764C62.863 84.2764 61.5877 84.861 60.7279 86.1701C60.093 87.1735 59.7327 88.3262 59.683 89.5128C59.6477 89.9815 59.7076 90.4525 59.8589 90.8975C60.0101 91.3424 60.2498 91.7522 60.5633 92.1022C61.0369 92.6063 61.6906 92.9023 62.3816 92.9255C62.8017 92.9266 63.2178 92.8446 63.6061 92.6842C63.9944 92.5238 64.3472 92.2883 64.6442 91.991C64.7094 92.2707 64.8748 92.5168 65.1091 92.6826C65.4241 92.8656 65.7865 92.9502 66.1499 92.9255C66.9655 92.9233 67.7694 92.7309 68.4977 92.3636C69.2261 91.9963 69.8589 91.4642 70.346 90.8095C71.1181 89.7005 71.5251 88.3779 71.5102 87.0263C71.5527 85.897 71.2883 84.7773 70.745 83.7865C70.1969 82.7942 69.3566 81.995 68.3384 81.4976C67.1765 80.9382 65.9006 80.6564 64.6113 80.6743C63.0861 80.6462 61.5769 80.9895 60.2137 81.6747C58.9238 82.3482 57.8671 83.3956 57.1818 84.6798C56.4448 85.993 56.062 87.4756 56.0711 88.9817C56.0599 90.3391 56.3955 91.6768 57.046 92.8679C57.7056 94.0958 58.7509 95.0723 60.0203 95.6466C61.5179 96.2922 63.1375 96.6054 64.7676 96.5646C66.4324 96.6167 68.0831 96.2441 69.5643 95.482H69.552ZM65.0268 89.1917C64.8667 89.7242 64.607 90.2215 64.2616 90.6572C64.0853 90.8656 63.8736 91.0412 63.6363 91.1759C63.4005 91.338 63.1241 91.4307 62.8383 91.4435C62.6102 91.4466 62.3837 91.4045 62.172 91.3197C61.9602 91.2349 61.7672 91.1091 61.6041 90.9495C61.2881 90.5033 61.1421 89.9586 61.1927 89.414C61.2741 88.8003 61.4345 88.1998 61.67 87.6274C61.828 87.0848 62.1481 86.6036 62.5873 86.2483C62.7516 86.0925 62.9455 85.9714 63.1576 85.8922C63.3696 85.813 63.5954 85.7773 63.8215 85.7872C64.0384 85.7789 64.2547 85.8151 64.4571 85.8937C64.6594 85.9723 64.8435 86.0916 64.998 86.2442C65.1609 86.398 65.2881 86.5858 65.3705 86.7942C65.453 87.0026 65.4887 87.2266 65.4752 87.4503C65.4053 88.0516 65.2444 88.6388 64.998 89.1917H65.0268Z" fill="#1D1D1B"/>
<path d="M165.687 187.539H181.591L183.887 193.249L186.17 187.539C187.086 187.539 187.965 187.175 188.613 186.526C189.261 185.878 189.626 184.998 189.626 184.081V168.17C189.626 167.715 189.537 167.265 189.364 166.845C189.19 166.425 188.936 166.044 188.615 165.722C188.294 165.401 187.913 165.145 187.493 164.971C187.074 164.797 186.624 164.708 186.17 164.708H165.687C165.233 164.708 164.784 164.797 164.364 164.971C163.944 165.145 163.563 165.401 163.242 165.722C162.921 166.044 162.667 166.425 162.494 166.845C162.32 167.265 162.231 167.715 162.232 168.17V184.081C162.232 184.998 162.596 185.878 163.244 186.526C163.892 187.175 164.771 187.539 165.687 187.539Z" fill="#D08D09" stroke="black" stroke-width="5" stroke-miterlimit="10"/>
<path d="M176.305 177.548H175.853H175.832H175.811L173.903 179.507C173.782 179.65 173.72 179.833 173.73 180.019C173.739 180.205 173.818 180.381 173.952 180.511C174.085 180.641 174.263 180.716 174.45 180.72C174.636 180.723 174.817 180.657 174.956 180.532L175.602 179.865V183.937C175.615 184.122 175.699 184.295 175.835 184.422C175.971 184.548 176.15 184.619 176.336 184.619C176.522 184.619 176.701 184.548 176.837 184.422C176.973 184.295 177.056 184.122 177.07 183.937V179.865L177.72 180.532C177.787 180.601 177.868 180.656 177.956 180.694C178.045 180.732 178.14 180.752 178.236 180.753C178.332 180.754 178.428 180.737 178.517 180.701C178.607 180.665 178.688 180.612 178.757 180.545C178.826 180.477 178.881 180.397 178.919 180.309C178.957 180.22 178.977 180.125 178.978 180.029C178.979 179.932 178.961 179.837 178.925 179.747C178.89 179.658 178.836 179.576 178.769 179.507L176.305 177.548Z" fill="black"/>
<path d="M184.146 177.383C184.125 176.724 183.915 176.084 183.54 175.541C183.165 174.999 182.641 174.576 182.031 174.324C182.052 174.16 182.064 173.818 182.064 173.818V173.789C182.025 172.616 181.523 171.506 180.668 170.701C179.813 169.897 178.675 169.463 177.502 169.496C176.747 169.488 176.002 169.669 175.334 170.022C174.666 170.375 174.096 170.889 173.676 171.517C173.459 171.476 173.239 171.455 173.018 171.455C172.189 171.433 171.38 171.714 170.741 172.244C170.103 172.773 169.678 173.517 169.546 174.337C168.936 174.586 168.412 175.007 168.037 175.548C167.661 176.09 167.451 176.728 167.432 177.387C167.43 177.405 167.43 177.423 167.432 177.441C167.463 178.349 167.853 179.208 168.516 179.83C169.179 180.451 170.061 180.783 170.969 180.755C171.156 180.735 171.328 180.645 171.45 180.503C171.573 180.361 171.637 180.178 171.629 179.991C171.621 179.803 171.542 179.626 171.408 179.495C171.274 179.364 171.095 179.289 170.908 179.285C170.393 179.298 169.893 179.109 169.517 178.757C169.14 178.405 168.918 177.919 168.896 177.404C168.91 176.979 169.065 176.572 169.336 176.245C169.607 175.919 169.979 175.692 170.394 175.601C170.559 175.566 170.708 175.476 170.814 175.345C170.921 175.213 170.978 175.049 170.978 174.88C170.995 174.362 171.216 173.871 171.593 173.515C171.969 173.159 172.471 172.966 172.989 172.978H173.018C173.279 172.978 173.538 173.024 173.783 173.114C173.952 173.177 174.139 173.175 174.306 173.109C174.474 173.043 174.612 172.917 174.692 172.756C174.951 172.229 175.353 171.787 175.853 171.48C176.352 171.174 176.928 171.015 177.515 171.023H177.56C178.346 171.001 179.108 171.292 179.68 171.832C180.252 172.372 180.585 173.118 180.608 173.904C180.608 174.173 180.567 174.439 180.485 174.695C180.452 174.797 180.442 174.904 180.456 175.01C180.469 175.116 180.506 175.218 180.563 175.308C180.619 175.398 180.695 175.475 180.783 175.533C180.872 175.591 180.972 175.63 181.077 175.646C181.516 175.716 181.917 175.937 182.211 176.27C182.505 176.604 182.674 177.029 182.69 177.474C182.668 177.989 182.445 178.475 182.069 178.827C181.693 179.179 181.193 179.368 180.678 179.355C180.491 179.36 180.313 179.435 180.179 179.567C180.046 179.698 179.968 179.876 179.96 180.063C179.953 180.25 180.017 180.433 180.14 180.574C180.262 180.716 180.434 180.805 180.62 180.825C181.528 180.852 182.41 180.519 183.073 179.898C183.736 179.277 184.126 178.419 184.158 177.511V177.453L184.146 177.383Z" fill="black"/>
<path d="M85.604 205.142C94.8397 205.142 102.327 197.65 102.327 188.407C102.327 179.165 94.8397 171.673 85.604 171.673C76.3684 171.673 68.8814 179.165 68.8814 188.407C68.8814 197.65 76.3684 205.142 85.604 205.142Z" fill="#3ABFF0"/>
<path d="M86.1717 181.347H93.231L94.1155 182.228V185.814H95.0287L95.9091 186.699V188.412L95.0287 189.293H94.1114V194.591L93.2269 195.476H87.7267L83.3126 200.35L81.7947 199.716V195.476H77.3805L76.5166 194.344V189.293H75.6322L74.7518 188.412V186.699L75.6322 185.814H76.5166V181.981L77.4505 181.347H84.5098V179.33C84.1469 179.153 83.8539 178.859 83.6775 178.496C83.5011 178.132 83.4515 177.72 83.5366 177.325C83.6217 176.93 83.8366 176.575 84.147 176.317C84.4573 176.058 84.8453 175.912 85.2489 175.9C85.6524 175.888 86.0484 176.012 86.3734 176.251C86.6984 176.491 86.9338 176.833 87.0419 177.222C87.1501 177.611 87.1248 178.026 86.97 178.399C86.8152 178.772 86.54 179.083 86.1882 179.281L86.1717 181.347ZM92.3836 188.412V183.113H78.265V193.483L82.675 193.73H83.5595V197.596L86.7353 193.994L87.3524 193.73H92.3836V188.412ZM88.6441 189.313C87.9806 189.969 87.1398 190.417 86.2252 190.602C85.4607 190.748 84.6722 190.705 83.928 190.477C83.1838 190.249 82.5066 189.842 81.9551 189.293L80.721 190.548C81.322 191.149 82.0367 191.623 82.8231 191.944C83.6172 192.275 84.4681 192.448 85.3284 192.454C87.0351 192.445 88.6702 191.767 89.8824 190.565L88.6441 189.313ZM82.6585 185.76H80.8937V187.527H82.6585V185.76ZM87.953 185.76H89.7178V187.527H87.953V185.76Z" fill="black"/>
<path d="M191.654 110.969C200.889 110.969 208.376 103.477 208.376 94.2346C208.376 84.9925 200.889 77.5004 191.654 77.5004C182.418 77.5004 174.931 84.9925 174.931 94.2346C174.931 103.477 182.418 110.969 191.654 110.969Z" fill="#C37EB3"/>
<path d="M200.708 98.7506C200.531 98.4913 199.988 97.6967 196.689 96.8487C196.315 96.7483 195.983 96.5321 195.74 96.2311C195.497 95.9301 195.355 95.5598 195.335 95.1732C195.617 94.8599 195.866 94.5177 196.076 94.1523L198.696 93.4483C198.803 93.4144 198.898 93.3513 198.971 93.2662C199.043 93.1811 199.091 93.0773 199.108 92.9667C199.195 92.3903 199.239 91.8083 199.239 91.2253C199.239 86.063 195.841 81.8599 191.662 81.8599C187.482 81.8599 184.076 86.063 184.076 91.2253C184.077 91.8083 184.121 92.3903 184.208 92.9667C184.224 93.0777 184.271 93.1819 184.344 93.2671C184.416 93.3524 184.512 93.4152 184.619 93.4483L187.256 94.1811C187.477 94.5556 187.736 94.9061 188.029 95.2267C188.001 95.6039 187.856 95.9628 187.614 96.2535C187.372 96.5442 187.046 96.7522 186.68 96.8487C183.336 97.7009 182.788 98.4954 182.612 98.7547C182.056 99.5781 182.361 101.743 182.521 102.641C182.545 102.778 182.616 102.901 182.722 102.991C182.828 103.08 182.962 103.13 183.101 103.131H200.202C200.341 103.13 200.475 103.08 200.581 102.991C200.687 102.901 200.758 102.778 200.782 102.641C200.963 101.735 201.268 99.5657 200.708 98.7506ZM187.544 90.6861C187.542 90.1935 187.602 89.7026 187.721 89.2246C189.071 88.3074 190.624 87.735 192.246 87.5574C193.224 88.6658 194.427 89.5515 195.776 90.155C195.776 90.3403 195.8 90.5214 195.8 90.7066C195.8 93.4813 193.945 95.7454 191.687 95.7454C189.428 95.7454 187.54 93.4483 187.54 90.6861H187.544ZM185.343 92.4109C185.299 92.0159 185.277 91.6187 185.277 91.2212C185.277 86.6929 188.157 83.0373 191.682 83.0373C195.208 83.0373 198.084 86.7094 198.084 91.2212C198.084 91.6174 198.062 92.0132 198.018 92.4068L196.685 92.7691C196.894 92.0932 197.001 91.3896 197.002 90.6819C197.002 90.3306 196.976 89.9796 196.923 89.6322C196.908 89.5293 196.867 89.4322 196.803 89.3506C196.738 89.2689 196.654 89.2056 196.557 89.167C195.178 88.6126 193.958 87.7243 193.007 86.5817C192.948 86.5052 192.872 86.4439 192.785 86.4031C192.697 86.3622 192.602 86.343 192.505 86.3471C190.488 86.4998 188.55 87.1938 186.894 88.356C186.78 88.4334 186.697 88.5486 186.659 88.6812C186.471 89.33 186.377 90.0023 186.38 90.6778C186.381 91.3882 186.488 92.0944 186.697 92.7732L185.343 92.4109ZM199.741 101.941H183.628C183.471 100.792 183.451 99.6563 183.628 99.4175C183.735 99.2528 184.306 98.6724 187.009 97.989C187.481 97.8668 187.916 97.6301 188.274 97.2998C188.633 96.9695 188.905 96.5558 189.066 96.0954C189.843 96.6261 190.763 96.9077 191.703 96.9025C192.644 96.8974 193.561 96.6058 194.332 96.0665C194.489 96.5328 194.76 96.953 195.118 97.2897C195.477 97.6265 195.914 97.8695 196.389 97.9973C199.05 98.6806 199.618 99.2611 199.729 99.4175C199.898 99.6645 199.881 100.776 199.721 101.941H199.741Z" fill="#1D1D1B"/>
</svg>
