<svg width="90" height="125" viewBox="0 0 90 125" fill="none" xmlns="http://www.w3.org/2000/svg">
<g clip-path="url(#clip0_213_1026)">
<path fill-rule="evenodd" clip-rule="evenodd" d="M25.5304 118.828L25.7431 118.753C28.2758 117.826 30.2056 115.976 31.281 113.723C31.8435 112.546 32.1682 111.27 32.2366 109.968C32.305 108.665 32.1157 107.362 31.6795 106.133C30.7676 103.549 28.8957 101.579 26.6072 100.484L26.6088 100.48C24.2721 99.3624 21.5909 99.2067 19.141 100.046L18.9268 100.122C16.3991 101.047 14.4707 102.901 13.3917 105.16L13.3878 105.159C12.272 107.497 12.1169 110.18 12.9556 112.633L13.032 112.849C13.9584 115.383 15.8061 117.314 18.0564 118.39C20.3944 119.511 23.0783 119.668 25.5304 118.828ZM54.7306 64.9125C54.9498 67.7279 54.676 70.4668 53.9855 73.0471L60.1155 75.2315C61.7249 72.4157 64.3069 70.1442 67.5928 68.9831C71.2338 67.6965 75.0553 68.0102 78.2894 69.558L78.4189 69.6259C81.5936 71.1874 84.1829 73.9403 85.4496 77.5313C86.7357 81.1766 86.4227 85.002 84.8771 88.2392L84.8092 88.3687C83.2499 91.5464 80.5006 94.138 76.9133 95.4057C73.273 96.6922 69.4508 96.3785 66.2167 94.8308L66.0872 94.7628C62.9127 93.2011 60.3232 90.4485 59.0565 86.8572C58.1958 84.4277 58.0249 81.807 58.5626 79.2863L52.4907 77.1228C48.9048 84.6968 41.4788 90.1903 32.533 90.8868C31.0862 90.9994 29.6598 90.9821 28.2645 90.8443L27.3017 96.068C27.7002 96.2168 28.092 96.3832 28.4759 96.5666L28.4845 96.5659C31.7751 98.1409 34.4665 100.973 35.7775 104.687C37.0862 108.396 36.7669 112.29 35.1937 115.586C33.6179 118.886 30.7895 121.583 27.0828 122.893L27.0688 122.898C23.3684 124.202 19.4847 123.881 16.196 122.307C12.8991 120.729 10.2047 117.897 8.89496 114.187L8.88101 114.145C7.58913 110.449 7.91111 106.572 9.47825 103.289L9.47758 103.28C11.0506 99.9859 13.8786 97.2927 17.5884 95.981L17.616 95.9713C19.3589 95.3571 21.2049 95.0899 23.0503 95.1846L24.0005 90.0272C14.5887 87.3233 7.38783 79.0078 6.58225 68.6614C5.66402 56.868 13.3629 46.3942 24.3791 43.4413L22.2574 32.5935C20.0177 32.7374 17.7108 32.3419 15.5307 31.3394C15.391 31.2895 15.2568 31.2252 15.1302 31.1477C11.8728 29.5316 9.37375 26.7069 8.16488 23.2746C6.99069 19.9457 7.06749 16.171 8.66617 12.7191C8.7134 12.5979 8.77119 12.4812 8.83889 12.3702C10.5232 8.98143 13.3959 6.56896 16.7019 5.40025C20.027 4.22493 23.7984 4.30238 27.2465 5.90333C27.3476 5.94299 27.4466 5.99025 27.5422 6.04548C30.9521 7.72441 33.3823 10.615 34.5583 13.9488C35.7341 17.2804 35.6544 21.06 34.0474 24.5158L33.986 24.6564C32.3994 27.9798 29.673 30.3918 26.499 31.6441L28.6614 42.6979L28.7801 42.687C34.8599 42.2137 40.5887 44.0382 45.1153 47.4307L53.0765 39.232C51.9816 37.9251 51.1308 36.4314 50.565 34.8226L50.5554 34.7949C49.2583 31.0946 49.5794 27.2119 51.1488 23.9246C52.7242 20.6243 55.553 17.9273 59.2588 16.6171L59.2866 16.6074C62.9828 15.3096 66.8617 15.6314 70.146 17.2027C73.4429 18.7803 76.138 21.6128 77.4476 25.3237C78.7563 29.0322 78.437 32.9259 76.8638 36.2214C75.2883 39.522 72.4591 42.219 68.753 43.5293C65.0486 44.8388 61.1587 44.5185 57.8664 42.9431C57.3453 42.6939 56.8396 42.4134 56.3522 42.1034L48.3518 50.3426C51.9349 54.2011 54.2899 59.2526 54.7306 64.9125ZM59.7265 39.0266C60.9018 39.5898 62.1767 39.9151 63.4778 39.9838C64.779 40.0524 66.0808 39.8632 67.3086 39.4268C69.8929 38.5129 71.8609 36.6426 72.9511 34.3587C73.5136 33.1823 73.8383 31.9062 73.9067 30.6037C73.9751 29.3012 73.7858 27.998 73.3496 26.7689C72.4363 24.1813 70.5679 22.2112 68.2859 21.1192C65.9477 19.999 63.2639 19.8421 60.8116 20.6823L60.5974 20.7581C58.1646 21.643 56.1766 23.4491 55.0616 25.7874C53.9426 28.1275 53.7862 30.814 54.626 33.2687L54.7016 33.4837C55.6278 36.0183 57.4759 37.9497 59.7265 39.0266ZM68.094 90.9129C69.237 91.461 70.477 91.7776 71.7426 91.8446C73.0082 91.9115 74.2745 91.7274 75.4687 91.3029C77.9452 90.4278 79.8404 88.6503 80.9118 86.4749L80.963 86.3591C81.5104 85.215 81.8266 83.9738 81.8933 82.7069C81.96 81.44 81.7759 80.1723 81.3516 78.9767C80.477 76.4975 78.7011 74.6003 76.5278 73.5271L76.4121 73.4758C75.269 72.9277 74.029 72.6111 72.7634 72.5442C71.4978 72.4772 70.2314 72.6613 69.0372 73.0859C66.5609 73.961 64.6657 75.7385 63.5943 77.9138L63.5431 78.0296C62.9957 79.1738 62.6796 80.415 62.6129 81.6819C62.5462 82.9488 62.7303 84.2165 63.1545 85.412C64.0293 87.8912 65.8051 89.7885 67.9783 90.8616L68.094 90.9129ZM12.6517 14.4473C11.5043 16.8501 11.4401 19.496 12.2631 21.8292C13.0869 24.164 14.7956 26.1832 17.1935 27.3304L17.2017 27.3342C19.6029 28.4804 22.2458 28.5437 24.5778 27.7199C26.9073 26.8969 28.9229 25.1832 30.0721 22.7763L30.1265 22.6703C31.2226 20.2962 31.2716 17.6938 30.4602 15.3939C29.6378 13.0618 27.9255 11.0439 25.521 9.89325L25.5142 9.89005C23.1157 8.74409 20.4753 8.67968 18.1463 9.50303C15.8141 10.3273 13.7973 12.0379 12.6517 14.4377L12.6517 14.4473ZM44.6984 73.6167C44.9068 73.2541 44.9814 72.8548 44.8706 72.4658C44.7642 72.0772 44.5277 71.7529 44.1691 71.5437L42.1754 70.3504C42.5104 69.4132 42.6848 68.237 42.7494 67.244L45.1847 66.6316C45.5951 66.5197 45.8935 66.2847 46.1079 65.951C46.3162 65.5921 46.3677 65.22 46.255 64.806L45.4637 61.7512C45.3534 61.3624 45.1445 61.0616 44.784 60.8274C44.4254 60.6184 44.0483 60.542 43.6339 60.6506L41.4102 61.221C40.9382 60.2991 40.2851 59.3988 39.5749 58.6449L40.855 56.4312C41.0637 56.0722 41.1403 55.698 41.0299 55.3094C40.9196 54.9208 40.6833 54.5965 40.3248 54.3875L37.6414 52.7995C37.2828 52.5905 36.8839 52.5158 36.4953 52.6264C36.0817 52.735 35.783 52.9698 35.5746 53.3322L34.3823 55.3243C33.4541 54.9956 32.2639 54.8146 31.2793 54.7492L30.6674 52.3145C30.5551 51.9004 30.3203 51.6016 29.9869 51.387C29.6284 51.1782 29.2572 51.1305 28.8433 51.2393L25.7919 52.0311C25.4032 52.1415 25.1028 52.3506 24.8691 52.7114C24.6567 53.0706 24.5804 53.4481 24.6927 53.8624L25.2628 56.0888C24.3074 56.5821 23.4649 57.2203 22.6606 57.9279L20.4779 56.6438C20.1193 56.4348 19.7425 56.3584 19.3575 56.4685C18.9694 56.5788 18.6455 56.8153 18.4368 57.1743L16.8274 59.8877C16.7252 60.058 16.6591 60.2476 16.6331 60.4446C16.6071 60.6416 16.6219 60.8419 16.6764 61.033C16.7867 61.4215 16.9978 61.7478 17.3584 61.9855L19.3772 63.1734C19.0434 64.1253 18.8744 65.276 18.8 66.2837L16.3685 66.8961C15.9541 67.0047 15.6557 67.2395 15.445 67.5729C15.2367 67.9353 15.1855 68.3076 15.298 68.7217L16.0894 71.7765C16.1995 72.1651 16.4083 72.4623 16.7692 72.7003C17.1278 72.9095 17.5016 72.9859 17.915 72.8738L20.139 72.3068C20.6364 73.2704 21.2689 74.0959 21.98 74.908L20.6981 77.0963C20.4892 77.4552 20.4129 77.8294 20.5249 78.2435C20.6335 78.6576 20.8681 78.9564 21.2301 79.1654L23.9409 80.7769C24.2995 80.9859 24.7001 81.0348 25.085 80.9247C25.4735 80.8179 25.7993 80.6066 26.0367 80.2454L27.1976 78.2271C28.1263 78.5557 29.3167 78.7363 30.301 78.8018L30.9129 81.2364C31.0252 81.6505 31.2595 81.9493 31.593 82.164C31.9515 82.373 32.3234 82.4242 32.737 82.3118L35.7885 81.5203C36.1766 81.4095 36.4775 81.2004 36.7112 80.8395C36.9239 80.4803 36.9999 80.1028 36.8876 79.6887L36.3173 77.4621C37.2644 76.9511 38.1069 76.3642 38.8906 75.6253L41.1025 76.9076C41.461 77.1166 41.8381 77.193 42.2228 77.0824C42.611 76.9721 42.9349 76.7356 43.1475 76.3763L44.7298 73.6907L44.6984 73.6167ZM37.3899 66.265C37.6746 69.9209 34.9449 73.1149 31.2933 73.3993C27.6415 73.6836 24.4504 70.9505 24.1657 67.2946C23.8811 63.6394 26.6108 60.4454 30.2626 60.161C33.9141 59.8767 37.1053 62.6098 37.3899 66.265Z" fill="#FF9F55"/>
</g>
<defs>
<clipPath id="clip0_213_1026">
<rect width="118.911" height="80.1356" fill="white" transform="translate(79.8938) rotate(85.5479)"/>
</clipPath>
</defs>
</svg>
