<svg id="Слой_1" data-name="Слой 1" xmlns="http://www.w3.org/2000/svg" xmlns:xlink="http://www.w3.org/1999/xlink" viewBox="0 0 605.28 600"><defs><style>.cls-1{fill:#ffa555;}.cls-2{fill:#fc5;}.cls-3{fill:url(#linear-gradient);}.cls-4,.cls-6{fill:#fff;}.cls-5{fill:#6e6e6e;}.cls-6{stroke:#fff;stroke-miterlimit:10;}.cls-7{fill:#6600b9;}.cls-8{fill:#d7d7e6;}.cls-9{fill:url(#linear-gradient-2);}.cls-10{fill:url(#linear-gradient-3);}</style><linearGradient id="linear-gradient" x1="308.44" y1="383.8" x2="487.42" y2="383.8" gradientTransform="matrix(1, 0, 0, -1, 0, 600.72)" gradientUnits="userSpaceOnUse"><stop offset="0" stop-color="#ff9f55"/><stop offset="1" stop-color="#ffd255"/></linearGradient><linearGradient id="linear-gradient-2" x1="517.67" y1="429.93" x2="582" y2="429.93" xlink:href="#linear-gradient"/><linearGradient id="linear-gradient-3" x1="561.04" y1="413.76" x2="570.63" y2="413.76" xlink:href="#linear-gradient"/></defs><title>Ai</title><path class="cls-1" d="M258.91,9.63c-14.38,0-26.8,9.79-32.63,23.95A42.15,42.15,0,0,0,173.7,74.41v.11c-23.89,1.73-42.76,23-42.76,48.94a51.41,51.41,0,0,0,6.77,25.66,42.13,42.13,0,0,0-8.77,66.52c-7.9,10.93-49.07,62.27-7.62,99.43L87,409.39s49.8-55.39,57.18-61.45c-1.22,3.41,5.14,45.92,50.32,38.37,6.77,22,26.15,37.9,49,37.9,28.48,0,51.57-24.67,51.57-55.1V51.77C295.07,28.5,278.88,9.63,258.91,9.63Z"/><polygon class="cls-2" points="472.53 302.43 471.04 300.94 503.63 268.34 599.97 268.34 599.97 270.45 504.51 270.45 472.53 302.43"/><path class="cls-3" d="M474.57,215.64a42.15,42.15,0,0,0-8.77-66.52,51.42,51.42,0,0,0,6.78-25.66c0-26-18.88-47.21-42.77-48.94v-.11a42.15,42.15,0,0,0-52.58-40.83C371.4,19.42,359,9.63,344.6,9.63c-20,0-36.16,18.87-36.16,42.14V369.11c0,30.43,23.09,55.1,51.57,55.1,22.85,0,42.23-15.89,49-37.9,24.79-.68,44.7-22.37,44.7-49a32.86,32.86,0,0,0-.16-4c16.62-8.2,30.23-31.48,33.26-60.08C489.24,250.1,484.22,229,474.57,215.64Z"/><path class="cls-4" d="M407.17,376.45l-2.49-.49,1.24.25-1.24-.25c0-.12,2.24-12.09-4.92-20.78-5.08-6.17-13.63-9.29-25.43-9.29-12.16,0-20.88-3.38-25.91-10-7.72-10.2-3.87-24.2-3.7-24.79l2.44.69c0,.13-3.67,13.4,3.29,22.59,4.53,6,12.57,9,23.88,9,12.6,0,21.82,3.44,27.41,10.23C409.66,363.21,407.27,375.92,407.17,376.45Z"/><path class="cls-4" d="M370.13,321.42c.15-.79,3.7-19.47,19.1-29.54,9.53-6.24,21.44-7.73,35.42-4.44,12.32,2.91,22.23,1.44,29.47-4.35,13.5-10.82,13.4-33.34,13.39-33.56h2.54c0,1,.13,24-14.33,35.56-7.88,6.32-18.53,8-31.65,4.85s-24.51-1.76-33.44,4.08c-14.48,9.46-18,27.7-18,27.88Z"/><path class="cls-4" d="M423.67,258.65c-8.92,0-19.39-1.7-27.67-8-9.31-7.07-14-18.61-14-34.3,0-16.45-4.7-29.22-14-38-14.82-13.94-36.45-12.79-36.67-12.78l-.15-2.53c.93,0,22.95-1.22,38.56,13.47,9.8,9.22,14.78,22.61,14.78,39.79,0,14.86,4.38,25.72,13,32.28,16.74,12.7,44.14,5.25,44.41,5.18l.68,2.44A77.11,77.11,0,0,1,423.67,258.65Z"/><path class="cls-4" d="M359.26,160l-2.53-.27a53.12,53.12,0,0,1,6-18.08c6.62-11.93,17.15-18.24,30.48-18.24,31.84,0,36.14-18.27,36.14-36.15h2.53c0,12.2-2.29,20.77-7.21,27-6.23,7.87-16.52,11.7-31.46,11.7-12.5,0-22,5.68-28.22,16.88A51.36,51.36,0,0,0,359.26,160Z"/><path class="cls-4" d="M383.76,194.83a32.12,32.12,0,0,1-5.09-.37l.44-2.5c.13,0,13,2.16,21.71-5.16,5.39-4.53,8.12-11.76,8.12-21.49,0-10,3-17.65,8.95-22.78,10.54-9.1,26.35-6.9,27-6.8l-.36,2.51c-.2,0-15.37-2.11-25,6.22-5.34,4.62-8,11.64-8,20.85,0,10.52-3,18.41-9,23.44S388.72,194.83,383.76,194.83Zm60.78-56.59h0l.18-1.26Z"/><path class="cls-4" d="M375.29,121.65c-2.58,0-19.58-.4-29.87-10.5-5.09-5-7.67-11.56-7.67-19.5,0-15.34,9.54-21.05,18.76-26.57s17.8-10.66,17.8-25h2.54c0,15.8-9.68,21.59-19,27.2-9,5.39-17.52,10.48-17.52,24.39,0,7.23,2.32,13.19,6.91,17.69,10.17,10,28.18,9.78,28.36,9.77v2.54Z"/><path class="cls-4" d="M325.11,277.8h-2.53c0-9.78,2.71-32.53,27.83-32.53,9.43,0,16.3-4,20.43-11.83a32.42,32.42,0,0,0,3.47-12.13l2.54.11a34.81,34.81,0,0,1-3.72,13.12c-3.16,6.05-9.67,13.26-22.72,13.26C328.4,247.8,325.11,266.6,325.11,277.8Z"/><path class="cls-4" d="M196.35,376.45c-.11-.53-2.5-13.24,5.43-22.87,5.58-6.79,14.8-10.23,27.4-10.23,11.32,0,19.35-3,23.88-9,7-9.19,3.33-22.46,3.3-22.59l2.44-.69c.16.59,4,14.59-3.7,24.79-5,6.66-13.76,10-25.92,10-11.8,0-20.37,3.13-25.45,9.3-7.16,8.72-4.92,20.65-4.9,20.77Z"/><path class="cls-4" d="M215.75,338.93l-2.54-.13c0-.19.8-18.74-11.12-31.28-7.34-7.73-18-11.64-31.6-11.64s-23.47-4-29.69-12c-11.42-14.61-6-36.95-5.78-37.9l2.46.61c-.06.22-5.33,22.11,5.32,35.74,5.72,7.31,15,11,27.69,11,14.36,0,25.61,4.19,33.46,12.45C216.62,319.13,215.79,338.12,215.75,338.93Z"/><path class="cls-4" d="M173.56,237.09A76.82,76.82,0,0,1,156,229.5l1.33-2.16c.25.15,24.5,14.95,44.1,7.42,10.13-3.89,17.36-13.09,21.51-27.36,4.79-16.49,13.31-28,25.3-34.08,19.09-9.75,39.91-2.48,40.79-2.17l-.86,2.39c-.2-.07-20.7-7.2-38.8,2.05-11.33,5.79-19.4,16.74-24,32.52-4.38,15.07-12.14,24.83-23,29C192.65,240.86,182.12,239.57,173.56,237.09Z"/><path class="cls-4" d="M248.29,168.46a51.43,51.43,0,0,0-5.71-17.18c-6.24-11.2-15.73-16.88-28.22-16.88-15,0-25.24-3.83-31.47-11.7-4.92-6.21-7.21-14.78-7.21-27h2.53c0,17.87,4.3,36.14,36.15,36.14,13.32,0,23.86,6.31,30.47,18.25a53.12,53.12,0,0,1,6,18.08Z"/><path class="cls-4" d="M209.23,207.81c-5,0-12.61-1-18.68-6.07s-9-12.92-9-23.45c0-9.21-2.71-16.23-8.07-20.85-9.66-8.35-24.83-6.24-25-6.22l-.37-2.5c.67-.1,16.48-2.31,27,6.8,5.94,5.13,9,12.79,9,22.77,0,9.74,2.73,17,8.13,21.51,8.72,7.32,21.57,5.17,21.7,5.14l.44,2.5A31.71,31.71,0,0,1,209.23,207.81Z"/><path class="cls-4" d="M228.22,121.65h-.31v-2.54c.18,0,18.22.2,28.37-9.78,4.58-4.5,6.91-10.45,6.91-17.68,0-13.91-8.52-19-17.53-24.39-9.36-5.61-19-11.4-19-27.2h2.54c0,14.36,8.65,19.54,17.81,25s18.75,11.23,18.75,26.57c0,7.94-2.58,14.5-7.67,19.5C247.8,121.25,230.81,121.65,228.22,121.65Z"/><path class="cls-4" d="M275.9,268h-2.54c0-11.2-3.29-30-25.3-30-13,0-19.55-7.21-22.72-13.26a34.39,34.39,0,0,1-3.71-13.12l2.53-.11h0a32.79,32.79,0,0,0,3.47,12.13c4.13,7.85,11,11.83,20.43,11.83C273.18,235.42,275.9,258.17,275.9,268Z"/><path class="cls-5" d="M219.28,423.44V587.88H175.11V423.44Z"/><path class="cls-5" d="M61.75,550.48l-9.28,38.06H6.85L54.41,424.1h58.83l49,164.44H114.72l-10.49-38.06ZM98.1,518l-7.56-29.49c-2.44-9.26-5.61-22.9-8.3-32.44h-.48c-2.44,9.51-4.88,23.18-7.05,32.44l-7,29.52Z"/><circle class="cls-6" cx="152.68" cy="151.38" r="6.94"/><circle class="cls-6" cx="220.57" cy="208.94" r="6.94"/><circle class="cls-6" cx="152.73" cy="226.85" r="6.94"/><circle class="cls-6" cx="216.09" cy="341.04" r="6.94"/><circle class="cls-6" cx="273.86" cy="269.61" r="6.94"/><circle class="cls-6" cx="255.5" cy="308.35" r="6.94"/><circle class="cls-6" cx="135.94" cy="244.99" r="6.94"/><circle class="cls-6" cx="196.61" cy="379.55" r="6.94"/><circle class="cls-6" cx="370.58" cy="323.35" r="6.94"/><circle class="cls-6" cx="346.4" cy="310.14" r="6.94"/><circle class="cls-6" cx="323.56" cy="279.24" r="6.94"/><circle class="cls-6" cx="379.09" cy="223.49" r="6.94"/><circle class="cls-6" cx="328.49" cy="163.49" r="6.94"/><circle class="cls-6" cx="446.04" cy="137.51" r="6.94"/><circle class="cls-6" cx="358.49" cy="163.26" r="6.94"/><circle class="cls-6" cx="429.92" cy="87.58" r="6.94"/><circle class="cls-6" cx="377.08" cy="122.96" r="6.94"/><circle class="cls-6" cx="375.28" cy="43.25" r="6.94"/><circle class="cls-6" cx="440.89" cy="255.29" r="6.94"/><circle class="cls-6" cx="468.43" cy="245.21" r="6.94"/><circle class="cls-6" cx="405.06" cy="379.1" r="6.94"/><circle class="cls-6" cx="227.68" cy="40.99" r="6.94"/><circle class="cls-6" cx="176.64" cy="92.49" r="6.94"/><circle class="cls-6" cx="226.12" cy="123.39" r="6.94"/><circle class="cls-6" cx="250.07" cy="172.42" r="6.94"/><circle class="cls-6" cx="284.33" cy="171.75" r="6.94"/><path class="cls-7" d="M583.51,244.52,517,244.8a10.11,10.11,0,0,1-10.14-10.05l-.58-138.9a10.09,10.09,0,0,1,10-10.14l66.56-.28a10.07,10.07,0,0,1,10.13,10l.59,138.9a10.11,10.11,0,0,1-10,10.19Z"/><path class="cls-4" d="M576.7,220.91l-53.13.23a9.44,9.44,0,0,1-9.47-9.4l-.44-105a9.43,9.43,0,0,1,9.39-9.47h0L576.18,97a9.44,9.44,0,0,1,9.47,9.4l.45,105a9.44,9.44,0,0,1-9.37,9.51Z"/><path class="cls-4" d="M558.77,90.71l-18.36.08a1.34,1.34,0,0,0-1.36,1.34v0h0a1.36,1.36,0,0,0,1.36,1.36h0l18.36-.08a1.36,1.36,0,0,0,1.36-1.36h0a1.34,1.34,0,0,0-1.35-1.35Z"/><path class="cls-4" d="M556.07,231.81a5.89,5.89,0,1,1-5.93-5.85h0A5.88,5.88,0,0,1,556.07,231.81Z"/><path class="cls-8" d="M518.27,109.65v21.22a3.73,3.73,0,0,0,3.91,3.55h56.55a3.73,3.73,0,0,0,3.91-3.55V109.62a3.69,3.69,0,0,0-3.46-3.52h-57A3.73,3.73,0,0,0,518.27,109.65Z"/><path class="cls-8" d="M539.27,132.73c-.08.2-9.58,9.58-9.58,9.26s0-.31,2.47-11.13Z"/><path class="cls-4" d="M538.78,120.34a8.6,8.6,0,0,1-4.82,7.73,8.49,8.49,0,0,1-3.8.89,8.72,8.72,0,0,1-2.44-.35,8.62,8.62,0,1,1,11.06-8.27Z"/><rect class="cls-4" x="541.2" y="112.47" width="31.86" height="1.01"/><rect class="cls-4" x="541.29" y="118.96" width="37.52" height="1.01"/><rect class="cls-4" x="541.1" y="124.72" width="37.52" height="1.01"/><path class="cls-9" d="M582,160.18v21.23a3.73,3.73,0,0,1-3.91,3.55H521.58a3.73,3.73,0,0,1-3.91-3.55V160.16a3.7,3.7,0,0,1,3.47-3.53h57A3.74,3.74,0,0,1,582,160.18Z"/><path class="cls-10" d="M561,183.27c.08.2,9.58,9.58,9.59,9.26s0-.32-2.48-11.14Z"/><path class="cls-4" d="M561.53,170.87a8.6,8.6,0,0,0,8.6,8.62h0a8.72,8.72,0,0,0,2.44-.35,8.62,8.62,0,1,0-11.06-8.27Z"/><rect class="cls-4" x="527.25" y="163" width="31.86" height="1.01"/><rect class="cls-4" x="521.5" y="169.5" width="37.52" height="1.01"/><rect class="cls-4" x="521.69" y="175.25" width="37.52" height="1.01"/></svg>