<svg width="136" height="135" viewBox="0 0 136 135" fill="none" xmlns="http://www.w3.org/2000/svg">
<path d="M58.1743 2.16675C54.9433 2.16675 52.1526 4.3695 50.8427 7.5555C49.4445 7.19791 47.9831 7.16502 46.5703 7.45935C45.1574 7.75368 43.8304 8.36744 42.6906 9.25377C41.5508 10.1401 40.6283 11.2755 39.9936 12.5734C39.359 13.8712 39.0289 15.2971 39.0285 16.7422V16.767C33.6607 17.1562 29.4208 21.942 29.4208 27.7785C29.4146 29.8031 29.9391 31.794 30.942 33.552C29.6745 34.2768 28.5915 35.2853 27.7777 36.4985C26.9638 37.7118 26.4411 39.0971 26.2503 40.5462C26.0595 41.9952 26.2058 43.4688 26.6779 44.8519C27.1499 46.2349 27.9349 47.49 28.9714 48.519C27.1964 50.9782 17.9459 62.5297 27.2593 70.8907L19.548 92.1127C19.548 92.1127 30.7375 79.65 32.3957 78.2865C32.1216 79.0537 33.5506 88.6185 43.7021 86.9197C45.2232 91.8697 49.5777 95.4472 54.7119 95.4472C61.111 95.4472 66.2991 89.8965 66.2991 83.0497V11.6482C66.2991 6.4125 62.6614 2.16675 58.1743 2.16675Z" fill="#FFA555"/>
<path d="M106.172 68.0467L105.838 67.7115L113.16 60.3765H134.807V60.8512H113.358L106.172 68.0467Z" fill="#FFCC55"/>
<path d="M106.631 48.519C107.667 47.49 108.452 46.2349 108.924 44.8519C109.396 43.4688 109.543 41.9952 109.352 40.5462C109.161 39.0971 108.639 37.7118 107.825 36.4985C107.011 35.2853 105.928 34.2768 104.66 33.552C105.664 31.7941 106.189 29.8033 106.184 27.7785C106.184 21.9285 101.942 17.1562 96.5738 16.767V16.7422C96.5735 15.2971 96.2434 13.8712 95.6087 12.5734C94.974 11.2755 94.0515 10.1401 92.9117 9.25377C91.7719 8.36744 90.4449 7.75368 89.032 7.45935C87.6192 7.16502 86.1578 7.19791 84.7596 7.5555C83.4497 4.3695 80.6635 2.16675 77.428 2.16675C72.9342 2.16675 69.3032 6.4125 69.3032 11.6482V83.0497C69.3032 89.8965 74.4913 95.4472 80.8905 95.4472C86.0246 95.4472 90.3791 91.872 91.9002 86.9197C97.4703 86.7667 101.944 81.8865 101.944 75.8947C101.944 75.5887 101.944 75.285 101.908 74.9947C105.642 73.1497 108.7 67.9118 109.381 61.4767C109.927 56.2725 108.799 51.525 106.631 48.519Z" fill="url(#paint0_linear_209_1078)"/>
<path d="M91.4867 84.7012L90.9272 84.591L91.2059 84.6472L90.9272 84.591C90.9272 84.564 91.4306 81.8707 89.8218 79.9155C88.6804 78.5272 86.7593 77.8252 84.1079 77.8252C81.3757 77.8252 79.4164 77.0647 78.2862 75.5752C76.5516 73.2802 77.4167 70.1302 77.4549 69.9975L78.0031 70.1527C78.0031 70.182 77.1785 73.1677 78.7423 75.2355C79.7602 76.5855 81.5667 77.2605 84.1079 77.2605C86.939 77.2605 89.0106 78.0345 90.2667 79.5622C92.0462 81.7222 91.5092 84.582 91.4867 84.7012Z" fill="white"/>
<path d="M83.1643 72.3195C83.198 72.1418 83.9957 67.9388 87.4559 65.673C89.5972 64.269 92.2732 63.9338 95.4144 64.674C98.1825 65.3288 100.409 64.998 102.036 63.6953C105.069 61.2608 105.047 56.1938 105.045 56.1443H105.615C105.615 56.3693 105.644 61.5443 102.395 64.1453C100.625 65.5673 98.232 65.934 95.2841 65.2365C92.3361 64.539 89.7769 64.8405 87.7704 66.1545C84.5169 68.283 83.726 72.387 83.726 72.4275L83.1643 72.3195Z" fill="white"/>
<path d="M95.1941 58.1963C93.1899 58.1963 90.8374 57.8138 88.977 56.3963C86.8851 54.8055 85.8313 52.209 85.8313 48.6788C85.8313 44.9775 84.7753 42.1043 82.6857 40.1288C79.3558 36.9923 74.4957 37.251 74.4463 37.2533L74.4126 36.684C74.6216 36.684 79.5692 36.4095 83.0766 39.7148C85.2786 41.7893 86.3975 44.802 86.3975 48.6675C86.3975 52.011 87.3817 54.4545 89.3185 55.9305C93.0798 58.788 99.2363 57.1118 99.2969 57.096L99.4497 57.645C98.0594 58.0044 96.63 58.1895 95.1941 58.1963Z" fill="white"/>
<path d="M80.7219 36L80.1534 35.9393C80.354 34.5129 80.8108 33.1347 81.5016 31.8713C82.989 29.187 85.355 27.7673 88.3501 27.7673C95.5042 27.7673 96.4704 23.6565 96.4704 19.6335H97.0388C97.0388 22.3785 96.5243 24.3068 95.4188 25.7085C94.019 27.4793 91.707 28.341 88.3501 28.341C85.5415 28.341 83.4069 29.619 82.0094 32.139C81.3548 33.3393 80.9188 34.6467 80.7219 36Z" fill="white"/>
<path d="M86.2268 43.8368C85.844 43.8389 85.4616 43.8111 85.0831 43.7535L85.182 43.191C85.2112 43.191 88.103 43.677 90.06 42.03C91.2711 41.0108 91.8845 39.384 91.8845 37.1948C91.8845 34.9448 92.5585 33.2235 93.8954 32.0693C96.2637 30.0218 99.816 30.5168 99.9621 30.5393L99.8812 31.104C99.8362 31.104 96.4277 30.6293 94.2639 32.5035C93.0641 33.543 92.4664 35.1225 92.4664 37.1948C92.4664 39.5618 91.7924 41.337 90.4442 42.4688C89.0961 43.6005 87.3413 43.8368 86.2268 43.8368ZM99.8834 31.104L99.9239 30.8205L99.8834 31.104Z" fill="white"/>
<path d="M84.3236 27.3713C83.7439 27.3713 79.9242 27.2813 77.6122 25.0088C76.4685 23.8838 75.8888 22.4078 75.8888 20.6213C75.8888 17.1698 78.0323 15.885 80.104 14.643C82.1756 13.401 84.1034 12.2445 84.1034 9.01801H84.6742C84.6742 12.573 82.4992 13.8758 80.4051 15.138C78.3828 16.3508 76.4685 17.496 76.4685 20.6258C76.4685 22.2525 76.9898 23.5935 78.0211 24.606C80.3062 26.856 84.3528 26.8065 84.3933 26.8043V27.3758L84.3236 27.3713Z" fill="white"/>
<path d="M73.0488 62.505H72.4803C72.4803 60.3045 73.0893 55.1857 78.7335 55.1857C80.8523 55.1857 82.3959 54.2857 83.3239 52.524C83.7593 51.674 84.0242 50.7468 84.1035 49.7947L84.6742 49.8195C84.5925 50.849 84.3085 51.8522 83.8384 52.7715C83.1284 54.1327 81.6657 55.755 78.7335 55.755C73.788 55.755 73.0488 59.985 73.0488 62.505Z" fill="white"/>
<path d="M44.1177 84.7013C44.093 84.582 43.556 81.7222 45.3378 79.5555C46.5916 78.0277 48.6632 77.2538 51.4943 77.2538C54.0378 77.2538 55.842 76.5788 56.8599 75.2288C58.4327 73.161 57.6081 70.1753 57.6013 70.146L58.1496 69.9908C58.1855 70.1235 59.0483 73.2735 57.3182 75.5685C56.1948 77.067 54.2265 77.8185 51.4943 77.8185C48.843 77.8185 46.9174 78.5228 45.7759 79.911C44.1672 81.873 44.6705 84.5573 44.675 84.5843L44.1177 84.7013Z" fill="white"/>
<path d="M48.4767 76.2592L47.906 76.23C47.906 76.1872 48.0857 72.0135 45.4074 69.192C43.7582 67.4527 41.363 66.573 38.3072 66.573C35.2515 66.573 33.0338 65.673 31.6362 63.873C29.0703 60.5857 30.2881 55.5592 30.3375 55.3455L30.8902 55.4827C30.8768 55.5322 29.6927 60.4575 32.0856 63.5242C33.3708 65.169 35.4559 65.9992 38.3072 65.9992C41.5338 65.9992 44.0615 66.942 45.8253 68.8005C48.6722 71.8042 48.4857 76.077 48.4767 76.2592Z" fill="white"/>
<path d="M38.9971 53.3453C37.6161 52.9426 36.2906 52.3689 35.0515 51.6375L35.3504 51.1515C35.4065 51.1853 40.8552 54.5153 45.2591 52.821C47.5353 51.9458 49.1598 49.8758 50.0922 46.665C51.1685 42.9548 53.0828 40.365 55.7769 38.997C60.0662 36.8033 64.7442 38.439 64.9419 38.5087L64.7487 39.0465C64.7038 39.0307 60.0976 37.4265 56.0308 39.5078C53.485 40.8105 51.6718 43.2743 50.6382 46.8248C49.6541 50.2155 47.9105 52.4115 45.4704 53.3498C43.2864 54.1935 40.9204 53.9033 38.9971 53.3453Z" fill="white"/>
<path d="M55.7881 37.9035C55.5922 36.5491 55.1578 35.2403 54.5051 34.038C53.103 31.518 50.9707 30.24 48.1644 30.24C44.794 30.24 42.4932 29.3783 41.0934 27.6075C39.9879 26.2103 39.4734 24.282 39.4734 21.5325H40.0419C40.0419 25.5533 41.008 29.664 48.1644 29.664C51.1572 29.664 53.5255 31.0838 55.0107 33.7703C55.7015 35.0337 56.1582 36.4119 56.3588 37.8383L55.7881 37.9035Z" fill="white"/>
<path d="M47.0117 46.7573C45.8883 46.7573 44.1784 46.5323 42.8145 45.3915C41.4506 44.2508 40.7923 42.4845 40.7923 40.1153C40.7923 38.043 40.1834 36.4635 38.9791 35.424C36.8086 33.5453 33.4 34.02 33.3618 34.0245L33.2787 33.462C33.4292 33.4395 36.9816 32.9423 39.3453 34.992C40.68 36.1463 41.3675 37.8698 41.3675 40.1153C41.3675 42.3068 41.9809 43.9403 43.1942 44.955C45.1535 46.602 48.0408 46.1183 48.07 46.1115L48.1689 46.674C47.7861 46.7335 47.399 46.7613 47.0117 46.7573Z" fill="white"/>
<path d="M51.2786 27.3712H51.209V26.7997C51.2494 26.7997 55.3028 26.8447 57.5834 24.5992C58.6125 23.5867 59.136 22.248 59.136 20.6212C59.136 17.4915 57.2217 16.3462 55.1972 15.1335C53.0941 13.8712 50.9281 12.5685 50.9281 9.01349H51.4988C51.4988 12.2445 53.4424 13.41 55.5005 14.6385C57.5587 15.867 59.7135 17.1652 59.7135 20.6167C59.7135 22.4032 59.1338 23.8792 57.9901 25.0042C55.678 27.2812 51.8606 27.3712 51.2786 27.3712Z" fill="white"/>
<path d="M61.9917 60.3H61.421C61.421 57.78 60.6818 53.55 55.7364 53.55C52.8154 53.55 51.3437 51.9278 50.6314 50.5665C50.1603 49.6478 49.8769 48.6442 49.7979 47.6145L50.3663 47.5898C50.4473 48.5415 50.7121 49.4684 51.146 50.319C52.074 52.0853 53.6176 52.9808 55.7364 52.9808C61.3806 52.9695 61.9917 58.0883 61.9917 60.3Z" fill="white"/>
<path d="M12.8072 90.4117V132.421H1.53906V90.4117H12.8072Z" fill="#7721AD"/>
<path d="M29.3287 122.699L26.9628 132.421H15.3239L27.4571 90.4117H42.4663L54.977 132.421H42.8438L40.1678 122.699H29.3287ZM38.6039 114.408L36.6738 106.875C36.0515 104.508 35.2426 101.025 34.5573 98.586H34.4337C33.8113 101.016 33.1889 104.508 32.6362 106.875L30.8387 114.417L38.6039 114.408Z" fill="#7721AD"/>
<path d="M34.3056 35.622C35.1668 35.622 35.8649 34.9229 35.8649 34.0605C35.8649 33.1981 35.1668 32.499 34.3056 32.499C33.4444 32.499 32.7462 33.1981 32.7462 34.0605C32.7462 34.9229 33.4444 35.622 34.3056 35.622Z" fill="white" stroke="white" stroke-miterlimit="10"/>
<path d="M49.5597 48.573C50.4209 48.573 51.1191 47.8739 51.1191 47.0115C51.1191 46.1491 50.4209 45.45 49.5597 45.45C48.6985 45.45 48.0004 46.1491 48.0004 47.0115C48.0004 47.8739 48.6985 48.573 49.5597 48.573Z" fill="white" stroke="white" stroke-miterlimit="10"/>
<path d="M34.3168 52.6027C35.178 52.6027 35.8761 51.9036 35.8761 51.0412C35.8761 50.1788 35.178 49.4797 34.3168 49.4797C33.4556 49.4797 32.7574 50.1788 32.7574 51.0412C32.7574 51.9036 33.4556 52.6027 34.3168 52.6027Z" fill="white" stroke="white" stroke-miterlimit="10"/>
<path d="M48.5531 78.2955C49.4143 78.2955 50.1125 77.5964 50.1125 76.734C50.1125 75.8716 49.4143 75.1725 48.5531 75.1725C47.6919 75.1725 46.9938 75.8716 46.9938 76.734C46.9938 77.5964 47.6919 78.2955 48.5531 78.2955Z" fill="white" stroke="white" stroke-miterlimit="10"/>
<path d="M61.5335 62.2237C62.3947 62.2237 63.0928 61.5246 63.0928 60.6622C63.0928 59.7998 62.3947 59.1007 61.5335 59.1007C60.6723 59.1007 59.9741 59.7998 59.9741 60.6622C59.9741 61.5246 60.6723 62.2237 61.5335 62.2237Z" fill="white" stroke="white" stroke-miterlimit="10"/>
<path d="M57.4081 70.9403C58.2693 70.9403 58.9674 70.2412 58.9674 69.3788C58.9674 68.5164 58.2693 67.8173 57.4081 67.8173C56.5469 67.8173 55.8488 68.5164 55.8488 69.3788C55.8488 70.2412 56.5469 70.9403 57.4081 70.9403Z" fill="white" stroke="white" stroke-miterlimit="10"/>
<path d="M30.5443 56.6842C31.4055 56.6842 32.1037 55.9851 32.1037 55.1227C32.1037 54.2604 31.4055 53.5612 30.5443 53.5612C29.6831 53.5612 28.985 54.2604 28.985 55.1227C28.985 55.9851 29.6831 56.6842 30.5443 56.6842Z" fill="white" stroke="white" stroke-miterlimit="10"/>
<path d="M44.1762 86.9603C45.0374 86.9603 45.7355 86.2611 45.7355 85.3988C45.7355 84.5364 45.0374 83.8372 44.1762 83.8372C43.315 83.8372 42.6168 84.5364 42.6168 85.3988C42.6168 86.2611 43.315 86.9603 44.1762 86.9603Z" fill="white" stroke="white" stroke-miterlimit="10"/>
<path d="M83.2654 74.3153C84.1266 74.3153 84.8247 73.6162 84.8247 72.7538C84.8247 71.8914 84.1266 71.1923 83.2654 71.1923C82.4042 71.1923 81.7061 71.8914 81.7061 72.7538C81.7061 73.6162 82.4042 74.3153 83.2654 74.3153Z" fill="white" stroke="white" stroke-miterlimit="10"/>
<path d="M77.8324 71.343C78.6936 71.343 79.3918 70.6439 79.3918 69.7815C79.3918 68.9191 78.6936 68.22 77.8324 68.22C76.9712 68.22 76.2731 68.9191 76.2731 69.7815C76.2731 70.6439 76.9712 71.343 77.8324 71.343Z" fill="white" stroke="white" stroke-miterlimit="10"/>
<path d="M72.7005 64.3905C73.5617 64.3905 74.2598 63.6914 74.2598 62.829C74.2598 61.9666 73.5617 61.2675 72.7005 61.2675C71.8393 61.2675 71.1411 61.9666 71.1411 62.829C71.1411 63.6914 71.8393 64.3905 72.7005 64.3905Z" fill="white" stroke="white" stroke-miterlimit="10"/>
<path d="M85.1775 51.8468C86.0387 51.8468 86.7369 51.1476 86.7369 50.2853C86.7369 49.4229 86.0387 48.7238 85.1775 48.7238C84.3163 48.7238 83.6182 49.4229 83.6182 50.2853C83.6182 51.1476 84.3163 51.8468 85.1775 51.8468Z" fill="white" stroke="white" stroke-miterlimit="10"/>
<path d="M73.8082 38.3468C74.6694 38.3468 75.3676 37.6476 75.3676 36.7853C75.3676 35.9229 74.6694 35.2238 73.8082 35.2238C72.947 35.2238 72.2489 35.9229 72.2489 36.7853C72.2489 37.6476 72.947 38.3468 73.8082 38.3468Z" fill="white" stroke="white" stroke-miterlimit="10"/>
<path d="M100.22 32.5012C101.082 32.5012 101.78 31.8021 101.78 30.9397C101.78 30.0773 101.082 29.3782 100.22 29.3782C99.3593 29.3782 98.6611 30.0773 98.6611 30.9397C98.6611 31.8021 99.3593 32.5012 100.22 32.5012Z" fill="white" stroke="white" stroke-miterlimit="10"/>
<path d="M80.5488 38.295C81.41 38.295 82.1082 37.5959 82.1082 36.7335C82.1082 35.8711 81.41 35.172 80.5488 35.172C79.6876 35.172 78.9895 35.8711 78.9895 36.7335C78.9895 37.5959 79.6876 38.295 80.5488 38.295Z" fill="white" stroke="white" stroke-miterlimit="10"/>
<path d="M96.5984 21.267C97.4596 21.267 98.1577 20.5679 98.1577 19.7055C98.1577 18.8431 97.4596 18.144 96.5984 18.144C95.7372 18.144 95.0391 18.8431 95.0391 19.7055C95.0391 20.5679 95.7372 21.267 96.5984 21.267Z" fill="white" stroke="white" stroke-miterlimit="10"/>
<path d="M84.7258 29.2275C85.587 29.2275 86.2852 28.5284 86.2852 27.666C86.2852 26.8036 85.587 26.1045 84.7258 26.1045C83.8646 26.1045 83.1665 26.8036 83.1665 27.666C83.1665 28.5284 83.8646 29.2275 84.7258 29.2275Z" fill="white" stroke="white" stroke-miterlimit="10"/>
<path d="M84.3214 11.2927C85.1826 11.2927 85.8808 10.5936 85.8808 9.73124C85.8808 8.86885 85.1826 8.16974 84.3214 8.16974C83.4602 8.16974 82.7621 8.86885 82.7621 9.73124C82.7621 10.5936 83.4602 11.2927 84.3214 11.2927Z" fill="white" stroke="white" stroke-miterlimit="10"/>
<path d="M99.0633 59.0018C99.9245 59.0018 100.623 58.3026 100.623 57.4403C100.623 56.5779 99.9245 55.8788 99.0633 55.8788C98.202 55.8788 97.5039 56.5779 97.5039 57.4403C97.5039 58.3026 98.202 59.0018 99.0633 59.0018Z" fill="white" stroke="white" stroke-miterlimit="10"/>
<path d="M105.251 56.7337C106.112 56.7337 106.811 56.0346 106.811 55.1722C106.811 54.3099 106.112 53.6107 105.251 53.6107C104.39 53.6107 103.692 54.3099 103.692 55.1722C103.692 56.0346 104.39 56.7337 105.251 56.7337Z" fill="white" stroke="white" stroke-miterlimit="10"/>
<path d="M91.0127 86.859C91.8739 86.859 92.5721 86.1599 92.5721 85.2975C92.5721 84.4351 91.8739 83.736 91.0127 83.736C90.1515 83.736 89.4534 84.4351 89.4534 85.2975C89.4534 86.1599 90.1515 86.859 91.0127 86.859Z" fill="white" stroke="white" stroke-miterlimit="10"/>
<path d="M51.1572 10.7843C52.0184 10.7843 52.7166 10.0851 52.7166 9.22276C52.7166 8.36036 52.0184 7.66125 51.1572 7.66125C50.296 7.66125 49.5979 8.36036 49.5979 9.22276C49.5979 10.0851 50.296 10.7843 51.1572 10.7843Z" fill="white" stroke="white" stroke-miterlimit="10"/>
<path d="M39.6891 22.3717C40.5503 22.3717 41.2485 21.6726 41.2485 20.8102C41.2485 19.9479 40.5503 19.2487 39.6891 19.2487C38.8279 19.2487 38.1298 19.9479 38.1298 20.8102C38.1298 21.6726 38.8279 22.3717 39.6891 22.3717Z" fill="white" stroke="white" stroke-miterlimit="10"/>
<path d="M50.8068 29.3242C51.668 29.3242 52.3661 28.6251 52.3661 27.7627C52.3661 26.9003 51.668 26.2012 50.8068 26.2012C49.9456 26.2012 49.2474 26.9003 49.2474 27.7627C49.2474 28.6251 49.9456 29.3242 50.8068 29.3242Z" fill="white" stroke="white" stroke-miterlimit="10"/>
<path d="M56.1881 40.356C57.0493 40.356 57.7475 39.6569 57.7475 38.7945C57.7475 37.9321 57.0493 37.233 56.1881 37.233C55.3269 37.233 54.6288 37.9321 54.6288 38.7945C54.6288 39.6569 55.3269 40.356 56.1881 40.356Z" fill="white" stroke="white" stroke-miterlimit="10"/>
<path d="M63.8859 40.2052C64.7471 40.2052 65.4452 39.5061 65.4452 38.6437C65.4452 37.7814 64.7471 37.0822 63.8859 37.0822C63.0247 37.0822 62.3265 37.7814 62.3265 38.6437C62.3265 39.5061 63.0247 40.2052 63.8859 40.2052Z" fill="white" stroke="white" stroke-miterlimit="10"/>
<path d="M131.109 55.017L116.164 55.08C115.563 55.0824 114.985 54.8456 114.558 54.4216C114.131 53.9976 113.889 53.4211 113.886 52.8187L113.756 21.5662C113.753 20.9657 113.988 20.3884 114.409 19.9608C114.83 19.5332 115.403 19.2901 116.003 19.2847L130.958 19.2217C131.558 19.2187 132.134 19.4539 132.56 19.8757C132.987 20.2974 133.229 20.8714 133.234 21.4717L133.367 52.7242C133.369 53.0233 133.312 53.32 133.2 53.5972C133.088 53.8743 132.922 54.1266 132.712 54.3396C132.503 54.5526 132.253 54.722 131.978 54.8382C131.703 54.9545 131.407 55.0152 131.109 55.017Z" fill="#6600B9"/>
<path d="M129.578 49.7047L117.641 49.7565C117.078 49.7583 116.539 49.5365 116.14 49.14C115.741 48.7434 115.515 48.2044 115.513 47.6415L115.414 24.0165C115.413 23.7377 115.466 23.4614 115.572 23.2033C115.678 22.9453 115.833 22.7106 116.029 22.5128C116.225 22.3149 116.458 22.1576 116.715 22.05C116.972 21.9425 117.248 21.8866 117.526 21.8857L129.462 21.825C130.024 21.8232 130.564 22.045 130.963 22.4415C131.362 22.8381 131.587 23.3771 131.589 23.94L131.69 47.565C131.693 47.8445 131.639 48.1216 131.534 48.3806C131.429 48.6395 131.274 48.8751 131.078 49.0739C130.882 49.2727 130.648 49.4307 130.391 49.539C130.134 49.6472 129.858 49.7036 129.578 49.7047Z" fill="white"/>
<path d="M125.55 20.4098L121.424 20.4278C121.384 20.4275 121.344 20.4352 121.307 20.4504C121.27 20.4657 121.236 20.4882 121.208 20.5167C121.179 20.5452 121.157 20.579 121.141 20.6163C121.126 20.6536 121.118 20.6935 121.119 20.7338C121.119 20.7741 121.127 20.8141 121.142 20.8514C121.158 20.8887 121.18 20.9225 121.209 20.9509C121.238 20.9794 121.272 21.0019 121.309 21.0171C121.346 21.0324 121.386 21.0401 121.427 21.0398L125.552 21.0218C125.592 21.0218 125.632 21.0138 125.669 20.9983C125.707 20.9827 125.74 20.96 125.769 20.9313C125.797 20.9027 125.82 20.8687 125.835 20.8313C125.85 20.7939 125.858 20.7539 125.857 20.7135C125.857 20.6732 125.849 20.6334 125.834 20.5962C125.818 20.5591 125.796 20.5254 125.767 20.4971C125.738 20.4689 125.704 20.4466 125.667 20.4316C125.63 20.4166 125.59 20.4092 125.55 20.4098Z" fill="white"/>
<path d="M124.943 52.1573C124.945 52.4196 124.869 52.6765 124.725 52.8955C124.581 53.1145 124.375 53.2858 124.133 53.3876C123.892 53.4894 123.626 53.5172 123.369 53.4674C123.111 53.4177 122.875 53.2926 122.689 53.1081C122.503 52.9236 122.375 52.6879 122.323 52.4309C122.271 52.1739 122.296 51.9071 122.395 51.6643C122.494 51.4216 122.663 51.2137 122.88 51.0672C123.097 50.9206 123.353 50.8419 123.615 50.841C123.965 50.8398 124.302 50.9777 124.551 51.2244C124.8 51.4711 124.941 51.8066 124.943 52.1573Z" fill="white"/>
<path d="M116.45 24.6713V29.4457C116.461 29.6682 116.56 29.8772 116.724 30.0269C116.889 30.1767 117.106 30.2549 117.328 30.2445H130.035C130.257 30.2549 130.474 30.1767 130.639 30.0269C130.803 29.8772 130.902 29.6682 130.913 29.4457V24.6645C130.904 24.4597 130.82 24.2654 130.676 24.1192C130.533 23.973 130.34 23.8851 130.136 23.8725H117.328C117.106 23.8621 116.889 23.9403 116.724 24.0901C116.56 24.2398 116.461 24.4488 116.45 24.6713Z" fill="#D7D7E6"/>
<path d="M121.168 29.8643C121.15 29.9093 119.016 32.0198 119.016 31.9478C119.016 31.8758 119.016 31.878 119.571 29.4435L121.168 29.8643Z" fill="#D7D7E6"/>
<path d="M121.058 27.0765C121.058 27.4389 120.957 27.794 120.765 28.1015C120.574 28.409 120.3 28.6565 119.975 28.8158C119.71 28.9479 119.418 29.0165 119.121 29.016C118.936 29.0154 118.751 28.9889 118.573 28.9373C118.228 28.8354 117.919 28.6395 117.679 28.3714C117.439 28.1034 117.278 27.7738 117.215 27.4196C117.151 27.0654 117.188 26.7004 117.319 26.3656C117.451 26.0308 117.674 25.7393 117.961 25.5238C118.249 25.3083 118.591 25.1772 118.949 25.1452C119.307 25.1133 119.667 25.1817 119.988 25.3428C120.31 25.504 120.58 25.7515 120.769 26.0577C120.958 26.3638 121.058 26.7166 121.058 27.0765Z" fill="white"/>
<path d="M128.761 25.3058H121.602V25.533H128.761V25.3058Z" fill="white"/>
<path d="M130.052 26.766H121.622V26.9932H130.052V26.766Z" fill="white"/>
<path d="M130.01 28.062H121.579V28.2893H130.01V28.062Z" fill="white"/>
<path d="M130.769 36.0405V40.8172C130.758 41.0397 130.659 41.2487 130.495 41.3984C130.33 41.5482 130.113 41.6264 129.891 41.616H117.193C116.971 41.6264 116.754 41.5482 116.589 41.3984C116.425 41.2487 116.326 41.0397 116.315 40.8172V36.036C116.324 35.8305 116.409 35.6357 116.553 35.4891C116.697 35.3424 116.89 35.2543 117.095 35.2417H129.902C130.122 35.2344 130.337 35.314 130.499 35.4634C130.661 35.6128 130.758 35.8201 130.769 36.0405Z" fill="url(#paint1_linear_209_1078)"/>
<path d="M126.051 41.2357C126.069 41.2807 128.203 43.3912 128.206 43.3192C128.208 43.2472 128.206 43.2472 127.648 40.8127L126.051 41.2357Z" fill="url(#paint2_linear_209_1078)"/>
<path d="M126.17 38.4457C126.17 38.7005 126.219 38.9529 126.317 39.1883C126.414 39.4237 126.557 39.6377 126.736 39.8178C126.916 39.998 127.13 40.1408 127.365 40.2382C127.6 40.3356 127.852 40.3855 128.107 40.3852C128.292 40.3857 128.477 40.3592 128.655 40.3065C129 40.2046 129.309 40.0087 129.549 39.7407C129.789 39.4726 129.95 39.1431 130.013 38.7888C130.076 38.4346 130.04 38.0696 129.908 37.7348C129.777 37.4 129.554 37.1085 129.266 36.893C128.979 36.6775 128.637 36.5464 128.279 36.5145C127.921 36.4825 127.561 36.5509 127.239 36.7121C126.918 36.8732 126.648 37.1207 126.459 37.4269C126.27 37.7331 126.17 38.0858 126.17 38.4457Z" fill="white"/>
<path d="M118.467 36.9023H125.626V36.675H118.467V36.9023Z" fill="white"/>
<path d="M117.175 38.3647H125.606V38.1375H117.175V38.3647Z" fill="white"/>
<path d="M117.218 39.6585H125.649V39.4313H117.218V39.6585Z" fill="white"/>
<defs>
<linearGradient id="paint0_linear_209_1078" x1="69.3032" y1="48.807" x2="109.518" y2="48.807" gradientUnits="userSpaceOnUse">
<stop stop-color="#FF9F55"/>
<stop offset="1" stop-color="#FFD255"/>
</linearGradient>
<linearGradient id="paint1_linear_209_1078" x1="116.315" y1="38.43" x2="130.778" y2="38.43" gradientUnits="userSpaceOnUse">
<stop stop-color="#FF9F55"/>
<stop offset="1" stop-color="#FFD255"/>
</linearGradient>
<linearGradient id="paint2_linear_209_1078" x1="126.06" y1="42.0682" x2="128.215" y2="42.0682" gradientUnits="userSpaceOnUse">
<stop stop-color="#FF9F55"/>
<stop offset="1" stop-color="#FFD255"/>
</linearGradient>
</defs>
</svg>
