<svg width="49" height="49" viewBox="0 0 49 49" fill="none" xmlns="http://www.w3.org/2000/svg">
<path d="M14.2915 36.75C12.0457 36.75 10.2286 38.5875 10.2286 40.8334C10.2286 43.0792 12.0457 44.9167 14.2915 44.9167C16.5373 44.9167 18.3748 43.0792 18.3748 40.8334C18.3748 38.5875 16.5373 36.75 14.2915 36.75ZM2.0415 4.08337V8.16671H6.12484L13.4748 23.663L10.7186 28.665C10.3919 29.2367 10.2082 29.9105 10.2082 30.625C10.2082 32.8709 12.0457 34.7084 14.2915 34.7084H38.7915V30.625H15.149C14.8632 30.625 14.6386 30.4005 14.6386 30.1146L14.6998 29.8696L16.5373 26.5417H31.7478C33.279 26.5417 34.6265 25.7046 35.3207 24.4388L42.6298 11.1884C42.7932 10.9025 42.8748 10.5555 42.8748 10.2084C42.8748 9.08546 41.9561 8.16671 40.8332 8.16671H10.6369L8.71775 4.08337H2.0415ZM34.7082 36.75C32.4623 36.75 30.6453 38.5875 30.6453 40.8334C30.6453 43.0792 32.4623 44.9167 34.7082 44.9167C36.954 44.9167 38.7915 43.0792 38.7915 40.8334C38.7915 38.5875 36.954 36.75 34.7082 36.75Z" fill="url(#paint0_linear_49_2594)"/>
<defs>
<linearGradient id="paint0_linear_49_2594" x1="-8.16683" y1="44.9167" x2="56.9113" y2="44.9167" gradientUnits="userSpaceOnUse">
<stop stop-color="#FF7700"/>
<stop offset="1" stop-color="#FF7700" stop-opacity="0.19"/>
</linearGradient>
</defs>
</svg>
