<svg width="37" height="36" viewBox="0 0 37 36" fill="none" xmlns="http://www.w3.org/2000/svg">
<path d="M18.5853 3.63965C10.4737 3.63965 3.89844 10.215 3.89844 18.3265C3.89844 26.4381 10.4737 33.0134 18.5853 33.0134C26.6968 33.0134 33.2721 26.4381 33.2721 18.3265C33.2721 10.215 26.6968 3.63965 18.5853 3.63965Z" fill="url(#paint0_linear_182_32748)"/>
<path d="M20.5725 22.2191H24.3734L24.9704 18.3579H20.5725V16.2474C20.5725 14.6436 21.0968 13.2212 22.597 13.2212H25.0079V9.85204C24.5842 9.79476 23.6883 9.66992 21.9956 9.66992C18.4605 9.66992 16.3882 11.5366 16.3882 15.7899V18.3587H12.7539V22.2198H16.3874V32.8326C17.1071 32.9398 17.8363 33.0132 18.5846 33.0132C19.2609 33.0132 19.9211 32.9515 20.5725 32.8634V22.2191Z" fill="white"/>
<defs>
<linearGradient id="paint0_linear_182_32748" x1="8.29935" y1="8.04056" x2="30.7864" y2="30.5276" gradientUnits="userSpaceOnUse">
<stop stop-color="#2AA4F4"/>
<stop offset="1" stop-color="#007AD9"/>
</linearGradient>
</defs>
</svg>
