<svg width="31" height="31" viewBox="0 0 31 31" fill="none" xmlns="http://www.w3.org/2000/svg">
<path d="M28.1513 15.044C28.1513 21.9001 22.4538 27.4576 15.4194 27.4576C14.3684 27.4576 13.3505 27.3341 12.3739 27.0986C12.0779 27.0273 11.7685 27.0546 11.4961 27.1909L8.7097 28.5844C7.99034 28.9441 7.14367 28.4208 7.14367 27.6161V25.0538C7.14367 24.6878 6.98007 24.3466 6.71015 24.0996C4.23125 21.8333 2.6875 18.6153 2.6875 15.044C2.6875 8.18785 8.38503 2.63037 15.4194 2.63037C22.4538 2.63037 28.1513 8.18785 28.1513 15.044Z" fill="url(#paint0_radial_182_32797)"/>
<path opacity="0.05" d="M22.4167 11.0918C22.1443 11.0918 21.8801 11.1822 21.6528 11.3534L18.028 14.0367C17.9434 14.1003 17.8498 14.1322 17.7511 14.1322C17.6556 14.1322 17.5659 14.1023 17.4901 14.0456L14.9616 12.1422C14.4472 11.7596 13.8411 11.5578 13.2065 11.5578C12.2032 11.5578 11.2808 12.0613 10.739 12.9048L9.9681 14.1086L7.34532 18.3706C7.09578 18.7615 7.07668 19.244 7.30012 19.6527C7.52802 20.0691 7.95836 20.3275 8.42308 20.3275C8.69554 20.3275 8.95973 20.2371 9.18699 20.0659L12.8118 17.3826C12.8964 17.319 12.99 17.2871 13.0887 17.2871C13.1842 17.2871 13.2739 17.3171 13.3497 17.3737L15.8783 19.2771C16.3933 19.6604 16.9987 19.8615 17.6333 19.8615C18.6366 19.8615 19.559 19.358 20.1008 18.5145L20.8717 17.3107L23.4945 13.0487C23.744 12.6578 23.7631 12.1753 23.5397 11.7666C23.3118 11.3503 22.8814 11.0918 22.4167 11.0918Z" fill="black"/>
<path opacity="0.07" d="M22.417 11.4102C22.214 11.4102 22.016 11.4783 21.8447 11.6075L18.218 14.2927C18.0805 14.3964 17.9201 14.4505 17.7521 14.4505C17.5872 14.4505 17.4312 14.3983 17.3001 14.3003L14.7709 12.3962C14.3132 12.0557 13.7727 11.8761 13.2068 11.8761C12.3123 11.8761 11.4905 12.3249 11.0073 13.0774L10.237 14.2812L7.61745 18.5388C7.42838 18.8348 7.41374 19.1964 7.58053 19.5007C7.74986 19.81 8.08153 20.0099 8.42402 20.0099C8.62709 20.0099 8.82507 19.9418 8.99632 19.8126L12.623 17.1274C12.7605 17.0237 12.9209 16.9695 13.089 16.9695C13.2539 16.9695 13.4098 17.0217 13.541 17.1198L16.0702 19.0238C16.5279 19.3644 17.0684 19.5439 17.6343 19.5439C18.5287 19.5439 19.3505 19.0951 19.8337 18.3427L20.604 17.1389L23.2236 12.8813C23.4127 12.5853 23.4273 12.2237 23.2605 11.9194C23.0912 11.61 22.7602 11.4102 22.417 11.4102Z" fill="black"/>
<path d="M22.0348 11.8619L18.4062 14.5483C18.0179 14.8411 17.4895 14.8411 17.1076 14.5547L14.5777 12.6506C13.5083 11.8549 11.9932 12.1286 11.2738 13.249L10.5035 14.4522L7.88711 18.7046C7.50515 19.303 8.23724 19.9842 8.80381 19.5577L12.4324 16.8712C12.8207 16.5784 13.3491 16.5784 13.7311 16.8649L16.2609 18.7689C17.3304 19.5647 18.8455 19.2909 19.5648 18.1705L20.3351 16.9674L22.9515 12.7149C23.3335 12.1165 22.6014 11.4353 22.0348 11.8619Z" fill="white"/>
<defs>
<radialGradient id="paint0_radial_182_32797" cx="0" cy="0" r="1" gradientUnits="userSpaceOnUse" gradientTransform="translate(7.19905 27.4436) scale(30.3096)">
<stop stop-color="#1292FF"/>
<stop offset="0.079" stop-color="#2982FF"/>
<stop offset="0.23" stop-color="#4E69FF"/>
<stop offset="0.351" stop-color="#6559FF"/>
<stop offset="0.428" stop-color="#6D53FF"/>
<stop offset="0.754" stop-color="#DF47AA"/>
<stop offset="0.946" stop-color="#FF6257"/>
</radialGradient>
</defs>
</svg>
