<?xml version="1.0" encoding="utf-8"?>
<!-- Generator: Adobe Illustrator 26.0.0, SVG Export Plug-In . SVG Version: 6.00 Build 0)  -->
<svg version="1.1" id="Capa_1" xmlns="http://www.w3.org/2000/svg" xmlns:xlink="http://www.w3.org/1999/xlink" x="0px" y="0px"
	 viewBox="0 0 2000 2000" style="enable-background:new 0 0 2000 2000;" xml:space="preserve">
<style type="text/css">
	.st0{fill:#4326C3;}
	.st1{fill:#FEFEFE;}
</style>
<g>
	<path class="st0" d="M1000,41L1000,41C470.4,41,41,470.4,41,1000v0c0,186.6,53.4,360.7,145.6,508.1L67.7,1931.7L506,1822.1
		C650.3,1909,819.3,1959,1000,1959h0c529.6,0,959-429.3,959-959v0C1959,470.4,1529.6,41,1000,41z"/>
	<g>
		<path class="st1" d="M1189.9,957.5c-29.8,73.6-57.6,143-85.8,212.1c-15,36.8-29.8,73.9-46.5,110c-18.8,40.6-52,61.1-96.9,61.8
			c-45.7,0.7-80.2-19.2-100-60.2c-35.2-73-62.3-149.6-93.1-224.5c-36.5-88.5-71.8-177.6-108.4-266.1c-6.8-16.5-4.9-21.2,13.8-20.6
			c39.2,1.2,78.5,1.1,117.7,0c14.5-0.4,20.5,4.6,25.6,17.7c44.7,114.6,90.1,228.8,135.4,343.1c1.8,4.5,3.8,9,5.9,13.9
			c8.6-4.6,8.8-13.6,11.6-20.4c36.7-89.9,72.8-180.1,109.2-270.1c4.2-10.3,8.8-20.5,14-30.4c20.1-38.7,51.7-60.2,95.8-60.6
			c44.6-0.4,77.6,19.7,98.7,59.3c18.1,34,30.3,70.5,44.9,106c30.5,74.4,60.5,148.9,90.7,223.4c2.3,5.6,4.8,11.1,8.4,19.6
			c25.2-36.2,42.4-73.4,54.8-112.5c84.5-266.6-75.3-546.7-348.7-601.8c-180.5-36.4-341.6,15-473.8,141.4
			c-256.5,245.4-225.7,651,64.5,854.7c152.1,106.8,320,126.1,496.1,67.5c18.2-6.1,23.5-2.7,29.3,13.8c11.3,32.3,24.1,64.1,37.6,95.6
			c5.4,12.6,3.8,18-9.6,22.5c-225.9,76.7-440.6,53.8-635.8-84c-207.6-146.4-306.6-352.2-296.6-606.1C362,622,636.2,337.3,975,306.7
			c298.2-26.9,558.8,142.2,647.5,427.4c61.1,196.5,26.5,380.6-94.8,547.1c-32.7,44.9-76.4,69.2-134.6,56.7
			c-30.2-6.5-51.2-25-66.1-50.8c-24.3-41.9-38.5-88.2-57.2-132.6C1243.2,1090.8,1217.8,1026.5,1189.9,957.5z"/>
	</g>
</g>
</svg>
