<svg width="25" height="25" viewBox="0 0 25 25" fill="none" xmlns="http://www.w3.org/2000/svg">
<path d="M12.5 0C5.59643 0 0 5.59643 0 12.5C0 19.4036 5.59643 25 12.5 25C19.4036 25 25 19.4036 25 12.5C25 5.59643 19.4036 0 12.5 0ZM3.11144 12.5C3.11144 7.31482 7.31487 3.11144 12.5 3.11144C14.5316 3.11144 16.4123 3.75688 17.9487 4.85365L4.85365 17.9488C3.75688 16.4124 3.11144 14.5316 3.11144 12.5ZM12.5 21.8886C10.4697 21.8886 8.58998 21.244 7.05412 20.1485L20.1484 7.05417C21.244 8.59002 21.8886 10.4698 21.8886 12.5C21.8886 17.6852 17.6852 21.8886 12.5 21.8886Z" stroke="none" fill="current"/>
</svg>
