<?xml version="1.0" encoding="utf-8"?>
<!-- Uploaded to: SVG Repo, www.svgrepo.com, Generator: SVG Repo Mixer Tools -->
<svg width="800px" height="800px" viewBox="0 0 1024 1024" class="icon"  version="1.1" xmlns="http://www.w3.org/2000/svg"><path d="M716.8 179.2a51.2 51.2 0 0 1 51.2 51.2v281.6h-51.2V230.4H256v563.2h281.6v51.2H256a51.2 51.2 0 0 1-51.2-51.2V230.4a51.2 51.2 0 0 1 51.2-51.2z" fill="#ED892D" /><path d="M586.112 472.3968h-233.3696a19.9424 19.9424 0 0 1 0-39.8848h233.3696a19.9424 19.9424 0 1 1 0 39.8848z m0 105.088h-233.3696a19.9424 19.9424 0 0 1 0-39.8848h233.3696a19.9424 19.9424 0 1 1 0 39.8848z m-76.8 102.4h-156.5696a19.9424 19.9424 0 0 1 0-39.8848h156.5696a19.9424 19.9424 0 1 1 0 39.8848z m-76.8-307.2h-79.7696a19.9424 19.9424 0 0 1 0-39.8848h79.7696a19.9424 19.9424 0 1 1 0 39.8848z" fill="#F5C280" /><path d="M880.9984 640L768 527.0016l-204.8 204.8V844.8h112.9984l204.8-204.8zM768 599.424L808.576 640l-153.6256 153.6H614.4v-40.6016l153.6-153.5744z" fill="#BE4BDB" /></svg>