<svg width="249" height="247" viewBox="0 0 249 247" fill="none" xmlns="http://www.w3.org/2000/svg">
<path d="M126.257 226.532C182.76 226.532 228.564 180.687 228.564 124.134C228.564 67.5811 182.76 21.736 126.257 21.736C69.7545 21.736 23.9501 67.5811 23.9501 124.134C23.9501 180.687 69.7545 226.532 126.257 226.532Z" fill="#D8E7BF"/>
<mask id="mask0_610_1306" style="mask-type:luminance" maskUnits="userSpaceOnUse" x="23" y="21" width="206" height="206">
<path d="M126.257 226.532C182.76 226.532 228.564 180.687 228.564 124.134C228.564 67.5811 182.76 21.736 126.257 21.736C69.7545 21.736 23.9501 67.5811 23.9501 124.134C23.9501 180.687 69.7545 226.532 126.257 226.532Z" fill="white"/>
</mask>
<g mask="url(#mask0_610_1306)">
<path d="M78.135 208.279H62.7687V211.835H78.135V208.279Z" fill="white"/>
<path d="M47.4025 208.279H26.9156V211.835H47.4025V208.279Z" fill="white"/>
<path d="M47.4025 187.778H26.9156V191.334H47.4025V187.778Z" fill="white"/>
<path d="M78.1432 187.778H57.6522V191.334H78.1432V187.778Z" fill="white"/>
<path d="M103.755 187.778H83.2639V191.334H103.755V187.778Z" fill="white"/>
<path d="M108.88 198.032H98.6383V201.589H108.88V198.032Z" fill="white"/>
<path d="M83.2597 198.032H73.0142V201.589H83.2597V198.032Z" fill="white"/>
<path d="M51.9844 198.032H32.7231V201.589H51.9844V198.032Z" fill="white"/>
<path d="M108.88 177.531H98.6383V181.088H108.88V177.531Z" fill="white"/>
<path d="M83.2597 177.531H73.0142V181.088H83.2597V177.531Z" fill="white"/>
<path d="M57.648 177.531H26.9156V181.088H57.648V177.531Z" fill="white"/>
<path d="M108.876 157.018H83.2639V160.575H108.876V157.018Z" fill="white"/>
<path d="M73.0143 157.018H62.7687V160.575H73.0143V157.018Z" fill="white"/>
<path d="M52.5273 157.018H21.7949V160.575H52.5273V157.018Z" fill="white"/>
<path d="M108.876 167.272H88.3846V170.829H108.876V167.272Z" fill="white"/>
<path d="M78.1391 167.272H67.8936V170.829H78.1391V167.272Z" fill="white"/>
<path d="M47.4066 167.272H16.6783V170.829H47.4066V167.272Z" fill="white"/>
<path d="M108.876 218.805H83.2639V222.362H108.876V218.805Z" fill="white"/>
<path d="M73.0143 218.805H62.7687V222.362H73.0143V218.805Z" fill="white"/>
<path d="M52.5273 218.805H21.7949V222.362H52.5273V218.805Z" fill="white"/>
<path d="M89.6966 78.3978H74.3304V81.9546H89.6966V78.3978Z" fill="white"/>
<path d="M58.9642 78.3978H38.4773V81.9546H58.9642V78.3978Z" fill="white"/>
<path d="M58.9642 57.9009H38.4773V61.4577H58.9642V57.9009Z" fill="white"/>
<path d="M89.7008 57.9009H69.2097V61.4577H89.7008V57.9009Z" fill="white"/>
<path d="M115.317 57.9009H94.8256V61.4577H115.317V57.9009Z" fill="white"/>
<path d="M120.441 68.1555H110.2V71.7123H120.441V68.1555Z" fill="white"/>
<path d="M94.8214 68.1555H84.5759V71.7123H94.8214V68.1555Z" fill="white"/>
<path d="M63.542 68.1555H44.2807V71.7123H63.542V68.1555Z" fill="white"/>
<path d="M120.441 47.6504H110.2V51.2072H120.441V47.6504Z" fill="white"/>
<path d="M94.8214 47.6504H84.5759V51.2072H94.8214V47.6504Z" fill="white"/>
<path d="M69.2097 47.6504H38.4773V51.2072H69.2097V47.6504Z" fill="white"/>
<path d="M120.437 27.1412H94.8256V30.698H120.437V27.1412Z" fill="white"/>
<path d="M84.5759 27.1412H74.3304V30.698H84.5759V27.1412Z" fill="white"/>
<path d="M64.0849 27.1412H33.3524V30.698H64.0849V27.1412Z" fill="white"/>
<path d="M120.433 37.3958H99.9421V40.9526H120.433V37.3958Z" fill="white"/>
<path d="M89.7007 37.3958H79.4552V40.9526H89.7007V37.3958Z" fill="white"/>
<path d="M58.9642 37.3958H28.2358V40.9526H58.9642V37.3958Z" fill="white"/>
<path d="M89.6966 140.201H74.3304V143.758H89.6966V140.201Z" fill="white"/>
<path d="M58.9642 140.201H38.4773V143.758H58.9642V140.201Z" fill="white"/>
<path d="M58.9642 119.68H38.4773V123.237H58.9642V119.68Z" fill="white"/>
<path d="M89.7008 119.68H69.2097V123.237H89.7008V119.68Z" fill="white"/>
<path d="M115.317 119.68H94.8256V123.237H115.317V119.68Z" fill="white"/>
<path d="M120.441 129.938H110.2V133.495H120.441V129.938Z" fill="white"/>
<path d="M94.8214 129.938H84.5759V133.495H94.8214V129.938Z" fill="white"/>
<path d="M63.542 129.938H44.2807V133.495H63.542V129.938Z" fill="white"/>
<path d="M120.441 109.429H110.2V112.986H120.441V109.429Z" fill="white"/>
<path d="M94.8214 109.429H84.5759V112.986H94.8214V109.429Z" fill="white"/>
<path d="M69.2097 109.429H38.4773V112.986H69.2097V109.429Z" fill="white"/>
<path d="M120.437 88.9241H94.8256V92.4809H120.437V88.9241Z" fill="white"/>
<path d="M84.5759 88.9241H74.3304V92.4809H84.5759V88.9241Z" fill="white"/>
<path d="M64.0849 88.9241H33.3524V92.4809H64.0849V88.9241Z" fill="white"/>
<path d="M120.433 99.1787H99.9421V102.736H120.433V99.1787Z" fill="white"/>
<path d="M89.7007 99.1787H79.4552V102.736H89.7007V99.1787Z" fill="white"/>
<path d="M58.9642 99.1787H28.2358V102.736H58.9642V99.1787Z" fill="white"/>
<path d="M187.928 115.847H172.562V119.404H187.928V115.847Z" fill="white"/>
<path d="M157.199 115.847H136.713V119.404H157.199V115.847Z" fill="white"/>
<path d="M157.199 95.3502H136.713V98.907H157.199V95.3502Z" fill="white"/>
<path d="M187.936 95.3502H167.445V98.907H187.936V95.3502Z" fill="white"/>
<path d="M213.548 95.3502H193.057V98.907H213.548V95.3502Z" fill="white"/>
<path d="M218.673 105.601H208.431V109.158H218.673V105.601Z" fill="white"/>
<path d="M193.053 105.601H182.807V109.158H193.053V105.601Z" fill="white"/>
<path d="M161.777 105.601H142.516V109.158H161.777V105.601Z" fill="white"/>
<path d="M218.673 85.0997H208.431V88.6565H218.673V85.0997Z" fill="white"/>
<path d="M193.053 85.0997H182.807V88.6565H193.053V85.0997Z" fill="white"/>
<path d="M167.445 85.0997H136.713V88.6565H167.445V85.0997Z" fill="white"/>
<path d="M218.668 64.5905H193.057V68.1473H218.668V64.5905Z" fill="white"/>
<path d="M182.807 64.5905H172.562V68.1473H182.807V64.5905Z" fill="white"/>
<path d="M162.32 64.5905H131.588V68.1473H162.32V64.5905Z" fill="white"/>
<path d="M218.668 74.841H198.177V78.3978H218.668V74.841Z" fill="white"/>
<path d="M187.932 74.841H177.686V78.3978H187.932V74.841Z" fill="white"/>
<path d="M157.199 74.841H126.471V78.3978H157.199V74.841Z" fill="white"/>
<path d="M187.928 177.651H172.562V181.207H187.928V177.651Z" fill="white"/>
<path d="M157.199 177.651H136.713V181.207H157.199V177.651Z" fill="white"/>
<path d="M157.199 157.129H136.713V160.686H157.199V157.129Z" fill="white"/>
<path d="M187.936 157.129H167.445V160.686H187.936V157.129Z" fill="white"/>
<path d="M213.548 157.129H193.057V160.686H213.548V157.129Z" fill="white"/>
<path d="M218.673 167.384H208.431V170.94H218.673V167.384Z" fill="white"/>
<path d="M193.053 167.384H182.807V170.94H193.053V167.384Z" fill="white"/>
<path d="M161.777 167.384H142.516V170.94H161.777V167.384Z" fill="white"/>
<path d="M218.673 146.879H208.431V150.435H218.673V146.879Z" fill="white"/>
<path d="M193.053 146.879H182.807V150.435H193.053V146.879Z" fill="white"/>
<path d="M167.445 146.879H136.713V150.435H167.445V146.879Z" fill="white"/>
<path d="M218.668 126.373H193.057V129.93H218.668V126.373Z" fill="white"/>
<path d="M182.807 126.373H172.562V129.93H182.807V126.373Z" fill="white"/>
<path d="M162.32 126.373H131.588V129.93H162.32V126.373Z" fill="white"/>
<path d="M218.668 136.624H198.177V140.181H218.668V136.624Z" fill="white"/>
<path d="M187.932 136.624H177.686V140.181H187.932V136.624Z" fill="white"/>
<path d="M157.199 136.624H126.471V140.181H157.199V136.624Z" fill="white"/>
<path d="M155.694 221.925H135.207V225.482H155.694V221.925Z" fill="white"/>
<path d="M186.435 221.925H165.944V225.482H186.435V221.925Z" fill="white"/>
<path d="M212.047 221.925H191.555V225.482H212.047V221.925Z" fill="white"/>
<path d="M217.171 211.679H206.93V215.236H217.171V211.679Z" fill="white"/>
<path d="M191.551 211.679H181.306V215.236H191.551V211.679Z" fill="white"/>
<path d="M165.94 211.679H135.207V215.236H165.94V211.679Z" fill="white"/>
<path d="M217.167 191.166H191.555V194.722H217.167V191.166Z" fill="white"/>
<path d="M181.306 191.166H171.06V194.722H181.306V191.166Z" fill="white"/>
<path d="M160.819 191.166H130.086V194.722H160.819V191.166Z" fill="white"/>
<path d="M217.167 201.42H196.676V204.977H217.167V201.42Z" fill="white"/>
<path d="M186.431 201.42H176.185V204.977H186.431V201.42Z" fill="white"/>
<path d="M155.698 201.42H124.97V204.977H155.698V201.42Z" fill="white"/>
<path d="M186.764 49.1983H171.398V52.7551H186.764V49.1983Z" fill="white"/>
<path d="M156.031 49.1983H135.544V52.7551H156.031V49.1983Z" fill="white"/>
<path d="M156.031 28.6767H135.544V32.2335H156.031V28.6767Z" fill="white"/>
<path d="M186.768 28.6767H166.277V32.2335H186.768V28.6767Z" fill="white"/>
<path d="M212.384 28.6767H191.893V32.2335H212.384V28.6767Z" fill="white"/>
<path d="M217.509 38.9313H207.267V42.4881H217.509V38.9313Z" fill="white"/>
<path d="M191.889 38.9313H181.643V42.4881H191.889V38.9313Z" fill="white"/>
<path d="M160.609 38.9313H141.348V42.4881H160.609V38.9313Z" fill="white"/>
<path d="M217.509 18.4262H207.267V21.983H217.509V18.4262Z" fill="white"/>
<path d="M191.889 18.4262H181.643V21.983H191.889V18.4262Z" fill="white"/>
<path d="M166.277 18.4262H135.544V21.983H166.277V18.4262Z" fill="white"/>
</g>
<path d="M165.808 181.767H147.447C146.886 181.765 146.349 181.541 145.952 181.144C145.555 180.747 145.331 180.209 145.329 179.647V142.898C145.33 142.336 145.554 141.797 145.951 141.4C146.348 141.002 146.886 140.779 147.447 140.778H165.808C166.369 140.78 166.907 141.004 167.303 141.401C167.7 141.798 167.924 142.336 167.926 142.898V179.647C167.931 179.927 167.88 180.205 167.775 180.464C167.671 180.724 167.515 180.96 167.317 181.158C167.119 181.355 166.884 181.511 166.624 181.616C166.365 181.721 166.088 181.772 165.808 181.767Z" fill="#FFE100"/>
<path d="M158.762 178.939C158.762 179.358 158.638 179.768 158.405 180.117C158.173 180.466 157.842 180.737 157.455 180.898C157.068 181.058 156.642 181.1 156.231 181.018C155.82 180.937 155.443 180.735 155.146 180.438C154.85 180.142 154.648 179.764 154.567 179.353C154.485 178.941 154.527 178.515 154.687 178.128C154.847 177.74 155.119 177.409 155.467 177.176C155.816 176.943 156.225 176.819 156.644 176.819C156.924 176.814 157.201 176.865 157.461 176.97C157.72 177.075 157.955 177.231 158.153 177.429C158.351 177.627 158.507 177.862 158.611 178.122C158.716 178.381 158.767 178.659 158.762 178.939Z" fill="#FDCC00"/>
<path d="M145.329 176.111H167.926V145.018H145.329V176.111Z" fill="#FFE100"/>
<path d="M184.448 152.082H175.4C175.251 152.084 175.104 152.056 174.966 152C174.829 151.943 174.704 151.86 174.599 151.755C174.494 151.65 174.411 151.525 174.355 151.388C174.299 151.25 174.271 151.103 174.273 150.954V141.897C174.271 141.749 174.299 141.601 174.355 141.464C174.411 141.326 174.494 141.201 174.599 141.096C174.704 140.991 174.829 140.908 174.966 140.852C175.104 140.796 175.251 140.768 175.4 140.769H184.51C184.799 140.78 185.073 140.905 185.272 141.116C185.47 141.327 185.578 141.608 185.571 141.897V151.016C185.559 151.306 185.434 151.579 185.222 151.777C185.011 151.975 184.73 152.082 184.44 152.074" fill="#63D3FD"/>
<path d="M147.447 179.647V142.898C147.449 142.336 147.672 141.797 148.069 141.4C148.466 141.002 149.004 140.779 149.566 140.778H147.447C147.168 140.773 146.89 140.824 146.631 140.929C146.372 141.034 146.136 141.19 145.938 141.387C145.741 141.585 145.585 141.821 145.48 142.081C145.376 142.34 145.324 142.618 145.329 142.898V179.647C145.331 180.209 145.555 180.747 145.952 181.144C146.349 181.541 146.886 181.765 147.447 181.767H149.566C149.286 181.772 149.008 181.721 148.749 181.616C148.49 181.511 148.254 181.355 148.057 181.158C147.859 180.96 147.703 180.724 147.598 180.464C147.494 180.205 147.442 179.927 147.447 179.647Z" fill="white"/>
<path d="M184.448 166.927H175.399C175.251 166.928 175.103 166.9 174.965 166.844C174.828 166.787 174.702 166.704 174.597 166.599C174.492 166.493 174.41 166.368 174.354 166.229C174.298 166.091 174.27 165.944 174.273 165.795V156.738C174.271 156.589 174.299 156.442 174.355 156.304C174.411 156.167 174.494 156.042 174.599 155.937C174.704 155.832 174.829 155.749 174.966 155.692C175.104 155.636 175.251 155.608 175.399 155.61H184.51C184.659 155.608 184.806 155.635 184.944 155.691C185.082 155.747 185.208 155.83 185.313 155.935C185.418 156.04 185.502 156.166 185.558 156.303C185.614 156.441 185.643 156.589 185.641 156.738V165.856C185.6 166.148 185.456 166.414 185.236 166.609C185.016 166.804 184.734 166.914 184.44 166.918" fill="#63D3FD"/>
<path d="M184.448 181.767H175.399C175.251 181.769 175.103 181.741 174.965 181.684C174.828 181.628 174.702 181.545 174.597 181.439C174.492 181.334 174.41 181.208 174.354 181.07C174.298 180.932 174.27 180.784 174.273 180.635V171.579C174.27 171.43 174.298 171.282 174.354 171.144C174.41 171.006 174.492 170.88 174.597 170.775C174.702 170.669 174.828 170.586 174.965 170.529C175.103 170.473 175.251 170.445 175.399 170.446H184.51C184.659 170.444 184.807 170.472 184.945 170.528C185.084 170.584 185.209 170.668 185.315 170.773C185.42 170.879 185.503 171.004 185.559 171.143C185.615 171.281 185.643 171.429 185.641 171.579V180.722C185.6 181.013 185.456 181.28 185.236 181.474C185.016 181.669 184.734 181.779 184.44 181.784" fill="#63D3FD"/>
<path d="M184.448 140.79H182.33C182.479 140.788 182.626 140.815 182.764 140.871C182.902 140.927 183.028 141.01 183.133 141.115C183.239 141.22 183.322 141.346 183.378 141.483C183.435 141.621 183.463 141.769 183.461 141.918V151.036C183.463 151.186 183.435 151.333 183.378 151.472C183.322 151.61 183.239 151.735 183.133 151.841C183.028 151.946 182.903 152.029 182.765 152.086C182.627 152.142 182.479 152.17 182.33 152.168H184.448C184.597 152.17 184.745 152.142 184.883 152.086C185.021 152.029 185.146 151.946 185.252 151.841C185.357 151.735 185.44 151.61 185.497 151.472C185.553 151.333 185.581 151.186 185.579 151.036V141.906C185.581 141.757 185.553 141.609 185.496 141.471C185.44 141.333 185.357 141.208 185.251 141.103C185.146 140.998 185.021 140.915 184.883 140.859C184.745 140.803 184.597 140.775 184.448 140.778" fill="#3DB9F9"/>
<path d="M184.448 155.61H182.33C182.479 155.608 182.626 155.635 182.764 155.691C182.902 155.747 183.028 155.83 183.133 155.935C183.239 156.04 183.322 156.166 183.378 156.303C183.435 156.441 183.463 156.589 183.461 156.738V165.856C183.463 166.006 183.435 166.153 183.378 166.292C183.322 166.43 183.239 166.555 183.133 166.661C183.028 166.766 182.903 166.849 182.765 166.906C182.627 166.962 182.479 166.99 182.33 166.988H184.448C184.597 166.99 184.745 166.962 184.883 166.906C185.021 166.849 185.146 166.766 185.252 166.661C185.357 166.555 185.44 166.43 185.497 166.292C185.553 166.153 185.581 166.006 185.579 165.856V156.746C185.581 156.597 185.553 156.449 185.496 156.312C185.44 156.174 185.357 156.049 185.251 155.943C185.146 155.838 185.021 155.755 184.883 155.699C184.745 155.644 184.597 155.616 184.448 155.618" fill="#3DB9F9"/>
<path d="M184.448 170.459H182.33C182.479 170.457 182.627 170.485 182.765 170.542C182.903 170.598 183.028 170.681 183.133 170.787C183.239 170.892 183.322 171.018 183.378 171.156C183.435 171.294 183.463 171.442 183.461 171.591V180.722C183.463 180.871 183.435 181.019 183.378 181.157C183.322 181.295 183.239 181.42 183.133 181.526C183.028 181.631 182.903 181.715 182.765 181.771C182.627 181.827 182.479 181.855 182.33 181.854H184.448C184.597 181.855 184.745 181.827 184.883 181.771C185.021 181.715 185.146 181.631 185.252 181.526C185.357 181.42 185.44 181.295 185.497 181.157C185.553 181.019 185.581 180.871 185.579 180.722V171.591C185.581 171.442 185.553 171.294 185.497 171.156C185.44 171.018 185.357 170.892 185.252 170.787C185.146 170.681 185.021 170.598 184.883 170.542C184.745 170.485 184.597 170.457 184.448 170.459Z" fill="#3DB9F9"/>
<path d="M161.148 166.927H152.099C151.95 166.928 151.803 166.9 151.665 166.844C151.527 166.787 151.402 166.704 151.297 166.599C151.192 166.493 151.109 166.368 151.054 166.229C150.998 166.091 150.97 165.944 150.972 165.795V156.738C150.971 156.589 150.999 156.442 151.055 156.304C151.111 156.167 151.194 156.042 151.299 155.937C151.404 155.832 151.529 155.749 151.666 155.692C151.804 155.636 151.951 155.608 152.099 155.61H161.23C161.379 155.608 161.527 155.635 161.665 155.691C161.803 155.747 161.928 155.83 162.033 155.935C162.139 156.04 162.222 156.166 162.278 156.303C162.335 156.441 162.363 156.589 162.361 156.738V165.856C162.32 166.148 162.177 166.414 161.956 166.609C161.736 166.804 161.454 166.914 161.16 166.918" fill="#00DA6C"/>
<path d="M165.808 182.471H147.447C146.7 182.469 145.983 182.171 145.455 181.642C144.926 181.113 144.628 180.396 144.626 179.647V142.898C144.628 142.149 144.926 141.432 145.454 140.902C145.983 140.372 146.699 140.073 147.447 140.07H165.808C166.556 140.073 167.272 140.372 167.801 140.902C168.329 141.432 168.627 142.149 168.629 142.898V179.647C168.627 180.396 168.329 181.113 167.801 181.642C167.272 182.171 166.556 182.469 165.808 182.471ZM147.447 141.482C147.073 141.483 146.714 141.632 146.45 141.898C146.185 142.163 146.037 142.523 146.037 142.898V179.647C146.038 180.021 146.187 180.38 146.451 180.644C146.715 180.909 147.074 181.058 147.447 181.059H165.808C166.182 181.058 166.54 180.909 166.804 180.644C167.069 180.38 167.218 180.021 167.219 179.647V142.898C167.219 142.523 167.07 142.163 166.806 141.898C166.541 141.632 166.182 141.483 165.808 141.482H147.447Z" fill="black"/>
<path d="M168.634 176.819H144.626V144.297H168.634V176.819ZM146.041 175.407H167.223V145.73H146.041V175.407Z" fill="black"/>
<path d="M159.453 143.602H155.92C155.742 143.588 155.576 143.508 155.455 143.377C155.334 143.246 155.267 143.074 155.267 142.896C155.267 142.717 155.334 142.545 155.455 142.414C155.576 142.284 155.742 142.203 155.92 142.19H159.453C159.631 142.203 159.797 142.284 159.918 142.414C160.04 142.545 160.107 142.717 160.107 142.896C160.107 143.074 160.04 143.246 159.918 143.377C159.797 143.508 159.631 143.588 159.453 143.602Z" fill="black"/>
<path d="M153.802 143.602H153.099C153.002 143.609 152.904 143.596 152.812 143.564C152.72 143.532 152.636 143.481 152.564 143.415C152.493 143.349 152.436 143.268 152.397 143.179C152.358 143.09 152.337 142.993 152.337 142.896C152.337 142.798 152.358 142.702 152.397 142.612C152.436 142.523 152.493 142.443 152.564 142.376C152.636 142.31 152.72 142.259 152.812 142.227C152.904 142.195 153.002 142.182 153.099 142.19H153.802C153.899 142.182 153.997 142.195 154.089 142.227C154.181 142.259 154.265 142.31 154.337 142.376C154.408 142.443 154.465 142.523 154.504 142.612C154.543 142.702 154.563 142.798 154.563 142.896C154.563 142.993 154.543 143.09 154.504 143.179C154.465 143.268 154.408 143.349 154.337 143.415C154.265 143.481 154.181 143.532 154.089 143.564C153.997 143.596 153.899 143.609 153.802 143.602Z" fill="black"/>
<path d="M144.626 148.55C144.532 148.555 144.437 148.541 144.349 148.507C144.261 148.473 144.181 148.421 144.114 148.354C144.047 148.288 143.995 148.207 143.961 148.119C143.928 148.031 143.913 147.936 143.918 147.842V147.138C143.911 147.041 143.924 146.943 143.956 146.851C143.988 146.759 144.039 146.674 144.105 146.603C144.171 146.531 144.251 146.474 144.341 146.435C144.43 146.396 144.526 146.376 144.624 146.376C144.721 146.376 144.818 146.396 144.907 146.435C144.996 146.474 145.077 146.531 145.143 146.603C145.209 146.674 145.26 146.759 145.292 146.851C145.324 146.943 145.337 147.041 145.329 147.138V147.842C145.335 147.936 145.321 148.03 145.288 148.119C145.255 148.207 145.203 148.287 145.137 148.354C145.07 148.421 144.99 148.473 144.902 148.507C144.814 148.541 144.72 148.555 144.626 148.55Z" fill="black"/>
<path d="M144.626 151.378C144.532 151.383 144.437 151.369 144.349 151.335C144.261 151.301 144.181 151.249 144.114 151.183C144.047 151.116 143.995 151.036 143.961 150.947C143.928 150.859 143.913 150.764 143.919 150.67V149.962C143.932 149.784 144.012 149.618 144.143 149.496C144.274 149.375 144.446 149.308 144.624 149.308C144.802 149.308 144.974 149.375 145.105 149.496C145.235 149.618 145.316 149.784 145.329 149.962V150.67C145.335 150.764 145.321 150.859 145.288 150.947C145.255 151.035 145.203 151.116 145.137 151.182C145.07 151.249 144.99 151.301 144.902 151.335C144.814 151.369 144.72 151.383 144.626 151.378Z" fill="black"/>
<path d="M144.626 154.202C144.532 154.208 144.438 154.194 144.349 154.161C144.261 154.128 144.181 154.076 144.114 154.009C144.047 153.943 143.995 153.863 143.961 153.775C143.928 153.687 143.913 153.592 143.918 153.498V152.79C143.911 152.693 143.924 152.595 143.956 152.503C143.988 152.411 144.039 152.326 144.105 152.255C144.171 152.183 144.251 152.126 144.341 152.087C144.43 152.048 144.526 152.028 144.624 152.028C144.721 152.028 144.818 152.048 144.907 152.087C144.996 152.126 145.077 152.183 145.143 152.255C145.209 152.326 145.26 152.411 145.292 152.503C145.324 152.595 145.337 152.693 145.329 152.79V153.498C145.335 153.592 145.321 153.686 145.288 153.775C145.255 153.863 145.203 153.943 145.137 154.009C145.07 154.076 144.99 154.128 144.902 154.161C144.814 154.194 144.72 154.208 144.626 154.202Z" fill="black"/>
<path d="M156.628 181.767C156.069 181.767 155.523 181.601 155.058 181.291C154.593 180.98 154.231 180.538 154.017 180.021C153.803 179.505 153.747 178.936 153.856 178.387C153.965 177.839 154.235 177.335 154.63 176.939C155.025 176.544 155.528 176.274 156.076 176.165C156.625 176.056 157.193 176.112 157.709 176.326C158.225 176.54 158.667 176.903 158.977 177.368C159.288 177.833 159.453 178.38 159.453 178.939C159.451 179.689 159.153 180.407 158.623 180.937C158.094 181.466 157.376 181.765 156.628 181.767ZM156.628 177.527C156.349 177.527 156.076 177.61 155.844 177.765C155.612 177.92 155.431 178.141 155.324 178.399C155.218 178.657 155.19 178.941 155.244 179.215C155.298 179.489 155.433 179.74 155.63 179.938C155.827 180.135 156.079 180.27 156.352 180.324C156.626 180.379 156.91 180.351 157.168 180.244C157.425 180.137 157.646 179.956 157.801 179.724C157.956 179.491 158.038 179.218 158.038 178.939C158.037 178.565 157.888 178.206 157.624 177.942C157.36 177.677 157.002 177.528 156.628 177.527Z" fill="black"/>
<path d="M184.448 152.79H175.4C174.916 152.782 174.454 152.585 174.112 152.243C173.77 151.9 173.574 151.438 173.565 150.954V141.897C173.563 141.656 173.61 141.416 173.701 141.193C173.793 140.969 173.928 140.766 174.099 140.595C174.269 140.425 174.472 140.289 174.696 140.198C174.919 140.106 175.158 140.06 175.4 140.061H184.51C184.982 140.084 185.428 140.287 185.756 140.629C186.084 140.97 186.27 141.424 186.274 141.897V151.016C186.253 151.489 186.053 151.936 185.713 152.266C185.374 152.596 184.921 152.783 184.448 152.79ZM175.4 141.482C175.294 141.492 175.196 141.539 175.121 141.614C175.046 141.689 174.999 141.788 174.988 141.893V151.012C174.999 151.117 175.046 151.216 175.121 151.291C175.196 151.366 175.294 151.413 175.4 151.423H184.51C184.616 151.413 184.714 151.367 184.789 151.292C184.865 151.216 184.911 151.117 184.921 151.012V141.906C184.885 141.798 184.82 141.702 184.733 141.629C184.646 141.557 184.54 141.51 184.428 141.494L175.4 141.482Z" fill="black"/>
<path d="M184.448 167.631H175.4C174.916 167.622 174.454 167.426 174.112 167.084C173.77 166.741 173.574 166.279 173.565 165.795V156.738C173.574 156.254 173.77 155.792 174.112 155.449C174.454 155.107 174.916 154.91 175.4 154.902H184.51C184.994 154.91 185.455 155.107 185.798 155.449C186.14 155.792 186.336 156.254 186.344 156.738V165.856C186.296 166.332 186.077 166.773 185.729 167.099C185.38 167.425 184.925 167.614 184.448 167.631ZM175.4 156.322C175.294 156.333 175.196 156.38 175.121 156.455C175.046 156.53 174.999 156.628 174.988 156.734V165.852C174.998 165.958 175.045 166.057 175.12 166.132C175.195 166.207 175.294 166.254 175.4 166.264H184.51C184.616 166.255 184.715 166.208 184.79 166.133C184.866 166.058 184.912 165.958 184.921 165.852V156.746C184.911 156.64 184.865 156.541 184.789 156.466C184.714 156.391 184.616 156.345 184.51 156.335L175.4 156.322Z" fill="black"/>
<path d="M161.148 167.631H152.099C151.858 167.632 151.619 167.586 151.395 167.494C151.172 167.403 150.969 167.267 150.799 167.097C150.628 166.926 150.493 166.723 150.401 166.499C150.31 166.276 150.263 166.036 150.265 165.795V156.738C150.273 156.254 150.469 155.792 150.812 155.449C151.154 155.107 151.615 154.91 152.099 154.902H161.23C161.714 154.91 162.176 155.107 162.518 155.449C162.86 155.792 163.056 156.254 163.065 156.738V165.856C163.016 166.335 162.794 166.779 162.441 167.106C162.088 167.433 161.628 167.619 161.148 167.631ZM152.099 156.322C151.994 156.333 151.895 156.38 151.82 156.455C151.746 156.53 151.699 156.628 151.688 156.734V165.852C151.698 165.958 151.745 166.057 151.82 166.132C151.895 166.207 151.994 166.254 152.099 166.264H161.23C161.336 166.254 161.435 166.207 161.51 166.132C161.585 166.057 161.631 165.958 161.641 165.852V156.746C161.631 156.641 161.584 156.542 161.509 156.467C161.434 156.392 161.336 156.345 161.23 156.335L152.099 156.322Z" fill="black"/>
<path d="M184.448 182.471H175.4C174.916 182.463 174.454 182.267 174.112 181.924C173.77 181.582 173.574 181.12 173.565 180.635V171.579C173.574 171.094 173.769 170.631 174.111 170.288C174.454 169.945 174.915 169.748 175.4 169.738H184.51C184.994 169.748 185.456 169.945 185.798 170.288C186.14 170.631 186.336 171.094 186.344 171.579V180.722C186.29 181.192 186.069 181.628 185.721 181.949C185.373 182.27 184.921 182.456 184.448 182.471ZM175.4 171.167C175.294 171.177 175.195 171.224 175.12 171.299C175.045 171.374 174.998 171.473 174.988 171.579V180.722C174.998 180.827 175.045 180.926 175.12 181.002C175.195 181.077 175.294 181.123 175.4 181.133H184.51C184.616 181.124 184.715 181.078 184.79 181.002C184.866 180.927 184.912 180.828 184.921 180.722V171.591C184.912 171.485 184.866 171.385 184.79 171.31C184.715 171.235 184.616 171.189 184.51 171.179L175.4 171.167Z" fill="black"/>
<path d="M162.275 161.978C162.129 161.962 161.988 161.913 161.864 161.834C161.725 161.714 161.635 161.548 161.609 161.367C161.584 161.185 161.624 161 161.724 160.846L173.713 145.318C173.835 145.18 174.001 145.091 174.183 145.065C174.365 145.039 174.55 145.079 174.704 145.178C174.843 145.298 174.934 145.464 174.96 145.646C174.986 145.828 174.944 146.013 174.844 146.166L162.842 161.715C162.778 161.803 162.692 161.874 162.593 161.92C162.493 161.966 162.384 161.986 162.275 161.978Z" fill="black"/>
<path d="M174.281 161.978H162.275C162.097 161.965 161.931 161.885 161.81 161.754C161.689 161.623 161.621 161.451 161.621 161.272C161.621 161.094 161.689 160.922 161.81 160.791C161.931 160.66 162.097 160.58 162.275 160.566H174.281C174.459 160.58 174.625 160.66 174.746 160.791C174.867 160.922 174.934 161.094 174.934 161.272C174.934 161.451 174.867 161.623 174.746 161.754C174.625 161.885 174.459 161.965 174.281 161.978Z" fill="black"/>
<path d="M174.281 177.527C174.17 177.532 174.06 177.508 173.96 177.459C173.861 177.409 173.776 177.335 173.713 177.243L161.711 161.694C161.61 161.544 161.57 161.36 161.6 161.18C161.63 161.001 161.728 160.84 161.873 160.731C162.019 160.622 162.2 160.573 162.381 160.595C162.561 160.616 162.727 160.706 162.843 160.846L174.844 176.395C174.902 176.468 174.945 176.552 174.969 176.642C174.994 176.733 175 176.827 174.987 176.919C174.973 177.012 174.942 177.1 174.893 177.18C174.845 177.26 174.78 177.329 174.704 177.383C174.575 177.461 174.431 177.51 174.281 177.527Z" fill="black"/>
<path d="M112.627 144.376V131.396H94.1181V144.376C94.1181 148.455 83.3708 151.786 79.3113 151.786H127.45C123.374 151.786 112.643 148.447 112.643 144.376" fill="#FDCC00"/>
<path d="M68.1609 51.6518V110.994H157.117V51.6518C157.11 49.6889 156.327 47.8085 154.94 46.4205C153.554 45.0325 151.675 44.2494 149.714 44.2418H75.5725C73.6114 44.2494 71.7327 45.0325 70.3459 46.4205C68.9591 47.8085 68.1767 49.6889 68.1691 51.6518" fill="#FFA800"/>
<path d="M49.6318 51.6518V110.994H138.567V51.6518C138.56 49.6889 137.777 47.8085 136.391 46.4205C135.004 45.0325 133.125 44.2494 131.164 44.2418H57.0434C55.0823 44.2494 53.2036 45.0325 51.8168 46.4205C50.43 47.8085 49.6476 49.6889 49.64 51.6518" fill="white"/>
<path d="M55.1884 51.6518V110.994H151.536V51.6518C151.528 49.6889 150.746 47.8085 149.359 46.4205C147.972 45.0325 146.094 44.2494 144.132 44.2418H62.6001C60.6389 44.2494 58.7602 45.0325 57.3734 46.4205C55.9867 47.8085 55.2042 49.6889 55.1966 51.6518" fill="#FFE100"/>
<path d="M149.685 131.396H75.5726C73.6114 131.388 71.7327 130.605 70.3459 129.217C68.9591 127.829 68.1767 125.949 68.1691 123.986V110.994H157.117V123.978C157.11 125.94 156.327 127.821 154.94 129.209C153.554 130.597 151.675 131.38 149.714 131.388" fill="#FFA800"/>
<path d="M131.156 131.396H57.0434C55.0822 131.388 53.2035 130.605 51.8167 129.217C50.43 127.829 49.6475 125.949 49.64 123.986V110.994H138.567V123.978C138.56 125.94 137.777 127.821 136.391 129.209C135.004 130.597 133.125 131.38 131.164 131.388" fill="white"/>
<path d="M144.124 131.396H62.6001C60.6389 131.388 58.7602 130.605 57.3734 129.217C55.9867 127.829 55.2042 125.949 55.1967 123.986V110.994H151.536V123.978C151.528 125.94 150.746 127.821 149.359 129.209C147.972 130.597 146.094 131.38 144.132 131.388" fill="#FDCC00"/>
<path d="M107.995 121.195C107.995 120.278 107.724 119.382 107.215 118.619C106.706 117.857 105.983 117.263 105.136 116.912C104.29 116.561 103.359 116.47 102.461 116.648C101.562 116.827 100.737 117.269 100.089 117.917C99.4417 118.565 99.0006 119.391 98.8219 120.29C98.6432 121.19 98.7349 122.122 99.0854 122.969C99.436 123.816 100.03 124.539 100.791 125.049C101.553 125.558 102.448 125.83 103.364 125.83C103.974 125.836 104.579 125.72 105.144 125.49C105.708 125.259 106.221 124.917 106.652 124.486C107.084 124.054 107.425 123.541 107.655 122.976C107.886 122.411 108.001 121.805 107.995 121.195Z" fill="#FFE100"/>
<path d="M103.364 51.6518L116.333 59.07V73.9065L103.364 81.3247L90.3959 73.9065V59.07L103.364 51.6518Z" fill="#00AD55"/>
<path d="M103.364 51.6518L110.776 57.2175V75.759L103.364 81.3247L90.3959 73.9065V59.07L103.364 51.6518Z" fill="#00DA6C"/>
<path d="M116.333 73.9065L129.305 81.3248V96.1612L116.333 103.575L103.364 96.1612V81.3248L116.333 73.9065Z" fill="#00AD55"/>
<path d="M116.333 73.9065L123.744 79.4681V98.0137L116.333 103.575L103.364 96.1612V81.3248L116.333 73.9065Z" fill="#00DA6C"/>
<path d="M90.3958 73.9065L103.364 81.3248V96.1612L90.3958 103.575L77.4234 96.1612V81.3248L90.3958 73.9065Z" fill="#00AD55"/>
<path d="M90.3958 73.9065L97.8034 77.6156V99.8662L90.3958 103.575L77.4234 96.1612V81.3248L90.3958 73.9065Z" fill="#00DA6C"/>
<path d="M77.4234 53.5167H57.0434C56.5738 53.4853 56.1338 53.2765 55.8123 52.9326C55.4908 52.5886 55.3119 52.1352 55.3119 51.6642C55.3119 51.1932 55.4908 50.7397 55.8123 50.3958C56.1338 50.0518 56.5738 49.843 57.0434 49.8117H77.4234C77.6768 49.7948 77.931 49.8301 78.1703 49.9155C78.4095 50.001 78.6286 50.1347 78.8141 50.3084C78.9996 50.482 79.1475 50.692 79.2486 50.9252C79.3497 51.1584 79.4018 51.4099 79.4018 51.6642C79.4018 51.9184 79.3497 52.1699 79.2486 52.4031C79.1475 52.6364 78.9996 52.8463 78.8141 53.02C78.6286 53.1937 78.4095 53.3274 78.1703 53.4128C77.931 53.4982 77.6768 53.5336 77.4234 53.5167Z" fill="black"/>
<path d="M71.8667 60.9267H57.0599C56.5903 60.8953 56.1502 60.6865 55.8287 60.3426C55.5072 59.9986 55.3284 59.5452 55.3284 59.0742C55.3284 58.6031 55.5072 58.1497 55.8287 57.8058C56.1502 57.4618 56.5903 57.253 57.0599 57.2217H71.8667C72.3363 57.253 72.7764 57.4618 73.0979 57.8058C73.4194 58.1497 73.5982 58.6031 73.5982 59.0742C73.5982 59.5452 73.4194 59.9986 73.0979 60.3426C72.7764 60.6865 72.3363 60.8953 71.8667 60.9267Z" fill="black"/>
<path d="M157.117 112.85H49.6317C49.3844 112.865 49.1367 112.828 48.905 112.74C48.6734 112.651 48.463 112.515 48.288 112.34C48.113 112.164 47.9773 111.953 47.8898 111.721C47.8024 111.489 47.7653 111.241 47.7809 110.994V51.6518C47.7715 50.4327 48.0049 49.224 48.4673 48.0961C48.9298 46.9683 49.612 45.9439 50.4742 45.0828C51.3365 44.2217 52.3615 43.5411 53.4893 43.0808C54.6172 42.6205 55.8254 42.3896 57.0434 42.4017H149.685C150.905 42.3896 152.115 42.6211 153.244 43.0827C154.373 43.5443 155.399 44.2267 156.261 45.09C157.124 45.9533 157.806 46.9801 158.267 48.1104C158.728 49.2406 158.96 50.4516 158.947 51.6724V110.994C158.963 111.239 158.926 111.485 158.84 111.716C158.754 111.947 158.62 112.156 158.447 112.332C158.274 112.507 158.067 112.644 157.837 112.733C157.608 112.822 157.363 112.862 157.117 112.85ZM51.5073 109.145H155.242V51.6518C155.253 50.919 155.118 50.1913 154.842 49.5121C154.567 48.833 154.158 48.2163 153.639 47.6988C153.121 47.1813 152.503 46.7736 151.824 46.5001C151.145 46.2266 150.417 46.0928 149.685 46.1067H57.0434C56.3098 46.0927 55.581 46.227 54.9005 46.5015C54.22 46.7761 53.6019 47.1852 53.0831 47.7045C52.5643 48.2237 52.1555 48.8424 51.8812 49.5235C51.6069 50.2046 51.4727 50.9341 51.4867 51.6683L51.5073 109.145Z" fill="black"/>
<path d="M103.364 83.1772C103.044 83.2058 102.723 83.1415 102.439 82.992L89.4663 75.582C89.1821 75.4069 88.9477 75.1615 88.7857 74.8695C88.6236 74.5776 88.5393 74.2488 88.5409 73.9147V59.0947C88.5393 58.7607 88.6236 58.4319 88.7857 58.1399C88.9477 57.848 89.1821 57.6026 89.4663 57.4275L102.439 50.0175C102.713 49.8364 103.035 49.7398 103.364 49.7398C103.693 49.7398 104.015 49.8364 104.29 50.0175L117.258 57.4275C117.543 57.6015 117.779 57.8465 117.942 58.1387C118.105 58.4308 118.189 58.7602 118.187 59.0947V73.9147C118.189 74.2493 118.105 74.5787 117.942 74.8708C117.779 75.163 117.543 75.408 117.258 75.582L104.29 82.992C104.005 83.1415 103.684 83.2058 103.364 83.1772ZM92.259 72.7909L103.364 79.0976L114.469 72.7909V60.1815L103.364 53.8789L92.259 60.1815V72.7909Z" fill="black"/>
<path d="M97.8034 72.0417C97.5564 72.0567 97.309 72.0191 97.0777 71.9313C96.8463 71.8435 96.6362 71.7076 96.4613 71.5324C96.2863 71.3573 96.1505 71.147 96.0628 70.9155C95.9751 70.6839 95.9375 70.4363 95.9525 70.1892V63.3349C95.929 62.9761 96.0254 62.6196 96.2264 62.3215C96.4274 62.0234 96.7217 61.8007 97.063 61.6882L102.624 59.2759C103.062 59.1014 103.551 59.1036 103.988 59.282C104.425 59.4604 104.776 59.8011 104.968 60.2328C105.159 60.6645 105.176 61.1536 105.015 61.5976C104.854 62.0416 104.528 62.406 104.104 62.6145L99.6583 64.6317V70.1974C99.6722 70.4443 99.6336 70.6913 99.5451 70.9222C99.4566 71.153 99.3202 71.3625 99.145 71.5368C98.9697 71.7111 98.7595 71.8462 98.5282 71.9332C98.297 72.0202 98.0499 72.0572 97.8034 72.0417Z" fill="black"/>
<path d="M90.3959 105.432C90.0747 105.461 89.7519 105.397 89.4663 105.247L76.498 97.8367C76.2132 97.6612 75.9784 97.4152 75.8163 97.1224C75.6542 96.8297 75.5703 96.5 75.5726 96.1653V81.3453C75.5703 81.0106 75.6542 80.681 75.8163 80.3882C75.9784 80.0954 76.2132 79.8494 76.498 79.674L89.4663 72.264C89.7417 72.0825 90.0641 71.9857 90.3938 71.9857C90.7235 71.9857 91.0459 72.0825 91.3213 72.264L104.29 79.674C104.574 79.8494 104.809 80.0954 104.971 80.3882C105.133 80.681 105.217 81.0106 105.215 81.3453V96.1653C105.217 96.5 105.133 96.8297 104.971 97.1224C104.809 97.4152 104.574 97.6612 104.29 97.8367L91.3213 105.247C91.037 105.396 90.7157 105.461 90.3959 105.432ZM79.2907 95.0456L90.3959 101.352L101.501 95.0456V82.4362L90.3959 76.1295L79.2907 82.4362V95.0456Z" fill="black"/>
<path d="M84.8351 94.3046C84.5881 94.3196 84.3408 94.282 84.1094 94.1942C83.878 94.1064 83.6679 93.9705 83.493 93.7954C83.318 93.6203 83.1822 93.41 83.0945 93.1784C83.0068 92.9469 82.9692 92.6993 82.9842 92.4521V85.5896C82.9594 85.2275 83.0548 84.8673 83.2556 84.565C83.4565 84.2627 83.7515 84.0354 84.0947 83.9183L89.6637 81.51C89.8838 81.4052 90.1226 81.3456 90.3661 81.3346C90.6095 81.3236 90.8527 81.3615 91.0813 81.4461C91.3099 81.5306 91.5192 81.6601 91.697 81.8269C91.8748 81.9937 92.0175 82.1944 92.1166 82.4173C92.2157 82.6401 92.2692 82.8805 92.2741 83.1244C92.2789 83.3683 92.2349 83.6106 92.1447 83.8372C92.0545 84.0638 91.9199 84.27 91.7488 84.4437C91.5777 84.6174 91.3736 84.7551 91.1485 84.8486L86.7024 86.8864V92.4521C86.717 92.7006 86.6785 92.9494 86.5896 93.1818C86.5007 93.4143 86.3633 93.6252 86.1867 93.8004C86.0101 93.9757 85.7982 94.1113 85.5651 94.1982C85.3321 94.2851 85.0832 94.3214 84.8351 94.3046Z" fill="black"/>
<path d="M116.333 105.432C116.013 105.461 115.691 105.396 115.407 105.247L102.439 97.8367C102.153 97.662 101.917 97.4163 101.754 97.1234C101.591 96.8306 101.507 96.5005 101.509 96.1653V81.3453C101.507 81.0102 101.591 80.6801 101.754 80.3872C101.917 80.0944 102.153 79.8487 102.439 79.674L115.407 72.264C115.682 72.0828 116.004 71.9863 116.333 71.9863C116.661 71.9863 116.983 72.0828 117.258 72.264L130.23 79.674C130.515 79.8495 130.75 80.0955 130.912 80.3882C131.074 80.681 131.158 81.0106 131.156 81.3453V96.1653C131.158 96.5 131.074 96.8297 130.912 97.1224C130.75 97.4152 130.515 97.6612 130.23 97.8367L117.258 105.247C116.974 105.396 116.652 105.461 116.333 105.432ZM105.227 95.0456L116.333 101.352L127.438 95.0456V82.4363L116.333 76.1295L105.227 82.4363V95.0456Z" fill="black"/>
<path d="M110.776 94.3046C110.529 94.3202 110.281 94.2831 110.049 94.1955C109.817 94.108 109.606 93.9722 109.431 93.797C109.256 93.6218 109.119 93.4113 109.031 93.1795C108.944 92.9476 108.906 92.6997 108.921 92.4521V85.5896C108.892 85.2262 108.986 84.8636 109.188 84.5604C109.391 84.2571 109.689 84.0309 110.036 83.9182L115.576 81.51C115.796 81.4014 116.037 81.3385 116.282 81.325C116.528 81.3116 116.773 81.3479 117.004 81.4318C117.236 81.5157 117.447 81.6455 117.627 81.8133C117.807 81.9811 117.951 82.1836 118.051 82.4085C118.151 82.6334 118.204 82.8762 118.208 83.1223C118.212 83.3683 118.166 83.6126 118.073 83.8405C117.98 84.0683 117.842 84.2751 117.667 84.4483C117.493 84.6216 117.285 84.7577 117.056 84.8486L112.61 86.8864V92.4521C112.625 92.6978 112.588 92.9439 112.501 93.1743C112.414 93.4046 112.28 93.6141 112.107 93.7889C111.934 93.9638 111.726 94.1001 111.496 94.1889C111.267 94.2778 111.021 94.3172 110.776 94.3046Z" fill="black"/>
<path d="M149.685 133.248H57.0434C55.8236 133.26 54.6138 133.029 53.4845 132.567C52.3553 132.106 51.3294 131.423 50.4668 130.56C49.6043 129.697 48.9225 128.67 48.4613 127.54C48.0001 126.409 47.7688 125.198 47.7809 123.978V110.994C47.7659 110.746 47.8034 110.499 47.8912 110.267C47.9789 110.036 48.1147 109.825 48.2896 109.65C48.4646 109.475 48.6747 109.339 48.9061 109.251C49.1374 109.164 49.3848 109.126 49.6317 109.141H157.117C157.364 109.126 157.611 109.164 157.843 109.251C158.074 109.339 158.284 109.475 158.459 109.65C158.634 109.825 158.77 110.036 158.858 110.267C158.945 110.499 158.983 110.746 158.968 110.994V123.978C158.98 125.2 158.748 126.413 158.286 127.544C157.823 128.676 157.14 129.704 156.275 130.567C155.41 131.431 154.382 132.113 153.25 132.573C152.118 133.034 150.906 133.263 149.685 133.248ZM51.4867 112.85V123.965C51.4733 124.699 51.6079 125.428 51.8824 126.109C52.1569 126.79 52.5657 127.409 53.0844 127.928C53.6031 128.447 54.221 128.856 54.9012 129.131C55.5814 129.405 56.31 129.54 57.0434 129.527H149.685C150.418 129.54 151.147 129.405 151.827 129.131C152.507 128.856 153.125 128.447 153.644 127.928C154.163 127.409 154.571 126.79 154.846 126.109C155.12 125.428 155.255 124.699 155.242 123.965V112.85H51.4867Z" fill="black"/>
<path d="M103.364 127.687C102.081 127.687 100.827 127.306 99.7606 126.593C98.694 125.879 97.8626 124.865 97.3717 123.679C96.8807 122.493 96.7523 121.187 97.0026 119.928C97.2528 118.669 97.8706 117.512 98.7777 116.604C99.6848 115.696 100.841 115.078 102.099 114.827C103.357 114.577 104.661 114.705 105.846 115.197C107.032 115.688 108.045 116.52 108.757 117.588C109.47 118.656 109.85 119.911 109.85 121.195C109.826 122.909 109.135 124.546 107.924 125.758C106.712 126.97 105.077 127.662 103.364 127.687ZM103.364 118.412C102.814 118.412 102.277 118.575 101.819 118.881C101.362 119.187 101.006 119.621 100.795 120.13C100.585 120.638 100.53 121.198 100.637 121.738C100.744 122.277 101.009 122.773 101.398 123.162C101.787 123.552 102.282 123.817 102.822 123.924C103.361 124.031 103.92 123.976 104.428 123.766C104.936 123.555 105.37 123.198 105.676 122.741C105.981 122.283 106.145 121.745 106.145 121.195C106.127 120.462 105.828 119.765 105.311 119.247C104.793 118.728 104.096 118.43 103.364 118.412Z" fill="black"/>
<path d="M127.45 153.646H79.2784C79.0249 153.663 78.7707 153.628 78.5315 153.542C78.2923 153.457 78.0731 153.323 77.8876 153.15C77.7021 152.976 77.5543 152.766 77.4532 152.533C77.3521 152.3 77.2999 152.048 77.2999 151.794C77.2999 151.54 77.3521 151.288 77.4532 151.055C77.5543 150.822 77.7021 150.612 77.8876 150.438C78.0731 150.264 78.2923 150.131 78.5315 150.045C78.7707 149.96 79.0249 149.924 79.2784 149.941C84.2798 149.941 92.2467 146.236 92.2467 144.38V131.396C92.2311 131.148 92.2682 130.9 92.3556 130.668C92.4431 130.436 92.5788 130.225 92.7538 130.05C92.9289 129.874 93.1392 129.738 93.3708 129.65C93.6025 129.562 93.8502 129.524 94.0975 129.539H112.606C112.854 129.524 113.102 129.562 113.333 129.65C113.565 129.738 113.776 129.874 113.951 130.05C114.126 130.225 114.263 130.436 114.35 130.668C114.438 130.9 114.476 131.148 114.461 131.396V144.376C114.461 146.228 122.428 149.937 127.429 149.937C127.899 149.969 128.339 150.177 128.661 150.521C128.982 150.865 129.161 151.319 129.161 151.79C129.161 152.261 128.982 152.714 128.661 153.058C128.339 153.402 127.899 153.611 127.429 153.642L127.45 153.646ZM91.6914 149.941H114.852C112.627 148.459 110.776 146.603 110.776 144.38V133.265H95.969V144.38C95.9525 146.599 94.0975 148.455 91.6914 149.937V149.941Z" fill="black"/>
<path d="M56.2002 202.272C70.377 202.272 81.8695 191.041 81.8695 177.185C81.8695 163.33 70.377 152.098 56.2002 152.098C42.0234 152.098 30.5309 163.33 30.5309 177.185C30.5309 191.041 42.0234 202.272 56.2002 202.272Z" fill="#63D3FD"/>
<path d="M73.5119 173.892C73.5086 172.261 72.9674 170.676 71.9724 169.384C70.9774 168.092 69.5841 167.164 68.0087 166.746C68.0087 166.544 68.0375 166.334 68.0375 166.136C68.0373 164.712 67.5837 163.326 66.7425 162.177C65.9014 161.029 64.7166 160.179 63.3599 159.75C62.0033 159.322 60.5456 159.337 59.1982 159.794C57.8508 160.251 56.684 161.126 55.8671 162.291C55.0502 161.126 53.8834 160.251 52.536 159.794C51.1887 159.337 49.7309 159.322 48.3743 159.75C47.0176 160.179 45.8328 161.029 44.9917 162.177C44.1506 163.326 43.697 164.712 43.6967 166.136C43.6967 166.342 43.6967 166.548 43.7255 166.746C42.5765 167.048 41.5174 167.623 40.6381 168.422C39.7588 169.222 39.0855 170.222 38.6752 171.338C38.265 172.454 38.13 173.653 38.2817 174.832C38.4334 176.011 38.8674 177.136 39.5467 178.112C38.8722 179.089 38.4424 180.214 38.2932 181.392C38.1441 182.57 38.2801 183.767 38.6897 184.882C39.0993 185.996 39.7706 186.996 40.647 187.796C41.5234 188.597 42.5792 189.175 43.7255 189.482C43.7255 189.684 43.6967 189.894 43.6967 190.091C43.697 191.515 44.1506 192.902 44.9917 194.05C45.8328 195.198 47.0176 196.049 48.3743 196.477C49.7309 196.906 51.1887 196.89 52.536 196.434C53.8834 195.977 55.0502 195.102 55.8671 193.936C56.684 195.102 57.8508 195.977 59.1982 196.434C60.5456 196.89 62.0033 196.906 63.3599 196.477C64.7166 196.049 65.9014 195.198 66.7425 194.05C67.5837 192.902 68.0373 191.515 68.0375 190.091C68.0375 189.889 68.0375 189.68 68.0087 189.482C69.155 189.175 70.2108 188.597 71.0872 187.796C71.9636 186.996 72.6349 185.996 73.0445 184.882C73.4542 183.767 73.5901 182.57 73.441 181.392C73.2919 180.214 72.862 179.089 72.1875 178.112C73.0515 176.875 73.5139 175.401 73.5119 173.892ZM54.6497 184.468V190.091C54.6674 190.662 54.5703 191.231 54.3643 191.764C54.1582 192.296 53.8473 192.782 53.4501 193.192C53.0529 193.602 52.5774 193.928 52.0518 194.151C51.5262 194.374 50.9613 194.489 50.3906 194.489C49.8199 194.489 49.255 194.374 48.7295 194.151C48.2039 193.928 47.7284 193.602 47.3311 193.192C46.9339 192.782 46.623 192.296 46.417 191.764C46.2109 191.231 46.1139 190.662 46.1316 190.091C46.1316 189.964 46.1316 189.832 46.1316 189.704C48.0244 189.564 49.7913 188.702 51.0672 187.296L49.2657 185.649C48.4599 186.589 47.3306 187.192 46.1017 187.338C44.8728 187.484 43.6339 187.163 42.6305 186.438C41.6272 185.713 40.9326 184.637 40.6844 183.423C40.4362 182.21 40.6526 180.947 41.2906 179.886C42.5433 180.793 44.0507 181.28 45.5969 181.277V178.84C44.3739 178.872 43.1829 178.447 42.2548 177.649C41.3268 176.852 40.7278 175.737 40.5741 174.523C40.4204 173.308 40.7229 172.079 41.423 171.075C42.1231 170.071 43.1708 169.363 44.363 169.088C45.1153 170.618 46.4211 171.804 48.0154 172.406L48.8709 170.125C48.1443 169.851 47.5064 169.384 47.0264 168.773C46.5463 168.162 46.2423 167.431 46.1472 166.66C46.0521 165.889 46.1696 165.106 46.487 164.397C46.8043 163.688 47.3095 163.079 47.9477 162.636C48.586 162.193 49.333 161.934 50.1079 161.886C50.8829 161.838 51.6563 162.002 52.3444 162.362C53.0325 162.723 53.6091 163.264 54.0118 163.929C54.4145 164.593 54.628 165.355 54.6291 166.132V173.452H53.6255V171.756H51.1906V173.452H49.5207V175.885H51.2112V176.893H49.5207V179.33H51.2112V180.335H49.5207V182.78H51.2112V184.472H53.6461V182.78H54.6497V184.468ZM53.6461 180.351V175.889H58.0881V180.339L53.6461 180.351ZM70.4354 179.898C71.0734 180.96 71.2898 182.222 71.0416 183.436C70.7934 184.649 70.0988 185.725 69.0955 186.45C68.0921 187.175 66.8532 187.497 65.6243 187.351C64.3953 187.205 63.2661 186.602 62.4603 185.662L60.6547 187.308C61.9306 188.715 63.6975 189.577 65.5903 189.717C65.5903 189.844 65.5903 189.976 65.5903 190.104C65.608 190.674 65.511 191.243 65.3049 191.776C65.0988 192.309 64.788 192.794 64.3907 193.205C63.9935 193.615 63.518 193.941 62.9924 194.163C62.4669 194.386 61.902 194.501 61.3313 194.501C60.7605 194.501 60.1956 194.386 59.6701 194.163C59.1445 193.941 58.669 193.615 58.2718 193.205C57.8745 192.794 57.5637 192.309 57.3576 191.776C57.1515 191.243 57.0545 190.674 57.0722 190.104V182.78H58.0758V184.472H60.5107V182.78H62.2011V180.343H60.5107V179.338H62.2011V176.901H60.5107V175.893H62.2011V173.46H60.5107V171.764H58.0758V173.46H57.0722V166.136C57.0723 165.358 57.2851 164.594 57.6878 163.928C58.0905 163.262 58.6675 162.719 59.3565 162.358C60.0455 161.997 60.82 161.832 61.5963 161.88C62.3725 161.928 63.1208 162.188 63.7601 162.631C64.3993 163.074 64.9052 163.684 65.2228 164.395C65.5404 165.105 65.6577 165.889 65.562 166.662C65.4662 167.434 65.161 168.166 64.6795 168.777C64.198 169.388 63.5586 169.856 62.8304 170.129L63.6859 172.41C65.2793 171.807 66.5847 170.621 67.3383 169.092C68.5305 169.367 69.5782 170.075 70.2783 171.079C70.9784 172.083 71.2809 173.312 71.1272 174.527C70.9735 175.741 70.3745 176.856 69.4465 177.654C68.5184 178.451 67.3274 178.876 66.1044 178.844V181.282C67.658 181.291 69.1746 180.807 70.4354 179.898Z" fill="white"/>
<path d="M117.468 35.7738H135.203C135.318 35.7744 135.432 35.7522 135.538 35.7086C135.644 35.665 135.741 35.6008 135.822 35.5197C135.904 35.4386 135.968 35.3422 136.012 35.236C136.056 35.1299 136.079 35.0161 136.079 34.9011V17.1459C136.079 17.031 136.056 16.9171 136.012 16.811C135.968 16.7048 135.904 16.6084 135.822 16.5273C135.741 16.4463 135.644 16.3821 135.538 16.3384C135.432 16.2948 135.318 16.2726 135.203 16.2732H117.468C117.236 16.2732 117.014 16.365 116.85 16.5286C116.685 16.6921 116.593 16.9141 116.592 17.1459V34.9011C116.593 35.1329 116.685 35.3549 116.85 35.5185C117.014 35.682 117.236 35.7738 117.468 35.7738ZM132.439 17.8705C132.656 17.8696 132.868 17.9332 133.048 18.053C133.228 18.1728 133.369 18.3436 133.453 18.5436C133.536 18.7436 133.558 18.9639 133.517 19.1766C133.475 19.3893 133.371 19.5848 133.218 19.7383C133.065 19.8919 132.87 19.9966 132.658 20.0392C132.446 20.0818 132.226 20.0603 132.025 19.9776C131.825 19.8948 131.654 19.7544 131.534 19.5743C131.413 19.3941 131.349 19.1822 131.349 18.9655C131.349 18.6758 131.464 18.3979 131.668 18.1926C131.872 17.9874 132.15 17.8715 132.439 17.8705ZM128.293 17.8705C128.51 17.8696 128.722 17.9332 128.902 18.053C129.083 18.1728 129.223 18.3436 129.307 18.5436C129.39 18.7436 129.413 18.9639 129.371 19.1766C129.329 19.3893 129.225 19.5848 129.072 19.7383C128.919 19.8919 128.725 19.9966 128.512 20.0392C128.3 20.0818 128.08 20.0603 127.88 19.9776C127.679 19.8948 127.508 19.7544 127.388 19.5743C127.267 19.3941 127.203 19.1822 127.203 18.9655C127.203 18.8215 127.231 18.6789 127.285 18.5458C127.34 18.4127 127.421 18.2918 127.522 18.19C127.624 18.0882 127.745 18.0075 127.878 17.9527C128.011 17.8979 128.153 17.8699 128.297 17.8705H128.293ZM118.336 21.6578H134.331V34.0284H118.34L118.336 21.6578Z" fill="black"/>
<path d="M129.905 27.17L125.381 23.5597C125.247 23.4528 125.085 23.3861 124.914 23.3672C124.743 23.3483 124.571 23.3779 124.416 23.4527C124.262 23.5275 124.131 23.6445 124.04 23.7901C123.949 23.9357 123.9 24.1041 123.9 24.276V31.5049C123.9 31.6767 123.949 31.8452 124.04 31.9908C124.131 32.1364 124.262 32.2533 124.416 32.3281C124.571 32.4029 124.743 32.4326 124.914 32.4136C125.085 32.3947 125.247 32.328 125.381 32.2212L129.905 28.6067C130.013 28.5211 130.1 28.4122 130.16 28.2882C130.22 28.1641 130.251 28.0282 130.251 27.8904C130.25 27.7523 130.218 27.6161 130.159 27.4916C130.099 27.367 130.012 27.2572 129.905 27.17Z" fill="black"/>
<path d="M37.5971 126.513L36.4824 126.102C36.5693 125.278 36.5374 124.446 36.3878 123.632L37.4655 123.134C37.6259 123.06 37.7702 122.955 37.8901 122.825C38.01 122.695 38.1032 122.543 38.1643 122.377C38.2254 122.211 38.2533 122.034 38.2463 121.858C38.2393 121.681 38.1976 121.508 38.1235 121.347L37.4942 119.976C37.4203 119.816 37.3154 119.671 37.1857 119.551C37.0559 119.431 36.9038 119.338 36.7381 119.277C36.5723 119.215 36.3961 119.188 36.2196 119.195C36.043 119.202 35.8696 119.243 35.7092 119.317L34.6316 119.795C34.1066 119.163 33.4945 118.608 32.8136 118.148L33.2249 117.033C33.2907 116.865 33.3224 116.685 33.3179 116.505C33.3135 116.325 33.2732 116.147 33.1992 115.983C33.1253 115.818 33.0192 115.67 32.8873 115.547C32.7554 115.424 32.6003 115.329 32.4311 115.267L31.0162 114.744C30.6803 114.63 30.3136 114.649 29.9915 114.798C29.6694 114.946 29.4164 115.213 29.2847 115.542L28.8734 116.662C28.0508 116.572 27.2193 116.602 26.4056 116.753L25.912 115.678C25.838 115.518 25.7332 115.373 25.6034 115.253C25.4737 115.133 25.3216 115.04 25.1558 114.979C24.99 114.918 24.8139 114.89 24.6373 114.897C24.4608 114.904 24.2874 114.946 24.1269 115.02L22.7491 115.678C22.4258 115.829 22.1751 116.101 22.0518 116.436C21.9285 116.771 21.9426 117.141 22.091 117.465L22.5887 118.548C21.9433 119.067 21.3779 119.679 20.9106 120.363L19.7918 119.951C19.4565 119.837 19.0899 119.856 18.7682 120.004C18.4465 120.153 18.1944 120.42 18.0644 120.75L17.542 122.162C17.4185 122.498 17.4331 122.869 17.5827 123.194C17.7323 123.519 18.0047 123.771 18.3399 123.895L19.4546 124.307C19.3677 125.13 19.3996 125.962 19.5492 126.777L18.4715 127.275C18.3111 127.349 18.1668 127.454 18.0469 127.584C17.927 127.714 17.8338 127.866 17.7727 128.032C17.7116 128.198 17.6837 128.374 17.6907 128.551C17.6977 128.727 17.7394 128.901 17.8135 129.062L18.4428 130.432C18.5167 130.593 18.6216 130.737 18.7513 130.857C18.8811 130.978 19.0332 131.071 19.1989 131.132C19.3647 131.193 19.5409 131.221 19.7174 131.214C19.894 131.207 20.0674 131.165 20.2278 131.091L21.3054 130.593C21.8269 131.239 22.4392 131.806 23.1234 132.277L22.7121 133.392C22.6497 133.558 22.6208 133.735 22.6272 133.913C22.6335 134.09 22.675 134.264 22.7491 134.426C22.8996 134.749 23.1715 135.001 23.5059 135.125L24.9208 135.644C25.0863 135.706 25.2624 135.734 25.4389 135.728C25.6154 135.721 25.789 135.68 25.9495 135.606C26.11 135.532 26.2544 135.428 26.3743 135.298C26.4942 135.168 26.5873 135.016 26.6482 134.85L27.0595 133.73C27.8823 133.819 28.7138 133.787 29.5273 133.635L30.0209 134.718C30.1711 135.043 30.4439 135.294 30.7793 135.418C31.1148 135.541 31.4855 135.526 31.8101 135.377L33.1756 134.747C33.4996 134.597 33.7512 134.325 33.8753 133.99C33.9994 133.655 33.9859 133.285 33.8378 132.96L33.3401 131.877C33.9865 131.357 34.552 130.744 35.0182 130.058L36.1369 130.47C36.3028 130.531 36.479 130.559 36.6556 130.551C36.8321 130.544 37.0056 130.503 37.166 130.428C37.3265 130.354 37.4707 130.249 37.5905 130.119C37.7104 129.989 37.8034 129.837 37.8644 129.671L38.3868 128.255C38.4494 128.089 38.4787 127.912 38.4729 127.734C38.4671 127.556 38.4263 127.382 38.353 127.22C38.2796 127.058 38.1751 126.913 38.0454 126.791C37.9157 126.67 37.7633 126.576 37.5971 126.513ZM29.9057 129.395C29.0739 129.779 28.1468 129.908 27.2418 129.765C26.3368 129.622 25.4946 129.213 24.8217 128.591C24.1488 127.969 23.6754 127.16 23.4615 126.269C23.2476 125.377 23.3027 124.442 23.6199 123.582C23.9372 122.721 24.5022 121.974 25.2436 121.436C25.985 120.897 26.8694 120.59 27.7849 120.555C28.7004 120.519 29.6059 120.756 30.3869 121.236C31.1678 121.715 31.789 122.416 32.172 123.249C32.4273 123.802 32.5712 124.4 32.5954 125.008C32.6197 125.617 32.5239 126.225 32.3134 126.796C32.1029 127.368 31.7819 127.892 31.3688 128.34C30.9557 128.787 30.4585 129.148 29.9057 129.403V129.395Z" fill="black"/>
<path d="M27.9685 122.479C27.4304 122.478 26.9042 122.637 26.4565 122.936C26.0088 123.235 25.6597 123.66 25.4534 124.157C25.2471 124.654 25.1929 125.202 25.2977 125.73C25.4025 126.258 25.6615 126.743 26.042 127.124C26.4224 127.505 26.9072 127.764 27.435 127.869C27.9627 127.974 28.5097 127.92 29.0067 127.713C29.5036 127.507 29.9282 127.158 30.2266 126.709C30.525 126.261 30.6839 125.735 30.6831 125.196C30.682 124.476 30.3956 123.785 29.8868 123.276C29.3779 122.767 28.6881 122.48 27.9685 122.479ZM27.9685 127.007C27.6136 127.008 27.2665 126.904 26.9711 126.707C26.6756 126.51 26.4451 126.23 26.3088 125.902C26.1724 125.574 26.1363 125.213 26.205 124.865C26.2738 124.516 26.4442 124.196 26.6949 123.945C26.9455 123.693 27.265 123.522 27.613 123.452C27.961 123.383 28.3218 123.418 28.6497 123.554C28.9776 123.69 29.2579 123.92 29.4551 124.215C29.6524 124.51 29.7576 124.857 29.7576 125.213C29.7522 125.685 29.5616 126.136 29.2269 126.468C28.8922 126.801 28.4402 126.989 27.9685 126.991V127.007Z" fill="black"/>
<path d="M120.676 187.308V191.557C120.675 191.797 120.601 192.031 120.462 192.227C120.324 192.423 120.129 192.571 119.903 192.652V179.771H108.271V192.631C108.044 192.551 107.848 192.403 107.709 192.207C107.57 192.011 107.494 191.777 107.494 191.536V187.308H103.237V200.482H124.949V187.308H120.676ZM118.739 192.722H109.435V180.936H118.739V192.722Z" fill="black"/>
<path d="M111.701 187.444L113.741 189.927L115.012 185.802L116.407 186.6L118.225 183.484L117.221 182.895L115.983 185.019L114.325 184.069L113.268 187.514L111.237 185.044L109.752 189.782L110.862 190.132L111.701 187.444Z" fill="black"/>
<path d="M169.559 233.073C178.423 233.073 185.608 225.882 185.608 217.01C185.608 208.139 178.423 200.947 169.559 200.947C160.695 200.947 153.51 208.139 153.51 217.01C153.51 225.882 160.695 233.073 169.559 233.073Z" fill="#00DA6C"/>
<path d="M161.551 227.079H179.29C179.522 227.079 179.743 226.988 179.907 226.824C180.071 226.66 180.162 226.438 180.162 226.207V208.452C180.162 208.22 180.071 207.998 179.907 207.834C179.743 207.671 179.522 207.579 179.29 207.579H161.551C161.436 207.578 161.322 207.6 161.216 207.644C161.11 207.688 161.013 207.752 160.932 207.833C160.85 207.914 160.786 208.01 160.742 208.117C160.698 208.223 160.675 208.337 160.675 208.452V226.207C160.675 226.322 160.698 226.436 160.742 226.542C160.786 226.648 160.85 226.744 160.932 226.825C161.013 226.906 161.11 226.971 161.216 227.014C161.322 227.058 161.436 227.08 161.551 227.079ZM176.526 209.18C176.742 209.18 176.953 209.244 177.132 209.364C177.311 209.484 177.451 209.654 177.533 209.854C177.616 210.053 177.638 210.272 177.595 210.484C177.553 210.696 177.45 210.89 177.297 211.042C177.145 211.195 176.951 211.299 176.739 211.341C176.528 211.383 176.309 211.362 176.109 211.279C175.91 211.196 175.74 211.057 175.62 210.877C175.5 210.698 175.437 210.487 175.437 210.271C175.437 209.982 175.551 209.704 175.756 209.5C175.96 209.295 176.237 209.18 176.526 209.18ZM172.381 209.18C172.596 209.18 172.807 209.244 172.986 209.364C173.165 209.484 173.305 209.654 173.388 209.854C173.47 210.053 173.492 210.272 173.45 210.484C173.408 210.696 173.304 210.89 173.151 211.042C172.999 211.195 172.805 211.299 172.593 211.341C172.382 211.383 172.163 211.362 171.963 211.279C171.764 211.196 171.594 211.057 171.474 210.877C171.355 210.698 171.291 210.487 171.291 210.271C171.291 209.982 171.405 209.704 171.61 209.5C171.814 209.295 172.091 209.18 172.381 209.18ZM162.423 212.963H178.414V225.313H162.423V212.963Z" fill="black"/>
<path d="M167.63 216.261L163.517 218.385C163.457 218.417 163.407 218.464 163.371 218.522C163.336 218.58 163.316 218.646 163.315 218.714V219.192C163.315 219.26 163.334 219.327 163.369 219.385C163.405 219.443 163.456 219.491 163.517 219.521L167.63 221.645C167.682 221.673 167.74 221.687 167.799 221.687C167.867 221.687 167.934 221.668 167.992 221.633C168.045 221.599 168.089 221.552 168.12 221.497C168.151 221.442 168.168 221.379 168.169 221.316V220.703C168.169 220.634 168.15 220.566 168.114 220.508C168.077 220.45 168.025 220.403 167.963 220.373L165.138 218.953L167.963 217.533C168.025 217.503 168.077 217.456 168.114 217.398C168.15 217.34 168.169 217.272 168.169 217.204V216.59C168.169 216.527 168.152 216.464 168.121 216.409C168.09 216.354 168.046 216.308 167.992 216.274C167.938 216.241 167.876 216.223 167.813 216.22C167.749 216.218 167.686 216.232 167.63 216.261Z" fill="black"/>
<path d="M172.039 214.861H171.435C171.36 214.862 171.287 214.885 171.225 214.927C171.164 214.97 171.116 215.03 171.089 215.1L168.621 221.538C168.6 221.595 168.593 221.656 168.6 221.716C168.607 221.776 168.629 221.834 168.662 221.884C168.697 221.933 168.742 221.972 168.795 222C168.848 222.027 168.907 222.041 168.967 222.041H169.559C169.634 222.042 169.707 222.02 169.769 221.978C169.831 221.936 169.878 221.876 169.905 221.806L172.372 215.368C172.395 215.312 172.404 215.251 172.398 215.191C172.392 215.13 172.371 215.073 172.337 215.023C172.304 214.972 172.258 214.931 172.205 214.903C172.151 214.875 172.091 214.861 172.031 214.861H172.039Z" fill="black"/>
<path d="M177.468 218.377L173.355 216.261C173.3 216.229 173.238 216.213 173.174 216.213C173.111 216.213 173.049 216.229 172.993 216.261C172.939 216.293 172.894 216.339 172.863 216.394C172.832 216.449 172.816 216.511 172.817 216.574V217.187C172.816 217.256 172.835 217.324 172.872 217.383C172.908 217.442 172.96 217.49 173.022 217.521L175.868 218.937L173.022 220.357C172.96 220.387 172.908 220.433 172.872 220.492C172.835 220.55 172.816 220.618 172.817 220.686V221.3C172.816 221.363 172.832 221.426 172.863 221.482C172.894 221.537 172.939 221.584 172.993 221.617C173.051 221.653 173.118 221.672 173.187 221.67C173.245 221.67 173.302 221.657 173.355 221.633L177.468 219.517C177.529 219.486 177.58 219.439 177.616 219.381C177.652 219.323 177.67 219.256 177.67 219.188V218.69C177.667 218.624 177.647 218.561 177.612 218.506C177.576 218.451 177.527 218.406 177.468 218.377Z" fill="black"/>
<path d="M196.224 103.761C206.975 103.761 215.691 95.0372 215.691 84.2764C215.691 73.5156 206.975 64.7922 196.224 64.7922C185.472 64.7922 176.757 73.5156 176.757 84.2764C176.757 95.0372 185.472 103.761 196.224 103.761Z" fill="#8859A0"/>
<path d="M205.573 91.6493H209.875V89.7845H205.573V87.438H209.875V85.5773H205.573V83.2266H209.875V81.3659H205.573V79.04H209.875V77.1751H205.573V74.4458H202.846V70.1233H200.987V74.4252H198.659V70.1233H196.8V74.4252H194.455V70.1233H192.571V74.4252H190.227V70.1233H188.376V74.4252H185.649V77.1546H181.339V79.04H185.637V81.3865H181.339V83.2472H185.637V85.5978H181.339V87.4586H185.637V89.8051H181.339V91.6699H185.637V94.3993H188.376V98.7012H190.239V94.3787H192.584V98.6806H194.447V94.3787H196.791V98.6806H198.659V94.3787H201.007V98.6806H202.866V94.3787H205.593V91.6493H205.573ZM203.714 92.518H187.5V76.2859H203.714V92.518Z" fill="#1D1D1B"/>
<path d="M201.904 84.3917C202.113 84.0103 202.239 83.5889 202.273 83.1554C202.308 82.7218 202.25 82.2858 202.105 81.876C201.959 81.4662 201.728 81.0919 201.428 80.7776C201.128 80.4634 200.764 80.2164 200.361 80.0527C200.334 79.5142 200.154 78.9946 199.843 78.5545C199.531 78.1143 199.102 77.7719 198.603 77.5669C198.105 77.362 197.559 77.303 197.028 77.3969C196.498 77.4908 196.005 77.7337 195.607 78.0973C195.208 77.7307 194.714 77.4855 194.181 77.3907C193.648 77.2958 193.099 77.3553 192.599 77.5619C192.098 77.7686 191.668 78.114 191.357 78.5574C191.046 79.0008 190.868 79.5239 190.844 80.0651C190.445 80.2309 190.084 80.4787 189.787 80.7924C189.489 81.1062 189.26 81.4789 189.115 81.8866C188.97 82.2943 188.912 82.7279 188.945 83.1593C188.978 83.5908 189.101 84.0106 189.306 84.3917C189.059 84.8436 188.93 85.3505 188.931 85.8654C188.933 86.4779 189.116 87.0761 189.457 87.5846C189.798 88.093 190.282 88.489 190.848 88.7224C190.874 89.2621 191.053 89.7831 191.365 90.2246C191.676 90.6661 192.106 91.0097 192.605 91.2153C193.105 91.4208 193.652 91.4799 194.184 91.3854C194.715 91.291 195.209 91.047 195.607 90.6819C196.005 91.0457 196.498 91.2886 197.029 91.3823C197.56 91.4761 198.106 91.4168 198.605 91.2113C199.103 91.0059 199.533 90.6628 199.844 90.2221C200.155 89.7814 200.335 89.2613 200.361 88.7224C200.928 88.4892 201.412 88.0934 201.754 87.585C202.096 87.0766 202.28 86.4782 202.282 85.8654C202.284 85.3499 202.154 84.8425 201.904 84.3917ZM194.673 80.2009V88.5907C194.673 88.7702 194.624 88.9463 194.531 89.0998C194.438 89.2533 194.304 89.3784 194.146 89.4616C193.987 89.5448 193.808 89.5828 193.629 89.5716C193.45 89.5605 193.277 89.5005 193.13 89.3981C192.983 89.2958 192.866 89.1551 192.793 88.9912C192.719 88.8273 192.692 88.6465 192.715 88.4684C192.737 88.2902 192.807 88.1215 192.918 87.9805C193.029 87.8395 193.177 87.7316 193.345 87.6685L192.691 85.9231C192.166 86.1231 191.712 86.4723 191.383 86.9275C191.16 86.7854 190.988 86.5751 190.893 86.3279C190.798 86.0806 190.786 85.8095 190.857 85.5544C190.928 85.2993 191.079 85.0738 191.287 84.9111C191.496 84.7485 191.752 84.6573 192.016 84.651V82.7903C191.592 82.7882 191.172 82.8737 190.782 83.0414C190.78 83.003 190.78 82.9645 190.782 82.9261C190.786 82.6802 190.864 82.441 191.004 82.2394C191.145 82.0377 191.343 81.8827 191.572 81.7943C191.802 81.7058 192.052 81.6879 192.292 81.7429C192.531 81.7979 192.749 81.9232 192.917 82.1028L194.299 80.8678C193.882 80.4113 193.34 80.089 192.74 79.9416C192.808 79.7146 192.955 79.5197 193.155 79.3927C193.354 79.2657 193.593 79.215 193.827 79.2501C194.061 79.2851 194.275 79.4035 194.429 79.5834C194.583 79.7634 194.666 79.9929 194.665 80.2297L194.673 80.2009ZM199.197 82.7779V84.6387C199.462 84.6449 199.717 84.7361 199.926 84.8988C200.135 85.0614 200.286 85.2869 200.357 85.542C200.428 85.7971 200.415 86.0683 200.32 86.3155C200.226 86.5628 200.054 86.773 199.831 86.9152C199.505 86.4573 199.049 86.1075 198.523 85.9107L197.865 87.685C198.033 87.7481 198.18 87.856 198.291 87.997C198.402 88.138 198.473 88.3067 198.495 88.4848C198.517 88.663 198.49 88.8438 198.417 89.0077C198.344 89.1716 198.227 89.3123 198.079 89.4146C197.932 89.5169 197.76 89.5769 197.581 89.5881C197.402 89.5993 197.223 89.5612 197.064 89.4781C196.905 89.3949 196.772 89.2698 196.679 89.1162C196.586 88.9627 196.536 88.7867 196.536 88.6071V80.2133C196.535 79.9764 196.619 79.7469 196.772 79.567C196.926 79.387 197.14 79.2686 197.374 79.2336C197.608 79.1985 197.847 79.2492 198.046 79.3762C198.246 79.5033 198.393 79.6981 198.461 79.9251C197.862 80.0709 197.32 80.3936 196.906 80.8513L198.284 82.0863C198.452 81.9067 198.67 81.7814 198.91 81.7264C199.149 81.6715 199.4 81.6894 199.629 81.7778C199.858 81.8663 200.056 82.0213 200.197 82.2229C200.338 82.4246 200.415 82.6637 200.419 82.9097C200.421 82.9481 200.421 82.9865 200.419 83.0249C200.031 82.8641 199.614 82.7842 199.193 82.7903L199.197 82.7779Z" fill="#1D1D1B"/>
</svg>
