<svg width="42" height="42" viewBox="0 0 42 42" fill="none" xmlns="http://www.w3.org/2000/svg">
<circle cx="21" cy="21" r="20.5" fill="white" stroke="#7721AD"/>
<mask id="mask0_137_667" style="mask-type:luminance" maskUnits="userSpaceOnUse" x="5" y="21" width="16" height="11">
<path d="M15.9977 23.962V24.7791C15.9977 27.2374 14.6551 28.1282 12.9448 28.1282C11.3914 28.1282 10.287 27.4211 9.99674 26.322H5.54858C5.94426 29.8018 8.78692 32 13.155 32C18.2312 32 20.4979 28.6774 20.4979 24.7791V21.0845L15.9977 23.962Z" fill="white"/>
</mask>
<g mask="url(#mask0_137_667)">
<path d="M20.4979 21.0845H5.54858V32H20.4979V21.0845Z" fill="url(#paint0_linear_137_667)"/>
</g>
<mask id="mask1_137_667" style="mask-type:luminance" maskUnits="userSpaceOnUse" x="5" y="10" width="33" height="16">
<path d="M26.3329 10.5622C26.2678 10.5887 26.1969 10.6165 26.1312 10.6443C26.0381 10.6838 25.9463 10.7239 25.8559 10.7685C25.7654 10.8125 25.6769 10.8565 25.5878 10.9025C25.5869 10.9021 25.5861 10.9019 25.5852 10.9019C25.5843 10.9019 25.5834 10.9021 25.5826 10.9025C25.5214 10.9342 25.4615 10.9672 25.4016 10.9995C25.2825 11.0642 25.1654 11.136 25.0509 11.2098C24.9936 11.2466 24.9376 11.2829 24.8817 11.321C24.7834 11.3857 24.6864 11.4575 24.5927 11.528C24.566 11.5474 24.5406 11.5675 24.5153 11.5876C24.4743 11.6193 24.4339 11.6522 24.3942 11.6852C24.3422 11.7279 24.2901 11.7713 24.2387 11.8146L20.5018 14.3583L15.4621 17.787V17.7967C15.4022 18.7076 15.1237 19.4574 14.6987 20.0358C14.0343 20.9479 13.0067 21.4299 11.9003 21.4299C10.0235 21.4299 8.32099 19.9724 8.32099 17.3795C8.32099 14.7866 10.0209 13.388 11.9003 13.388C13.6718 13.388 15.2389 14.6223 15.4504 16.8813L20.5018 13.4449V10.2103H16.0016V12.2765C15.2122 10.9678 13.6321 10 11.4741 10C7.86803 10 5 12.8775 5 17.483C5 22.0885 7.86803 25.0177 11.4741 25.0177C12.7796 25.0177 13.8651 24.6432 14.6987 24.0635C14.9753 23.8717 15.2312 23.6519 15.4621 23.4075C15.6631 23.1938 15.8437 22.9621 16.0016 22.7153V23.0621L20.5018 20.1846L21.9817 19.2381L26.5204 16.3341C26.8457 14.9063 27.7634 14.1235 28.8632 13.9236C29.0565 13.8891 29.2525 13.8717 29.4489 13.8718C29.6271 13.8716 29.805 13.8868 29.9806 13.9171C31.3434 14.15 32.5011 15.3061 32.5011 17.5095C32.5011 19.9678 31.0043 21.1459 29.3968 21.1459C27.764 21.1459 26.396 19.9685 26.396 17.5095C26.396 17.4448 26.396 17.3801 26.3999 17.3154L22.1744 20.017C23.1323 23.1565 25.9229 25.0184 29.3981 25.0184C33.7135 25.0184 37.0833 22.1409 37.0833 17.5102C37.0833 12.8795 33.7643 10.0006 29.4502 10.0006C28.3857 9.99299 27.3292 10.1848 26.3362 10.5661" fill="white"/>
</mask>
<g mask="url(#mask1_137_667)">
<path d="M37.0794 9.99683H4.99609V25.0146H37.0794V9.99683Z" fill="url(#paint1_linear_137_667)"/>
</g>
<defs>
<linearGradient id="paint0_linear_137_667" x1="5.50742" y1="26.6313" x2="20.4567" y2="26.6313" gradientUnits="userSpaceOnUse">
<stop stop-color="#0C0931"/>
<stop offset="0.49" stop-color="#1D1856"/>
<stop offset="1" stop-color="#C200DB"/>
</linearGradient>
<linearGradient id="paint1_linear_137_667" x1="4.90547" y1="17.6797" x2="36.9888" y2="17.6797" gradientUnits="userSpaceOnUse">
<stop stop-color="#0C0931"/>
<stop offset="0.49" stop-color="#1D1856"/>
<stop offset="1" stop-color="#C200DB"/>
</linearGradient>
</defs>
</svg>
