<svg width="24" height="24" viewBox="0 0 24 24" fill="none" xmlns="http://www.w3.org/2000/svg">
<path d="M20 16.3C20.4142 16.3 20.75 15.9642 20.75 15.55C20.75 15.1358 20.4142 14.8 20 14.8V16.3ZM15 14.8C14.5858 14.8 14.25 15.1358 14.25 15.55C14.25 15.9642 14.5858 16.3 15 16.3V14.8ZM15 18.7C14.5858 18.7 14.25 19.0358 14.25 19.45C14.25 19.8642 14.5858 20.2 15 20.2V18.7ZM20 20.2C20.4142 20.2 20.75 19.8642 20.75 19.45C20.75 19.0358 20.4142 18.7 20 18.7V20.2ZM8 9.25H5V10.75H8V9.25ZM5 9.25C4.30921 9.25 3.75 8.69079 3.75 8H2.25C2.25 9.51921 3.48079 10.75 5 10.75V9.25ZM3.75 8V5H2.25V8H3.75ZM3.75 5C3.75 4.30921 4.30921 3.75 5 3.75V2.25C3.48079 2.25 2.25 3.48079 2.25 5H3.75ZM5 3.75H8V2.25H5V3.75ZM8 3.75C8.69079 3.75 9.25 4.30921 9.25 5H10.75C10.75 3.48079 9.51921 2.25 8 2.25V3.75ZM9.25 5V8H10.75V5H9.25ZM9.25 8C9.25 8.69079 8.69079 9.25 8 9.25V10.75C9.51921 10.75 10.75 9.51921 10.75 8H9.25ZM19 9.25H16V10.75H19V9.25ZM16 9.25C15.3092 9.25 14.75 8.69079 14.75 8H13.25C13.25 9.51921 14.4808 10.75 16 10.75V9.25ZM14.75 8V5H13.25V8H14.75ZM14.75 5C14.75 4.30921 15.3092 3.75 16 3.75V2.25C14.4808 2.25 13.25 3.48079 13.25 5H14.75ZM16 3.75H19V2.25H16V3.75ZM19 3.75C19.6908 3.75 20.25 4.30921 20.25 5H21.75C21.75 3.48079 20.5192 2.25 19 2.25V3.75ZM20.25 5V8H21.75V5H20.25ZM20.25 8C20.25 8.69079 19.6908 9.25 19 9.25V10.75C20.5192 10.75 21.75 9.51921 21.75 8H20.25ZM8 20.25H5V21.75H8V20.25ZM5 20.25C4.30921 20.25 3.75 19.6908 3.75 19H2.25C2.25 20.5192 3.48079 21.75 5 21.75V20.25ZM3.75 19V16H2.25V19H3.75ZM3.75 16C3.75 15.3092 4.30921 14.75 5 14.75V13.25C3.48079 13.25 2.25 14.4808 2.25 16H3.75ZM5 14.75H8V13.25H5V14.75ZM8 14.75C8.69079 14.75 9.25 15.3092 9.25 16H10.75C10.75 14.4808 9.51921 13.25 8 13.25V14.75ZM9.25 16V19H10.75V16H9.25ZM9.25 19C9.25 19.6908 8.69079 20.25 8 20.25V21.75C9.51921 21.75 10.75 20.5192 10.75 19H9.25ZM20 14.8H15V16.3H20V14.8ZM15 20.2H20V18.7H15V20.2Z" fill="current" stroke="none"/>
</svg>
