<?xml version="1.0" encoding="utf-8"?>
<!-- Generator: Adobe Illustrator 23.0.5, SVG Export Plug-In . SVG Version: 6.00 Build 0)  -->
<svg version="1.1" id="Bold" xmlns="http://www.w3.org/2000/svg" xmlns:xlink="http://www.w3.org/1999/xlink" x="0px" y="0px"
	 viewBox="0 0 512 512" style="enable-background:new 0 0 512 512;" xml:space="preserve">
<g>
	<path d="M410.6,124.8h-15.8c-0.1,0-0.2,0-0.3,0c-1.1-0.1-2.1-0.1-3.2-0.1h-1.1v32c0.3,2.9,0.2,6-0.4,9.2
		C387,183.4,372.4,196,355,196h-0.9h-0.2h-0.6h-0.6c-18.6-1.1-32.7-16-32.7-34.6c0-6.5,0-13.1-0.1-19.6v-0.2v-0.2V129
		c0-1.5,0-2.9,0-4.3h-7H94.7H75c-26,0-47.2,21.2-47.2,47.2v231.2c0,26,21.2,47.2,47.2,47.2h163.7l43.1,54.9
		c2.9,3.7,7.1,5.8,11.7,5.8h0.2c4.5,0,8.7-2,11.6-5.4l46.9-55.3h58.4c26,0,47.2-21.2,47.2-47.2V172
		C457.7,146,436.6,124.8,410.6,124.8z M179.5,335.4c0,6.9-5.5,12.4-12.5,12.4c-6.8,0-12.3-5.5-12.4-12.4v-28.5h-26.2v28.4
		c0,6.9-5.5,12.4-12.5,12.4c-6.9,0-12.4-5.4-12.4-12.4v-81.4c0-6.9,5.4-12.4,12.4-12.4c7.1,0,12.6,5.5,12.5,12.5v28.4h26.2V254
		c0-6.9,5.4-12.4,12.4-12.4s12.5,5.4,12.5,12.4V335.4z M267.8,339.1c-7.7,5.6-17.7,8.7-28.2,8.7c-16.3-0.2-29.8-8.1-38.2-14.8
		c-5.1-4.2-6-11.5-2.1-16.6c0.1-0.2,0.2-0.3,0.3-0.4l0.1-0.1c1.9-2.4,4.8-3.9,8-4.2c3.3-0.3,6.3,0.6,8.7,2.6
		c3.7,2.9,13.5,9.6,23.2,9.5c5.6,0,10.9-1.6,14.6-4.2c3.6-2.7,3.9-4.7,4-5.7v-0.1c0-0.9-0.2-1.4-0.5-1.9c-0.6-0.9-1.5-1.8-2.8-2.7
		c-3.7-2.2-9.6-4.2-16.7-5.6l-0.6-0.1c-0.1,0-0.1,0-0.2,0c-7.6-1.6-13.8-3.5-18.8-5.8c-6.7-3.3-11.5-7.3-14.8-12.5
		c-2.5-4-3.9-8.9-3.9-13.8c0-9.2,4.8-18,13-24c7.1-5.4,16.6-8.3,26.6-8.3c14.2,0,24.7,6.7,31.7,11.2l0.9,0.5l0.1,0.1
		c2.5,1.7,4.3,4.5,5,7.6v0.1c0.5,3-0.1,6.1-1.8,8.7c-1.8,2.7-4.3,4.4-7.3,5.1c-0.1,0-0.1,0-0.2,0c-3.1,0.5-6.3-0.1-8.9-1.8
		c-7.2-4.7-12.7-8-19.6-8c-4.7,0-9.4,1.4-12.6,3.8c-0.8,0.6-3.3,2.6-3.3,4.9c0,0.6,0,0.9,0.2,1.1c0,0.1,0.1,0.3,0.2,0.4
		c0.3,0.5,1.6,1.4,2.3,2c2.7,2,8.1,3.9,14.8,5.2l0.6,0.1c0.1,0,0.1,0,0.2,0c8.5,1.7,14.9,3.7,20.1,6.2c7.4,3.6,12.4,7.9,15.7,13.3
		c2.6,4,4,9,4,14.2C281.6,323.6,276.6,332.9,267.8,339.1z M386.2,335.5c0,6.7-5.7,12.4-12.5,12.4c-7,0-12.4-5.4-12.4-12.3v-43.3
		l-11.1,15.6l-0.1,0.1c-2.5,3.2-6.1,5-10,5h-0.3c-4.2,0-7.9-1.9-10.2-5.1l-11.1-15.4v43.1c0,6.8-5.6,12.4-12.5,12.4
		s-12.4-5.4-12.4-12.4v-81.4c0-6.6,4.8-11.8,11.1-12.4c0.4-0.2,0.8-0.3,1.3-0.3h0.5c4,0,7.8,1.9,10,5.1l23.5,32.7l23.5-32.6l0.1-0.1
		c2.5-3.2,6.1-5,10-5h0.2c0.1,0,0.1,0,0.2,0c6.8,0.4,12.2,5.8,12.2,12.4L386.2,335.5L386.2,335.5z"/>
	<path d="M478.2,34.7L450.7,7.2C446.6,3.1,442,1,437.6,1c-3.6,0-7.1,1.4-10.1,4.3s-4.6,6.4-4.6,10.1c0,4.3,2.1,8.7,6,12.7
		c0.1,0.1,0.1,0.2,0.2,0.3c0.4,0.5,0.8,0.9,1.2,1.3c0.1,0.1,0.3,0.3,0.4,0.4c0.6,0.6,1,1,1.5,1.6l0.1,0.1h-11.8c-1.6,0-3.2,0-4.7,0
		c-6.2,0-12.1,0-18.1,0.2c-31.3,0.4-55.9,22.3-57.3,50.9v0.3c-0.3,6.3-0.6,12.8-0.6,20.2v9.7c0.1,3.5,0.1,7.3,0.1,11.6
		c0,1.4,0,2.8,0,4.3v12.5c0.1,6.6,0.1,13.3,0.1,19.9c0,7.9,5.8,14.1,13.9,14.6c0.1,0,0.1,0,0.2,0h0.9c7.7,0,13.9-5.5,15.1-13.3
		c0.2-1.2,0.4-3,0.1-4.8v-33.2V89.2c0.2-15.1,9.7-25.8,23.8-26.8c6.7-0.4,13.5-0.5,20.1-0.5c4.6,0,9,0.1,13.1,0.1
		c1.7,0,3.4,0,5.3,0.2h0.1l-0.1,0.1c-0.5,0.5-1.1,1.1-1.5,1.4c0,0-0.1,0-0.1,0.1l-0.1,0.1c-0.9,0.8-1.7,1.5-2.5,2.5
		c-7,7-7.5,15.7-1.3,22.2c2.9,3,6.5,4.6,10.3,4.6c4.4,0,8.7-1.9,12.6-5.7c9.2-9,18.9-18.8,28.2-28.2l0.2-0.2
		C486.1,51.2,486.1,42.9,478.2,34.7z"/>
</g>
</svg>
