<svg id="Layer_1" data-name="Layer 1" xmlns="http://www.w3.org/2000/svg" viewBox="0 0 42 43"><defs><style>.cls-1{fill:#757575;}</style></defs><title>IA_Laraigo_1</title><path class="cls-1" d="M20.14,24.43H16.27l-.55,1.81H12.24l4.15-10.95h3.73l4.13,11H20.69Zm-.73-2.37-1.2-3.94L17,22.06Zm5.8-6.78h3.42v11H25.21ZM22.61,4.05a6,6,0,0,0-1.54,1.66A.38.38,0,0,1,21,5.8a.33.33,0,0,1-.42-.09A5.9,5.9,0,0,0,19,4.05a4.87,4.87,0,0,0-1.93-.84h0a5.08,5.08,0,0,0-2,0,6,6,0,0,0-3.5,2,5.33,5.33,0,0,0-1,1.66c0,.1-.07.2-.1.3a2.63,2.63,0,0,0-.08.3.3.3,0,0,1-.29.24,5.89,5.89,0,0,0-2,.73A7.08,7.08,0,0,0,6.3,10,7.94,7.94,0,0,0,5,12.18a8.08,8.08,0,0,0-.5,2.55c0,.11,0,.23,0,.35s0,.22,0,.34a.34.34,0,0,1-.13.27,11.28,11.28,0,0,0-1.16.94,8.87,8.87,0,0,0-.92,1.05,6.93,6.93,0,0,0-1,1.81,6.3,6.3,0,0,0-.34,2,6.39,6.39,0,0,0,.26,1.84A6.69,6.69,0,0,0,2.05,25a9.67,9.67,0,0,0,.67.91,7.22,7.22,0,0,0,.82.84.32.32,0,0,1,.09.28,8.1,8.1,0,0,0-.14,1.17,7.45,7.45,0,0,0,.06,1.16,7.15,7.15,0,0,0,.59,2A7.69,7.69,0,0,0,5.3,33.14a7.43,7.43,0,0,0,1.49,1.32,6.85,6.85,0,0,0,1.73.87,5.34,5.34,0,0,0,.81.21,5.2,5.2,0,0,0,.78.1.29.29,0,0,1,.3.23,5.4,5.4,0,0,0,.73,1.73,6.09,6.09,0,0,0,3.58,2.53,5.27,5.27,0,0,0,2.37.06,5,5,0,0,0,2-.92,6.11,6.11,0,0,0,1.58-1.8.32.32,0,0,1,.12-.11.3.3,0,0,1,.41.13,5.54,5.54,0,0,0,1.34,1.67,5,5,0,0,0,1.81.93,5.42,5.42,0,0,0,2.5,0,6.43,6.43,0,0,0,2.48-1.09,6.24,6.24,0,0,0,1.5-1.49,5.15,5.15,0,0,0,.84-1.75.31.31,0,0,1,.25-.25,5.77,5.77,0,0,0,2.22-.92A7.15,7.15,0,0,0,36,32.8a8,8,0,0,0,1.4-4.92.29.29,0,0,1,.13-.27,10.09,10.09,0,0,0,1.2-1,7.77,7.77,0,0,0,1-1.06,6.43,6.43,0,0,0,.94-1.74A6.08,6.08,0,0,0,41,22a6.44,6.44,0,0,0-.22-1.8,6.61,6.61,0,0,0-.72-1.72h0a8.69,8.69,0,0,0-.72-1,8.93,8.93,0,0,0-.91-.94.29.29,0,0,1-.1-.28,8,8,0,0,0,.14-1.07,7.46,7.46,0,0,0,0-1.06,6.7,6.7,0,0,0-.55-2,7.26,7.26,0,0,0-1.16-1.84,7.94,7.94,0,0,0-1.52-1.38,7,7,0,0,0-1.74-.88h0a6.42,6.42,0,0,0-1-.24h0a4.85,4.85,0,0,0-.93-.06.3.3,0,0,1-.31-.23,5.62,5.62,0,0,0-.2-.62c-.09-.21-.18-.41-.29-.62a5.64,5.64,0,0,0-1.08-1.4,6.23,6.23,0,0,0-1.5-1,5.94,5.94,0,0,0-1.79-.57,5,5,0,0,0-3.75.92Zm8.53,5.84a.32.32,0,0,1,.27-.21,2.51,2.51,0,0,1,.67,0,4.34,4.34,0,0,1,.69.17,5.09,5.09,0,0,1,1.27.65,5.76,5.76,0,0,1,1.1,1h0A5.25,5.25,0,0,1,36,12.87a4.79,4.79,0,0,1,.4,1.46,4.19,4.19,0,0,1,0,1.06,4.35,4.35,0,0,1-.23,1v0a1.11,1.11,0,0,0,0,.65,1,1,0,0,0,.41.52h0a5.88,5.88,0,0,1,1,.88,5.63,5.63,0,0,1,.75,1,4.76,4.76,0,0,1,.52,1.21,4.12,4.12,0,0,1-.09,2.5,4.77,4.77,0,0,1-.65,1.18h0a6.48,6.48,0,0,1-1,1,8.7,8.7,0,0,1-1.28.89h0a1,1,0,0,0-.49,1.08v0a6.37,6.37,0,0,1-.11,2.24,5.87,5.87,0,0,1-.89,2,5.34,5.34,0,0,1-1,1.12,3.84,3.84,0,0,1-1.25.68h0a.31.31,0,0,1-.38-.19c-.57-1.13-.55-1.34-1.16-1.73a1.44,1.44,0,0,0-.86-.2.92.92,0,0,0-.55.46l0,0a1,1,0,0,0,0,.73,1,1,0,0,0,.48.56,1.2,1.2,0,0,1,.6,1.49,6.26,6.26,0,0,1-.65,1.56,4.52,4.52,0,0,1-1.22,1.29,4.61,4.61,0,0,1-1.66.75,3.37,3.37,0,0,1-1.67,0A3,3,0,0,1,23,36.65a8,8,0,0,1-.74-2.24.22.22,0,0,1,0-.08.8.8,0,0,0-.67-.73,1.88,1.88,0,0,0-.53-.07,2.33,2.33,0,0,0-.53.07c-.37.12-.67.36-.67.73a.17.17,0,0,1,0,.07A6.84,6.84,0,0,1,18.63,37a3.4,3.4,0,0,1-2,1.28,3.64,3.64,0,0,1-1.54,0,4.55,4.55,0,0,1-1.46-.73,3.89,3.89,0,0,1-1.05-1.21,3,3,0,0,1-.38-1.43,2,2,0,0,1,.58-1.73c.18-.21.41-.33.49-.57a1,1,0,0,0-.06-.74,1,1,0,0,0-.57-.49.89.89,0,0,0-.86.06,2.67,2.67,0,0,0-.78,1s-.49.87-.52,1a.31.31,0,0,1-.31.22,2.46,2.46,0,0,1-.53-.06,3.18,3.18,0,0,1-.53-.14,5.58,5.58,0,0,1-1.24-.63,5.49,5.49,0,0,1-1.08-1A5.55,5.55,0,0,1,6,30.56a5.13,5.13,0,0,1-.43-1.41h0a4.72,4.72,0,0,1,0-1.13,5.06,5.06,0,0,1,.25-1.11v0a1,1,0,0,0,0-.63h0a1,1,0,0,0-.39-.52h0a6.34,6.34,0,0,1-.9-.8A6.19,6.19,0,0,1,3.78,24a5.24,5.24,0,0,1-.56-1.23,4.19,4.19,0,0,1-.17-1.27,3.9,3.9,0,0,1,.24-1.33A4.76,4.76,0,0,1,4,18.9a6.8,6.8,0,0,1,.94-1A8.08,8.08,0,0,1,6.14,17a1,1,0,0,0,.38-.42h0A1.09,1.09,0,0,0,6.62,16a.13.13,0,0,1,0-.06h0c0-.18,0-.36-.05-.54s0-.38,0-.57a6.28,6.28,0,0,1,.37-1.89,5.91,5.91,0,0,1,.94-1.65,5.11,5.11,0,0,1,1.07-1,4.09,4.09,0,0,1,1.19-.54.31.31,0,0,1,.38.2A3.12,3.12,0,0,0,11,11.15l.44.66c-.2-.29.19.3,0,0,.19.3,1.45-.86,1.64-1.25a3.92,3.92,0,0,1-.68-1.14,2.9,2.9,0,0,1,0-1.91,3.57,3.57,0,0,1,.67-1.1,4.62,4.62,0,0,1,1-.84h0a4.07,4.07,0,0,1,1.27-.48,3.39,3.39,0,0,1,1.27,0,3.25,3.25,0,0,1,1.7,1,5.56,5.56,0,0,1,1.18,2h0a1,1,0,0,0,.88.61,2.27,2.27,0,0,0,.58,0h0a2.52,2.52,0,0,0,.56-.1c.31-.11.56-.27.62-.49V8a2.78,2.78,0,0,1,.85-1.76A3.94,3.94,0,0,1,24.93,5.1a3.24,3.24,0,0,1,1.16,0,4,4,0,0,1,1.15.37h0a4.15,4.15,0,0,1,1,.7A4,4,0,0,1,29,7.1a4.1,4.1,0,0,1,.5,2l-.76,1.35c-.17.2-.11.22-.09.47l1.05.78c.52,0,.85-.59,1-.78A5.79,5.79,0,0,0,31.14,9.89Z"/></svg>