<svg width="42" height="43" viewBox="0 0 42 43" fill="none" xmlns="http://www.w3.org/2000/svg">
<path d="M19.6035 22.7843H16.9972L16.6239 24.0021H14.2782L17.0782 16.6114H19.593L22.3824 24.0021H19.9769L19.6035 22.7843ZM19.1175 21.1816L18.3039 18.5256L17.4868 21.1816H19.1175ZM23.0304 16.6079H25.3374V23.9986H23.0304V16.6079ZM21.273 9.03186C20.8926 9.30481 20.5404 9.67224 20.234 10.1481C20.2199 10.1726 20.1987 10.1936 20.1741 10.2076C20.079 10.2671 19.9522 10.2391 19.8923 10.1481C19.5859 9.67224 19.2337 9.30481 18.8533 9.03186C18.4448 8.73791 18.0045 8.55245 17.5502 8.46146H17.5431C17.0994 8.37048 16.645 8.37048 16.2083 8.44747C15.7469 8.52795 15.2996 8.69592 14.8981 8.92688C14.5001 9.15783 14.1409 9.45528 13.8415 9.79821C13.5527 10.1307 13.3202 10.5121 13.1688 10.9215C13.1441 10.9845 13.123 11.051 13.1019 11.121C13.0843 11.184 13.0631 11.2539 13.0491 11.3239C13.0314 11.4149 12.954 11.4814 12.8553 11.4849C12.3834 11.5549 11.915 11.7264 11.4782 11.9818C11.0345 12.2443 10.6224 12.6012 10.2667 13.0281C9.91446 13.455 9.61861 13.9589 9.40729 14.5188C9.21006 15.0437 9.09031 15.6211 9.06566 16.2335C9.06213 16.314 9.06213 16.391 9.06213 16.4715C9.06213 16.545 9.06566 16.6219 9.06566 16.7024C9.06918 16.7689 9.041 16.8389 8.98113 16.8809C8.69232 17.0874 8.43169 17.3008 8.19924 17.5213C7.96327 17.7487 7.75547 17.9832 7.57585 18.2246C7.28352 18.6201 7.06868 19.033 6.92427 19.4494C6.77283 19.8833 6.69886 20.3278 6.69182 20.7652C6.6883 21.1851 6.74465 21.6015 6.8644 22.0039C6.98415 22.4134 7.16729 22.8123 7.40327 23.1832C7.5371 23.3967 7.68855 23.6066 7.85408 23.8026C8.02314 24.0021 8.20628 24.191 8.40352 24.3695C8.45283 24.415 8.481 24.4885 8.46691 24.5585C8.41056 24.8244 8.38239 25.0869 8.37182 25.3458C8.36478 25.6118 8.37886 25.8742 8.41408 26.1297C8.481 26.5986 8.61836 27.0465 8.81207 27.4594C9.01635 27.9003 9.28402 28.3028 9.59396 28.6562C9.89333 29.0026 10.235 29.3036 10.6013 29.552C10.9711 29.804 11.362 30 11.7635 30.1364C11.9431 30.1959 12.1263 30.2449 12.313 30.2799C12.4891 30.3149 12.6652 30.3359 12.8377 30.3429C12.9328 30.3394 13.0209 30.4059 13.042 30.5039C13.1336 30.9203 13.3026 31.3122 13.5351 31.6656C13.7781 32.0366 14.0845 32.3655 14.4367 32.6385C14.8805 32.9814 15.4018 33.2404 15.9512 33.3768C16.4689 33.5063 17.0148 33.5308 17.5502 33.4188C18.0292 33.3208 18.4941 33.1179 18.9238 32.7959C19.3182 32.4985 19.6845 32.0996 19.9909 31.5817C20.0085 31.5502 20.0367 31.5257 20.0719 31.5082C20.1706 31.4557 20.2938 31.4942 20.3467 31.5922C20.6002 32.0611 20.9102 32.4355 21.2553 32.719C21.6287 33.0234 22.0408 33.2299 22.474 33.3488C23.0269 33.4993 23.6045 33.4993 24.1645 33.3838C24.7633 33.2614 25.3409 33.0024 25.8375 32.6455C26.2284 32.369 26.5736 32.0296 26.8483 31.6447C27.1089 31.2842 27.3026 30.8818 27.4153 30.4584C27.4294 30.3779 27.4928 30.3079 27.5809 30.2939C28.0986 30.2029 28.6093 29.9895 29.0777 29.671C29.5462 29.3526 29.9723 28.9327 30.321 28.4323C30.6415 27.9703 30.8986 27.4384 31.0641 26.8575C31.2191 26.3151 31.2931 25.7273 31.2684 25.1079C31.2614 25.0379 31.2931 24.9679 31.3565 24.9259C31.6594 24.7194 31.927 24.5025 32.1665 24.282C32.4096 24.0511 32.6244 23.8131 32.8075 23.5647C33.0893 23.1867 33.2971 22.7948 33.4415 22.3924C33.5894 21.976 33.6669 21.5525 33.681 21.1291C33.6916 20.7197 33.6423 20.3138 33.5366 19.9148C33.4309 19.5124 33.2654 19.124 33.0506 18.7565L33.0435 18.7496C32.9026 18.5081 32.7371 18.2771 32.554 18.0532C32.3708 17.8292 32.163 17.6193 31.9411 17.4198C31.8883 17.3743 31.8601 17.3008 31.8742 17.2273C31.9235 16.9859 31.9552 16.7444 31.9658 16.5065C31.9763 16.265 31.9693 16.0271 31.9446 15.7926C31.8918 15.3062 31.7615 14.8443 31.5713 14.4139C31.3706 13.9589 31.1029 13.539 30.7894 13.1716C30.4865 12.8147 30.1379 12.5032 29.7645 12.2443C29.3912 11.9853 28.9932 11.7823 28.5882 11.6459L28.5776 11.6424C28.3628 11.5689 28.1444 11.5164 27.9296 11.4814H27.9225C27.7112 11.4464 27.4999 11.4324 27.2921 11.4359C27.197 11.4429 27.1054 11.3799 27.0808 11.2819C27.0455 11.1385 26.9997 10.9985 26.9469 10.862C26.8906 10.722 26.8272 10.5856 26.7532 10.4491C26.563 10.0992 26.313 9.77722 26.0206 9.50077C25.7213 9.21732 25.3796 8.97587 25.0133 8.7904C24.6365 8.60144 24.2244 8.46846 23.8018 8.40897C23.4002 8.35298 22.9882 8.35998 22.5831 8.44397C22.1288 8.55245 21.6815 8.73791 21.273 9.03186ZM27.0314 12.9721C27.0561 12.8951 27.1265 12.8356 27.2146 12.8287C27.3625 12.8182 27.514 12.8252 27.6654 12.8496C27.8204 12.8741 27.9753 12.9126 28.1303 12.9651C28.4226 13.0631 28.715 13.2136 28.9862 13.4025C29.2538 13.588 29.5074 13.8155 29.7258 14.0744L29.7293 14.0814C29.9582 14.3509 30.1519 14.6518 30.2963 14.9808C30.4337 15.2887 30.5253 15.6176 30.564 15.9641C30.5887 16.195 30.5887 16.4365 30.5605 16.6814C30.5358 16.9089 30.483 17.1433 30.402 17.3778L30.3985 17.3918C30.3492 17.5388 30.3527 17.6927 30.3985 17.8292C30.4478 17.9692 30.5394 18.0952 30.6697 18.1792L30.6802 18.1862C30.9268 18.3681 31.1452 18.5676 31.3353 18.7775C31.5326 18.991 31.7016 19.222 31.8425 19.4599C31.9975 19.7224 32.1172 19.9953 32.1912 20.2753C32.2687 20.5517 32.3039 20.8317 32.2933 21.1081C32.2863 21.3951 32.2299 21.682 32.1278 21.9655C32.0292 22.2349 31.8848 22.5009 31.6946 22.7598L31.6911 22.7633C31.5185 22.9978 31.3001 23.2287 31.043 23.4492C30.7965 23.6591 30.5112 23.8586 30.1836 24.0511L30.1731 24.0581C30.0428 24.1315 29.9477 24.2435 29.8913 24.373C29.835 24.5025 29.8174 24.646 29.8455 24.7859L29.8491 24.8139C29.916 25.3493 29.8843 25.8602 29.7751 26.3256C29.6553 26.833 29.4475 27.288 29.1763 27.6764C28.9685 27.9738 28.7291 28.2293 28.4719 28.4323C28.2078 28.6422 27.9225 28.7962 27.6302 28.8907H27.6267C27.521 28.9222 27.4048 28.8627 27.3731 28.7577C26.9892 27.9948 27.0031 27.8583 26.591 27.5924C26.429 27.5154 26.1721 27.4069 26.0136 27.4559C25.8551 27.5049 25.7177 27.6134 25.6367 27.7709L25.6262 27.7919C25.5487 27.9528 25.5416 28.1278 25.5909 28.2853C25.6438 28.4427 25.7565 28.5827 25.9185 28.6667C26.4116 28.9991 26.4149 29.3421 26.32 29.671C26.1929 30.1114 26.0735 30.4059 25.8833 30.7208C25.6825 31.0533 25.3937 31.3507 25.0591 31.5922C24.7175 31.8371 24.3336 32.0156 23.9391 32.1031C23.5623 32.1905 23.1748 32.194 22.8121 32.0961C22.1992 31.9281 21.8013 31.5222 21.5336 31.0288C21.28 30.5599 21.1391 30.014 21.037 29.517C21.0299 29.4996 21.0299 29.4786 21.0299 29.4611C21.0299 29.2091 20.8327 29.0446 20.5756 28.9711C20.4629 28.9362 20.3396 28.9222 20.2199 28.9222C20.0966 28.9222 19.9769 28.9397 19.8641 28.9711C19.6106 29.0481 19.4133 29.2126 19.4133 29.4611C19.4133 29.4786 19.4098 29.4926 19.4063 29.51C19.2091 30.2869 18.9238 30.8713 18.5892 31.2912C18.1982 31.7846 17.7404 32.0541 17.2684 32.1521C16.9233 32.222 16.5675 32.2045 16.2294 32.1171C15.8737 32.0226 15.5356 31.8511 15.2397 31.6272C14.9474 31.3997 14.7044 31.1232 14.5353 30.8118C14.3733 30.5144 14.2782 30.1854 14.2782 29.8495C14.1691 29.3946 14.4222 28.9572 14.6692 28.6772C14.7896 28.5407 14.9439 28.4532 14.9967 28.2958C15.0496 28.1348 15.039 27.9563 14.958 27.7919C14.8735 27.6309 14.7326 27.5189 14.5741 27.4664C14.4156 27.4174 14.2782 27.3496 13.993 27.5049C13.7077 27.6602 13.4646 28.1698 13.4646 28.1698C13.4646 28.1698 13.1371 28.7612 13.1124 28.8487C13.0878 28.9362 13.0033 29.0026 12.9082 28.9991C12.7884 28.9956 12.6687 28.9816 12.5454 28.9572C12.4257 28.9327 12.3059 28.9012 12.1932 28.8592C11.9079 28.7612 11.6226 28.6177 11.355 28.4358C11.0908 28.2538 10.8443 28.0368 10.6259 27.7849C10.4005 27.5259 10.2068 27.2355 10.0589 26.917C9.91798 26.6196 9.81937 26.3011 9.77006 25.9687V25.9617C9.73484 25.7168 9.72779 25.4613 9.75597 25.1989C9.78062 24.9539 9.83346 24.6984 9.92151 24.4465L9.92503 24.436C9.97434 24.2925 9.97081 24.142 9.92855 24.0091L9.92503 24.0021C9.87924 23.8621 9.78767 23.7396 9.66088 23.6521L9.65383 23.6451C9.42842 23.4772 9.22415 23.2987 9.04452 23.1027C8.86138 22.9068 8.69937 22.6968 8.56553 22.4799C8.40352 22.2174 8.27673 21.9375 8.1922 21.6505C8.11119 21.3706 8.06893 21.0836 8.07245 20.7897C8.07597 20.4922 8.1288 20.1878 8.23446 19.8903C8.3366 19.6069 8.48452 19.3234 8.6888 19.047C8.86138 18.8125 9.0727 18.5816 9.32629 18.3611C9.5693 18.1477 9.84402 17.9447 10.161 17.7522C10.2772 17.6822 10.3618 17.5843 10.4181 17.4723L10.4216 17.4618C10.478 17.3463 10.4991 17.2168 10.4815 17.0874C10.478 17.0734 10.478 17.0594 10.478 17.0454V17.0384C10.4604 16.9159 10.4498 16.7934 10.4428 16.6744C10.4357 16.545 10.4357 16.4155 10.4392 16.2895C10.4569 15.8311 10.5449 15.4007 10.6893 15.0122C10.8443 14.5958 11.0626 14.2214 11.3233 13.903C11.5381 13.6405 11.7846 13.42 12.0418 13.2486C12.2989 13.0771 12.5701 12.9546 12.8483 12.8846C12.954 12.8531 13.0702 12.9126 13.1019 13.0176C13.0772 13.1226 13.2991 13.63 13.4294 13.819C13.5597 14.0079 13.5946 14.0679 13.7266 14.2669C13.5946 14.0679 13.8586 14.4659 13.7266 14.2669C13.8586 14.4659 14.7062 13.686 14.8382 13.42C14.8382 13.42 14.5036 13.0421 14.3769 12.6502C14.2289 12.1988 14.2536 11.7578 14.398 11.3659C14.4966 11.0965 14.6516 10.8445 14.8488 10.6241C15.0425 10.4036 15.2785 10.2076 15.5391 10.0572L15.5497 10.0502C15.8174 9.8962 16.1062 9.78422 16.4055 9.72823C16.6908 9.67574 16.9831 9.67224 17.2684 9.73173C17.6699 9.81571 18.0644 10.0257 18.4131 10.3896C18.7195 10.708 18.9907 11.149 19.2055 11.7299L19.2091 11.7369C19.283 11.9643 19.5225 12.0973 19.8043 12.1498C19.9311 12.1743 20.0649 12.1813 20.1952 12.1743H20.1987C20.3326 12.1673 20.4594 12.1428 20.5791 12.1043C20.7904 12.0343 20.956 11.9223 20.9947 11.7788V11.6984C20.9947 11.2924 21.2377 10.862 21.5723 10.5086C21.9386 10.1237 22.4282 9.81921 22.8402 9.73523C23.1009 9.68274 23.365 9.67924 23.6221 9.71773C23.8898 9.75972 24.1504 9.84371 24.397 9.96618L24.4181 9.97318C24.6682 10.0992 24.8971 10.2601 25.0979 10.4491C25.2951 10.6381 25.4641 10.8515 25.5909 11.086C25.7917 11.4534 25.9326 11.9083 25.9326 12.4332L25.4184 13.3431C25.3021 13.4795 25.3444 13.49 25.3585 13.658L26.0629 14.1829C26.4151 14.1829 26.6405 13.7875 26.7532 13.658C26.8829 13.3396 26.8765 13.476 27.0314 12.9721Z" fill="#757575"/>
</svg>
