<svg width="25" height="25" viewBox="0 0 300 300" fill="none" xmlns="http://www.w3.org/2000/svg">
<path d="M201.429 128.194C202.352 124.954 202.552 121.551 202.015 118.225C201.478 114.899 200.216 111.731 198.32 108.947C196.423 106.162 193.938 103.828 191.04 102.11C188.142 100.392 184.901 99.3313 181.548 99.0037C180.203 95.1432 177.69 91.7965 174.359 89.4267C171.028 87.0569 167.042 85.7812 162.954 85.7764C158.096 85.7928 153.418 87.6172 149.831 90.8941C146.245 87.6172 141.567 85.7928 136.709 85.7764C128.173 85.7764 120.897 91.2287 118.174 98.9972C114.815 99.3165 111.567 100.371 108.661 102.086C105.755 103.801 103.262 106.135 101.36 108.922C99.4566 111.708 98.1901 114.879 97.65 118.21C97.1099 121.541 97.3094 124.949 98.2343 128.194C94.0222 130.435 90.4954 133.775 88.0279 137.858C85.5605 141.942 84.2445 146.617 84.2196 151.388C84.2196 158.442 87.0278 165.075 91.9093 169.97C91.1624 172.456 90.7822 175.037 90.7808 177.633C90.7808 190.473 100.045 201.188 112.472 203.445C114.296 207.477 117.242 210.899 120.958 213.302C124.674 215.706 129.003 216.99 133.429 217C139.852 217 145.659 214.33 149.831 210.052C151.961 212.249 154.511 213.996 157.328 215.19C160.146 216.383 163.174 216.999 166.234 217C170.652 216.992 174.974 215.713 178.685 213.317C182.396 210.92 185.34 207.507 187.165 203.484C190.826 202.839 194.308 201.424 197.382 199.334C200.456 197.243 203.051 194.525 204.997 191.357C206.943 188.19 208.194 184.646 208.67 180.959C209.145 177.272 208.833 173.527 207.754 169.97C210.193 167.529 212.128 164.632 213.447 161.444C214.767 158.256 215.445 154.839 215.443 151.388C215.418 146.617 214.102 141.942 211.635 137.858C209.168 133.775 205.641 130.435 201.429 128.194ZM133.429 203.878C128.764 203.878 124.702 200.571 123.784 196.017L122.393 190.755H117.026C109.789 190.755 103.903 184.87 103.903 177.633C103.903 175.323 104.461 173.158 105.563 171.196L108.555 165.843L103.411 162.496C101.553 161.298 100.024 159.654 98.9639 157.714C97.9039 155.774 97.3463 153.599 97.342 151.388C97.342 144.978 102.086 139.421 108.378 138.45L119.486 136.744L112.538 127.912C111.3 126.317 110.583 124.38 110.482 122.364C110.381 120.348 110.902 118.349 111.974 116.638C113.046 114.928 114.618 113.588 116.477 112.799C118.335 112.011 120.391 111.813 122.366 112.231L130.148 113.379V105.46C130.148 103.72 130.839 102.051 132.07 100.82C133.3 99.59 134.969 98.8987 136.709 98.8987C138.449 98.8987 140.118 99.59 141.349 100.82C142.579 102.051 143.27 103.72 143.27 105.46V194.036C143.27 199.462 138.855 203.878 133.429 203.878ZM196.252 162.49L191.108 165.836L194.1 171.19C195.202 173.158 195.76 175.323 195.76 177.633C195.76 184.87 189.874 190.755 182.309 190.755H176.942L175.879 196.017C175.421 198.237 174.211 200.23 172.454 201.662C170.697 203.094 168.501 203.876 166.234 203.878C160.808 203.878 156.393 199.462 156.393 194.036V105.46C156.393 101.838 159.332 98.8987 162.954 98.8987C166.576 98.8987 169.515 101.838 169.515 105.788V113.707L177.297 112.231C179.272 111.813 181.328 112.011 183.186 112.799C185.045 113.588 186.616 114.928 187.689 116.638C188.761 118.349 189.282 120.348 189.181 122.364C189.08 124.38 188.363 126.317 187.125 127.912L180.177 136.75L191.285 138.456C194.359 138.954 197.156 140.527 199.177 142.896C201.199 145.265 202.313 148.274 202.321 151.388C202.321 155.87 200.051 160.016 196.252 162.49Z" fill="#8A1BB1"/>
<circle cx="25.7286" cy="94.7286" r="12.7286" fill="#8A1BB1"/>
<circle cx="25.7286" cy="204.272" r="12.7286" fill="#8A1BB1"/>
<path d="M27.2715 95.3071H53.8858L78.3786 117.871H102.1" stroke="#8A1BB1" stroke-width="11.9571"/>
<path d="M27.2715 202.922L53.8858 202.922L78.3786 180.357L102.1 180.357" stroke="#8A1BB1" stroke-width="11.9571"/>
<circle cx="38.4571" cy="134.843" r="9.25714" fill="#8A1BB1"/>
<circle cx="38.4571" cy="161.843" r="9.25714" fill="#8A1BB1"/>
<line x1="38.457" y1="136" x2="96.6999" y2="136" stroke="#8A1BB1" stroke-width="11.5714"/>
<line x1="38.457" y1="160.686" x2="96.6999" y2="160.686" stroke="#8A1BB1" stroke-width="11.5714"/>
<circle cx="12.7286" cy="12.7286" r="12.7286" transform="matrix(-1 0 0 1 286.606 82.0002)" fill="#8A1BB1"/>
<circle cx="12.7286" cy="12.7286" r="12.7286" transform="matrix(-1 0 0 1 286.606 191.543)" fill="#8A1BB1"/>
<path d="M272.335 95.3071H245.72L221.228 117.871H197.506" stroke="#8A1BB1" stroke-width="11.9571"/>
<path d="M272.335 202.922L245.72 202.922L221.228 180.357L197.506 180.357" stroke="#8A1BB1" stroke-width="11.9571"/>
<circle cx="9.25714" cy="9.25714" r="9.25714" transform="matrix(-1 0 0 1 270.406 125.586)" fill="#8A1BB1"/>
<circle cx="9.25714" cy="9.25714" r="9.25714" transform="matrix(-1 0 0 1 270.406 152.586)" fill="#8A1BB1"/>
<line y1="-5.78571" x2="58.2429" y2="-5.78571" transform="matrix(-1 0 0 1 261.149 141.786)" stroke="#8A1BB1" stroke-width="11.5714"/>
<line y1="-5.78571" x2="58.2429" y2="-5.78571" transform="matrix(-1 0 0 1 261.149 166.471)" stroke="#8A1BB1" stroke-width="11.5714"/>
</svg>
