<svg viewBox="0 0 100 100" fill="none" xmlns="http://www.w3.org/2000/svg">
<path d="M72.403 0H27.5958C12.3795 0 0 12.3801 0 27.5964V72.4036C0 87.6205 12.3795 100 27.5958 100H72.403C87.6205 100 100 87.6199 100 72.4036V27.5964C100.001 12.3801 87.6205 0 72.403 0ZM91.1281 72.4036C91.1281 82.7282 82.7282 91.1275 72.4036 91.1275H27.5958C17.2718 91.1281 8.87248 82.7282 8.87248 72.4036V27.5964C8.87248 17.2724 17.2718 8.87248 27.5958 8.87248H72.403C82.7276 8.87248 91.1275 17.2724 91.1275 27.5964V72.4036H91.1281Z" />
<path d="M50 24.2337C35.7916 24.2337 24.2325 35.7928 24.2325 50.0012C24.2325 64.209 35.7916 75.7675 50 75.7675C64.2084 75.7675 75.7675 64.209 75.7675 50.0012C75.7675 35.7928 64.2084 24.2337 50 24.2337ZM50 66.8944C40.6845 66.8944 33.105 59.3161 33.105 50.0006C33.105 40.6845 40.6839 33.1056 50 33.1056C59.3161 33.1056 66.895 40.6845 66.895 50.0006C66.895 59.3161 59.3155 66.8944 50 66.8944Z" />
<path d="M76.8481 16.7104C75.1387 16.7104 73.4594 17.4025 72.2522 18.6151C71.039 19.8217 70.3416 21.5016 70.3416 23.2169C70.3416 24.927 71.0396 26.6062 72.2522 27.8188C73.4588 29.0255 75.1387 29.7234 76.8481 29.7234C78.5635 29.7234 80.2374 29.0255 81.45 27.8188C82.6626 26.6062 83.3546 24.9264 83.3546 23.2169C83.3546 21.5016 82.6626 19.8217 81.45 18.6151C80.2433 17.4025 78.5635 16.7104 76.8481 16.7104Z"/>
</svg>
