<svg width="92" height="107" viewBox="0 0 92 107" fill="none" xmlns="http://www.w3.org/2000/svg">
<g clip-path="url(#clip0_213_1028)">
<path d="M18.6504 79.3356C19.453 78.9786 20.3851 79.3443 20.7389 80.1541C21.0928 80.964 20.7303 81.9044 19.9277 82.2614C18.2793 82.9929 16.5705 83.2541 14.8185 83.0799C13.9382 82.9929 13.0579 82.7926 12.169 82.4878C12.2035 82.8535 12.2466 83.2193 12.2984 83.5763C12.4538 84.7518 12.6609 85.9535 12.9284 87.1812C13.0234 87.6079 12.9371 88.0259 12.7299 88.3655C11.8237 90.2028 11.375 91.7441 11.2887 93.0154C11.2024 94.3477 11.5562 95.3491 12.2553 96.0631C13.0234 96.8555 14.2403 97.3779 15.7765 97.6653C18.2189 98.1268 21.3431 97.9875 24.7434 97.3692C25.9603 97.1515 27.2635 96.8729 28.6185 96.5333C29.8613 96.2198 31.104 95.8715 32.3296 95.471C34.2973 94.8353 36.2219 94.0777 37.9911 93.1982C39.5446 92.4233 40.96 91.5612 42.1423 90.6034C42.8241 90.0548 43.8252 90.168 44.369 90.8559C44.9127 91.5438 44.8005 92.5539 44.1187 93.1025C42.7551 94.1996 41.1412 95.1836 39.3892 96.0631C37.7063 96.899 35.8853 97.6392 34.0211 98.2661C34.0556 99.3285 34.0125 100.391 33.9089 101.462C33.7622 102.942 33.5033 104.396 33.1236 105.816C32.8992 106.669 32.0275 107.174 31.1817 106.948C30.3359 106.721 29.8354 105.842 30.0598 104.988C30.3964 103.708 30.638 102.428 30.7588 101.157C30.8192 100.521 30.8538 99.877 30.8624 99.2327C30.3618 99.372 29.8613 99.5026 29.3693 99.6245C28.0057 99.9641 26.6335 100.26 25.2958 100.495C21.5243 101.174 18.0117 101.331 15.1896 100.791C13.0406 100.382 11.2541 99.5723 10.0027 98.2835C8.67365 96.9251 7.98322 95.1139 8.12994 92.7977C8.2335 91.2216 8.73407 89.4017 9.71793 87.3119C9.49354 86.2408 9.3123 85.1262 9.15695 83.9768C8.98435 82.6707 8.87215 81.3471 8.829 80.0061V79.98C8.82037 79.919 8.80311 79.8581 8.80311 79.7971C8.57009 77.3503 8.5442 74.9644 8.50967 72.5523L8.50104 71.8819L4.7986 71.7425H4.76408C3.78022 71.7164 2.89992 71.429 2.16633 70.9414C1.46727 70.4799 0.906296 69.8443 0.535189 69.078C0.172713 68.3465 -0.017156 67.4932 0.000104747 66.5615C0.0259959 65.2727 0.457516 63.8272 1.39823 62.3469L5.37684 54.1443C7.32731 50.1213 7.31005 49.5902 7.22375 47.4742C7.18922 46.5251 7.13744 45.3147 7.19785 43.4948C7.2669 41.3266 7.50855 39.2542 7.97459 37.3123C8.30254 35.9278 8.75133 34.613 9.32093 33.3765L2.0714 30.1895C1.26877 29.8412 0.906296 28.9007 1.25151 28.0909C1.30329 27.9777 1.35508 27.8819 1.42412 27.7861C18.6849 4.049 38.1896 -2.49047 54.6737 0.792324C64.3052 2.70801 72.8838 7.98487 79.3825 15.16C85.8725 22.3177 90.2827 31.3737 91.5945 40.8564C93.7435 56.4518 87.5382 73.1532 68.4391 84.4557C68.2665 84.5515 68.0939 84.6212 67.9127 84.656C67.9213 87.0332 68.068 89.332 68.3356 91.5699C68.8707 95.9847 69.8977 100.121 71.3476 104.004C71.6583 104.832 71.244 105.746 70.4241 106.06C69.6042 106.373 68.698 105.955 68.3874 105.128C66.8425 100.992 65.7551 96.6117 65.1941 91.9531C64.6331 87.3119 64.59 82.3833 65.1251 77.1239C65.2114 76.2444 65.9881 75.6087 66.8598 75.6958C67.7314 75.7829 68.3615 76.5666 68.2752 77.4461C68.1543 78.6477 68.0594 79.832 67.999 80.9988C84.9059 70.4886 90.4121 55.3808 88.4703 41.2918C87.2534 32.4535 83.1281 23.9983 77.0695 17.3108C71.0024 10.6233 63.0192 5.71216 54.0695 3.92709C39.0526 0.940355 21.2568 6.82675 5.16971 28.0735L12.0654 31.1125C12.1603 31.1473 12.2466 31.1908 12.3416 31.2431C13.0924 31.6959 13.3341 32.6799 12.8767 33.4374C12.0395 34.8394 11.444 36.398 11.047 38.0699C10.6328 39.794 10.4256 41.6488 10.3566 43.5993C10.3048 45.2973 10.3479 46.4554 10.3825 47.3523C10.4947 50.0952 10.5206 50.7918 8.21624 55.5462L4.229 63.775C4.19448 63.8534 4.15133 63.9317 4.10817 64.0101C3.47815 64.9854 3.18472 65.8736 3.17609 66.6224C3.16746 67.023 3.24513 67.38 3.38322 67.6673C3.48678 67.9199 3.66802 68.1288 3.88378 68.2682C4.14269 68.4423 4.47065 68.5381 4.85039 68.5555H4.9108L10.1063 68.7471C10.9434 68.7732 11.6166 69.4611 11.6339 70.3058C11.6511 71.0198 11.6598 71.7686 11.6684 72.5088C11.6943 74.6509 11.7288 76.7843 11.9014 78.9264C13.0147 79.4575 14.0935 79.7884 15.1378 79.8929C16.3374 80.0235 17.5112 79.8407 18.6504 79.3356ZM45.9483 31.1386C46.2763 30.8077 46.6733 30.6423 47.1307 30.6423C47.5795 30.6423 47.9851 30.8164 48.3131 31.1386L50.0995 32.9411C50.5828 32.6276 51.092 32.349 51.6185 32.1139C52.145 31.8613 52.6887 31.6611 53.2324 31.4695V28.7004C53.2324 28.2302 53.3877 27.8384 53.7157 27.5075C54.0436 27.1766 54.432 27.0199 54.898 27.0199H58.3416C58.7731 27.0199 59.1615 27.1766 59.5067 27.5075C59.8346 27.8384 59.9986 28.2302 59.9986 28.7004V31.2344C60.5682 31.3737 61.1292 31.5479 61.6729 31.7481C62.2166 31.9484 62.7258 32.2009 63.2091 32.4709L65.1941 30.5029C65.5048 30.172 65.8759 29.9979 66.3419 29.9979C66.7907 29.9979 67.1791 30.172 67.5243 30.5029L69.9236 32.9411C70.2515 33.272 70.4155 33.6725 70.4155 34.134C70.4155 34.5868 70.2429 34.9961 69.9236 35.327L68.1371 37.1295C68.4478 37.6171 68.7067 38.1309 68.957 38.662C69.2072 39.1932 69.4057 39.7418 69.5956 40.3078H72.3401C72.8061 40.3078 73.1945 40.4645 73.5224 40.7954C73.8504 41.1263 74.0057 41.5182 74.0057 41.9884V45.4627C74.0057 45.8981 73.8504 46.29 73.5224 46.6383C73.1945 46.9692 72.8061 47.1346 72.3401 47.1346H69.8286C69.6905 47.7093 69.5179 48.2753 69.3194 48.8239C69.1209 49.3725 68.8707 49.9037 68.6031 50.4174L70.5536 52.3853C70.8815 52.6988 71.0455 53.0732 71.0455 53.5435C71.0455 53.9963 70.8729 54.3881 70.5536 54.7364L68.1371 57.2094C67.8091 57.5229 67.4121 57.6796 66.9547 57.6796C66.5059 57.6796 66.1003 57.5229 65.7723 57.2094L63.9859 55.3808C63.5025 55.6943 62.9934 55.9555 62.4669 56.208C61.9404 56.4605 61.3967 56.6608 60.853 56.8524V59.6214C60.853 60.0916 60.6977 60.4835 60.3697 60.8144C60.0418 61.1453 59.6534 61.302 59.1874 61.302H55.7525C55.3209 61.302 54.9326 61.1453 54.5874 60.8144C54.2594 60.4835 54.0954 60.0916 54.0954 59.6214V57.0875C53.5258 56.9482 52.9648 56.774 52.4211 56.5737C51.8774 56.3735 51.351 56.1209 50.8418 55.851L48.8913 57.8189C48.5806 58.1498 48.1922 58.324 47.7262 58.324C47.2601 58.324 46.8718 58.1498 46.5611 57.8189L44.1101 55.3808C43.7994 55.0325 43.644 54.6493 43.644 54.1878C43.644 53.735 43.7994 53.3258 44.1101 52.9949L45.9224 51.1924C45.6117 50.7048 45.3442 50.191 45.1025 49.6598C44.8609 49.1287 44.6538 48.5801 44.4639 48.0315H41.7194C41.2534 48.0315 40.865 47.8748 40.5371 47.5439C40.2091 47.213 40.0538 46.8211 40.0538 46.3509V42.8766C40.0538 42.4412 40.2091 42.0493 40.5371 41.701C40.865 41.3701 41.2534 41.2047 41.7194 41.2047H44.2309C44.369 40.6387 44.5416 40.0901 44.7401 39.5328C44.9386 38.9668 45.1889 38.453 45.4564 37.9567L43.5059 35.9539C43.178 35.6405 43.014 35.266 43.014 34.7958C43.014 34.343 43.1866 33.9512 43.5059 33.6029L45.9224 31.1821L45.9483 31.1386ZM26.8924 49.7992C27.1082 49.6424 27.3239 49.5989 27.5742 49.6424C27.8245 49.686 28.023 49.8166 28.1611 50.0343L28.9637 51.175C29.2571 51.0531 29.5506 50.9573 29.8613 50.8615C30.172 50.7831 30.4827 50.7222 30.8106 50.6699L31.0782 49.1722C31.1213 48.9197 31.2508 48.7194 31.4493 48.5801C31.6478 48.4408 31.8808 48.3885 32.1311 48.4233L33.9952 48.7542C34.2282 48.7978 34.4268 48.9284 34.5821 49.1287C34.7202 49.3289 34.7806 49.5641 34.7374 49.8166L34.5044 51.1924C34.7979 51.3143 35.0913 51.471 35.3588 51.6278C35.635 51.8019 35.8853 51.9761 36.1356 52.1589L37.3956 51.2795C37.5941 51.1227 37.8185 51.0792 38.0601 51.1227C38.3104 51.1663 38.4917 51.2969 38.647 51.5146L39.7344 53.0645C39.8898 53.2822 39.9329 53.4999 39.8898 53.7524C39.8466 54.005 39.7172 54.2052 39.5014 54.3446L38.3708 55.1544C38.4917 55.4504 38.5866 55.7465 38.6815 56.06C38.7592 56.3735 38.8196 56.6869 38.8714 57.0178L40.3558 57.2878C40.6061 57.3313 40.8046 57.4619 40.9427 57.6622C41.0808 57.8625 41.1326 58.0976 41.098 58.3501L40.7701 60.231C40.7269 60.4661 40.5975 60.6664 40.399 60.8231C40.2005 60.9624 39.9675 61.0234 39.7172 60.9798L38.3536 60.7447C38.2327 61.0408 38.0774 61.3368 37.9221 61.6068C37.7495 61.8854 37.5768 62.1554 37.3956 62.4079L38.2673 63.6618C38.4226 63.8621 38.4658 64.0798 38.4226 64.3323C38.3795 64.5848 38.25 64.7677 38.0343 64.9244L36.498 66.039C36.2823 66.1783 36.0665 66.2306 35.8162 66.1783C35.566 66.1348 35.3675 66.0042 35.2294 65.8213L34.4267 64.6632C34.1333 64.7851 33.8399 64.8809 33.5292 64.9767C33.2185 65.055 32.9078 65.116 32.5798 65.1682L32.3123 66.6659C32.2691 66.9185 32.1397 67.1187 31.9412 67.2581C31.7427 67.3974 31.5097 67.4496 31.2594 67.4148L29.3952 67.0839C29.1622 67.0404 28.9637 66.9098 28.8084 66.7095C28.6703 66.5092 28.6099 66.2741 28.653 66.0216L28.886 64.6458C28.5926 64.5238 28.2992 64.3671 28.0316 64.2104C27.7555 64.0362 27.4879 63.8621 27.2376 63.6792L25.9949 64.5587C25.7964 64.7154 25.572 64.759 25.3131 64.7154C25.0628 64.6719 24.8643 64.5413 24.7262 64.341L23.6215 62.791C23.4834 62.5733 23.4316 62.3556 23.4834 62.1031C23.5266 61.8506 23.6388 61.6503 23.8373 61.511L25.0024 60.7012C24.8815 60.4051 24.7866 60.1091 24.6917 59.7956C24.614 59.4821 24.5536 59.1686 24.5018 58.8377L23.0174 58.5678C22.7671 58.5243 22.5686 58.3936 22.4305 58.1934C22.2924 57.9931 22.2406 57.758 22.2752 57.5055L22.6031 55.6246C22.6463 55.3895 22.7757 55.1892 22.9742 55.0325C23.1727 54.8757 23.4057 54.8322 23.656 54.8757L25.0196 55.1108C25.1404 54.8148 25.2872 54.5361 25.4511 54.2488C25.6237 53.9701 25.7964 53.7002 25.9776 53.4651L25.1059 52.1938C24.9506 51.9935 24.9074 51.7671 24.9506 51.5233C24.9937 51.2708 25.1232 51.0879 25.3389 50.9312L26.8752 49.834L26.8924 49.7992ZM32.2605 54.5884C31.8117 54.51 31.3802 54.5274 30.9401 54.6232C30.5085 54.7364 30.1202 54.9019 29.775 55.137C29.4298 55.3895 29.1363 55.703 28.8947 56.0774C28.6444 56.4518 28.489 56.8785 28.4114 57.3313C28.3337 57.7841 28.351 58.2195 28.4459 58.6636C28.5581 59.099 28.7221 59.4908 28.9551 59.8391C29.2054 60.1874 29.5161 60.4835 29.8872 60.7273C30.2583 60.9798 30.6812 61.1366 31.1299 61.2149C31.5787 61.2933 32.0102 61.2759 32.4504 61.1801C32.8819 61.0669 33.2703 60.9015 33.6155 60.6663C33.9607 60.4138 34.2541 60.1003 34.4958 59.7259C34.7461 59.3515 34.9014 58.9248 34.9791 58.472C35.0568 58.0192 35.0395 57.5838 34.9446 57.1397C34.8324 56.7044 34.6684 56.3125 34.4354 55.9642C34.1851 55.6246 33.8744 55.3198 33.5033 55.076C33.1236 54.8235 32.7093 54.6668 32.2605 54.5884ZM57.0384 37.3123C56.1063 37.3123 55.2433 37.4865 54.4061 37.8435C53.5862 38.2005 52.8699 38.6882 52.2485 39.2977C51.6444 39.9072 51.1611 40.6474 50.8072 41.4746C50.4534 42.3193 50.2808 43.1987 50.2808 44.1305C50.2808 45.0709 50.4534 45.9417 50.8072 46.7863C51.1611 47.6135 51.6444 48.3363 52.2485 48.9632C52.8526 49.5728 53.5862 50.0604 54.4061 50.4174C55.226 50.7744 56.1149 50.9486 57.0384 50.9486C57.9705 50.9486 58.8335 50.7744 59.6707 50.4174C60.4905 50.0604 61.2069 49.5728 61.8283 48.9632C62.4324 48.3537 62.9157 47.6222 63.2695 46.7863C63.6234 45.9591 63.796 45.0622 63.796 44.1305C63.796 43.19 63.6234 42.3193 63.2695 41.4746C62.9157 40.6474 62.4324 39.9246 61.8283 39.2977C61.2241 38.6882 60.4905 38.2005 59.6707 37.8435C58.8335 37.4865 57.9705 37.3123 57.0384 37.3123Z" fill="#7721AD"/>
</g>
<defs>
<clipPath id="clip0_213_1028">
<rect width="92" height="107" fill="white"/>
</clipPath>
</defs>
</svg>
