<svg width="21" height="24" viewBox="0 0 21 24" fill="none" xmlns="http://www.w3.org/2000/svg">
<path d="M12.4519 19.0098C11.9765 18.9722 11.501 18.9722 11.0443 18.9722H10.6959C10.3758 18.9722 9.99921 19.0993 9.99921 19.7066V23.2797C9.99921 23.7129 10.2534 23.9953 10.6489 23.9953C11.0208 23.9953 11.2562 23.7364 11.2797 23.3033C11.2891 23.1197 11.2891 22.9172 11.2797 22.7195V22.5877C11.3597 22.5877 11.4398 22.5924 11.5198 22.5971H11.5245C11.8258 22.6065 12.1365 22.616 12.4519 22.5877C13.3511 22.5171 14.0479 21.7497 14.0667 20.8082C14.0855 19.8713 13.3794 19.0804 12.4519 19.0098ZM12.7674 20.8035C12.7532 21.0577 12.5696 21.2695 12.3625 21.279C12.0894 21.2884 11.8211 21.2884 11.5339 21.279H11.2938V20.2997C11.3597 20.2997 11.4256 20.295 11.4916 20.2903C11.8917 20.2809 12.1789 20.2856 12.4425 20.3092C12.6355 20.3468 12.7815 20.6105 12.7674 20.8035Z" stroke="none" fill="current"/>
<path d="M9.07176 22.9125C8.98703 22.696 8.90699 22.4747 8.82226 22.2534C8.69985 21.9239 8.57275 21.5849 8.45034 21.2648C8.22437 20.6387 8.01723 20.0926 7.82422 19.6077C7.64061 19.0898 7.48055 18.9816 6.92504 18.9816C6.32245 18.9816 6.1671 19.0898 5.99762 19.6218C5.69632 20.3939 5.41386 21.1707 5.14552 21.8909L4.91955 22.4982C4.90072 22.5547 4.87718 22.6159 4.85364 22.6724C4.79715 22.8231 4.73595 22.9831 4.68887 23.1338C4.57588 23.4822 4.72653 23.8164 5.05607 23.9435C5.12669 23.9718 5.21613 24 5.30558 24C5.55509 24 5.77635 23.8447 5.89876 23.5763C5.96937 23.4162 6.01174 23.2938 6.03999 23.1856C6.06353 23.082 6.06823 23.0679 6.20476 23.082H6.21417C6.46368 23.0914 6.72732 23.0914 6.97682 23.082H7.34403C7.51351 23.082 7.67357 23.082 7.71123 23.1055C7.7536 23.1338 7.81009 23.2844 7.86659 23.4257L7.876 23.4586C7.88071 23.468 7.88542 23.4822 7.89012 23.4916C7.90425 23.5292 7.91837 23.581 7.95603 23.6281C8.07843 23.8635 8.3044 24 8.5445 24C8.61982 24 8.69515 23.9859 8.77047 23.9623L8.77518 23.9576C9.08589 23.8258 9.22241 23.5575 9.16121 23.2091C9.1518 23.0961 9.11413 23.002 9.07176 22.9125ZM6.59079 21.745C6.63787 21.6273 6.68024 21.5049 6.72732 21.3872C6.79322 21.2177 6.85913 21.0436 6.92975 20.86C6.94387 20.8929 6.95799 20.9259 6.96741 20.9635C7.02861 21.1236 7.08981 21.2789 7.1463 21.4343C7.18397 21.5379 7.22633 21.6414 7.264 21.745H6.59079Z" stroke="none" fill="current"/>
<path d="M15.4884 18.991C15.1495 18.991 14.9282 19.1887 14.8811 19.5371C14.8623 19.6406 14.8623 19.7442 14.8623 19.829V23.1479C14.8623 23.2468 14.8623 23.355 14.8811 23.468C14.9282 23.774 15.1306 23.9623 15.4461 23.9859H15.512C15.7991 23.9859 16.0157 23.8258 16.1099 23.5434C16.1522 23.4021 16.1522 23.2703 16.1522 23.1385V21.5002C16.1522 20.9494 16.1522 20.4268 16.1805 19.8713V19.8666C16.1805 19.7348 16.1616 19.6171 16.1381 19.5041C16.0722 19.1699 15.8133 18.9721 15.4884 18.991Z" stroke="none" fill="current"/>
<path d="M20.3892 15.6391C20.3892 15.6391 20.3845 15.6391 20.3892 15.6391C20.2715 15.6014 20.1538 15.6014 20.0643 15.5967H20.0596C19.4759 15.5967 18.8921 15.5967 18.3084 15.5967H17.7481C17.7199 15.5967 17.6964 15.5826 17.6822 15.559C17.5269 15.2577 17.2962 15.0271 16.9949 14.867C16.9714 14.8529 16.9572 14.8293 16.9572 14.8058V14.1656C16.9572 14.1467 16.9667 14.1279 16.9761 14.1138C16.9902 14.0996 17.009 14.0949 17.0279 14.0949H17.508C18.2848 14.0949 19.3864 14.0949 19.8525 14.0949C20.3798 14.0949 20.6434 13.8313 20.6434 13.3135C20.6434 9.13299 20.6434 4.95724 20.6434 0.776775C20.6434 0.268341 20.375 0 19.8619 0C18.1907 0 14.3303 0 12.6732 0C12.1459 0 11.8776 0.263633 11.8776 0.786191C11.8776 5.0561 11.8776 9.27423 11.8776 13.3229C11.8776 13.8266 12.1506 14.0949 12.6638 14.0949C12.9792 14.0949 13.5724 14.0949 14.1703 14.0949H14.3821C14.8152 14.0949 15.2295 14.0949 15.5214 14.0949C15.559 14.0949 15.592 14.1279 15.592 14.1656C15.592 14.368 15.592 14.5893 15.5873 14.8011C15.5873 14.8293 15.5732 14.8529 15.5496 14.8623C15.2483 15.0224 15.0129 15.253 14.8529 15.559C14.8388 15.5826 14.8152 15.5967 14.7917 15.5967C12.9745 15.6014 7.80541 15.6014 6.05414 15.5967C6.02589 15.5967 6.00235 15.5826 5.99294 15.559C5.82817 15.253 5.59278 15.0177 5.3009 14.867C5.27736 14.8529 5.26324 14.8293 5.26324 14.8058C5.26324 14.6034 5.25853 14.4057 5.26324 14.1656C5.26324 14.1279 5.29619 14.0949 5.33386 14.0949H6.49667C7.14162 14.0949 7.796 14.0949 8.14908 14.0949C8.7093 14.0949 8.96822 13.8407 8.96822 13.2899C8.96822 9.12358 8.96822 4.96195 8.96822 0.795606C8.96822 0.268341 8.69517 0 8.1632 0C6.52962 0 2.65045 0 1.01687 0C0.461357 0 0.202432 0.254217 0.202432 0.805022C0.202432 2.00549 0.202432 3.20126 0.202432 4.40173V5.68694V8.02197C0.202432 9.77324 0.202432 11.5292 0.202432 13.2805C0.202432 13.8454 0.45665 14.0949 1.02628 14.0949C1.2193 14.0949 1.80777 14.0949 2.32091 14.0949H3.82738C3.86505 14.0949 3.898 14.1279 3.898 14.1656C3.898 14.3774 3.898 14.6034 3.89329 14.8246C3.89329 14.8435 3.88388 14.867 3.86975 14.8764C3.81797 14.9235 3.75677 14.9706 3.69557 15.0177C3.5308 15.1401 3.3472 15.2813 3.2295 15.4884C3.19655 15.5449 3.17301 15.5779 3.15889 15.592C3.14476 15.6061 3.12593 15.6108 3.11181 15.6155C3.09298 15.6155 3.06944 15.6155 3.0459 15.6108C2.97999 15.6014 2.91879 15.6014 2.87171 15.6061L2.8623 15.5355L2.86701 15.6061C2.85288 15.6061 2.84347 15.6061 2.82934 15.6061H2.22205C1.73244 15.6061 1.23813 15.6061 0.748529 15.6061C0.522558 15.6061 0.324833 15.6814 0.188309 15.8227C0.0659082 15.9451 0 16.1146 0 16.2934C0.00470773 16.6842 0.31071 16.9619 0.748529 16.9667C0.795606 16.9667 0.847391 16.9667 0.894468 16.9667H3.11181C3.14006 16.9667 3.16359 16.9808 3.17772 17.0043C3.4696 17.5692 3.95449 17.8705 4.58062 17.8752H4.59474C5.21146 17.8752 5.70106 17.574 6.00706 17.009C6.02118 16.9855 6.04472 16.9714 6.06826 16.9714C7.08042 16.9667 9.29306 16.9667 11.2421 16.9667C12.7015 16.9667 14.062 16.9667 14.8058 16.9667C14.8341 16.9667 14.8576 16.9808 14.8717 17.0043C15.1542 17.5645 15.6532 17.8752 16.2699 17.8752H16.2793C16.9055 17.8752 17.4045 17.5645 17.6869 17.0043C17.7011 16.9808 17.7246 16.9619 17.7528 16.9667C18.0588 16.9714 18.3743 16.9667 18.652 16.9667H18.9816H19.3111C19.6218 16.9667 19.8996 16.9667 20.182 16.9619C20.5445 16.9572 20.827 16.6983 20.8552 16.3499C20.8741 16.011 20.6952 15.7426 20.3892 15.6391ZM1.63829 12.7203C1.60063 12.7203 1.56767 12.6873 1.56767 12.6497V1.44057C1.56767 1.4029 1.60063 1.36995 1.63829 1.36995H7.50883C7.54649 1.36995 7.57944 1.4029 7.57944 1.44057V12.6497C7.57944 12.6873 7.54649 12.7203 7.50883 12.7203H1.63829ZM4.57591 16.51C4.49117 16.51 4.43468 16.4629 4.41585 16.4441C4.3876 16.4159 4.34523 16.3594 4.34523 16.2746C4.34523 16.1475 4.4488 16.0439 4.5712 16.0439C4.6277 16.0439 4.6889 16.0722 4.73597 16.1146C4.78305 16.1616 4.80659 16.2181 4.80659 16.2793C4.80659 16.397 4.6936 16.51 4.57591 16.51ZM13.3276 12.7156C13.2899 12.7156 13.257 12.6826 13.257 12.645V1.43586C13.257 1.3982 13.2899 1.36524 13.3276 1.36524H19.2028C19.2405 1.36524 19.2734 1.3982 19.2734 1.43586V12.645C19.2734 12.6826 19.2405 12.7156 19.2028 12.7156H13.3276ZM16.4253 16.4441C16.4017 16.4676 16.3452 16.51 16.2699 16.51C16.1475 16.51 16.0345 16.397 16.0345 16.2793C16.0345 16.2228 16.0581 16.1616 16.1051 16.1146C16.1522 16.0675 16.2087 16.0439 16.2699 16.0439C16.397 16.0439 16.4959 16.1475 16.5006 16.2746C16.4959 16.3594 16.4535 16.4159 16.4253 16.4441Z" stroke="none" fill="current"/>
<path d="M16.2699 8.13965H16.2605C15.2624 8.14436 14.4527 8.9635 14.4574 9.96625C14.4574 10.4511 14.6504 10.9078 14.9941 11.2467C15.3331 11.5857 15.7897 11.7693 16.2746 11.7693H16.284C16.7689 11.7693 17.2256 11.5763 17.5692 11.2279C17.9129 10.8843 18.0965 10.4276 18.0965 9.94271C18.0918 9.46252 17.8988 9.00587 17.5551 8.66221C17.1973 8.32796 16.7454 8.13965 16.2699 8.13965ZM16.2652 10.4135C16.0063 10.4088 15.8132 10.2158 15.8132 9.95683C15.8132 9.70732 16.0157 9.50018 16.2652 9.50018C16.3829 9.50018 16.5053 9.55197 16.5947 9.64141C16.6795 9.73086 16.7313 9.84855 16.7265 9.96625C16.7218 10.2158 16.5194 10.4135 16.2652 10.4135Z" stroke="none" fill="current"/>
<path d="M15.1777 3.6673C15.8509 3.672 16.5571 3.672 17.348 3.6673C17.5693 3.6673 17.767 3.58726 17.9035 3.44603C18.0259 3.31892 18.0918 3.14945 18.0871 2.96584C18.0777 2.58452 17.7717 2.31147 17.3527 2.30676C17.1079 2.30676 16.8584 2.30676 16.6042 2.30676C16.3876 2.30676 16.1758 2.30676 15.9592 2.30676C15.8556 2.30676 15.7474 2.30676 15.6391 2.30676C15.4884 2.30676 15.3331 2.30676 15.1824 2.30676C14.7587 2.31147 14.4622 2.58923 14.4622 2.97997C14.4574 3.38483 14.754 3.66259 15.1777 3.6673Z" stroke="none" fill="current"/>
<path d="M15.1683 5.47038C15.3001 5.47509 15.4413 5.47509 15.6108 5.47509C15.7191 5.47509 15.8274 5.47509 15.9309 5.47509H15.9639C16.0627 5.47509 16.1663 5.47509 16.2652 5.47509H16.4347H16.6041C16.8584 5.47509 17.122 5.4798 17.3856 5.47038C17.7858 5.46097 18.0871 5.16438 18.0777 4.77834C18.0682 4.39702 17.7717 4.11926 17.3668 4.11926C16.9525 4.11926 16.5335 4.11926 16.1192 4.11926C15.7991 4.11926 15.479 4.11926 15.1589 4.11926C14.8246 4.11926 14.5798 4.28874 14.481 4.58533C14.415 4.79247 14.4433 5.00432 14.5657 5.17379C14.6975 5.3574 14.9188 5.46567 15.1683 5.47038Z" stroke="none" fill="current"/>
<path d="M16.6183 5.9129H16.5947C16.4911 5.9129 16.3876 5.9129 16.284 5.9129C16.2134 5.9129 16.1475 5.9129 16.0769 5.9129H15.9545C15.8462 5.9129 15.7379 5.9129 15.6296 5.9129C15.4884 5.9129 15.3425 5.9129 15.2012 5.9129C14.7446 5.91761 14.4574 6.17183 14.4527 6.5814C14.4527 6.76971 14.5139 6.93448 14.6363 7.06159C14.7305 7.15574 14.8999 7.26873 15.1918 7.27344C15.5496 7.27344 15.9121 7.27814 16.2652 7.27814C16.623 7.27814 16.9855 7.27814 17.3385 7.27344C17.5645 7.27344 17.7622 7.1934 17.894 7.05688C18.0164 6.92977 18.0824 6.765 18.0776 6.5814C18.0682 6.18595 17.7669 5.92232 17.3244 5.91761C17.0937 5.9129 16.8489 5.9129 16.6183 5.9129Z" stroke="none" fill="current"/>
<path d="M4.57121 8.13965C3.56847 8.13965 2.75403 8.95879 2.75403 9.96154C2.75403 10.4464 2.94234 10.8984 3.286 11.242C3.62967 11.5857 4.08632 11.774 4.57121 11.774H4.57592C5.57396 11.774 6.38839 10.9596 6.38839 9.95683C6.38839 9.47194 6.20009 9.01529 5.85642 8.67162C5.51276 8.32796 5.05611 8.13965 4.57121 8.13965ZM4.57592 10.4135C4.3217 10.4135 4.11927 10.211 4.11456 9.96154C4.11456 9.84385 4.16164 9.72615 4.25109 9.63671C4.34053 9.54726 4.45352 9.50018 4.57121 9.50018H4.57592C4.82543 9.50489 5.02786 9.71203 5.02786 9.96154C5.02786 10.2205 4.83014 10.4135 4.57592 10.4135Z" stroke="none" fill="current"/>
<path d="M3.47429 3.66731C4.17575 3.67201 4.89132 3.67201 5.66339 3.66731C6.08238 3.66731 6.38367 3.38013 6.38367 2.98468C6.38367 2.58453 6.09179 2.31619 5.66339 2.31148C5.40446 2.30677 5.14554 2.31148 4.89132 2.31148H4.88661C4.76421 2.31148 4.64181 2.31148 4.51941 2.31148C4.43938 2.31148 4.35935 2.31148 4.27461 2.31148H4.19928C3.95919 2.31148 3.71439 2.31148 3.46959 2.31148C3.06472 2.31619 2.76814 2.59394 2.75872 2.97056C2.75401 3.15416 2.81992 3.32364 2.94232 3.45546C3.07414 3.58727 3.26245 3.6626 3.47429 3.66731Z" stroke="none" fill="current"/>
<path d="M4.91958 4.11456H4.59004H4.26992C4.16164 4.11456 4.04865 4.11456 3.93567 4.11456C3.78973 4.11456 3.64379 4.11456 3.49785 4.11456C3.07415 4.11927 2.77286 4.38761 2.75874 4.76894C2.75403 4.95254 2.81523 5.12202 2.94234 5.25383C3.07886 5.39507 3.27659 5.4751 3.49785 5.4751C4.23696 5.4798 4.97137 5.4798 5.66811 5.4751C6.09181 5.47039 6.38839 5.19263 6.3931 4.79248C6.3931 4.39703 6.09652 4.11927 5.67282 4.11456C5.41389 4.11456 5.16439 4.11456 4.91958 4.11456Z" stroke="none" fill="current"/>
<path d="M3.49785 7.27344C4.21342 7.27814 4.94312 7.27814 5.64457 7.27344C5.93175 7.27344 6.10593 7.15574 6.20009 7.06159C6.32249 6.93919 6.38369 6.76971 6.38369 6.5814C6.37898 6.17654 6.09181 5.91761 5.63516 5.9129C5.38094 5.9129 5.12202 5.9129 4.89604 5.9129H4.8678C4.77364 5.9129 4.67949 5.9129 4.58063 5.9129C4.5053 5.9129 4.42998 5.9129 4.35466 5.9129H4.23226C4.1381 5.9129 4.03924 5.9129 3.94038 5.9129C3.79444 5.9129 3.6532 5.9129 3.50726 5.9129C3.06945 5.91761 2.75874 6.19066 2.75403 6.5814C2.75403 6.765 2.81523 6.92977 2.93763 7.05688C3.07415 7.19811 3.27659 7.27344 3.49785 7.27344Z" stroke="none" fill="current"/>
</svg>
