<?xml version="1.0" encoding="UTF-8" standalone="no"?> <svg id="Layer_1" data-name="Layer 1" xmlns="http://www.w3.org/2000/svg" viewBox="0 0 24 24"><title>Search, Product</title><path d="M21.47,5H17.91A6,6,0,0,0,6.09,5H2.53A2.53,2.53,0,0,0,0,7.53V21.47A2.53,2.53,0,0,0,2.53,24H18a1,1,0,0,0,0-2H2.53A.53.53,0,0,1,2,21.47V7.53A.53.53,0,0,1,2.53,7H21.47a.53.53,0,0,1,.53.53V18a1,1,0,0,0,2,0V7.53A2.53,2.53,0,0,0,21.47,5ZM12,2a4,4,0,0,1,3.86,3H8.14A4,4,0,0,1,12,2Z"/><path d="M20.3,18.89A4.46,4.46,0,0,0,21,16.5,4.5,4.5,0,1,0,16.5,21a4.46,4.46,0,0,0,2.39-.7l2.4,2.41a1,1,0,0,0,1.42,0,1,1,0,0,0,0-1.42ZM14,16.5A2.5,2.5,0,1,1,16.5,19,2.5,2.5,0,0,1,14,16.5Z"/></svg>