<?xml version="1.0" encoding="UTF-8"?>
<svg  data-name="Capa 1" xmlns="http://www.w3.org/2000/svg" xmlns:xlink="http://www.w3.org/1999/xlink" viewBox="200 310 1500 450">
  <defs>
    <linearGradient id="Degradado_sin_nombre_10" data-name="Degradado sin nombre 10" x1="1191.9" y1="673.2" x2="1421.6" y2="673.2" gradientUnits="userSpaceOnUse">
      <stop offset="0" stop-color="#FFFFFF"/>
      <stop offset=".5" stop-color="#FFFFFF"/>
      <stop offset="1" stop-color="#FFFFFF"/>
    </linearGradient>
    <linearGradient id="Degradado_sin_nombre_10-2" data-name="Degradado sin nombre 10" x1="1183.4" y1="533.5" x2="1676.4" y2="533.5" xlink:href="#Degradado_sin_nombre_10"/>
  </defs>
  <path style="stroke-width: 0px; fill: #FFFFFF;" d="m747.9,646.4h-69.2v-225.7h69.2v37.6c15.8-23.9,40.4-40,70.8-40v73.2h-19c-32.8,0-51.8,11.3-51.8,50.1v104.7Z"/>
  <path style="stroke-width: 0px; fill: #FFFFFF;" d="m312.7,362.5v230.5h90.6v53.4h-159.7v-283.9h69.2Z"/>
  <path style="stroke-width: 0px; fill: #FFFFFF;" d="m506,417.5c33.6,0,57.4,15.4,69.6,35.2v-31.9h69.2v225.7h-69.2v-31.9c-12.5,19.8-36.4,35.2-70,35.2-55,0-99.1-45.3-99.1-116.5s44.1-115.7,99.5-115.7Zm20.2,60.3c-25.9,0-49.3,19.4-49.3,55.4s23.5,56.2,49.3,56.2,49.3-19.8,49.3-55.8-23.1-55.8-49.3-55.8Z"/>
  <path style="stroke-width: 0px; fill: #FFFFFF;" d="m921.4,417.5c33.6,0,57.4,15.4,69.6,35.2v-31.9h69.2v225.7h-69.2v-31.9c-12.5,19.8-36.4,35.2-70,35.2-55,0-99.1-45.3-99.1-116.5s44.1-115.7,99.5-115.7Zm20.2,60.3c-25.9,0-49.3,19.4-49.3,55.4s23.5,56.2,49.3,56.2,49.3-19.8,49.3-55.8-23.1-55.8-49.3-55.8Z"/>
  <path style="stroke-width: 0px; fill: #FFFFFF;" d="m1087.6,360c0-21,16.6-37.6,41.3-37.6s40.8,16.6,40.8,37.6-16.6,37.2-40.8,37.2-41.3-16.6-41.3-37.2Zm6.5,60.7h69.2v225.7h-69.2v-225.7Z"/>
  <path style="stroke-width: 0px; fill: url(#Degradado_sin_nombre_10)" d="m1352.5,633.3v12.6c0,38-20.6,51.8-46.9,51.8s-40.8-10.9-45.3-27.9h-68.4c6.1,53.8,49.8,87.8,116.9,87.8s112.8-51.4,112.8-111.6v-57.1l-69.2,44.5Z"/>
  <path style="stroke-width: 0px; fill: url(#Degradado_sin_nombre_10-2)" d="m1676.4,533.5c0,71.6-51.8,116.1-118.1,116.1s-96.3-28.8-111-77.3l64.9-41.8c0,1,0,2,0,3,0,38,21,56.2,46.1,56.2s47.7-18.2,47.7-56.2-17.8-51.9-38.7-55.5c-2.7-.5-5.4-.7-8.2-.7s-6.1.3-9,.8c-16.9,3.1-31.1,15.2-36,37.3l-69.7,44.9-22.7,14.6-69.2,44.5v-5.4c-2.4,3.7-5.1,7.3-8.3,10.7-3.5,3.7-7.4,7.1-11.7,10.1-12.8,9-29.5,14.7-49.5,14.7-55.4,0-99.5-45.3-99.5-116.5s44.1-115.7,99.5-115.7,57.4,15,69.6,35.2v-31.9h69.2v50l-77.6,53.1c-3.2-34.9-27.3-54-54.5-54s-55,21.6-55,61.7,26.1,62.6,55,62.6,32.8-7.4,43-21.5c6.5-8.9,10.8-20.5,11.7-34.6h0c0,0,77.4-53.1,77.4-53.1l57.4-39.3c.8-.7,1.6-1.3,2.4-2,.6-.5,1.2-1,1.9-1.5.4-.3.8-.6,1.2-.9,1.4-1.1,2.9-2.2,4.4-3.2.9-.6,1.7-1.2,2.6-1.7,1.8-1.1,3.6-2.2,5.4-3.2.9-.5,1.8-1,2.8-1.5h0c0,0,0,0,0,0,1.4-.7,2.7-1.4,4.1-2.1h0c1.4-.7,2.8-1.3,4.2-1.9,1-.4,2.1-.9,3.1-1.3,14.5-5.7,30.7-8.7,47.8-8.7,66.3,0,117.3,44.5,117.3,116.1Z"/>
  <path style="stroke-width: 0px; " d="m1352.5,614v5.4l-8.3,5.3c3.1-3.4,5.9-7,8.3-10.7Z"/>
  <path style="stroke-width: 0px; " d="m1352.5,614v5.4l-8.3,5.3c3.1-3.4,5.9-7,8.3-10.7Z"/>
</svg>