<?xml version="1.0" encoding="utf-8"?>
<!-- Generator: Adobe Illustrator 23.0.5, SVG Export Plug-In . SVG Version: 6.00 Build 0)  -->
<svg version="1.1" id="Bold" xmlns="http://www.w3.org/2000/svg" xmlns:xlink="http://www.w3.org/1999/xlink" x="0px" y="0px"
	 viewBox="0 0 512 512" style="enable-background:new 0 0 512 512;" xml:space="preserve">
<g>
	<path d="M465.2,264c-1-7.8-0.2-15.8-0.2-23.5c-139.9,0-279,0-418.4,0c0,11,0.2,21.7-0.1,32.3c-0.1,3.8,1.3,5.9,4.3,8
		c47.1,32.8,94.1,65.8,141.2,98.6c3.1,2.2,4.1,4.4,4.1,8.1c-0.1,41.2-0.1,82.3-0.1,123.5c0.7,0,1.3,0,2,0c1.3-0.7,2.5-1.5,3.8-1.9
		c22.9-7.7,45.9-15.3,68.8-23c14.9-5,29.8-10,44.9-15c0-2.1,0-3.9,0-5.7c0-26.1,0.1-52.1-0.1-78.2c0-3.5,1-5.6,4-7.7
		c44.8-31.2,89.3-62.8,134.4-93.6C462.3,280.1,466.5,274.4,465.2,264z"/>
	<path d="M228.5,164.8c-15.7-26-39-40.3-70.1-44.3c1.8-0.6,2.2-0.8,2.7-0.9c25.2-5,41.5-19.9,48.1-44.6c6.2-23-2.9-47.5-21.8-61.9
		c-8.7-6.6-18.6-9.8-29.1-12.1c-4.6,0-9.3,0-13.9,0c-0.9,0.3-1.8,0.7-2.8,0.9c-39.1,6.5-61.3,48.6-44.2,84.3
		c9.2,19.2,24.8,30,45.6,34.2c-22.8,2.9-42.3,12.3-57.7,29.2c-15.5,16.9-23.2,37-23.6,60.3c59.9,0,119.4,0,179.3,0
		C240.8,193.6,236.8,178.5,228.5,164.8z"/>
	<path d="M437.7,164.8c-15.7-26-39-40.3-70.1-44.3c1.8-0.6,2.2-0.8,2.7-0.9c25.2-5,41.5-19.9,48.1-44.6c6.2-23-2.9-47.5-21.8-61.9
		c-8.7-6.6-18.6-9.8-29.1-12.1c-4.6,0-9.3,0-13.9,0c-0.9,0.3-1.8,0.7-2.8,0.9c-39.1,6.5-61.3,48.6-44.2,84.3
		c9.2,19.2,24.8,30,45.6,34.2c-22.7,3-42.3,12.3-57.7,29.2c-15.5,16.9-23.2,37-23.6,60.3c59.9,0,119.4,0,179.3,0
		C449.9,193.6,445.9,178.5,437.7,164.8z"/>
</g>
</svg>
