<svg id="Layer_1" data-name="Layer 1" xmlns="http://www.w3.org/2000/svg" viewBox="0 0 50 50"><defs><style>.cls-1{fill:none;}</style></defs><title>lista-pedidos</title><path d="M41.82,36.34C41.84,28,41,14.06,41,5.75a1.46,1.46,0,0,0,0-.31,1,1,0,0,0-1-1.15c-9.14.24-20.15-.11-29.29-.13a1,1,0,0,0-1,1.25,1,1,0,0,0,0,.34c.13,10.91.51,27.52.52,38.44,0,.24-.07,2.1,1.26,2.85,5.47-.13,13.83-.37,19.42-.51h.55a1,1,0,0,0,.54-.16c4.6-.41,9.83-4.16,10-9.45A1,1,0,0,0,41.82,36.34Zm-7.1-1.56a1.33,1.33,0,0,0-.3.06,1,1,0,0,0-1,1.28,5.37,5.37,0,0,1,0,4.74c-1.08,1.79-3,1.74-4.82,2a32.74,32.74,0,0,1-3.43.1c-.88,0-11,.3-11,.34,0-10.51-.41-24.62-.56-35.12,8.45,0,15,.32,23.47.14,0,7.73.73,19.26.78,27A6.68,6.68,0,0,0,34.72,34.78ZM35.25,42a7,7,0,0,0,.62-5.14,8.56,8.56,0,0,1,3,.64s0,0,0,0A5.51,5.51,0,0,1,35.25,42Z"/><path d="M17.14,22.23A1.71,1.71,0,0,0,17,18.81,1.71,1.71,0,0,0,17.14,22.23Z"/><path d="M21.76,22.23l11.66-.17c1.8,0,1.75-3.46,0-3.43l-11.67.17C19.92,18.82,20,22.25,21.76,22.23Z"/><path d="M16.91,15.37A1.71,1.71,0,0,0,16.74,12,1.71,1.71,0,0,0,16.91,15.37Z"/><path d="M32.78,15.11c1.79,0,1.74-3.46-.05-3.43l-11.66.17c-1.79,0-1.74,3.45.05,3.43Z"/><path d="M17.44,29.28a1.72,1.72,0,0,0-.16-3.43A1.72,1.72,0,0,0,17.44,29.28Z"/><path d="M33.84,25.61l-12,.18c-1.74,0-1.69,3.45.05,3.43l12-.18C35.63,29,35.58,25.59,33.84,25.61Z"/><path d="M17.64,32.71a1.71,1.71,0,0,0,.16,3.42A1.71,1.71,0,0,0,17.64,32.71Z"/><path d="M30.77,32.79c-2.19,0-6.29.08-8.49,0-1.23-.06-1.18,3.2,0,3.27,2.2.12,6.29.07,8.49,0C32.05,36,32,32.78,30.77,32.79Z"/><rect class="cls-1" width="50" height="50"/></svg>