<svg width="943" height="756" viewBox="0 0 943 756" fill="none" xmlns="http://www.w3.org/2000/svg">
<path d="M514.71 144.383C524.899 157.188 537.86 191.721 537.86 218.319C537.875 241.468 531.686 264.197 519.937 284.143C508.187 304.088 491.307 320.52 471.053 331.729C450.799 342.938 427.911 348.514 404.771 347.877C381.631 347.239 359.085 340.412 339.479 328.105C362.114 356.004 392.828 376.217 427.406 385.971C461.983 395.724 498.732 394.541 532.611 382.583C566.489 370.625 595.839 348.479 616.633 319.181C637.427 289.883 648.647 254.87 648.755 218.943C648.572 190.454 637.135 163.192 616.936 143.101C596.738 123.01 569.416 111.718 540.927 111.686C518.401 111.686 509.408 115.429 493.276 124.647C501.351 128.061 508.767 136.395 514.71 144.383Z" fill="#7721AD"/>
<path d="M435.508 294.074C425.319 281.287 412.358 246.753 412.358 220.138C412.351 196.991 418.546 174.265 430.3 154.324C442.054 134.384 458.937 117.957 479.192 106.754C499.447 95.5508 522.334 89.9804 545.472 90.6223C568.611 91.2642 591.154 98.095 610.757 110.404C588.121 82.5046 557.408 62.2919 522.83 52.5382C488.252 42.7846 451.504 43.9679 417.625 55.9257C383.746 67.8836 354.397 90.0303 333.603 119.328C312.809 148.626 301.588 183.64 301.48 219.566C301.659 248.058 313.094 275.324 333.293 295.419C353.492 315.514 380.816 326.809 409.309 326.84C431.834 326.84 441.451 323.912 457.583 315.837C451.813 312.389 441.434 302.01 435.508 294.074Z" fill="#7721AD"/>
<path d="M478.689 136.014C456.25 152.713 441.176 177.478 436.65 205.08C432.124 232.683 438.499 260.964 454.431 283.955C454.431 283.955 468.656 304.28 473.872 308.404C496.637 291.817 512.006 266.979 516.692 239.205C521.378 211.43 515.008 182.925 498.945 159.787C498.945 159.787 484.043 140.294 478.689 136.014Z" fill="#7721AD"/>
<path d="M101 503H120.38V581.112H176V598H101.07L101 503Z" fill="#7721AD"/>
<path d="M236.618 503H257.034L303 598H282.757L275.15 582.023H219.659L212.295 598H192L236.618 503ZM267.562 566.097L247.007 522.915L227.006 566.097H267.562Z" fill="#7721AD"/>
<path d="M324 503.012H372.301C378.701 502.894 385.086 503.662 391.276 505.292C396.106 506.555 400.626 508.795 404.559 511.873C408.013 514.671 410.717 518.286 412.425 522.393C414.198 526.853 415.071 531.62 414.995 536.419C415.009 539.812 414.58 543.191 413.719 546.472C412.061 552.802 408.347 558.399 403.162 562.382C400.305 564.572 397.136 566.319 393.76 567.564L414.461 597.931H390.776L372.939 570.967H372.387H343.268V598H324.035L324 503.012ZM372.715 554.28C375.946 554.334 379.168 553.903 382.272 553.002C384.792 552.286 387.14 551.064 389.172 549.409C390.993 547.912 392.41 545.982 393.294 543.795C394.24 541.453 394.709 538.945 394.675 536.419C394.799 534.082 394.368 531.749 393.417 529.611C392.467 527.473 391.024 525.591 389.206 524.12C385.561 521.218 380.081 519.767 372.767 519.767H343.286V554.315L372.715 554.28Z" fill="#7721AD"/>
<path d="M477.632 503H498.019L544 598H523.785L516.176 582.023H460.668L453.301 598H433L477.632 503ZM508.585 566.097L488.024 522.915L468.017 566.097H508.585Z" fill="#7721AD"/>
<path d="M564 503H583V598H564.084L564 503Z" fill="#7721AD"/>
<path d="M608.006 550.096C607.961 543.611 609.242 537.185 611.77 531.22C614.279 525.382 618.034 520.173 622.768 515.963C627.967 511.416 634.004 507.946 640.535 505.751C648.324 503.134 656.498 501.87 664.707 502.011C668.006 502.011 671.302 502.186 674.583 502.533C677.869 502.878 681.132 503.418 684.355 504.15C687.546 504.88 690.689 505.81 693.765 506.934C696.741 508.041 699.627 509.379 702.398 510.935L693.523 525.619C691.718 524.574 689.83 523.684 687.877 522.957C685.666 522.141 683.406 521.467 681.109 520.939C676.119 519.789 671.017 519.205 665.898 519.199C660.471 519.116 655.065 519.891 649.875 521.495C645.532 522.832 641.491 525.013 637.98 527.915C634.787 530.589 632.252 533.971 630.573 537.797C628.839 541.763 627.967 546.058 628.017 550.392C627.96 554.88 628.873 559.326 630.693 563.423C632.442 567.348 635.031 570.835 638.273 573.635C641.77 576.624 645.81 578.898 650.169 580.333C655.18 582 660.431 582.817 665.708 582.751C669.947 582.791 674.173 582.27 678.278 581.203C681.815 580.278 685.18 578.78 688.24 576.766C690.977 574.931 693.324 572.565 695.146 569.807C696.919 567.034 698.095 563.916 698.599 560.657H665.449V544.686H715.9C716.902 549.375 717.222 554.187 716.849 558.969C716.49 563.477 715.423 567.898 713.69 572.069C711.954 576.19 709.563 579.998 706.611 583.342C703.522 586.852 699.896 589.841 695.871 592.198C691.427 594.777 686.643 596.71 681.662 597.939C675.963 599.358 670.11 600.048 664.241 599.992C656.17 600.119 648.143 598.794 640.535 596.077C633.97 593.727 627.932 590.09 622.768 585.378C617.975 580.93 614.179 575.503 611.632 569.46C609.136 563.319 607.902 556.731 608.006 550.096Z" fill="#7721AD"/>
<path d="M739.004 550.688C738.918 543.893 740.271 537.158 742.973 530.924C745.53 525.046 749.326 519.79 754.101 515.517C759.113 511.088 764.951 507.697 771.279 505.54C785.706 500.82 801.259 500.82 815.687 505.54C822.032 507.693 827.888 511.084 832.916 515.517C837.681 519.795 841.47 525.05 844.027 530.924C846.729 537.158 848.082 543.893 847.996 550.688C848.08 557.532 846.728 564.318 844.027 570.607C841.471 576.542 837.684 581.865 832.916 586.223C827.902 590.716 822.045 594.167 815.687 596.373C801.278 601.209 785.687 601.209 771.279 596.373C764.938 594.162 759.099 590.712 754.101 586.223C749.323 581.87 745.529 576.546 742.973 570.607C740.272 564.318 738.92 557.532 739.004 550.688ZM758.331 550.688C758.26 555.262 759.165 559.799 760.983 563.996C762.689 567.85 765.201 571.294 768.35 574.094C771.621 576.94 775.412 579.126 779.512 580.532C788.595 583.539 798.405 583.539 807.488 580.532C811.579 579.129 815.359 576.943 818.616 574.094C821.752 571.283 824.262 567.842 825.983 563.996C827.821 559.804 828.737 555.265 828.669 550.688C828.741 546.132 827.825 541.615 825.983 537.449C824.272 533.651 821.759 530.271 818.616 527.541C815.351 524.762 811.569 522.657 807.488 521.347C798.379 518.501 788.621 518.501 779.512 521.347C775.423 522.663 771.631 524.767 768.35 527.541C765.197 530.262 762.682 533.645 760.983 537.449C759.161 541.62 758.256 546.135 758.331 550.688Z" fill="#7721AD"/>
<path d="M136.999 678.532C133.66 674.879 132 669.95 132 663.71C132 657.471 133.73 652.332 136.999 648.592C140.598 645.009 145.447 643 150.5 643C155.552 643 160.402 645.009 164.001 648.592C167.334 652.332 169 657.372 169 663.71C169 669.95 167.27 674.879 164.001 678.532C160.364 682.042 155.529 684 150.5 684C145.471 684 140.636 682.042 136.999 678.532ZM158.189 673.551C160.189 670.663 161.165 667.177 160.957 663.658C161.166 660.074 160.193 656.521 158.189 653.556C157.252 652.412 156.078 651.492 154.749 650.86C153.42 650.229 151.969 649.901 150.5 649.901C149.031 649.901 147.58 650.229 146.251 650.86C144.922 651.492 143.748 652.412 142.811 653.556C140.807 656.521 139.834 660.074 140.043 663.658C139.838 667.174 140.807 670.657 142.794 673.551C143.75 674.665 144.933 675.559 146.261 676.171C147.589 676.784 149.031 677.101 150.491 677.101C151.951 677.101 153.394 676.784 154.722 676.171C156.05 675.559 157.232 674.665 158.189 673.551Z" fill="#7721AD"/>
<path d="M192.624 682.965H185V644H196.964L204.079 674.874L211.106 644H223V682.965H215.375V650.234L208.067 683H200.021L192.73 649.516L192.624 682.965Z" fill="#7721AD"/>
<path d="M247.434 683H240V644H248.339L263.6 671.379V644H271V683H263.088L247.417 654.867L247.434 683Z" fill="#7721AD"/>
<path d="M288 644H296V683H288V644Z" fill="#7721AD"/>
<path d="M345.966 669.314C345.68 673.427 343.836 677.265 340.825 680.019C337.674 682.735 333.638 684.149 329.514 683.983C327.119 684.094 324.729 683.661 322.518 682.716C320.307 681.771 318.33 680.337 316.73 678.517C313.577 674.867 312 669.943 312 663.709C312 657.474 313.577 652.34 316.73 648.603C318.312 646.754 320.283 645.291 322.496 644.324C324.71 643.356 327.108 642.909 329.514 643.015C333.578 642.862 337.562 644.187 340.756 646.752C342.242 648.009 343.471 649.551 344.371 651.293C345.271 653.034 345.824 654.939 346 656.898H338.031C337.939 655.927 337.657 654.984 337.201 654.126C336.744 653.268 336.124 652.513 335.375 651.904C333.72 650.62 331.678 649.966 329.6 650.053C328.236 650.006 326.884 650.311 325.667 650.94C324.451 651.569 323.41 652.501 322.642 653.65C320.8 656.637 319.913 660.134 320.106 663.656C319.913 667.105 320.794 670.528 322.625 673.435C323.41 674.564 324.459 675.475 325.677 676.085C326.895 676.695 328.244 676.984 329.6 676.928C331.712 677.047 333.784 676.31 335.364 674.876C336.944 673.443 337.903 671.431 338.031 669.279L345.966 669.314Z" fill="#7721AD"/>
<path d="M362 644H370.034V658.618H385V644H393V683H385V665.332H370.034V683H362.034L362 644Z" fill="#7721AD"/>
<path d="M421.803 644H431.232L445 683H436.34L433.699 675.06H418.934L416.397 683H408L421.803 644ZM421.226 668.346H431.565L426.316 652.676L421.226 668.346Z" fill="#7721AD"/>
<path d="M466.652 683H459V644H467.586L483.348 671.379V644H491V683H482.837L466.652 654.867V683Z" fill="#7721AD"/>
<path d="M515.413 683H508V644H516.318L531.587 671.379V644H539V683H531.143L515.464 654.867L515.413 683Z" fill="#7721AD"/>
<path d="M557 683V644H585.125V650.924H564.967V659.197H583.665V665.91H564.967V676.076H586V683H557Z" fill="#7721AD"/>
<path d="M602 683V644H610.27V676.076H630V683H602Z" fill="#7721AD"/>
<path d="M702.965 669.314C702.663 673.425 700.768 677.261 697.675 680.019C694.428 682.738 690.269 684.152 686.02 683.983C683.558 684.094 681.102 683.661 678.83 682.716C676.558 681.77 674.527 680.336 672.884 678.517C669.622 674.867 668 669.943 668 663.709C668 657.474 669.622 652.34 672.884 648.603C674.509 646.754 676.534 645.291 678.808 644.324C681.082 643.357 683.547 642.909 686.02 643.015C690.207 642.858 694.314 644.183 697.604 646.752C699.134 648.009 700.397 649.551 701.323 651.293C702.249 653.034 702.819 654.939 703 656.898H694.801C694.706 655.927 694.416 654.984 693.946 654.126C693.477 653.268 692.838 652.513 692.068 651.904C690.359 650.619 688.252 649.964 686.108 650.053C684.706 650.008 683.314 650.314 682.063 650.942C680.812 651.571 679.741 652.503 678.95 653.65C677.061 656.64 676.156 660.136 676.358 663.656C676.163 667.102 677.063 670.522 678.932 673.435C679.741 674.562 680.821 675.471 682.074 676.08C683.327 676.69 684.713 676.981 686.108 676.928C688.285 677.003 690.411 676.268 692.068 674.867C693.659 673.413 694.635 671.417 694.801 669.279L702.965 669.314Z" fill="#7721AD"/>
<path d="M718 644.016H737.853C741.143 643.854 744.375 644.916 746.913 646.995C748.046 647.967 748.944 649.178 749.541 650.54C750.138 651.901 750.419 653.378 750.363 654.862C750.49 656.443 750.203 658.029 749.53 659.468C748.858 660.908 747.822 662.151 746.524 663.079C745.805 663.557 745.033 663.951 744.223 664.253C744.675 664.431 745.112 664.642 745.533 664.884C746.673 665.58 747.603 666.567 748.226 667.741C748.848 668.916 749.141 670.234 749.072 671.559L749.248 677.954C749.228 678.876 749.366 679.794 749.655 680.67C749.929 681.241 750.409 681.691 751 681.931V682.965H741.905C741.588 682.127 741.397 681.247 741.339 680.354C741.173 678.923 741.085 677.485 741.074 676.044V672.435C741.13 671.735 741.018 671.033 740.747 670.384C740.476 669.735 740.055 669.159 739.516 668.703C737.998 667.825 736.243 667.434 734.491 667.582H726.299V683H718V644.016ZM726.228 661.029H735.765C737.459 661.156 739.145 660.704 740.543 659.75C741.093 659.267 741.522 658.664 741.799 657.99C742.075 657.315 742.19 656.586 742.135 655.86C742.19 655.147 742.084 654.431 741.824 653.765C741.563 653.098 741.156 652.497 740.631 652.006C739.318 651.057 737.705 650.603 736.084 650.727H726.228V661.029Z" fill="#7721AD"/>
<path d="M774.459 683H767V644H778.703L785.577 674.902L792.452 644H804V683H796.542V650.24L789.547 683H781.694L774.545 649.486L774.459 683Z" fill="#7721AD"/>
</svg>
