<svg width="25" height="24" viewBox="0 0 25 24" fill="none" xmlns="http://www.w3.org/2000/svg">
<path d="M2.81907 13.0623H10.0907C10.308 13.0623 10.5163 13.1486 10.6699 13.3022C10.8235 13.4558 10.9098 13.6641 10.9098 13.8814V21.1186C10.9098 21.3359 10.8235 21.5442 10.6699 21.6978C10.5163 21.8514 10.308 21.9377 10.0907 21.9377H2.81907C2.60184 21.9377 2.3935 21.8514 2.2399 21.6978C2.08629 21.5442 2 21.3359 2 21.1186V13.8846C2 13.6674 2.08629 13.4591 2.2399 13.3055C2.3935 13.1519 2.60184 13.0656 2.81907 13.0656V13.0623ZM14.0386 2H21.307C21.5242 2 21.7326 2.08629 21.8862 2.2399C22.0398 2.3935 22.1261 2.60184 22.1261 2.81907V10.058C22.1261 10.2752 22.0398 10.4835 21.8862 10.6371C21.7326 10.7907 21.5242 10.877 21.307 10.877H14.0386C13.8214 10.877 13.6131 10.7907 13.4595 10.6371C13.3059 10.4835 13.2196 10.2752 13.2196 10.058V2.81907C13.2196 2.60184 13.3059 2.3935 13.4595 2.2399C13.6131 2.08629 13.8214 2 14.0386 2ZM2.81907 2H10.0907C10.308 2 10.5163 2.08629 10.6699 2.2399C10.8235 2.3935 10.9098 2.60184 10.9098 2.81907V10.058C10.9098 10.2752 10.8235 10.4835 10.6699 10.6371C10.5163 10.7907 10.308 10.877 10.0907 10.877H2.81907C2.60184 10.877 2.3935 10.7907 2.2399 10.6371C2.08629 10.4835 2 10.2752 2 10.058V2.81907C2 2.60184 2.08629 2.3935 2.2399 2.2399C2.3935 2.08629 2.60184 2 2.81907 2Z" fill="current"/>
<path d="M21.6517 18.67L20.6917 17.93C20.7117 17.79 20.7317 17.64 20.7317 17.49C20.7317 17.34 20.7217 17.19 20.6917 17.05L21.6417 16.31C21.7217 16.24 21.7517 16.12 21.6917 16.02L20.7917 14.47C20.7417 14.37 20.6217 14.34 20.5117 14.37L19.4017 14.82C19.1717 14.64 18.9217 14.49 18.6417 14.38L18.4717 13.2C18.4617 13.08 18.3617 13 18.2617 13H16.4717C16.3617 13 16.2617 13.08 16.2517 13.19L16.0817 14.37C15.8117 14.49 15.5517 14.63 15.3217 14.81L14.2117 14.36C14.1117 14.32 13.9917 14.36 13.9317 14.46L13.0317 16.01C12.9817 16.11 12.9917 16.23 13.0817 16.3L14.0317 17.04C14.0117 17.18 14.0017 17.33 14.0017 17.48C14.0017 17.63 14.0117 17.78 14.0317 17.92L13.0817 18.66C13.0017 18.73 12.9717 18.85 13.0317 18.95L13.9317 20.5C13.9817 20.6 14.1017 20.63 14.2117 20.6L15.3217 20.15C15.5517 20.33 15.8017 20.48 16.0817 20.59L16.2517 21.77C16.2717 21.88 16.3617 21.96 16.4717 21.96H18.2617C18.3717 21.96 18.4717 21.88 18.4817 21.77L18.6517 20.59C18.9217 20.47 19.1817 20.33 19.4017 20.15L20.5217 20.6C20.6217 20.64 20.7417 20.6 20.8017 20.5L21.7017 18.95C21.7617 18.86 21.7317 18.74 21.6517 18.67ZM17.3617 18.83C16.6217 18.83 16.0117 18.23 16.0117 17.48C16.0117 16.73 16.6117 16.13 17.3617 16.13C18.1117 16.13 18.7117 16.73 18.7117 17.48C18.7117 18.23 18.1017 18.83 17.3617 18.83Z" fill="current"/>
</svg>
