<svg width="49" height="49" viewBox="0 0 49 49" fill="none" xmlns="http://www.w3.org/2000/svg">
<g clip-path="url(#clip0_46_2527)">
<path d="M42.8751 10.2083C40.6088 9.49375 38.118 9.1875 35.7292 9.1875C31.748 9.1875 27.4605 10.0042 24.5001 12.25C21.5397 10.0042 17.2522 9.1875 13.2709 9.1875C9.28966 9.1875 5.00216 10.0042 2.04175 12.25V42.1604C2.04175 42.6708 2.55216 43.1812 3.06258 43.1812C3.26675 43.1812 3.36883 43.0792 3.573 43.0792C6.32925 41.7521 10.3105 40.8333 13.2709 40.8333C17.2522 40.8333 21.5397 41.65 24.5001 43.8958C27.2563 42.1604 32.2584 40.8333 35.7292 40.8333C39.098 40.8333 42.5688 41.4458 45.4272 42.9771C45.6313 43.0792 45.7334 43.0792 45.9376 43.0792C46.448 43.0792 46.9584 42.5687 46.9584 42.0583V12.25C45.7334 11.3312 44.4063 10.7187 42.8751 10.2083ZM42.8751 37.7708C40.6292 37.0562 38.1792 36.75 35.7292 36.75C32.2584 36.75 27.2563 38.0771 24.5001 39.8125V16.3333C27.2563 14.5979 32.2584 13.2708 35.7292 13.2708C38.1792 13.2708 40.6292 13.5771 42.8751 14.2917V37.7708Z" fill="url(#paint0_linear_46_2527)"/>
<path d="M35.7292 21.4375C37.5259 21.4375 39.2613 21.6213 40.8334 21.9683V18.865C39.2205 18.5587 37.4851 18.375 35.7292 18.375C32.2584 18.375 29.1142 18.9671 26.5417 20.0696V23.4587C28.8488 22.1521 32.0542 21.4375 35.7292 21.4375Z" fill="url(#paint1_linear_46_2527)"/>
<path d="M26.5417 25.5004V28.8895C28.8488 27.5829 32.0542 26.8683 35.7292 26.8683C37.5259 26.8683 39.2613 27.052 40.8334 27.3991V24.2958C39.2205 23.9895 37.4851 23.8058 35.7292 23.8058C32.2584 23.8058 29.1142 24.4183 26.5417 25.5004Z" fill="url(#paint2_linear_46_2527)"/>
<path d="M35.7292 29.2571C32.2584 29.2571 29.1142 29.8492 26.5417 30.9517V34.3408C28.8488 33.0342 32.0542 32.3196 35.7292 32.3196C37.5259 32.3196 39.2613 32.5033 40.8334 32.8504V29.7471C39.2205 29.4204 37.4851 29.2571 35.7292 29.2571Z" fill="url(#paint3_linear_46_2527)"/>
</g>
<defs>
<linearGradient id="paint0_linear_46_2527" x1="4.448" y1="43.8958" x2="46.9584" y2="43.8958" gradientUnits="userSpaceOnUse">
<stop stop-color="#57A8F7"/>
<stop offset="1" stop-color="#57A8F7" stop-opacity="0.44"/>
</linearGradient>
<linearGradient id="paint1_linear_46_2527" x1="27.3074" y1="23.4587" x2="40.8334" y2="23.4587" gradientUnits="userSpaceOnUse">
<stop stop-color="#57A8F7"/>
<stop offset="1" stop-color="#57A8F7" stop-opacity="0.44"/>
</linearGradient>
<linearGradient id="paint2_linear_46_2527" x1="27.3074" y1="28.8895" x2="40.8334" y2="28.8895" gradientUnits="userSpaceOnUse">
<stop stop-color="#57A8F7"/>
<stop offset="1" stop-color="#57A8F7" stop-opacity="0.44"/>
</linearGradient>
<linearGradient id="paint3_linear_46_2527" x1="27.3074" y1="34.3408" x2="40.8334" y2="34.3408" gradientUnits="userSpaceOnUse">
<stop stop-color="#57A8F7"/>
<stop offset="1" stop-color="#57A8F7" stop-opacity="0.44"/>
</linearGradient>
<clipPath id="clip0_46_2527">
<rect width="49" height="49" fill="white"/>
</clipPath>
</defs>
</svg>
