<?xml version="1.0" encoding="UTF-8"?>
<svg xmlns="http://www.w3.org/2000/svg" xmlns:xlink="http://www.w3.org/1999/xlink" width="300px" height="273px" viewBox="0 0 74 68" version="1.1">
<defs>
<filter id="alpha" filterUnits="objectBoundingBox" x="0%" y="0%" width="100%" height="100%">
  <feColorMatrix type="matrix" in="SourceGraphic" values="0 0 0 0 1 0 0 0 0 1 0 0 0 0 1 0 0 0 1 0"/>
</filter>
<mask id="mask0">
  <g filter="url(#alpha)">
<rect x="0" y="0" width="74" height="68" style="fill:rgb(0%,0%,0%);fill-opacity:0.976471;stroke:none;"/>
  </g>
</mask>
<clipPath id="clip1">
  <rect x="0" y="0" width="74" height="68"/>
</clipPath>
<g id="surface5" clip-path="url(#clip1)">
<path style=" stroke:none;fill-rule:evenodd;fill:rgb(96.862745%,81.176471%,27.058824%);fill-opacity:1;" d="M 6.785156 -0.125 C 11.304688 -0.125 15.828125 -0.125 20.351562 -0.125 C 20.351562 4.359375 20.351562 8.84375 20.351562 13.324219 C 15.847656 13.570312 11.324219 13.65625 6.785156 13.574219 C 6.785156 9.007812 6.785156 4.441406 6.785156 -0.125 Z M 6.785156 -0.125 "/>
</g>
<mask id="mask1">
  <g filter="url(#alpha)">
<rect x="0" y="0" width="74" height="68" style="fill:rgb(0%,0%,0%);fill-opacity:0.960784;stroke:none;"/>
  </g>
</mask>
<clipPath id="clip2">
  <rect x="0" y="0" width="74" height="68"/>
</clipPath>
<g id="surface8" clip-path="url(#clip2)">
<path style=" stroke:none;fill-rule:evenodd;fill:rgb(1.176471%,0.392157%,0%);fill-opacity:1;" d="M 53.402344 -0.125 C 55.707031 -0.125 58.007812 -0.125 60.308594 -0.125 C 60.308594 4.441406 60.308594 9.007812 60.308594 13.574219 C 57.988281 13.652344 55.683594 13.566406 53.402344 13.324219 C 53.402344 8.84375 53.402344 4.359375 53.402344 -0.125 Z M 53.402344 -0.125 "/>
</g>
<mask id="mask2">
  <g filter="url(#alpha)">
<rect x="0" y="0" width="74" height="68" style="fill:rgb(0%,0%,0%);fill-opacity:0.988235;stroke:none;"/>
  </g>
</mask>
<clipPath id="clip3">
  <rect x="0" y="0" width="74" height="68"/>
</clipPath>
<g id="surface11" clip-path="url(#clip3)">
<path style=" stroke:none;fill-rule:evenodd;fill:rgb(94.117647%,65.098039%,22.745098%);fill-opacity:1;" d="M 6.535156 -0.125 C 6.617188 -0.125 6.699219 -0.125 6.785156 -0.125 C 6.785156 4.441406 6.785156 9.007812 6.785156 13.574219 C 11.324219 13.65625 15.847656 13.570312 20.351562 13.324219 C 24.789062 13.324219 29.230469 13.324219 33.671875 13.324219 C 33.671875 17.808594 33.671875 22.292969 33.671875 26.777344 C 24.75 27.023438 15.789062 27.109375 6.785156 27.027344 C 6.699219 27.027344 6.617188 27.027344 6.535156 27.027344 C 6.535156 17.976562 6.535156 8.925781 6.535156 -0.125 Z M 6.535156 -0.125 "/>
</g>
<mask id="mask3">
  <g filter="url(#alpha)">
<rect x="0" y="0" width="74" height="68" style="fill:rgb(0%,0%,0%);fill-opacity:0.968627;stroke:none;"/>
  </g>
</mask>
<clipPath id="clip4">
  <rect x="0" y="0" width="74" height="68"/>
</clipPath>
<g id="surface14" clip-path="url(#clip4)">
<path style=" stroke:none;fill-rule:evenodd;fill:rgb(1.176471%,0.392157%,0%);fill-opacity:1;" d="M 46.988281 13.324219 C 46.988281 17.890625 46.988281 22.460938 46.988281 27.027344 C 44.644531 27.105469 42.339844 27.023438 40.082031 26.777344 C 40.082031 22.292969 40.082031 17.808594 40.082031 13.324219 C 42.386719 13.324219 44.6875 13.324219 46.988281 13.324219 Z M 46.988281 13.324219 "/>
</g>
<mask id="mask4">
  <g filter="url(#alpha)">
<rect x="0" y="0" width="74" height="68" style="fill:rgb(0%,0%,0%);fill-opacity:0.996078;stroke:none;"/>
  </g>
</mask>
<clipPath id="clip5">
  <rect x="0" y="0" width="74" height="68"/>
</clipPath>
<g id="surface17" clip-path="url(#clip5)">
<path style=" stroke:none;fill-rule:evenodd;fill:rgb(94.509804%,65.098039%,22.745098%);fill-opacity:1;" d="M 60.308594 -0.125 C 60.390625 -0.125 60.472656 -0.125 60.558594 -0.125 C 60.558594 4.441406 60.558594 9.007812 60.558594 13.574219 C 64.996094 13.574219 69.4375 13.574219 73.875 13.574219 C 73.875 18.058594 73.875 22.542969 73.875 27.027344 C 64.914062 27.027344 55.953125 27.027344 46.988281 27.027344 C 46.988281 22.460938 46.988281 17.890625 46.988281 13.324219 C 49.128906 13.324219 51.265625 13.324219 53.402344 13.324219 C 55.683594 13.566406 57.988281 13.652344 60.308594 13.574219 C 60.308594 9.007812 60.308594 4.441406 60.308594 -0.125 Z M 60.308594 -0.125 "/>
</g>
<mask id="mask5">
  <g filter="url(#alpha)">
<rect x="0" y="0" width="74" height="68" style="fill:rgb(0%,0%,0%);fill-opacity:0.992157;stroke:none;"/>
  </g>
</mask>
<clipPath id="clip6">
  <rect x="0" y="0" width="74" height="68"/>
</clipPath>
<g id="surface20" clip-path="url(#clip6)">
<path style=" stroke:none;fill-rule:evenodd;fill:rgb(92.941176%,47.058824%,18.039216%);fill-opacity:1;" d="M 33.671875 26.777344 C 35.808594 26.777344 37.945312 26.777344 40.082031 26.777344 C 42.339844 27.023438 44.644531 27.105469 46.988281 27.027344 C 55.953125 27.027344 64.914062 27.027344 73.875 27.027344 C 73.875 31.59375 73.875 36.160156 73.875 40.726562 C 69.355469 40.726562 64.832031 40.726562 60.308594 40.726562 C 57.964844 40.644531 55.660156 40.726562 53.402344 40.972656 C 51.347656 40.972656 49.292969 40.972656 47.238281 40.972656 C 42.675781 40.726562 38.070312 40.644531 33.421875 40.726562 C 31.078125 40.644531 28.773438 40.726562 26.515625 40.972656 C 24.460938 40.972656 22.40625 40.972656 20.351562 40.972656 C 15.871094 40.726562 11.347656 40.644531 6.785156 40.726562 C 6.785156 36.160156 6.785156 31.59375 6.785156 27.027344 C 15.789062 27.109375 24.75 27.023438 33.671875 26.777344 Z M 33.671875 26.777344 "/>
</g>
<mask id="mask6">
  <g filter="url(#alpha)">
<rect x="0" y="0" width="74" height="68" style="fill:rgb(0%,0%,0%);fill-opacity:0.952941;stroke:none;"/>
  </g>
</mask>
<clipPath id="clip7">
  <rect x="0" y="0" width="74" height="68"/>
</clipPath>
<g id="surface23" clip-path="url(#clip7)">
<path style=" stroke:none;fill-rule:evenodd;fill:rgb(0%,0%,0%);fill-opacity:1;" d="M 33.421875 40.726562 C 33.421875 45.292969 33.421875 49.859375 33.421875 54.425781 C 31.121094 54.425781 28.820312 54.425781 26.515625 54.425781 C 26.515625 49.941406 26.515625 45.457031 26.515625 40.972656 C 28.773438 40.726562 31.078125 40.644531 33.421875 40.726562 Z M 33.421875 40.726562 "/>
</g>
<mask id="mask7">
  <g filter="url(#alpha)">
<rect x="0" y="0" width="74" height="68" style="fill:rgb(0%,0%,0%);fill-opacity:0.960784;stroke:none;"/>
  </g>
</mask>
<clipPath id="clip8">
  <rect x="0" y="0" width="74" height="68"/>
</clipPath>
<g id="surface26" clip-path="url(#clip8)">
<path style=" stroke:none;fill-rule:evenodd;fill:rgb(0%,0%,0%);fill-opacity:1;" d="M 60.308594 40.726562 C 60.308594 49.773438 60.308594 58.824219 60.308594 67.875 C 58.007812 67.875 55.707031 67.875 53.402344 67.875 C 53.402344 58.910156 53.402344 49.941406 53.402344 40.972656 C 55.660156 40.726562 57.964844 40.644531 60.308594 40.726562 Z M 60.308594 40.726562 "/>
</g>
<mask id="mask8">
  <g filter="url(#alpha)">
<rect x="0" y="0" width="74" height="68" style="fill:rgb(0%,0%,0%);fill-opacity:0.976471;stroke:none;"/>
  </g>
</mask>
<clipPath id="clip9">
  <rect x="0" y="0" width="74" height="68"/>
</clipPath>
<g id="surface29" clip-path="url(#clip9)">
<path style=" stroke:none;fill-rule:evenodd;fill:rgb(90.588235%,33.72549%,15.686275%);fill-opacity:1;" d="M 6.535156 27.027344 C 6.617188 27.027344 6.699219 27.027344 6.785156 27.027344 C 6.785156 31.59375 6.785156 36.160156 6.785156 40.726562 C 11.347656 40.644531 15.871094 40.726562 20.351562 40.972656 C 20.351562 45.375 20.351562 49.773438 20.351562 54.175781 C 15.828125 54.175781 11.304688 54.175781 6.785156 54.175781 C 6.785156 58.742188 6.785156 63.308594 6.785156 67.875 C 6.699219 67.875 6.617188 67.875 6.535156 67.875 C 6.535156 54.257812 6.535156 40.640625 6.535156 27.027344 Z M 6.535156 27.027344 "/>
</g>
<mask id="mask9">
  <g filter="url(#alpha)">
<rect x="0" y="0" width="74" height="68" style="fill:rgb(0%,0%,0%);fill-opacity:0.968627;stroke:none;"/>
  </g>
</mask>
<clipPath id="clip10">
  <rect x="0" y="0" width="74" height="68"/>
</clipPath>
<g id="surface32" clip-path="url(#clip10)">
<path style=" stroke:none;fill-rule:evenodd;fill:rgb(91.372549%,34.117647%,15.686275%);fill-opacity:1;" d="M 33.421875 40.726562 C 38.070312 40.644531 42.675781 40.726562 47.238281 40.972656 C 47.238281 45.457031 47.238281 49.941406 47.238281 54.425781 C 42.632812 54.425781 38.027344 54.425781 33.421875 54.425781 C 33.421875 49.859375 33.421875 45.292969 33.421875 40.726562 Z M 33.421875 40.726562 "/>
</g>
<mask id="mask10">
  <g filter="url(#alpha)">
<rect x="0" y="0" width="74" height="68" style="fill:rgb(0%,0%,0%);fill-opacity:0.976471;stroke:none;"/>
  </g>
</mask>
<clipPath id="clip11">
  <rect x="0" y="0" width="74" height="68"/>
</clipPath>
<g id="surface35" clip-path="url(#clip11)">
<path style=" stroke:none;fill-rule:evenodd;fill:rgb(91.764706%,20%,14.901961%);fill-opacity:1;" d="M 20.351562 54.175781 C 20.351562 58.742188 20.351562 63.308594 20.351562 67.875 C 15.828125 67.875 11.304688 67.875 6.785156 67.875 C 6.785156 63.308594 6.785156 58.742188 6.785156 54.175781 C 11.304688 54.175781 15.828125 54.175781 20.351562 54.175781 Z M 20.351562 54.175781 "/>
</g>
</defs>
<g id="surface1">
<path style=" stroke:none;fill-rule:evenodd;fill:rgb(0%,0%,0%);fill-opacity:1;" d="M -0.125 -0.125 C 2.097656 -0.125 4.316406 -0.125 6.535156 -0.125 C 6.535156 8.925781 6.535156 17.976562 6.535156 27.027344 C 6.535156 40.640625 6.535156 54.257812 6.535156 67.875 C 4.316406 67.875 2.097656 67.875 -0.125 67.875 C -0.125 45.207031 -0.125 22.542969 -0.125 -0.125 Z M -0.125 -0.125 "/>
<use xlink:href="#surface5" mask="url(#mask0)"/>
<use xlink:href="#surface8" mask="url(#mask1)"/>
<path style=" stroke:none;fill-rule:evenodd;fill:rgb(96.862745%,81.176471%,27.058824%);fill-opacity:1;" d="M 60.558594 -0.125 C 64.996094 -0.125 69.4375 -0.125 73.875 -0.125 C 73.875 4.441406 73.875 9.007812 73.875 13.574219 C 69.4375 13.574219 64.996094 13.574219 60.558594 13.574219 C 60.558594 9.007812 60.558594 4.441406 60.558594 -0.125 Z M 60.558594 -0.125 "/>
<use xlink:href="#surface11" mask="url(#mask2)"/>
<use xlink:href="#surface14" mask="url(#mask3)"/>
<use xlink:href="#surface17" mask="url(#mask4)"/>
<use xlink:href="#surface20" mask="url(#mask5)"/>
<use xlink:href="#surface23" mask="url(#mask6)"/>
<use xlink:href="#surface26" mask="url(#mask7)"/>
<use xlink:href="#surface29" mask="url(#mask8)"/>
<use xlink:href="#surface32" mask="url(#mask9)"/>
<path style=" stroke:none;fill-rule:evenodd;fill:rgb(90.980392%,33.72549%,15.686275%);fill-opacity:1;" d="M 60.308594 40.726562 C 64.832031 40.726562 69.355469 40.726562 73.875 40.726562 C 73.875 45.207031 73.875 49.691406 73.875 54.175781 C 69.4375 54.175781 64.996094 54.175781 60.558594 54.175781 C 60.558594 58.742188 60.558594 63.308594 60.558594 67.875 C 60.472656 67.875 60.390625 67.875 60.308594 67.875 C 60.308594 58.824219 60.308594 49.773438 60.308594 40.726562 Z M 60.308594 40.726562 "/>
<use xlink:href="#surface35" mask="url(#mask10)"/>
<path style=" stroke:none;fill-rule:evenodd;fill:rgb(91.372549%,20%,14.509804%);fill-opacity:1;" d="M 73.875 54.175781 C 73.875 58.742188 73.875 63.308594 73.875 67.875 C 69.4375 67.875 64.996094 67.875 60.558594 67.875 C 60.558594 63.308594 60.558594 58.742188 60.558594 54.175781 C 64.996094 54.175781 69.4375 54.175781 73.875 54.175781 Z M 73.875 54.175781 "/>
</g>
</svg>
