<svg width="49" height="49" viewBox="0 0 49 49" fill="none" xmlns="http://www.w3.org/2000/svg">
<g clip-path="url(#clip0_116_258)">
<path d="M35.5454 13.4546L30.625 11.2292L35.5454 9.00379L37.7708 4.08337L39.9962 9.00379L44.9167 11.2292L39.9962 13.4546L37.7708 18.375L35.5454 13.4546ZM43.4467 25.97L41.8542 22.4584L40.2617 25.97L36.75 27.5625L40.2617 29.155L41.8542 32.6667L43.4467 29.155L46.9583 27.5625L43.4467 25.97ZM33.1567 29.3388L37.1175 32.34L32.0133 41.1805L27.44 39.2613C27.0317 39.5267 26.5825 39.7921 26.1333 40.0167L25.5208 44.9167H15.3125L14.7 39.9963C14.2508 39.7717 13.8221 39.5267 13.3933 39.2409L8.81999 41.16L3.71582 32.3196L7.67665 29.3184C7.65624 29.0938 7.65624 28.8284 7.65624 28.5834C7.65624 28.3384 7.65624 28.073 7.67665 27.828L3.71582 24.8267L8.81999 15.9863L13.3933 17.9055C13.8017 17.64 14.2508 17.3746 14.7 17.15L15.3125 12.25H25.5208L26.1333 17.1705C26.5825 17.395 27.0112 17.64 27.44 17.9259L32.0133 16.0067L37.1175 24.8471L33.1567 27.8484C33.1771 28.0934 33.1771 28.3384 33.1771 28.6038C33.1771 28.8692 33.1771 29.0938 33.1567 29.3388ZM26.5417 28.5834C26.5417 25.1942 23.8058 22.4584 20.4167 22.4584C17.0275 22.4584 14.2917 25.1942 14.2917 28.5834C14.2917 31.9725 17.0275 34.7084 20.4167 34.7084C23.8058 34.7084 26.5417 31.9725 26.5417 28.5834Z" fill="url(#paint0_linear_116_258)"/>
</g>
<defs>
<linearGradient id="paint0_linear_116_258" x1="13.018" y1="44.9167" x2="45.827" y2="44.9167" gradientUnits="userSpaceOnUse">
<stop offset="0.287356" stop-color="#FB5F5F"/>
<stop offset="1" stop-color="#FB5F5F" stop-opacity="0.2"/>
</linearGradient>
<clipPath id="clip0_116_258">
<rect width="49" height="49" fill="white"/>
</clipPath>
</defs>
</svg>
