<?xml version="1.0" encoding="utf-8"?>
<!-- Generator: Adobe Illustrator 26.0.0, SVG Export Plug-In . SVG Version: 6.00 Build 0)  -->
<svg version="1.1" id="Capa_1" xmlns="http://www.w3.org/2000/svg" xmlns:xlink="http://www.w3.org/1999/xlink" x="0px" y="0px"
	 viewBox="0 0 20.9 22" style="enable-background:new 0 0 20.9 22;" xml:space="preserve">
<path d="M15.9,12.1c-0.2,0-0.4,0-0.5,0.1V5.6L9.6,0H1.9C0.9,0,0,0.8,0,1.9l0,15c0,1,0.9,1.9,1.9,1.9h9.4c0.7,1.9,2.5,3.3,4.6,3.3
	c2.7,0,5-2.2,5-5S18.7,12.1,15.9,12.1z M1.9,1.9h6.7v4.7h4.8v6.2c-1.4,0.8-2.4,2.3-2.5,4H1.9V1.9z M17.6,19.4l-2.1-2.1v-2.7h1v2.3
	l1.8,1.8L17.6,19.4z"/>
</svg>
