<svg width="22" height="26" viewBox="0 0 22 26" fill="none" xmlns="http://www.w3.org/2000/svg">
<path d="M15 2.70969L13.8462 1.5484L12.6923 2.70969L11.5385 1.5484L10.3846 2.70969L9.23077 1.5484L8.07692 2.70969L6.92308 1.5484L5.76923 2.70969L4.61538 1.5484L3.46154 2.70969L2.30769 1.5484V20.9032L3.46154 19.742L4.61538 20.9032L5.76923 19.742L6.92308 20.9032L8.07692 19.742L9.23077 20.9032L10.3846 19.742L11.5385 20.9032L12.6923 19.742L13.8462 20.9032L15 19.742L16.1538 20.9032V1.5484L15 2.70969ZM15.6154 18.6503H2.84615V3.8013H15.6154V18.6503ZM4.61538 12.6129H9.84615V13.1613H4.61538V12.6129ZM4.61538 9.51614H13.8462V10.0645H4.61538V9.51614ZM4.61538 6.41937H13.8462V6.96776H4.61538V6.41937Z" fill="white"/>
<path d="M19.2654 19.1613C19.2654 22.2838 16.7509 24.8113 13.6538 24.8113C10.5568 24.8113 8.04231 22.2838 8.04231 19.1613C8.04231 16.0388 10.5568 13.5113 13.6538 13.5113C16.7509 13.5113 19.2654 16.0388 19.2654 19.1613Z" fill="#7721AD" stroke="white" stroke-width="0.7"/>
<path d="M11.8462 21.4387C11.5077 21.4387 11.2338 21.7174 11.2338 22.0581C11.2338 22.3987 11.5077 22.6774 11.8462 22.6774C12.1846 22.6774 12.4615 22.3987 12.4615 22.0581C12.4615 21.7174 12.1846 21.4387 11.8462 21.4387ZM10 16.4839V17.1032H10.6154L11.7231 19.4537L11.3077 20.2124C11.2585 20.2991 11.2308 20.4013 11.2308 20.5097C11.2308 20.8503 11.5077 21.129 11.8462 21.129H15.5385V20.5097H11.9754C11.9323 20.5097 11.8985 20.4756 11.8985 20.4323L11.9077 20.3951L12.1846 19.8903H14.4769C14.7077 19.8903 14.9108 19.7634 15.0154 19.5714L16.1169 17.5616C16.1415 17.5182 16.1538 17.4656 16.1538 17.4129C16.1538 17.2426 16.0154 17.1032 15.8462 17.1032H11.2954L11.0062 16.4839H10ZM14.9231 21.4387C14.5846 21.4387 14.3108 21.7174 14.3108 22.0581C14.3108 22.3987 14.5846 22.6774 14.9231 22.6774C15.2615 22.6774 15.5385 22.3987 15.5385 22.0581C15.5385 21.7174 15.2615 21.4387 14.9231 21.4387Z" fill="white"/>
</svg>
