<svg id="Layer_1" data-name="Layer 1" xmlns="http://www.w3.org/2000/svg" viewBox="0 0 22 26"><defs><style></style></defs><rect class="" x="5.24" y="6.54" width="9.23" height="0.55"/><rect class="" x="5.24" y="12.74" width="5.23" height="0.55"/><rect class="" x="5.24" y="9.64" width="9.23" height="0.55"/><path class="" d="M16.78,13.85V1.67L15.62,2.83,14.47,1.67,13.32,2.83,12.16,1.67,11,2.83,9.86,1.67,8.7,2.83,7.55,1.67,6.39,2.83,5.24,1.67,4.09,2.83,2.93,1.67V21l1.16-1.16L5.24,21l1.15-1.16L7.55,21l.84-.85a6,6,0,1,0,8.39-6.33ZM8.34,18.78H3.47V3.93H16.24v9.7a5.81,5.81,0,0,0-2-.34A6,6,0,0,0,8.34,18.78Zm5.94,5.81a5.3,5.3,0,1,1,5.26-5.3A5.29,5.29,0,0,1,14.28,24.59Z"/><path class="" d="M16.47,17.23H11.92l-.29-.62h-1v.62h.62l1.11,2.35-.42.76a.57.57,0,0,0-.07.29.61.61,0,0,0,.61.62h3.69v-.62H12.6a.08.08,0,0,1-.08-.07v0l.28-.5H15.1a.61.61,0,0,0,.54-.32l1.1-2a.28.28,0,0,0,0-.15A.31.31,0,0,0,16.47,17.23Z"/><path class="" d="M12.47,21.56a.62.62,0,0,0,0,1.24.62.62,0,0,0,0-1.24Z"/><path class="" d="M15.55,21.56a.62.62,0,1,0,.61.62A.61.61,0,0,0,15.55,21.56Z"/></svg>