<svg width="25" height="25" viewBox="0 0 25 25" fill="none" xmlns="http://www.w3.org/2000/svg">
<path d="M12.5 0C10.4808 0 8.83789 1.69175 8.83789 3.71094C8.83789 5.73013 10.4808 7.37305 12.5 7.37305C14.5192 7.37305 16.1621 5.73013 16.1621 3.71094C16.1621 1.69175 14.5192 0 12.5 0Z" stroke="none" fill="current"/>
<path d="M22.0215 16.297V14.5213C22.0215 13.0028 20.7862 11.7676 19.2678 11.7676H17.627V11.0352C17.627 9.6 17.0304 8.30469 16.0767 7.37305C15.152 8.27632 13.8915 8.83789 12.5 8.83789C11.1085 8.83789 9.848 8.27632 8.92329 7.37305C7.96958 8.30469 7.37305 9.6 7.37305 11.0352V11.7676H5.73223C4.21377 11.7676 2.97852 13.0028 2.97852 14.5213V16.297C2.12783 16.6004 1.51367 17.4058 1.51367 18.3594C1.51367 19.571 2.49932 20.5566 3.71094 20.5566C4.92256 20.5566 5.9082 19.571 5.9082 18.3594C5.9082 17.4058 5.29404 16.6004 4.44336 16.297V14.5213C4.44336 13.8104 5.02129 13.2324 5.73223 13.2324C7.95254 13.2324 9.50527 13.2324 11.7676 13.2324V16.297C10.9169 16.6004 10.3027 17.4058 10.3027 18.3594C10.3027 19.571 11.2884 20.5566 12.5 20.5566C13.7116 20.5566 14.6973 19.571 14.6973 18.3594C14.6973 17.4058 14.0831 16.6004 13.2324 16.297V13.2324C15.4987 13.2324 17.0258 13.2324 19.2678 13.2324C19.9787 13.2324 20.5566 13.8104 20.5566 14.5213V16.297C19.706 16.6004 19.0918 17.4058 19.0918 18.3594C19.0918 19.571 20.0774 20.5566 21.2891 20.5566C22.5007 20.5566 23.4863 19.571 23.4863 18.3594C23.4863 17.4058 22.8722 16.6004 22.0215 16.297Z" stroke="none" fill="current"/>
<path d="M24.2 20.5566C23.5309 21.4406 22.4807 22.0215 21.2891 22.0215C20.0975 22.0215 19.0473 21.4406 18.3781 20.5566C17.9133 21.1706 17.627 21.9264 17.627 22.7539V24.2676C17.627 24.6724 17.9545 25 18.3594 25H24.2188C24.6236 25 25 24.6724 25 24.2676V22.7539C25 21.9264 24.6648 21.1706 24.2 20.5566Z" stroke="none" fill="current"/>
<path d="M15.411 20.5566C14.7418 21.4406 13.6916 22.0215 12.5 22.0215C11.3084 22.0215 10.2582 21.4406 9.58901 20.5566C9.12427 21.1706 8.83789 21.9264 8.83789 22.7539V24.2676C8.83789 24.6724 9.16548 25 9.57031 25H15.4297C15.8345 25 16.1621 24.6724 16.1621 24.2676V22.7539C16.1621 21.9264 15.8757 21.1706 15.411 20.5566Z" stroke="none" fill="current"/>
<path d="M6.62192 20.5566C5.95273 21.4406 4.90254 22.0215 3.71094 22.0215C2.51934 22.0215 1.46914 21.4406 0.799951 20.5566C0.335205 21.1706 0 21.9264 0 22.7539V24.2676C0 24.6724 0.376416 25 0.78125 25H6.64062C7.04546 25 7.37305 24.6724 7.37305 24.2676V22.7539C7.37305 21.9264 7.08667 21.1706 6.62192 20.5566Z" stroke="none" fill="current"/>
</svg>
