<svg id="Layer_1" data-name="Layer 1" xmlns="http://www.w3.org/2000/svg" xmlns:xlink="http://www.w3.org/1999/xlink" viewBox="0 0 24 24"><defs><style>.cls-1{fill:none;}.cls-2{clip-path:url(#clip-path);}</style><clipPath id="clip-path"><rect class="cls-1" x="-0.04" y="-0.13" width="24" height="24"/></clipPath></defs><title>pedidos-tienda</title><g class="cls-2"><path d="M4.12,5.33h2v2h10v-2h2v4l2,1v-5a2,2,0,0,0-2-2H13.94a3,3,0,0,0-5.64,0H4.12a2,2,0,0,0-2,2v14a2,2,0,0,0,2,2h6l-1-2h-5Zm7-2a1,1,0,1,1-1,1A1,1,0,0,1,11.12,3.33Z"/><path d="M8.12,10.33h-2v2h2Z"/><path d="M8.12,14.33h-2v2h2Z"/><path d="M21.3,13.37,17.07,11a1.18,1.18,0,0,0-1.15,0l-4.23,2.4a1.12,1.12,0,0,0-.58,1v4.78a1.14,1.14,0,0,0,.58,1l4.23,2.39a1.13,1.13,0,0,0,1.15,0l4.23-2.39a1.14,1.14,0,0,0,.58-1V14.35A1.12,1.12,0,0,0,21.3,13.37Zm-8.65,5.55V15.43l3.08,1.75v3.48Zm3.84-3-3.07-1.75,3.07-1.74,3.08,1.74Zm.77,4.78V17.18l3.08-1.75v3.49Z"/></g></svg>