<svg width="30" height="30" viewBox="0 0 30 30" fill="none" xmlns="http://www.w3.org/2000/svg">
<path d="M8.275 13.4874C10.075 17.0249 12.975 19.9124 16.5125 21.7249L19.2625 18.9749C19.6 18.6374 20.1 18.5249 20.5375 18.6749C21.9375 19.1374 23.45 19.3874 25 19.3874C25.6875 19.3874 26.25 19.9499 26.25 20.6374V24.9999C26.25 25.6874 25.6875 26.2499 25 26.2499C13.2625 26.2499 3.75 16.7374 3.75 4.99988C3.75 4.31238 4.3125 3.74988 5 3.74988H9.375C10.0625 3.74988 10.625 4.31238 10.625 4.99988C10.625 6.56238 10.875 8.06238 11.3375 9.46238C11.475 9.89988 11.375 10.3874 11.025 10.7374L8.275 13.4874Z" fill="white"/>
<path d="M14.9992 12.8749L15.8867 13.7499L23.9492 5.87488V11.2374H25.1992V3.73738L17.6992 3.73738V4.98738L22.8867 4.98738L14.9992 12.8749Z" fill="white"/>
</svg>
