<?xml version="1.0" encoding="UTF-8"?>
<svg id="Capa_1" data-name="Capa 1" xmlns="http://www.w3.org/2000/svg" version="1.1" viewBox="0 0 1080 1080">
  <defs>
    <style>
      .cls-1 {
        fill: #3a3d40;
      }

      .cls-1, .cls-2, .cls-3, .cls-4, .cls-5, .cls-6, .cls-7 {
        stroke-width: 0px;
      }

      .cls-2 {
        fill: #232163;
      }

      .cls-3 {
        fill: #daebfe;
      }

      .cls-4 {
        fill: #a34cd5;
      }

      .cls-5 {
        fill: #1d1856;
      }

      .cls-6 {
        fill: #90dbf2;
      }

      .cls-7 {
        fill: #f3fafe;
      }
    </style>
  </defs>
  <path class="cls-1" d="M869.2,1070.2H157.9c-30.4-2.9-46.7-21.4-53.7-49.6-1.3-5.2-4.4-7.3-9.5-7.5-6.2-.3-12.3,0-18.5-.3-24.3-.8-43.6-19.7-43.8-44-.5-41.5-.5-82.9,0-124.4.3-24.8,19-43.1,44-43.7,27-.7,25.9,3.5,25.7-26.6,0-12.7-1.3-13.7-14.4-14.2-14.2-.5-28-2.6-39.3-12.3-10.8-9.2-16.1-20.9-16.1-35.2,0-50.7,0-101.4,0-152.1,0-93.2.7-186.4-.4-279.6-.4-32.7,20.4-52.2,51.6-53.6,2.1,0,4.1,0,6.2-.2,10.9-.5,12.4-1.7,12.4-12.9.2-40.1.2-80.2,0-120.3,0-11,.8-22,3.6-32.5,5.4-20.9,25.2-45.2,56.9-44.8,1.7,0,3.4,0,5.1,0,231.2,0,462.5,0,693.7-.1,31.2,0,48.9,14.2,59.7,39.6,3,7.1,3.9,14.4,3.9,22.1,0,44.2,0,88.4,0,132.6,0,15.5.8,16,16.2,16.4,22.9.7,45.9-2.1,68.7,2.1,22.5,4.1,38.2,21.5,38.2,44.2.4,94.9.4,189.8,0,284.7-.1,23.8-19.5,42.9-43.2,43.5-21.2.5-42.5,0-63.7.2-15.2,0-16.2,1-16.2,16.5,0,128.1-.2,256.3.2,384.4,0,21.1-5.6,38.7-20.4,53.9-10,10.3-22.9,11.3-35.5,13.7Z"/>
  <path class="cls-3" d="M514.7,169.3c124.4,0,248.7,0,373.1-.2,8.9,0,12.8,1.5,12.1,11.5-1,13.6-.8,27.4,0,41.1.5,9-2.9,10.7-11.1,10.6-50-.4-100-.2-150-.2-97.3,0-194.6,0-291.9,0-14.3,0-27.2,2.8-37.3,13.6-8.4,9-11.6,19.7-11.6,31.9.1,91.5,0,183,.1,274.5,0,28,17.5,45.3,45.7,45.3,147.7,0,295.3.1,443-.2,9.8,0,13.2,1.5,13.2,12.5-.5,130.9-.3,261.8-.2,392.7,0,14.4-3.4,27.1-14.9,36.7-9.2,7.7-20.2,9.1-31.8,9.1-159.3-.1-318.6,0-477.9,0-67.5,0-135,0-202.5,0-21.6,0-36.3-11-41.8-29.5-2.3-7.8-.8-9.9,7.6-9.9,53.8.3,107.6-.7,161.3.5,29.7.7,49.8-19.8,49.1-48.9-.9-36-.1-72-.2-107.9,0-30.8-16.9-47.8-47.5-47.8-54.1,0-108.3-.2-162.4.2-7.8,0-10.1-2.1-9.6-9.8.7-10.2.7-20.6,0-30.8-.6-7.8,2-9.7,9.7-9.7,52.8.3,105.5.2,158.3.2,7.2,0,14.4,0,21.4-2.1,18.6-5.8,30-21.9,30.1-43.1.2-37.7,0-75.4,0-113.1,0-103.8,0-207.7,0-311.5,0-37.4-15.5-52.8-53.2-52.8-52.1,0-104.1-.2-156.2.2-8.2,0-10.4-2.3-10.1-10.3.6-15.4.3-30.8,0-46.3,0-4.7,1.2-7.1,6.3-6.5,2.4.3,4.8,0,7.2,0,124,0,248,0,372,0Z"/>
  <path class="cls-7" d="M721.2,254c91.1,0,182.2,0,273.3,0,21.3,0,28.4,7,28.4,28.2,0,88.4,0,176.8,0,265.1,0,21.5-6.7,27.4-28.3,28.5-12.4.6-20.8-3.3-29.5-12.1-44.6-45.4-89.9-90.2-135-135.3-11-11-14-10.9-25.2.2-15.5,15.5-31.2,30.8-46.3,46.7-4.8,5-7.3,4.5-11.9-.2-28.1-28.6-56.5-56.8-84.9-85.1-9.9-9.8-13.8-9.8-23.8.2-59.4,59.3-118.7,118.7-178,178-8.1,8.1-17.7,10.2-27.7,5.7-9.6-4.3-12.9-12.5-12.9-22.6,0-53.1,0-106.2,0-159.3,0-37,0-74,0-111,0-19.8,7.4-27.1,27.3-27.1,91.4,0,182.9,0,274.3,0Z"/>
  <path class="cls-6" d="M326.5,494.5c0,70.6,0,141.1,0,211.7,0,19.3-7.3,26.6-26.8,26.6-71.6,0-143.1,0-214.7,0-19.7,0-27.3-7.6-27.3-27.4,0-141.5,0-282.9,0-424.4,0-19.8,7.4-27,27.5-27,71.2,0,142.5,0,213.7,0,20.8,0,27.6,6.9,27.6,27.8,0,70.9,0,141.8,0,212.7Z"/>
  <path class="cls-6" d="M610.7,147c-92.1,0-184.2,0-276.4,0-15.2,0-13.4,1.7-13.5-13.9,0-28.1.2-56.2-.2-84.3,0-6.9,1.6-9.5,9.1-9.5,176.4.2,352.7,0,529.1.3,23.8,0,40.1,16.8,40.6,41.2.4,18.1-.4,36.3.3,54.5.4,9.2-2,12.1-11.7,12-71.2-.4-142.5-.2-213.7-.2-21.2,0-42.5,0-63.7,0Z"/>
  <path class="cls-4" d="M191.6,987.1c-35.3,0-70.6,0-105.9,0-20.8,0-28-7.2-28-27.7,0-35.6,0-71.3,0-106.9,0-18.6,7.6-26.3,26.2-26.3,72.3,0,144.6,0,216.8,0,18.2,0,25.7,7.6,25.8,25.5,0,36.7,0,73.3,0,110,0,17.4-7.4,25.2-25,25.3-36.7.2-73.3,0-110,0Z"/>
  <path class="cls-2" d="M815,575.4h-328.8c.4-4.3,3.4-5.8,5.4-7.8,50.3-50.5,100.7-100.9,151.1-151.3,4-4,6.7-7.9,12.9-1.6,51.8,52.4,104,104.4,156.1,156.5.9.9,1.6,2.1,3.3,4.3Z"/>
  <path class="cls-5" d="M214.4,146.9c-25.3,0-50.6-.2-75.9.1-7.1,0-9.6-2.1-9.4-9.3.4-19.5-.1-39,.2-58.5.4-22.4,17.6-39.3,40.1-39.4,40-.2,80,.1,120-.3,8.5,0,10.3,3.1,10.3,10.8-.3,28.7-.4,57.5,0,86.2.1,8-2.1,10.7-10.4,10.6-25-.5-49.9-.2-74.9-.2Z"/>
  <path class="cls-5" d="M942.5,576.3c-19.5,0-39.7-1.7-59.6.4-25.4,2.7-44.1-5.2-60.4-25-14.7-17.9-32.4-33.4-49.1-49.6-4.6-4.4-4.5-7.2,0-11.6,13.1-12.6,25.8-25.5,38.5-38.5,3.4-3.5,5.8-4.7,10-.6,39.8,40.1,79.7,80.1,119.6,120.1.9.9,2.1,1.9.9,4.6Z"/>
  <path class="cls-1" d="M614,1009c-55.2,0-110.3,0-165.5,0-31.6,0-48-16.5-48.1-48.1,0-6.5,0-13,0-19.5.2-28.4,17.6-45.8,46.4-45.9,42.8-.1,85.7,0,128.5,0,68.2,0,136.4,0,204.5,0,32,0,48.5,16.7,48.6,48.8,0,6.2,0,12.3,0,18.5-.2,28.9-17.1,46.1-45.9,46.2-56.2.1-112.4,0-168.6,0Z"/>
  <path class="cls-1" d="M542.3,845.9c-31.8,0-63.7,0-95.5,0-28.6,0-46.3-17.5-46.3-45.9-.1-37.7-.1-75.3,0-113,0-28,17.3-45.7,45.4-45.8,64.4-.3,128.7-.3,193.1,0,28.8.1,45.7,17.5,45.8,46.4.1,37.3.1,74.7,0,112-.1,29.1-17.6,46.3-46.9,46.3-31.8,0-63.7,0-95.5,0Z"/>
  <path class="cls-1" d="M700.4,343.4c0-29,23.2-52.2,52.2-52,27.7.2,50.9,23.7,50.8,51.4,0,28.6-22.6,51.4-51.3,51.8-28.4.4-51.6-22.6-51.7-51.2Z"/>
  <path class="cls-1" d="M192,689.5c-29.7,0-59.5,0-89.2,0-2.7,0-5.5.2-8.2-.3-5.6-1.2-8.9-4.6-8.9-10.7,0-6.1,3.3-9.5,8.9-10.8,2.3-.5,4.8-.3,7.1-.3,60.2,0,120.3,0,180.5,0,1.7,0,3.4,0,5.1,0,7.2.5,11.8,4.1,11.6,11.6-.2,6.9-4.8,10.2-11.5,10.6-2.4.1-4.8,0-7.2,0-29.4,0-58.8,0-88.2,0Z"/>
  <path class="cls-1" d="M169.9,494.6c-23.6,0-47.2,0-70.8,0-7.5,0-13.1-2-13.4-10.4-.3-8.5,5.2-11.4,12.5-11.4,47.9,0,95.8,0,143.7,0,7.3,0,13,2.6,12.9,11.1-.2,8.4-5.5,10.8-13.1,10.8-23.9-.1-47.9,0-71.8,0Z"/>
  <path class="cls-1" d="M175.2,620.3c-25,0-50,0-75,0-7.4,0-14.2-.9-14.5-10.3-.3-10.1,6.6-11.3,14.6-11.2,50.3,0,100.6.1,151,0,7.7,0,14.4,1.5,14.6,10.4.2,9.5-6.5,11.4-14.7,11.3-25.3-.2-50.7,0-76,0Z"/>
  <path class="cls-1" d="M154.5,407.9c18.5,0,36.9,0,55.4,0,7.4,0,13.3,2.1,13.6,10.4.3,8.9-5.8,11.6-13.6,11.6-36.9,0-73.8,0-110.8,0-7.7,0-13.8-2.4-13.5-11.6.3-8.5,6-10.4,13.4-10.4,18.5.1,36.9,0,55.4,0Z"/>
  <path class="cls-1" d="M256.4,277.9c2.7,0,5.5,2.4,8.2,5.1,9.6,9.7,19.4,19.3,29,29,7.3,7.5,7.3,12.4-.1,20.1-9.3,9.6-18.8,18.9-28.3,28.3-5.5,5.5-11.8,7.9-17.8,1.6-5.8-6-3-11.8,2.2-17,6.1-6,11.9-12.3,18.2-18.1,3.9-3.6,4.1-6.2.1-9.9-7-6.5-13.6-13.5-20.4-20.2-3.8-3.8-4.6-8.4-2.5-13.2,1.8-4.2,5.5-5.8,11.4-5.8Z"/>
  <path class="cls-1" d="M139.8,289.7c.2,3.8-2.3,6.6-5,9.3-6.3,6.3-12.4,12.7-18.9,18.8-3.3,3.1-3.2,5.2,0,8.3,6.5,6.1,12.6,12.5,18.9,18.8,5.3,5.2,7.6,11.2,2.2,17.1-5.5,6-11.7,4.1-17-1.1-10.2-10.1-20.4-20.2-30.4-30.5-5.5-5.6-5.4-11.6.1-17.2,10.3-10.5,20.8-20.8,31.2-31.2,3.8-3.8,8.3-4.9,13.1-2.6,4.1,1.9,6,5.4,5.8,10.4Z"/>
  <path class="cls-1" d="M138.3,554.5c-13.3,0-26.7,0-40,0-7.6,0-12.8-2.7-12.6-11.2.2-7.9,5.3-10.4,12.4-10.4,26.3,0,52.6,0,78.9,0,7.8,0,12.9,3.1,12.7,11.2-.2,7.5-5.2,10.5-12.5,10.4-13-.1-26,0-39,0Z"/>
  <path class="cls-1" d="M173.2,352.6c-4.6.2-7.8-2-9.9-5.9-2.2-4.1-1.8-8.3,1.3-11.4,13.5-13.9,27.2-27.8,41.1-41.3,4.5-4.3,10.1-4.1,14.7.5,4.5,4.5,4.9,10.2.6,14.7-13.5,14-27.4,27.5-41.2,41.2-1.8,1.7-4.1,2.3-6.6,2.3Z"/>
  <path class="cls-1" d="M259.3,408c2.4,0,4.8,0,7.2,0,7-.2,11.2,3.3,11.6,10.2.4,6.9-3.5,11-10.3,11.6-5.1.5-10.2.4-15.4.1-7.1-.3-12-4-11.7-11.4.3-7.4,5.1-10.7,12.5-10.5,2,0,4.1,0,6.2,0Z"/>
  <path class="cls-1" d="M796.2,104c-8,.4-13.1-2.9-13.1-10.9,0-8.2,5.7-10.6,13.2-10.7,7.6,0,13,3.1,12.8,11-.2,7.9-5.5,11.1-12.9,10.5Z"/>
  <path class="cls-1" d="M843.6,104c-7.5.5-12.7-2.9-12.7-10.8,0-7.9,5.4-10.9,13-10.8,7.4.1,12.9,2.6,12.8,10.9,0,8.2-5.4,11-13.2,10.7Z"/>
  <path class="cls-1" d="M748.9,104c-8.3.2-13.6-2.6-13.4-11.1.2-8.7,6.1-10.5,13.4-10.5,7.3,0,12.2,3.1,12.3,10.6,0,8.2-5.2,11.4-12.2,10.9Z"/>
  <path class="cls-1" d="M191.6,881.8c-27.4,0-54.7,0-82.1,0-7.7,0-15.2-.9-15.2-10.8,0-9.8,7.2-10.9,15.1-10.9,55.4,0,110.9,0,166.3,0,10.4,0,15.6,4.8,14.1,12.8-1.5,7.9-7.4,8.8-14,8.8-28.1,0-56.1,0-84.2,0Z"/>
  <path class="cls-1" d="M163.5,924.2c18.2,0,36.3.1,54.5,0,7.6,0,13.2,2.7,13.4,10.7.2,8-5.3,11.3-12.9,11.3-37.3,0-74.7,0-112,0-7,0-12.2-2.9-12.2-10.7,0-8.3,5.1-11.2,12.7-11.2,18.8,0,37.7,0,56.5,0Z"/>
  <path class="cls-6" d="M674,917.7c35.6,0,71.2,0,106.7,0,18.8,0,25.8,7.2,26,26.2,0,7.9.3,15.8-.4,23.6-1.1,11.3-7.9,17.8-19.2,19.2-3,.4-6.1.4-9.2.4-70.8,0-141.6-.1-212.4.2-8.9,0-10.1-1.3-8-10.4,3.6-16,4.1-33,0-48.8-2.8-11,.8-10.5,8.8-10.5,35.9.3,71.8.1,107.8.1Z"/>
  <path class="cls-5" d="M480,918c11.6,0,23.3-.1,34.9,0,12.7.1,19.6,5.9,21.8,18.5,1.9,10.5,1.9,21.2.1,31.7-2,12.2-8.3,18.8-20.6,19-25,.4-50,1.7-74.9-1-12.1-1.3-18.3-8.3-18.5-20.4-.2-9.2-.3-18.5,0-27.7.4-12.1,8-19.8,20.1-20,12.3-.3,24.7,0,37,0Z"/>
  <path class="cls-4" d="M542.7,823.6c-31.5,0-63,0-94.5,0-18.8,0-25.6-6.6-25.7-25.1,0-37-.1-74,0-110.9,0-16.9,7.6-24.5,24.5-24.5,63.7,0,127.3,0,191,0,17,0,25.1,8.2,25.2,25.3.1,36.6.1,73.3,0,109.9,0,17.5-7.8,25.2-25,25.3-31.8.1-63.7,0-95.5,0Z"/>
  <path class="cls-4" d="M781.2,342.6c.2,16.6-12.3,30-28.2,30.3-16.5.4-30.5-12.9-30.8-29.3-.3-16.5,13.1-30.2,29.6-30.2,16.3,0,29.2,12.8,29.4,29.1Z"/>
  <path class="cls-1" d="M491.6,799.3c-16.7-.6-29.1-14.5-29.4-31.9-.1-6.4,2.2-13.8-9.1-13.6-4.7,0-7-5.2-7-10,0-5,2.9-9.8,7.4-9.8,10.7-.1,8.5-7.2,8.7-13.4.3-16,9.2-27.8,24-31.8,8.9-2.4,16.5.5,17.7,7.2,1.6,8.5-3.1,12.7-11.1,14-6.3,1-8.5,5-8.5,10.9,0,15.1,0,30.1,0,45.2,0,7,3.1,10.9,10,11.9,6.8,1,10.7,5.1,9.9,11.9-.9,7.6-6.6,9.8-12.5,9.3Z"/>
  <path class="cls-1" d="M601,744.2c0-5.5,0-10.9,0-16.4.2-9.5-1.1-17.5-13.2-19.2-5.7-.8-7.7-6.4-6.7-12.2,1.2-6.8,6.3-8.5,12.2-8.6,13.7-.2,27.5,12.7,29.1,27.1.3,2.7.3,5.5.2,8.2-.2,5.5-.3,10,7.6,10.1,5.4,0,8.3,4.5,8.5,9.9.1,5.3-2.3,10.1-7.8,10.4-8.7.5-8.5,5.9-8.2,12,.7,13.6-4.9,23.8-16.7,30.6-4.9,2.8-10.3,3.7-15.9,2.9-5.5-.7-8.8-3.6-9.1-9.3-.3-5.4,1.8-10.3,7.1-11,12.2-1.5,13.7-9.3,13.2-19.1-.3-5.1,0-10.3,0-15.4-.1,0-.2,0-.3,0Z"/>
  <path class="cls-1" d="M522.3,776.1c-5.6.6-8.5-1.5-10.7-4.9-2.6-3.9-2.6-8.2.5-11.4,15.5-16,31.1-31.8,47.1-47.3,4.2-4,9.6-3.1,13.8,1.1,4.2,4.2,5.2,9.7,1.2,13.8-15.6,15.9-31.6,31.4-47.5,46.9-1.3,1.3-3.7,1.5-4.3,1.8Z"/>
</svg>