<svg width="156" height="114" viewBox="0 0 156 114" fill="none" xmlns="http://www.w3.org/2000/svg">
<path d="M115.848 17.1173H36.0939C34.0423 17.1173 32.3792 18.7735 32.3792 20.8165V81.287C32.3792 83.33 34.0423 84.9862 36.0939 84.9862H115.848C117.899 84.9862 119.563 83.33 119.563 81.287V20.8165C119.563 18.7735 117.899 17.1173 115.848 17.1173Z" fill="#9DAAD1"/>
<path d="M113.942 22.6552H93.6622V36.1918H113.942V22.6552Z" fill="#FFEBC0"/>
<path d="M89.6519 23.0996H69.3723V36.415H89.6519V23.0996Z" fill="#FFEBC0"/>
<path d="M114.388 63.2651H68.704V80.574H114.388V63.2651Z" fill="#FFEBC0"/>
<path d="M114.164 41.5184H68.926V58.383H114.164V41.5184Z" fill="#FFEBC0"/>
<path d="M63.3549 40.8528H37.7283V80.3528H63.3549V40.8528Z" fill="#FFEBC0"/>
<path d="M62.9087 23.0996H38.6188V35.9707H62.9087V23.0996Z" fill="#FFEBC0"/>
<path d="M63.3688 37.2346H37.7104C37.6279 37.2349 37.5462 37.219 37.4699 37.1877C37.3937 37.1565 37.3243 37.1105 37.2659 37.0526C37.2075 36.9946 37.1612 36.9257 37.1296 36.8498C37.0979 36.774 37.0817 36.6927 37.0817 36.6105V22.6947C37.0817 22.5287 37.1479 22.3694 37.2658 22.252C37.3837 22.1346 37.5436 22.0686 37.7104 22.0686H63.3688C63.4512 22.0686 63.5329 22.0848 63.6091 22.1163C63.6852 22.1478 63.7544 22.1939 63.8126 22.2521C63.8709 22.3103 63.917 22.3793 63.9484 22.4553C63.9797 22.5312 63.9958 22.6126 63.9955 22.6947V36.6105C63.9958 36.6926 63.9797 36.7738 63.9483 36.8497C63.9169 36.9255 63.8708 36.9944 63.8125 37.0524C63.7543 37.1104 63.6851 37.1564 63.6089 37.1877C63.5328 37.2189 63.4511 37.2349 63.3688 37.2346ZM38.3371 35.9864H62.742V23.3188H38.347L38.3371 35.9864Z" fill="#7721AD"/>
<path d="M60.3104 29.7632H51.0879C50.9275 29.7542 50.7767 29.6845 50.6663 29.5682C50.556 29.452 50.4945 29.2981 50.4945 29.1381C50.4945 28.9782 50.556 28.8243 50.6663 28.708C50.7767 28.5918 50.9275 28.522 51.0879 28.513H60.3104C60.4708 28.522 60.6217 28.5918 60.732 28.708C60.8424 28.8243 60.9038 28.9782 60.9038 29.1381C60.9038 29.2981 60.8424 29.452 60.732 29.5682C60.6217 29.6845 60.4708 29.7542 60.3104 29.7632Z" fill="#D33737"/>
<path d="M44.5133 32.8699C43.7986 32.8699 43.0999 32.6589 42.5057 32.2635C41.9114 31.8681 41.4482 31.3061 41.1747 30.6485C40.9012 29.991 40.8297 29.2675 40.9691 28.5694C41.1085 27.8714 41.4527 27.2302 41.9581 26.727C42.4634 26.2237 43.1073 25.881 43.8083 25.7421C44.5093 25.6033 45.2359 25.6746 45.8962 25.9469C46.5565 26.2193 47.1209 26.6805 47.5179 27.2723C47.915 27.864 48.1269 28.5597 48.1269 29.2715C48.1264 30.2257 47.7455 31.1406 47.0679 31.8154C46.3904 32.4901 45.4715 32.8694 44.5133 32.8699Z" fill="#7721AD"/>
<path d="M119.612 19.0528V6.19752C119.612 5.51658 119.341 4.86352 118.857 4.38202C118.373 3.90052 117.718 3.63002 117.034 3.63002H34.8307C34.1468 3.63002 33.491 3.90052 33.0075 4.38202C32.524 4.86352 32.2523 5.51658 32.2523 6.19752V19.0528H119.612Z" fill="#7721AD"/>
<path d="M119.612 19.6789H32.2483C32.1658 19.6789 32.0842 19.6627 32.008 19.6312C31.9318 19.5997 31.8627 19.5535 31.8044 19.4954C31.7462 19.4372 31.7001 19.3682 31.6687 19.2922C31.6373 19.2163 31.6213 19.1349 31.6216 19.0528V6.19752C31.6216 5.35017 31.9593 4.53747 32.5607 3.93793C33.162 3.33839 33.9777 3.00105 34.8286 3H117.034C117.885 3.00105 118.701 3.33833 119.302 3.93781C119.904 4.53729 120.242 5.34999 120.243 6.19752V19.0528C120.243 19.1353 120.227 19.217 120.195 19.2932C120.164 19.3694 120.117 19.4386 120.059 19.4968C120 19.555 119.93 19.6011 119.854 19.6323C119.777 19.6636 119.695 19.6794 119.612 19.6789ZM32.879 18.4287H118.983V6.19752C118.983 5.68122 118.777 5.1862 118.41 4.82112C118.043 4.45603 117.546 4.2507 117.028 4.25017H34.8286C34.3107 4.25122 33.8143 4.45685 33.4484 4.82193C33.0825 5.18702 32.877 5.68174 32.877 6.19752L32.879 18.4287Z" fill="#7721AD"/>
<path d="M115.953 85.8592H35.9155C34.7789 85.8576 33.6894 85.4072 32.8859 84.6067C32.0824 83.8062 31.6306 82.721 31.6295 81.5892V19.0528C31.6293 18.9708 31.6453 18.8895 31.6767 18.8137C31.7081 18.7378 31.7542 18.6689 31.8125 18.6109C31.8707 18.5529 31.9399 18.5069 32.0161 18.4757C32.0923 18.4444 32.1739 18.4284 32.2562 18.4287H119.612C119.695 18.4284 119.776 18.4444 119.852 18.4757C119.928 18.5069 119.998 18.5529 120.056 18.6109C120.114 18.6689 120.16 18.7378 120.192 18.8137C120.223 18.8895 120.239 18.9708 120.239 19.0528V81.5892C120.238 82.721 119.786 83.8062 118.983 84.6067C118.179 85.4072 117.089 85.8576 115.953 85.8592ZM32.877 19.6789V81.5892C32.8773 81.9863 32.9561 82.3794 33.1089 82.7462C33.2618 83.1129 33.4857 83.4461 33.7678 83.7267C34.0499 84.0073 34.3848 84.2298 34.7533 84.3816C35.1218 84.5333 35.5167 84.6112 35.9155 84.611H115.953C116.757 84.6094 117.527 84.2904 118.095 83.7239C118.664 83.1575 118.983 82.3898 118.983 81.5892V19.6789H32.877Z" fill="#7721AD"/>
<path d="M41.0722 13.4181C40.6466 13.4181 40.2305 13.2924 39.8767 13.057C39.5228 12.8215 39.247 12.4868 39.0841 12.0953C38.9212 11.7037 38.8786 11.2729 38.9616 10.8572C39.0447 10.4415 39.2496 10.0597 39.5506 9.76001C39.8515 9.46032 40.235 9.25623 40.6524 9.17355C41.0698 9.09086 41.5025 9.1333 41.8957 9.29549C42.2889 9.45768 42.625 9.73233 42.8615 10.0847C43.0979 10.4371 43.2241 10.8514 43.2241 11.2752C43.2241 11.8436 42.9974 12.3886 42.5938 12.7905C42.1903 13.1924 41.6429 13.4181 41.0722 13.4181Z" fill="white"/>
<path d="M41.0722 14.0422C40.523 14.0422 39.9862 13.8801 39.5296 13.5762C39.0729 13.2724 38.7171 12.8406 38.5069 12.3353C38.2967 11.8301 38.2417 11.2742 38.3489 10.7378C38.456 10.2014 38.7205 9.70877 39.1088 9.32207C39.4971 8.93538 39.9919 8.67204 40.5305 8.56535C41.0691 8.45866 41.6274 8.51342 42.1348 8.7227C42.6422 8.93197 43.0758 9.28637 43.3809 9.74107C43.686 10.1958 43.8489 10.7304 43.8489 11.2772C43.8489 12.0105 43.5563 12.7138 43.0356 13.2324C42.5149 13.7509 41.8086 14.0422 41.0722 14.0422ZM41.0722 9.75845C40.7709 9.75884 40.4766 9.84818 40.2263 10.0152C39.976 10.1822 39.7811 10.4193 39.6662 10.6966C39.5512 10.9739 39.5215 11.2789 39.5806 11.5731C39.6398 11.8673 39.7852 12.1373 39.9985 12.3492C40.2118 12.561 40.4834 12.7051 40.779 12.7633C41.0745 12.8214 41.3807 12.791 41.6589 12.6758C41.9371 12.5607 42.1747 12.3659 42.3418 12.1163C42.5088 11.8666 42.5978 11.5733 42.5974 11.2733C42.5963 10.8712 42.4352 10.4859 42.1493 10.2019C41.8634 9.91792 41.476 9.75845 41.0722 9.75845Z" fill="#00ED00"/>
<path d="M48.3867 13.4181C47.961 13.4181 47.545 13.2924 47.1911 13.057C46.8372 12.8215 46.5614 12.4868 46.3985 12.0953C46.2357 11.7037 46.1931 11.2729 46.2761 10.8572C46.3591 10.4415 46.5641 10.0597 46.865 9.76001C47.166 9.46032 47.5494 9.25623 47.9668 9.17355C48.3843 9.09086 48.8169 9.1333 49.2102 9.29549C49.6034 9.45768 49.9395 9.73233 50.1759 10.0847C50.4124 10.4371 50.5386 10.8514 50.5386 11.2752C50.5386 11.8436 50.3119 12.3886 49.9083 12.7905C49.5047 13.1924 48.9574 13.4181 48.3867 13.4181Z" fill="white"/>
<path d="M48.3867 14.0422C47.8375 14.0422 47.3006 13.8801 46.844 13.5762C46.3874 13.2724 46.0315 12.8406 45.8213 12.3353C45.6112 11.8301 45.5562 11.2742 45.6633 10.7378C45.7705 10.2014 46.0349 9.70877 46.4233 9.32207C46.8116 8.93538 47.3063 8.67204 47.845 8.56535C48.3836 8.45866 48.9419 8.51342 49.4492 8.7227C49.9566 8.93197 50.3903 9.28637 50.6954 9.74107C51.0005 10.1958 51.1633 10.7304 51.1633 11.2772C51.1633 12.0105 50.8708 12.7138 50.35 13.2324C49.8293 13.7509 49.1231 14.0422 48.3867 14.0422ZM48.3867 9.75845C48.0853 9.75845 47.7907 9.84746 47.5402 10.0142C47.2897 10.181 47.0944 10.418 46.9792 10.6953C46.864 10.9725 46.8339 11.2776 46.8929 11.5719C46.9518 11.8662 47.0971 12.1364 47.3103 12.3485C47.5235 12.5605 47.7951 12.7048 48.0907 12.7631C48.3863 12.8214 48.6926 12.7911 48.9709 12.676C49.2492 12.5609 49.487 12.3662 49.6541 12.1165C49.8212 11.8668 49.9102 11.5734 49.9099 11.2733C49.9088 10.8715 49.7479 10.4865 49.4624 10.2026C49.177 9.91867 48.7901 9.75897 48.3867 9.75845Z" fill="#00ED00"/>
<path d="M55.7032 13.4181C55.2776 13.4181 54.8615 13.2924 54.5076 13.057C54.1538 12.8215 53.8779 12.4868 53.7151 12.0953C53.5522 11.7037 53.5096 11.2729 53.5926 10.8572C53.6757 10.4415 53.8806 10.0597 54.1816 9.76001C54.4825 9.46032 54.8659 9.25623 55.2834 9.17355C55.7008 9.09086 56.1335 9.1333 56.5267 9.29549C56.9199 9.45768 57.256 9.73233 57.4924 10.0847C57.7289 10.4371 57.8551 10.8514 57.8551 11.2752C57.8551 11.5567 57.7994 11.8353 57.6913 12.0953C57.5832 12.3553 57.4246 12.5915 57.2248 12.7905C57.025 12.9895 56.7878 13.1473 56.5267 13.255C56.2656 13.3627 55.9858 13.4181 55.7032 13.4181Z" fill="white"/>
<path d="M55.7032 14.0422C55.154 14.0422 54.6172 13.8801 54.1605 13.5762C53.7039 13.2724 53.348 12.8406 53.1379 12.3353C52.9277 11.8301 52.8727 11.2742 52.9799 10.7378C53.087 10.2014 53.3515 9.70877 53.7398 9.32207C54.1281 8.93538 54.6229 8.67204 55.1615 8.56535C55.7001 8.45866 56.2584 8.51342 56.7658 8.7227C57.2731 8.93197 57.7068 9.28637 58.0119 9.74107C58.317 10.1958 58.4798 10.7304 58.4798 11.2772C58.4798 12.0105 58.1873 12.7138 57.6666 13.2324C57.1459 13.7509 56.4396 14.0422 55.7032 14.0422ZM55.7032 9.75845C55.4019 9.75884 55.1075 9.84818 54.8573 10.0152C54.607 10.1822 54.4121 10.4193 54.2972 10.6966C54.1822 10.9739 54.1525 11.2789 54.2116 11.5731C54.2708 11.8673 54.4162 12.1373 54.6295 12.3492C54.8428 12.561 55.1144 12.7051 55.41 12.7633C55.7055 12.8214 56.0117 12.791 56.2899 12.6758C56.5681 12.5607 56.8057 12.3659 56.9728 12.1163C57.1398 11.8666 57.2288 11.5733 57.2284 11.2733C57.2273 10.8712 57.0662 10.4859 56.7802 10.2019C56.4943 9.91792 56.107 9.75845 55.7032 9.75845Z" fill="#00ED00"/>
<path d="M63.8606 80.9967H37.8135C37.7311 80.997 37.6495 80.981 37.5734 80.9497C37.4972 80.9185 37.428 80.8725 37.3698 80.8145C37.3115 80.7565 37.2653 80.6876 37.2339 80.6117C37.2025 80.5359 37.1865 80.4546 37.1868 80.3726V40.6751C37.1865 40.593 37.2025 40.5116 37.2339 40.4357C37.2653 40.3597 37.3114 40.2907 37.3696 40.2325C37.4279 40.1744 37.497 40.1282 37.5732 40.0967C37.6494 40.0652 37.731 40.049 37.8135 40.049H63.8606C64.0274 40.049 64.1873 40.115 64.3052 40.2324C64.4231 40.3498 64.4893 40.5091 64.4893 40.6751V80.3726C64.4893 80.4547 64.4731 80.536 64.4414 80.6119C64.4098 80.6877 64.3635 80.7566 64.3051 80.8146C64.2467 80.8726 64.1773 80.9185 64.1011 80.9498C64.0248 80.981 63.9431 80.997 63.8606 80.9967ZM38.4402 79.7485H63.2319V41.3032H38.4402V79.7485Z" fill="#7721AD"/>
<path d="M56.3814 77.8545H45.2649C44.3188 77.8324 43.4189 77.4427 42.7576 76.7686C42.0963 76.0945 41.7261 75.1895 41.7261 74.2471C41.7261 73.3048 42.0963 72.3998 42.7576 71.7257C43.4189 71.0516 44.3188 70.6618 45.2649 70.6398H56.3814C57.3275 70.6618 58.2274 71.0516 58.8887 71.7257C59.55 72.3998 59.9202 73.3048 59.9202 74.2471C59.9202 75.1895 59.55 76.0945 58.8887 76.7686C58.2274 77.4427 57.3275 77.8324 56.3814 77.8545ZM45.2649 71.89C44.6489 71.9077 44.0642 72.1639 43.6348 72.604C43.2055 73.0441 42.9653 73.6335 42.9653 74.2471C42.9653 74.8607 43.2055 75.4502 43.6348 75.8903C44.0642 76.3304 44.6489 76.5865 45.2649 76.6043H56.3814C56.6981 76.6134 57.0133 76.5592 57.3085 76.4449C57.6037 76.3305 57.8729 76.1583 58.1001 75.9386C58.3273 75.7188 58.5079 75.4558 58.6312 75.1653C58.7545 74.8748 58.8181 74.5626 58.8181 74.2471C58.8181 73.9317 58.7545 73.6195 58.6312 73.329C58.5079 73.0384 58.3273 72.7755 58.1001 72.5557C57.8729 72.3359 57.6037 72.1638 57.3085 72.0494C57.0133 71.9351 56.6981 71.8809 56.3814 71.89H45.2649Z" fill="#D33737"/>
<path d="M55.7488 74.8505H45.8996C45.7392 74.8415 45.5883 74.7717 45.478 74.6555C45.3676 74.5393 45.3062 74.3854 45.3062 74.2254C45.3062 74.0654 45.3676 73.9116 45.478 73.7953C45.5883 73.6791 45.7392 73.6093 45.8996 73.6003H55.7488C55.9092 73.6093 56.06 73.6791 56.1704 73.7953C56.2807 73.9116 56.3422 74.0654 56.3422 74.2254C56.3422 74.3854 56.2807 74.5393 56.1704 74.6555C56.06 74.7717 55.9092 74.8415 55.7488 74.8505Z" fill="#8C8C8C"/>
<path d="M50.8223 58.1933C49.4194 58.1933 48.0481 57.7791 46.8817 57.0029C45.7153 56.2268 44.8063 55.1237 44.2695 53.833C43.7328 52.5424 43.5925 51.1222 43.8663 49.7522C44.1401 48.3821 44.8158 47.1237 45.8079 46.136C46.8 45.1484 48.0639 44.4759 49.4398 44.2036C50.8157 43.9313 52.2418 44.0715 53.5378 44.6063C54.8337 45.1412 55.9413 46.0467 56.7203 47.2084C57.4994 48.3701 57.9151 49.7358 57.9147 51.1327C57.9126 53.005 57.1646 54.8 55.8349 56.1237C54.5052 57.4475 52.7025 58.1918 50.8223 58.1933Z" fill="#7721AD"/>
<path d="M58.9221 63.2118H42.7282C42.6428 63.2166 42.5573 63.204 42.477 63.1747C42.3967 63.1455 42.3232 63.1002 42.261 63.0417C42.1989 62.9832 42.1493 62.9127 42.1155 62.8344C42.0817 62.7562 42.0642 62.6719 42.0642 62.5867C42.0642 62.5016 42.0817 62.4173 42.1155 62.339C42.1493 62.2608 42.1989 62.1903 42.261 62.1318C42.3232 62.0733 42.3967 62.028 42.477 61.9987C42.5573 61.9695 42.6428 61.9569 42.7282 61.9617H58.9221C59.0075 61.9569 59.093 61.9695 59.1734 61.9987C59.2537 62.028 59.3272 62.0733 59.3894 62.1318C59.4515 62.1903 59.501 62.2608 59.5349 62.339C59.5687 62.4173 59.5862 62.5016 59.5862 62.5867C59.5862 62.6719 59.5687 62.7562 59.5349 62.8344C59.501 62.9127 59.4515 62.9832 59.3894 63.0417C59.3272 63.1002 59.2537 63.1455 59.1734 63.1747C59.093 63.204 59.0075 63.2166 58.9221 63.2118Z" fill="#8C8C8C"/>
<path d="M58.9221 66.6404H42.7282C42.6459 66.6404 42.5644 66.6243 42.4883 66.5929C42.4123 66.5616 42.3432 66.5156 42.285 66.4576C42.2268 66.3997 42.1806 66.3309 42.1491 66.2552C42.1177 66.1794 42.1014 66.0983 42.1014 66.0163C42.1014 65.9344 42.1177 65.8532 42.1491 65.7775C42.1806 65.7018 42.2268 65.633 42.285 65.575C42.3432 65.5171 42.4123 65.4711 42.4883 65.4397C42.5644 65.4084 42.6459 65.3922 42.7282 65.3922H58.9221C59.0044 65.3922 59.0859 65.4084 59.1619 65.4397C59.238 65.4711 59.3071 65.5171 59.3653 65.575C59.4235 65.633 59.4696 65.7018 59.5011 65.7775C59.5326 65.8532 59.5488 65.9344 59.5488 66.0163C59.5488 66.0983 59.5326 66.1794 59.5011 66.2552C59.4696 66.3309 59.4235 66.3997 59.3653 66.4576C59.3071 66.5156 59.238 66.5616 59.1619 66.5929C59.0859 66.6243 59.0044 66.6404 58.9221 66.6404Z" fill="#8C8C8C"/>
<path d="M114.436 59.2223H68.3509C68.2685 59.2226 68.1869 59.2066 68.1107 59.1753C68.0346 59.1441 67.9654 59.0981 67.9071 59.0401C67.8489 58.9821 67.8027 58.9132 67.7713 58.8374C67.7399 58.7615 67.7239 58.6803 67.7241 58.5982V40.839C67.7239 40.757 67.7399 40.6757 67.7713 40.5999C67.8027 40.524 67.8489 40.4551 67.9071 40.3971C67.9654 40.3391 68.0346 40.2932 68.1107 40.2619C68.1869 40.2306 68.2685 40.2147 68.3509 40.2149H114.436C114.518 40.2147 114.6 40.2306 114.676 40.2619C114.752 40.2932 114.821 40.3391 114.879 40.3971C114.938 40.4551 114.984 40.524 115.015 40.5999C115.047 40.6757 115.063 40.757 115.062 40.839V58.5982C115.063 58.6803 115.047 58.7615 115.015 58.8374C114.984 58.9132 114.938 58.9821 114.879 59.0401C114.821 59.0981 114.752 59.1441 114.676 59.1753C114.6 59.2066 114.518 59.2226 114.436 59.2223ZM68.9796 57.9721H113.803V41.4651H68.9796V57.9721Z" fill="#7721AD"/>
<path d="M109.745 47.1413H82.8471C82.6809 47.1413 82.5214 47.0755 82.4039 46.9585C82.2864 46.8414 82.2203 46.6827 82.2203 46.5172C82.2203 46.3516 82.2864 46.1929 82.4039 46.0758C82.5214 45.9588 82.6809 45.8931 82.8471 45.8931H109.745C109.911 45.8931 110.071 45.9588 110.188 46.0758C110.306 46.1929 110.372 46.3516 110.372 46.5172C110.372 46.6827 110.306 46.8414 110.188 46.9585C110.071 47.0755 109.911 47.1413 109.745 47.1413Z" fill="#8C8C8C"/>
<path d="M109.529 51.4823H82.6329C82.5475 51.4871 82.462 51.4745 82.3817 51.4452C82.3013 51.416 82.2278 51.3707 82.1657 51.3122C82.1035 51.2537 82.054 51.1831 82.0202 51.1049C81.9863 51.0267 81.9689 50.9424 81.9689 50.8572C81.9689 50.772 81.9863 50.6878 82.0202 50.6095C82.054 50.5313 82.1035 50.4608 82.1657 50.4023C82.2278 50.3437 82.3013 50.2985 82.3817 50.2692C82.462 50.24 82.5475 50.2273 82.6329 50.2321H109.529C109.614 50.2273 109.7 50.24 109.78 50.2692C109.86 50.2985 109.934 50.3437 109.996 50.4023C110.058 50.4608 110.108 50.5313 110.142 50.6095C110.175 50.6878 110.193 50.772 110.193 50.8572C110.193 50.9424 110.175 51.0267 110.142 51.1049C110.108 51.1831 110.058 51.2537 109.996 51.3122C109.934 51.3707 109.86 51.416 109.78 51.4452C109.7 51.4745 109.614 51.4871 109.529 51.4823Z" fill="#8C8C8C"/>
<path d="M89.761 55.8214H73.0038C72.8434 55.8124 72.6926 55.7426 72.5822 55.6264C72.4719 55.5101 72.4104 55.3562 72.4104 55.1963C72.4104 55.0363 72.4719 54.8824 72.5822 54.7662C72.6926 54.6499 72.8434 54.5802 73.0038 54.5712H89.767C89.9273 54.5802 90.0782 54.6499 90.1885 54.7662C90.2989 54.8824 90.3604 55.0363 90.3604 55.1963C90.3604 55.3562 90.2989 55.5101 90.1885 55.6264C90.0782 55.7426 89.9273 55.8124 89.767 55.8214H89.761Z" fill="#8C8C8C"/>
<path d="M114.598 81.0757H68.5136C68.4312 81.076 68.3496 81.06 68.2734 81.0287C68.1973 80.9975 68.1281 80.9515 68.0698 80.8935C68.0116 80.8355 67.9654 80.7666 67.934 80.6907C67.9026 80.6149 67.8866 80.5336 67.8868 80.4516V62.6944C67.8866 62.6124 67.9026 62.5311 67.934 62.4552C67.9654 62.3794 68.0116 62.3105 68.0698 62.2525C68.1281 62.1945 68.1973 62.1485 68.2734 62.1173C68.3496 62.086 68.4312 62.07 68.5136 62.0703H114.598C114.681 62.07 114.762 62.086 114.839 62.1172C114.915 62.1485 114.984 62.1944 115.043 62.2524C115.101 62.3104 115.148 62.3792 115.179 62.4551C115.211 62.5309 115.227 62.6123 115.227 62.6944V80.4516C115.227 80.5337 115.211 80.6151 115.179 80.6909C115.148 80.7668 115.101 80.8356 115.043 80.8936C114.984 80.9516 114.915 80.9975 114.839 81.0288C114.762 81.06 114.681 81.076 114.598 81.0757ZM69.1403 79.8255H113.964V63.3165H69.1403V79.8255Z" fill="#7721AD"/>
<path d="M109.906 68.9966H83.0077C82.8473 68.9876 82.6965 68.9179 82.5861 68.8016C82.4758 68.6854 82.4143 68.5315 82.4143 68.3715C82.4143 68.2116 82.4758 68.0577 82.5861 67.9414C82.6965 67.8252 82.8473 67.7554 83.0077 67.7464H109.906C110.066 67.7554 110.217 67.8252 110.327 67.9414C110.438 68.0577 110.499 68.2116 110.499 68.3715C110.499 68.5315 110.438 68.6854 110.327 68.8016C110.217 68.9179 110.066 68.9876 109.906 68.9966Z" fill="#8C8C8C"/>
<path d="M109.696 73.3357H82.7936C82.7113 73.3357 82.6298 73.3195 82.5538 73.2882C82.4777 73.2568 82.4086 73.2108 82.3504 73.1529C82.2922 73.0949 82.2461 73.0261 82.2146 72.9504C82.1831 72.8747 82.1669 72.7935 82.1669 72.7116C82.1669 72.6296 82.1831 72.5485 82.2146 72.4727C82.2461 72.397 82.2922 72.3282 82.3504 72.2703C82.4086 72.2123 82.4777 72.1663 82.5538 72.135C82.6298 72.1036 82.7113 72.0875 82.7936 72.0875H109.696C109.862 72.0875 110.021 72.1532 110.139 72.2703C110.256 72.3873 110.322 72.5461 110.322 72.7116C110.322 72.8771 110.256 73.0358 110.139 73.1529C110.021 73.2699 109.862 73.3357 109.696 73.3357Z" fill="#8C8C8C"/>
<path d="M89.9196 77.6767H73.1585C72.9981 77.6677 72.8473 77.598 72.7369 77.4817C72.6265 77.3655 72.5651 77.2116 72.5651 77.0516C72.5651 76.8917 72.6265 76.7378 72.7369 76.6215C72.8473 76.5053 72.9981 76.4355 73.1585 76.4266H89.9196C90.005 76.4218 90.0905 76.4344 90.1709 76.4636C90.2512 76.4929 90.3247 76.5382 90.3868 76.5967C90.449 76.6552 90.4985 76.7257 90.5324 76.804C90.5662 76.8822 90.5837 76.9665 90.5837 77.0516C90.5837 77.1368 90.5662 77.2211 90.5324 77.2993C90.4985 77.3776 90.449 77.4481 90.3868 77.5066C90.3247 77.5651 90.2512 77.6104 90.1709 77.6396C90.0905 77.6689 90.005 77.6815 89.9196 77.6767Z" fill="#8C8C8C"/>
<path d="M89.3445 37.2702H68.8626C68.6991 37.2682 68.5429 37.2026 68.4273 37.0875C68.3117 36.9723 68.2458 36.8168 68.2438 36.654V22.7322C68.2435 22.6501 68.2595 22.5687 68.2909 22.4928C68.3223 22.4168 68.3684 22.3478 68.4266 22.2896C68.4849 22.2315 68.554 22.1853 68.6302 22.1539C68.7064 22.1224 68.788 22.1062 68.8705 22.1062H89.3445C89.4269 22.1062 89.5086 22.1224 89.5848 22.1539C89.6609 22.1853 89.7301 22.2315 89.7883 22.2896C89.8466 22.3478 89.8927 22.4168 89.9241 22.4928C89.9554 22.5687 89.9715 22.6501 89.9712 22.7322V36.654C89.9691 36.8182 89.9022 36.9749 89.7848 37.0902C89.6675 37.2056 89.5093 37.2702 89.3445 37.2702ZM69.4893 36.02H88.7276V23.3563H69.4893V36.02Z" fill="#7721AD"/>
<path d="M84.1105 30.3123H74.1006C73.9402 30.3033 73.7894 30.2335 73.679 30.1173C73.5687 30.001 73.5072 29.8472 73.5072 29.6872C73.5072 29.5272 73.5687 29.3733 73.679 29.2571C73.7894 29.1409 73.9402 29.0711 74.1006 29.0621H84.1105C84.2709 29.0711 84.4217 29.1409 84.5321 29.2571C84.6424 29.3733 84.7039 29.5272 84.7039 29.6872C84.7039 29.8472 84.6424 30.001 84.5321 30.1173C84.4217 30.2335 84.2709 30.3033 84.1105 30.3123Z" fill="#D33737"/>
<path d="M114.116 37.0293H93.6304C93.4637 37.0293 93.3038 36.9633 93.1859 36.8459C93.0679 36.7285 93.0017 36.5692 93.0017 36.4032V22.4913C93.0017 22.3252 93.0679 22.166 93.1859 22.0486C93.3038 21.9312 93.4637 21.8652 93.6304 21.8652H114.116C114.199 21.8652 114.28 21.8814 114.357 21.9129C114.433 21.9444 114.502 21.9905 114.56 22.0487C114.618 22.1069 114.664 22.1759 114.696 22.2518C114.727 22.3278 114.743 22.4092 114.743 22.4913V36.4032C114.743 36.4853 114.727 36.5667 114.696 36.6426C114.664 36.7186 114.618 36.7876 114.56 36.8458C114.502 36.9039 114.433 36.9501 114.357 36.9816C114.28 37.013 114.199 37.0293 114.116 37.0293ZM94.2611 35.7791H113.499V23.1154H94.2611V35.7791Z" fill="#7721AD"/>
<path d="M108.878 30.0713H98.8705C98.7101 30.0623 98.5593 29.9926 98.4489 29.8763C98.3386 29.7601 98.2771 29.6062 98.2771 29.4462C98.2771 29.2863 98.3386 29.1324 98.4489 29.0161C98.5593 28.8999 98.7101 28.8301 98.8705 28.8212H108.878C109.039 28.8301 109.19 28.8999 109.3 29.0161C109.41 29.1324 109.472 29.2863 109.472 29.4462C109.472 29.6062 109.41 29.7601 109.3 29.8763C109.19 29.9926 109.039 30.0623 108.878 30.0713Z" fill="#D33737"/>
<path d="M44.5469 31.754L42.7441 29.2221C42.5999 29.0206 42.54 28.7711 42.577 28.5264C42.614 28.2818 42.745 28.061 42.9424 27.9107C43.0399 27.8385 43.151 27.7866 43.269 27.758C43.3871 27.7294 43.5097 27.7247 43.6296 27.7442C43.7494 27.7638 43.8642 27.8071 43.9669 27.8717C44.0696 27.9362 44.1583 28.0207 44.2276 28.12L44.541 28.5605L44.8524 28.12C44.9219 28.0209 45.0106 27.9366 45.1133 27.8722C45.2161 27.8078 45.3308 27.7646 45.4506 27.7451C45.5704 27.7256 45.6929 27.7302 45.8109 27.7586C45.9289 27.7871 46.04 27.8388 46.1376 27.9107C46.3354 28.0607 46.4668 28.2815 46.5038 28.5263C46.5408 28.7712 46.4806 29.0207 46.3359 29.2221L44.5469 31.754Z" fill="white"/>
<path d="M44.547 31.914C44.5217 31.9139 44.4968 31.9077 44.4743 31.896C44.4519 31.8843 44.4326 31.8675 44.418 31.8469L42.6152 29.3129C42.4484 29.077 42.3803 28.7857 42.4255 28.5008C42.4707 28.2158 42.6255 27.9595 42.8572 27.7863C42.9697 27.7026 43.0977 27.6421 43.2339 27.6082C43.3701 27.5743 43.5117 27.5677 43.6505 27.5888C43.792 27.6116 43.9275 27.6624 44.049 27.738C44.1706 27.8136 44.2758 27.9126 44.3586 28.0292L44.543 28.2899L44.7274 28.0292C44.8098 27.9122 44.9149 27.813 45.0365 27.7373C45.1582 27.6616 45.2938 27.6111 45.4355 27.5888C45.5743 27.5677 45.7159 27.5743 45.8521 27.6082C45.9883 27.6421 46.1163 27.7026 46.2288 27.7863C46.4601 27.9594 46.6144 28.2155 46.6593 28.5001C46.7041 28.7848 46.6357 29.0756 46.4688 29.311L44.666 31.8449C44.6526 31.8646 44.635 31.881 44.6144 31.893C44.5938 31.9049 44.5707 31.9121 44.547 31.914ZM43.4879 27.8909C43.3271 27.8916 43.1707 27.9435 43.0416 28.0391C42.8748 28.1628 42.7635 28.3468 42.7316 28.5514C42.6997 28.756 42.7498 28.965 42.8711 29.1332L44.547 31.4874L46.2288 29.1312C46.3501 28.963 46.4002 28.7541 46.3683 28.5494C46.3364 28.3448 46.225 28.1608 46.0583 28.0371C45.9776 27.9774 45.8857 27.9345 45.788 27.9109C45.6904 27.8873 45.5889 27.8835 45.4898 27.8997C45.3906 27.9159 45.2957 27.9518 45.2107 28.0053C45.1258 28.0587 45.0525 28.1286 44.9952 28.2109L44.6818 28.6493C44.6675 28.6697 44.6485 28.6864 44.6264 28.698C44.6044 28.7097 44.5799 28.716 44.5549 28.7165C44.5296 28.7163 44.5047 28.7102 44.4823 28.6985C44.4598 28.6868 44.4405 28.6699 44.426 28.6493L44.1126 28.2109C44.0549 28.1278 43.9808 28.0573 43.8949 28.0037C43.809 27.95 43.713 27.9144 43.6128 27.8988C43.5715 27.8923 43.5297 27.889 43.4879 27.8889V27.8909Z" fill="#7721AD"/>
<path d="M75.7805 51.6324C75.0658 51.6324 74.3671 51.4214 73.7729 51.026C73.1786 50.6306 72.7155 50.0686 72.4419 49.411C72.1684 48.7535 72.0969 48.03 72.2363 47.3319C72.3757 46.6339 72.7199 45.9927 73.2253 45.4895C73.7307 44.9862 74.3745 44.6435 75.0755 44.5046C75.7765 44.3658 76.5031 44.4371 77.1634 44.7094C77.8237 44.9818 78.3881 45.443 78.7851 46.0348C79.1822 46.6265 79.3941 47.3222 79.3941 48.034C79.3936 48.9882 79.0127 49.9031 78.3352 50.5779C77.6576 51.2526 76.7387 51.6319 75.7805 51.6324Z" fill="#7721AD"/>
<path d="M76.3755 73.8828C75.6608 73.8828 74.9621 73.6717 74.3679 73.2763C73.7736 72.8809 73.3104 72.3189 73.0369 71.6614C72.7634 71.0038 72.6918 70.2803 72.8313 69.5823C72.9707 68.8843 73.3149 68.2431 73.8203 67.7398C74.3256 67.2366 74.9695 66.8938 75.6705 66.755C76.3715 66.6161 77.098 66.6874 77.7584 66.9598C78.4187 67.2321 78.983 67.6933 79.3801 68.2851C79.7772 68.8769 79.9891 69.5726 79.9891 70.2843C79.9886 71.2385 79.6077 72.1535 78.9301 72.8282C78.2525 73.5029 77.3337 73.8822 76.3755 73.8828Z" fill="#7721AD"/>
<path d="M59.5548 101.878H41.3042C39.8211 101.878 38.6188 103.076 38.6188 104.553V108.303C38.6188 109.78 39.8211 110.977 41.3042 110.977H59.5548C61.038 110.977 62.2403 109.78 62.2403 108.303V104.553C62.2403 103.076 61.038 101.878 59.5548 101.878Z" fill="#9DAAD1"/>
<path d="M59.6024 111.467H40.7151C38.9301 111.467 37.4823 110.183 37.4823 108.607V103.701C37.4823 102.121 38.9321 100.841 40.7151 100.841H59.6024C61.3874 100.841 62.8313 102.125 62.8313 103.701V108.607C62.8313 110.183 61.3834 111.467 59.6024 111.467ZM40.7151 102.092C39.6243 102.092 38.7318 102.815 38.7318 103.701V108.607C38.7318 109.496 39.6203 110.217 40.7151 110.217H59.6024C60.6913 110.217 61.5858 109.496 61.5858 108.607V103.701C61.5858 102.815 60.6992 102.092 59.6024 102.092H40.7151Z" fill="#D33737"/>
<path d="M59.2871 71.414C59.2854 71.2914 59.2735 71.1692 59.2514 71.0486C59.1333 70.4234 58.8143 69.8534 58.3425 69.4245C57.8706 68.9956 57.2715 68.7312 56.6356 68.671C55.9996 68.6108 55.3612 68.7582 54.8167 69.0908C54.2721 69.4235 53.851 69.9235 53.6168 70.5154C53.4919 70.8064 53.4207 71.1175 53.4065 71.4337C53.3742 70.6831 53.0505 69.9744 52.5037 69.4567C51.9569 68.9391 51.2296 68.6531 50.4752 68.6589C49.9571 68.6589 49.4481 68.7949 48.9996 69.0532C48.5512 69.3116 48.179 69.683 47.9206 70.1302C47.8697 70.2112 47.8233 70.2949 47.7818 70.3811L47.762 70.4206C47.6222 70.7106 47.5381 71.0241 47.514 71.3449C47.4633 70.7232 47.2143 70.134 46.8035 69.6633C46.3927 69.1925 45.8415 68.8648 45.2304 68.7281C44.6193 68.5913 43.9803 68.6527 43.4068 68.9031C42.8332 69.1536 42.355 69.5801 42.042 70.1204C41.8186 70.4668 41.6825 70.8618 41.6454 71.2718V58.2368C41.6454 57.4511 41.3319 56.6976 40.774 56.142C40.2161 55.5864 39.4594 55.2743 38.6704 55.2743C37.8813 55.2743 37.1246 55.5864 36.5667 56.142C36.0088 56.6976 35.6954 57.4511 35.6954 58.2368V72.4133C35.6951 72.4179 35.6951 72.4226 35.6954 72.4272C35.6954 74.3192 35.6954 78.9901 35.6954 83.2245C32.2781 81.6445 28.5554 80.5997 25.7073 80.2087C21.1317 79.6833 20.7033 84.7907 23.365 85.6063C33.9996 88.1008 40.7053 97.6538 40.7053 97.6538H59.299V71.5345C59.2972 71.4941 59.2932 71.4539 59.2871 71.414Z" fill="#FFEBC0"/>
<path d="M59.297 98.274H40.7053C40.6044 98.2742 40.505 98.25 40.4155 98.2035C40.3261 98.1571 40.2492 98.0898 40.1916 98.0074C40.1261 97.9145 33.4899 88.6281 23.2222 86.2186C21.6792 85.7466 20.8164 84.1231 21.1734 82.4286C21.4927 80.9118 22.8989 79.2686 25.7787 79.5905C28.6526 79.9855 32.054 80.973 35.0667 82.2646C35.0667 78.3344 35.0667 74.2402 35.0667 72.4706C35.0657 72.4529 35.0657 72.4351 35.0667 72.4173V58.2388C35.0554 57.7613 35.1401 57.2865 35.3158 56.8421C35.4915 56.3978 35.7546 55.9929 36.0897 55.6513C36.4248 55.3096 36.8252 55.0382 37.2671 54.8528C37.7091 54.6675 38.1839 54.572 38.6634 54.572C39.143 54.572 39.6177 54.6675 40.0597 54.8528C40.5017 55.0382 40.902 55.3096 41.2371 55.6513C41.5722 55.9929 41.8354 56.3978 42.0111 56.8421C42.1868 57.2865 42.2715 57.7613 42.2602 58.2388V68.8899C42.6412 68.5663 43.0861 68.3258 43.5661 68.184C44.0462 68.0422 44.5508 68.0022 45.0474 68.0666C45.544 68.1309 46.0215 68.2983 46.4491 68.5578C46.8767 68.8174 47.2449 69.1633 47.5299 69.5733C47.8591 69.1003 48.2983 68.7136 48.81 68.446C49.3216 68.1785 49.8907 68.0381 50.4686 68.0367C51.0465 68.0353 51.6162 68.1731 52.1291 68.4382C52.642 68.7034 53.083 69.088 53.4145 69.5595C53.7462 69.0899 54.1864 68.7065 54.6978 68.4416C55.2093 68.1766 55.7772 68.0378 56.3538 68.0367C57.1892 68.0304 57.9999 68.3186 58.6424 68.8503C59.2849 69.382 59.7177 70.123 59.8643 70.942C59.8925 71.0872 59.9077 71.2345 59.9099 71.3824C59.9099 71.414 59.9218 71.5187 59.9218 71.5345V97.6479C59.9218 97.8133 59.8561 97.9719 59.739 98.0892C59.622 98.2065 59.4631 98.2729 59.297 98.274ZM41.0266 97.0238H58.6782V71.5463C58.6782 71.5463 58.6683 71.4337 58.6683 71.4278C58.6676 71.3404 58.6596 71.2532 58.6445 71.1671C58.5503 70.6349 58.2696 70.1531 57.8524 69.8074C57.4352 69.4618 56.9084 69.2745 56.3657 69.279C55.9013 69.2787 55.4475 69.4173 55.0631 69.6768C54.6787 69.9364 54.3814 70.3049 54.2098 70.7346C54.1105 70.9635 54.0534 71.2084 54.0412 71.4574C54.0335 71.6176 53.9641 71.7686 53.8473 71.879C53.7305 71.9894 53.5755 72.0506 53.4145 72.0499C53.0654 72.1112 52.7996 71.7833 52.7877 71.4574C52.7625 70.8681 52.5078 70.3116 52.0776 69.9061C51.6474 69.5005 51.0755 69.2777 50.4831 69.2849C50.0754 69.2863 49.6751 69.394 49.3222 69.5974C48.9694 69.8009 48.6762 70.0928 48.472 70.4443C48.4165 70.5331 48.3867 70.5904 48.355 70.6516C48.2394 70.884 48.1687 71.1359 48.1467 71.3942C48.1352 71.5512 48.0643 71.698 47.9484 71.8051C47.8324 71.9121 47.6801 71.9714 47.522 71.9709C47.3634 71.9703 47.211 71.9098 47.0954 71.8017C46.9799 71.6936 46.9098 71.5459 46.8992 71.3883C46.8578 70.9002 46.6608 70.4381 46.3371 70.0692C46.0134 69.7004 45.5798 69.4442 45.0996 69.3379C44.6194 69.2317 44.1177 69.2809 43.6676 69.4785C43.2175 69.6761 42.8425 70.0117 42.5974 70.4364C42.4155 70.7072 42.3038 71.0186 42.2721 71.3429C42.2584 71.5031 42.1818 71.6515 42.0589 71.7558C41.936 71.8601 41.7767 71.9119 41.6156 71.8998C41.4551 71.8913 41.304 71.8218 41.1934 71.7057C41.0827 71.5897 41.0209 71.4358 41.0206 71.2757V58.2407C41.0297 57.9286 40.9759 57.6178 40.8622 57.3268C40.7486 57.0357 40.5774 56.7703 40.3589 56.5463C40.1404 56.3223 39.879 56.1442 39.5902 56.0227C39.3013 55.9011 38.9909 55.8384 38.6773 55.8384C38.3637 55.8384 38.0533 55.9011 37.7645 56.0227C37.4756 56.1442 37.2142 56.3223 36.9957 56.5463C36.7772 56.7703 36.6061 57.0357 36.4924 57.3268C36.3787 57.6178 36.3249 57.9286 36.334 58.2407V72.3778C36.335 72.3956 36.335 72.4134 36.334 72.4311C36.334 74.3251 36.334 78.996 36.334 83.2284C36.3338 83.3334 36.307 83.4366 36.2562 83.5286C36.2054 83.6206 36.1322 83.6984 36.0434 83.7548C35.9545 83.8113 35.8528 83.8445 35.7476 83.8516C35.6425 83.8587 35.5372 83.8393 35.4415 83.7953C32.3297 82.3555 28.6625 81.2475 25.6339 80.8328C23.599 80.6037 22.6351 81.6366 22.413 82.6853C22.2246 83.5859 22.5617 84.7077 23.5613 85.0138C33.3808 87.3167 39.8267 95.4122 41.0266 97.0218V97.0238Z" fill="#7721AD"/>
<path d="M58.8586 102.06H41.4549C39.8682 102.06 38.5671 100.911 38.5671 99.4926C38.5671 98.0745 39.8623 96.9251 41.4549 96.9251H58.8586C60.4453 96.9251 61.7464 98.0745 61.7464 99.4926C61.7464 100.911 60.4512 102.06 58.8586 102.06ZM41.4549 98.1792C40.5544 98.1792 39.8206 98.7717 39.8206 99.4965C39.8206 100.221 40.5544 100.812 41.4549 100.812H58.8586C59.7591 100.812 60.4909 100.219 60.4909 99.4965C60.4909 98.7737 59.7591 98.1792 58.8586 98.1792H41.4549Z" fill="#D33737"/>
<path d="M126.429 88.9461C126.61 91.5626 126.007 94.1738 124.698 96.4494C123.389 98.7251 121.431 100.563 119.073 101.731C116.714 102.898 114.061 103.343 111.449 103.009C108.836 102.675 106.382 101.577 104.396 99.8544C102.411 98.1315 100.983 95.8608 100.293 93.3296C99.6031 90.7984 99.6826 88.1204 100.521 85.6342C101.36 83.148 102.92 80.9654 105.005 79.3623C107.089 77.7592 109.605 76.8076 112.232 76.628C113.977 76.5085 115.728 76.7323 117.385 77.2867C119.043 77.841 120.574 78.7151 121.893 79.859C123.211 81.0028 124.29 82.394 125.068 83.9532C125.847 85.5124 126.309 87.209 126.429 88.9461Z" fill="#FFEBC0"/>
<path d="M117.855 102.927C116.646 103.356 115.383 103.617 114.102 103.703C111.352 103.892 108.607 103.265 106.215 101.9C103.823 100.535 101.891 98.4949 100.663 96.0367C99.4355 93.5786 98.9674 90.8132 99.3181 88.0902C99.6688 85.3672 100.822 82.8088 102.633 80.7388C104.444 78.6687 106.831 77.1799 109.491 76.4605C112.152 75.7412 114.967 75.8236 117.581 76.6975C120.194 77.5714 122.489 79.1974 124.174 81.3699C125.86 83.5424 126.86 86.1638 127.05 88.9026C127.256 91.9175 126.47 94.9171 124.811 97.4473C123.152 99.9775 120.71 101.901 117.855 102.925V102.927ZM108.857 77.9552C106.634 78.7492 104.678 80.1448 103.208 81.9852C101.738 83.8256 100.813 86.0378 100.536 88.3731C100.26 90.7084 100.643 93.0742 101.643 95.2045C102.643 97.3349 104.219 99.1452 106.196 100.432C108.172 101.719 110.47 102.431 112.83 102.489C115.191 102.547 117.521 101.948 119.559 100.759C121.596 99.5705 123.26 97.8394 124.364 95.7606C125.468 93.6817 125.967 91.3375 125.806 88.9915C125.669 87.0435 125.08 85.1536 124.087 83.4697C123.094 81.7858 121.723 80.3535 120.082 79.2849C118.44 78.2163 116.573 77.5404 114.626 77.3101C112.678 77.0798 110.704 77.3012 108.857 77.9572V77.9552Z" fill="#7721AD"/>
<path d="M123.422 89.1515C123.562 91.1756 123.096 93.1956 122.083 94.956C121.07 96.7164 119.556 98.1382 117.731 99.0415C115.907 99.9448 113.855 100.289 111.834 100.031C109.813 99.7725 107.914 98.9233 106.378 97.5905C104.842 96.2577 103.737 94.5012 103.203 92.5431C102.67 90.585 102.731 88.5133 103.38 86.59C104.028 84.6667 105.235 82.9781 106.848 81.7378C108.46 80.4975 110.406 79.7613 112.438 79.6221C113.788 79.5294 115.143 79.7024 116.425 80.1312C117.708 80.56 118.893 81.2362 119.913 82.1211C120.933 83.006 121.768 84.0824 122.37 85.2886C122.972 86.4949 123.33 87.8075 123.422 89.1515Z" fill="white"/>
<path d="M116.816 100.103C114.66 100.869 112.317 100.941 110.118 100.31C107.919 99.6786 105.975 98.3757 104.559 96.5849C103.144 94.7942 102.328 92.606 102.229 90.3292C102.129 88.0523 102.75 85.8018 104.003 83.8951C105.257 81.9885 107.08 80.5219 109.216 79.7025C111.351 78.8831 113.691 78.7521 115.906 79.328C118.12 79.904 120.097 81.1578 121.557 82.9126C123.018 84.6673 123.888 86.8344 124.045 89.108C124.209 91.475 123.591 93.8304 122.286 95.8154C120.981 97.8003 119.06 99.306 116.816 100.103ZM109.894 80.7775C108.197 81.38 106.702 82.4423 105.578 83.8448C104.454 85.2473 103.746 86.9343 103.533 88.7159C103.32 90.4976 103.611 92.3031 104.372 93.9292C105.134 95.5553 106.336 96.9374 107.843 97.92C109.351 98.9026 111.104 99.4467 112.905 99.4909C114.707 99.5351 116.484 99.0778 118.039 98.1704C119.593 97.263 120.862 95.9415 121.703 94.3547C122.544 92.768 122.924 90.9789 122.799 89.189C122.694 87.7056 122.246 86.2664 121.49 84.9839C120.735 83.7014 119.691 82.6104 118.441 81.796C117.192 80.9815 115.77 80.4659 114.287 80.2892C112.805 80.1125 111.301 80.2796 109.894 80.7775Z" fill="#7721AD"/>
<path d="M113.43 90.5103C113.377 90.53 113.32 90.542 113.263 90.5458C113.098 90.5572 112.935 90.5029 112.81 90.3948C112.686 90.2866 112.609 90.1336 112.597 89.9691L112.218 84.4707C112.213 84.3894 112.223 84.3078 112.249 84.2305C112.275 84.1533 112.316 84.0819 112.37 84.0205C112.424 83.959 112.489 83.9088 112.563 83.8725C112.636 83.8362 112.716 83.8147 112.797 83.8091C112.879 83.8035 112.961 83.814 113.039 83.84C113.116 83.8659 113.188 83.9069 113.25 83.9604C113.311 84.014 113.362 84.0791 113.398 84.1521C113.435 84.2251 113.456 84.3045 113.462 84.3858L113.843 89.8842C113.851 90.019 113.816 90.153 113.742 90.266C113.667 90.3789 113.558 90.4647 113.43 90.5103Z" fill="#D33737"/>
<path d="M113.569 90.4254C113.427 90.4763 113.271 90.4742 113.13 90.4192C112.99 90.3643 112.874 90.2604 112.805 90.1268C112.735 89.9932 112.717 89.8391 112.753 89.6931C112.79 89.5471 112.878 89.4192 113.002 89.3332L119.017 85.1185C119.153 85.0314 119.317 85 119.475 85.0307C119.634 85.0615 119.774 85.1521 119.867 85.2836C119.96 85.4151 119.998 85.5772 119.973 85.736C119.949 85.8949 119.863 86.0381 119.735 86.1356L113.722 90.3483C113.675 90.3815 113.623 90.4075 113.569 90.4254Z" fill="#D33737"/>
<path d="M105.949 90.4767C105.96 90.6443 105.922 90.8115 105.838 90.9571C105.753 91.1027 105.628 91.2203 105.477 91.2949C105.326 91.3695 105.156 91.3978 104.988 91.3762C104.821 91.3546 104.664 91.2842 104.537 91.1737C104.41 91.0632 104.319 90.9176 104.275 90.7555C104.231 90.5933 104.236 90.4218 104.29 90.2627C104.344 90.1035 104.444 89.9638 104.578 89.8613C104.711 89.7588 104.872 89.698 105.041 89.6867C105.266 89.6715 105.489 89.7462 105.659 89.8944C105.829 90.0425 105.934 90.252 105.949 90.4767Z" fill="#D33737"/>
<path d="M122.085 89.3707C122.096 89.5378 122.057 89.7045 121.973 89.8495C121.889 89.9946 121.764 90.1116 121.613 90.1858C121.462 90.2599 121.293 90.2879 121.126 90.2661C120.959 90.2444 120.803 90.1739 120.676 90.0636C120.549 89.9533 120.458 89.8081 120.415 89.6463C120.371 89.4846 120.376 89.3136 120.43 89.1549C120.484 88.9962 120.584 88.857 120.717 88.7548C120.85 88.6526 121.011 88.592 121.179 88.5807C121.291 88.5729 121.403 88.5872 121.509 88.6228C121.615 88.6583 121.713 88.7144 121.797 88.7879C121.882 88.8613 121.95 88.9506 122 89.0506C122.049 89.1506 122.078 89.2594 122.085 89.3707Z" fill="#D33737"/>
<path d="M112.752 82.4167C112.584 82.4281 112.416 82.3894 112.269 82.3058C112.123 82.2221 112.005 82.0971 111.93 81.9466C111.855 81.7961 111.827 81.6269 111.849 81.4603C111.87 81.2937 111.941 81.1373 112.052 81.0108C112.163 80.8842 112.309 80.7933 112.472 80.7495C112.635 80.7057 112.807 80.711 112.967 80.7647C113.127 80.8183 113.267 80.918 113.37 81.0511C113.473 81.1841 113.534 81.3446 113.545 81.5122C113.56 81.7369 113.485 81.9584 113.337 82.128C113.188 82.2977 112.977 82.4015 112.752 82.4167Z" fill="#D33737"/>
<path d="M113.86 98.4873C113.692 98.4986 113.524 98.46 113.378 98.3763C113.232 98.2927 113.114 98.1677 113.039 98.0172C112.964 97.8667 112.935 97.6974 112.957 97.5309C112.979 97.3643 113.05 97.2079 113.161 97.0813C113.272 96.9548 113.418 96.8639 113.58 96.8201C113.743 96.7763 113.916 96.7816 114.075 96.8353C114.235 96.8889 114.375 96.9886 114.478 97.1216C114.581 97.2547 114.642 97.4152 114.654 97.5828C114.669 97.8075 114.594 98.029 114.445 98.1986C114.296 98.3683 114.086 98.4721 113.86 98.4873Z" fill="#D33737"/>
<path d="M141.572 22.5347H118.92C118.692 22.5347 118.473 22.6248 118.312 22.7851C118.151 22.9454 118.06 23.1629 118.059 23.3899V39.1899C118.059 39.4174 118.15 39.6356 118.311 39.7967C118.473 39.9578 118.692 40.0485 118.92 40.049H130.37C130.509 40.0491 130.646 40.0827 130.769 40.1471C130.893 40.2115 130.998 40.3046 131.077 40.4186C131.157 40.5326 131.207 40.664 131.224 40.8015C131.241 40.9391 131.224 41.0787 131.175 41.2084L131.036 41.5698C130.982 41.7135 130.974 41.8707 131.015 42.0189C131.055 42.1672 131.141 42.299 131.261 42.3957C131.381 42.4923 131.528 42.5489 131.682 42.5573C131.836 42.5658 131.989 42.5257 132.119 42.4427L135.643 40.1833C135.782 40.095 135.943 40.0484 136.108 40.049H141.572C141.8 40.0485 142.019 39.9578 142.18 39.7967C142.342 39.6356 142.432 39.4174 142.432 39.1899V23.3899C142.432 23.1629 142.341 22.9454 142.18 22.7851C142.018 22.6248 141.8 22.5347 141.572 22.5347Z" fill="#B6F2B9"/>
<path d="M131.71 43.0708C131.511 43.0692 131.314 43.0196 131.138 42.9262C130.961 42.8328 130.81 42.6984 130.697 42.5344C130.584 42.3704 130.512 42.1816 130.488 41.9841C130.464 41.7866 130.488 41.5862 130.558 41.3999L130.695 41.0385C130.716 40.9853 130.724 40.9277 130.717 40.8708C130.711 40.8139 130.69 40.7596 130.657 40.7126C130.625 40.6643 130.581 40.6248 130.529 40.5975C130.478 40.5703 130.42 40.5562 130.362 40.5566H118.92C118.558 40.5561 118.212 40.4127 117.956 40.1579C117.701 39.9031 117.557 39.5578 117.557 39.1978V23.3978C117.558 23.0381 117.702 22.6933 117.957 22.439C118.212 22.1846 118.559 22.0415 118.92 22.041H141.572C141.933 22.0415 142.279 22.1845 142.535 22.4388C142.791 22.6931 142.935 23.0379 142.936 23.3978V39.1978C142.936 39.558 142.792 39.9033 142.536 40.158C142.28 40.4127 141.933 40.5561 141.572 40.5566H136.107C136.037 40.5563 135.968 40.5762 135.909 40.6139L132.389 42.8713C132.187 43.0024 131.951 43.0717 131.71 43.0708ZM118.92 23.0364C118.826 23.0364 118.735 23.0736 118.668 23.1398C118.601 23.206 118.563 23.296 118.563 23.3899V39.1899C118.563 39.2844 118.6 39.375 118.667 39.442C118.734 39.509 118.825 39.5468 118.92 39.5474H130.37C130.59 39.5471 130.808 39.6003 131.004 39.7023C131.199 39.8044 131.367 39.9522 131.492 40.1331C131.618 40.314 131.697 40.5226 131.724 40.7409C131.75 40.9591 131.723 41.1806 131.645 41.3861L131.506 41.7475C131.488 41.7926 131.485 41.8422 131.497 41.8892C131.51 41.9361 131.537 41.9779 131.575 42.0083C131.613 42.0388 131.659 42.0564 131.708 42.0585C131.757 42.0606 131.805 42.0471 131.845 42.0201L135.372 39.7607C135.592 39.6213 135.847 39.5473 136.107 39.5474H141.572C141.666 39.5468 141.757 39.509 141.824 39.442C141.891 39.375 141.929 39.2844 141.929 39.1899V23.3899C141.928 23.296 141.89 23.206 141.823 23.1398C141.756 23.0736 141.666 23.0364 141.572 23.0364H118.92Z" fill="#7721AD"/>
<path d="M146.375 9.64785H134.759C134.701 9.64759 134.644 9.65875 134.59 9.68069C134.537 9.70263 134.488 9.73492 134.447 9.77568C134.406 9.81645 134.374 9.86489 134.352 9.9182C134.33 9.97151 134.318 10.0286 134.319 10.0863V18.1838C134.318 18.2416 134.33 18.299 134.352 18.3525C134.373 18.406 134.406 18.4547 134.447 18.4958C134.488 18.5369 134.536 18.5695 134.59 18.5919C134.643 18.6143 134.701 18.6259 134.759 18.6262H140.636C140.707 18.6258 140.777 18.6427 140.841 18.6754C140.904 18.7082 140.958 18.7557 140.999 18.814C141.04 18.8723 141.066 18.9396 141.075 19.0101C141.084 19.0806 141.075 19.1522 141.05 19.2187L140.979 19.4043C140.951 19.4781 140.947 19.5586 140.968 19.6346C140.988 19.7106 141.033 19.7781 141.094 19.8277C141.156 19.8773 141.231 19.9064 141.31 19.9109C141.389 19.9154 141.467 19.895 141.534 19.8527L143.341 18.6933C143.413 18.6486 143.496 18.6253 143.581 18.6262H146.381C146.499 18.6257 146.611 18.5788 146.694 18.4959C146.777 18.413 146.824 18.3008 146.824 18.1838V10.0863C146.824 10.0286 146.812 9.97138 146.79 9.91805C146.768 9.86473 146.735 9.81631 146.694 9.77557C146.653 9.73483 146.604 9.70257 146.55 9.68065C146.497 9.65874 146.439 9.64759 146.381 9.64785H146.375Z" fill="#B6F2B9"/>
<path d="M141.324 20.4215C141.182 20.4214 141.041 20.3869 140.916 20.3211C140.79 20.2553 140.682 20.16 140.601 20.0434C140.52 19.9269 140.469 19.7926 140.452 19.652C140.435 19.5115 140.452 19.3689 140.503 19.2365L140.54 19.1357H134.759C134.509 19.1352 134.269 19.036 134.092 18.8598C133.915 18.6836 133.815 18.4448 133.815 18.1956V10.0863C133.815 9.83712 133.915 9.59831 134.092 9.42212C134.269 9.24593 134.509 9.14672 134.759 9.14619H146.375C146.626 9.14619 146.866 9.24518 147.044 9.42142C147.221 9.59767 147.321 9.83678 147.321 10.0863V18.1937C147.321 18.4432 147.221 18.6823 147.044 18.8585C146.866 19.0348 146.626 19.1338 146.375 19.1338H143.575L141.79 20.2812C141.651 20.3706 141.489 20.4192 141.324 20.4215ZM140.636 18.1324C140.774 18.1321 140.911 18.1623 141.037 18.2208C141.163 18.2793 141.274 18.3647 141.363 18.4708C141.452 18.577 141.516 18.7014 141.551 18.8351C141.586 18.9688 141.591 19.1085 141.566 19.2444L143.069 18.2806C143.222 18.1836 143.399 18.1322 143.581 18.1324H146.381L146.32 10.1475H134.759L134.82 18.1937L140.636 18.1324Z" fill="#7721AD"/>
<path d="M29.2217 69.2573C29.2213 70.4103 28.8776 71.5373 28.234 72.4959C27.5904 73.4544 26.6759 74.2013 25.606 74.6423C24.5362 75.0833 23.359 75.1984 22.2235 74.9733C21.0879 74.7481 20.0448 74.1926 19.2262 73.3772C18.4076 72.5618 17.8502 71.5229 17.6244 70.392C17.3987 69.2611 17.5148 68.089 17.9579 67.0238C18.4011 65.9585 19.1516 65.0481 20.1143 64.4076C21.0771 63.767 22.209 63.4251 23.3669 63.4251C24.9199 63.4256 26.409 64.0403 27.507 65.134C28.6049 66.2277 29.2217 67.7109 29.2217 69.2573Z" fill="white" stroke="#7721AD" stroke-width="3" stroke-miterlimit="10"/>
<path d="M23.367 75.4627C22.1339 75.4631 20.9284 75.0994 19.903 74.4174C18.8776 73.7355 18.0783 72.7661 17.6062 71.6317C17.1342 70.4974 17.0106 69.2491 17.251 68.0448C17.4915 66.8405 18.0852 65.7343 18.9571 64.866C19.829 63.9978 20.9399 63.4065 22.1493 63.1671C23.3587 62.9276 24.6123 63.0507 25.7514 63.5208C26.8905 63.9909 27.864 64.7868 28.5489 65.8079C29.2337 66.829 29.599 68.0294 29.5986 69.2573C29.5965 70.9024 28.9393 72.4796 27.7711 73.6429C26.6029 74.8062 25.019 75.4607 23.367 75.4627Z" fill="#FFE88B" stroke="#7721AD" stroke-width="3" stroke-miterlimit="10"/>
<path d="M21.9628 69.2573V66.6779L24.2059 67.9676L26.4491 69.2573L24.2059 70.545L21.9628 71.8347V69.2573Z" fill="#7721AD"/>
<path d="M21.5859 72.4864V66.0282L27.2027 69.2573L21.5859 72.4864ZM22.3396 67.3277V71.1849L25.6954 69.2573L22.3396 67.3277Z" fill="#7721AD"/>
<path d="M121.433 52.5626C121.188 52.4139 120.993 52.1964 120.873 51.9375C120.752 51.6787 120.712 51.39 120.756 51.1081C120.8 50.8261 120.927 50.5635 121.121 50.3534C121.315 50.1433 121.567 49.9952 121.845 49.9276C122.124 49.8601 122.416 49.8763 122.685 49.9741C122.954 50.0718 123.188 50.2469 123.358 50.477C123.527 50.7072 123.624 50.9822 123.637 51.2673C123.649 51.5524 123.577 51.8347 123.428 52.0788C123.228 52.406 122.905 52.6408 122.531 52.7315C122.157 52.8222 121.762 52.7615 121.433 52.5626Z" fill="#7721AD"/>
<path d="M127.179 45.0853C126.912 44.9218 126.7 44.6835 126.569 44.4002C126.438 44.117 126.394 43.8015 126.443 43.4935C126.492 43.1855 126.631 42.8988 126.843 42.6695C127.055 42.4401 127.331 42.2784 127.635 42.2046C127.939 42.1309 128.259 42.1484 128.553 42.255C128.847 42.3616 129.103 42.5525 129.289 42.8037C129.474 43.0549 129.581 43.3551 129.595 43.6666C129.61 43.978 129.532 44.2868 129.37 44.554C129.262 44.733 129.119 44.8889 128.95 45.0127C128.781 45.1364 128.589 45.2256 128.386 45.275C128.182 45.3244 127.97 45.3331 127.763 45.3005C127.556 45.2679 127.357 45.1948 127.179 45.0853Z" fill="#7721AD"/>
<path d="M134.685 47.7831C134.441 47.6344 134.246 47.4169 134.126 47.158C134.005 46.8991 133.964 46.6105 134.008 46.3286C134.053 46.0466 134.18 45.784 134.373 45.5739C134.567 45.3638 134.819 45.2157 135.098 45.1481C135.376 45.0806 135.669 45.0968 135.938 45.1945C136.207 45.2923 136.441 45.4674 136.61 45.6975C136.78 45.9277 136.877 46.2027 136.889 46.4878C136.902 46.7728 136.829 47.0552 136.681 47.2992C136.48 47.6261 136.157 47.8605 135.783 47.9512C135.409 48.0419 135.015 47.9814 134.685 47.7831Z" fill="#7721AD"/>
<path d="M125.685 57.7628C125.44 57.6144 125.244 57.3968 125.123 57.1376C125.002 56.8785 124.96 56.5894 125.004 56.3068C125.048 56.0243 125.175 55.761 125.369 55.5503C125.563 55.3396 125.815 55.1909 126.094 55.123C126.373 55.0551 126.666 55.071 126.936 55.1688C127.205 55.2666 127.44 55.4418 127.61 55.6724C127.78 55.9029 127.877 56.1784 127.889 56.464C127.902 56.7496 127.829 57.0325 127.68 57.277C127.48 57.6046 127.158 57.8397 126.784 57.9308C126.41 58.0219 126.014 57.9615 125.685 57.7628Z" fill="#7721AD"/>
<path d="M130.507 58.298C130.262 58.1492 130.066 57.9313 129.946 57.6721C129.825 57.4128 129.784 57.1237 129.828 56.8413C129.873 56.5589 130 56.2959 130.194 56.0855C130.388 55.8751 130.641 55.7268 130.92 55.6592C131.198 55.5916 131.491 55.6079 131.761 55.7059C132.03 55.804 132.265 55.9793 132.434 56.21C132.604 56.4406 132.701 56.716 132.713 57.0015C132.726 57.2871 132.653 57.5699 132.504 57.8142C132.405 57.9767 132.274 58.1181 132.12 58.2304C131.966 58.3428 131.792 58.4237 131.606 58.4687C131.421 58.5136 131.228 58.5217 131.039 58.4924C130.851 58.4631 130.67 58.3971 130.507 58.298Z" fill="#7721AD"/>
<path d="M123.605 51.425C123.499 51.4368 123.394 51.4065 123.311 51.3408C123.228 51.275 123.175 51.1792 123.163 51.0745C123.151 50.9697 123.182 50.8646 123.248 50.7821C123.314 50.6997 123.41 50.6468 123.515 50.635L128.321 49.5369C128.373 49.5238 128.427 49.5213 128.48 49.5295C128.533 49.5377 128.583 49.5565 128.629 49.5847C128.674 49.613 128.713 49.6501 128.744 49.6938C128.774 49.7375 128.796 49.7869 128.807 49.8391C128.82 49.8909 128.822 49.9448 128.814 49.9976C128.806 50.0504 128.787 50.1009 128.758 50.1461C128.73 50.1914 128.692 50.2304 128.648 50.2607C128.604 50.2911 128.554 50.3123 128.501 50.323L123.696 51.4211C123.666 51.4263 123.635 51.4276 123.605 51.425Z" fill="#7721AD"/>
<path d="M128.412 50.3269C128.315 50.3386 128.217 50.3143 128.137 50.2586C128.057 50.2029 128.001 50.1198 127.978 50.0252C127.956 49.9306 127.97 49.831 128.016 49.7457C128.063 49.6603 128.14 49.5952 128.232 49.5626L133.932 46.762C134.028 46.7146 134.139 46.7073 134.241 46.7415C134.343 46.7758 134.427 46.8489 134.474 46.9447C134.522 47.0406 134.529 47.1513 134.495 47.2526C134.46 47.3539 134.387 47.4375 134.291 47.4849L128.591 50.2815C128.536 50.3104 128.474 50.3259 128.412 50.3269Z" fill="#7721AD"/>
<path d="M128.41 50.3269C128.309 50.3271 128.212 50.2888 128.138 50.2197C128.064 50.1507 128.02 50.0562 128.014 49.9556L127.641 45.344C127.635 45.2908 127.641 45.2371 127.657 45.1861C127.673 45.1351 127.699 45.0879 127.734 45.0473C127.769 45.0067 127.811 44.9735 127.859 44.9498C127.908 44.9262 127.96 44.9124 128.014 44.9095C128.12 44.9039 128.225 44.9394 128.305 45.0085C128.386 45.0776 128.437 45.1752 128.448 45.2808L128.815 49.8865C128.82 49.9395 128.815 49.993 128.799 50.0439C128.783 50.0948 128.757 50.1419 128.722 50.1825C128.688 50.2231 128.645 50.2563 128.597 50.2801C128.55 50.3039 128.497 50.3178 128.444 50.321L128.41 50.3269Z" fill="#7721AD"/>
<path d="M130.634 56.009C130.552 56.0101 130.472 55.986 130.404 55.94C130.337 55.8941 130.285 55.8285 130.257 55.7523L127.996 50.0583C127.956 49.9588 127.958 49.8478 128.001 49.7496C128.044 49.6514 128.124 49.5742 128.224 49.535C128.324 49.4957 128.435 49.4975 128.534 49.5401C128.632 49.5827 128.71 49.6626 128.749 49.7621L131.01 55.456C131.031 55.5052 131.042 55.558 131.041 55.6113C131.041 55.6646 131.03 55.7173 131.009 55.7662C130.987 55.8151 130.956 55.8592 130.917 55.8958C130.878 55.9325 130.832 55.9609 130.782 55.9794C130.735 55.999 130.685 56.0091 130.634 56.009Z" fill="#7721AD"/>
<path d="M126.814 55.456C126.773 55.4559 126.732 55.4499 126.693 55.4382C126.641 55.4234 126.593 55.3984 126.552 55.3647C126.51 55.3309 126.476 55.2892 126.451 55.2419C126.427 55.1947 126.412 55.1429 126.407 55.0898C126.403 55.0366 126.41 54.9832 126.427 54.9326L128.014 49.7976C128.046 49.6952 128.117 49.6097 128.213 49.5599C128.308 49.5101 128.419 49.5 128.522 49.532C128.625 49.5639 128.711 49.6353 128.761 49.7303C128.811 49.8253 128.821 49.9362 128.789 50.0386L127.19 55.1736C127.166 55.2546 127.117 55.3258 127.049 55.3766C126.981 55.4275 126.899 55.4553 126.814 55.456Z" fill="#7721AD"/>
<path d="M127.119 52.3829C126.615 52.0765 126.213 51.628 125.964 51.0941C125.716 50.5602 125.632 49.9649 125.723 49.3836C125.815 48.8022 126.077 48.261 126.478 47.8282C126.878 47.3955 127.398 47.0907 127.973 46.9525C128.547 46.8143 129.15 46.8488 129.704 47.0517C130.259 47.2546 130.741 47.6168 131.089 48.0924C131.437 48.5681 131.635 49.1358 131.659 49.7237C131.683 50.3116 131.531 50.8934 131.223 51.3954C131.019 51.7296 130.751 52.0204 130.435 52.251C130.118 52.4817 129.759 52.6477 129.377 52.7395C128.996 52.8313 128.6 52.8471 128.212 52.7859C127.825 52.7246 127.453 52.5877 127.119 52.3829Z" fill="#7721AD"/>
<path d="M21.4121 39.2091C21.9659 35.7967 19.6369 32.5834 16.2102 32.0319C12.7835 31.4804 9.55659 33.7996 9.00277 37.212C8.44896 40.6243 10.7779 43.8376 14.2047 44.3891C17.6314 44.9406 20.8583 42.6214 21.4121 39.2091Z" fill="#FFE88B"/>
<path d="M15.0092 44.7732C13.7289 44.7728 12.4775 44.3944 11.4132 43.6858C10.3489 42.9773 9.51947 41.9703 9.0298 40.7924C8.54014 39.6144 8.41222 38.3183 8.66223 37.068C8.91224 35.8176 9.52895 34.6692 10.4344 33.7678C11.3398 32.8665 12.4933 32.2527 13.749 32.0041C15.0047 31.7556 16.3062 31.8833 17.489 32.3713C18.6718 32.8593 19.6827 33.6855 20.3939 34.7456C21.1052 35.8057 21.4848 37.0519 21.4848 38.3268C21.4832 40.0364 20.8004 41.6754 19.5863 42.8841C18.3722 44.0927 16.726 44.7722 15.0092 44.7732ZM15.0092 32.2912C13.8105 32.2912 12.6386 32.6452 11.6419 33.3084C10.6451 33.9716 9.86827 34.9142 9.40952 36.0171C8.95077 37.12 8.83074 38.3335 9.06461 39.5043C9.29848 40.6751 9.87574 41.7505 10.7234 42.5946C11.5711 43.4387 12.651 44.0136 13.8268 44.2464C15.0025 44.4793 16.2212 44.3598 17.3287 43.903C18.4362 43.4462 19.3828 42.6726 20.0488 41.68C20.7148 40.6875 21.0703 39.5205 21.0703 38.3268C21.0682 36.7267 20.4289 35.1928 19.2927 34.0613C18.1565 32.9299 16.6161 32.2933 15.0092 32.2912Z" fill="#7721AD"/>
<path d="M15.0904 42.1642C15.0516 42.1649 15.0134 42.1543 14.9806 42.1336C14.9479 42.1128 14.9219 42.083 14.906 42.0477L13.6208 39.4605L11.1079 37.8508C11.0746 37.8307 11.048 37.8012 11.0314 37.7661C11.0148 37.731 11.009 37.6917 11.0147 37.6533C11.0208 37.6145 11.0378 37.5781 11.0638 37.5484C11.0898 37.5187 11.1236 37.4969 11.1614 37.4855L17.5636 35.6369C17.6007 35.6252 17.6403 35.6245 17.6777 35.6351C17.7151 35.6456 17.7485 35.6668 17.7739 35.6961C17.8007 35.7243 17.8186 35.7598 17.8253 35.7981C17.8321 35.8364 17.8273 35.8758 17.8116 35.9114L15.2808 42.0339C15.2666 42.0707 15.2416 42.1024 15.2091 42.1249C15.1765 42.1475 15.138 42.1598 15.0984 42.1603L15.0904 42.1642ZM11.7188 37.7501L13.9004 39.1445C13.9323 39.1646 13.9578 39.1934 13.9738 39.2274L15.0805 41.4592L17.2721 36.1445L11.7188 37.7501Z" fill="#7721AD"/>
<path d="M13.7815 39.5237C13.7528 39.5233 13.7245 39.5172 13.6982 39.5057C13.672 39.4941 13.6483 39.4774 13.6288 39.4565C13.6095 39.4371 13.5945 39.4139 13.5847 39.3884C13.5748 39.3629 13.5705 39.3356 13.5718 39.3083C13.5731 39.281 13.58 39.2543 13.5922 39.2299C13.6044 39.2054 13.6216 39.1837 13.6427 39.1662L17.1313 35.9924C17.1721 35.9562 17.2254 35.9373 17.28 35.9399C17.3345 35.9425 17.3858 35.9663 17.4229 36.0062C17.4422 36.0256 17.4572 36.0488 17.467 36.0743C17.4768 36.0999 17.4812 36.1271 17.4799 36.1544C17.4786 36.1817 17.4716 36.2084 17.4594 36.2329C17.4472 36.2573 17.4301 36.279 17.409 36.2965L13.9203 39.4704C13.8827 39.5054 13.833 39.5245 13.7815 39.5237Z" fill="#7721AD"/>
<path d="M15.2333 61.2842C18.6946 61.2842 21.5006 58.49 21.5006 55.0432C21.5006 51.5964 18.6946 48.8022 15.2333 48.8022C11.7719 48.8022 8.96594 51.5964 8.96594 55.0432C8.96594 58.49 11.7719 61.2842 15.2333 61.2842Z" fill="#FFE88B"/>
<path d="M15.2332 61.4896C13.9529 61.4896 12.7013 61.1115 11.6367 60.4032C10.5721 59.6949 9.74239 58.6881 9.25242 57.5102C8.76245 56.3322 8.63425 55.0361 8.88403 53.7856C9.13382 52.5351 9.75037 51.3865 10.6557 50.4849C11.5611 49.5834 12.7146 48.9694 13.9703 48.7207C15.2261 48.472 16.5277 48.5996 17.7106 49.0875C18.8935 49.5754 19.9045 50.4017 20.6158 51.4618C21.3272 52.5219 21.7068 53.7682 21.7068 55.0432C21.7047 56.7523 21.022 58.3907 19.8085 59.5992C18.5949 60.8077 16.9495 61.4875 15.2332 61.4896ZM15.2332 49.0076C14.0345 49.0076 12.8626 49.3616 11.8659 50.0248C10.8692 50.688 10.0923 51.6306 9.63355 52.7335C9.1748 53.8364 9.05477 55.0499 9.28864 56.2207C9.52251 57.3915 10.0998 58.4669 10.9474 59.311C11.7951 60.1551 12.8751 60.73 14.0508 60.9628C15.2265 61.1957 16.4452 61.0762 17.5527 60.6194C18.6602 60.1626 19.6068 59.389 20.2728 58.3964C20.9388 57.4039 21.2943 56.2369 21.2943 55.0432C21.2922 53.4431 20.653 51.9092 19.5168 50.7777C18.3805 49.6463 16.8401 49.0097 15.2332 49.0076Z" fill="#7721AD"/>
<path d="M12.6431 58.2941V52.2624H17.4923V58.2941L15.2333 56.3052L12.6431 58.2941Z" fill="#ACD4F7"/>
<path d="M17.4923 58.4995C17.442 58.4992 17.3934 58.481 17.3555 58.4481L15.2234 56.5719L12.768 58.456C12.7386 58.4827 12.7018 58.4999 12.6624 58.5055C12.623 58.5111 12.5828 58.5047 12.5471 58.4873C12.5114 58.4698 12.4817 58.442 12.4621 58.4076C12.4424 58.3731 12.4336 58.3336 12.4368 58.2941V52.2565C12.4368 52.2041 12.4577 52.1539 12.4949 52.1168C12.5321 52.0798 12.5825 52.059 12.6351 52.059H17.4844C17.537 52.059 17.5874 52.0798 17.6246 52.1168C17.6618 52.1539 17.6827 52.2041 17.6827 52.2565V58.2881C17.6839 58.3279 17.673 58.3671 17.6514 58.4006C17.6298 58.4341 17.5985 58.4603 17.5617 58.4758C17.5402 58.4876 17.5167 58.4956 17.4923 58.4995ZM12.8493 52.4678V57.8754L15.1064 56.1433C15.1436 56.113 15.1902 56.0964 15.2383 56.0964C15.2863 56.0964 15.3329 56.113 15.3702 56.1433L17.2861 57.8299V52.4678H12.8493Z" fill="#7721AD"/>
<path d="M22.5875 28.3373C26.0489 28.3373 28.8549 25.5431 28.8549 22.0963C28.8549 18.6495 26.0489 15.8553 22.5875 15.8553C19.1262 15.8553 16.3202 18.6495 16.3202 22.0963C16.3202 25.5431 19.1262 28.3373 22.5875 28.3373Z" fill="#FFE88B"/>
<path d="M22.5875 28.5427C21.3071 28.5427 20.0555 28.1646 18.991 27.4563C17.9264 26.7479 17.0966 25.7411 16.6067 24.5632C16.1167 23.3853 15.9885 22.0891 16.2383 20.8386C16.4881 19.5882 17.1046 18.4395 18.01 17.538C18.9153 16.6364 20.0688 16.0225 21.3246 15.7737C22.5803 15.525 23.8819 15.6527 25.0648 16.1406C26.2477 16.6285 27.2588 17.4547 27.9701 18.5148C28.6814 19.575 29.0611 20.8213 29.0611 22.0963C29.059 23.8053 28.3763 25.4438 27.1627 26.6523C25.9491 27.8607 24.3038 28.5406 22.5875 28.5427ZM22.5875 16.0607C21.3887 16.0607 20.2169 16.4147 19.2201 17.0779C18.2234 17.7411 17.4465 18.6837 16.9878 19.7866C16.5291 20.8894 16.409 22.103 16.6429 23.2738C16.8768 24.4446 17.454 25.52 18.3017 26.3641C19.1493 27.2082 20.2293 27.783 21.405 28.0159C22.5808 28.2488 23.7995 28.1293 24.907 27.6724C26.0145 27.2156 26.9611 26.442 27.6271 25.4495C28.2931 24.4569 28.6486 23.29 28.6486 22.0963C28.647 20.496 28.0079 18.9617 26.8716 17.8302C25.7352 16.6986 24.1945 16.0622 22.5875 16.0607Z" fill="#7721AD"/>
<path d="M22.6609 24.8356L20.2908 21.5038C20.1018 21.2382 20.0242 20.9098 20.0746 20.5882C20.1249 20.2666 20.2993 19.9772 20.5605 19.7816C20.6891 19.6868 20.8355 19.6188 20.991 19.5816C21.1465 19.5444 21.308 19.5389 21.4657 19.5652C21.6234 19.5916 21.7742 19.6494 21.909 19.735C22.0438 19.8207 22.1599 19.9326 22.2503 20.064L22.6609 20.6407L23.0714 20.064C23.1625 19.9332 23.279 19.8221 23.4141 19.7371C23.5492 19.6522 23.7001 19.5952 23.8578 19.5696C24.0155 19.544 24.1768 19.5502 24.332 19.588C24.4872 19.6258 24.6332 19.6943 24.7612 19.7895C25.0225 19.9851 25.1968 20.2744 25.2472 20.5961C25.2976 20.9177 25.22 21.2461 25.031 21.5117L22.6609 24.8356Z" fill="white"/>
<path d="M22.6609 25.041C22.6278 25.0417 22.595 25.0341 22.5655 25.0189C22.5361 25.0038 22.5109 24.9815 22.4923 24.9541L20.1223 21.6223C19.9037 21.3116 19.8152 20.9283 19.8756 20.5537C19.9359 20.1792 20.1403 19.8427 20.4455 19.6157C20.5944 19.5046 20.7642 19.4245 20.9448 19.3801C21.1253 19.3356 21.313 19.3278 21.4967 19.357C21.6828 19.387 21.861 19.4539 22.0208 19.5536C22.1805 19.6533 22.3186 19.7839 22.4269 19.9376L22.6689 20.2773L22.9108 19.9376C23.0191 19.7839 23.1572 19.6533 23.3169 19.5536C23.4767 19.4539 23.6549 19.387 23.841 19.357C24.0247 19.3278 24.2124 19.3356 24.393 19.3801C24.5735 19.4245 24.7433 19.5046 24.8922 19.6157C25.1958 19.8442 25.3983 20.1813 25.4568 20.5558C25.5152 20.9303 25.4251 21.3128 25.2055 21.6223L22.8255 24.9541C22.8073 24.9809 22.7828 25.0029 22.7541 25.018C22.7254 25.0332 22.6934 25.0411 22.6609 25.041ZM21.2726 19.752C21.0614 19.7541 20.8564 19.8233 20.6875 19.9495C20.4701 20.1137 20.3252 20.3557 20.2834 20.6243C20.2416 20.8928 20.3061 21.1671 20.4634 21.3892L22.6649 24.4841L24.8664 21.3892C25.0242 21.1673 25.089 20.8929 25.0472 20.6241C25.0053 20.3554 24.8601 20.1134 24.6423 19.9495C24.5375 19.8714 24.418 19.8151 24.2909 19.7839C24.1638 19.7527 24.0317 19.7472 23.9025 19.7678C23.7706 19.7886 23.6443 19.8357 23.5312 19.9063C23.418 19.9769 23.3204 20.0695 23.244 20.1786L22.8255 20.7533C22.8063 20.7799 22.7809 20.8017 22.7517 20.8168C22.7224 20.8319 22.6899 20.8399 22.657 20.8402C22.624 20.8399 22.5915 20.8319 22.5623 20.8168C22.533 20.8017 22.5077 20.7799 22.4884 20.7533L22.0778 20.1746C22.0015 20.0655 21.9038 19.9729 21.7907 19.9023C21.6775 19.8317 21.5512 19.7846 21.4194 19.7638C21.3695 19.7561 21.3191 19.7522 21.2686 19.752H21.2726Z" fill="#7721AD"/>
<path d="M74.7869 47.7812H74.2355C74.1325 47.7812 74.0491 47.8643 74.0491 47.9668V49.4895C74.0491 49.5921 74.1325 49.6752 74.2355 49.6752H74.7869C74.8898 49.6752 74.9733 49.5921 74.9733 49.4895V47.9668C74.9733 47.8643 74.8898 47.7812 74.7869 47.7812Z" fill="#FDFDFD"/>
<path d="M77.2779 47.9609H77.2462C77.3251 47.9609 77.4008 47.9297 77.4566 47.8741C77.5123 47.8186 77.5437 47.7432 77.5437 47.6646C77.5437 47.5861 77.5123 47.5107 77.4566 47.4551C77.4008 47.3996 77.3251 47.3684 77.2462 47.3684H76.3021C76.4525 47.1584 76.5467 46.9137 76.5758 46.6574C76.5758 46.2821 76.3775 46.0649 76.2347 46.0491C76.1772 46.0361 76.1169 46.0455 76.0661 46.0752C76.0152 46.1049 75.9777 46.1528 75.961 46.2091C75.9233 46.3236 75.9927 46.5389 75.961 46.6159C75.9193 46.7344 75.7111 46.8924 75.4294 47.2519C75.2776 47.4541 75.2012 47.7027 75.2133 47.955V49.2348C75.2138 49.2831 75.2335 49.3293 75.268 49.3634C75.3025 49.3974 75.3491 49.4165 75.3977 49.4165H77.149C77.2053 49.4165 77.2593 49.3942 77.2991 49.3546C77.3389 49.3149 77.3612 49.2612 77.3612 49.2051C77.3612 49.1491 77.3389 49.0953 77.2991 49.0557C77.2593 49.0161 77.2053 48.9938 77.149 48.9938H77.1787C77.244 48.9881 77.3047 48.9583 77.349 48.9102C77.3932 48.8622 77.4178 48.7993 77.4178 48.7341C77.4178 48.6689 77.3932 48.606 77.349 48.5579C77.3047 48.5099 77.244 48.48 77.1787 48.4744H77.274C77.3101 48.4775 77.3465 48.4731 77.3809 48.4615C77.4153 48.4499 77.4468 48.4313 77.4736 48.4069C77.5004 48.3824 77.5217 48.3527 77.5364 48.3196C77.551 48.2866 77.5585 48.2508 77.5585 48.2147C77.5585 48.1785 77.551 48.1428 77.5364 48.1097C77.5217 48.0766 77.5004 48.0469 77.4736 48.0225C77.4468 47.9981 77.4153 47.9794 77.3809 47.9678C77.3465 47.9562 77.3101 47.9518 77.274 47.955L77.2779 47.9609Z" fill="#FDFDFD"/>
<path d="M78.7118 70.1441C78.7118 70.6156 78.5714 71.0764 78.3084 71.4685C78.0454 71.8605 77.6715 72.166 77.2341 72.3464C76.7966 72.5269 76.3153 72.5741 75.8509 72.4821C75.3866 72.3901 74.96 72.1631 74.6252 71.8297C74.2904 71.4963 74.0624 71.0716 73.9701 70.6091C73.8777 70.1467 73.9251 69.6674 74.1063 69.2318C74.2875 68.7962 74.5943 68.4239 74.988 68.162C75.3817 67.9001 75.8445 67.7603 76.318 67.7603C76.6324 67.76 76.9438 67.8215 77.2344 67.9412C77.5249 68.0609 77.7889 68.2365 78.0113 68.4579C78.2336 68.6793 78.4099 68.9422 78.5301 69.2315C78.6504 69.5209 78.7121 69.831 78.7118 70.1441Z" fill="#FFEBC0"/>
<path d="M77.6983 70.4798C77.6545 70.8188 77.4862 71.1295 77.2258 71.3522C76.9654 71.5748 76.6315 71.6935 76.2884 71.6854C75.9453 71.6773 75.6174 71.543 75.368 71.3083C75.1185 71.0736 74.9651 70.7553 74.9375 70.4146C75.3708 70.6056 75.8377 70.7097 76.3114 70.7209C76.7851 70.732 77.2564 70.6501 77.6983 70.4798Z" fill="#7721AD"/>
<path d="M75.6793 69.52C75.6793 69.7293 75.5861 69.8992 75.481 69.8992C75.3758 69.8992 75.2727 69.7293 75.2727 69.52C75.2727 69.3106 75.3659 69.1408 75.481 69.1408C75.596 69.1408 75.6793 69.3106 75.6793 69.52Z" fill="#7721AD"/>
<path d="M77.4862 69.52C77.4862 69.7293 77.393 69.8992 77.2779 69.8992C77.1629 69.8992 77.0796 69.7293 77.0796 69.52C77.0796 69.3106 77.1728 69.1408 77.2779 69.1408C77.383 69.1408 77.4862 69.3106 77.4862 69.52Z" fill="#7721AD"/>
<path d="M54.3625 54.3901C56.0971 52.4507 55.9244 49.4782 53.9769 47.7509C52.0293 46.0235 49.0443 46.1954 47.3096 48.1348C45.575 50.0742 45.7477 53.0467 47.6952 54.774C49.6428 56.5014 52.6278 56.3295 54.3625 54.3901Z" fill="white"/>
<path d="M50.967 55.9478C51.3096 55.9492 51.6506 55.9033 51.9805 55.8115C52.1158 55.7764 52.2484 55.7315 52.3772 55.6772C52.2335 54.7593 52.018 53.8539 51.7326 52.9695C51.5997 52.5547 51.3895 52.0847 50.9631 51.982C50.8176 51.958 50.6684 51.9713 50.5296 52.0207C50.3908 52.0702 50.2669 52.154 50.1697 52.2644C49.9782 52.4849 49.8332 52.7414 49.7433 53.0189C49.4268 53.845 49.2162 54.7077 49.1166 55.5864C49.7061 55.8183 50.3332 55.9408 50.967 55.9478Z" fill="#FFEBC0"/>
<path d="M52.4307 55.7503C52.4124 55.7504 52.3944 55.7453 52.3789 55.7355C52.3634 55.7256 52.3511 55.7116 52.3435 55.695C52.3367 55.6815 52.3331 55.6666 52.3331 55.6515C52.3331 55.6364 52.3367 55.6216 52.3435 55.6081C52.2202 54.7664 52.0211 53.9375 51.7485 53.1314C51.6057 52.7187 51.3697 52.1597 50.9373 52.061C50.7932 52.0412 50.6464 52.0605 50.5124 52.1168C50.3783 52.1731 50.262 52.2644 50.1757 52.3809C49.968 52.6469 49.8132 52.9499 49.7195 53.2736C49.4625 54.0272 49.2941 54.8079 49.2177 55.6002C49.2151 55.6264 49.2021 55.6504 49.1817 55.6671C49.1612 55.6838 49.135 55.6917 49.1087 55.6891C49.0824 55.6864 49.0582 55.6735 49.0414 55.6531C49.0247 55.6328 49.0168 55.6066 49.0194 55.5804C49.0981 54.7735 49.2698 53.9783 49.5311 53.2104C49.6332 52.8632 49.8001 52.5382 50.023 52.2526C50.133 52.1096 50.2796 51.9988 50.4475 51.9317C50.6153 51.8646 50.7982 51.8438 50.977 51.8714C51.5025 51.9919 51.7703 52.612 51.927 53.0682C52.2115 53.9032 52.4174 54.7627 52.5418 55.6357C52.5447 55.656 52.5411 55.6767 52.5315 55.6948C52.5219 55.7129 52.5067 55.7275 52.4883 55.7365H52.4684C52.4569 55.7435 52.4441 55.7482 52.4307 55.7503Z" fill="#7721AD"/>
<g opacity="0.13">
<path d="M51.9805 50.1432C51.968 50.114 51.9475 50.0888 51.9215 50.0704C51.8954 50.052 51.8647 50.0412 51.8329 50.0392C51.801 50.0371 51.7692 50.0439 51.741 50.0588C51.7128 50.0737 51.6893 50.0961 51.6731 50.1235C51.6136 50.2677 51.6731 50.4336 51.6592 50.5856C51.642 50.7119 51.6045 50.8346 51.5481 50.949C51.5323 50.9747 51.56 50.9352 51.5699 50.9234L51.5243 50.9846L51.5065 51.0063C51.4014 51.109 51.2943 51.2038 51.1852 51.3065C51.0894 51.3693 50.9843 51.4166 50.8738 51.4467C50.8302 51.4586 50.7865 51.4704 50.7429 51.4783H50.733C50.5882 51.4783 50.4414 51.4783 50.2966 51.4783H50.2808C50.2071 51.454 50.1268 51.459 50.0567 51.4922C50.0194 51.5133 49.9893 51.5451 49.9702 51.5833C49.9512 51.6215 49.9439 51.6645 49.9494 51.7069C49.955 51.7492 49.973 51.789 50.0013 51.8211C50.0296 51.8532 50.0668 51.8762 50.1082 51.8872C50.3003 51.9495 50.5012 51.9808 50.7032 51.98C50.9534 51.9433 51.1924 51.8523 51.4033 51.7134C52.0102 51.3993 52.161 50.6271 51.9805 50.1432Z" fill="black"/>
</g>
<path d="M50.8084 52.0136C50.61 52.0136 50.4129 51.9809 50.2253 51.9168C50.117 51.8836 50.0146 51.8336 49.9218 51.7687C49.7365 51.6264 49.6011 51.4294 49.5351 51.2058C49.4827 51.0638 49.4526 50.9146 49.4458 50.7634C49.4449 50.5768 49.4799 50.3918 49.5489 50.2183C49.6589 49.9023 49.8554 49.6232 50.1162 49.4125C50.3896 49.194 50.7366 49.088 51.086 49.1163C51.2658 49.1449 51.437 49.213 51.5872 49.3154C51.7374 49.4179 51.8629 49.5522 51.9547 49.7088C52.1373 50.0005 52.231 50.3387 52.2245 50.6824C52.2282 50.8155 52.2135 50.9484 52.1808 51.0774C52.1217 51.2681 52.0194 51.4428 51.8819 51.5879C51.7443 51.7331 51.5752 51.8449 51.3875 51.9148C51.2023 51.9834 51.0059 52.0169 50.8084 52.0136ZM50.9651 49.3039C50.6996 49.3084 50.443 49.4 50.2352 49.5646C50.0037 49.754 49.8294 50.0035 49.7314 50.2855C49.672 50.4358 49.6417 50.5959 49.6422 50.7575C49.6469 50.8892 49.6731 51.0192 49.7195 51.1426C49.7735 51.3279 49.8836 51.4921 50.0349 51.6127C50.1125 51.6648 50.1973 51.7054 50.2867 51.7331C50.6214 51.8528 50.9874 51.8528 51.322 51.7331C51.4809 51.6746 51.624 51.5803 51.7403 51.4577C51.8565 51.3351 51.9428 51.1873 51.9924 51.0261C52.0195 50.9169 52.0321 50.8047 52.0301 50.6923C52.0365 50.3856 51.9531 50.0836 51.7901 49.8233C51.7129 49.6923 51.6082 49.5794 51.4833 49.4922C51.3584 49.4049 51.2162 49.3454 51.0662 49.3177L50.9651 49.3039Z" fill="#7721AD"/>
<g opacity="0.13">
<path d="M54.5093 54.2019C54.3427 54.0676 54.2336 54.2532 54.0729 54.3441C53.803 54.5481 53.5171 54.7303 53.2181 54.8892C52.9357 55.0279 52.6353 55.1269 52.3256 55.1835C51.9893 55.2801 51.6436 55.3404 51.2943 55.3632C51.0047 55.3948 50.8758 55.4284 50.6834 55.4402C50.6478 55.4423 50.612 55.4423 50.5763 55.4402L50.3304 55.4106L49.8881 55.3553C49.3542 55.2869 48.8396 55.1123 48.3748 54.8418C48.186 54.7287 48.0063 54.6013 47.8373 54.4606C47.7539 54.3844 47.6562 54.3253 47.5498 54.2868C47.511 54.282 47.4717 54.2906 47.4385 54.3112C47.4054 54.3318 47.3803 54.3631 47.3675 54.3998C47.3547 54.4366 47.355 54.4766 47.3684 54.5132C47.3817 54.5498 47.4072 54.5807 47.4407 54.6008C47.7838 54.8201 48.2221 55.2289 48.7179 55.4303C48.8032 55.4679 48.8885 55.5014 48.9758 55.531C48.9957 55.5709 49.0285 55.603 49.069 55.6219C49.0845 55.652 49.1087 55.6767 49.1384 55.693C49.6025 55.9873 50.1737 56.0347 50.7112 56.0722C51.0157 56.1123 51.3255 56.084 51.6176 55.9893L51.7286 55.9438H51.7088C51.7536 55.9314 51.7919 55.9024 51.8159 55.8629C51.8714 55.8629 51.925 55.8629 51.9805 55.8471C52.1863 55.8289 52.3875 55.7762 52.5755 55.691C52.6583 55.6659 52.7347 55.6235 52.7996 55.5666C52.8142 55.5501 52.8246 55.5304 52.8302 55.5091C52.8357 55.4879 52.8361 55.4656 52.8314 55.4442C53.1838 55.3318 53.5179 55.1688 53.823 54.9603C54.0117 54.8319 54.1937 54.6941 54.3685 54.5475C54.4299 54.4902 54.5192 54.4507 54.5549 54.3737C54.5652 54.3438 54.5664 54.3115 54.5582 54.2809C54.5501 54.2503 54.5331 54.2228 54.5093 54.2019Z" fill="black"/>
</g>
</svg>
