<svg width="183" height="124" viewBox="0 0 183 124" fill="none" xmlns="http://www.w3.org/2000/svg">
<path d="M146.357 117.72H28.3229C22.0312 117.72 16.9302 113.293 16.9302 107.833V20.2103C16.9302 14.7492 22.0312 10.3224 28.3229 10.3224H146.357C152.649 10.3224 157.749 14.7492 157.749 20.2103V107.833C157.749 113.293 152.649 117.72 146.357 117.72Z" fill="#9DAAD1"/>
<path d="M159.409 9.18262H16.9249V30.209H159.409V9.18262Z" fill="#7721AD"/>
<path d="M60.2482 16.3105C60.2482 17.2433 59.9714 18.1551 59.4527 18.9307C58.9341 19.7063 58.1969 20.3108 57.3344 20.6677C56.4719 21.0247 55.5228 21.1181 54.6072 20.9361C53.6916 20.7541 52.8505 20.3049 52.1904 19.6454C51.5303 18.9858 51.0807 18.1455 50.8986 17.2306C50.7165 16.3158 50.81 15.3675 51.1672 14.5057C51.5245 13.6439 52.1295 12.9074 52.9057 12.3891C53.6819 11.8709 54.5945 11.5943 55.5281 11.5943C56.7799 11.5943 57.9805 12.0912 58.8657 12.9757C59.7509 13.8601 60.2482 15.0597 60.2482 16.3105Z" fill="#D33737"/>
<path d="M55.5138 18.3864C54.8913 18.3845 54.2948 18.1366 53.8546 17.6968C53.4144 17.2569 53.1663 16.661 53.1644 16.039V7.1175C53.1813 6.50638 53.4361 5.92595 53.8747 5.49966C54.3133 5.07338 54.901 4.83487 55.5129 4.83487C56.1247 4.83487 56.7125 5.07338 57.151 5.49966C57.5896 5.92595 57.8444 6.50638 57.8613 7.1175V16.039C57.8594 16.6607 57.6116 17.2564 57.1718 17.6961C56.732 18.1359 56.136 18.384 55.5138 18.3864Z" fill="#9DAAD1"/>
<path d="M127.251 16.3105C127.251 17.2433 126.974 18.1551 126.455 18.9307C125.937 19.7063 125.2 20.3108 124.337 20.6677C123.475 21.0247 122.526 21.1181 121.61 20.9361C120.694 20.7541 119.853 20.3049 119.193 19.6454C118.533 18.9858 118.083 18.1455 117.901 17.2306C117.719 16.3158 117.813 15.3675 118.17 14.5057C118.527 13.6439 119.132 12.9074 119.908 12.3891C120.685 11.8709 121.597 11.5943 122.531 11.5943C123.783 11.5943 124.983 12.0912 125.868 12.9757C126.754 13.8601 127.251 15.0597 127.251 16.3105Z" fill="#D33737"/>
<path d="M122.516 18.3864C121.894 18.3845 121.297 18.1366 120.857 17.6968C120.417 17.2569 120.169 16.661 120.167 16.039V7.1175C120.184 6.50638 120.439 5.92595 120.877 5.49966C121.316 5.07338 121.904 4.83487 122.516 4.83487C123.127 4.83487 123.715 5.07338 124.154 5.49966C124.592 5.92595 124.847 6.50638 124.864 7.1175V16.039C124.862 16.6607 124.614 17.2564 124.174 17.6961C123.735 18.1359 123.139 18.384 122.516 18.3864Z" fill="#9DAAD1"/>
<path d="M149.328 16.3105C149.328 17.2433 149.051 18.1551 148.533 18.9307C148.014 19.7063 147.277 20.3108 146.414 20.6677C145.552 21.0247 144.603 21.1181 143.687 20.9361C142.772 20.7541 141.931 20.3049 141.27 19.6454C140.61 18.9858 140.161 18.1455 139.979 17.2306C139.797 16.3158 139.89 15.3675 140.247 14.5057C140.605 13.6439 141.21 12.9074 141.986 12.3891C142.762 11.8709 143.675 11.5943 144.608 11.5943C145.86 11.5943 147.061 12.0912 147.946 12.9757C148.831 13.8601 149.328 15.0597 149.328 16.3105Z" fill="#D33737"/>
<path d="M144.594 18.3864C143.971 18.3845 143.375 18.1366 142.935 17.6967C142.495 17.2569 142.246 16.661 142.245 16.039V7.11749C142.245 6.49493 142.492 5.89786 142.933 5.45764C143.373 5.01742 143.971 4.77011 144.594 4.77011C145.217 4.77011 145.814 5.01742 146.255 5.45764C146.696 5.89786 146.943 6.49493 146.943 7.11749V16.039C146.941 16.661 146.693 17.2569 146.253 17.6967C145.813 18.1366 145.216 18.3845 144.594 18.3864Z" fill="#9DAAD1"/>
<path d="M38.0099 16.3105C38.0102 17.2438 37.7336 18.1562 37.2149 18.9324C36.6961 19.7085 35.9587 20.3135 35.0958 20.6708C34.2329 21.0281 33.2833 21.1217 32.3672 20.9397C31.4511 20.7577 30.6095 20.3084 29.9491 19.6484C29.2886 18.9885 28.8388 18.1477 28.6567 17.2323C28.4745 16.3169 28.5682 15.3682 28.9258 14.506C29.2834 13.6438 29.8889 12.907 30.6657 12.3887C31.4425 11.8704 32.3557 11.594 33.2898 11.5943C34.5416 11.5943 35.7422 12.0912 36.6274 12.9757C37.5126 13.8601 38.0099 15.0597 38.0099 16.3105Z" fill="#D33737"/>
<path d="M33.2755 18.3864C32.653 18.3845 32.0565 18.1366 31.6163 17.6968C31.1762 17.2569 30.928 16.661 30.9261 16.039V7.1175C30.943 6.50638 31.1979 5.92595 31.6364 5.49966C32.075 5.07338 32.6627 4.83487 33.2746 4.83487C33.8865 4.83487 34.4742 5.07338 34.9128 5.49966C35.3513 5.92595 35.6062 6.50638 35.623 7.1175V16.039C35.6212 16.6607 35.3733 17.2564 34.9335 17.6961C34.4937 18.1359 33.8977 18.384 33.2755 18.3864Z" fill="#9DAAD1"/>
<path d="M28.9004 36.6652H145.711C146.95 36.6652 148.138 37.1568 149.014 38.0319C149.889 38.907 150.381 40.0939 150.381 41.3314V105.683C150.381 106.92 149.89 108.106 149.014 108.981C148.139 109.856 146.951 110.347 145.713 110.347H28.9004C27.6618 110.347 26.474 109.855 25.5982 108.98C24.7224 108.105 24.2303 106.918 24.2303 105.681V41.3314C24.2303 40.0939 24.7224 38.907 25.5982 38.0319C26.474 37.1568 27.6618 36.6652 28.9004 36.6652Z" fill="#D3D8ED"/>
<path d="M42.3653 36.0328H41.2621V112.655H42.3653V36.0328Z" fill="#9DAAD1"/>
<path d="M79.9655 36.0328H78.8624V112.655H79.9655V36.0328Z" fill="#9DAAD1"/>
<path d="M97.5623 36.0328H96.4592V112.655H97.5623V36.0328Z" fill="#9DAAD1"/>
<path d="M115.392 36.0328H114.288V112.655H115.392V36.0328Z" fill="#9DAAD1"/>
<path d="M133.437 36.0328H132.334V112.655H133.437V36.0328Z" fill="#9DAAD1"/>
<path d="M61.2047 36.0328H60.1016V112.655H61.2047V36.0328Z" fill="#9DAAD1"/>
<path d="M152.327 35.3683H24.2321V36.517H152.327V35.3683Z" fill="#9DAAD1"/>
<path d="M152.327 74.5413H24.2321V75.69H152.327V74.5413Z" fill="#9DAAD1"/>
<path d="M152.327 92.8738H24.2321V94.0225H152.327V92.8738Z" fill="#9DAAD1"/>
<path d="M152.327 111.449H24.2321V112.598H152.327V111.449Z" fill="#9DAAD1"/>
<path d="M152.327 54.9959H24.2321V56.1446H152.327V54.9959Z" fill="#9DAAD1"/>
<path d="M41.2622 36.6652H28.9004C27.6623 36.6652 26.4749 37.1567 25.5994 38.0314C24.724 38.9061 24.2321 40.0925 24.2321 41.3296V54.9959H41.2622V36.6652Z" fill="#FFE1E1"/>
<path d="M132.334 56.1446H115.39V74.5413H132.334V56.1446Z" fill="#FFE1E1"/>
<path d="M60.1016 56.0713H42.3653V74.4681H60.1016V56.0713Z" fill="#FFE1E1"/>
<path d="M96.5236 94.0225H80.0317V110.347H96.5236V94.0225Z" fill="#FFE1E1"/>
<path d="M150.381 75.69H133.437V92.8738H150.381V75.69Z" fill="#FFE1E1"/>
<path d="M96.4574 56.1446H79.9655V74.3448H96.4574V56.1446Z" fill="#EDEFF7"/>
<path d="M82.6295 16.3105C82.6295 17.2433 82.3527 18.1551 81.834 18.9307C81.3153 19.7063 80.5782 20.3108 79.7157 20.6677C78.8532 21.0247 77.9041 21.1181 76.9885 20.9361C76.0729 20.7541 75.2318 20.3049 74.5717 19.6454C73.9116 18.9858 73.462 18.1455 73.2799 17.2306C73.0978 16.3158 73.1913 15.3675 73.5485 14.5057C73.9058 13.6439 74.5108 12.9074 75.287 12.3891C76.0632 11.8709 76.9758 11.5943 77.9093 11.5943C79.1612 11.5943 80.3618 12.0912 81.247 12.9757C82.1322 13.8601 82.6295 15.0597 82.6295 16.3105Z" fill="#D33737"/>
<path d="M77.8951 18.3864C77.2726 18.3845 76.6761 18.1366 76.236 17.6967C75.7958 17.2569 75.5477 16.661 75.5458 16.039V7.11749C75.5458 6.49493 75.7933 5.89786 76.2339 5.45764C76.6745 5.01742 77.272 4.77011 77.8951 4.77011C78.5182 4.77011 79.1158 5.01742 79.5564 5.45764C79.9969 5.89786 80.2445 6.49493 80.2445 7.11749V16.039C80.2421 16.6608 79.9938 17.2565 79.5537 17.6962C79.1137 18.1359 78.5175 18.384 77.8951 18.3864Z" fill="#9DAAD1"/>
<path d="M105.013 16.3105C105.013 17.2438 104.736 18.1562 104.218 18.9324C103.699 19.7085 102.961 20.3135 102.099 20.6708C101.236 21.0281 100.286 21.1217 99.3699 20.9397C98.4538 20.7577 97.6123 20.3084 96.9518 19.6484C96.2913 18.9885 95.8416 18.1477 95.6594 17.2323C95.4773 16.3169 95.5709 15.3682 95.9286 14.506C96.2862 13.6438 96.8917 12.907 97.6685 12.3887C98.4453 11.8704 99.3584 11.594 100.293 11.5943C101.544 11.5948 102.745 12.0918 103.63 12.9762C104.515 13.8605 105.012 15.0598 105.013 16.3105Z" fill="#D33737"/>
<path d="M100.278 18.3864C99.6555 18.385 99.0588 18.1372 98.6185 17.6973C98.1782 17.2574 97.9302 16.6611 97.9288 16.039V7.1175C97.9457 6.50638 98.2005 5.92595 98.6391 5.49966C99.0777 5.07338 99.6654 4.83487 100.277 4.83487C100.889 4.83487 101.477 5.07338 101.915 5.49966C102.354 5.92595 102.609 6.50638 102.626 7.1175V16.039C102.624 16.6607 102.376 17.2564 101.936 17.6961C101.496 18.1359 100.9 18.384 100.278 18.3864Z" fill="#9DAAD1"/>
<path d="M171.059 70.2253H147.263C146.437 70.2253 145.644 70.5534 145.06 71.1373C144.475 71.7212 144.147 72.5132 144.147 73.3391V77.9499C144.147 78.3589 144.227 78.764 144.384 79.142C144.54 79.52 144.77 79.8635 145.059 80.1528C145.348 80.4421 145.692 80.6716 146.07 80.8282C146.448 80.9848 146.854 81.0654 147.263 81.0654H147.49L144.538 85.0974L151.452 81.0654H171.053C171.88 81.0649 172.673 80.7365 173.257 80.1523C173.842 79.568 174.17 78.7759 174.17 77.9499V73.3391C174.169 72.5143 173.842 71.7234 173.258 71.1397C172.675 70.556 171.884 70.2272 171.059 70.2253Z" fill="#7721AD"/>
<path d="M163.723 74.1358H146.99C146.879 74.1358 146.772 74.0918 146.694 74.0134C146.615 73.935 146.571 73.8287 146.571 73.7178C146.571 73.6069 146.615 73.5006 146.694 73.4222C146.772 73.3438 146.879 73.2998 146.99 73.2998H163.723C163.834 73.2998 163.94 73.3438 164.019 73.4222C164.097 73.5006 164.141 73.6069 164.141 73.7178C164.141 73.8287 164.097 73.935 164.019 74.0134C163.94 74.0918 163.834 74.1358 163.723 74.1358Z" fill="white"/>
<path d="M163.723 76.117H146.99C146.883 76.11 146.783 76.0629 146.71 75.9851C146.638 75.9073 146.597 75.8047 146.597 75.6981C146.597 75.5915 146.638 75.4888 146.71 75.4111C146.783 75.3333 146.883 75.2861 146.99 75.2791H163.723C163.829 75.2861 163.929 75.3333 164.002 75.4111C164.075 75.4888 164.116 75.5915 164.116 75.6981C164.116 75.8047 164.075 75.9073 164.002 75.9851C163.929 76.0629 163.829 76.11 163.723 76.117Z" fill="white"/>
<path d="M163.723 78.0642H146.99C146.879 78.0642 146.772 78.0202 146.694 77.9418C146.615 77.8634 146.571 77.757 146.571 77.6462C146.571 77.5353 146.615 77.429 146.694 77.3506C146.772 77.2722 146.879 77.2281 146.99 77.2281H163.723C163.834 77.2281 163.94 77.2722 164.019 77.3506C164.097 77.429 164.141 77.5353 164.141 77.6462C164.141 77.757 164.097 77.8634 164.019 77.9418C163.94 78.0202 163.834 78.0642 163.723 78.0642Z" fill="white"/>
<path d="M117.898 71.2864C117.898 71.4222 117.925 71.5566 117.976 71.6821C118.028 71.8076 118.104 71.9217 118.2 72.0177C118.296 72.1138 118.41 72.19 118.536 72.242C118.661 72.294 118.796 72.3208 118.932 72.3208H128.846C129.12 72.3208 129.384 72.2118 129.578 72.0178C129.772 71.8239 129.881 71.5608 129.881 71.2864L129.672 63.0545C129.672 62.9187 129.645 62.7842 129.593 62.6587C129.541 62.5332 129.465 62.4192 129.369 62.3231C129.272 62.2271 129.158 62.1509 129.033 62.0989C128.907 62.0469 128.773 62.0202 128.637 62.0202H119.15C119.014 62.0202 118.879 62.0469 118.754 62.0989C118.628 62.1509 118.514 62.2271 118.418 62.3231C118.322 62.4192 118.245 62.5332 118.193 62.6587C118.141 62.7842 118.115 62.9187 118.115 63.0545L117.898 71.2864Z" fill="white"/>
<path d="M128.851 72.7388H118.937C118.552 72.7384 118.182 72.5852 117.91 72.3129C117.637 72.0406 117.484 71.6715 117.483 71.2865L117.693 63.0438C117.695 62.6605 117.85 62.2938 118.122 62.0237C118.394 61.7537 118.763 61.6021 119.146 61.6022H128.642C129.027 61.6026 129.397 61.7558 129.669 62.0281C129.942 62.3003 130.095 62.6695 130.096 63.0545L130.305 71.2722C130.306 71.4639 130.269 71.654 130.197 71.8315C130.124 72.0091 130.017 72.1706 129.882 72.3068C129.747 72.4431 129.587 72.5513 129.41 72.6255C129.233 72.6996 129.043 72.7381 128.851 72.7388ZM119.15 62.44C118.987 62.44 118.83 62.5047 118.715 62.62C118.6 62.7352 118.535 62.8915 118.535 63.0545L118.326 71.2972C118.328 71.4584 118.394 71.6123 118.509 71.7253C118.624 71.8384 118.779 71.9015 118.941 71.901H128.855C129.018 71.901 129.174 71.8362 129.29 71.721C129.405 71.6057 129.47 71.4494 129.47 71.2865L129.261 63.0688C129.262 62.9873 129.247 62.9063 129.216 62.8306C129.186 62.7549 129.141 62.686 129.084 62.6279C129.027 62.5697 128.958 62.5235 128.883 62.4918C128.808 62.4602 128.727 62.4438 128.646 62.4436L119.15 62.44Z" fill="#FF6666"/>
<path d="M126.888 62.44H120.938C120.84 62.4399 120.745 62.4055 120.67 62.3429C120.595 62.2802 120.544 62.1932 120.527 62.097C120.438 61.6259 120.449 61.1415 120.559 60.6749C120.669 60.2082 120.875 59.7696 121.164 59.3871C121.453 59.0045 121.818 58.6865 122.238 58.4533C122.657 58.2201 123.12 58.0769 123.598 58.0328C124.075 57.9887 124.557 58.0448 125.012 58.1973C125.467 58.3499 125.885 58.5956 126.239 58.9188C126.593 59.242 126.876 59.6355 127.069 60.0742C127.263 60.5129 127.362 60.987 127.362 61.4664C127.362 61.6785 127.342 61.8902 127.303 62.0988C127.284 62.1949 127.232 62.2816 127.157 62.3439C127.081 62.4061 126.986 62.4401 126.888 62.44ZM121.306 61.6021H126.52C126.52 61.5575 126.52 61.5128 126.52 61.4664C126.502 60.7862 126.219 60.1399 125.731 59.6651C125.243 59.1904 124.589 58.9247 123.908 58.9247C123.227 58.9247 122.573 59.1904 122.086 59.6651C121.598 60.1399 121.315 60.7862 121.297 61.4664C121.295 61.511 121.295 61.5575 121.306 61.6021Z" fill="#FF6666"/>
<path d="M126.566 65.3358C126.37 65.3362 126.178 65.2784 126.015 65.1699C125.852 65.0614 125.725 64.9069 125.65 64.7261C125.575 64.5453 125.555 64.3463 125.593 64.1542C125.631 63.9621 125.725 63.7855 125.863 63.647C126.002 63.5084 126.178 63.4139 126.37 63.3756C126.563 63.3373 126.762 63.3568 126.943 63.4316C127.124 63.5065 127.279 63.6333 127.388 63.7961C127.497 63.9589 127.555 64.1503 127.555 64.3461C127.554 64.6082 127.45 64.8593 127.265 65.0448C127.08 65.2302 126.828 65.3349 126.566 65.3358ZM126.566 64.1925C126.536 64.1921 126.506 64.2009 126.48 64.2175C126.455 64.2342 126.435 64.2581 126.423 64.2861C126.411 64.3141 126.408 64.3451 126.413 64.375C126.419 64.4049 126.434 64.4325 126.455 64.4541C126.476 64.4758 126.504 64.4906 126.534 64.4967C126.564 64.5027 126.595 64.4998 126.623 64.4882C126.651 64.4767 126.675 64.457 126.692 64.4317C126.709 64.4064 126.718 64.3766 126.718 64.3461C126.718 64.3057 126.702 64.2669 126.674 64.2381C126.645 64.2094 126.607 64.193 126.566 64.1925Z" fill="#FF6666"/>
<path d="M121.224 65.3358C121.028 65.3358 120.836 65.2778 120.673 65.169C120.511 65.0603 120.384 64.9057 120.309 64.7249C120.234 64.544 120.214 64.345 120.252 64.153C120.291 63.9611 120.385 63.7847 120.523 63.6463C120.662 63.5079 120.838 63.4136 121.031 63.3754C121.223 63.3373 121.422 63.3569 121.603 63.4318C121.784 63.5067 121.939 63.6335 122.047 63.7963C122.156 63.959 122.214 64.1504 122.214 64.3461C122.214 64.4761 122.189 64.6048 122.139 64.7249C122.089 64.8449 122.016 64.954 121.924 65.0459C121.832 65.1378 121.723 65.2107 121.603 65.2605C121.483 65.3102 121.354 65.3358 121.224 65.3358ZM121.224 64.1925C121.193 64.1925 121.164 64.2015 121.138 64.2184C121.113 64.2353 121.093 64.2593 121.082 64.2873C121.07 64.3154 121.067 64.3463 121.073 64.3761C121.079 64.4059 121.094 64.4333 121.115 64.4548C121.137 64.4762 121.164 64.4909 121.194 64.4968C121.224 64.5027 121.255 64.4997 121.283 64.4881C121.311 64.4764 121.335 64.4567 121.352 64.4315C121.369 64.4062 121.378 64.3765 121.378 64.3461C121.378 64.3259 121.374 64.306 121.366 64.2873C121.358 64.2687 121.347 64.2517 121.333 64.2375C121.318 64.2232 121.301 64.2119 121.283 64.2042C121.264 64.1965 121.244 64.1925 121.224 64.1925Z" fill="#FF6666"/>
<path d="M142.944 45.0919L137.937 48.6076V49.1632C137.937 49.5767 137.856 49.9861 137.697 50.3682C137.539 50.7502 137.307 51.0972 137.014 51.3896C136.721 51.6819 136.374 51.9137 135.991 52.0718C135.609 52.2299 135.199 52.3111 134.785 52.3109H124.97C124.556 52.3111 124.146 52.2299 123.763 52.0718C123.381 51.9137 123.033 51.6819 122.741 51.3896C122.448 51.0972 122.216 50.7502 122.057 50.3682C121.899 49.9861 121.817 49.5767 121.817 49.1632V44.3523C121.817 43.517 122.149 42.7159 122.741 42.1253C123.332 41.5346 124.134 41.2028 124.97 41.2028H134.785C135.621 41.2028 136.423 41.5346 137.014 42.1253C137.605 42.7159 137.937 43.517 137.937 44.3523V45.0919H142.944Z" fill="white"/>
<path fill-rule="evenodd" clip-rule="evenodd" d="M126.452 46.2566C126.409 46.1248 126.379 45.9889 126.364 45.8511C126.364 45.8261 126.352 45.8011 126.348 45.7761C126.348 45.71 126.332 45.6457 126.33 45.576C126.33 44.4327 127.153 43.5055 128.168 43.5055C129.01 43.5055 129.713 44.1433 129.933 45.0079C130.151 44.1415 130.854 43.5019 131.694 43.5019C132.711 43.5019 133.536 44.4273 133.536 45.5689C133.536 45.6385 133.525 45.7028 133.519 45.7707H133.528C133.528 45.7975 133.516 45.8207 133.512 45.8475C133.495 45.9848 133.466 46.1205 133.426 46.2531V46.2834C133.41 46.3317 133.396 46.3799 133.376 46.4281C132.645 48.6648 130.096 50.4512 129.954 50.5066C129.813 50.4476 127.26 48.6594 126.525 46.4317C126.505 46.3835 126.491 46.337 126.475 46.2888C126.457 46.2781 126.454 46.2673 126.452 46.2566Z" fill="#FF6666"/>
<path d="M10.4776 34.2535H34.2731C34.6824 34.2535 35.0876 34.3341 35.4657 34.4905C35.8438 34.647 36.1874 34.8764 36.4767 35.1655C36.7661 35.4547 36.9957 35.7979 37.1523 36.1757C37.3089 36.5535 37.3895 36.9584 37.3895 37.3673V41.9781C37.3895 42.387 37.3089 42.7919 37.1523 43.1697C36.9957 43.5475 36.7661 43.8907 36.4767 44.1799C36.1874 44.469 35.8438 44.6984 35.4657 44.8548C35.0876 45.0113 34.6824 45.0919 34.2731 45.0919H34.0443L36.9908 49.1256L30.0769 45.0919H10.4776C10.0683 45.0919 9.66308 45.0113 9.28499 44.8548C8.90689 44.6984 8.56335 44.469 8.27397 44.1799C7.98459 43.8907 7.75504 43.5475 7.59842 43.1697C7.44181 42.7919 7.36121 42.387 7.36121 41.9781V37.3673C7.36121 36.9584 7.44181 36.5535 7.59842 36.1757C7.75504 35.7979 7.98459 35.4547 8.27397 35.1655C8.56335 34.8764 8.90689 34.647 9.28499 34.4905C9.66308 34.3341 10.0683 34.2535 10.4776 34.2535Z" fill="#7721AD"/>
<path d="M34.5467 38.164H17.8134C17.707 38.1571 17.6071 38.1099 17.5342 38.0321C17.4612 37.9543 17.4207 37.8517 17.4207 37.7451C17.4207 37.6385 17.4612 37.5359 17.5342 37.4581C17.6071 37.3803 17.707 37.3332 17.8134 37.3262H34.5467C34.6531 37.3332 34.753 37.3803 34.8259 37.4581C34.8989 37.5359 34.9394 37.6385 34.9394 37.7451C34.9394 37.8517 34.8989 37.9543 34.8259 38.0321C34.753 38.1099 34.6531 38.1571 34.5467 38.164Z" fill="white"/>
<path d="M34.5467 40.1434H17.8135C17.7025 40.1434 17.5961 40.0994 17.5176 40.021C17.4392 39.9426 17.3951 39.8363 17.3951 39.7254C17.3951 39.6145 17.4392 39.5082 17.5176 39.4298C17.5961 39.3514 17.7025 39.3074 17.8135 39.3074H34.5467C34.6577 39.3074 34.7641 39.3514 34.8425 39.4298C34.921 39.5082 34.9651 39.6145 34.9651 39.7254C34.9651 39.8363 34.921 39.9426 34.8425 40.021C34.7641 40.0994 34.6577 40.1434 34.5467 40.1434Z" fill="white"/>
<path d="M34.5467 42.0924H17.8134C17.707 42.0855 17.6071 42.0383 17.5342 41.9605C17.4612 41.8827 17.4207 41.7801 17.4207 41.6735C17.4207 41.5669 17.4612 41.4643 17.5342 41.3865C17.6071 41.3087 17.707 41.2615 17.8134 41.2546H34.5467C34.6531 41.2615 34.753 41.3087 34.8259 41.3865C34.8989 41.4643 34.9394 41.5669 34.9394 41.6735C34.9394 41.7801 34.8989 41.8827 34.8259 41.9605C34.753 42.0383 34.6531 42.0855 34.5467 42.0924Z" fill="white"/>
<path d="M15.1366 39.8541C15.4888 38.3629 14.5645 36.8686 13.072 36.5167C11.5795 36.1647 10.084 37.0883 9.73176 38.5795C9.3795 40.0708 10.3038 41.565 11.7963 41.917C13.2888 42.269 14.7843 41.3454 15.1366 39.8541Z" stroke="white" stroke-miterlimit="10"/>
<path d="M14.0606 38.8393C14.0713 38.6032 13.9879 38.3726 13.8287 38.1978C13.6695 38.023 13.4475 37.9184 13.2113 37.9068C13.0376 37.9059 12.8682 37.961 12.7284 38.064C12.5886 38.167 12.4858 38.3124 12.4353 38.4785C12.3844 38.3127 12.2815 38.1676 12.1418 38.0647C12.0021 37.9618 11.833 37.9064 11.6594 37.9068C11.4232 37.9184 11.2012 38.023 11.042 38.1978C10.8828 38.3726 10.7994 38.6032 10.8101 38.8393C10.8101 39.6647 12.076 40.6097 12.3889 40.7079H12.4067H12.4336H12.4586H12.4783C12.7929 40.6007 14.0606 39.6557 14.0606 38.8393Z" fill="#FDFDFD"/>
<path d="M58.4299 88.2612H82.2255C83.052 88.2612 83.8446 88.5893 84.4291 89.1732C85.0135 89.7571 85.3418 90.5491 85.3418 91.375V95.9858C85.3418 96.8116 85.0135 97.6036 84.4291 98.1875C83.8446 98.7715 83.052 99.0995 82.2255 99.0995H81.9984L84.9449 103.133L78.0274 99.0995H58.4299C57.6046 99.0976 56.8138 98.7687 56.2309 98.185C55.648 97.6013 55.3207 96.8104 55.3207 95.9858V91.375C55.3207 90.5504 55.648 89.7595 56.2309 89.1757C56.8138 88.592 57.6046 88.2631 58.4299 88.2612Z" fill="#7721AD"/>
<path d="M82.4972 92.1717H65.7658C65.6593 92.1648 65.5595 92.1176 65.4865 92.0398C65.4136 91.962 65.373 91.8594 65.373 91.7528C65.373 91.6462 65.4136 91.5436 65.4865 91.4658C65.5595 91.388 65.6593 91.3408 65.7658 91.3339H82.4972C82.6037 91.3408 82.7035 91.388 82.7765 91.4658C82.8494 91.5436 82.89 91.6462 82.89 91.7528C82.89 91.8594 82.8494 91.962 82.7765 92.0398C82.7035 92.1176 82.6037 92.1648 82.4972 92.1717Z" fill="white"/>
<path d="M82.4972 94.1529H65.7658C65.6593 94.1459 65.5595 94.0988 65.4865 94.021C65.4136 93.9432 65.373 93.8406 65.373 93.734C65.373 93.6274 65.4136 93.5248 65.4865 93.447C65.5595 93.3692 65.6593 93.322 65.7658 93.315H82.4972C82.6037 93.322 82.7035 93.3692 82.7765 93.447C82.8494 93.5248 82.89 93.6274 82.89 93.734C82.89 93.8406 82.8494 93.9432 82.7765 94.021C82.7035 94.0988 82.6037 94.1459 82.4972 94.1529Z" fill="white"/>
<path d="M82.4972 96.1001H65.7658C65.6593 96.0932 65.5595 96.046 65.4865 95.9682C65.4136 95.8904 65.373 95.7878 65.373 95.6812C65.373 95.5746 65.4136 95.472 65.4865 95.3942C65.5595 95.3164 65.6593 95.2692 65.7658 95.2623H82.4972C82.6037 95.2692 82.7035 95.3164 82.7765 95.3942C82.8494 95.472 82.89 95.5746 82.89 95.6812C82.89 95.7878 82.8494 95.8904 82.7765 95.9682C82.7035 96.046 82.6037 96.0932 82.4972 96.1001Z" fill="white"/>
<path d="M63.3664 93.9349C63.3678 94.5165 63.1964 95.0855 62.874 95.5697C62.5516 96.054 62.0927 96.4317 61.5553 96.6552C61.0179 96.8787 60.4262 96.9378 59.8552 96.8251C59.2841 96.7123 58.7594 96.4328 58.3474 96.022C57.9354 95.6111 57.6548 95.0873 57.5409 94.5169C57.427 93.9466 57.4851 93.3553 57.7078 92.8179C57.9304 92.2806 58.3077 91.8213 58.7918 91.4983C59.2758 91.1753 59.8449 91.003 60.427 91.0034C61.2056 91.0034 61.9525 91.3121 62.5035 91.8617C63.0546 92.4113 63.3649 93.1569 63.3664 93.9349Z" fill="white"/>
<path d="M62.0057 93.8617L59.6671 95.3927V92.4772L62.0057 93.8617Z" fill="#4A3EE1"/>
<path fill-rule="evenodd" clip-rule="evenodd" d="M49.2846 62.5186V78.9449C49.2846 80.333 48.1081 81.4566 46.6581 81.4566H21.257C19.8052 81.4566 18.6287 80.333 18.6287 78.9449V62.5186H49.2846Z" fill="white"/>
<path fill-rule="evenodd" clip-rule="evenodd" d="M18.6287 60.4034C18.6287 59.0172 19.8052 57.8917 21.257 57.8917H46.6581C48.1081 57.8917 49.2846 59.0172 49.2846 60.4034V62.5186H18.6287V60.4034Z" fill="#7721AD"/>
<path d="M23.3525 60.1283C23.3521 60.3273 23.4109 60.522 23.5213 60.6876C23.6316 60.8532 23.7887 60.9824 23.9726 61.0588C24.1565 61.1352 24.359 61.1554 24.5544 61.1168C24.7497 61.0782 24.9293 60.9825 25.0702 60.8419C25.2112 60.7014 25.3072 60.5221 25.3462 60.327C25.3852 60.1319 25.3654 59.9295 25.2892 59.7456C25.2131 59.5618 25.0841 59.4046 24.9185 59.294C24.7529 59.1834 24.5582 59.1244 24.3591 59.1244C24.0924 59.1244 23.8367 59.2301 23.6479 59.4183C23.4592 59.6065 23.353 59.8619 23.3525 60.1283Z" fill="white"/>
<path d="M21.9024 61.127H20.7528L21.3267 60.1319L21.9024 59.1369L22.4782 60.1319L23.0521 61.127H21.9024Z" fill="white"/>
<path d="M34.6165 70.4057H21.7612C21.456 70.4053 21.1634 70.2839 20.9476 70.0682C20.7317 69.8526 20.6103 69.5602 20.6098 69.2553V65.1375C20.6098 64.8322 20.7311 64.5394 20.9469 64.3234C21.1628 64.1073 21.4557 63.9857 21.7612 63.9853H34.6165C34.922 63.9857 35.2149 64.1073 35.4307 64.3234C35.6466 64.5394 35.7679 64.8322 35.7679 65.1375V69.2553C35.7674 69.5602 35.6459 69.8526 35.4301 70.0682C35.2143 70.2839 34.9217 70.4053 34.6165 70.4057ZM21.7612 64.6998C21.6454 64.7003 21.5344 64.7466 21.4526 64.8287C21.3709 64.9107 21.325 65.0217 21.325 65.1375V69.2553C21.325 69.371 21.3709 69.4821 21.4526 69.5641C21.5344 69.6461 21.6454 69.6925 21.7612 69.6929H34.6165C34.7326 69.6929 34.844 69.6468 34.9262 69.5647C35.0083 69.4827 35.0545 69.3713 35.0545 69.2553V65.1375C35.0545 65.0214 35.0083 64.9101 34.9262 64.828C34.844 64.7459 34.7326 64.6998 34.6165 64.6998H21.7612Z" fill="#FF6666"/>
<path d="M31.5412 66.6095H24.182C24.0872 66.6095 23.9963 66.5719 23.9292 66.5049C23.8621 66.4379 23.8245 66.347 23.8245 66.2522C23.8245 66.1575 23.8621 66.0666 23.9292 65.9996C23.9963 65.9326 24.0872 65.895 24.182 65.895H31.5412C31.636 65.895 31.727 65.9326 31.794 65.9996C31.8611 66.0666 31.8988 66.1575 31.8988 66.2522C31.8988 66.347 31.8611 66.4379 31.794 66.5049C31.727 66.5719 31.636 66.6095 31.5412 66.6095Z" fill="#FF6666"/>
<path d="M31.5412 68.4353H27.8616C27.7668 68.4353 27.6758 68.3976 27.6088 68.3306C27.5417 68.2636 27.504 68.1727 27.504 68.078C27.504 67.9832 27.5417 67.8924 27.6088 67.8254C27.6758 67.7583 27.7668 67.7207 27.8616 67.7207H31.5412C31.636 67.7207 31.727 67.7583 31.794 67.8254C31.8611 67.8924 31.8988 67.9832 31.8988 68.078C31.8988 68.1727 31.8611 68.2636 31.794 68.3306C31.727 68.3976 31.636 68.4353 31.5412 68.4353Z" fill="#FF6666"/>
<path d="M55.0131 67.9422C54.8384 67.9422 54.6675 67.8904 54.5222 67.7934C54.3769 67.6963 54.2637 67.5584 54.1969 67.397C54.1301 67.2357 54.1128 67.0581 54.147 66.8869C54.1812 66.7157 54.2655 66.5584 54.3892 66.4351C54.5129 66.3117 54.6705 66.2278 54.8419 66.194C55.0134 66.1601 55.191 66.1778 55.3524 66.2449C55.5137 66.312 55.6515 66.4254 55.7484 66.5707C55.8452 66.7161 55.8967 66.8869 55.8964 67.0615C55.8959 67.2952 55.8026 67.5193 55.637 67.6844C55.4714 67.8495 55.2471 67.9422 55.0131 67.9422ZM55.0131 66.8918C54.9798 66.8915 54.9472 66.901 54.9193 66.919C54.8913 66.9371 54.8693 66.963 54.856 66.9934C54.8426 67.0239 54.8385 67.0576 54.8442 67.0904C54.8498 67.1231 54.865 67.1535 54.8878 67.1777C54.9106 67.202 54.94 67.219 54.9724 67.2266C55.0048 67.2343 55.0387 67.2323 55.07 67.2209C55.1012 67.2094 55.1284 67.1891 55.1482 67.1623C55.168 67.1356 55.1794 67.1036 55.1812 67.0704C55.1832 67.0471 55.1803 67.0237 55.1727 67.0015C55.1652 66.9794 55.1532 66.959 55.1374 66.9417C55.1216 66.9245 55.1024 66.9106 55.081 66.9011C55.0597 66.8916 55.0365 66.8866 55.0131 66.8864V66.8918Z" fill="#FF6666"/>
<path d="M55.1758 67.4224H35.5515C35.4442 67.4224 35.3566 67.2634 35.3566 67.0651C35.3566 66.8668 35.4442 66.7078 35.5515 66.7078H55.1758C55.2831 66.7078 55.3707 66.8668 55.3707 67.0651C55.3707 67.2634 55.2831 67.4224 55.1758 67.4224Z" fill="#FF6666"/>
<path d="M86.3484 63.8155C86.0619 63.8409 85.7741 63.8481 85.4866 63.837C84.9735 63.8263 84.489 63.8156 84.0205 64.1085C83.5521 64.4015 83.4108 65.0678 83.3912 65.4216C83.385 65.586 83.3892 65.7507 83.4037 65.9146C83.4234 66.2022 83.4287 66.3577 83.334 66.5024C83.2359 66.6248 83.1078 66.7197 82.9621 66.778C82.8164 66.8362 82.6581 66.8557 82.5026 66.8346C82.4459 66.8277 82.3897 66.817 82.3345 66.8025C81.9358 66.6881 81.3601 66.0665 80.9811 65.6538L80.8166 65.4752C80.7057 65.3572 80.5966 65.2304 80.4804 65.0946C80.0567 64.6016 79.6186 64.0889 79.0322 63.9656C78.9324 63.9447 78.8315 63.9292 78.73 63.9192C78.4036 63.8919 78.0758 63.8841 77.7485 63.8959C77.5017 63.8959 77.2443 63.8959 76.96 63.8959H76.9546L71.0992 63.9442C71.012 63.9445 70.9249 63.9403 70.8381 63.9317C70.2864 63.8741 69.7754 63.6151 69.4029 63.2043C69.0304 62.7936 68.8227 62.26 68.8195 61.7058L68.7444 52.502C68.7402 51.9048 68.973 51.3303 69.3919 50.9044C69.8108 50.4784 70.3817 50.2358 70.9794 50.2297L86.0802 50.1064C86.168 50.1058 86.2558 50.1106 86.3431 50.1207C86.893 50.1791 87.4023 50.4377 87.7736 50.8473C88.1449 51.2568 88.3523 51.7886 88.3563 52.3412L88.4314 61.545C88.4359 62.0958 88.2382 62.6292 87.8758 63.0442C87.5135 63.4593 87.0114 63.7274 86.4646 63.7977L86.3484 63.8155Z" fill="#7721AD"/>
<path d="M82.8298 56.3732C82.9937 56.394 83.1486 56.4597 83.2773 56.5631C83.4061 56.6665 83.5037 56.8035 83.5592 56.9589C83.6148 57.1144 83.6262 57.2822 83.5921 57.4437C83.558 57.6052 83.4798 57.7541 83.3662 57.8738C83.2848 57.9576 83.1876 58.0242 83.0801 58.0699C82.9727 58.1157 82.8572 58.1395 82.7404 58.14H82.6367C82.4251 58.0995 82.2352 57.9839 82.1021 57.8146C81.969 57.6453 81.9016 57.4336 81.9122 57.2186C81.9229 57.0036 82.0109 56.7996 82.1601 56.6443C82.3094 56.489 82.5097 56.3927 82.7243 56.3732C82.7588 56.3715 82.7934 56.3715 82.828 56.3732" fill="white"/>
<path d="M78.8802 56.4125C79.0441 56.4333 79.199 56.499 79.3278 56.6024C79.4565 56.7058 79.5541 56.8428 79.6097 56.9983C79.6652 57.1537 79.6766 57.3215 79.6425 57.483C79.6084 57.6445 79.5302 57.7934 79.4166 57.9132C79.2513 58.0808 79.0264 58.1765 78.7908 58.1793C78.7563 58.1811 78.7217 58.1811 78.6871 58.1793C78.4718 58.1542 78.2729 58.0518 78.1275 57.8911C77.9821 57.7304 77.9002 57.5224 77.8969 57.3058C77.8968 57.0716 77.9888 56.8468 78.153 56.6798C78.3172 56.5127 78.5404 56.4168 78.7747 56.4125C78.8093 56.4108 78.8439 56.4108 78.8784 56.4125" fill="white"/>
<path d="M74.9307 56.4518C75.141 56.4937 75.3292 56.6096 75.461 56.7786C75.5929 56.9475 75.6596 57.1581 75.649 57.3721C75.6384 57.5861 75.5511 57.7891 75.4032 57.9441C75.2553 58.0992 75.0565 58.196 74.8431 58.2168C74.8085 58.2186 74.7739 58.2186 74.7394 58.2168C74.5291 58.1751 74.3409 58.0594 74.2089 57.8906C74.0769 57.7218 74.0101 57.5113 74.0205 57.2974C74.0309 57.0834 74.1179 56.8804 74.2656 56.7252C74.4133 56.57 74.6119 56.473 74.8252 56.4518C74.8603 56.4492 74.8956 56.4492 74.9307 56.4518Z" fill="white"/>
<path d="M123.602 107.464C126.394 107.464 128.658 105.202 128.658 102.412C128.658 99.6214 126.394 97.3596 123.602 97.3596C120.809 97.3596 118.545 99.6214 118.545 102.412C118.545 105.202 120.809 107.464 123.602 107.464Z" fill="white"/>
<path d="M123.602 107.63C122.568 107.63 121.558 107.324 120.699 106.751C119.839 106.177 119.169 105.362 118.774 104.408C118.378 103.454 118.274 102.405 118.476 101.392C118.677 100.379 119.175 99.4489 119.906 98.7188C120.637 97.9886 121.568 97.4914 122.581 97.2901C123.595 97.0887 124.645 97.1922 125.6 97.5875C126.555 97.9828 127.371 98.6522 127.945 99.5109C128.518 100.37 128.825 101.379 128.824 102.412C128.822 103.795 128.272 105.121 127.293 106.099C126.314 107.078 124.986 107.628 123.602 107.63ZM123.602 97.5239C122.634 97.5236 121.688 97.8099 120.884 98.3468C120.079 98.8836 119.452 99.6469 119.081 100.54C118.711 101.433 118.613 102.416 118.802 103.364C118.99 104.312 119.456 105.183 120.14 105.867C120.824 106.551 121.696 107.017 122.645 107.205C123.594 107.394 124.578 107.297 125.472 106.927C126.365 106.558 127.13 105.931 127.667 105.127C128.205 104.323 128.492 103.378 128.492 102.412C128.49 101.116 127.975 99.874 127.058 98.9577C126.141 98.0414 124.898 97.5258 123.602 97.5239Z" fill="#7721AD"/>
<path d="M121.512 105.043V100.159H125.424V105.043L123.602 103.433L121.512 105.043Z" fill="#ACD4F7"/>
<path d="M125.424 105.209C125.384 105.209 125.345 105.194 125.315 105.168L123.595 103.65L121.612 105.175C121.587 105.194 121.558 105.205 121.527 105.208C121.496 105.21 121.465 105.205 121.437 105.191C121.41 105.177 121.386 105.156 121.37 105.13C121.353 105.104 121.344 105.074 121.344 105.043V100.159C121.344 100.115 121.362 100.072 121.393 100.041C121.425 100.01 121.467 99.9928 121.512 99.9928H125.424C125.468 99.9928 125.51 100.01 125.542 100.041C125.573 100.072 125.591 100.115 125.592 100.159V105.043C125.59 105.075 125.581 105.106 125.563 105.132C125.546 105.159 125.522 105.181 125.493 105.195C125.471 105.204 125.448 105.209 125.424 105.209ZM121.669 100.325V104.704L123.491 103.301C123.521 103.277 123.558 103.264 123.596 103.264C123.635 103.264 123.672 103.277 123.702 103.301L125.248 104.666V100.325H121.669Z" fill="#7721AD"/>
<path d="M38.1358 103.348C38.5808 100.594 36.7067 98.0002 33.9499 97.5555C31.1931 97.1109 28.5975 98.9834 28.1525 101.738C27.7074 104.492 29.5815 107.086 32.3383 107.531C35.0951 107.975 37.6907 106.103 38.1358 103.348Z" fill="white"/>
<path d="M33.1503 107.773C32.117 107.773 31.107 107.467 30.2478 106.893C29.3887 106.319 28.7191 105.504 28.3236 104.55C27.9282 103.597 27.8248 102.547 28.0264 101.534C28.2279 100.522 28.7255 99.5917 29.4561 98.8617C30.1868 98.1316 31.1177 97.6345 32.1311 97.4331C33.1445 97.2317 34.1949 97.335 35.1496 97.7301C36.1042 98.1252 36.9201 98.7943 37.4942 99.6527C38.0682 100.511 38.3746 101.52 38.3746 102.553C38.3732 103.937 37.8223 105.264 36.8429 106.242C35.8635 107.221 34.5354 107.771 33.1503 107.773ZM33.1503 97.6668C32.1832 97.6672 31.238 97.954 30.4341 98.4911C29.6301 99.0282 29.0037 99.7914 28.6338 100.684C28.264 101.577 28.1674 102.559 28.3563 103.507C28.5452 104.455 29.011 105.325 29.695 106.008C30.3789 106.691 31.2502 107.157 32.1988 107.345C33.1473 107.533 34.1304 107.436 35.0238 107.067C35.9172 106.697 36.6809 106.07 37.2181 105.267C37.7553 104.464 38.0421 103.519 38.0421 102.553C38.0407 101.257 37.5248 100.015 36.6076 99.0988C35.6905 98.1828 34.4471 97.6678 33.1503 97.6668Z" fill="#7721AD"/>
<path d="M33.2111 105.652C33.1799 105.652 33.1492 105.644 33.1227 105.627C33.0961 105.611 33.0747 105.587 33.0609 105.559L32.0257 103.464L29.9982 102.16C29.9716 102.142 29.9506 102.118 29.9375 102.089C29.9244 102.06 29.9198 102.028 29.9244 101.997C29.9289 101.965 29.9423 101.936 29.9629 101.912C29.9836 101.888 30.0108 101.87 30.0411 101.861L35.2064 100.363C35.2364 100.354 35.2682 100.354 35.2982 100.363C35.3282 100.371 35.3553 100.388 35.3763 100.411C35.3981 100.434 35.4126 100.464 35.418 100.496C35.4234 100.527 35.4195 100.56 35.4067 100.589L33.3649 105.556C33.3526 105.585 33.3321 105.611 33.3058 105.629C33.2795 105.648 33.2485 105.658 33.2165 105.659L33.2111 105.652ZM30.4863 102.079L32.2438 103.21C32.2698 103.226 32.2908 103.249 32.3046 103.276L33.1986 105.082L34.9687 100.781L30.4863 102.079Z" fill="#7721AD"/>
<path d="M32.1544 103.521C32.1207 103.521 32.0878 103.511 32.0599 103.492C32.032 103.473 32.0105 103.446 31.9983 103.415C31.9861 103.384 31.9837 103.349 31.9915 103.317C31.9992 103.284 32.0168 103.254 32.0418 103.232L34.8578 100.664C34.8908 100.639 34.9323 100.626 34.9741 100.63C35.0159 100.633 35.0547 100.652 35.083 100.683C35.1112 100.714 35.1267 100.755 35.1264 100.797C35.1261 100.838 35.11 100.879 35.0813 100.909L32.2671 103.478C32.2361 103.506 32.196 103.521 32.1544 103.521Z" fill="#7721AD"/>
<path d="M172.187 76.2178C172.427 74.6395 171.341 73.1658 169.761 72.9263C168.182 72.6868 166.707 73.772 166.467 75.3503C166.227 76.9286 167.313 78.4022 168.893 78.6418C170.473 78.8813 171.948 77.796 172.187 76.2178Z" stroke="white" stroke-miterlimit="10"/>
<path d="M168.414 75.4614H167.917C167.825 75.4614 167.749 75.5365 167.749 75.6293V77.0066C167.749 77.0994 167.825 77.1746 167.917 77.1746H168.414C168.507 77.1746 168.582 77.0994 168.582 77.0066V75.6293C168.582 75.5365 168.507 75.4614 168.414 75.4614Z" fill="#FDFDFD"/>
<path d="M170.662 75.6239H170.631C170.703 75.6239 170.771 75.5957 170.821 75.5454C170.871 75.4952 170.9 75.427 170.9 75.356C170.9 75.2849 170.871 75.2167 170.821 75.1665C170.771 75.1162 170.703 75.088 170.631 75.088H169.782C169.917 74.8973 170.001 74.6763 170.029 74.4449C170.029 74.1037 169.841 73.9089 169.72 73.8929C169.668 73.8813 169.614 73.89 169.568 73.9173C169.522 73.9445 169.489 73.9882 169.475 74.0393C169.439 74.143 169.502 74.3377 169.475 74.4056C169.439 74.5128 169.251 74.6575 168.997 74.9826C168.86 75.1649 168.792 75.3892 168.802 75.6168V76.7762C168.802 76.8198 168.82 76.8616 168.851 76.8924C168.881 76.9232 168.923 76.9405 168.967 76.9405H170.546C170.593 76.9359 170.638 76.9137 170.67 76.8782C170.702 76.8427 170.72 76.7964 170.72 76.7485C170.72 76.7005 170.702 76.6543 170.67 76.6188C170.638 76.5833 170.593 76.5611 170.546 76.5564H170.572C170.605 76.5593 170.638 76.5553 170.669 76.5448C170.7 76.5343 170.728 76.5175 170.752 76.4954C170.777 76.4733 170.796 76.4464 170.809 76.4165C170.822 76.3866 170.829 76.3542 170.829 76.3215C170.829 76.2888 170.822 76.2565 170.809 76.2266C170.796 76.1966 170.777 76.1698 170.752 76.1477C170.728 76.1256 170.7 76.1088 170.669 76.0982C170.638 76.0877 170.605 76.0838 170.572 76.0866H170.66C170.719 76.0815 170.774 76.0545 170.814 76.011C170.853 75.9675 170.876 75.9107 170.876 75.8517C170.876 75.7927 170.853 75.7359 170.814 75.6924C170.774 75.6489 170.719 75.6219 170.66 75.6168L170.662 75.6239Z" fill="#FDFDFD"/>
</svg>
