<svg width="140" height="124" viewBox="0 0 140 124" fill="none" xmlns="http://www.w3.org/2000/svg">
<g clip-path="url(#clip0_146_8)">
<path d="M187 -20H-48V136H187V-20Z" fill="white"/>
<path d="M65.6934 119.677C50.8654 118.776 37.1331 109.728 28.7727 97.4467C16.186 78.9678 11.1769 48.9733 26.2255 30.4376C40.7974 12.4905 67.4651 10.8029 88.0848 18.0144C102.571 23.0773 115.279 33.8767 121.106 48.0302C134.718 81.0951 101.276 120.726 66.967 119.733C66.5401 119.719 66.1203 119.705 65.6934 119.677Z" fill="#FFEBC0"/>
<path d="M33.0205 87.1224H28.9008C28.8225 87.1224 28.7585 87.0585 28.7585 86.9805V82.8749C28.7585 82.7969 28.8225 82.7331 28.9008 82.7331H33.0205C33.0987 82.7331 33.1628 82.7969 33.1628 82.8749V86.9805C33.1699 87.0585 33.1058 87.1224 33.0205 87.1224ZM29.0502 86.8387H32.8782V83.0238H29.0502V86.8387Z" fill="#8800A2"/>
<path d="M30.6654 86.2076C30.6227 86.2076 30.5871 86.1934 30.5586 86.1651L29.4344 84.9738C29.3775 84.9171 29.3846 84.8249 29.4416 84.7753C29.4985 84.7256 29.591 84.7256 29.6408 84.7824L30.6511 85.8531L32.4868 83.428C32.5367 83.3642 32.622 83.35 32.6861 83.3996C32.7501 83.4493 32.7643 83.5344 32.7145 83.5982L30.7792 86.158C30.7507 86.1934 30.7152 86.2147 30.6725 86.2147L30.6654 86.2076Z" fill="#8800A2"/>
<path d="M37.0263 36.1174C37.005 36.1174 36.9765 36.1104 36.9552 36.1033L35.3827 35.2807L33.8103 36.1033C33.7534 36.1316 33.6893 36.1245 33.6466 36.0891C33.5968 36.0536 33.5755 35.9969 33.5826 35.9402L33.8814 34.1958L32.6149 32.962C32.5722 32.9194 32.558 32.8627 32.5722 32.806C32.5936 32.7493 32.6363 32.7067 32.7003 32.6996L34.4578 32.4443L35.2404 30.856C35.2973 30.7496 35.4681 30.7496 35.5179 30.856L36.3006 32.4443L38.058 32.6996C38.115 32.7067 38.1648 32.7493 38.1861 32.806C38.2075 32.8627 38.1861 32.9265 38.1434 32.962L36.8769 34.1958L37.1757 35.9402C37.1829 35.9969 37.1615 36.0607 37.1117 36.0891C37.0904 36.1104 37.0619 36.1174 37.0263 36.1174ZM35.3827 34.9474C35.4041 34.9474 35.4325 34.9545 35.4539 34.9616L36.8129 35.6778L36.5496 34.1674C36.5425 34.1178 36.5567 34.0682 36.5923 34.0327L37.6952 32.962L36.1725 32.7422C36.1227 32.7351 36.08 32.7067 36.0516 32.6571L35.3685 31.2814L34.6854 32.6571C34.6641 32.7067 34.6214 32.7351 34.5645 32.7422L33.0418 32.962L34.1447 34.0327C34.1803 34.0682 34.2016 34.1178 34.1874 34.1674L33.9241 35.6778L35.2831 34.9616C35.3329 34.9545 35.3614 34.9474 35.3827 34.9474Z" fill="#8800A2"/>
<path d="M108.337 66.0978C108.301 66.0978 108.259 66.0907 108.223 66.0695C108.145 66.0269 108.102 65.9489 108.102 65.8638V59.7302C108.102 59.6451 108.152 59.56 108.23 59.5245C108.309 59.482 108.401 59.4891 108.472 59.5387L112.997 62.7084C113.062 62.7509 113.097 62.8289 113.097 62.9069C113.097 62.9849 113.054 63.0558 112.99 63.0984L108.465 66.0624C108.43 66.0836 108.38 66.0978 108.337 66.0978ZM108.572 60.184V65.4313L112.442 62.8998L108.572 60.184Z" fill="#8800A2"/>
<path d="M109.895 67.7571C107.191 67.7571 105 65.566 105 62.8785C105 60.184 107.199 58 109.895 58C112.599 58 114.79 60.1911 114.79 62.8785C114.79 65.566 112.599 67.7571 109.895 67.7571ZM109.895 58.4609C107.455 58.4609 105.47 60.4393 105.47 62.8715C105.47 65.3036 107.455 67.282 109.895 67.282C112.336 67.282 114.321 65.3036 114.321 62.8715C114.321 60.4393 112.336 58.4609 109.895 58.4609Z" fill="#8800A2"/>
<path d="M35.9519 65.2682L26.7591 65.1334C26.6737 65.1334 26.6026 65.0625 26.6026 64.9703L26.7378 55.6529C26.7378 55.5678 26.8089 55.4969 26.9014 55.4969L36.0942 55.6316C36.1796 55.6316 36.2508 55.7025 36.2508 55.7947L36.1156 65.1122C36.1085 65.1973 36.0373 65.2682 35.9519 65.2682ZM26.9157 64.8214L35.7954 64.9491L35.9306 55.9436L27.0509 55.816L26.9157 64.8214Z" fill="#8800A2"/>
<path d="M35.3187 62.8998L34.9772 62.8927C34.9772 62.8714 34.9843 62.8572 34.9772 62.836L32.6007 57.9503C32.5651 57.8865 32.5011 57.844 32.4299 57.844C32.3588 57.844 32.2876 57.8794 32.2521 57.9503L30.7365 60.8363L29.8329 60.1272C29.7902 60.0918 29.7333 60.0776 29.6835 60.0918C29.6266 60.0989 29.5839 60.1343 29.5554 60.1769L27.8762 62.7934L27.4208 62.7863C27.3141 62.7863 27.2287 62.8714 27.2216 62.9778C27.2216 63.0842 27.307 63.1692 27.4137 63.1763L35.3116 63.2898C35.4183 63.2898 35.5037 63.2047 35.5108 63.0983C35.5108 62.992 35.4254 62.9069 35.3187 62.8998ZM29.7689 60.5669L30.6867 61.2831C30.7365 61.3185 30.7934 61.3327 30.8504 61.3185C30.9073 61.3043 30.9571 61.2689 30.9784 61.2192L32.4228 58.468L34.5716 62.8927L28.3316 62.8005L29.7689 60.5669Z" fill="#8800A2"/>
<path d="M30.0677 59.5813C30.708 59.5884 31.2346 59.0778 31.2417 58.4396C31.2488 57.8014 30.7365 57.2767 30.0961 57.2696C29.4558 57.2625 28.9292 57.7731 28.9221 58.4113C28.915 59.0424 29.4273 59.5742 30.0677 59.5813ZM30.0961 57.6525C30.523 57.6596 30.8646 58.0071 30.8575 58.4325C30.8503 58.858 30.5017 59.1984 30.0748 59.1913C29.6479 59.1842 29.3064 58.8367 29.3135 58.4113C29.3135 57.9858 29.6692 57.6454 30.0961 57.6525Z" fill="#8800A2"/>
<path d="M104.506 27H40V115H104.506V27Z" fill="white"/>
<path d="M101.817 37.1223H43.7337V102H101.817V37.1223Z" fill="#A6BFD5"/>
<path d="M100.611 31.9087H45.3891C44.621 31.9087 44 31.5093 44 31.0153C44 30.5213 44.621 30.1218 45.3891 30.1218H100.611C101.379 30.1218 102 30.5213 102 31.0153C102 31.5093 101.379 31.9087 100.611 31.9087Z" fill="#FFEBC0"/>
<path d="M66.7476 107.101H57.888C57.3922 107.101 56.9915 106.701 56.9915 106.207C56.9915 105.713 57.3922 105.314 57.888 105.314H66.7476C67.2433 105.314 67.6441 105.713 67.6441 106.207C67.6441 106.701 67.2433 107.101 66.7476 107.101Z" fill="#FFEBC0"/>
<path d="M95.0246 106.995H70.7345C70.2387 106.995 69.838 106.596 69.838 106.102C69.838 105.608 70.2387 105.209 70.7345 105.209H95.0246C95.5203 105.209 95.9211 105.608 95.9211 106.102C95.9105 106.607 95.5097 106.995 95.0246 106.995Z" fill="#FFEBC0"/>
<path d="M85.1629 109.97H57.5821C57.0864 109.97 56.6856 109.571 56.6856 109.077C56.6856 108.583 57.0864 108.183 57.5821 108.183H85.1629C85.6587 108.183 86.0594 108.583 86.0594 109.077C86.0594 109.571 85.6587 109.97 85.1629 109.97Z" fill="#FFEBC0"/>
<path d="M52.5617 103.684C51.7073 103.705 50.969 104.189 50.5894 104.893C50.178 104.21 49.4292 103.758 48.5643 103.769C47.2881 103.8 46.2756 104.851 46.2966 106.123C46.3283 107.395 48.2268 109.045 50.7265 111.694C52.9941 109.182 54.9453 107.216 54.9242 105.944C54.9031 104.672 53.8379 103.663 52.5617 103.684Z" fill="#E17660"/>
<g clip-path="url(#clip1_146_8)">
<path d="M80.3598 85.6433C80.4832 85.7098 80.6239 85.7365 80.7629 85.7197C80.9019 85.7028 81.0323 85.6432 81.1366 85.5491C81.2409 85.4549 81.314 85.3306 81.346 85.1931C81.378 85.0556 81.3673 84.9114 81.3154 84.7802C81.3293 84.7104 81.3393 84.6603 81.3532 84.5905C81.6202 84.339 81.9556 84.1736 82.3163 84.1157C82.6771 84.0578 83.0467 84.1099 83.3779 84.2654C83.7091 84.4209 83.9868 84.6726 84.1753 84.9884C84.3638 85.3042 84.4545 85.6696 84.4359 86.0378C84.3514 88.1143 84.453 90.3549 83.0856 92.0288C89.3267 86.8815 92.1724 78.1129 90.2665 70.2263C89.3312 68.911 88.895 67.1637 89.3144 65.5804C89.8407 66.097 90.8666 65.9582 90.7098 65.0639C90.6257 64.7104 90.5387 64.358 90.4546 64.0046C94.0492 62.5889 94.9877 67.9834 90.7297 70.1798C91.0751 71.6792 91.2643 73.2109 91.2942 74.75C91.7748 73.3622 92.5751 72.1094 93.6291 71.0947C94.6496 70.1673 95.999 69.622 97.2543 68.9999C98.7818 68.2408 100.477 69.7457 99.8757 71.3522C98.8588 71.2209 98.1393 72.4476 99.0621 73.1068C97.4413 75.8539 94.3337 77.6 91.1763 77.6278C90.857 80.7624 89.8794 83.7924 88.3086 86.5157C90.3256 83.4201 94.2291 84.3114 97.3139 84.1795C97.5186 84.1535 97.7263 84.1881 97.9119 84.2792C98.0974 84.3703 98.2526 84.5139 98.3586 84.6925C98.4646 84.8711 98.5168 85.077 98.5089 85.2851C98.5009 85.4931 98.4332 85.6943 98.3138 85.8642C97.908 85.8402 97.5009 85.8569 97.0983 85.9141C96.909 85.9424 96.7329 86.0291 96.5944 86.1624C96.4558 86.2956 96.3614 86.4689 96.3242 86.6583C96.287 86.8478 96.3088 87.0443 96.3865 87.2208C96.4643 87.3973 96.5943 87.5453 96.7586 87.6443C94.0525 90.1481 89.8593 90.6863 86.5683 89.0886C85.5953 90.3256 84.4976 91.4572 83.2928 92.4652L78.4 90.1113C78.4084 90.048 78.4194 89.9837 78.4295 89.9212C78.8688 90.1679 79.3364 90.3593 79.8218 90.4912C79.2998 88.4829 78.7182 87.3066 80.3596 85.6433H80.3598Z" fill="#F2F2F2"/>
<path d="M71.7143 80.8926C71.6248 81.0012 71.5044 81.0795 71.3695 81.1168C71.2345 81.1541 71.0914 81.1486 70.9596 81.1011C70.8278 81.0535 70.7137 80.9663 70.6326 80.8511C70.5516 80.7359 70.5077 80.5984 70.5067 80.4571C70.4677 80.3978 70.4397 80.3552 70.4008 80.2958C70.0595 80.1645 69.6871 80.139 69.3313 80.2227C68.9756 80.3064 68.6527 80.4954 68.4041 80.7655C68.1555 81.0356 67.9924 81.3745 67.9359 81.7387C67.8793 82.1029 67.9318 82.4759 68.0866 82.8098C68.941 84.7007 69.6842 86.8145 71.5763 87.8442C63.8725 85.4531 57.9599 78.4156 56.7775 70.386C57.1521 68.8118 56.9031 67.0275 55.9229 65.7208C55.6286 66.3996 54.6266 66.6616 54.4375 65.7737C54.3833 65.4143 54.3322 65.0548 54.278 64.6955C50.4198 64.7528 51.5667 70.1062 56.3311 70.5192C56.5716 72.0394 56.9688 73.53 57.5164 74.9667C56.5525 73.8645 55.3432 73.0089 53.9878 72.4704C52.6961 72 51.2426 72.0087 49.8475 71.9104C48.1491 71.789 47.1415 73.8281 48.2989 75.0869C49.1915 74.5782 50.3164 75.4404 49.7082 76.4022C52.2359 78.3294 55.7665 78.7634 58.701 77.5871C60.1683 80.3686 62.2061 82.8025 64.6786 84.7267C61.6537 82.6277 58.3717 84.9392 55.4654 85.9915C55.2661 86.0453 55.0867 86.1564 54.9489 86.3114C54.8112 86.4664 54.7211 86.6585 54.6897 86.8643C54.6582 87.0701 54.6868 87.2806 54.7719 87.4703C54.857 87.6599 54.995 87.8205 55.169 87.9324C55.5358 87.7556 55.9192 87.6161 56.3134 87.5158C56.4993 87.4699 56.6947 87.4833 56.8729 87.5539C57.051 87.6245 57.2032 87.7491 57.3085 87.9104C57.4137 88.0717 57.467 88.262 57.4609 88.4551C57.4549 88.6481 57.3898 88.8346 57.2746 88.9889C60.7166 90.2775 64.8012 89.1796 67.252 86.4471C68.6154 87.2222 70.055 87.8523 71.5475 88.3272L75.1991 84.2844C75.1677 84.229 75.1335 84.1737 75.1008 84.1197C74.7861 84.5153 74.4246 84.8706 74.0243 85.1776C73.7572 83.1189 73.8562 81.8081 71.7144 80.8925L71.7143 80.8926Z" fill="#F2F2F2"/>
<path d="M72.654 63.8099C72.7933 63.7957 72.9248 63.7387 73.0309 63.6465C73.1369 63.5543 73.2123 63.4315 73.2469 63.2946C73.2814 63.1577 73.2734 63.0134 73.224 62.8812C73.1746 62.7491 73.0861 62.6355 72.9706 62.5558C72.9435 62.49 72.9242 62.4428 72.8971 62.377C72.9798 62.0179 73.1669 61.6919 73.4344 61.4408C73.7018 61.1897 74.0375 61.025 74.3983 60.9677C74.7592 60.9104 75.1287 60.9632 75.4597 61.1192C75.7906 61.2753 76.0678 61.5276 76.2558 61.8437C77.3327 63.615 78.6548 65.4178 78.4444 67.577C80.7819 59.792 78.3002 50.9114 72.3613 45.4369C70.8583 44.8713 69.5309 43.6663 69.0044 42.1159C69.7267 42.2486 70.5017 41.5561 69.8775 40.9019C69.6124 40.6558 69.3455 40.4122 69.0804 40.1661C71.2824 36.9681 75.0416 40.9182 72.7201 45.1376C73.8352 46.1879 74.8384 47.353 75.7134 48.6139C75.3458 47.1913 75.3181 45.701 75.6325 44.2655C75.9674 42.9215 76.7863 41.7095 77.4847 40.4866C78.3334 38.9969 80.5721 39.2921 80.9603 40.9642C80.0436 41.4274 80.1239 42.8506 81.2541 42.8786C81.4263 46.0712 79.8111 49.2694 77.2053 51.0692C78.6719 53.8511 79.5342 56.9165 79.7346 60.0611C79.699 56.3564 83.4318 54.8997 85.9198 53.0543C86.0753 52.9175 86.2669 52.8293 86.4712 52.8006C86.6755 52.7718 86.8837 52.8037 87.0704 52.8923C87.2571 52.9809 87.4142 53.1224 87.5225 53.2996C87.6308 53.4768 87.6857 53.682 87.6805 53.8901C87.3303 54.0985 87.0016 54.3415 86.699 54.6155C86.5575 54.7456 86.4592 54.9166 86.4178 55.1052C86.3764 55.2938 86.3937 55.4908 86.4675 55.669C86.5413 55.8472 86.6679 55.9981 86.83 56.1009C86.9921 56.2036 87.1817 56.2533 87.3728 56.243C86.5095 59.8443 83.3259 62.6508 79.7113 63.1764C79.5869 64.7508 79.3007 66.3079 78.8574 67.8226L73.4954 68.6218C73.4673 68.5645 73.441 68.505 73.4149 68.4475C73.9158 68.405 74.4097 68.3008 74.8855 68.1371C73.3428 66.7637 72.2102 66.1145 72.6539 63.81L72.654 63.8099Z" fill="#F2F2F2"/>
<path d="M78.0469 62.0747C75.6058 62.0747 74.2817 61.7736 73.8193 61.131C73.4113 60.5639 73.6848 59.8157 74.0016 58.9495C74.2292 58.3268 74.4872 57.6211 74.4872 56.9226C74.4872 53.5254 76.1939 51.8028 79.5599 51.8028C81.2346 51.8028 83.0328 52.7007 84.37 54.2047C85.5857 55.572 86.1913 57.2084 86.0316 58.6944C85.9006 59.913 85.3386 60.7144 84.2629 61.2165L84.2 61.2459L84.1821 61.1783C84.0892 60.8286 83.932 60.4995 83.7187 60.2084C83.6979 60.6654 83.5838 61.1131 83.3834 61.5235L83.372 61.5469L83.3471 61.554C82.1297 61.904 80.6848 61.9988 79.5621 62.0423C79.0156 62.0638 78.5106 62.0746 78.0469 62.0747Z" fill="#2F2E41"/>
<path d="M78.7122 66.808C78.6187 66.5304 78.4609 66.2794 78.2519 66.0757C78.043 65.872 77.7889 65.7215 77.5108 65.6368C77.2327 65.552 76.9386 65.5354 76.6528 65.5884C76.3671 65.6413 76.098 65.7622 75.8678 65.9412L67.8382 70.7864L65.3257 64.5988C65.5379 64.2845 65.6461 63.9105 65.6347 63.5303C65.6233 63.1501 65.4929 62.7834 65.2622 62.4826C65.0315 62.1819 64.7124 61.9626 64.3506 61.8562C63.9888 61.7498 63.6029 61.7618 63.2483 61.8905C62.8937 62.0191 62.5885 62.2578 62.3766 62.5724C62.1647 62.8869 62.0569 63.261 62.0687 63.6412C62.0806 64.0213 62.2114 64.388 62.4424 64.6884C62.6734 64.9889 62.9928 65.2079 63.3547 65.3138C63.5096 67.0981 64.3702 75.0733 67.3643 74.7834C69.8809 74.5397 76.1307 70.3388 78.0719 68.8823C78.3825 68.6495 78.6118 68.3232 78.7269 67.9504C78.842 67.5777 78.8368 67.1777 78.7122 66.808Z" fill="#FFB6B6"/>
<path d="M84.7632 102H77.7745L76.6026 96.1517L76.2224 102H69.7305C69.733 97.4073 69.9701 92.8177 70.4407 88.2496L70.5212 87.973L70.6483 87.5305L70.7287 87.2527L72.0721 82.5967L72.1782 82.2271H80.2677C80.7332 82.6685 81.1626 83.1471 81.5516 83.6583C81.6834 83.8278 81.821 84.0114 81.9621 84.2091C82.0601 84.3492 82.1615 84.4963 82.263 84.6505C83.1643 86.0049 83.8381 87.5001 84.2571 89.0758V89.077C84.3282 89.3465 84.3912 89.6223 84.446 89.9044V89.9056C84.4949 90.1563 84.5381 90.4105 84.5719 90.6706C84.5976 90.8601 84.6197 91.052 84.636 91.2462C84.7333 92.322 84.6992 93.4059 84.5346 94.4734L84.7632 102Z" fill="#2F2E41"/>
<path d="M47.7094 48.524C48.1632 48.3467 48.4321 47.9446 48.3099 47.626C48.1877 47.3073 47.7206 47.1927 47.2668 47.37C46.8129 47.5474 46.5441 47.9494 46.6663 48.2681C46.7885 48.5867 47.2555 48.7013 47.7094 48.524Z" fill="#E6E6E6"/>
<path d="M53.4239 47.7841C53.8777 47.6068 54.1466 47.2048 54.0243 46.8861C53.9021 46.5674 53.4351 46.4529 52.9813 46.6302C52.5274 46.8075 52.2586 47.2096 52.3808 47.5282C52.503 47.8469 52.97 47.9615 53.4239 47.7841Z" fill="#3F3D56"/>
<path d="M47.2138 53.4446C47.6676 53.2673 47.9365 52.8653 47.8143 52.5466C47.6921 52.2279 47.225 52.1134 46.7712 52.2907C46.3173 52.468 46.0485 52.8701 46.1707 53.1887C46.2929 53.5074 46.7599 53.622 47.2138 53.4446Z" fill="#FF6584"/>
<path d="M45.5606 55.6152C45.7688 55.5654 45.8802 55.2802 45.8094 54.9781C45.7385 54.676 45.5123 54.4715 45.3041 54.5212C45.0959 54.5709 44.9845 54.8562 45.0553 55.1582C45.1262 55.4603 45.3524 55.6649 45.5606 55.6152Z" fill="#E6E6E6"/>
<path d="M45.5266 59.2899C45.7348 59.2402 45.8462 58.955 45.7754 58.6529C45.7045 58.3508 45.4783 58.1462 45.2701 58.196C45.0619 58.2457 44.9505 58.5309 45.0213 58.833C45.0922 59.1351 45.3184 59.3397 45.5266 59.2899Z" fill="#3F3D56"/>
<path d="M50.5421 51.6786C50.7503 51.6289 50.8616 51.3437 50.7908 51.0416C50.72 50.7395 50.4937 50.5349 50.2855 50.5847C50.0773 50.6344 49.9659 50.9196 50.0368 51.2217C50.1076 51.5238 50.3338 51.7284 50.5421 51.6786Z" fill="#E6E6E6"/>
<path d="M47.5324 50.941C47.7406 50.8913 47.8519 50.606 47.7811 50.304C47.7102 50.0019 47.484 49.7973 47.2758 49.847C47.0676 49.8968 46.9562 50.182 47.0271 50.4841C47.0979 50.7862 47.3241 50.9907 47.5324 50.941Z" fill="#FF6584"/>
<path d="M50.7224 47.5572C50.9306 47.5074 51.042 47.2222 50.9712 46.9201C50.9003 46.618 50.6741 46.4135 50.4659 46.4632C50.2577 46.5129 50.1463 46.7982 50.2171 47.1002C50.288 47.4023 50.5142 47.6069 50.7224 47.5572Z" fill="#3F3D56"/>
<path d="M52.206 72.9909C52.4255 72.7307 52.3029 72.2616 51.9323 71.9433C51.5617 71.6249 51.0834 71.5777 50.864 71.8379C50.6445 72.0981 50.767 72.5671 51.1376 72.8855C51.5082 73.2039 51.9866 73.2511 52.206 72.9909Z" fill="#E6E6E6"/>
<path d="M48.8405 68.2714C49.0599 68.0112 48.9374 67.5422 48.5668 67.2238C48.1962 66.9054 47.7179 66.8582 47.4984 67.1184C47.279 67.3786 47.4015 67.8477 47.7721 68.1661C48.1427 68.4844 48.621 68.5316 48.8405 68.2714Z" fill="#3F3D56"/>
<path d="M56.7293 71.0878C56.9487 70.8276 56.8262 70.3586 56.4556 70.0402C56.085 69.7218 55.6067 69.6746 55.3872 69.9348C55.1678 70.195 55.2903 70.6641 55.6609 70.9824C56.0315 71.3008 56.5098 71.348 56.7293 71.0878Z" fill="#FF6584"/>
<path d="M58.9763 71.1399C59.2058 70.9332 59.2763 70.635 59.1338 70.4739C58.9913 70.3128 58.6898 70.3497 58.4604 70.5565C58.2309 70.7632 58.1604 71.0613 58.3028 71.2225C58.4453 71.3836 58.7468 71.3466 58.9763 71.1399Z" fill="#E6E6E6"/>
<path d="M62.1943 69.4204C62.4237 69.2137 62.4943 68.9155 62.3518 68.7544C62.2093 68.5932 61.9078 68.6302 61.6783 68.8369C61.4488 69.0436 61.3783 69.3418 61.5208 69.5029C61.6633 69.664 61.9648 69.6271 62.1943 69.4204Z" fill="#3F3D56"/>
<path d="M53.1746 68.5931C53.4041 68.3864 53.4746 68.0882 53.3321 67.9271C53.1897 67.766 52.8881 67.803 52.6587 68.0097C52.4292 68.2164 52.3587 68.5146 52.5011 68.6757C52.6436 68.8368 52.9451 68.7998 53.1746 68.5931Z" fill="#E6E6E6"/>
<path d="M53.965 71.6155C54.1944 71.4088 54.265 71.1106 54.1225 70.9495C53.98 70.7884 53.6785 70.8253 53.449 71.0321C53.2195 71.2388 53.149 71.5369 53.2915 71.6981C53.434 71.8592 53.7355 71.8222 53.965 71.6155Z" fill="#FF6584"/>
<path d="M49.4978 70.3955C49.7273 70.1888 49.7978 69.8906 49.6553 69.7295C49.5128 69.5684 49.2113 69.6053 48.9818 69.812C48.7524 70.0187 48.6818 70.3169 48.8243 70.478C48.9668 70.6392 49.2683 70.6022 49.4978 70.3955Z" fill="#3F3D56"/>
<path d="M74.8157 42.7219C75.1195 42.5711 75.1917 42.0915 74.9769 41.6507C74.7621 41.21 74.3417 40.9749 74.0379 41.1257C73.7341 41.2765 73.662 41.7561 73.8767 42.1968C74.0915 42.6376 74.5119 42.8727 74.8157 42.7219Z" fill="#E6E6E6"/>
<path d="M76.0467 48.4024C76.3505 48.2516 76.4227 47.772 76.2079 47.3312C75.9931 46.8905 75.5727 46.6554 75.2689 46.8062C74.9651 46.957 74.8929 47.4366 75.1077 47.8773C75.3225 48.3181 75.7429 48.5532 76.0467 48.4024Z" fill="#3F3D56"/>
<path d="M69.9157 42.6548C70.2195 42.504 70.2917 42.0244 70.0769 41.5836C69.8621 41.1428 69.4417 40.9078 69.1379 41.0586C68.8341 41.2094 68.7619 41.6889 68.9767 42.1297C69.1915 42.5705 69.6119 42.8056 69.9157 42.6548Z" fill="#FF6584"/>
<path d="M67.3401 40.8521C67.6321 40.7544 67.8141 40.509 67.7468 40.304C67.6795 40.099 67.3882 40.0121 67.0963 40.1098C66.8043 40.2075 66.6222 40.4528 66.6896 40.6578C66.7569 40.8628 67.0482 40.9498 67.3401 40.8521Z" fill="#E6E6E6"/>
<path d="M63.7102 41.1399C64.0021 41.0422 64.1842 40.7968 64.1169 40.5918C64.0495 40.3868 63.7583 40.2999 63.4663 40.3976C63.1744 40.4953 62.9923 40.7406 63.0596 40.9456C63.1269 41.1506 63.4182 41.2376 63.7102 41.1399Z" fill="#3F3D56"/>
<path d="M71.6619 45.5155C71.9539 45.4178 72.136 45.1724 72.0686 44.9674C72.0013 44.7624 71.71 44.6755 71.4181 44.7732C71.1261 44.8709 70.9441 45.1162 71.0114 45.3212C71.0787 45.5262 71.37 45.6132 71.6619 45.5155Z" fill="#E6E6E6"/>
<path d="M72.1262 42.4249C72.4182 42.3272 72.6003 42.0819 72.5329 41.8769C72.4656 41.6719 72.1743 41.5849 71.8824 41.6826C71.5904 41.7803 71.4083 42.0257 71.4757 42.2307C71.543 42.4356 71.8343 42.5226 72.1262 42.4249Z" fill="#FF6584"/>
<path d="M75.7456 45.3357C76.0375 45.238 76.2196 44.9926 76.1523 44.7876C76.0849 44.5826 75.7937 44.4957 75.5017 44.5934C75.2098 44.6911 75.0277 44.9364 75.095 45.1414C75.1623 45.3464 75.4536 45.4334 75.7456 45.3357Z" fill="#3F3D56"/>
<path d="M76.8663 63.0205L80.7164 62.8203L82.5046 65.6722C82.5046 65.6722 85.8693 66.2399 85.6361 70.2416C85.4028 74.2432 81.5423 77.7547 81.5423 77.7547L81.7073 79.8386L81.4207 80.6651L81.4574 81.1292L81.8484 81.6208L81.8887 82.1291L81.5423 82.9333L82.0134 83.7034L72.1089 82.7349L71.7467 81.4033L72.2751 80.6882L71.98 79.7555L72.4236 78.8584L72.655 76.0089C72.655 76.0089 70.124 72.1712 73.0295 69.2806L74.1956 67.2798L75.5004 65.6731L76.8663 63.0205Z" fill="#6C63FF"/>
<path d="M78.7803 62.2152C81.0334 62.2152 82.8599 60.3717 82.8599 58.0977C82.8599 55.8237 81.0334 53.9802 78.7803 53.9802C76.5272 53.9802 74.7007 55.8237 74.7007 58.0977C74.7007 60.3717 76.5272 62.2152 78.7803 62.2152Z" fill="#FFB6B6"/>
<path d="M78.2341 57.8481C77.8825 57.8481 77.5311 57.8381 77.18 57.8181L77.1172 57.8146L77.1255 57.7517C77.1772 57.3587 77.1481 56.9591 77.04 56.578C76.8563 57.012 76.5831 57.4014 76.2385 57.7204L76.219 57.7384L76.1928 57.7355C75.2391 57.6303 74.294 57.4563 73.3649 57.215L73.3293 57.2058L73.3222 57.1695C73.2528 56.8255 73.2169 56.4756 73.2149 56.1246C73.2149 55.0281 73.6088 54.1053 74.324 53.5261C75.1024 52.8956 76.2183 52.7017 77.4672 52.9798H81.4606C81.8997 52.9803 82.3206 53.1565 82.631 53.4699C82.9414 53.7832 83.1161 54.208 83.1166 54.6511V57.2034L83.073 57.2149C81.4935 57.6339 79.8672 57.8467 78.2341 57.8481Z" fill="#2F2E41"/>
<path d="M50.3969 53.2681C50.2182 53.3341 50.0726 53.469 49.9923 53.6431C49.9119 53.8173 49.9032 54.0165 49.9682 54.1971L54.2763 66.1277C54.3417 66.3082 54.4753 66.4551 54.6479 66.5362C54.8204 66.6173 55.0178 66.626 55.1967 66.5605L71.9171 60.4103C72.0959 60.3443 72.2414 60.2094 72.3218 60.0353C72.4021 59.8611 72.4108 59.6619 72.3458 59.4813L68.0377 47.5506C67.9723 47.3702 67.8387 47.2233 67.6662 47.1422C67.4936 47.0611 67.2962 47.0523 67.1173 47.1179L50.3969 53.2681Z" fill="#CCCCCC"/>
<path d="M65.6941 62.0415L55.4595 65.806C55.2669 65.8766 55.0545 65.8672 54.8688 65.7799C54.6831 65.6926 54.5392 65.5345 54.4689 65.3403L50.5615 54.5193C50.4915 54.325 50.5009 54.1105 50.5874 53.9231C50.6739 53.7357 50.8305 53.5905 51.0229 53.5195L66.7984 47.7168C66.991 47.6463 67.2035 47.6556 67.3892 47.743C67.5749 47.8303 67.7187 47.9884 67.7891 48.1826L69.6771 53.4112C70.2807 55.0888 70.2004 56.9396 69.4537 58.5576C68.707 60.1755 67.3549 61.4284 65.6941 62.0415Z" fill="white"/>
<path d="M58.3297 54.2242L55.8976 55.1188C55.8671 55.13 55.8347 55.1351 55.8023 55.1337C55.7699 55.1322 55.738 55.1244 55.7086 55.1106C55.6792 55.0967 55.6528 55.0772 55.6308 55.053C55.6089 55.0289 55.5919 55.0006 55.5807 54.9698C55.5696 54.939 55.5646 54.9064 55.566 54.8736C55.5674 54.8409 55.5752 54.8088 55.5889 54.7791C55.6026 54.7494 55.622 54.7227 55.6459 54.7005C55.6698 54.6784 55.6978 54.6612 55.7283 54.65L58.1604 53.7554C58.222 53.7328 58.29 53.7357 58.3495 53.7637C58.4089 53.7916 58.4549 53.8422 58.4773 53.9044C58.4998 53.9666 58.4968 54.0352 58.4692 54.0952C58.4415 54.1551 58.3913 54.2016 58.3297 54.2242H58.3297Z" fill="#6C63FF"/>
<path d="M64.1279 53.1776L56.2439 56.0775C56.2134 56.0888 56.1809 56.0939 56.1485 56.0925C56.116 56.0911 56.0842 56.0833 56.0547 56.0695C56.0252 56.0556 55.9988 56.0361 55.9768 56.0119C55.9548 55.9878 55.9378 55.9595 55.9267 55.9287C55.9156 55.8979 55.9106 55.8651 55.912 55.8324C55.9134 55.7996 55.9212 55.7675 55.9349 55.7378C55.9487 55.708 55.9681 55.6814 55.992 55.6592C56.016 55.6371 56.044 55.6199 56.0746 55.6087L63.9586 52.7088C63.9891 52.6976 64.0215 52.6925 64.0539 52.6939C64.0864 52.6953 64.1182 52.7032 64.1476 52.717C64.1771 52.7309 64.2035 52.7504 64.2254 52.7746C64.2474 52.7987 64.2644 52.827 64.2755 52.8578C64.2866 52.8885 64.2916 52.9212 64.2902 52.954C64.2888 52.9867 64.281 53.0188 64.2673 53.0485C64.2536 53.0782 64.2343 53.1049 64.2103 53.1271C64.1864 53.1492 64.1584 53.1664 64.1279 53.1776Z" fill="#6C63FF"/>
<path d="M64.5253 54.2781L56.6412 57.1781C56.6107 57.1893 56.5783 57.1943 56.5459 57.1929C56.5135 57.1915 56.4816 57.1836 56.4522 57.1698C56.4228 57.156 56.3963 57.1364 56.3744 57.1123C56.3525 57.0881 56.3354 57.0599 56.3243 57.0291C56.3132 56.9983 56.3082 56.9656 56.3096 56.9329C56.311 56.9001 56.3188 56.868 56.3325 56.8383C56.3462 56.8086 56.3656 56.7819 56.3895 56.7598C56.4134 56.7376 56.4414 56.7205 56.4719 56.7092L64.356 53.8093C64.4175 53.7867 64.4855 53.7898 64.5448 53.8177C64.6042 53.8457 64.6502 53.8963 64.6726 53.9584C64.695 54.0205 64.6921 54.0891 64.6645 54.149C64.6369 54.209 64.5868 54.2554 64.5253 54.2781Z" fill="#6C63FF"/>
<path d="M64.9226 55.3786L57.0386 58.2786C57.0081 58.2898 56.9757 58.2949 56.9432 58.2935C56.9108 58.2921 56.8789 58.2843 56.8494 58.2705C56.82 58.2567 56.7935 58.2371 56.7715 58.213C56.7496 58.1888 56.7325 58.1605 56.7214 58.1297C56.7103 58.0989 56.7053 58.0662 56.7067 58.0334C56.7081 58.0007 56.7159 57.9685 56.7297 57.9388C56.7434 57.9091 56.7628 57.8824 56.7868 57.8602C56.8107 57.8381 56.8388 57.8209 56.8693 57.8098L64.7533 54.9098C64.7838 54.8986 64.8162 54.8935 64.8487 54.8949C64.8811 54.8964 64.9129 54.9042 64.9424 54.918C64.9718 54.9319 64.9982 54.9514 65.0202 54.9756C65.0421 54.9997 65.0591 55.028 65.0702 55.0588C65.0814 55.0896 65.0864 55.1223 65.085 55.155C65.0836 55.1877 65.0758 55.2199 65.0621 55.2496C65.0484 55.2793 65.029 55.3059 65.0051 55.3281C64.9811 55.3502 64.9531 55.3674 64.9226 55.3786Z" fill="#6C63FF"/>
<path d="M65.3201 56.4791L57.436 59.3791C57.3744 59.4017 57.3064 59.3988 57.247 59.3708C57.1876 59.3429 57.1416 59.2923 57.1191 59.2301C57.0967 59.1679 57.0996 59.0993 57.1273 59.0393C57.155 58.9793 57.2051 58.9329 57.2667 58.9103L65.1508 56.0103C65.1813 55.9991 65.2137 55.994 65.2461 55.9955C65.2785 55.9969 65.3104 56.0047 65.3398 56.0186C65.3692 56.0324 65.3957 56.0519 65.4176 56.0761C65.4395 56.1002 65.4566 56.1285 65.4677 56.1593C65.4788 56.1901 65.4838 56.2228 65.4824 56.2555C65.481 56.2882 65.4732 56.3204 65.4595 56.3501C65.4458 56.3798 65.4264 56.4064 65.4025 56.4286C65.3786 56.4507 65.3506 56.4679 65.3201 56.4791H65.3201Z" fill="#6C63FF"/>
<path d="M90.3361 59.5355L86.0195 69.9609C85.8353 70.4021 85.4867 70.7525 85.0488 70.9365C84.6109 71.1204 84.1189 71.1233 83.679 70.9444C83.4514 70.8519 83.2449 70.7135 83.072 70.5378C82.8991 70.362 82.7635 70.1526 82.6734 69.9223C82.5833 69.6919 82.5407 69.4454 82.5481 69.1979C82.5554 68.9504 82.6127 68.7069 82.7163 68.4825L87.5291 57.7917L90.1823 51.1711C89.953 50.9404 89.7997 50.6439 89.7432 50.3222C89.6866 50.0004 89.7296 49.6688 89.8663 49.3726C90.0029 49.0763 90.2266 48.8297 90.507 48.6662C90.7874 48.5027 91.1108 48.4303 91.4334 48.4588C91.756 48.4873 92.062 48.6154 92.31 48.8256C92.5579 49.0357 92.7357 49.3179 92.8193 49.6336C92.9029 49.9493 92.8881 50.2834 92.777 50.5903C92.6659 50.8973 92.4639 51.1623 92.1983 51.3493L90.3361 59.5355Z" fill="#FFB6B6"/>
</g>
</g>
<defs>
<clipPath id="clip0_146_8">
<rect width="140" height="124" fill="white"/>
</clipPath>
<clipPath id="clip1_146_8">
<rect width="55" height="63" fill="white" transform="translate(45 39)"/>
</clipPath>
</defs>
</svg>
