<svg id="Capa_1" data-name="Capa 1" xmlns="http://www.w3.org/2000/svg" viewBox="0 0 416 530">
	<path style="fill:#e1e4e6" d="M98.63,60.28H285.4c0,.24,0,.47,0,.71-1.36,1.31-.8,3-.81,4.52q0,34.81,0,69.62c0,16,10.2,26.58,26.29,27.4.19,1.61,1.45,2.48,2.47,3.49q34.9,34.93,69.85,69.85c1,1,1.84,2.33,3.52,2.37q0,101.86,0,203.74c0,12.72-6.85,22.12-18.86,25.93-1.08.34-2.53.11-2.69,1.81H101.83c-.28-2.12-2.22-1.64-3.44-2a25.78,25.78,0,0,1-18.11-24.82c0-8.35,0-16.7,0-25.06l242,0c.4,0,.8,0,1.19,0a12.59,12.59,0,0,0,12.09-12c.14-3.58-.08-7.17-.14-10.76.06-2.12.17-4.25.18-6.37q0-60.4,0-120.81c0-11.64-4.45-16-16.19-16H85.43c-1.72,0-3.45-.08-5.17-.12q0-7.38,0-14.76,0-75.21,0-150.42A25.62,25.62,0,0,1,90.2,65.73C92.86,63.57,96.6,63.27,98.63,60.28Z" />
	<path style="fill:#f1451e" d="M80.25,405.2q-18.33-.06-36.66-.13C34.35,405,29.21,400,29.2,390.82q0-62.37,0-124.75c0-9.15,5.15-14.19,14.39-14.24l36.67-.13c1.72,0,3.45.12,5.17.12H319.49c11.74,0,16.19,4.41,16.19,16q0,60.4,0,120.81c0,2.12-.12,4.25-.18,6.37-2.69,7.37-8.11,10.08-15.75,10.07q-117.17-.13-234.33-.05C83.7,405.08,82,405.16,80.25,405.2Z" />
	<path style="fill:#b0b7bd" d="M285.43,61,386,161.64c-1.33,1.31-3,.77-4.55.78q-35.26.09-70.53.11c-16.09-.82-26.28-11.42-26.29-27.4q0-34.8,0-69.62C284.63,64,284.07,62.3,285.43,61Z" />
	<path style="fill:#c9d0d7" d="M80.25,405.2c1.72,0,3.45-.12,5.17-.12q117.16,0,234.33.05c7.64,0,13.06-2.7,15.75-10.07.06,3.59.28,7.18.14,10.76a12.59,12.59,0,0,1-12.09,12c-.39,0-.79,0-1.19,0l-242,0Q80.29,411.5,80.25,405.2Z" />
	<path style="fill:#c9d0d7" d="M310.89,162.53q35.26,0,70.53-.11c1.53,0,3.22.53,4.55-.78,1.18,1.05.78,2.47.78,3.74q0,36.44,0,72.86c-1.68,0-2.51-1.37-3.52-2.37Q348.26,201,313.36,166C312.34,165,311.08,164.14,310.89,162.53Z" />
	<text style="font-size:99.18px;fill:#fff;font-family:ArialRoundedMTBold, Arial Rounded MT Bold" transform="translate(85.56 367.99)">
		PPT
	</text>
</svg>