<svg id="Capa_1" data-name="Capa 1" xmlns="http://www.w3.org/2000/svg" viewBox="0 0 1080 1080"><defs><style>.cls-1{fill:#8a26c4;}</style></defs><path class="cls-x" d="M535.38,837.79a68.07,68.07,0,0,1-7.38-3.07c-3.28-1.36-6.73-2.46-10.07-3.69L497,823.31l-41.85-15.4L413.3,792.5l-8.16-3c-6.71-2.47-10.07-7-9.69-12.85a12.76,12.76,0,0,1,9.4-11.35c3.41-1,6.52.09,9.63,1.23q30.25,11.12,60.5,22.23L527.36,808v-6.84q0-129.39.12-258.8c0-4.87-1.46-6.87-6-8.54q-100.34-36.72-200.51-73.84c-1.43-.53-2.89-1-4.84-1.61V665.45c0,1.94.1,3.89-.06,5.83a12.54,12.54,0,0,1-12.72,11.84c-6.43-.21-11.45-5.23-11.9-12-.13-1.94-.08-3.89-.08-5.83q0-107.25,0-214.5c0-3.1-.22-6.2-.27-9.31-.09-6.32,2.91-11,8.64-13.12Q379.81,399,460,369.66c5.48-2,10.39-1.35,14.4,2.92a11.72,11.72,0,0,1,2.4,13c-1.69,4.31-5.29,6.39-9.47,7.92q-58.08,21.27-116.1,42.66c-3.45,1.26-6.88,2.57-11.32,4.24,13.47,5,26.12,9.69,38.79,14.36q78.43,28.9,156.88,57.84a11.05,11.05,0,0,0,8.29.28q96.39-35.65,192.84-71.16a27,27,0,0,0,2.8-1.54l-45.83-16.89q-40.86-15.06-81.72-30.13c-7.24-2.67-10.72-7.77-9.73-13.91,1.3-8.12,8.79-12.62,17-9.68,19.33,6.88,38.54,14.07,57.81,21.12l102.51,37.47c6.14,2.25,9.17,6.79,9.16,13.35q-.15,110.75-.28,221.48c0,1.55,0,3.11,0,4.66-.06,9.77-4.85,15.66-12.58,15.5-7.52-.16-12.18-6-12.18-15.36q0-101.13,0-202.26v-7.21l-21.75,8q-92.37,34-184.76,67.94c-3.25,1.19-4.87,2.52-4.86,6.47q.21,132,.12,264c0,.76.08,1.53.16,3.06,3.8-1.32,7.33-2.49,10.82-3.77q50.7-18.62,101.37-37.27c3.12-1.15,6.17-2.39,9.58-1.64a12.85,12.85,0,0,1,9.95,10.9c.63,5.55-2.56,10.84-8.54,13.13-12.66,4.83-25.41,9.42-38.13,14.09-15.63,6.25-31.69,11.61-47.49,17.4q-12,4.43-24.07,8.85c-3.79,1.39-7.71,2.41-11.53,3.72-1.85.63-3.66,1.35-5.46,2.12s-3,2.1-4.75,2.66a9.44,9.44,0,0,1-2.43.34,25.32,25.32,0,0,1-4.44-.12A15.47,15.47,0,0,1,535.38,837.79Z"/><path class="cls-x" d="M838.12,781.87c-4.07-32.78-41.76-51.29-70.77-38.06-3.61,1.65-5.39.73-7.85-1.76-15.81-16-31.81-31.89-47.72-47.86-3.78-3.81-8-6.17-13.54-4.6-9.81,2.8-12.19,13.93-4.45,21.75q24,24.25,48.23,48.17c2.82,2.77,3.16,4.75,1.48,8.38-5.62,12.2-5.51,26.44-.73,38.87,5.33,13.84,16.48,25.49,30.86,29.76a49.29,49.29,0,0,0,6.42,1.43c15.27,2.35,32.41-2.13,43.65-12.51C836.28,813.84,840.17,798.54,838.12,781.87Zm-49.75,31.64a24.91,24.91,0,1,1,25.1-25.21C813.67,801.9,802,813.63,788.37,813.51Z"/><path class="cls-x" d="M381.44,689.56c-5.83-1.62-10.05,1.18-13.94,5.09-15.77,15.83-31.63,31.55-47.32,47.46-2.51,2.55-4.33,3.29-7.87,1.6-14.14-6.7-28.51-6.51-42.67.16-19.21,9-31,30.94-27.73,51.22a51.7,51.7,0,0,0,9.71,23,53.58,53.58,0,0,0,31.5,19.46c20.63,4.15,42-7.23,51.8-25.39a50.16,50.16,0,0,0,.62-45.94c-1.41-2.89-.28-4.16,1.47-5.89q16.33-16.22,32.57-32.55c5.89-5.9,12-11.62,17.58-17.84C393.67,702.69,390.54,692.11,381.44,689.56Zm-90.33,124a24.91,24.91,0,1,1,.52-49.81,24.91,24.91,0,0,1-.52,49.81Z"/><path class="cls-x" d="M588.71,281.49c-4.27-22.74-25.09-39.93-48.49-40.05-23.69-.13-44.8,17-49.15,40-4.55,24.08,8.26,47.36,31.22,56,3.9,1.48,5.27,3.19,5.17,7.38-.29,13.4-.1,26.8-.1,40.2,0,13.6,0,27.2,0,40.78,0,6.16,2,11.16,8,13.63,8.74,3.6,17-2.91,17.08-13.53q.15-40.5,0-81c0-4.06,1-5.88,5.09-7.36C580.14,329.21,593.19,305.45,588.71,281.49ZM539.93,316a24.9,24.9,0,1,1,24.69-24.78A24.74,24.74,0,0,1,539.93,316Z"/></svg>