<svg width="25" height="21" viewBox="0 0 25 21" fill="none" xmlns="http://www.w3.org/2000/svg">
<path d="M10.4167 5.21067V0.781507C10.4167 0.467965 10.2281 0.184632 9.93958 0.0617152C9.65208 -0.0601598 9.31562 0.00129839 9.09167 0.22109L0.2375 8.81484C0.0854167 8.96171 0 9.1638 0 9.37526C0 9.58672 0.0854167 9.7888 0.2375 9.93567L9.09167 18.5294C9.31771 18.7482 9.65312 18.8096 9.93958 18.6888C10.2281 18.5659 10.4167 18.2825 10.4167 17.969V13.5419H11.8938C16.7229 13.5419 21.175 16.1669 23.5115 20.3878L23.5333 20.4273C23.6729 20.6815 23.9375 20.8336 24.2188 20.8336C24.2833 20.8336 24.3479 20.8263 24.4125 20.8096C24.7583 20.7211 25 20.4096 25 20.0523C25 11.9544 18.4823 5.35026 10.4167 5.21067Z" stroke="none" fill="current"/>
</svg>
