<?xml version="1.0" encoding="utf-8"?>
<!-- Generator: Adobe Illustrator 22.1.0, SVG Export Plug-In . SVG Version: 6.00 Build 0)  -->
<svg version="1.1" id="Layer_1" xmlns="http://www.w3.org/2000/svg" xmlns:xlink="http://www.w3.org/1999/xlink" x="0px" y="0px"
	 viewBox="0 0 64 64" style="enable-background:new 0 0 64 64;" xml:space="preserve">
<style type="text/css">
	.st0{fill:url(#SVGID_1_);}
	.st1{fill:url(#SVGID_2_);}
	.st2{fill:url(#SVGID_3_);}
	.st3{fill:url(#SVGID_4_);}
</style>

<linearGradient id="SVGID_1_" gradientUnits="userSpaceOnUse" x1="32" y1="63.7233" x2="32" y2="0.3898" gradientTransform="matrix(1 0 0 -1 0 63.89)">
	<stop  offset="0" style="stop-color:#7721AD"/>
	<stop  offset="1" style="stop-color:#7721AD"/>
</linearGradient>
<path class="st0" d="M59,17H5c-1.7,0-3,1.3-3,3v24c0,1.7,1.3,3,3,3h54c1.7,0,3-1.3,3-3V20C62,18.3,60.7,17,59,17z M60,20v11H42V19
	h17C59.6,19,60,19.4,60,20z M4,44V20c0-0.6,0.4-1,1-1h16v6h-3v2h8v-2h-3v-6h17v26H5C4.4,45,4,44.6,4,44z M59,45H42V33h18v11
	C60,44.6,59.6,45,59,45z"/>
<linearGradient id="SVGID_2_" gradientUnits="userSpaceOnUse" x1="51" y1="63.7233" x2="51" y2="0.3898" gradientTransform="matrix(1 0 0 -1 0 63.89)">
	<stop  offset="0" style="stop-color:#7721AD"/>
	<stop  offset="1" style="stop-color:#7721AD"/>
</linearGradient>
<polygon class="st1" points="47,26 50,26 50,29 52,29 52,26 55,26 55,24 52,24 52,21 50,21 50,24 47,24 "/>
<linearGradient id="SVGID_3_" gradientUnits="userSpaceOnUse" x1="51" y1="63.7233" x2="51" y2="0.3898" gradientTransform="matrix(1 0 0 -1 0 63.89)">
	<stop  offset="0" style="stop-color:#7721AD"/>
	<stop  offset="1" style="stop-color:#7721AD"/>
</linearGradient>
<rect x="47" y="38" class="st2" width="8" height="2"/>
<linearGradient id="SVGID_4_" gradientUnits="userSpaceOnUse" x1="22" y1="63.7233" x2="22" y2="0.3898" gradientTransform="matrix(1 0 0 -1 0 63.89)">
	<stop  offset="0" style="stop-color:#7721AD"/>
	<stop  offset="1" style="stop-color:#7721AD"/>
</linearGradient>
<polygon class="st3" points="18,33 24,33 24,36 18,36 18,43 26,43 26,41 20,41 20,38 26,38 26,31 18,31 "/>
</svg>

