<?xml version="1.0" encoding="utf-8"?>
<!-- Generator: Adobe Illustrator 26.0.0, SVG Export Plug-In . SVG Version: 6.00 Build 0)  -->
<svg version="1.1" id="Capa_1" xmlns="http://www.w3.org/2000/svg" xmlns:xlink="http://www.w3.org/1999/xlink" x="0px" y="0px"
	 viewBox="0 0 1000 800" style="enable-background:new 0 0 1000 800;" xml:space="preserve">
<style type="text/css">
	.st0{fill:#550775;}
	.st1{fill:#1C0826;}
	.st2{fill:#721B9B;}
	.st3{fill:#3F0753;}
	.st4{fill:#B854E2;}
	.st5{fill:#FEC39D;}
	.st6{fill:#E87555;}
	.st7{fill:#122030;}
	.st8{fill:#FEA889;}
	.st9{fill:#6E0D9B;}
	.st10{fill:#8F1DBF;}
	.st11{fill:#31E50C;}
	.st12{fill:#1BB800;}
	.st13{fill:#FFFFFF;}
	.st14{fill:#ED3229;}
	.st15{fill:#E81100;}
	.st16{fill:#0F6657;}
	.st17{fill:#881DB1;}
	.st18{fill:#881FB6;}
	.st19{fill:#FFE3A5;}
	.st20{fill:#01B060;}
	.st21{font-family:'ArialRoundedMTBold';}
	.st22{font-size:61.3337px;}
	.st23{font-size:47.3623px;}
	.st24{font-size:63.4479px;}
</style>
<g>
	<g>
		<g>
			<path class="st0" d="M487.8,419.7c0,0,37-14.2,63.3-0.7c33.8,17.4,121.4,160.9,121.4,160.9s72.2-124.9,78.9-137.8
				c6.8-12.9,21-17.8,28.9-15.9l10.6-20.5c0,0,30.3,29.6,59,31.3l-8.4,19.9c0,0,12.1,8.9,0.1,33.7c-12,24.8-96.2,171.8-117.6,198.9
				c-13.5,17.1-53.7,38.1-94.7-8.4c-41-46.5-85.3-114.4-85.3-114.4"/>
			<g>
				<path class="st1" d="M826.2,457.9c0,0-0.1,0-0.1,0c-0.3,0-31.8-3.6-45.3-28.5c-0.3-0.5-0.1-1.1,0.4-1.3c0.5-0.3,1.1-0.1,1.3,0.4
					c13,24,43.5,27.5,43.8,27.5c0.5,0.1,0.9,0.5,0.9,1.1C827.1,457.5,826.7,457.9,826.2,457.9z"/>
			</g>
			<path class="st2" d="M555.7,464.6c0,0,16.4,97.2,17.5,167.9c1.1,70.7,2.9,151.6,2.9,151.6H323.7c0,0-34.7-381.4-2.6-381.4
				c32.8,0,81.8,15.7,81.8,15.7l85,1.3"/>
			<path class="st3" d="M333.6,671.2l-13.1,84.1c1.9,18,3.1,28.8,3.1,28.8h252.5c0,0-1.3-59.5-2.4-121l-0.8-4.4L333.6,671.2z"/>
			<path class="st4" d="M314.9,617.8c62.6,9.8,101.3,15.8,140.3,17.1c39.7,1.3,79.8-2.3,117.8-13.8c-0.9-25.3-3.5-53-6.3-78
				c-36.1,10-74,13.2-111.5,12c-39.4-1.3-78.5-7.5-142.3-17.4C313.1,563.5,313.9,590.9,314.9,617.8z"/>
			<g>
				<path class="st1" d="M576.2,785.2c-0.5,0-1-0.4-1-1c0-0.8-1.8-81.8-2.9-151.6c-1.1-69.8-17.4-166.8-17.5-167.8
					c-0.1-0.5,0.3-1,0.8-1.1c0.5-0.1,1,0.3,1.1,0.8c0.2,1,16.4,98.1,17.5,168.1c1.1,69.9,2.9,150.8,2.9,151.6
					C577.1,784.7,576.7,785.2,576.2,785.2C576.2,785.2,576.2,785.2,576.2,785.2z"/>
			</g>
			<path class="st0" d="M337.7,406.7c14.6,9,13.7,19.7,12.8,51.8l-16.9,212.7c0,0,134.8,8.3,159.3,11.7
				c24.5,3.4,30.6,18.8,30.6,18.8h36.1c-22.7,42,0,81.1,0,81.1s-147.2,0-185.6,0c-38.4,0-113.3,7.8-136.7-11.2
				c-23.4-19,3.9-248.4,23.8-311.7C280.8,396.6,324.9,398.9,337.7,406.7z"/>
			<path class="st1" d="M568.9,764.5c-0.5,2.5-1.1,4.9-1.9,7.1c-1.9,5.8-4.5,9.9-7.5,11.2c0,0-2.7-4.6-5.3-12.4
				c-0.8-2.3-1.5-4.8-2.2-7.6c-3.2-13-4.6-31,2.6-50.4c0.8-2.1,1.6-4.2,2.6-6.3c0.7-1.5,1.4-3,2.2-4.5c1.4,1.2,2.6,2.7,3.6,4.5
				c1.2,1.9,2.2,4,3.1,6.3C571.9,726.8,572.2,748.8,568.9,764.5z"/>
			<g>
				<path class="st1" d="M520.3,771.9c-0.4,0-0.8-0.3-0.9-0.7c0-0.1-3.6-10.7-5-24.5c-1.3-12.8-0.9-31.1,8.3-45.6
					c0.3-0.5,0.9-0.6,1.4-0.3c0.5,0.3,0.6,0.9,0.3,1.4c-17,27-3.3,68-3.1,68.4c0.2,0.5-0.1,1.1-0.6,1.3
					C520.5,771.9,520.4,771.9,520.3,771.9z"/>
			</g>
			<g>
				<path class="st1" d="M561.2,702.6h-37.7c-0.4,0-0.8-0.2-0.9-0.6c-0.1-0.1-6.2-14.9-29.8-18.2c-24.2-3.4-157.9-11.6-159.2-11.7
					c-0.3,0-0.5-0.1-0.7-0.3c-0.2-0.2-0.3-0.5-0.2-0.7l16.9-212.7c0-0.5,0.5-0.9,1.1-0.9c0.5,0,0.9,0.5,0.9,1.1l-16.8,211.7
					c12.4,0.8,135.2,8.4,158.4,11.6c22.3,3.1,29.7,15.8,31.1,18.8h37.1c0.5,0,1,0.4,1,1C562.2,702.2,561.8,702.6,561.2,702.6z"/>
			</g>
			<path class="st1" d="M850,436.9c-3-0.2-6.1-0.7-9.1-1.4c-16.9-4.1-33.3-15.8-42.4-23.3c-4.7-3.9-7.5-6.6-7.5-6.6s3,0.1,7.6,0.9
				c10.9,1.9,31,7.2,44.9,22C845.9,431.1,848.1,433.9,850,436.9z"/>
			<path class="st5" d="M857.2,392.9l-13.7,35.7l-2.6,6.9c-16.9-4.1-33.3-15.8-42.4-23.3c0.1-1.5,0.1-3.4,0.2-5.6
				c0.2-11.1,0.3-29.6-1.4-36.7c-2.5-10.5-10.1-26.9-7-31c3.1-4.1,22.8,12.6,27.2,24.7L857.2,392.9z"/>
			<path class="st5" d="M850,341.9c-13.2-1.5-36.6,22.8-36.4,28.7c0.2,5.9,13.5,1,13.5,1s-7.6,11.5-4.1,15c3.5,3.5,9.5-1.6,9.5-1.6
				S823.2,397,826,401c2.8,4,13.8-3.1,13.8-3.1s-5.3,11.1-1.3,13.4c3.9,2.3,34-21.5,31.6-25.4c-2.4-3.9-9.4-4.3-9.4-4.3
				s11-13.3,7.1-17.5c-3.9-4.2-9.8,0.5-9.8,0.5s6.4-9.7,3.3-13.8c-3.1-4.1-9.8,0.9-9.8,0.9S854.5,342.4,850,341.9z"/>
			<g>
				<path class="st6" d="M839,412.4c-0.4,0-0.8-0.1-1.1-0.2c-3.3-1.9-1.6-8.2-0.2-11.9c-3.7,2-10.2,4.8-12.5,1.3
					c-2.1-3.1,1.1-9.3,3.8-13.5c-2.1,0.9-4.7,1.1-6.7-0.9c-3-3,0.4-10.2,2.6-14c-3.1,0.9-8.2,1.9-10.7,0.2c-1-0.7-1.5-1.7-1.5-2.9
					c0-0.5,0.4-1,1-1c0,0,0,0,0,0c0.5,0,1,0.4,1,1c0,0.6,0.2,1.1,0.7,1.4c2,1.4,8.1,0,11.5-1.3c0.4-0.1,0.8,0,1.1,0.3
					c0.3,0.3,0.3,0.8,0.1,1.2c-2.7,4.2-6.3,11.6-4.2,13.8c2.8,2.8,8.1-1.7,8.1-1.7c0.4-0.3,1-0.3,1.3,0c0.4,0.3,0.4,0.9,0.1,1.3
					c-3.4,4.5-8.1,12.5-6.4,15c1.7,2.4,9.1-1.2,12.4-3.4c0.4-0.2,0.9-0.2,1.2,0.1c0.3,0.3,0.4,0.8,0.2,1.2
					c-1.6,3.4-4.1,10.8-1.7,12.1c1.4,0.6,10.3-4.3,20.5-13.2c8.4-7.2,9.8-10.3,9.7-10.9c-0.3-0.5-0.1-1.1,0.3-1.3
					c0.5-0.3,1.1-0.1,1.4,0.3c0.6,1,0.7,2.9-4.4,8.1C860.5,399.5,844.4,412.4,839,412.4z"/>
			</g>
			<path class="st5" d="M655.2,727.9c0,0,8.7,8.2-9.4,15.6c0,0,6.3,8.4-8.6,13.6c0,0,6.4,12.9-17.2,12.9c-15.6,0-32.4-3.2-51.1-5.4
				c-3-0.4-6-0.7-9.1-1c-3.2-0.3-5.8-0.5-7.7-0.7c-3.2-13-4.6-31,2.6-50.4h16.6c0,0,12.1-9.4,22.8-12.8c0,0,27.1-27,27.1-19.4
				c0,8.1-9.4,32.1-9.4,32.1s33.3,0,46.1,0C670.6,712.3,666.9,721.7,655.2,727.9z"/>
			<path class="st1" d="M501.4,341.9c17.3-3,32.2-16.7,36.6-33.7c1.4-5.4,1-12-2.4-16.4c9.2-0.2,18-4.2,25.3-9.9
				c-6.7-0.7-12.2-5.9-15.3-11.9c-3.1-6-4.2-12.8-5.7-19.3c-1.5-6.6-3.6-13.3-8.1-18.3c-4.7-5.3-12-8.1-19-7.5
				c-7,0.6-13.7,4.7-17.4,10.7c-2.3-18.9-12.3-35.8-30.2-42.3c-17.9-6.5-39.3-2-53.1,11.2c-4.8,4.5-8.7,10-13.2,14.8
				c-4.5,4.8-9.9,9.2-16.3,10.7c-6.4,1.5-14-0.5-17.5-6.1c-2.8,5.9-2.4,12.7-0.1,18.8c2.3,6.1,7.2,11.2,13.2,13.7
				c-10.3-0.5-19.7,10.5-21.8,20.5c-2,10.1,1.7,20.6,7.4,29.1c5.7,8.5,13.4,15.5,20.5,22.9c6.8,7.2,13.1,14.8,18.9,22.8
				c4.8,6.7,9.7,14,17.5,16.6c5,1.6,10.4,1,15.6,0.1C461.1,363.9,476.7,346.1,501.4,341.9z"/>
			<g>
				<g>
					<g>
						<g>
							<g>
								<path class="st5" d="M417.9,408.8l-11.4-64.6c0,0-28.9,9.9-31.1-13.7c-2-21,20.9-22.6,31.8-12.7c0,0-19.7-73.4,43.8-79.2
									c63.5-5.8,64.1,81.2,64.3,102.2c0.4,37.1-26.2,54.8-45.5,56.7l-0.3,13.7c0,0,1.5,19.9-17.2,20.6
									C427.5,432.9,417.9,408.8,417.9,408.8z"/>
							</g>
						</g>
						<g>
							<path class="st7" d="M474.3,345.2c0.1,0,0.3,0,0.4,0c2.7-0.3,5.2-1.8,6.8-4c1.6-2.2,2.3-4.9,1.8-7.7l-2.8-16
								c-0.1-0.9-1-1.4-1.8-1.3c-0.9,0.1-1.4,1-1.3,1.8l2.8,16c0.3,1.9-0.1,3.7-1.2,5.3c-1.1,1.5-2.8,2.5-4.7,2.7
								c-0.9,0.1-1.5,0.9-1.4,1.7C473.1,344.6,473.7,345.2,474.3,345.2z"/>
						</g>
						<g>
							<path class="st7" d="M501.9,308.7c5-4.8-18.7-17.5-17.6-5.2C484.7,306.9,498.9,311.5,501.9,308.7z"/>
						</g>
						<g>
							<path class="st7" d="M448.9,308.7c-5-4.8,18.7-17.5,17.6-5.2C466.1,306.9,451.8,311.5,448.9,308.7z"/>
						</g>
						<g>
							<g>
								<path class="st7" d="M453.8,323.6c-0.5,3.7,2.1,7.2,5.8,7.7c3.7,0.5,7.2-2.1,7.7-5.8c0.5-3.7-2.1-7.2-5.8-7.7
									C457.8,317.3,454.4,319.9,453.8,323.6z"/>
							</g>
						</g>
						<g>
							<g>
								<path class="st7" d="M487.4,323.3c-0.5,3.7,2.1,7.2,5.8,7.7c3.7,0.5,7.2-2.1,7.7-5.8c0.5-3.7-2.1-7.2-5.8-7.7
									C491.4,316.9,487.9,319.5,487.4,323.3z"/>
							</g>
						</g>
						<g>
							<path class="st7" d="M476.4,356.4c0.6,0.1,1.2,0.1,1.8,0.2c0.9,0,1.6-0.6,1.7-1.5c0-0.9-0.6-1.6-1.5-1.7
								c-5.2-0.3-10.4-2.6-14.2-6.4c-0.6-0.6-1.6-0.6-2.2,0c-0.6,0.6-0.6,1.6,0,2.2C465.8,353.1,471,355.6,476.4,356.4z"/>
						</g>
						<g>
							<path class="st7" d="M401.8,334.2c0.1,0,0.2,0,0.3,0c0.9-0.1,1.5-0.8,1.4-1.7c-0.4-4.2-2.8-8.1-6.5-10.3
								c-3.6-2.1-8.3-2.4-12.1-0.7c-0.8,0.4-1.1,1.3-0.8,2.1c0.4,0.8,1.3,1.1,2.1,0.8c2.9-1.3,6.5-1.1,9.2,0.5
								c2.8,1.6,4.6,4.6,4.9,7.8C400.5,333.6,401,334.2,401.8,334.2z"/>
						</g>
						<g>
							<path class="st1" d="M514.5,316.2c0,0-16.9-20.2-23-43.4c0,0-15,27.3-65.7,46.7c0,0,3.3,25.5-1,25.6
								c-4.3,0.1-10.3-14-17.6-27.3c-7.3-13.3-17.7-25.2-17.7-25.2l31.5-54.2l19.8-7l24-1.3l21.4,9l17,10.9l13.6,25.3l3.6,20.5
								L514.5,316.2z"/>
						</g>
						<path class="st8" d="M452.3,348.2c-3.6,5-10.9,4.8-14.2-0.4c-1.8-2.9-1.7-6.7,0.2-9.5c3.6-5,10.9-4.8,14.2,0.4
							C454.4,341.6,454.3,345.4,452.3,348.2z"/>
						<path class="st8" d="M509.6,350.1c-3.6,5-10.9,4.8-14.2-0.4c-1.8-2.9-1.7-6.7,0.2-9.5c3.6-5,10.9-4.8,14.2,0.4
							C511.6,343.4,511.6,347.3,509.6,350.1z"/>
					</g>
				</g>
			</g>
			<path class="st9" d="M487.8,419.7l-4.9-25.5c0,0-6,3.9-24.8,3.6c-11.2-0.2-21.1-8.7-21.1-8.7s-26.3,2.1-30.7,3.6
				c-4.4,1.6-3.5,25.8-3.5,25.8s27.5,16.1,52.2,19.1C479.7,440.5,487.8,419.7,487.8,419.7z"/>
			<path class="st1" d="M482.9,394.2l0.2,7.3c-16.8,4.7-39.2-1.8-46-12.5c0,0,11.3,7.1,22.5,7.3
				C478.4,396.6,482.9,394.2,482.9,394.2z"/>
			<g>
				<path class="st1" d="M446.3,431.8c-12,0-23.9-2.2-35.1-6.5c-0.5-0.2-0.8-0.8-0.6-1.3c0.2-0.5,0.8-0.8,1.3-0.6
					c22.7,8.8,48.5,8.5,71-0.9c0.5-0.2,1.1,0,1.3,0.5c0.2,0.5,0,1.1-0.5,1.3C471.9,429.3,459.1,431.8,446.3,431.8z"/>
			</g>
		</g>
		<g>
			<path class="st10" d="M393.2,299.2c5,0.8,7.5,3.6,8.4,8.4c2,11.1,4.3,22.2,6.5,33.3c1,5.4-1.5,9.8-6.3,11
				c-4.7,1.2-8.9-1.4-10.7-6.5c-0.3-0.7-0.9-1.4-1.5-1.8c-10.5-6.7-13.4-21.7-6.3-32c0.5-0.7,0.8-1.8,0.8-2.7
				c-0.2-3.2,0.9-5.7,3.2-7.9c0.6-0.6,0.9-1.8,0.9-2.8c-0.5-7.7-0.3-15.3,1.7-22.9c2.1-7.7,5.6-14.6,10.2-21c0.7-1,1.1-1.9,0.7-3.3
				c-1.1-3-0.1-5.7,2.1-7.9c12.7-13,27.9-21.2,45.9-23.7c26.4-3.7,49.2,4.3,68.3,22.9c2.8,2.7,4.2,5.7,2.7,9.6
				c-0.2,0.6,0.4,1.7,0.8,2.4c6,8.4,10.4,17.6,11.5,27.9c0.6,5.3,0.3,10.6,0.3,15.9c0,1.3,0.1,2.4,1.3,3.3c2.2,1.8,2.9,4.3,2.9,7.1
				c0,1,0.3,2.3,0.9,3.1c7,10.1,4,25.2-6.4,31.8c-0.6,0.4-1.3,1.1-1.5,1.8c-2.2,6-6.3,8-12.4,6c-0.1,0-0.3,0-0.5,0
				c-10.6,16.1-25.1,27-43.6,32.2c-0.4,3.9-0.7,4.3-4.4,4.9c-2.2,0.4-4.3,0.8-6.5,1c-3.4,0.4-5.7-1.2-6.2-4.5
				c-0.6-3.5,1-5.8,4.5-6.4c2.3-0.4,4.6-0.8,7-1.2c2.4-0.4,4.3,0,5.1,2.9c1.6-0.5,3.1-0.9,4.6-1.4C492,373.5,504,364,513,350.7
				c0.7-1,0.7-1.8,0.3-3c-0.7-2.1-1.1-4.5-0.8-6.6c1.9-10.9,4.1-21.8,6.2-32.7c1.1-5.9,2.7-7.5,8.6-9.3c1.3-11.6-0.2-22.7-5.6-33.1
				c-1.6-3-3.5-5.9-5.4-8.7c-0.3-0.5-1.3-1-1.9-0.9c-3,0.4-5.4-0.5-7.6-2.7c-13.4-13.7-29.8-20.5-48.9-19.9
				c-16.9,0.5-31.4,7.2-43.4,19.1c-2.5,2.5-5.1,4.3-8.8,3.4c-0.4-0.1-1.1,0.3-1.4,0.7C395,269.5,391.3,283.5,393.2,299.2z"/>
		</g>
	</g>
	<g>
		<g>
			<path class="st11" d="M811.7,153.8c-0.3,5.8,3.5,10.8,9.1,11.5c2.7,0.3,5.6,0.2,8.3,0.3c3,0.1,4.4,1.3,4.4,4.4
				c0,7.9,0,15.7,0,23.6c0,3.6-1.3,4.8-4.8,4.8H678.5c-4.1,0-5.3-1.1-5.3-5.3v-22.7c0-3.6,1.2-4.8,4.8-4.8c2.6,0,5.3,0.1,7.8-0.2
				c5.6-0.7,9.5-5.6,9.2-11.5c-0.3-5.5-4.8-9.9-10.3-10.1c-2.4-0.1-4.8,0-7.2,0c-2.9,0-4.3-1.4-4.3-4.3c0-8,0-16.1,0-24.1
				c0-3.1,1.3-4.4,4.4-4.4c7.7,0,15.5,0,23.2,0l1.2,0l19.4-0.1h-10.3l19.8-0.1l94.8-0.6c1.1,0.4,2.3,0.7,3.4,0.7
				c2.9,0.1,4.3,1.4,4.3,4.2c0,8.2,0,16.3,0,24.5c0,2.8-1.4,4.2-4.2,4.2c-2.4,0-4.9,0-7.3,0.1C816.5,144,812,148.4,811.7,153.8z"/>
			<g>
				<path class="st12" d="M711.1,110.8h10.3l9.5-0.1L711.1,110.8z M821.9,143.8c2.4-0.1,4.9,0,7.3-0.1c2.8,0,4.2-1.4,4.2-4.2
					c0-8.2,0-16.3,0-24.5c0-2.8-1.4-4-4.3-4.2c-1.2,0-2.4-0.3-3.4-0.7l-94.8,0.6l76.5-0.2c0,0.1-0.1,0.2-0.1,0.3h-85.9l-19.4,0.1
					l-1.2,0c-7.7,0-15.5,0-23.2,0c-3.1,0-4.4,1.3-4.4,4.4c0,8,0,16.1,0,24.1c0,2.9,1.4,4.3,4.3,4.3c2.4,0,4.8,0,7.2,0
					c5.5,0.2,10.1,4.7,10.3,10.1c0.3,5.8-3.5,10.8-9.2,11.5c-2.6,0.3-5.2,0.2-7.8,0.2c-3.6,0-4.8,1.2-4.8,4.8v22.7
					c0,4.1,1.1,5.3,5.3,5.3h150.1c3.6,0,4.8-1.3,4.8-4.8c0-7.9,0-15.7,0-23.6c0-3.1-1.3-4.3-4.4-4.4c-2.8,0-5.6,0.1-8.3-0.3
					c-5.6-0.7-9.4-5.7-9.1-11.5C812,148.4,816.5,144,821.9,143.8z M821.6,172.8c1.4,0.1,2.8,0,4.4,0v18.1H680.7v-18.1
					c6.9,0.5,13.1-1.2,17.7-6.8c2.7-3.4,4.1-7.4,4-11.7c-0.1-5.6-2.4-10.3-6.7-13.9c-4.3-3.6-9.5-4.4-15-4.1v-18.1h145.4v18.1
					c-1.1,0-2.1,0-3.2,0c-9.9,0.2-17.5,6.9-18.5,16.6C803.4,163.1,811.4,172.4,821.6,172.8z"/>
			</g>
			<g>
				<polygon class="st13" points="749.3,171.2 730.2,152 737.1,145.1 749.3,157.4 780.3,126.4 787.2,133.3 				"/>
			</g>
		</g>
		<path class="st14" d="M928,200.3c-0.3,5.8,3.5,10.8,9.1,11.5c2.7,0.3,5.6,0.2,8.3,0.3c3,0.1,4.4,1.3,4.4,4.4c0,7.9,0,15.7,0,23.6
			c0,3.6-1.3,4.8-4.8,4.8H794.8c-4.1,0-5.3-1.1-5.3-5.3v-22.7c0-3.6,1.2-4.8,4.8-4.8c2.6,0,5.3,0.1,7.8-0.2
			c5.6-0.7,9.5-5.6,9.2-11.5c-0.3-5.5-4.8-9.9-10.3-10.1c-2.4-0.1-4.8,0-7.2,0c-2.9,0-4.3-1.4-4.3-4.3c0-8,0-16.1,0-24.1
			c0-3.1,1.3-4.4,4.4-4.4c7.7,0,15.5,0,23.2,0l1.2,0l19.4-0.1h-10.3l19.8-0.1l94.8-0.6c1.1,0.4,2.3,0.7,3.4,0.7
			c2.9,0.1,4.3,1.4,4.3,4.2c0,8.2,0,16.3,0,24.5c0,2.8-1.4,4.2-4.2,4.2c-2.4,0-4.9,0-7.3,0.1C932.8,190.5,928.3,194.9,928,200.3z"/>
		<g>
			<path class="st15" d="M818.3,157.4l123.7-0.8c1.1,0.4,2.3,0.6,3.4,0.7c2.9,0.1,4.3,1.4,4.3,4.2c0,8.1,0,16.3,0,24.4
				c0,2.8-1.4,4.2-4.2,4.2c-2.4,0-4.9,0-7.3,0.1c-5.4,0.2-9.9,4.7-10.2,10c-0.3,5.8,3.5,10.8,9.1,11.5c2.7,0.3,5.6,0.2,8.3,0.3
				c3,0.1,4.3,1.3,4.4,4.4c0,7.9,0,15.7,0,23.6c0,3.6-1.3,4.8-4.8,4.8c-25.1,0-50.2,0-75.2,0c-25,0-49.9,0-74.9,0
				c-4.1,0-5.3-1.1-5.3-5.3c0-7.6,0-15.2,0-22.7c0-3.6,1.2-4.8,4.8-4.8c2.6,0,5.3,0.1,7.8-0.2c5.6-0.7,9.5-5.6,9.2-11.5
				c-0.3-5.5-4.8-9.9-10.3-10.1c-2.4-0.1-4.8,0-7.2,0c-2.9,0-4.3-1.4-4.3-4.3c0-8,0-16.1,0-24.1c0-3.1,1.3-4.4,4.4-4.4
				c7.7,0,15.5,0,23.2,0 M942.4,164.7c-48.5,0-96.9,0-145.4,0c0,6.1,0,12,0,18.1c5.5-0.3,10.7,0.5,15,4.1c4.3,3.6,6.6,8.2,6.7,13.8
				c0.1,4.4-1.3,8.3-4,11.7c-4.6,5.6-10.7,7.3-17.7,6.8c0,6.2,0,12.1,0,18.1c48.5,0,97,0,145.3,0c0-6.1,0-12,0-18.1
				c-1.6,0-3,0.1-4.4,0c-10.2-0.4-18.2-9.7-17.2-19.9c1-9.7,8.5-16.4,18.5-16.6c1.1,0,2.1,0,3.2,0
				C942.4,176.6,942.4,170.7,942.4,164.7z M827.4,157.3c32.2,0,64.2,0,96.3,0c0-0.1,0.1-0.2,0.1-0.3"/>
		</g>
		<polygon class="st13" points="892.7,185.1 885.1,177.5 868.6,194 852,177.5 844.4,185.1 861,201.6 844.4,218.1 852,225.8 
			868.6,209.2 885.1,225.8 892.7,218.1 876.2,201.6 		"/>
	</g>
	<g>
		<path class="st16" d="M538.3,64.7h29.9c14.9,0,27,12.2,27,27.1v1.8c0,14.9-12.1,27-27,27h-9.7l6.1,16.1l-23.1-16.1h-3.2
			c-14.9,0-27-12.1-27-27v-1.8C511.2,76.9,523.3,64.7,538.3,64.7z"/>
		<path class="st17" d="M491.2,14.8h-46.4c-23.2,0-42.1,18.9-42.1,42v2.8c0,23.2,18.9,42.1,42.1,42.1h15l-9.4,24.9l35.9-24.9h4.9
			c4.4,0,8.7-0.7,12.8-2c-0.7-2.7-1.1-5.4-1.1-8.2v-1.8c0-4.2,0.8-8.3,2.5-12.2c1.6-3.7,3.8-7.1,6.7-10c2.9-2.9,6.2-5.1,10-6.7
			c3.6-1.5,7.3-2.3,11.2-2.5v-1.6C533.3,33.7,514.4,14.8,491.2,14.8z M435.3,65c-4.6,0-8.4-3.7-8.4-8.4c0-4.6,3.7-8.4,8.4-8.4
			c4.6,0,8.4,3.7,8.4,8.4C443.6,61.2,439.9,65,435.3,65z M464.7,65c-4.6,0-8.4-3.7-8.4-8.4c0-4.6,3.7-8.4,8.4-8.4s8.4,3.7,8.4,8.4
			C473,61.2,469.3,65,464.7,65z M494.1,65c-4.6,0-8.4-3.7-8.4-8.4c0-4.6,3.7-8.4,8.4-8.4s8.4,3.7,8.4,8.4
			C502.5,61.2,498.7,65,494.1,65z"/>
	</g>
	<g>
		<g>
			<path class="st18" d="M170.3,339.6c-23.6-0.1-46.4-3.9-68.6-11.7c-5.1-1.8-7.2-4.7-7.3-10c-0.1-6.6,0.2-13.2-0.1-19.7
				c-0.5-13.7,5.5-24,16.2-31.9c10-7.3,21.4-11.4,33.3-14.3c0.9-0.2,2.2,0.1,3.1,0.6c15.5,8.3,30.9,8.2,46.3,0
				c1-0.5,2.3-0.8,3.4-0.6c12.4,3.1,24.2,7.4,34.4,15.4c9.8,7.7,15.1,17.5,14.8,30.2c-0.2,6.4,0,12.8,0,19.1c0,6.7-1.9,9.4-8.2,11.5
				C215.8,335.7,193.2,339.5,170.3,339.6z"/>
			<path class="st18" d="M169.9,249.1c-20.6-0.1-37.1-16.9-37-37.5c0.2-20.1,17.2-36.8,37.3-36.6c20.7,0.2,37.1,17,37,37.6
				C207.1,232.8,190.3,249.2,169.9,249.1z"/>
			<path class="st19" d="M126.4,232.2c0,13.5-11.2,24.5-24.7,24.4c-13.5-0.1-24.5-11.3-24.4-24.7c0.1-13.5,11.1-24.4,24.7-24.3
				C115.6,207.6,126.4,218.5,126.4,232.2z"/>
			<path class="st20" d="M213.9,231.9c0-13.6,11-24.4,24.6-24.4c13.6,0,24.5,11,24.5,24.6c0,13.4-11.2,24.5-24.7,24.5
				C224.8,256.5,213.8,245.4,213.9,231.9z"/>
			<path class="st19" d="M84.8,318.8c-5.7-1.1-11-1.9-16.2-3.1c-4.7-1.1-9.4-2.7-14-4.1c-3.1-0.9-4.4-3-4.3-6.2
				c0.1-4.3,0.2-8.6,0-12.8c-0.4-9.7,3.9-16.8,11.6-22.2c6.2-4.3,13.2-6.9,20.5-8.8c0.8-0.2,1.8-0.2,2.6,0.1
				c3.6,1.4,7.1,2.9,10.9,4.5c-0.1,0.2-0.4,0.7-0.7,1.1c-6.7,8.3-10.2,17.7-10.3,28.3c0,6.5,0,12.9,0,19.4
				C84.8,316,84.8,317.1,84.8,318.8z"/>
			<path class="st20" d="M255.4,318.2c0-7.1-0.1-14,0-21c0.1-6.9-0.9-13.5-3.9-19.7c-2-4.1-4.6-7.9-6.8-11.5c3.4-1.4,7-3,10.7-4.4
				c0.7-0.3,1.6-0.3,2.3-0.1c8.1,2,15.8,4.9,22.4,10.1c6.6,5.2,10.1,11.9,9.9,20.4c-0.1,4.7,0,9.4,0,14c0,2.4-0.9,4.5-3.3,5.1
				c-9.7,2.5-19.5,4.8-29.2,7.2C256.9,318.4,256.3,318.2,255.4,318.2z"/>
		</g>
		<text transform="matrix(1 0 0 1 151.3942 411.5239)" class="st1 st21 st22">8</text>
	</g>
	<text transform="matrix(1 0 0 1 473.2153 174.9565)" class="st1 st21 st23">20</text>
	<text transform="matrix(1 0 0 1 796.3159 317.3696)" class="st1 st21 st24">3</text>
</g>
</svg>
