<?xml version="1.0" encoding="utf-8"?>
<!-- Generator: Adobe Illustrator 23.0.3, SVG Export Plug-In . SVG Version: 6.00 Build 0)  -->
<svg version="1.1" id="Icons" xmlns="http://www.w3.org/2000/svg" xmlns:xlink="http://www.w3.org/1999/xlink" x="0px" y="0px"
	 viewBox="0 0 32 32" style="enable-background:new 0 0 32 32;" xml:space="preserve">
<style type="text/css">
	.st11{fill:#FFF;stroke:#7721AD;stroke-width:2;stroke-linecap:round;stroke-linejoin:round;stroke-miterlimit:10;}
</style>
<path class="st11" d="M17,27H4c-1.1,0-2-0.9-2-2v-4.4"/>
<path class="st11" d="M14,24L14,24c-1.1,0-2-0.9-2-2v-3h4v3C16,23.1,15.1,24,14,24z"/>
<path class="st11" d="M18,8h-8V6c0-1.1,0.9-2,2-2h4c1.1,0,2,0.9,2,2V8z"/>
<line class="st11" x1="5" y1="28" x2="5" y2="27"/>
<circle class="st11" cx="24" cy="24" r="7"/>
<line class="st11" x1="24" y1="21" x2="24" y2="27"/>
<line class="st11" x1="21" y1="24" x2="27" y2="24"/>
<path class="st11" d="M12,22H5c-2.2,0-4-1.8-4-4v-8c0-1.1,0.9-2,2-2h22c1.1,0,2,0.9,2,2v7.7"/>
</svg>
