<?xml version="1.0" encoding="utf-8"?>
<!-- Generator: Adobe Illustrator 23.0.5, SVG Export Plug-In . SVG Version: 6.00 Build 0)  -->
<svg version="1.1" id="Capa_1" xmlns="http://www.w3.org/2000/svg" xmlns:xlink="http://www.w3.org/1999/xlink" x="0px" y="0px"
	 viewBox="0 0 469.3 469.3" style="enable-background:new 0 0 469.3 469.3;" xml:space="preserve">
<g>
	<path d="M418.6,64.8c0-4.9-1.8-9.5-5.3-12.9c-3.4-3.5-8-5.4-12.9-5.4c0,0,0,0,0,0c-9.9,0-18.2,8.3-18.2,18.2l0,14
		c0,0.2,0,0.3,0,0.5c0,0.2,0,0.3,0,0.5c0,0,0,92.9,0,92.9c0,0,0,0,0,0c0,0,0.2,5.7,0.6,6.5l11.4,26.6c1.1,2.5,3.5,4.2,6.3,4.2
		c1.8,0,3.5-0.7,4.8-2c0.6-0.6,1.1-1.4,1.4-2.1l11.4-26.6C418.6,177.9,418.5,69.4,418.6,64.8z M400.3,185.7l-2.6-6.2h5.3
		L400.3,185.7z M404.5,165.9h-8.7l0-79.7h8.9C404.5,135.7,404.4,156.1,404.5,165.9z M404.9,64.8c0,2.6,0,5.2,0,7.7h-9l0-7.7
		c0-2.4,2.2-4.5,4.5-4.5c0,0,0,0,0,0c1.2,0,2.3,0.5,3.2,1.3C404.4,62.4,404.9,63.5,404.9,64.8L404.9,64.8z"/>
	<path d="M346.3,55.3H227c-5.6,0-10.2,4.6-10.2,10.2s4.6,10.2,10.2,10.2h119.3c5.6,0,10.2-4.6,10.2-10.2S352,55.3,346.3,55.3z"/>
	<path d="M346.3,96.9H227c-5.6,0-10.2,4.6-10.2,10.2c0,5.6,4.6,10.2,10.2,10.2h119.3c5.6,0,10.2-4.6,10.2-10.2
		C356.5,101.5,352,96.9,346.3,96.9z"/>
	<path d="M346.3,138.5H227c-5.6,0-10.2,4.6-10.2,10.2s4.6,10.2,10.2,10.2h119.3c5.6,0,10.2-4.6,10.2-10.2S352,138.5,346.3,138.5z"/>
	<path d="M346.3,180.2H227c-5.6,0-10.2,4.6-10.2,10.2c0,5.6,4.6,10.2,10.2,10.2h119.3c5.6,0,10.2-4.6,10.2-10.2
		C356.5,184.7,352,180.2,346.3,180.2z"/>
	<path d="M440.7,0.2H193.7c-15.8,0-28.7,12.9-28.7,28.7V213H28.7C12.9,213,0,225.8,0,241.7v198.8c0,15.8,12.9,28.7,28.7,28.7h246.9
		c15.8,0,28.7-12.9,28.7-28.7V256.4h136.4c15.8,0,28.7-12.9,28.7-28.7V28.8C469.3,13,456.5,0.2,440.7,0.2z M283.9,440.5
		c0,4.6-3.7,8.3-8.3,8.3H28.7c-4.6,0-8.3-3.7-8.3-8.3v-28.2c0,0,0,0,0.1-0.1l49.4-53.4l51.5,39.5c4.1,3.2,10,2.7,13.6-1.1l80.9-86.3
		l67,100c0.3,0.5,0.7,0.9,1.1,1.3V440.5z M283.9,256.4V376l-58.2-87c-1.7-2.6-4.5-4.2-7.6-4.5c-3.1-0.3-6.1,0.9-8.3,3.2l-83.4,88.9
		L74.9,337c-4.2-3.2-10.1-2.7-13.7,1.2l-40.9,44.2V241.7c0-4.6,3.7-8.3,8.3-8.3h137h22h87.9c2.4,0,4.6,1,6.1,2.7
		c1.4,1.5,2.2,3.5,2.2,5.7V256.4z M449,227.7c0,4.6-3.7,8.3-8.3,8.3h-137c-2.6-13.1-14.2-23-28.1-23h-90.2V28.8
		c0-4.6,3.7-8.3,8.3-8.3h246.9c4.6,0,8.3,3.7,8.3,8.3V227.7z"/>
	<path d="M105.4,259.7c-19.4,0-35.3,16-35.3,35.6s15.8,35.6,35.3,35.6c19.4,0,35.3-16,35.3-35.6S124.8,259.7,105.4,259.7z
		 M105.4,310.6c-8.2,0-14.9-6.8-14.9-15.3s6.7-15.3,14.9-15.3c8.2,0,14.9,6.8,14.9,15.3S113.6,310.6,105.4,310.6z"/>
</g>
</svg>
