<?xml version="1.0" encoding="utf-8"?>
<!-- Generator: Adobe Illustrator 23.0.5, SVG Export Plug-In . SVG Version: 6.00 Build 0)  -->
<svg version="1.1" xmlns="http://www.w3.org/2000/svg" xmlns:xlink="http://www.w3.org/1999/xlink" x="0px" y="0px"
	 viewBox="0 0 512 512" style="enable-background:new 0 0 512 512;" xml:space="preserve">
<style type="text/css">
</style>
<g id="líneas" class="st0">
	<path class="st14" d="M479,268.9H212c-11,0-20-9-20-20v-215c0-11,9-20,20-20h267c11,0,20,9,20,20v215
		C499,259.9,490,268.9,479,268.9z"/>
	<path class="st14" d="M300.5,499h-267c-11,0-20-9-20-20V264c0-11,9-20,20-20h267c11,0,20,9,20,20v215
		C320.5,490,311.5,499,300.5,499z"/>
	<g>
		<polyline class="st9" points="20,442.1 81,383 143.5,427.3 238.5,333.6 321,442.1 		"/>
		<ellipse class="st9" cx="123.9" cy="319.3" rx="24.6" ry="24.9"/>
	</g>
	<g>
		<g class="st1">
			<path class="st15" d="M261.3,375c-0.8-0.8-1.8-1.3-3-1.3c-18.4,0-61.9,12.3-79.7,48.5l0-33c19.7-1.9,35.7-17.8,37.1-37.9
				c1.7-25.2,4.6-32.9,6.1-35.2c0.8-1.2,0.9-2.7,0.3-3.9c-0.6-1.3-1.8-2.1-3.2-2.2c-0.6,0-10.4-0.8-21,2l-20.7-17
				c-1.5-1.2-3.7-1.2-5.1,0.1l-20,17.1c-10.9-3-21-2.2-21.6-2.1c-1.4,0.1-2.6,1-3.2,2.2c-0.6,1.3-0.5,2.8,0.3,3.9
				c1.5,2.3,4.4,10,6.1,35.2c1.4,20.1,17.3,36,37,37.9l0,32.9c-17.9-36.1-61.3-48.5-79.7-48.5c-1.1,0-2.2,0.5-3,1.3
				c-0.8,0.8-1.1,2-1,3.1c8,71.6,58.8,91,87.6,91.2c0,0,0,0,0,0s0,0,0,0c28.8-0.2,79.7-19.6,87.6-91.2
				C262.4,377,262.1,375.9,261.3,375z M95.5,381.9c24,2.2,75.1,21.4,75.1,75.4l0,3.8C144.7,459.4,104,441.1,95.5,381.9z
				 M170.7,345.8l0,35.5c-15.5-1.9-28-14.5-29.1-30.5c-1.2-18.1-3.1-27.7-4.7-32.9c6.9,0.2,18.6,1.8,26.2,8.8
				C168.1,331.2,170.7,337.6,170.7,345.8L170.7,345.8L170.7,345.8z M174.7,328.6c-1.6-2.9-3.7-5.6-6.2-7.9c-2.4-2.2-5.1-3.9-7.9-5.3
				l14.2-12.1l14.5,11.9c-3,1.4-5.8,3.3-8.3,5.6C178.3,323,176.3,325.6,174.7,328.6z M178.6,346c0-0.1,0-0.1,0-0.2
				c0-8.2,2.5-14.6,7.6-19.2c7.6-7,19.3-8.5,26.2-8.8c-1.6,5.2-3.5,14.8-4.7,32.9c-1.1,16-13.6,28.6-29.1,30.5L178.6,346z
				 M178.7,461.2l0-3.8l0,0c0-54,51.1-73.2,75.1-75.5C245.3,441.1,204.6,459.4,178.7,461.2z"/>
		</g>
	</g>
	<path class="st16" d="M241.7,397.3c-0.3-2.9-2.6-5.2-5.5-5.5c-1.4-0.1-35-3.1-54.6,16.5c-1.6,1.6-3.1,3.4-4.4,5.2v-26.2h10.5
		c21.9,0,39.8-17.8,39.8-39.8v-52.4c0-3.4-2.7-6.1-6.1-6.1c-15.8,0-29.3,3.8-39.2,11c-4.6,3.4-8.3,7.4-11.1,12
		c-2.8-4.6-6.5-8.7-11.1-12c-9.9-7.2-23.4-11-39.2-11c-3.4,0-6.1,2.7-6.1,6.1v52.4c0,21.9,17.8,39.8,39.8,39.8h10.5v26.2
		c-1.3-1.8-2.8-3.5-4.4-5.2c-19.6-19.6-53.2-16.6-54.6-16.5c-2.9,0.3-5.2,2.6-5.5,5.5c-0.1,1.4-3.1,35,16.5,54.6
		c14.6,14.6,37.1,16.7,48.1,16.7v14.2c0,3.4,2.7,6.1,6.1,6.1s6.1-2.7,6.1-6.1v-14.2c11,0,33.5-2.1,48.1-16.7
		C244.9,432.3,241.9,398.7,241.7,397.3L241.7,397.3z M189.4,309.9c6.5-4.8,15.4-7.6,25.8-8.4v46c0,15.2-12.3,27.5-27.5,27.5h-10.5
		v-39.4C177.1,324.5,181.2,315.9,189.4,309.9z M126.8,347.5v-46c10.5,0.8,19.3,3.7,25.8,8.4c8.1,5.9,12.2,14.6,12.2,25.7V375h-10.5
		C139.2,375,126.8,362.7,126.8,347.5L126.8,347.5z M125.4,443.3c-11.4-11.4-13.1-30.3-13.1-39.4c9.2,0.1,28,1.7,39.4,13.1
		c11.4,11.4,13.1,30.3,13.1,39.4C155.7,456.4,136.9,454.8,125.4,443.3L125.4,443.3z M177.1,456.4c0-0.2,0-0.5,0-0.7
		c0.1-9.4,1.9-27.5,13.1-38.7c11.4-11.4,30.3-13.1,39.4-13.1c0,9.2-1.6,27.9-13.1,39.4C205.1,454.7,186.3,456.3,177.1,456.4
		L177.1,456.4z"/>
	<g class="st1">
		<g>
			<g>
				<path class="st17" d="M435.4,57.5c-8.1,0-15.2,7.1-15.2,15.2l0,120.9c0,0.4,0.1,0.8,0.2,1.1l12.3,28.8c0.5,1.1,1.5,1.8,2.7,1.8
					c0.8,0,1.5-0.3,2.1-0.9c0.3-0.3,0.5-0.6,0.6-0.9l12.3-28.8c0.3-0.6,0.3-1.3,0.1-2c-0.3-2.9-0.6-3.8,0.1-120
					c0-4.1-1.5-7.9-4.4-10.8C443.3,59.1,439.5,57.5,435.4,57.5z M444.8,72.7c-0.6,108.5-0.5,113,0.1,120.1l-9.5,22.1l-9.4-22
					l0-120.3c0-5,4.3-9.4,9.4-9.4c2.5,0,4.9,1,6.6,2.8C443.8,67.9,444.8,70.2,444.8,72.7z"/>
			</g>
		</g>
		<g>
			<g>
				<path class="st17" d="M447.7,186.6h-24.6c-1.6,0-2.9,1.3-2.9,2.9s1.3,2.9,2.9,2.9h24.6c0.8,0,1.5-0.3,2.1-0.9
					c0.5-0.5,0.9-1.3,0.9-2.1C450.6,187.9,449.3,186.6,447.7,186.6z"/>
			</g>
		</g>
		<g>
			<g>
				<path class="st17" d="M447.7,85.5h-24.6c-1.6,0-2.9,1.3-2.9,2.9c0,1.6,1.3,2.9,2.9,2.9h24.6c0.8,0,1.5-0.3,2.1-0.9
					c0.5-0.5,0.9-1.3,0.9-2.1C450.6,86.8,449.3,85.5,447.7,85.5z"/>
			</g>
		</g>
	</g>
	<g class="st1">
		<line class="st11" x1="248" y1="73.5" x2="377" y2="73.5"/>
		<line class="st11" x1="248" y1="118.5" x2="377" y2="118.5"/>
		<line class="st11" x1="248" y1="163.5" x2="377" y2="163.5"/>
		<line class="st11" x1="248" y1="208.5" x2="377" y2="208.5"/>
	</g>
	<polyline class="st9" points="16.5,441 76.7,375.9 140.4,424.7 237.4,321.3 317.5,441 	"/>
	<ellipse class="st9" cx="116.4" cy="322" rx="27.1" ry="27.5"/>
</g>
<g id="expand">
	<g>
		<path class="st13" d="M455.9,87.2c0-0.5,0-0.9-0.1-1.3c0-4.6,0.1-9.4,0.1-14.4c0-5.3-2-10.3-5.7-14c-3.7-3.8-8.7-5.8-14.1-5.8
			c0,0,0,0,0,0c-10.7,0-19.8,9.1-19.8,19.8l0,15.2c0,0.2,0,0.4,0,0.6c0,0.2,0,0.4,0,0.6l0,101c0,0,0,0,0,0c0,0,0,0,0,0l0,4.2
			c0,1,0.2,2,0.6,2.9l12.4,28.9c1.2,2.8,3.9,4.5,6.9,4.5c2,0,3.8-0.8,5.2-2.2c0.7-0.7,1.2-1.5,1.6-2.3l12.4-28.9
			c0.6-1.4,0.7-3,0.4-4.5c0-0.2,0-0.4-0.1-0.7c0.1-0.6,0.2-1.2,0.2-1.8c0-0.8-0.1-1.6-0.4-2.3c-0.1-7.9-0.2-30,0.2-97.8
			C455.8,88.1,455.9,87.6,455.9,87.2z M436,202.8l-2.9-6.7h5.7L436,202.8z M440.6,181.2h-9.5l0-86.6h9.7
			C440.5,148.5,440.4,170.6,440.6,181.2z M440.9,71.4c0,2.9,0,5.6,0,8.3h-9.8l0-8.3c0-2.6,2.4-4.9,4.9-4.9c0,0,0,0,0,0
			c1.3,0,2.5,0.5,3.5,1.4C440.4,68.8,440.9,70.1,440.9,71.4L440.9,71.4z"/>
		<path class="st13" d="M377.3,61.1H247.7c-6.1,0-11.1,4.9-11.1,11.1c0,6.1,4.9,11.1,11.1,11.1h129.6c6.1,0,11.1-4.9,11.1-11.1
			C388.4,66,383.4,61.1,377.3,61.1z"/>
		<path class="st13" d="M377.3,106.3H247.7c-6.1,0-11.1,4.9-11.1,11.1c0,6.1,4.9,11.1,11.1,11.1h129.6c6.1,0,11.1-4.9,11.1-11.1
			C388.4,111.3,383.4,106.3,377.3,106.3z"/>
		<path class="st13" d="M377.3,151.5H247.7c-6.1,0-11.1,4.9-11.1,11.1c0,6.1,4.9,11.1,11.1,11.1h129.6c6.1,0,11.1-4.9,11.1-11.1
			C388.4,156.5,383.4,151.5,377.3,151.5z"/>
		<path class="st13" d="M377.3,196.8H247.7c-6.1,0-11.1,4.9-11.1,11.1s4.9,11.1,11.1,11.1h129.6c6.1,0,11.1-4.9,11.1-11.1
			S383.4,196.8,377.3,196.8z"/>
		<path class="st13" d="M479.8,1.2H211.5c-17.2,0-31.2,14-31.2,31.2v200.1H32.2C15,232.4,1,246.4,1,263.6v216.1
			c0,17.2,14,31.2,31.2,31.2h268.3c17.2,0,31.2-14,31.2-31.2V279.6h148.2c17.2,0,31.2-14,31.2-31.2V32.3C511,15.2,497,1.2,479.8,1.2
			z M309.5,479.7c0,5-4.1,9-9,9H32.2c-5,0-9-4.1-9-9V449c0,0,0.1,0,0.1-0.1l53.7-58l56,42.9c4.5,3.5,10.9,2.9,14.8-1.2l87.9-93.7
			l72.8,108.7c0.3,0.5,0.7,1,1.1,1.4V479.7z M309.5,279.6v130L246.2,315c-1.9-2.8-4.9-4.6-8.3-4.9c-3.4-0.3-6.7,1-9,3.5l-90.6,96.6
			l-56-43c-4.5-3.5-11-2.9-14.8,1.3l-44.4,48V263.6c0-5,4.1-9,9-9H181h23.9h95.6c2.6,0,5,1.1,6.6,2.9c1.5,1.6,2.4,3.8,2.4,6.1V279.6
			z M488.9,248.4c0,5-4.1,9-9,9H331c-2.9-14.2-15.5-25-30.5-25h-98V32.3c0-5,4.1-9,9-9h268.3c5,0,9,4.1,9,9V248.4z"/>
		<path class="st13" d="M115.5,283.2c-21.1,0-38.3,17.4-38.3,38.7s17.2,38.7,38.3,38.7c21.1,0,38.3-17.4,38.3-38.7
			S136.6,283.2,115.5,283.2z M115.5,338.5c-8.9,0-16.2-7.4-16.2-16.6s7.3-16.6,16.2-16.6c8.9,0,16.2,7.4,16.2,16.6
			S124.4,338.5,115.5,338.5z"/>
	</g>
</g>
</svg>
