<svg width="24" height="24" viewBox="0 0 24 24" fill="none" xmlns="http://www.w3.org/2000/svg">
<g clip-path="url(#clip0_141_99)">
<path d="M15 4C10.58 4 7 7.58 7 12C7 16.42 10.58 20 15 20C19.42 20 23 16.42 23 12C23 7.58 19.42 4 15 4ZM15 18C11.69 18 9 15.31 9 12C9 8.69 11.69 6 15 6C18.31 6 21 8.69 21 12C21 15.31 18.31 18 15 18ZM3 12C3 9.39 4.67 7.17 7 6.35V4.26C3.55 5.15 1 8.27 1 12C1 15.73 3.55 18.85 7 19.74V17.65C4.67 16.83 3 14.61 3 12Z" fill="black"/>
<path d="M15.0444 11.3889C13.7833 11.0611 13.3778 10.7222 13.3778 10.1944C13.3778 9.58889 13.9389 9.16667 14.8778 9.16667C15.8667 9.16667 16.2333 9.63889 16.2667 10.3333H17.4944C17.4556 9.37778 16.8722 8.5 15.7111 8.21667V7H14.0444V8.2C12.9667 8.43333 12.1 9.13333 12.1 10.2056C12.1 11.4889 13.1611 12.1278 14.7111 12.5C16.1 12.8333 16.3778 13.3222 16.3778 13.8389C16.3778 14.2222 16.1056 14.8333 14.8778 14.8333C13.7333 14.8333 13.2833 14.3222 13.2222 13.6667H12C12.0667 14.8833 12.9778 15.5667 14.0444 15.7944V17H15.7111V15.8056C16.7944 15.6 17.6556 14.9722 17.6556 13.8333C17.6556 12.2556 16.3056 11.7167 15.0444 11.3889Z" fill="black"/>
</g>
<defs>
<clipPath id="clip0_141_99">
<rect width="24" height="24" fill="white"/>
</clipPath>
</defs>
</svg>
