<svg width="20" height="19" viewBox="0 0 20 19" fill="none" xmlns="http://www.w3.org/2000/svg">
<path fill-rule="evenodd" clip-rule="evenodd" d="M12.8403 17.5175L18.2963 2.79752C18.5933 1.99552 17.8123 1.21552 17.0113 1.51252L2.28627 6.97252C1.36527 7.31452 1.43727 8.64052 2.39027 8.87952L9.22427 10.5965L10.9313 17.4125C11.1713 18.3665 12.4983 18.4395 12.8403 17.5175ZM18.0663 1.73952L9.22627 10.5995L18.0663 1.73952Z" fill="white"/>
<path d="M12.8403 17.5175L13.5435 17.7783L13.5435 17.7782L12.8403 17.5175ZM18.2963 2.79752L18.9995 3.05818L18.9996 3.05797L18.2963 2.79752ZM17.0113 1.51252L16.7505 0.8093L16.7505 0.809302L17.0113 1.51252ZM2.28627 6.97252L2.02552 6.2693L2.02519 6.26943L2.28627 6.97252ZM2.39027 8.87952L2.57302 8.15212L2.57271 8.15204L2.39027 8.87952ZM9.22427 10.5965L9.9518 10.4143C9.88462 10.146 9.67525 9.93651 9.40702 9.86912L9.22427 10.5965ZM10.9313 17.4125L10.2037 17.5947L10.2039 17.5955L10.9313 17.4125ZM18.5972 2.26925C18.8898 1.97602 18.8892 1.50115 18.596 1.20859C18.3028 0.916025 17.8279 0.916561 17.5353 1.20979L18.5972 2.26925ZM8.69534 10.0698C8.40278 10.363 8.40332 10.8379 8.69654 11.1304C8.98976 11.423 9.46464 11.4225 9.7572 11.1292L8.69534 10.0698ZM13.5435 17.7782L18.9995 3.05818L17.593 2.53686L12.137 17.2569L13.5435 17.7782ZM18.9996 3.05797C19.5193 1.65463 18.1526 0.289429 16.7505 0.8093L17.272 2.21573C17.4719 2.1416 17.6673 2.3364 17.5929 2.53706L18.9996 3.05797ZM16.7505 0.809302L2.02552 6.2693L2.54702 7.67573L17.272 2.21573L16.7505 0.809302ZM2.02519 6.26943C0.415042 6.86733 0.538297 9.18829 2.20783 9.60699L2.57271 8.15204C2.33624 8.09274 2.3155 7.7617 2.54735 7.67561L2.02519 6.26943ZM2.20752 9.60691L9.04152 11.3239L9.40702 9.86912L2.57302 8.15212L2.20752 9.60691ZM8.49674 10.7787L10.2037 17.5947L11.6588 17.2303L9.9518 10.4143L8.49674 10.7787ZM10.2039 17.5955C10.6232 19.2621 12.9445 19.393 13.5435 17.7783L12.1371 17.2567C12.052 17.4861 11.7193 17.4709 11.6586 17.2295L10.2039 17.5955ZM17.5353 1.20979L8.69534 10.0698L9.7572 11.1292L18.5972 2.26925L17.5353 1.20979Z" fill="white"/>
</svg>
