<?xml version="1.0" encoding="UTF-8"?>
<svg id="Capa_1" xmlns="http://www.w3.org/2000/svg" viewBox="0 0 400 400">
  <defs>
    <style>.cls-sendtoblock{fill:currentColor;stroke-width:0px;}</style>
  </defs>
  <path class="cls-sendtoblock" d="M184.37,91.41l-48.33-48.33c-1.29-1.29-3.01-2-4.83-2-.9,0-1.79.17-2.63.52-2.56,1.06-4.21,3.54-4.21,6.32v20.88h-.06c-32.33.95-56.78,8.9-72.67,23.63-16.1,14.94-23.93,36.51-23.93,65.95,0,3.04,2.04,5.74,4.98,6.58.61.17,1.24.25,1.86.25,2.38,0,4.56-1.21,5.81-3.23,22.23-35.78,45.22-37.75,83.94-38.13h.07s0,20.72,0,20.72c0,2.78,1.66,5.26,4.22,6.32,2.57,1.06,5.49.48,7.46-1.48l48.33-48.33c1.29-1.29,2-3.01,2-4.83s-.71-3.54-2-4.83ZM136.03,112.12c-1.37-1.36-3.22-2.13-4.8-2h-.07c-35.49.27-63.52.48-87.46,25.15l-.16.16.05-.22c7.58-36.04,35.43-52.83,87.63-52.83,3.77,0,6.84-3.07,6.84-6.84v-11.11l31.82,31.82-31.82,31.82v-11.11c0-1.84-.72-3.56-2.02-4.84Z"/>
  <path class="cls-sendtoblock" d="M173.61,336.45h-82.28c-11.25,0-20.39-9.15-20.39-20.39v-82.28c0-11.25,9.15-20.39,20.39-20.39h82.28c11.25,0,20.39,9.15,20.39,20.39v82.28c0,11.25-9.15,20.39-20.39,20.39ZM91.33,227.38c-3.53,0-6.39,2.87-6.39,6.39v82.28c0,3.53,2.87,6.39,6.39,6.39h82.28c3.53,0,6.39-2.87,6.39-6.39v-82.28c0-3.53-2.87-6.39-6.39-6.39h-82.28Z"/>
  <path class="cls-sendtoblock" d="M308.86,336.45h-82.28c-11.25,0-20.39-9.15-20.39-20.39v-82.28c0-11.25,9.15-20.39,20.39-20.39h82.28c11.25,0,20.39,9.15,20.39,20.39v82.28c0,11.25-9.15,20.39-20.39,20.39ZM226.58,227.38c-3.53,0-6.39,2.87-6.39,6.39v82.28c0,3.53,2.87,6.39,6.39,6.39h82.28c3.53,0,6.39-2.87,6.39-6.39v-82.28c0-3.53-2.87-6.39-6.39-6.39h-82.28Z"/>
  <path class="cls-sendtoblock" d="M240.61,201.2h-81.04c-11.59,0-21.02-9.43-21.02-21.02v-22c0-3.87,3.13-7,7-7s7,3.13,7,7v22c0,3.87,3.15,7.02,7.02,7.02h81.04c3.87,0,7.02-3.15,7.02-7.02v-81.04c0-3.87-3.15-7.02-7.02-7.02h-40.07c-3.87,0-7-3.13-7-7s3.13-7,7-7h40.07c11.59,0,21.02,9.43,21.02,21.02v81.04c0,11.59-9.43,21.02-21.02,21.02Z"/>
</svg>
