<svg width="49" height="49" viewBox="0 0 49 49" fill="none" xmlns="http://www.w3.org/2000/svg">
<g clip-path="url(#clip0_48_2587)">
<path d="M22.4583 28.5834H18.3749C18.3749 18.4363 26.6028 10.2084 36.7499 10.2084V14.2917C28.8487 14.2917 22.4583 20.6821 22.4583 28.5834ZM36.7499 22.4584V18.375C31.1149 18.375 26.5416 22.9484 26.5416 28.5834H30.6249C30.6249 25.1942 33.3608 22.4584 36.7499 22.4584ZM14.2916 8.16671C14.2916 5.90046 12.4745 4.08337 10.2083 4.08337C7.942 4.08337 6.12492 5.90046 6.12492 8.16671C6.12492 10.433 7.942 12.25 10.2083 12.25C12.4745 12.25 14.2916 10.433 14.2916 8.16671ZM23.377 9.18754H19.2937C18.8037 12.0867 16.3128 14.2917 13.2708 14.2917H7.14575C5.45117 14.2917 4.08325 15.6596 4.08325 17.3542V22.4584H16.3333V17.8442C20.1308 16.6396 22.9687 13.2913 23.377 9.18754ZM38.7916 34.7084C41.0578 34.7084 42.8749 32.8913 42.8749 30.625C42.8749 28.3588 41.0578 26.5417 38.7916 26.5417C36.5253 26.5417 34.7083 28.3588 34.7083 30.625C34.7083 32.8913 36.5253 34.7084 38.7916 34.7084ZM41.8541 36.75H35.7291C32.687 36.75 30.1962 34.545 29.7062 31.6459H25.6228C26.0312 35.7496 28.8691 39.098 32.6666 40.3025V44.9167H44.9166V39.8125C44.9166 38.118 43.5487 36.75 41.8541 36.75Z" fill="url(#paint0_linear_48_2587)"/>
</g>
<defs>
<linearGradient id="paint0_linear_48_2587" x1="-0.556899" y1="44.9167" x2="47.2367" y2="44.9167" gradientUnits="userSpaceOnUse">
<stop stop-color="#FFBF00"/>
<stop offset="1" stop-color="#FFBF00" stop-opacity="0.32"/>
</linearGradient>
<clipPath id="clip0_48_2587">
<rect width="49" height="49" fill="white"/>
</clipPath>
</defs>
</svg>
