<svg width="24" height="22" viewBox="0 0 24 22" fill="none" xmlns="http://www.w3.org/2000/svg">
<path fill-rule="evenodd" clip-rule="evenodd" d="M17.8676 16.0048C18.2865 16.0012 18.687 15.8337 18.9819 15.5387C19.2768 15.2437 19.4423 14.8451 19.4423 14.4298V6.58888C19.4441 6.38203 19.4048 6.17686 19.3267 5.98507C19.2485 5.79328 19.1331 5.61863 18.9868 5.47109C18.8406 5.32356 18.6665 5.20602 18.4745 5.1252C18.2825 5.04438 18.0762 5.00186 17.8676 5.00006H5.20801C4.99707 4.99823 4.78787 5.03807 4.59262 5.11726C4.39737 5.19646 4.21999 5.31342 4.07083 5.46132C3.92166 5.60923 3.8037 5.78511 3.72383 5.9787C3.64395 6.17229 3.60377 6.37972 3.60562 6.58888V14.4435C3.60743 14.6504 3.65032 14.8548 3.73183 15.0453C3.81334 15.2357 3.93188 15.4083 4.08068 15.5533C4.22948 15.6982 4.40562 15.8127 4.59905 15.8902C4.79248 15.9677 4.99941 16.0067 5.20801 16.0048H2.0171V17.5868H21.0308V16.0048H17.8676ZM5.20801 6.58888H17.8676V14.4435H5.20801V6.58888Z" fill="black"/>
<path fill-rule="evenodd" clip-rule="evenodd" d="M10.91 11.1803L9.93196 10.2036L8.95387 11.1734L10.91 13.1268L14.094 9.97667L13.109 9L10.91 11.1803Z" fill="black"/>
</svg>
