<svg width="24" height="24" viewBox="0 0 24 24" fill="none" xmlns="http://www.w3.org/2000/svg">
<path d="M8.65165 4.34835C8.35875 4.05545 7.88388 4.05545 7.59099 4.34835C7.29809 4.64124 7.29809 5.11611 7.59099 5.40901L8.65165 4.34835ZM7.59099 5.40901C7.88388 5.7019 8.35875 5.7019 8.65165 5.40901C8.94454 5.11611 8.94454 4.64124 8.65165 4.34835L7.59099 5.40901ZM20 7.75C20.4142 7.75 20.75 7.41421 20.75 7C20.75 6.58578 20.4142 6.25 20 6.25V7.75ZM9 6.25C8.58578 6.25 8.25 6.58578 8.25 7C8.25 7.41421 8.58578 7.75 9 7.75V6.25ZM20.6516 14.3484C20.3587 14.0555 19.8839 14.0555 19.591 14.3484C19.2981 14.6413 19.2981 15.1161 19.591 15.409L20.6516 14.3484ZM19.591 15.409C19.8839 15.7019 20.3587 15.7019 20.6516 15.409C20.9445 15.1161 20.9445 14.6413 20.6516 14.3484L19.591 15.409ZM4 16.25C3.58578 16.25 3.25 16.5858 3.25 17C3.25 17.4142 3.58578 17.75 4 17.75V16.25ZM15 17.75C15.4142 17.75 15.75 17.4142 15.75 17C15.75 16.5858 15.4142 16.25 15 16.25V17.75ZM7.59099 5.40901C8.46966 6.28768 8.46966 7.71231 7.59099 8.59099L8.65165 9.65165C10.1161 8.18718 10.1161 5.81281 8.65165 4.34835L7.59099 5.40901ZM7.59099 8.59099C6.71231 9.46966 5.28768 9.46966 4.40901 8.59099L3.34835 9.65165C4.81281 11.1161 7.18718 11.1161 8.65165 9.65165L7.59099 8.59099ZM4.40901 8.59099C3.53033 7.71231 3.53033 6.28768 4.40901 5.40901L3.34835 4.34835C1.88388 5.81281 1.88388 8.18718 3.34835 9.65165L4.40901 8.59099ZM4.40901 5.40901C5.28768 4.53033 6.71231 4.53033 7.59099 5.40901L8.65165 4.34835C7.18718 2.88388 4.81281 2.88388 3.34835 4.34835L4.40901 5.40901ZM20 6.25H9V7.75H20V6.25ZM19.591 15.409C20.4696 16.2877 20.4696 17.7123 19.591 18.591L20.6516 19.6517C22.1161 18.1872 22.1161 15.8128 20.6516 14.3484L19.591 15.409ZM19.591 18.591C18.7123 19.4697 17.2877 19.4697 16.409 18.591L15.3483 19.6517C16.8128 21.1161 19.1872 21.1161 20.6516 19.6517L19.591 18.591ZM16.409 18.591C15.5303 17.7123 15.5303 16.2877 16.409 15.409L15.3483 14.3484C13.8839 15.8128 13.8839 18.1872 15.3483 19.6517L16.409 18.591ZM16.409 15.409C17.2877 14.5304 18.7123 14.5304 19.591 15.409L20.6516 14.3484C19.1872 12.8839 16.8128 12.8839 15.3483 14.3484L16.409 15.409ZM4 17.75H15V16.25H4V17.75Z" fill="current" stroke="none"/>
</svg>
