<svg id="Capa_1" data-name="Capa 1" xmlns="http://www.w3.org/2000/svg" viewBox="0 0 1080 1080"><defs><style>.cls-x{fill:#7b1eaa;}</style></defs><path class="cls-x" d="M871.22,648.77c-4.79-16.3-15.12-26.53-32.17-29.41a65.06,65.06,0,0,0-22.74,0q-70.54,13-141,26.21-36.54,6.81-73.07,13.64c-2.26.41-4.75,2.06-4.79-2.89-.2-26.24-12.82-42-38.8-48-22.64-5.24-45.56-9.32-68.19-14.61C449.36,584,409.9,588.05,371.29,605c-20.83,9.15-41.8,18.17-63.86,24.24-5.68,1.57-11.08,4.51-12.75-5.15-.81-4.67-5.57-7.54-10-9.69-6.82-3.31-13.94-3.21-21-1.57-14.89,3.43-28.88,9.37-42.59,16-13.09,6.29-16,12.66-12.74,26.82a61.35,61.35,0,0,0,2.11,6.84q26,73.32,52,146.63c4,11.24,7.76,22.6,12.48,33.54,5.57,12.88,14.73,17.3,28,13.56,12.1-3.42,24-7.51,35.82-11.92,7.75-2.9,14.9-7.22,20.38-13.69,4.58-5.4,6.56-11.44,2.49-17.93-1.8-2.87-1.1-3.91,1.58-5.25A96,96,0,0,1,387.71,799c24.67-4.87,49-1.31,73.21,3.22,23.08,4.31,46,9.73,70.32,9.91,23.16,0,46-5.54,68-13.89,77.11-29.21,153.38-60.56,230-91.14,10.92-4.36,21.17-10.14,29.86-18.29C870.76,677.78,875.91,664.77,871.22,648.77ZM336.13,823.1c-12.38,4-24.6,8.45-36.78,13-3.47,1.29-5,.76-6.21-2.8q-31.92-90.51-64-180.94c-.83-2.35-1.92-4.42,1.57-5.65,13.71-4.8,27.38-9.73,41.07-14.6.41-.14.84-.22,1.39-.36,3,.12,2.74,2.83,3.4,4.7q13.88,38.91,27.66,77.86c11.93,33.51,23.79,67,35.95,100.46C341.9,819.66,341.12,821.5,336.13,823.1ZM836.22,681.53Q708.59,732.26,580.92,782.9c-14.47,5.73-29.55,8.82-41.55,8.54-23.65,0-42.84-5.22-62.27-8.79-21.42-3.94-42.78-8.07-64.71-7.29-18.92.67-36.9,5.65-54.53,12-4.47,1.61-5.79.42-7.21-3.62Q328.51,720.44,306,657.3c-1.67-4.65-.85-6.08,3.67-7.65,37.9-13.24,75.78-26.54,113.5-40.29,11.22-4.1,21.88-1.65,32.74.33q49.39,9,98.75,18.24c12.54,2.34,21.41,11.73,22.12,23.17a25.44,25.44,0,0,1-18.09,25.72c-7,2.1-13.83.21-20.64-1-26.3-4.8-52.57-9.74-78.86-14.62-7.06-1.31-12.15,1.66-13.53,7.8s2.22,11.15,9.25,12.48c29.9,5.67,59.76,11.54,89.77,16.61,14.7,2.49,28-1.82,39-12.26a12.43,12.43,0,0,1,6.76-3.36q116.64-21.87,233.25-43.93c13.92-2.61,24.6,3.57,28,16C854.88,665.88,848.86,676.51,836.22,681.53Z"/><path class="cls-x" d="M581.44,453.39c-.66-6.51-3.23-8.7-9.73-8.71-4.68,0-9,1.66-13.31,3-26.28,7.91-54.72-8.23-62.08-35.29-7.13-26.19,10.13-54.27,36.82-60.55,12-2.84,23.2.45,34.64,3.15,9.77,2.31,13.46-.8,13.53-10.79.11-17,0-34,0-50.95s.16-34-.05-51c-.16-12.87-7.19-19.63-20-19.69-11.54,0-23.08-.09-34.62,0-12.32.11-19.19,7.14-19.27,19.6-.06,10.67-.14,21.34.06,32,.07,3.48-.56,5.46-4.37,6.57a84.78,84.78,0,0,0-14.39,6c-2.84,1.45-4.48,1.12-6.68-1.15-7.71-8-15.59-15.82-23.54-23.57-8.51-8.29-18.61-8.35-27.16-.07s-16.75,16.51-25,24.93c-8.67,8.9-8.62,18.73.06,27.64,7,7.17,14,14.36,21.3,21.2,3.61,3.37,5.23,6.12,2.1,10.91-2.32,3.55-3.67,7.87-4.87,12-1.05,3.62-3,4.56-6.57,4.47-10.88-.26-21.77-.38-32.65-.15-11.26.24-18.71,6.8-19.07,17.33-.46,13.05-.45,26.14,0,39.19.36,10.73,7.86,17.41,18.75,17.54,9.58.12,19.18.41,28.74-.1,6.41-.35,10.62.81,11.92,8a30.7,30.7,0,0,0,4.3,10.14c2.19,3.59,1.07,5.74-1.62,8.33Q417.25,474.5,406.12,486c-8.48,8.78-8.48,18.39,0,27.1q12.3,12.64,24.94,24.95c8.9,8.7,18.75,8.72,27.66.09,6.26-6,12.34-12.29,18.5-18.45,7.58-7.57,7.57-7.56,17.13-3.39,2.38,1,4.75,2.42,7.26,2.81,5.31.84,6.11,3.89,5.94,8.65-.37,10-.16,20-.1,30.05.07,13,7.11,20,20.27,20.12,10.45.08,20.9,0,31.35,0,16,0,22.48-6.56,22.49-22.66q0-48.33,0-96.68A50.41,50.41,0,0,0,581.44,453.39Zm-26.3,103.76a207.91,207.91,0,0,0-22.19,0c-4.69.28-5.32-1.69-5.26-5.65.2-12,.15-24,0-35.93-.07-8.14-2.16-11-9.92-13.12a109.49,109.49,0,0,1-28.15-11.71c-5.91-3.55-10.94-2.74-15.75,2.27-8.58,9-17.51,17.6-26.08,26.57-2.39,2.5-3.77,2.56-6.14,0-5.35-5.72-10.88-11.29-16.62-16.62-2.77-2.56-2.61-4.07.05-6.61,8.63-8.3,17-16.86,25.45-25.35,6.29-6.32,6.81-9.68,2.47-17.25a105.9,105.9,0,0,1-11-27c-2.06-8.21-5.24-10.49-14-10.52-12,0-23.95-.13-35.92.07-3.53.06-5-.65-4.85-4.57.32-7.61.32-15.25,0-22.86-.17-4,1-5.24,5.07-5.14,12,.31,23.94.23,35.92.22,9,0,11.62-2,13.91-10.5a107.89,107.89,0,0,1,10.89-26.39c4.55-7.84,4.15-11-2.09-17.3-8.26-8.37-16.36-16.91-25-24.89-3.82-3.53-3.2-5.41.22-8.5,5.33-4.8,10.35-10,15.22-15.25,2.47-2.68,4-2.86,6.64-.1,8.42,8.82,17.11,17.37,25.75,26,5.9,5.87,9.47,6.37,16.8,2.21a119.74,119.74,0,0,1,27.58-11.45c7.65-2.09,9.86-5.14,9.92-13.1.08-12,.26-24-.1-35.93-.15-4.76,1.42-5.82,5.84-5.59a177.55,177.55,0,0,0,20.89,0c4.83-.3,5.6,1.53,5.57,5.88q-.31,37.56,0,75.11c0,4.56-.48,6.21-5.86,5.78-29.17-2.29-53.23,7.4-69.3,32.64-15.24,23.92-16.3,48.93-1.15,73.18,15.29,24.48,37.84,36.35,67.1,34.26a15,15,0,0,0,3.89-.41c4.79-1.7,5.19.77,5.14,4.67-.17,13.06-.06,26.13-.06,39.19,0,12.85-.14,25.7.08,38.54C560.21,555.84,559.35,557.35,555.14,557.15Z"/><path class="cls-x" d="M762,389.3c-2.22-2.26-3.34-3.6-1-6.82,12-16.64,16.05-35.22,13.32-55.56-5-37.11-37.88-65.83-73.81-58.9-2.72.53-3.45-.46-3.68-2.89a26.47,26.47,0,0,0-1.26-5.05c-10.23-33.95-47.48-48.22-74.62-28.3-16.15,11.85-22.55,28.54-22.47,48.26.15,39.19,0,78.39,0,117.59V513.91c0,6.54.2,13,1.83,19.44,6.79,26.61,31.5,43.55,56.74,38.32,19.47-4,31.3-16.85,37.76-35.09,1-2.93,1.75-4.67,5.66-4,30.3,4.82,53.78-6.94,71-31.26C795.9,466.8,791.59,419.43,762,389.3ZM744.31,500.23c-11.82,10.14-25.43,14.69-41.18,11.38-3.72-.78-5.4-2.41-6.12-6.22-2.39-12.74-8.58-23.56-17.6-32.81a28.08,28.08,0,0,0-14-7.88c-3.62-.84-7-.11-9.31,3.11a8.78,8.78,0,0,0-.58,9.84c2,3.92,5.45,6.74,8.4,9.94,10.22,11.12,16.26,23.59,12.31,39.19a30.73,30.73,0,0,1-5.72,11.61c-7.21,9.11-16.27,14.8-28.28,12.23-11.66-2.49-17.82-11-20.82-22-2.44-8.92-2.09-18.14-2.12-27.27q-.1-52.26,0-104.53h-.36c0-35.06-.06-70.12,0-105.17,0-7.61.12-15.29,1.74-22.75,3.6-16.6,17.9-26.79,33.36-24.06,14.33,2.54,25.43,20,23,36.23-1.83,12.12-7.87,21.95-16.61,30.3-3.46,3.3-7.22,6.32-9.82,10.43-2.24,3.53-3.15,7.16-.71,11s6.44,4.13,10.44,3.44a23.42,23.42,0,0,0,10.43-5.08c10.21-8,18-17.9,22-30.14s9.65-15.16,23.77-12.43c27.21,5.27,43.57,34.18,36,62.55-6.76,25.41-29.87,43.38-56.67,43.93-6.3.13-12.62-.32-18.91-.07-5.28.21-9.2,2.72-10,8.43-.8,5.86,2.78,9.07,7.64,10.64,11.75,3.8,23.68,2.46,35.47.07a81.89,81.89,0,0,0,29.32-12.11c2.48-1.65,4.17-2.11,6.62.37C770.19,426.84,776.3,472.77,744.31,500.23Z"/></svg>