<svg width="25" height="16" viewBox="0 0 25 16" fill="none" xmlns="http://www.w3.org/2000/svg">
<path d="M24.9853 1.5259C24.8627 1.27575 24.6076 0.991268 24.073 1.0207C23.8474 1.03541 23.6217 1.04032 23.401 1.05013C23.0479 1.06484 22.6849 1.07465 22.322 1.10898C20.6347 1.25613 19.2859 1.54552 18.0891 2.01148C17.9027 2.08014 17.6918 2.17824 17.5643 2.34501C17.4907 2.4431 17.4514 2.55101 17.4269 2.65892C17.2552 2.59025 17.0836 2.52158 16.9168 2.44801C16.2694 2.18315 15.5974 1.90847 14.9402 1.6289C14.4252 1.40818 13.8219 1.16784 13.1597 1.09917C12.2376 0.996173 11.3694 1.27084 10.4326 1.95262C10.3639 2.00167 10.2609 2.036 10.1825 2.036C9.28487 2.04091 8.37257 2.0409 7.4897 2.0409C7.1905 2.0409 6.89131 2.0409 6.59211 2.0409C6.59211 2.036 6.59211 2.036 6.59211 2.036C6.68531 1.59456 6.51854 1.24142 6.12125 1.03051C5.8711 0.902981 5.60133 0.77055 5.31685 0.682263C3.87973 0.235922 2.37885 0.118206 0.927016 0.00539427H0.922111C0.622915 -0.01913 0.402197 0.039728 0.240337 0.186873C0.0784775 0.338924 0 0.559642 0 0.873552V9.80528C0 10.4184 0.274671 10.6881 0.892682 10.6881H3.42849C4.12007 10.6881 4.28193 10.644 4.50755 10.1584C4.63017 10.281 4.7528 10.4086 4.87051 10.5312C5.258 10.9285 5.66019 11.3405 6.09672 11.7035C7.06298 12.498 8.06357 13.2779 9.03473 14.0283C9.3094 14.2442 9.58897 14.4551 9.86364 14.6709C10.31 15.024 10.8054 15.3723 11.3841 15.5734C11.752 15.7009 12.1542 15.8088 12.5711 15.8088C12.939 15.8088 13.3167 15.7254 13.6943 15.4949C14.5036 15.75 15.4797 15.3428 15.9702 14.5434C15.9898 14.509 16.0045 14.4992 16.0045 14.4992C16.0094 14.4992 16.0241 14.4943 16.0732 14.4992C16.9659 14.5434 17.6722 14.1902 18.1185 13.479L18.1234 13.4741C18.1626 13.4054 18.1774 13.3956 18.2509 13.3907C19.3349 13.2681 20.0559 12.4147 20.0069 11.316V11.3111C20.1393 11.213 20.2766 11.1247 20.414 11.0266C20.5905 11.5808 20.7965 11.728 21.39 11.728C21.6157 11.728 21.8364 11.728 22.062 11.728C22.7192 11.728 23.401 11.728 24.0681 11.7329C24.4997 11.7427 24.7989 11.5661 24.9706 11.2228L24.9951 11.1737V11.1198C24.9951 8.0101 24.9951 4.79743 25 1.63871V1.58475L24.9853 1.5259ZM21.7481 10.2124C21.7432 10.2026 21.7334 10.183 21.7187 10.1486C20.8358 7.42152 20.0853 5.35168 19.281 3.43388C19.2515 3.37012 19.227 3.31126 19.1976 3.2475C19.1927 3.23769 19.1878 3.22788 19.1829 3.21807C20.2178 2.86001 22.4151 2.51668 23.4893 2.5412V10.2124C23.4844 10.2124 23.4795 10.2124 23.4746 10.2124C23.3176 10.2124 23.1607 10.2124 22.9988 10.2124C22.6113 10.2124 22.2042 10.2075 21.8118 10.2173C21.7824 10.2173 21.7579 10.2173 21.7481 10.2124ZM15.1413 8.96164C14.7881 8.60849 14.3418 8.58397 14.023 8.90278C13.709 9.21669 13.7287 9.66794 14.0622 10.0064C14.7293 10.6881 15.4159 11.3797 16.0732 12.0468C16.2988 12.2773 16.5293 12.5029 16.755 12.7335C16.7697 12.7482 16.7844 12.7629 16.7942 12.7776C16.7844 12.7874 16.7697 12.8021 16.75 12.8218C16.5391 13.0032 16.2105 13.1062 15.9358 12.8365C15.3767 12.292 14.8126 11.728 14.2731 11.1786C14.0916 10.9923 13.9101 10.8108 13.7238 10.6244L13.6894 10.5901C13.6257 10.5214 13.5619 10.4527 13.4785 10.384C13.1891 10.1486 12.7771 10.1633 12.5074 10.4135C12.2376 10.6636 12.1836 11.056 12.3847 11.3699C12.4436 11.4729 12.5221 11.5514 12.5858 11.6152C13.1303 12.1792 13.6698 12.7335 14.2388 13.3221C14.3859 13.4741 14.5331 13.6212 14.6802 13.7733C14.587 13.8665 14.4938 13.9548 14.4006 14.0185C14.2633 14.1068 14.1407 14.0921 14.023 13.9793C13.2382 13.2043 12.4534 12.4245 11.6981 11.674C11.6735 11.6495 11.6539 11.625 11.6294 11.6004C11.5852 11.5514 11.5411 11.5024 11.4871 11.4533C11.188 11.1835 10.7612 11.1737 10.4718 11.4337C10.1628 11.7133 10.1383 12.1596 10.4081 12.4784C10.5945 12.6991 10.8005 12.91 10.9967 13.1062C11.3106 13.4152 11.6294 13.7242 11.9384 14.0185C12.012 14.0872 12.0855 14.1608 12.1542 14.2294C12.1297 14.2196 12.1052 14.2098 12.0806 14.2049C11.7962 14.1019 11.5019 13.9989 11.2811 13.8322C9.93231 12.8119 8.36767 11.6201 6.85697 10.3742C6.37139 9.97204 5.92505 9.49137 5.49343 9.03031C5.35119 8.87826 5.20895 8.72131 5.0618 8.56926C5.0569 8.54473 5.0618 8.50549 5.06671 8.47606C5.31195 7.53924 5.567 6.58279 5.81715 5.66068C5.94467 5.18982 6.06729 4.71895 6.19482 4.24809C6.24387 4.0568 6.28311 3.86551 6.32235 3.67422C6.33216 3.63008 6.34197 3.58593 6.34687 3.54179C7.15617 3.54179 7.93604 3.54179 8.74044 3.53688C8.3039 4.07642 7.82323 4.78271 7.64665 5.6803C7.46518 6.62203 7.92133 7.36266 8.83853 7.61772C9.94703 7.92672 10.9182 7.63243 11.7177 6.74465C11.855 6.5877 11.9727 6.51412 12.1346 6.47979C12.2964 6.44546 12.4387 6.38169 12.576 6.31793C12.6643 6.27869 12.7428 6.24436 12.8262 6.21493C12.8311 6.21493 12.8409 6.21002 12.8507 6.21002C13.1057 6.42093 13.3608 6.63675 13.6159 6.84765C14.7881 7.82862 16.0045 8.83902 17.1866 9.85433C17.5054 10.1241 17.7948 10.4429 18.0793 10.7519C18.1332 10.8108 18.1872 10.8696 18.2411 10.9285C18.3196 11.0119 18.3932 11.1247 18.4717 11.2865C18.5256 11.3994 18.5354 11.5171 18.4864 11.6201C18.4373 11.7329 18.3343 11.8163 18.197 11.8555C18.1185 11.88 18.0547 11.8751 17.9664 11.7819L17.9517 11.7672C17.2651 11.0854 16.5539 10.3791 15.8623 9.68266C15.72 9.54042 15.5778 9.39327 15.4355 9.24612C15.3375 9.16274 15.2394 9.05974 15.1413 8.96164ZM13.0077 4.61104C12.8997 4.61104 12.7918 4.63066 12.6741 4.67481C12.4583 4.75329 12.2376 4.82686 12.0218 4.89553C11.7667 4.97891 11.5068 5.06229 11.2566 5.16039C11.0457 5.23886 10.8888 5.43015 10.7858 5.55768C10.462 5.95988 10.1776 6.21493 9.77536 6.24436C9.57426 6.25417 9.35845 6.21002 9.12301 6.15117C9.1083 6.14626 9.09849 6.14136 9.09849 6.14136C9.09359 6.13155 9.08868 6.09231 9.1083 6.03345L9.14754 5.92554C9.26525 5.60182 9.38297 5.26829 9.55954 4.98872C10.0451 4.21375 10.7416 3.54179 11.6833 2.92868C12.321 2.51177 13.0322 2.48234 13.9101 2.84039C15.2737 3.38974 16.6863 3.95379 18.0793 4.51785C18.094 4.52766 18.1185 4.55709 18.1234 4.57181C18.4275 5.40072 18.7365 6.24926 19.0357 7.06837C19.33 7.87767 19.6341 8.7164 19.9382 9.54041C19.7665 9.64832 19.5998 9.76113 19.4232 9.87885C19.3987 9.89847 19.3692 9.91318 19.3447 9.9328C18.3883 8.84883 17.27 7.94634 16.1909 7.07328C15.823 6.77899 15.4454 6.46998 15.0824 6.16588C14.587 5.74406 14.0818 5.30753 13.5913 4.86119C13.4148 4.69443 13.2186 4.61104 13.0077 4.61104ZM5.05199 2.15862C5.05199 2.16843 5.05199 2.18315 5.04709 2.19786C4.77732 3.93908 4.32117 5.57239 3.76202 7.52943C3.65411 7.9022 3.53639 8.28477 3.42358 8.65264C3.36963 8.82431 3.31568 8.99598 3.26663 9.17255H1.50579V1.55042C1.55974 1.55533 1.60879 1.56023 1.66274 1.56514C1.98156 1.59456 2.28566 1.61909 2.58485 1.67304C3.16363 1.77604 3.7473 1.89376 4.31626 2.01148C4.5566 2.06052 4.79694 2.10957 5.03728 2.15862C5.04218 2.15862 5.04709 2.15862 5.05199 2.15862Z" stroke="none" fill="current"/>
</svg>
