<svg width="49" height="49" viewBox="0 0 49 49" fill="none" xmlns="http://www.w3.org/2000/svg">
<g clip-path="url(#clip0_49_2619)">
<path d="M24.5002 4.08337C13.2302 4.08337 4.0835 13.23 4.0835 24.5C4.0835 35.77 13.2302 44.9167 24.5002 44.9167C35.7702 44.9167 44.9168 35.77 44.9168 24.5C44.9168 13.23 35.7702 4.08337 24.5002 4.08337ZM39.731 18.62L34.0552 20.968C33.0139 18.1913 30.8293 15.9863 28.0322 14.9655L30.3802 9.28962C34.6677 10.923 38.0772 14.3325 39.731 18.62ZM24.5002 30.625C21.111 30.625 18.3752 27.8892 18.3752 24.5C18.3752 21.1109 21.111 18.375 24.5002 18.375C27.8893 18.375 30.6252 21.1109 30.6252 24.5C30.6252 27.8892 27.8893 30.625 24.5002 30.625ZM18.6406 9.26921L21.0293 14.945C18.2118 15.9659 15.9864 18.1913 14.9452 21.0088L9.26933 18.6405C10.9231 14.3325 14.3327 10.923 18.6406 9.26921ZM9.26933 30.3596L14.9452 28.0117C15.9864 30.8292 18.1914 33.0342 21.0089 34.055L18.6202 39.7309C14.3327 38.0771 10.9231 34.6675 9.26933 30.3596ZM30.3802 39.7309L28.0322 34.055C30.8293 33.0138 33.0343 30.8088 34.0552 27.9913L39.731 30.38C38.0772 34.6675 34.6677 38.0771 30.3802 39.7309Z" fill="url(#paint0_linear_49_2619)"/>
</g>
<defs>
<linearGradient id="paint0_linear_49_2619" x1="5.3085" y1="44.9167" x2="43.896" y2="44.9167" gradientUnits="userSpaceOnUse">
<stop stop-color="#7721AD"/>
<stop offset="1" stop-color="#7721AD" stop-opacity="0.56"/>
</linearGradient>
<clipPath id="clip0_49_2619">
<rect width="49" height="49" fill="white"/>
</clipPath>
</defs>
</svg>
