<?xml version="1.0" encoding="utf-8"?>
<!-- Generator: Adobe Illustrator 26.0.0, SVG Export Plug-In . SVG Version: 6.00 Build 0)  -->
<svg version="1.1" id="Layer_1" xmlns="http://www.w3.org/2000/svg" xmlns:xlink="http://www.w3.org/1999/xlink" x="0px" y="0px"
	 viewBox="0 0 2500 2458" style="enable-background:new 0 0 2500 2458;" xml:space="preserve">

<circle cx="1320.5" cy="460.9" r="358.5"/>
<circle cx="2127.1" cy="576.1" r="268.8"/>
<path d="M2357.5,921.8h-603.8c-27.2,0-49.2,22-49.2,49.2v622.9c-3.4,185.8,123.6,348.7,304.7,390.5
	c207.8,43.6,411.7-89.5,455.3-297.4c5.4-25.9,8.2-52.3,8.2-78.7V1037C2472.7,973.3,2421.1,921.8,2357.5,921.8z"/>
<path d="M1935,1036.7v730c0.2,339.2-274.6,614.3-613.8,614.5c-219.6,0.1-422.5-117-532.3-307.2c-14.8-24.6-27.6-50.2-38.4-76.8
	c-10-25-18.5-50.7-25.4-76.8c-6.4-25.3-11.2-51-14.4-76.8c-3.2-25.5-4.8-51.1-4.8-76.8V1037c0-14.2,2.5-27.8,7.2-40.3h221.7v-74.9
	h884.9C1883.3,921.7,1934.9,973.1,1935,1036.7z"/>
<path d="M1141.3,614.5H117.1c-56.5,0-102.4,45.8-102.4,102.4v1024.2c0,56.5,45.8,102.4,102.4,102.4h1024.2c28.3,0,53.9-11.5,72.4-30
	s30-44.1,30-72.4V716.9C1243.7,660.3,1197.9,614.5,1141.3,614.5z M934.9,996.6H705.2v616H554.5v-616H323.5V845.3h611.4V996.6z"/>
<path style="fill:none" d="M14.7,0h2458v2458H14.7V0z"/>
</svg>
