<svg viewBox="0 0 100 100" fill="none" xmlns="http://www.w3.org/2000/svg">
<path d="M50 100C77.6208 100 100 77.6208 100 50C100 22.3792 77.6208 0 50 0C22.3792 0 0 22.3792 0 50C0 77.6208 22.3792 100 50 100ZM22.8792 48.9167L71.0875 30.3292C73.325 29.5208 75.2792 30.875 74.5542 34.2583L74.5583 34.2542L66.35 72.925C65.7417 75.6667 64.1125 76.3333 61.8333 75.0417L49.3333 65.8292L43.3042 71.6375C42.6375 72.3042 42.075 72.8667 40.7833 72.8667L41.6708 60.1458L64.8375 39.2167C65.8458 38.3292 64.6125 37.8292 63.2833 38.7125L34.6542 56.7375L22.3125 52.8875C19.6333 52.0375 19.575 50.2083 22.8792 48.9167Z" fill="inherit"/>
</svg>
