<?xml version="1.0" encoding="utf-8"?>
<svg version="1.1" id="Bold" xmlns="http://www.w3.org/2000/svg" xmlns:xlink="http://www.w3.org/1999/xlink" x="0px" y="0px"
	 viewBox="0 0 512 512" style="enable-background:new 0 0 512 512;" xml:space="preserve">
<path d="M489.6,360.2c-20.9-21-41.4-41.6-62.4-62.3c-14-13.8-30.4-19.2-48.8-16.2c-16,2.6-27.3,12.4-34.5,19.4
	c-10.9,10.9-20.9,20.7-30.8,30.8c-2.4-1.4-4.8-2.6-7.1-3.9c-3.9-2.1-7.6-4.1-11.1-6.3c-23.3-14.9-45-33.2-66.2-56
	c-17-18.2-36.1-40.5-49.2-67.3c2-2,4-3.9,6-5.9c10.4-10.2,21.2-20.7,31.2-31.8c20-22.2,19.8-52.8-0.4-74.4
	c-23.7-25.3-45.4-47.2-66.4-67C124.4-4.7,95.5-5.2,68.8,18.2c-11.3,9.9-21.9,20.8-32.1,31.3c-3.1,3.2-6.3,6.5-9.4,9.7
	C11.1,75.5,2.6,96.3,2.1,120.8c-0.5,21.8,3.3,44,11.7,67.9c28,80.3,77.6,151.1,151.5,216.6c32.4,28.7,70.1,53.7,112.2,74.3
	c29.4,14.5,54.4,23.3,78.4,27.8c4.8,0.9,9.7,1.7,14.5,2.4c2.2,0.3,4.3,0.7,6.5,1l0.7,0.1h21.1l1.1-0.3c0.5-0.1,0.9-0.3,1.4-0.4
	c0.2-0.1,0.5-0.2,0.7-0.2c18.6-2.2,33.9-8.9,45.4-19.9c15.5-14.7,31.8-30.4,46.4-47.2C516.7,416.2,515.3,386.1,489.6,360.2z
	 M93.4,51.7c1.7-1.7,3.4-3.2,5-4.5c3.5-2.7,6.9-4.1,10.2-4.1c3.5,0,6.9,1.5,10.2,4.5c5.7,5,11.2,10.6,16.6,16l1,1
	c3.7,3.7,7.5,7.5,11.2,11.2c12.1,12.1,24.7,24.7,36.7,37.3c7.2,7.6,7.3,14,0.2,21.6c-11.7,12.5-24.3,24.7-36.5,36.4
	c-14.1,13.6-16,23.6-8,41.4c14.4,31.9,36.3,58,53.7,77.2c27.5,30.2,55.6,53.8,86,72c7,4.2,14,7.8,21.2,11.5
	c12.9,6.5,25.1,4.6,35.5-5.6c7.2-7.1,14.5-14.5,21.6-21.5c4.7-4.7,9.5-9.5,14.2-14.2c2-2,3.8-3.7,5.6-5.1c4.8-3.7,12-6.6,19.2,0.5
	c25.2,24.7,45.8,45.3,64.9,64.8c8,8.2,8.1,15.2,0.4,23.6c-14.3,15.5-27.7,29.3-40.9,42c-10.3,9.9-23.6,13.3-43.2,11.3
	c-25.1-2.6-50.5-10.7-82.3-26.4c-53.5-26.2-100.9-61.4-140.9-104.5c-46.2-49.8-78.2-99.3-97.8-151.4c-7-18.7-13.5-39.5-13.7-65.6
	l0-0.2c-0.4-12.3,5.6-25.4,16.4-35.9c7.3-7.1,14.5-14.3,21.5-21.4C85.5,59.7,89.4,55.7,93.4,51.7z" />
</svg>
