<svg id="Layer_1" data-name="Layer 1" xmlns="http://www.w3.org/2000/svg" viewBox="0 0 23.08 22"><title>Artboard 1</title><path d="M21.53,8.88a1.1,1.1,0,0,0,.66-1V5.4a1.71,1.71,0,0,0-1.76-1.65H2.28A1.71,1.71,0,0,0,.52,5.4V7.88a1.09,1.09,0,0,0,.65,1A2.14,2.14,0,0,1,2.53,10.8a2.13,2.13,0,0,1-1.35,1.91,1.1,1.1,0,0,0-.66,1v2.48a1.71,1.71,0,0,0,1.76,1.65H20.43a1.71,1.71,0,0,0,1.76-1.65V13.71a1.08,1.08,0,0,0-.66-1,2.15,2.15,0,0,1-1.36-1.92A2.15,2.15,0,0,1,21.53,8.88Zm-.84-1.26a3.6,3.6,0,0,0-2,3.18,3.62,3.62,0,0,0,2,3.17v2.22c0,.06-.11.15-.26.15H2.28c-.16,0-.26-.09-.26-.15V14A3.57,3.57,0,0,0,4,10.8,3.59,3.59,0,0,0,2,7.62V5.4c0-.06.1-.15.26-.15H20.43c.15,0,.26.09.26.15Z"/><path d="M14.85,10.11H7.72a.75.75,0,1,0,0,1.5h7.13a.75.75,0,1,0,0-1.5Z"/></svg>