<svg width="24" height="24" viewBox="0 0 24 24" fill="none" xmlns="http://www.w3.org/2000/svg">
<path d="M22 15.236V18C22 18.552 21.552 19 21 19H3C2.448 19 2 18.552 2 18V15.236C2 15.091 2.082 14.959 2.211 14.894V14.894C3.308 14.346 4 13.226 4 12V12C4 10.774 3.307 9.654 2.211 9.106V9.106C2.082 9.041 2 8.909 2 8.764V6C2 5.448 2.448 5 3 5H21C21.552 5 22 5.448 22 6V8.764C22 8.909 21.918 9.041 21.789 9.106L21.745 9.129C20.673 9.685 20 10.792 20 12V12C20 13.225 20.692 14.346 21.788 14.894H21.789C21.918 14.959 22 15.091 22 15.236Z" stroke="current" fill="none" stroke-width="1.5" stroke-linecap="round" stroke-linejoin="round"/>
<path d="M8.3944 12.07H15.4655" stroke="current" fill="none" stroke-width="1.5" stroke-linecap="round" stroke-linejoin="round"/>
</svg>
