<svg width="32" height="32" viewBox="0 0 32 32" fill="none" xmlns="http://www.w3.org/2000/svg">
<g clip-path="url(#clip0_110_25)">
<path d="M12.6607 12.9768V11.7726C12.2429 11.7132 11.8212 11.6827 11.3992 11.6806C6.23701 11.6806 2.03711 15.8812 2.03711 21.0434C2.03711 24.21 3.61971 27.0133 6.03391 28.7084C4.41735 26.9796 3.5185 24.701 3.51987 22.3341C3.51987 17.2453 7.60039 13.0955 12.6607 12.9768Z" fill="#00F2EA"/>
<path d="M12.8816 26.6095C15.185 26.6095 17.0637 24.7771 17.1494 22.4936L17.1573 2.10925H20.8814C20.8018 1.68349 20.7616 1.25156 20.7613 0.818604H15.6749L15.6663 21.2037C15.5816 23.4865 13.7019 25.3182 11.3992 25.3182C10.7079 25.3185 10.0269 25.15 9.41553 24.8272C10.2166 25.9449 11.5066 26.6081 12.8816 26.6095ZM27.8375 9.02869V7.89586C26.469 7.89723 25.1297 7.49893 23.9841 6.75034C24.9887 7.90684 26.3407 8.7062 27.8382 9.02869" fill="#00F2EA"/>
<path d="M23.9842 6.74933C22.8617 5.46486 22.2431 3.81639 22.2438 2.11029H20.8811C21.2376 4.01572 22.3591 5.69232 23.9842 6.74933ZM11.3993 16.7671C9.03891 16.7698 7.12628 18.6824 7.12354 21.0428C7.12491 22.6319 8.00729 24.0893 9.41492 24.8276C8.88899 24.1023 8.60596 23.2299 8.60596 22.3341C8.60836 19.9738 10.521 18.0605 12.8817 18.0577C13.3222 18.0577 13.7445 18.1304 14.1432 18.2557V13.0629C13.7253 13.0036 13.3037 12.973 12.8817 12.971C12.8076 12.971 12.7345 12.9751 12.6611 12.9765V16.965C12.2528 16.8353 11.8274 16.7684 11.3993 16.7671Z" fill="#FF004F"/>
<path d="M27.8375 9.02868V12.9819C25.1996 12.9819 22.7566 12.1383 20.7609 10.7063V21.0431C20.7609 26.2053 16.5617 30.4052 11.3995 30.4052C9.40453 30.4052 7.55468 29.7757 6.03418 28.708C7.80135 30.6138 10.2828 31.6966 12.8816 31.6959C18.0438 31.6959 22.2437 27.496 22.2437 22.3344V11.9976C24.3052 13.4801 26.7812 14.2763 29.3203 14.2732V9.18546C28.8112 9.18546 28.3161 9.13023 27.8372 9.02765" fill="#FF004F"/>
<path d="M20.7608 21.0428V10.706C22.8224 12.1888 25.2983 12.9847 27.8374 12.9816V9.02871C26.3402 8.70587 24.9882 7.90617 23.984 6.74933C22.3589 5.69232 21.2374 4.01572 20.8809 2.11029H17.1572L17.1493 22.4947C17.0639 24.7775 15.1849 26.6098 12.8815 26.6098C11.5068 26.6085 10.2165 25.945 9.41573 24.8279C8.0081 24.09 7.12538 22.6326 7.12366 21.0431C7.12641 18.6828 9.03904 16.7702 11.3994 16.7674C11.8392 16.7674 12.2615 16.8395 12.6609 16.9654V12.9768C7.60053 13.0955 3.52002 17.2453 3.52002 22.3341C3.52002 24.795 4.47616 27.0353 6.03406 28.7084C7.60465 29.8141 9.47886 30.4066 11.3994 30.4049C16.562 30.4049 20.7608 26.205 20.7608 21.0428Z" fill="black"/>
</g>
<defs>
<clipPath id="clip0_110_25">
<rect width="31.3577" height="31.3577" fill="white" transform="translate(0 0.578369)"/>
</clipPath>
</defs>
</svg>
