<svg width="22" height="22" viewBox="0 0 22 22" fill="none" xmlns="http://www.w3.org/2000/svg">
<g clip-path="url(#clip0_225_432)">
<path d="M9.82422 0H2.12422C1.06547 0 0.208844 0.8415 0.208844 1.87L0.199219 16.83C0.199219 17.8585 1.05584 18.7 2.11459 18.7H13.6742C14.733 18.7 15.5992 17.8585 15.5992 16.83V5.61L9.82422 0ZM2.12422 16.83V1.87H8.86172V6.545H13.6742V16.83H2.12422Z" fill="none"/>
<path d="M16.1443 12.1C13.4119 12.1 11.1992 14.3176 11.1992 17.05C11.1992 19.7824 13.4119 22 16.1443 22C18.8816 22 21.0992 19.7824 21.0992 17.05C21.0992 14.3176 18.8816 12.1 16.1443 12.1ZM17.7778 19.3814L15.6542 17.2529V14.575H16.6442V16.847L18.4807 18.6835L17.7778 19.3814Z" fill="none"/>
</g>
<defs>
<clipPath id="clip0_225_432">
<rect width="22" height="22" fill="white"/>
</clipPath>
</defs>
</svg>
