<svg id="Layer_2" data-name="Layer 2" xmlns="http://www.w3.org/2000/svg" viewBox="0 0 24 24"><title>tipificar</title><path d="M8.92,11H4.17A2.13,2.13,0,0,1,2,8.85V4.15A2.13,2.13,0,0,1,4.17,2H8.92A2.12,2.12,0,0,1,11,4.15v4.7A2.12,2.12,0,0,1,8.92,11ZM4.17,3.77a.38.38,0,0,0-.38.38v4.7a.38.38,0,0,0,.38.38H8.92a.38.38,0,0,0,.38-.38V4.15a.38.38,0,0,0-.38-.38Z"/><path d="M19.83,11H15.08A2.12,2.12,0,0,1,13,8.85V4.15A2.12,2.12,0,0,1,15.08,2h4.75A2.13,2.13,0,0,1,22,4.15v4.7A2.13,2.13,0,0,1,19.83,11ZM15.08,3.77a.38.38,0,0,0-.38.38v4.7a.38.38,0,0,0,.38.38h4.75a.38.38,0,0,0,.38-.38V4.15a.38.38,0,0,0-.38-.38Z"/><path d="M19.83,22H15.08A2.12,2.12,0,0,1,13,19.85v-4.7A2.12,2.12,0,0,1,15.08,13h4.75A2.13,2.13,0,0,1,22,15.15v4.7A2.13,2.13,0,0,1,19.83,22Zm-4.75-7.19a.38.38,0,0,0-.38.38v4.7a.38.38,0,0,0,.38.38h4.75a.38.38,0,0,0,.38-.38v-4.7a.38.38,0,0,0-.38-.38Z"/><polygon points="11.01 15.42 5.21 21.19 2.15 18.13 3.39 16.88 5.21 18.71 9.77 14.18 11.01 15.42"/></svg>