<svg viewBox="0 0 124 100" fill="none" xmlns="http://www.w3.org/2000/svg">
<path d="M123.077 11.8385C118.5 13.8462 113.623 15.1769 108.538 15.8231C113.769 12.7 117.762 7.79231 119.638 1.87692C114.762 4.78462 109.377 6.83846 103.638 7.98462C99.0077 3.05385 92.4077 0 85.2077 0C71.2385 0 59.9923 11.3385 59.9923 25.2385C59.9923 27.2385 60.1615 29.1615 60.5769 30.9923C39.6 29.9692 21.0385 19.9154 8.56923 4.6C6.39231 8.37692 5.11539 12.7 5.11539 17.3538C5.11539 26.0923 9.61539 33.8385 16.3231 38.3231C12.2692 38.2462 8.29231 37.0692 4.92308 35.2154C4.92308 35.2923 4.92308 35.3923 4.92308 35.4923C4.92308 47.7538 13.6692 57.9385 25.1385 60.2846C23.0846 60.8461 20.8462 61.1154 18.5231 61.1154C16.9077 61.1154 15.2769 61.0231 13.7462 60.6846C17.0154 70.6769 26.2923 78.0231 37.3231 78.2615C28.7385 84.9769 17.8385 89.0231 6.03846 89.0231C3.96923 89.0231 1.98462 88.9308 0 88.6769C11.1769 95.8846 24.4231 100 38.7077 100C85.1385 100 110.523 61.5385 110.523 28.2C110.523 27.0846 110.485 26.0077 110.431 24.9385C115.438 21.3846 119.646 16.9462 123.077 11.8385Z"/>
</svg>
