<svg width="39" height="39" viewBox="0 0 39 39" fill="none" xmlns="http://www.w3.org/2000/svg">
<path d="M34.1235 10.0986C33.0486 10.5747 31.8924 10.8924 30.6728 11.0427C31.9127 10.3066 32.8666 9.1325 33.3143 7.74556C32.154 8.42562 30.8687 8.92531 29.5012 9.18856C28.4092 8.03075 26.8517 7.3125 25.1259 7.3125C21.8109 7.3125 19.124 9.97587 19.124 13.26C19.124 13.7247 19.1784 14.1773 19.2808 14.6169C14.2937 14.3666 9.87041 11.9958 6.91128 8.398C6.39128 9.27713 6.09878 10.3066 6.09878 11.3929C6.09878 13.4574 7.15584 15.275 8.76784 16.3459C7.78391 16.3158 6.85766 16.042 6.04678 15.6033C6.04678 15.6211 6.04678 15.6479 6.04678 15.6731C6.04678 18.5583 8.11622 20.9609 10.8592 21.5077C10.3579 21.645 9.82816 21.7214 9.28216 21.7214C8.89459 21.7214 8.51678 21.6775 8.15116 21.6117C8.91491 23.9696 11.1306 25.6929 13.7558 25.7441C11.7018 27.3366 9.11478 28.2904 6.30191 28.2904C5.81603 28.2904 5.34072 28.2628 4.87109 28.2059C7.52878 29.8886 10.6845 30.875 14.0718 30.875C25.1097 30.875 31.1482 21.8108 31.1482 13.9474C31.1482 13.6898 31.14 13.4331 31.1278 13.1796C32.306 12.3476 33.3216 11.2978 34.1235 10.0986Z" fill="#03A9F4"/>
</svg>
