<?xml version="1.0" encoding="utf-8"?>
<!-- Generator: Adobe Illustrator 26.0.0, SVG Export Plug-In . SVG Version: 6.00 Build 0)  -->
<svg version="1.1" id="Capa_1" xmlns="http://www.w3.org/2000/svg" xmlns:xlink="http://www.w3.org/1999/xlink" x="0px" y="0px"
	 viewBox="0 0 1000 1000" style="enable-background:new 0 0 1000 1000;" xml:space="preserve">
<g>
	<path d="M831.9,743.4c-0.6-1.5-1.1-3.1-1.6-4.6c-2.2-6.3-4.5-12.8-7.2-19.2c-10.4-25.5-21.1-51.3-31.5-76.4l-9.3-22.4
		c-6.5-15.8-18.6-25.1-34.1-26.2c-11.3-0.8-45.4-0.7-63.6-0.5c0-43,0-86,0-129l0-0.7c0-1,0-2.3-0.1-3.8c-1-13.4-10.7-23.4-23.6-24.2
		c-13.2-0.8-23.6,8-25.9,21.8c-0.4,2.4-0.6,5-0.6,7.7c0,61.5,0,123,0,184.5v24.3h-29.2c0-2.7,0-5.4,0-8c-0.1-15-0.1-30.5-0.1-45.8
		c0-7.5,0.1-15.1,0.2-22.4l0-0.4c0.1-6.9,0.2-14.1,0.2-21.2c0.1-22.9-15.2-41.9-37.1-46c-7.7-1.5-15.4-1.4-22.2-1.3l-0.5,0
		c-1.6,0-3.2,0-4.8,0c-11.8-0.1-23.8-0.1-35.4-0.1l-0.7,0c-19.5,0-39.7-0.1-59.5-0.4c-14.7-0.2-28.1,5-37.5,14.6
		c-9.3,9.5-14.1,22.6-13.6,37c0.4,10.3,0.6,19.4,0.6,28c0,18.5,0,37.3-0.1,55.5c0,3.5,0,7.1,0,10.6h-29.1l0-405.8c1,0,2.1,0,3.3,0
		l42,0c35.2,0,70.4,0,105.7,0c3.4,0,6.5-0.3,9.3-1c11.2-2.7,18.7-12.1,18.9-23.9c0.2-11.9-6.8-21.2-18.3-24.1
		c-3.4-0.9-7.2-1.3-11.2-1.3l-25.5,0c-42.3,0-86,0-129.1,0.3c-15.8,0.1-29.1,7.3-37.5,20.1c-5.3,8.1-7.8,17.4-7.8,28.5V594
		c-20.5,0-51.1,0.1-61.1,0.2c-8,0.1-15.6,2.9-22.7,8.3c-9,6.8-13.3,16.1-16.5,24.2c-15.6,38.7-31.2,77.6-46.3,115.5
		c-1.6,4-2.1,7.6-1.6,11.1c3.9,27.9,25.5,40.3,45.2,40.3c0,0,0,0,0,0c71.8-0.1,144.7,0,215.3,0l117.2,0c77.9,0,155.8,0,233.8,0
		c6,0,10.7-0.2,15.1-0.7c4.4-0.4,17.6-1.8,27-12.9c6.6-7.9,9.7-17,11.9-24.9C833.8,750.5,832.9,746.2,831.9,743.4z M444.8,595.4
		l0-15.8c9.8-0.1,19.8-0.1,29.4,0v95.2h-29.4C444.8,648.4,444.8,621.9,444.8,595.4z M525.7,579.6c9.6,0,19.2,0,28.8,0
		c0.1,0,0.2,0,0.3,0l0.1,15.9c0.1,19.2,0.2,38.5,0.2,57.7c0,7.1,0,14.2,0,21.4h-29.4V579.6z M215.6,747.4l-0.2,0
		c0.1-0.2,0.1-0.3,0.2-0.5c1-2.4,2-4.9,3-7.3c1.3-3.2,2.7-6.4,4-9.6c9.6-23.4,19.3-46.9,28.9-70.3l7.3-17.9c0.4-0.9,0.7-1.5,0.9-1.8
		c0.1,0,0.3,0,0.5,0c9.5,0,36.7,0,55.1,0v56.4l0,0.6c0,0.7,0,1.5,0,2.2c0.5,15.8,10.2,25.5,26,26.1h0c1,0,2.1,0,3.1,0l155.1,0
		c52,0,104,0,156,0c19.6,0,29.1-9.6,29.1-29.3c0-18.6,0-37.3,0-55.9c0,0,0,0,0,0c3.4,0,38.6,0.1,42,0.1c4.6,0.1,9.2,0.1,13.9,0.2
		c0.2,0.5,0.5,1,0.7,1.5c4.3,10.3,8.8,21.3,14.2,34.5l5.7,13.8c7.7,18.7,15.6,38,23.4,57.1H215.6z"/>
	<path d="M519.6,442c0,13.3,0,27,0.1,40.6c0.1,11,5,15.7,16.3,15.7c7,0,14,0,21.1,0l8.9,0c3.2,0,6.4,0,9.5,0c3.1,0,6.1,0,9.2,0
		c4.1,0,8.1,0,12.2,0c10.1-0.1,15.2-5,15.5-15.1c0-0.4,0-0.9,0-1.3l0-0.5l0-12.2c0-13.9,0-27.8,0-41.7c0-2.1-0.1-3.8-0.3-5.3
		c-0.7-5.6-4.2-9.6-9.6-10.8c-2.1-0.5-4.5-0.7-6.9-0.7c-16.5,0-33.3,0-49.5,0l-6.7,0c-0.4,0-0.9,0-1.3,0c-1.7,0-3.5,0-5.3,0.2
		c-7.9,0.8-11.9,4.7-12.9,12.5c-0.2,1.2-0.2,2.3-0.2,3.4C519.6,431.8,519.6,436.9,519.6,442z M547.7,438.7h36.8v31.7h-36.8V438.7z"
		/>
	<path d="M479.8,421.2c-0.8-5.2-4.1-8.7-9.2-9.8c-2.2-0.5-4.5-0.7-6.9-0.7c-19.1,0-39,0-59.2,0c-2.2,0-4.4,0.2-6.6,0.7
		c-6.1,1.3-9.8,5.7-9.9,11.6l0,2.3c-0.1,19.1-0.3,38.8-0.1,58.2c0.1,10.2,5,14.8,15.7,14.8c7.2,0,14.3,0,21.5,0l9.1,0l7.4,0
		c2.5,0,4.9,0,7.4,0c5.3,0,10.6,0,15.8,0c1.5,0,3.2-0.2,5.2-0.6c5.3-1,8.8-4.4,9.7-9.7c0.4-2.1,0.6-4.2,0.6-6.2
		c0-17.8,0-36.1,0-54.5C480.3,425.5,480.1,423.5,479.8,421.2z M452.3,470.3h-36.7v-32h36.7V470.3z"/>
	<path d="M480.3,325.2c0-10.3-4.5-15.1-14.6-15.5c-6.2-0.2-12.9-0.3-21.2-0.3l-0.4,0c-14,0-28.4,0.1-42.7,0.3
		c-8.5,0.2-13.4,5.1-13.5,13.5c-0.2,20.8-0.2,41,0,60.1c0.1,8.7,5.2,13.6,14,13.7c7.5,0,15,0,22.5,0l9.4,0c3.2,0,6.5,0,9.7,0
		c3.1,0,6.3,0,9.5,0c4.5,0,8.9,0,13.4,0c7.9,0,12.4-3.9,13.5-11.6c0.4-3,0.4-6.1,0.4-9l0-0.6C480.3,357,480.3,341.2,480.3,325.2z
		 M452.4,369.5h-36.9v-32.1h36.9V369.5z"/>
	<path d="M533.8,397c7.5,0,15,0,22.5,0l9.4,0c3.2,0,6.5,0,9.7,0c3.1,0,6.3,0,9.5,0c4.5,0,8.9,0,13.4,0c7.9,0,12.4-3.9,13.5-11.6
		c0.4-3,0.4-6.1,0.4-9l0-0.6c0-18.8,0.1-34.6,0-50.6c0-10.3-4.5-15.1-14.6-15.5c-6.2-0.2-12.9-0.3-21.2-0.3l-0.4,0
		c-14,0-28.4,0.1-42.7,0.3c-8.5,0.2-13.4,5.1-13.5,13.5c-0.2,20.8-0.2,41,0,60.1C519.9,392,525,397,533.8,397z M547.3,337.4h36.9
		v32.1h-36.9V337.4z"/>
	<path d="M639.3,333.6c8.3,13.9,16.8,28.2,25.2,42.4c1.1,1.9,2.6,3.8,4.3,5.5c3.1,3.1,6.9,4.6,10.6,4.6c3.6,0,7.3-1.5,10.3-4.5
		c1.9-1.9,3.6-4.2,5.5-7.4l15-25.2c22.2-37.4,45.2-76.1,67.6-114.3c13.7-23.3,18.4-49,13.9-76.3c-4-24.5-16.6-47.4-35.3-64.5
		c-19.7-17.9-44.5-28.1-72.1-29.6l-0.3-1.8l-5.4,0.8c-2.4,0.3-4.7,0.7-7.1,1c-5.2,0.7-10.5,1.4-15.8,2.4
		c-35.7,7.2-64.9,30.6-80.2,64.1c-15.1,33.1-13.6,70,4.1,101.2C599,266.2,619.5,300.5,639.3,333.6z M596.3,176
		c0.5-17.6,6.6-33.8,18.7-49.7c14-18.3,32.8-28.3,57.6-30.5c2.5-0.2,5-0.3,7.5-0.3c39.4,0,73.4,28.1,80.8,67.9
		c3.5,19.2,0.4,37.4-9.4,54.1c-15.8,27.2-32.1,54.7-47.8,81.3c-6,10.1-11.9,20.2-17.9,30.3c-2.1,3.5-4.1,6.9-6.3,10.6
		c-3.2-5.4-6.3-10.5-9.3-15.6l-10.6-17.8c-16.7-28.2-33.9-57.4-50.9-86.1C599.9,205.4,595.9,190.9,596.3,176z"/>
	<path d="M679.3,242.1C679.3,242.1,679.3,242.1,679.3,242.1c35,0,64.5-29.3,64.5-63.9c0-17.2-6.7-33.5-18.8-45.7
		c-12.2-12.2-28.3-18.9-45.5-18.9c0,0,0,0,0,0c-17.3,0-33.4,6.6-45.5,18.7c-12.1,12.1-18.7,28.2-18.7,45.5
		c0,17.3,6.6,33.5,18.7,45.6C646,235.5,662.1,242.1,679.3,242.1z M678.8,146.8c0,0,0.1,0,0.1,0c17.3,0,31.5,13.8,31.6,30.9
		c0,7.9-3.3,15.8-9.2,21.8c-6,6-13.9,9.4-21.9,9.4c0,0,0,0,0,0c-17,0-30.9-13.8-31-30.9C648.4,160.9,662,146.9,678.8,146.8z"/>
</g>
</svg>
