<?xml version="1.0" encoding="utf-8"?>
<!-- Generator: Adobe Illustrator 26.0.0, SVG Export Plug-In . SVG Version: 6.00 Build 0)  -->
<svg version="1.1" id="Capa_1" xmlns="http://www.w3.org/2000/svg" xmlns:xlink="http://www.w3.org/1999/xlink" x="0px" y="0px"
	 viewBox="0 0 1000 1000" style="enable-background:new 0 0 1000 1000;" xml:space="preserve">
<g>
	<path d="M500.9,35.7c156.4,0.2,289.5,118.5,306.8,273.8c7.4,66.7-4.2,130.7-30.6,192.2c-27.5,64-68.1,119.3-113.3,171.4
		c-46.5,53.6-94.1,106.4-141.3,159.4c-13.1,14.8-30.8,15-43.8,0.5c-51.2-57.5-102.8-114.7-153.1-173
		c-38.6-44.7-72.8-92.9-96.9-147.2c-41.4-93-54.4-188.8-13.9-284.9C263.4,112.1,353.3,49.5,478.1,37.1
		C485.6,36.4,493.3,36.1,500.9,35.7z M500.5,173.3c-94.3,0.3-170.1,76.1-169.9,169.9c0.2,91.1,74.8,171.9,173.8,169.6
		c90.7-2.1,165.1-76.4,165-170.8C669.4,249.1,593,173,500.5,173.3z"/>
	<path d="M499.4,964.3c-60.1-0.7-120.3-6.2-177.1-29.7c-16.4-6.8-32.2-16.7-45.7-28.1c-19.7-16.7-19-38.6-1-57.3
		c13.5-14,30.4-22.9,48.4-29.3c18.4-6.6,37.6-11.2,56.3-17c8.7-2.7,14.5-0.1,20.3,6.9c14,17.1,28.8,33.7,43.5,50.3
		c22.4,25.4,53.5,33.5,83.4,21.9c13.5-5.2,23.2-15.1,32.4-25.7c14.5-16.7,29.2-33.4,44.2-49.7c2.5-2.7,8-5.2,11-4.3
		c26.6,8,53.4,15.8,79.1,26c11.7,4.6,22.4,13.3,31.4,22.3c17.2,17.2,17.3,39.3-1.2,55.2c-13.7,11.7-29.7,21.9-46.4,28.8
		C621.2,958.1,561,963.7,499.4,964.3z"/>
	<path d="M499.9,226.9c63.5-0.3,115.7,51.6,115.9,115.2c0.2,63.9-51.3,115.9-115,115.9c-64.5,0-116.7-51.5-116.7-115.4
		C384.2,279.6,436.5,227.2,499.9,226.9z"/>
</g>
</svg>
