<?xml version="1.0" encoding="utf-8"?>
<!-- Generator: Adobe Illustrator 26.0.0, SVG Export Plug-In . SVG Version: 6.00 Build 0)  -->
<svg version="1.1" id="Capa_1" xmlns="http://www.w3.org/2000/svg" xmlns:xlink="http://www.w3.org/1999/xlink" x="0px" y="0px"
	 viewBox="0 0 1280 1024" style="enable-background:new 0 0 1280 1024;" xml:space="preserve">
<g>
	<path d="M1129.8,949.11c-0.42-1.48-0.81-3.03-1.19-4.53c-0.86-3.4-1.75-6.92-3.13-10.31l-7.81-19.07
		c-20.74-50.6-42.18-102.93-63.64-154.24c-8.33-19.93-24.69-30.54-47.31-30.7c-18.43-0.13-36.6-0.08-50.38-0.01
		c-13.58,0.06-21.53,6.59-21.8,17.9c-0.13,5.36,1.51,9.96,4.75,13.31c3.78,3.9,9.64,6,16.96,6.07c10.2,0.09,20.55,0.07,30.57,0.06
		c5.33-0.01,10.66-0.02,16-0.01c13.14,0.02,14.23,0.75,19.35,13.16c8.79,21.29,17.55,42.59,26.3,63.9
		c3.67,8.92,7.34,17.84,11.01,26.76c9.97,24.22,20.29,49.26,30.29,73.94c2.15,5.32,2.2,9.81,0.13,13.01
		c-2.08,3.21-6.42,5.1-12.23,5.32c-2.16,0.08-4.41,0.06-6.57,0.05c-0.93-0.01-1.86-0.01-2.79-0.01l-589.59,0
		c-90.97,0-181.94,0.01-272.91-0.02c-5.56,0-12.79-0.88-15.58-5.06c-2.77-4.14-0.87-11.05,1.22-16.12
		c6.72-16.33,13.46-32.65,20.2-48.97c15.52-37.58,31.56-76.45,47.13-114.76c3.41-8.38,8.12-11.56,16.77-11.33
		c15.1,0.4,31.62,0.4,50.51-0.02c11.39-0.25,19.3-8.02,19.23-18.89c-0.07-10.79-7.96-18.12-19.62-18.24l-3.13-0.03
		c-17.07-0.17-34.72-0.35-52.09,0.15c-19.32,0.56-34.22,10.17-43.09,27.79c-3.17,6.3-5.81,12.92-8.35,19.32
		c-0.48,1.19-0.95,2.38-1.43,3.57c-17.01,42.36-33.99,84.73-50.96,127.1l-16.25,40.56c-0.17,0.41-0.25,0.86-0.25,1.3v3.79
		c0,0.28,0.03,0.55,0.1,0.82c0.23,0.94,0.45,1.89,0.67,2.83c0.48,2.06,0.98,4.19,1.54,6.3c5.38,20.43,23.9,35.65,45.02,37.02
		c2.21,0.14,4.42,0.18,6.6,0.18c1.01,0,2.01-0.01,3-0.01c0.99-0.01,1.97-0.01,2.96-0.01c249.74,0,499.47,0.01,749.21,0h107.03
		c39.97,0,51.85-8.61,63.59-46.07c0.11-0.34,0.16-0.69,0.16-1.05v-3.79C1129.94,949.74,1129.89,949.42,1129.8,949.11z"/>
	<path d="M737.24,274.37c30.27,52.16,61.58,104.87,91.86,155.85c11.64,19.59,23.27,39.18,34.88,58.79
		c6.68,11.29,13.8,13.66,18.6,13.66c0,0,0,0,0,0c4.76,0,11.82-2.34,18.41-13.45c11.34-19.13,22.71-38.24,34.07-57.35
		c30.58-51.43,62.2-104.61,92.86-157.18c24.71-42.37,29.61-93.11,13.46-139.21c-16.22-46.29-51.94-83.04-97.98-100.82
		c-9.39-3.63-19.32-5.98-28.92-8.25c-4.37-1.03-8.88-2.1-13.25-3.27c-0.29-0.08-0.6-0.12-0.9-0.12h-36.1
		c-0.38,0-0.77,0.06-1.13,0.19c-0.61,0.21-1.21,0.45-1.81,0.69c-1.01,0.4-1.96,0.78-2.76,0.9c-28.52,4.11-54.43,14.82-77.01,31.81
		c-21.16,15.93-38.51,37.07-50.16,61.14c-11.61,23.97-17.42,50.55-16.8,76.88C715.2,222.7,722.83,249.54,737.24,274.37z
		 M769.78,125.65c24.98-43.27,63.53-65.2,114.6-65.2c0.33,0,0.67,0,1,0c45.64,0.25,86.84,24.4,110.21,64.58
		c23.39,40.21,23.96,88.08,1.52,128.04c-25.7,45.77-53.16,91.6-79.71,135.92c-11.4,19.03-23.19,38.71-34.69,58.14
		c-0.69-1.05-1.34-2.07-1.94-3.08c-10.59-17.87-21.21-35.73-31.83-53.59c-25.74-43.28-52.36-88.04-78.13-132.29
		C744.96,213.81,744.62,169.23,769.78,125.65z"/>
	<path d="M405.29,938.32c70.63,0,141.23,0,211.86,0c85.81,0,171.65,0,257.46,0c21.27,0,26.77-5.54,26.78-26.94
		c0.01-71.56,0-143.12,0-214.67l0-53.67c0-7.72,0.01-15.45,0.01-23.17c0.01-19.45,0.03-39.56-0.05-59.34
		c-0.06-14.03-6.98-22.47-18.52-22.58c-0.08,0-0.15,0-0.22,0c-11.41,0-18.32,8.28-18.52,22.18c-0.02,1.59-0.02,3.18-0.01,4.78
		l0,335.63h-83.44v-7.15c0-15.76-0.08-31.79-0.15-47.28c-0.18-36.7-0.36-74.65,0.48-111.93c0.35-15.37-4.8-28.89-14.89-39.08
		c-10.29-10.4-25.01-16.3-40.32-16.08c-62.01,0.74-117.91,0.72-170.91-0.06c-15.43-0.19-30.82,5.88-41.18,16.33
		c-10,10.1-15.1,23.64-14.73,39.17c0.88,36.97,0.68,74.61,0.49,111.01c-0.08,15.48-0.17,31.5-0.17,47.25v7.83h-83.21l0-635.81
		c0-17.88,2.98-20.79,21.24-20.8c32.1-0.01,64.19-0.01,96.29-0.01c42.96,0,85.92,0,128.88-0.02c0.55,0,1.2,0.01,1.81,0.01
		c3.06,0.03,6.22,0.06,9.37-0.66c9.78-2.26,15.23-9.27,14.97-19.23c-0.17-6.55-3.43-17.55-23.28-17.56l-28.45-0.01
		c-66.34-0.03-134.94-0.06-202.41,0.03c-17.26,0.02-31.45,5.15-41.05,14.84c-9.58,9.67-14.65,23.93-14.65,41.26
		c-0.02,216.5-0.01,433.01,0,649.51C378.76,932.69,384.47,938.32,405.29,938.32z M536.61,734.93c0.01-14.41,4.06-18.37,18.83-18.41
		c15.84-0.04,31.34-0.03,47.74-0.02c5.81,0,11.64,0.01,17.51,0.01v184.22h-83.76c-0.15-2.02-0.3-3.93-0.3-5.8
		C536.59,839.75,536.59,785.92,536.61,734.93z M743.25,860.19c0,13.36-0.01,26.74-0.01,40.16h-83.82V716.66
		c6.04-0.01,12.07-0.03,18.08-0.05c17.52-0.07,35.65-0.13,53.38,0.22c7.43,0.15,12.25,4.93,12.27,12.17
		C743.28,772.62,743.26,817.14,743.25,860.19z"/>
	<path d="M787.5,475.96c-29.42-0.13-60.19-0.13-94.07-0.01c-14.73,0.05-21.34,6.62-21.42,21.31c-0.15,28.51-0.15,57.55,0,86.31
		c0.08,14.63,6.67,21.21,21.38,21.35c10.91,0.1,21.99,0.08,32.71,0.05c4.62-0.01,9.25-0.02,13.87-0.02c0.06,0,0.12,0,0.18,0
		c4.71,0,9.42,0.01,14.13,0.02c4.65,0.01,9.36,0.02,14.09,0.02c6.36,0,12.77-0.02,19.12-0.09c13.91-0.15,21-7.16,21.08-20.85
		c0.17-28.76,0.17-58.12,0-87.26C808.5,483.03,801.41,476.02,787.5,475.96z M770.79,513.96v53.12h-60.8v-53.12H770.79z"/>
	<path d="M471.5,583.84c0.08,14.11,6.89,21,20.82,21.07c15.56,0.07,31.36,0.11,47.26,0.11c15.83,0,31.78-0.04,47.73-0.11
		c13.53-0.06,20.43-6.85,20.52-20.18c0.18-28.2,0.18-57.87,0.01-88.19c-0.08-13.92-6.77-20.46-21.06-20.59
		c-10.83-0.09-21.84-0.07-32.49-0.05c-4.69,0.01-9.39-0.01-14.07,0.02c-4.74,0-9.48-0.01-14.23-0.02
		c-10.91-0.02-22.19-0.05-33.29,0.06c-14.18,0.13-21.11,6.88-21.2,20.65C471.33,524.09,471.32,552.63,471.5,583.84z M509.38,567.13
		v-53.58h60.44v53.58H509.38z"/>
	<path d="M492.15,421.39c15.57,0.11,31.31,0.17,47.45,0.17c15.41,0,31.2-0.05,47.56-0.15c14.05-0.09,20.63-6.77,20.7-21.05
		c0.15-30.68,0.15-59.21-0.01-87.23c-0.08-13.91-6.91-20.73-20.89-20.86c-11.07-0.1-22.31-0.08-33.19-0.06
		c-4.74,0.01-9.48,0.02-14.22,0.02c-4.69,0-9.38-0.01-14.08-0.02c-10.68-0.02-21.73-0.04-32.6,0.05
		c-14.33,0.12-21.32,7.17-21.39,21.55c-0.14,29.08-0.14,58.11,0,86.29C471.56,414.33,478.32,421.29,492.15,421.39z M509.23,383.54
		v-53.41h60.81v53.41H509.23z"/>
	<path d="M672.01,313.54c-0.14,28.84-0.14,57.84,0,86.21c0.07,15.04,6.66,21.53,22.03,21.7c6.91,0.08,13.91,0.12,21.1,0.12
		c7.01,0,14.2-0.04,21.67-0.11c13.41-0.13,21.64-6.82,22.01-17.88c0.17-5.03-1.42-9.45-4.59-12.77c-3.89-4.07-9.89-6.28-17.36-6.38
		c-6.93-0.09-13.8-0.07-21.07-0.05c-2.15,0.01-4.33,0.01-6.55,0.02v-7.99c0-6.13,0.01-12.25,0.02-18.38
		c0.02-14.47,0.05-29.43-0.08-44.16c-0.12-13.2-7.19-21.46-18.44-21.55c-5.16-0.06-9.59,1.65-12.86,4.87
		C674.07,300.95,672.04,306.6,672.01,313.54z"/>
	<path d="M882.52,281.9c0.1,0,0.21,0,0.32,0c24.17-0.08,47-9.64,64.29-26.91c17.29-17.28,26.82-40.07,26.86-64.18
		c0.06-49.98-40.78-90.88-91.04-91.19c-0.19,0-0.37,0-0.56,0c-49.75,0-90.43,40.53-90.79,90.6c-0.18,24.55,9.24,47.62,26.52,64.96
		C835.29,272.42,858.15,281.9,882.52,281.9z M846.07,151.19c10.36-9.72,23.79-14.8,37.83-14.31c29.71,1.05,53.36,25.79,52.71,55.15
		c-0.31,14.18-6.32,27.53-16.92,37.61c-10.58,10.05-24.18,15.37-38.32,14.96c-29.75-0.86-53.29-25.59-52.45-55.13
		C829.33,174.78,835.42,161.18,846.07,151.19z"/>
</g>
</svg>
