<svg width="25" height="22" viewBox="0 0 25 22" fill="none" xmlns="http://www.w3.org/2000/svg">
<path d="M12.5 8.49609C14.8461 8.49609 16.748 6.59418 16.748 4.24805C16.748 1.90192 14.8461 0 12.5 0C10.1539 0 8.25195 1.90192 8.25195 4.24805C8.25195 6.59418 10.1539 8.49609 12.5 8.49609Z" stroke="none" fill="current"/>
<path d="M21.0938 8.49603C22.5769 8.49603 23.7793 7.29367 23.7793 5.81048C23.7793 4.3273 22.5769 3.12494 21.0938 3.12494C19.6106 3.12494 18.4082 4.3273 18.4082 5.81048C18.4082 7.29367 19.6106 8.49603 21.0938 8.49603Z" stroke="none" fill="current"/>
<path d="M3.90625 8.49603C5.38944 8.49603 6.5918 7.29367 6.5918 5.81048C6.5918 4.3273 5.38944 3.12494 3.90625 3.12494C2.42306 3.12494 1.2207 4.3273 1.2207 5.81048C1.2207 7.29367 2.42306 8.49603 3.90625 8.49603Z" stroke="none" fill="current"/>
<path d="M6.55225 10.9077C5.49512 10.0416 4.53774 10.1563 3.31543 10.1563C1.4873 10.1563 0 11.6348 0 13.4517V18.7842C0 19.5733 0.644043 20.2149 1.43604 20.2149C4.85527 20.2149 4.44336 20.2767 4.44336 20.0674C4.44336 16.2888 3.9958 13.5177 6.55225 10.9077Z" stroke="none" fill="current"/>
<path d="M13.6626 10.1757C11.5276 9.99764 9.67191 10.1778 8.07128 11.499C5.39272 13.6445 5.90819 16.5333 5.90819 20.0673C5.90819 21.0023 6.66894 21.7773 7.61815 21.7773C17.9249 21.7773 18.3351 22.1097 18.9463 20.7563C19.1467 20.2986 19.0918 20.444 19.0918 16.0654C19.0918 12.5875 16.0804 10.1757 13.6626 10.1757Z" stroke="none" fill="current"/>
<path d="M21.6846 10.1562C20.4556 10.1562 19.5035 10.0427 18.4478 10.9077C20.9851 13.4983 20.5566 16.0803 20.5566 20.0673C20.5566 20.278 20.2147 20.2148 23.5127 20.2148C24.333 20.2148 25 19.5502 25 18.7333V13.4516C25 11.6347 23.5127 10.1562 21.6846 10.1562Z" stroke="none" fill="current"/>
</svg>
