<?xml version="1.0" encoding="utf-8"?>
<!-- Generator: Adobe Illustrator 23.0.5, SVG Export Plug-In . SVG Version: 6.00 Build 0)  -->
<svg version="1.1" xmlns="http://www.w3.org/2000/svg" xmlns:xlink="http://www.w3.org/1999/xlink" x="0px" y="0px"
	 viewBox="0 0 300 300" style="enable-background:new 0 0 300 300;" xml:space="preserve">
<style type="text/css">
	.st0{display:none;fill:url(#SVGID_1_);}
	.st1{display:none;fill:url(#SVGID_2_);}
	.st2{display:none;fill:url(#SVGID_3_);}
	.st3{fill:#F5ECDC;}
	.st4{fill:#FFFFFF;}
	.st5{fill:#55BD84;}
	.st6{display:none;}
	.st7{display:inline;fill:url(#SVGID_4_);}
	.st8{display:inline;}
	.st9{clip-path:url(#SVGID_6_);}
	.st10{fill:#381052;}
	.st11{fill:#7721AD;}
	.st12{fill:#FFB09E;}
	.st13{display:none;clip-path:url(#SVGID_8_);}
	.st14{clip-path:url(#SVGID_8_);}
	.st15{fill-rule:evenodd;clip-rule:evenodd;fill:#F5ECDC;}
	.st16{fill-rule:evenodd;clip-rule:evenodd;fill:#7721AD;}
	.st17{fill-rule:evenodd;clip-rule:evenodd;fill:#381052;}
	.st18{fill-rule:evenodd;clip-rule:evenodd;fill:#FFFFFF;}
	.st19{fill-rule:evenodd;clip-rule:evenodd;fill:#55BD84;}
	.st20{clip-path:url(#SVGID_10_);}
	.st21{clip-path:url(#SVGID_12_);}
	.st22{fill:#2AAD65;}
</style>
<g id="Capa_1">
	<linearGradient id="SVGID_1_" gradientUnits="userSpaceOnUse" x1="-2.5" y1="150" x2="302.5" y2="150">
		<stop  offset="0" style="stop-color:#381052"/>
		<stop  offset="0.2882" style="stop-color:#471468"/>
		<stop  offset="0.8871" style="stop-color:#6F1FA1"/>
		<stop  offset="1" style="stop-color:#7721AD"/>
	</linearGradient>
	<rect x="-2.5" y="-2.5" class="st0" width="305" height="305"/>
</g>
<g id="Capa_2">
	<g class="st6">
		<linearGradient id="SVGID_2_" gradientUnits="userSpaceOnUse" x1="75.7376" y1="278.6263" x2="224.2624" y2="21.3738">
			<stop  offset="0" style="stop-color:#381052"/>
			<stop  offset="0.2882" style="stop-color:#471468"/>
			<stop  offset="0.8871" style="stop-color:#6F1FA1"/>
			<stop  offset="1" style="stop-color:#7721AD"/>
		</linearGradient>
		<circle style="display:inline;fill:url(#SVGID_2_);" cx="150" cy="150" r="148.5"/>
		<g class="st8">
			<g>
				<path class="st3" d="M193.9,97.3c0-24.2-19.7-43.9-43.9-43.9S106.1,73,106.1,97.3s19.7,43.9,43.9,43.9S193.9,121.5,193.9,97.3z
					 M150,141.2c-43.6,0-79.1,35.5-79.1,79.1v8.2c0,2.5,1.1,4.9,2.9,6.5c21.4,19.2,48.5,29.7,76.2,29.7c27.7,0,54.8-10.6,76.2-29.7
					c1.9-1.7,2.9-4,2.9-6.5v-8.2C229.1,176.7,193.6,141.2,150,141.2z"/>
			</g>
		</g>
	</g>
	<circle class="st3" cx="150" cy="150" r="148.5"/>
	<g>
		<defs>
			<circle id="SVGID_7_" cx="150" cy="150" r="148.5"/>
		</defs>
		<clipPath id="SVGID_3_">
			<use xlink:href="#SVGID_7_"  style="overflow:visible;"/>
		</clipPath>
		<g style="display:none;clip-path:url(#SVGID_3_);">
			<g class="st8">
				<g>
					<path class="st3" d="M243.3,305.8v-61.5c0-12.5-7.4-23.8-18.8-28.8l-44.2-19.4l-3.9,0.4c-3.8-1.7-6.3-5.4-6.3-9.6v-33.5
						l-39.9-1.4l-0.4,34.3c0,4.2-2.5,7.9-6.3,9.6l-4,0.2l-44.2,19.4c-11.4,5-18.8,16.3-18.8,28.8v61.5c0,2.9,2.3,5.2,5.2,5.2h176.1
						C240.9,311,243.3,308.7,243.3,305.8z"/>
				</g>
				<path class="st3" d="M202.4,283.5h40.9v22.3c0,2.9-2.3,5.2-5.2,5.2h-35.7L202.4,283.5L202.4,283.5z"/>
				<path class="st12" d="M227.6,283.5v22.3c0,2.9-2.3,5.2-5.2,5.2h15.7c2.9,0,5.2-2.3,5.2-5.2v-22.3H227.6z"/>
				<path class="st3" d="M97.6,283.5H56.7v22.3c0,2.9,2.3,5.2,5.2,5.2h35.7L97.6,283.5L97.6,283.5z"/>
				<path class="st3" d="M150,210.1c12.2,0,23-5.5,30.3-14l-3.6-0.2c-3.8-1.7-6.3-5.4-6.3-9.6v-33.5l-42.2-0.8v33.5
					c0,4.2-2.5,7.9-6.3,9.6l-2.3,1C127,204.7,137.8,210.1,150,210.1L150,210.1z"/>
				<path class="st12" d="M162.3,202.9l6.1,2.7c4.6-2.4,8.6-5.6,11.9-9.5c-2-0.8-4-1.7-5.5-3.2c-2-1.9-3.1-4.6-3.1-7.5v-33.5H156
					v41.4C156,197.5,158.5,201.2,162.3,202.9L162.3,202.9z"/>
				<path class="st3" d="M196.1,107c0-1.8-1.1-3.4-2.8-3.9c-3.9-1.4-9-3.7-14.2-7.9c-5.7-4.6-9.4-9.7-11.5-13.4
					c-0.7-1.1-2.2-1.4-3.2-0.5c-4.4,3.8-9.8,7.9-16.5,11.5c-15.3,8.3-30,10.6-40,11.1c-2.2,0.1-4,2-4,4.2v25.3
					c0,17.5,9.7,32.7,24.1,40.5c6.5,3.5,14,4.1,22,4.1c0,0,15.3-0.5,21.8-4c14.5-7.8,24.3-23,24.3-40.6L196.1,107L196.1,107z"/>
				<path class="st12" d="M193.3,103.1c-3.9-1.4-9-3.7-14.2-7.9c-5.7-4.6-9.4-9.7-11.5-13.4c-0.7-1.1-2.2-1.4-3.2-0.5
					c-2.5,2.1-5.3,4.4-8.4,6.5c1.9,2.4,4.4,5,7.4,7.4c4.2,3.3,8.3,5.5,11.8,7c3.1,1.3,5.2,4.4,5.2,7.8v23.4c0.1,3,0.3,18-11,29.8
					c-10.2,10.7-26.1,14.8-41.1,10.8c4.5,2.3,10.5,4.6,17.7,5.3c1.4,0.1,2.7,0.2,4,0.2c25.4,0,46.1-20.6,46.1-46.1V107
					C196.1,105.3,195,103.7,193.3,103.1z"/>
				<path class="st3" d="M195.8,123.4h-92v-35c0-19.3,15.7-35,35-35h22c19.3,0,35,15.7,35,35V123.4z"/>
			</g>
		</g>
		<g style="clip-path:url(#SVGID_3_);">
			<path class="st10" d="M138.9,189.4c8,5,1.7,17.4-7.1,13.8c-18.1-7.3-30.7-24.9-30.7-45.4c0-9-0.1-15.4-0.1-20.9
				c0-5,1.4-9.6,4-13.4c3.2-4.8,10.8-2.7,10.9,3.5c0,5.6,0.1,11.9,0.1,20.9C115.9,166,125.4,181,138.9,189.4z"/>
			<path class="st10" d="M218.3,241.4l-40.5-17.8c0,0,0,0,0,0l0,0c-1.8-0.7-3.7-1.6-5-2.9c-1.8-1.8-2.9-4.2-2.9-6.8v-13.7
				c14.6-8.5,24.4-24.2,24.4-42.3l0-1.5c0,0,12.8-1.3,12.8-12.8v-26.2c0-7.8,3.1-15.3,8.5-20.9c0.1-0.1,0.1-0.2,0-0.4
				c-6.9-11.7-20.6-21.6-37.2-23.4l-3.1-0.3c-1-0.1-1.2-1.5-0.3-1.9l2-0.8c1-0.4,2.2-0.9,4.1-1.7l0.3-0.1c0.4-0.2,0.6-0.5,0.6-0.9
				c0-0.4-0.2-0.7-0.6-0.9c-14.7-6.6-32.8-9.8-49.5-6.8c-8.2,1.5-16,4.4-22.9,9.2c-2.3,1.6-4.5,3.4-6.6,5.4
				C84.4,91.3,84,116.5,84.2,123.7c0,15,0,19.1,0,20.4v0.1c0,0,0,0,0,0c0,0.5,0,0.5,0,0.6c0,0.1,0,0.2,0,0.3
				c0.5,6.1,5.6,11.2,12.3,11.2c0,0.5,0,1,0,1.5c0,22.3,14.6,40,33.5,46.4v9.6c0,3.8-2.3,7.3-5.7,8.8l-2.1,0.9l0,0l-40.5,17.8
				c-10.5,4.6-17.2,15-17.2,26.4v36v20.4v0c0,2.7,2.2,4.8,4.8,4.8H102v0H198v0h18.3h14.4c0.3,0,0.7,0,1-0.1c0.5-0.1,0.9-0.3,1.3-0.5
				c0.4-0.2,0.8-0.5,1.2-0.8c0.3-0.3,0.6-0.7,0.8-1.2c0.2-0.4,0.4-0.8,0.5-1.3c0.1-0.3,0.1-0.6,0.1-1v0v0v-20.4v-36
				C235.5,256.4,228.8,246,218.3,241.4z"/>
		</g>
	</g>
</g>
</svg>
