<?xml version="1.0" encoding="UTF-8"?>
<svg xmlns="http://www.w3.org/2000/svg" xmlns:xlink="http://www.w3.org/1999/xlink" width="812px" height="459px" viewBox="0 0 406 230" version="1.1">
<g id="surface1">
<path style=" stroke:none;fill-rule:evenodd;fill:rgb(99.215686%,99.215686%,99.215686%);fill-opacity:1;" d="M -0.25 -0.25 C 135.082031 -0.25 270.417969 -0.25 405.75 -0.25 C 405.75 76.417969 405.75 153.082031 405.75 229.75 C 270.417969 229.75 135.082031 229.75 -0.25 229.75 C -0.25 153.082031 -0.25 76.417969 -0.25 -0.25 Z M -0.25 -0.25 "/>
<path style=" stroke:none;fill-rule:evenodd;fill:rgb(65.490196%,56.078431%,99.215686%);fill-opacity:1;" d="M 208.25 36.828125 C 206.75 38.167969 205.25 38.167969 203.75 36.828125 C 203.59375 31.277344 203.761719 25.765625 204.25 20.292969 C 205.796875 19.476562 207.046875 19.808594 208 21.296875 C 208.25 26.472656 208.332031 31.648438 208.25 36.828125 Z M 208.25 36.828125 "/>
<path style=" stroke:none;fill-rule:evenodd;fill:rgb(86.666667%,83.137255%,98.823529%);fill-opacity:1;" d="M 204.25 20.292969 C 203.761719 25.765625 203.59375 31.277344 203.75 36.828125 C 203.417969 34.164062 203.25 31.40625 203.25 28.5625 C 203.253906 25.617188 203.585938 22.863281 204.25 20.292969 Z M 204.25 20.292969 "/>
<path style=" stroke:none;fill-rule:evenodd;fill:rgb(78.823529%,72.941176%,98.823529%);fill-opacity:1;" d="M 208.25 36.828125 C 208.332031 31.648438 208.25 26.472656 208 21.296875 C 207.046875 19.808594 205.796875 19.476562 204.25 20.292969 C 205.730469 18.9375 207.148438 19.105469 208.5 20.796875 C 208.914062 26.226562 208.828125 31.574219 208.25 36.828125 Z M 208.25 36.828125 "/>
<path style=" stroke:none;fill-rule:evenodd;fill:rgb(86.27451%,85.490196%,99.215686%);fill-opacity:1;" d="M 173.25 28.8125 C 170.5 28.476562 169.417969 29.648438 170 32.320312 C 170.328125 33.386719 170.746094 34.390625 171.25 35.328125 C 168.421875 33.433594 168.089844 31.179688 170.25 28.5625 C 171.355469 28.167969 172.355469 28.25 173.25 28.8125 Z M 173.25 28.8125 "/>
<path style=" stroke:none;fill-rule:evenodd;fill:rgb(56.862745%,56.470588%,98.823529%);fill-opacity:1;" d="M 173.25 28.8125 C 175.710938 32.953125 178.128906 37.128906 180.5 41.339844 C 181.316406 44.445312 180.234375 45.613281 177.25 44.847656 C 176.730469 43.800781 175.980469 42.96875 175 42.34375 C 173.984375 39.863281 172.734375 37.523438 171.25 35.328125 C 170.746094 34.390625 170.328125 33.386719 170 32.320312 C 169.417969 29.648438 170.5 28.476562 173.25 28.8125 Z M 173.25 28.8125 "/>
<path style=" stroke:none;fill-rule:evenodd;fill:rgb(69.411765%,57.647059%,98.823529%);fill-opacity:1;" d="M 236.75 42.84375 C 236.082031 43.25 235.582031 43.835938 235.25 44.597656 C 234.058594 44.875 232.890625 44.792969 231.75 44.347656 C 232.828125 38.425781 235.328125 33.164062 239.25 28.5625 C 241.371094 28.042969 242.539062 28.878906 242.75 31.066406 C 240.871094 35.042969 238.871094 38.96875 236.75 42.84375 Z M 236.75 42.84375 "/>
<path style=" stroke:none;fill-rule:evenodd;fill:rgb(79.607843%,73.333333%,98.431373%);fill-opacity:1;" d="M 236.75 42.84375 C 236.191406 45.226562 234.691406 45.976562 232.25 45.097656 C 231.972656 44.90625 231.804688 44.65625 231.75 44.347656 C 232.890625 44.792969 234.058594 44.875 235.25 44.597656 C 235.582031 43.835938 236.082031 43.25 236.75 42.84375 Z M 236.75 42.84375 "/>
<path style=" stroke:none;fill-rule:evenodd;fill:rgb(73.72549%,70.980392%,98.823529%);fill-opacity:1;" d="M 217.75 47.855469 C 219.222656 48.09375 220.554688 48.597656 221.75 49.355469 C 220.253906 49.039062 218.753906 48.957031 217.25 49.105469 C 217.726562 49.464844 217.808594 49.882812 217.5 50.359375 C 216.019531 50.902344 214.769531 51.738281 213.75 52.863281 C 213.75 52.363281 213.75 51.863281 213.75 51.363281 C 213.011719 51.492188 212.34375 51.324219 211.75 50.859375 C 212.011719 50.515625 212.347656 50.261719 212.75 50.109375 C 212.292969 49.921875 211.875 49.671875 211.5 49.355469 C 210.851562 49.589844 210.101562 49.589844 209.25 49.355469 C 209.25 48.855469 209.25 48.355469 209.25 47.855469 C 210.722656 47.164062 213.554688 47.164062 217.75 47.855469 Z M 217.75 47.855469 "/>
<path style=" stroke:none;fill-rule:evenodd;fill:rgb(79.607843%,78.823529%,99.215686%);fill-opacity:1;" d="M 217.75 47.855469 C 213.554688 47.164062 210.722656 47.164062 209.25 47.855469 C 209.25 48.355469 209.25 48.855469 209.25 49.355469 C 210.101562 49.589844 210.851562 49.589844 211.5 49.355469 C 211.875 49.671875 212.292969 49.921875 212.75 50.109375 C 212.347656 50.261719 212.011719 50.515625 211.75 50.859375 C 212.34375 51.324219 213.011719 51.492188 213.75 51.363281 C 213.75 51.863281 213.75 52.363281 213.75 52.863281 C 213.417969 52.863281 213.082031 52.863281 212.75 52.863281 C 212.386719 52.089844 211.71875 51.671875 210.75 51.613281 C 207.160156 51.199219 203.660156 51.285156 200.25 51.863281 C 198.039062 51.847656 195.871094 51.929688 193.75 52.113281 C 194.226562 51.253906 194.726562 50.417969 195.25 49.609375 C 194.75 49.441406 194.25 49.273438 193.75 49.105469 C 194.378906 48.898438 194.710938 48.480469 194.75 47.855469 C 198.28125 46.636719 201.949219 46.132812 205.75 46.351562 C 207.917969 46.433594 210.082031 46.519531 212.25 46.601562 C 214.234375 46.65625 216.066406 47.074219 217.75 47.855469 Z M 217.75 47.855469 "/>
<path style=" stroke:none;fill-rule:evenodd;fill:rgb(58.431373%,56.470588%,98.823529%);fill-opacity:1;" d="M 221.75 49.355469 C 237.636719 55.765625 247.136719 67.457031 250.25 84.433594 C 250.414062 89.035156 250.246094 93.542969 249.75 97.964844 C 249.832031 94.453125 249.75 90.945312 249.5 87.441406 C 249.332031 87.273438 249.167969 87.105469 249 86.9375 C 248.613281 88.765625 248.28125 90.605469 248 92.449219 C 247.8125 91.191406 247.394531 90.023438 246.75 88.941406 C 246.414062 90.347656 246.082031 91.683594 245.75 92.953125 C 245.910156 90.515625 245.742188 88.175781 245.25 85.9375 C 244.859375 83.265625 244.441406 80.59375 244 77.917969 C 242.933594 77.109375 242.183594 76.105469 241.75 74.914062 C 241.4375 72.097656 240.101562 69.925781 237.75 68.398438 C 235.800781 66.613281 233.46875 65.613281 230.75 65.390625 C 230.539062 65.03125 230.207031 64.78125 229.75 64.640625 C 223.847656 64.199219 218.015625 64.617188 212.25 65.894531 C 210.855469 66.105469 209.855469 65.605469 209.25 64.390625 C 208.636719 64 207.96875 63.75 207.25 63.636719 C 207.527344 63.445312 207.695312 63.195312 207.75 62.886719 C 209.097656 62.683594 210.265625 62.097656 211.25 61.132812 C 212.40625 60.882812 213.570312 60.800781 214.75 60.882812 C 219.375 60.066406 224.042969 59.734375 228.75 59.878906 C 228.867188 59.234375 228.703125 58.730469 228.25 58.375 C 226.816406 57.355469 225.316406 56.4375 223.75 55.621094 C 220.46875 55.34375 217.300781 55.84375 214.25 57.125 C 211.792969 58.765625 209.460938 60.519531 207.25 62.386719 C 204.613281 64.355469 202.113281 66.527344 199.75 68.898438 C 199.082031 68.898438 198.417969 68.898438 197.75 68.898438 C 197.953125 68.09375 197.953125 67.425781 197.75 66.894531 C 195.457031 68.023438 193.457031 69.527344 191.75 71.40625 C 191.75 71.070312 191.75 70.738281 191.75 70.402344 C 194.585938 67.726562 197.253906 64.886719 199.75 61.882812 C 201.714844 60.492188 203.546875 58.988281 205.25 57.375 C 207.515625 55.488281 210.015625 53.984375 212.75 52.863281 C 213.082031 52.863281 213.417969 52.863281 213.75 52.863281 C 214.769531 51.738281 216.019531 50.902344 217.5 50.359375 C 217.808594 49.882812 217.726562 49.464844 217.25 49.105469 C 218.753906 48.957031 220.253906 49.039062 221.75 49.355469 Z M 221.75 49.355469 "/>
<path style=" stroke:none;fill-rule:evenodd;fill:rgb(98.039216%,98.039216%,99.215686%);fill-opacity:1;" d="M 212.75 52.863281 C 210.015625 53.984375 207.515625 55.488281 205.25 57.375 C 203.808594 57.527344 202.472656 57.359375 201.25 56.875 C 197.351562 56.152344 193.351562 55.648438 189.25 55.371094 C 192.769531 53.601562 196.433594 52.429688 200.25 51.863281 C 203.660156 51.285156 207.160156 51.199219 210.75 51.613281 C 211.71875 51.671875 212.386719 52.089844 212.75 52.863281 Z M 212.75 52.863281 "/>
<path style=" stroke:none;fill-rule:evenodd;fill:rgb(90.588235%,90.980392%,99.215686%);fill-opacity:1;" d="M 194.75 47.855469 C 194.710938 48.480469 194.378906 48.898438 193.75 49.105469 C 194.25 49.273438 194.75 49.441406 195.25 49.609375 C 194.726562 50.417969 194.226562 51.253906 193.75 52.113281 C 195.871094 51.929688 198.039062 51.847656 200.25 51.863281 C 196.433594 52.429688 192.769531 53.601562 189.25 55.371094 C 193.351562 55.648438 197.351562 56.152344 201.25 56.875 C 195.425781 56.375 189.589844 56.289062 183.75 56.625 C 182.492188 57.3125 181.328125 58.0625 180.25 58.878906 C 178.484375 59.316406 176.816406 59.984375 175.25 60.882812 C 175.476562 60.402344 175.808594 59.984375 176.25 59.628906 C 177.902344 58.828125 179.566406 58.078125 181.25 57.375 C 180.808594 56.636719 180.144531 56.21875 179.25 56.121094 C 181.179688 54.441406 183.179688 52.851562 185.25 51.363281 C 188.234375 49.695312 191.402344 48.527344 194.75 47.855469 Z M 194.75 47.855469 "/>
<path style=" stroke:none;fill-rule:evenodd;fill:rgb(77.254902%,69.019608%,98.431373%);fill-opacity:1;" d="M 267.75 57.375 C 268.121094 55.65625 267.457031 54.820312 265.75 54.871094 C 263.257812 55.851562 260.757812 56.855469 258.25 57.875 C 260.464844 56.253906 262.882812 54.917969 265.5 53.867188 C 267.21875 53.929688 268.300781 54.765625 268.75 56.371094 C 268.625 56.980469 268.292969 57.316406 267.75 57.375 Z M 267.75 57.375 "/>
<path style=" stroke:none;fill-rule:evenodd;fill:rgb(45.098039%,56.078431%,98.823529%);fill-opacity:1;" d="M 144.75 53.867188 C 145.597656 53.785156 146.433594 53.871094 147.25 54.117188 C 150.578125 56.339844 154.078125 58.175781 157.75 59.628906 C 158.523438 60.554688 159.441406 61.308594 160.5 61.882812 C 160.996094 64.558594 159.910156 65.8125 157.25 65.644531 C 153.265625 63.3125 149.265625 60.972656 145.25 58.628906 C 144.082031 57.179688 143.914062 55.59375 144.75 53.867188 Z M 144.75 53.867188 "/>
<path style=" stroke:none;fill-rule:evenodd;fill:rgb(94.509804%,94.509804%,98.823529%);fill-opacity:1;" d="M 228.25 58.375 C 224.953125 59.28125 221.453125 59.699219 217.75 59.628906 C 216.574219 59.75 215.574219 60.167969 214.75 60.882812 C 213.570312 60.800781 212.40625 60.882812 211.25 61.132812 C 210.265625 62.097656 209.097656 62.683594 207.75 62.886719 C 207.417969 62.886719 207.25 62.71875 207.25 62.386719 C 209.460938 60.519531 211.792969 58.765625 214.25 57.125 C 217.300781 55.84375 220.46875 55.34375 223.75 55.621094 C 225.316406 56.4375 226.816406 57.355469 228.25 58.375 Z M 228.25 58.375 "/>
<path style=" stroke:none;fill-rule:evenodd;fill:rgb(83.529412%,84.705882%,99.215686%);fill-opacity:1;" d="M 201.25 56.875 C 202.472656 57.359375 203.808594 57.527344 205.25 57.375 C 203.546875 58.988281 201.714844 60.492188 199.75 61.882812 C 199.695312 61.574219 199.527344 61.324219 199.25 61.132812 C 195.75 60.796875 192.25 60.796875 188.75 61.132812 C 186.328125 62.039062 183.828125 62.625 181.25 62.886719 C 180.4375 61.507812 180.605469 60.253906 181.75 59.128906 C 181.277344 58.886719 180.777344 58.804688 180.25 58.878906 C 181.328125 58.0625 182.492188 57.3125 183.75 56.625 C 189.589844 56.289062 195.425781 56.375 201.25 56.875 Z M 201.25 56.875 "/>
<path style=" stroke:none;fill-rule:evenodd;fill:rgb(65.882353%,56.470588%,98.823529%);fill-opacity:1;" d="M 267.75 57.375 C 266.261719 58.789062 264.597656 59.957031 262.75 60.882812 C 260.726562 62.054688 258.726562 63.222656 256.75 64.390625 C 255.550781 65.246094 254.21875 65.5 252.75 65.140625 C 251.035156 63.957031 250.867188 62.617188 252.25 61.132812 C 254.195312 59.90625 256.195312 58.820312 258.25 57.875 C 260.757812 56.855469 263.257812 55.851562 265.75 54.871094 C 267.457031 54.820312 268.121094 55.65625 267.75 57.375 Z M 267.75 57.375 "/>
<path style=" stroke:none;fill-rule:evenodd;fill:rgb(75.294118%,74.117647%,99.215686%);fill-opacity:1;" d="M 228.25 58.375 C 228.703125 58.730469 228.867188 59.234375 228.75 59.878906 C 224.042969 59.734375 219.375 60.066406 214.75 60.882812 C 215.574219 60.167969 216.574219 59.75 217.75 59.628906 C 221.453125 59.699219 224.953125 59.28125 228.25 58.375 Z M 228.25 58.375 "/>
<path style=" stroke:none;fill-rule:evenodd;fill:rgb(97.647059%,98.039216%,99.215686%);fill-opacity:1;" d="M 199.75 61.882812 C 197.253906 64.886719 194.585938 67.726562 191.75 70.402344 C 188.015625 72.136719 184.683594 74.476562 181.75 77.417969 C 180.226562 78.398438 178.808594 79.570312 177.5 80.925781 C 177.101562 81.808594 177.183594 82.644531 177.75 83.429688 C 178.582031 83.933594 179.25 84.601562 179.75 85.4375 C 181.453125 83.875 183.203125 82.371094 185 80.925781 C 185.230469 81.222656 185.316406 81.558594 185.25 81.929688 C 183.78125 84.484375 182.613281 87.15625 181.75 89.945312 C 180.539062 93.121094 179.207031 96.292969 177.75 99.464844 C 176.421875 97.804688 175.089844 96.132812 173.75 94.457031 C 172.109375 90.855469 170.777344 87.179688 169.75 83.429688 C 168.816406 73.855469 172.652344 67.007812 181.25 62.886719 C 183.828125 62.625 186.328125 62.039062 188.75 61.132812 C 192.25 60.796875 195.75 60.796875 199.25 61.132812 C 199.527344 61.324219 199.695312 61.574219 199.75 61.882812 Z M 199.75 61.882812 "/>
<path style=" stroke:none;fill-rule:evenodd;fill:rgb(85.490196%,81.960784%,98.823529%);fill-opacity:1;" d="M 262.75 60.882812 C 261.230469 62.816406 259.230469 63.984375 256.75 64.390625 C 258.726562 63.222656 260.726562 62.054688 262.75 60.882812 Z M 262.75 60.882812 "/>
<path style=" stroke:none;fill-rule:evenodd;fill:rgb(67.058824%,73.333333%,98.823529%);fill-opacity:1;" d="M 180.25 58.878906 C 180.777344 58.804688 181.277344 58.886719 181.75 59.128906 C 180.605469 60.253906 180.4375 61.507812 181.25 62.886719 C 172.652344 67.007812 168.816406 73.855469 169.75 83.429688 C 169.335938 81.351562 169.085938 79.179688 169 76.917969 C 168.445312 77.523438 167.859375 77.523438 167.25 76.917969 C 166.902344 77.863281 166.402344 78.027344 165.75 77.417969 C 165.253906 79.394531 165.089844 81.398438 165.25 83.429688 C 164.667969 80.5 164.667969 77.492188 165.25 74.410156 C 166.519531 68.351562 169.855469 63.84375 175.25 60.882812 C 176.816406 59.984375 178.484375 59.316406 180.25 58.878906 Z M 180.25 58.878906 "/>
<path style=" stroke:none;fill-rule:evenodd;fill:rgb(88.627451%,88.627451%,99.215686%);fill-opacity:1;" d="M 230.75 65.390625 C 226.570312 65.226562 222.402344 65.394531 218.25 65.894531 C 220.851562 66.488281 220.769531 66.992188 218 67.398438 C 216.207031 66.554688 214.289062 66.21875 212.25 66.394531 C 212.25 66.226562 212.25 66.058594 212.25 65.894531 C 218.015625 64.617188 223.847656 64.199219 229.75 64.640625 C 230.207031 64.78125 230.539062 65.03125 230.75 65.390625 Z M 230.75 65.390625 "/>
<path style=" stroke:none;fill-rule:evenodd;fill:rgb(98.823529%,98.823529%,99.607843%);fill-opacity:1;" d="M 230.75 65.390625 C 230.351562 70.566406 230.265625 75.746094 230.5 80.925781 C 230.585938 82.035156 230.917969 83.039062 231.5 83.933594 C 231.667969 83.429688 231.832031 82.929688 232 82.429688 C 232.167969 82.597656 232.332031 82.761719 232.5 82.929688 C 232.914062 82.347656 233.328125 81.761719 233.75 81.175781 C 235.5 76.972656 236.414062 72.546875 236.5 67.898438 C 236.835938 68.273438 237.253906 68.441406 237.75 68.398438 C 240.101562 69.925781 241.4375 72.097656 241.75 74.914062 C 241.707031 78.546875 241.039062 82.054688 239.75 85.4375 C 238.296875 86.769531 237.296875 88.4375 236.75 90.445312 C 232.777344 94.59375 229.277344 98.851562 226.25 103.222656 C 227.453125 103.597656 228.539062 104.183594 229.5 104.976562 C 232.804688 102.671875 235.804688 99.996094 238.5 96.960938 C 240.039062 94.839844 241.457031 92.667969 242.75 90.445312 C 242.777344 89.890625 242.945312 89.390625 243.25 88.941406 C 243.421875 87.589844 244.089844 86.589844 245.25 85.9375 C 245.347656 89.960938 245.183594 93.972656 244.75 97.964844 C 243.785156 102.746094 242.121094 107.257812 239.75 111.492188 C 238.40625 113.003906 237.070312 114.507812 235.75 116.003906 C 232.40625 117.730469 228.90625 119.066406 225.25 120.011719 C 220.070312 120.113281 214.902344 119.945312 209.75 119.511719 C 199.414062 117.394531 190.414062 112.71875 182.75 105.480469 C 182.082031 104.144531 182.082031 102.808594 182.75 101.46875 C 184.007812 97.589844 185.34375 93.746094 186.75 89.945312 C 187.621094 89.175781 188.121094 88.175781 188.25 86.9375 C 189.648438 85.359375 190.648438 83.519531 191.25 81.425781 C 192.847656 77.828125 195.015625 74.65625 197.75 71.90625 C 202.296875 69.378906 207.128906 67.542969 212.25 66.394531 C 214.289062 66.21875 216.207031 66.554688 218 67.398438 C 220.769531 66.992188 220.851562 66.488281 218.25 65.894531 C 222.402344 65.394531 226.570312 65.226562 230.75 65.390625 Z M 230.75 65.390625 "/>
<path style=" stroke:none;fill-rule:evenodd;fill:rgb(65.098039%,67.843137%,98.431373%);fill-opacity:1;" d="M 207.25 62.386719 C 207.25 62.71875 207.417969 62.886719 207.75 62.886719 C 207.695312 63.195312 207.527344 63.445312 207.25 63.636719 C 207.96875 63.75 208.636719 64 209.25 64.390625 C 209.855469 65.605469 210.855469 66.105469 212.25 65.894531 C 212.25 66.058594 212.25 66.226562 212.25 66.394531 C 207.128906 67.542969 202.296875 69.378906 197.75 71.90625 C 198.417969 70.902344 199.082031 69.902344 199.75 68.898438 C 202.113281 66.527344 204.613281 64.355469 207.25 62.386719 Z M 207.25 62.386719 "/>
<path style=" stroke:none;fill-rule:evenodd;fill:rgb(91.372549%,91.764706%,99.215686%);fill-opacity:1;" d="M 230.75 65.390625 C 233.46875 65.613281 235.800781 66.613281 237.75 68.398438 C 237.253906 68.441406 236.835938 68.273438 236.5 67.898438 C 236.414062 72.546875 235.5 76.972656 233.75 81.175781 C 233.328125 81.761719 232.914062 82.347656 232.5 82.929688 C 232.332031 82.761719 232.167969 82.597656 232 82.429688 C 231.832031 82.929688 231.667969 83.429688 231.5 83.933594 C 230.917969 83.039062 230.585938 82.035156 230.5 80.925781 C 230.265625 75.746094 230.351562 70.566406 230.75 65.390625 Z M 230.75 65.390625 "/>
<path style=" stroke:none;fill-rule:evenodd;fill:rgb(45.882353%,55.686275%,98.823529%);fill-opacity:1;" d="M 199.75 68.898438 C 199.082031 69.902344 198.417969 70.902344 197.75 71.90625 C 195.015625 74.65625 192.847656 77.828125 191.25 81.425781 C 189.851562 83.007812 188.851562 84.84375 188.25 86.9375 C 188.121094 88.175781 187.621094 89.175781 186.75 89.945312 C 186.882812 89.203125 186.714844 88.535156 186.25 87.941406 C 185.957031 88.046875 185.707031 88.214844 185.5 88.441406 C 185 87.773438 184.5 87.105469 184 86.4375 C 183.324219 87.691406 182.574219 88.859375 181.75 89.945312 C 182.613281 87.15625 183.78125 84.484375 185.25 81.929688 C 185.582031 81.929688 185.75 81.761719 185.75 81.425781 C 187.511719 77.980469 189.511719 74.640625 191.75 71.40625 C 193.457031 69.527344 195.457031 68.023438 197.75 66.894531 C 197.953125 67.425781 197.953125 68.09375 197.75 68.898438 C 198.417969 68.898438 199.082031 68.898438 199.75 68.898438 Z M 199.75 68.898438 "/>
<path style=" stroke:none;fill-rule:evenodd;fill:rgb(72.941176%,78.039216%,98.823529%);fill-opacity:1;" d="M 191.75 70.402344 C 191.75 70.738281 191.75 71.070312 191.75 71.40625 C 189.511719 74.640625 187.511719 77.980469 185.75 81.425781 C 185.957031 80.035156 185.539062 79.703125 184.5 80.425781 C 183.132812 79.792969 182.214844 78.789062 181.75 77.417969 C 184.683594 74.476562 188.015625 72.136719 191.75 70.402344 Z M 191.75 70.402344 "/>
<path style=" stroke:none;fill-rule:evenodd;fill:rgb(83.137255%,86.666667%,98.823529%);fill-opacity:1;" d="M 181.75 77.417969 C 182.214844 78.789062 183.132812 79.792969 184.5 80.425781 C 185.539062 79.703125 185.957031 80.035156 185.75 81.425781 C 185.75 81.761719 185.582031 81.929688 185.25 81.929688 C 185.316406 81.558594 185.230469 81.222656 185 80.925781 C 183.203125 82.371094 181.453125 83.875 179.75 85.4375 C 179.25 84.601562 178.582031 83.933594 177.75 83.429688 C 177.183594 82.644531 177.101562 81.808594 177.5 80.925781 C 178.808594 79.570312 180.226562 78.398438 181.75 77.417969 Z M 181.75 77.417969 "/>
<path style=" stroke:none;fill-rule:evenodd;fill:rgb(80.784314%,81.176471%,99.215686%);fill-opacity:1;" d="M 241.75 74.914062 C 242.183594 76.105469 242.933594 77.109375 244 77.917969 C 244.441406 80.59375 244.859375 83.265625 245.25 85.9375 C 244.089844 86.589844 243.421875 87.589844 243.25 88.941406 C 242.625 88.980469 242.207031 89.316406 242 89.945312 C 241.167969 89.445312 240.5 88.777344 240 87.941406 C 239.5 88.441406 239 88.941406 238.5 89.445312 C 238.714844 88.105469 239.132812 86.769531 239.75 85.4375 C 241.039062 82.054688 241.707031 78.546875 241.75 74.914062 Z M 241.75 74.914062 "/>
<path style=" stroke:none;fill-rule:evenodd;fill:rgb(70.588235%,77.647059%,98.431373%);fill-opacity:1;" d="M 191.25 81.425781 C 190.648438 83.519531 189.648438 85.359375 188.25 86.9375 C 188.851562 84.84375 189.851562 83.007812 191.25 81.425781 Z M 191.25 81.425781 "/>
<path style=" stroke:none;fill-rule:evenodd;fill:rgb(81.176471%,87.058824%,99.215686%);fill-opacity:1;" d="M 165.25 74.410156 C 164.667969 77.492188 164.667969 80.5 165.25 83.429688 C 164.953125 86.871094 165.871094 89.878906 168 92.449219 C 168.304688 93.28125 168.554688 94.113281 168.75 94.957031 C 168.035156 94.253906 167.449219 93.417969 167 92.449219 C 166.660156 94.316406 166.746094 96.152344 167.25 97.964844 C 165.964844 97.597656 164.632812 97.597656 163.25 97.964844 C 163.25 99.300781 163.25 100.636719 163.25 101.972656 C 162.492188 100.453125 162.074219 98.78125 162 96.960938 C 161.667969 93.453125 161.667969 89.945312 162 86.4375 C 162.292969 85.253906 163.042969 84.753906 164.25 84.933594 C 164.167969 81.757812 164.25 78.582031 164.5 75.414062 C 164.640625 74.953125 164.890625 74.621094 165.25 74.410156 Z M 165.25 74.410156 "/>
<path style=" stroke:none;fill-rule:evenodd;fill:rgb(74.901961%,76.862745%,98.823529%);fill-opacity:1;" d="M 245.25 85.9375 C 245.742188 88.175781 245.910156 90.515625 245.75 92.953125 C 245.921875 94.785156 245.585938 96.457031 244.75 97.964844 C 245.183594 93.972656 245.347656 89.960938 245.25 85.9375 Z M 245.25 85.9375 "/>
<path style=" stroke:none;fill-rule:evenodd;fill:rgb(79.607843%,80.392157%,98.823529%);fill-opacity:1;" d="M 250.25 84.433594 C 250.828125 89.023438 250.910156 93.699219 250.5 98.464844 C 250.308594 98.742188 250.058594 98.910156 249.75 98.964844 C 249.75 98.632812 249.75 98.296875 249.75 97.964844 C 250.246094 93.542969 250.414062 89.035156 250.25 84.433594 Z M 250.25 84.433594 "/>
<path style=" stroke:none;fill-rule:evenodd;fill:rgb(85.098039%,86.27451%,99.215686%);fill-opacity:1;" d="M 239.75 85.4375 C 239.132812 86.769531 238.714844 88.105469 238.5 89.445312 C 239 88.941406 239.5 88.441406 240 87.941406 C 240.5 88.777344 241.167969 89.445312 242 89.945312 C 242.207031 89.316406 242.625 88.980469 243.25 88.941406 C 242.945312 89.390625 242.777344 89.890625 242.75 90.445312 C 241.433594 92.015625 240.019531 93.519531 238.5 94.957031 C 238.332031 94.789062 238.167969 94.621094 238 94.457031 C 237.898438 95.335938 237.648438 96.171875 237.25 96.960938 C 236.808594 96.546875 236.640625 96.046875 236.75 95.457031 C 235.527344 95.664062 234.859375 95.164062 234.75 93.953125 C 235.425781 92.78125 236.09375 91.609375 236.75 90.445312 C 237.296875 88.4375 238.296875 86.769531 239.75 85.4375 Z M 239.75 85.4375 "/>
<path style=" stroke:none;fill-rule:evenodd;fill:rgb(47.058824%,61.960784%,98.823529%);fill-opacity:1;" d="M 169.75 83.429688 C 170.777344 87.179688 172.109375 90.855469 173.75 94.457031 C 173.027344 93.894531 172.527344 93.140625 172.25 92.199219 C 171.917969 91.867188 171.582031 91.867188 171.25 92.199219 C 170.199219 93.609375 169.699219 95.195312 169.75 96.960938 C 169.328125 96.375 168.996094 95.707031 168.75 94.957031 C 168.554688 94.113281 168.304688 93.28125 168 92.449219 C 165.871094 89.878906 164.953125 86.871094 165.25 83.429688 C 165.089844 81.398438 165.253906 79.394531 165.75 77.417969 C 166.402344 78.027344 166.902344 77.863281 167.25 76.917969 C 167.859375 77.523438 168.445312 77.523438 169 76.917969 C 169.085938 79.179688 169.335938 81.351562 169.75 83.429688 Z M 169.75 83.429688 "/>
<path style=" stroke:none;fill-rule:evenodd;fill:rgb(90.980392%,92.156863%,99.215686%);fill-opacity:1;" d="M 236.75 90.445312 C 236.09375 91.609375 235.425781 92.78125 234.75 93.953125 C 234.859375 95.164062 235.527344 95.664062 236.75 95.457031 C 236.640625 96.046875 236.808594 96.546875 237.25 96.960938 C 237.648438 96.171875 237.898438 95.335938 238 94.457031 C 238.167969 94.621094 238.332031 94.789062 238.5 94.957031 C 240.019531 93.519531 241.433594 92.015625 242.75 90.445312 C 241.457031 92.667969 240.039062 94.839844 238.5 96.960938 C 235.804688 99.996094 232.804688 102.671875 229.5 104.976562 C 228.539062 104.183594 227.453125 103.597656 226.25 103.222656 C 229.277344 98.851562 232.777344 94.59375 236.75 90.445312 Z M 236.75 90.445312 "/>
<path style=" stroke:none;fill-rule:evenodd;fill:rgb(94.117647%,96.078431%,98.823529%);fill-opacity:1;" d="M 168.75 94.957031 C 168.996094 95.707031 169.328125 96.375 169.75 96.960938 C 170.902344 98.46875 171.902344 100.140625 172.75 101.972656 C 174.261719 103.066406 175.511719 104.40625 176.5 105.980469 C 176.914062 109.5 176.832031 113.007812 176.25 116.503906 C 175.238281 115.324219 174.238281 114.15625 173.25 112.996094 C 171.875 110.074219 170.375 107.234375 168.75 104.476562 C 168.484375 102.238281 167.984375 100.070312 167.25 97.964844 C 166.746094 96.152344 166.660156 94.316406 167 92.449219 C 167.449219 93.417969 168.035156 94.253906 168.75 94.957031 Z M 168.75 94.957031 "/>
<path style=" stroke:none;fill-rule:evenodd;fill:rgb(63.529412%,76.078431%,99.215686%);fill-opacity:1;" d="M 167.25 97.964844 C 167.984375 100.070312 168.484375 102.238281 168.75 104.476562 C 167.691406 105.121094 167.191406 106.121094 167.25 107.484375 C 166.722656 107.410156 166.222656 107.492188 165.75 107.734375 C 166.300781 109.300781 166.800781 110.886719 167.25 112.496094 C 165.527344 109.195312 164.195312 105.6875 163.25 101.972656 C 163.25 100.636719 163.25 99.300781 163.25 97.964844 C 164.632812 97.597656 165.964844 97.597656 167.25 97.964844 Z M 167.25 97.964844 "/>
<path style=" stroke:none;fill-rule:evenodd;fill:rgb(80%,83.137255%,99.215686%);fill-opacity:1;" d="M 249.75 98.964844 C 249.570312 100.972656 249.320312 102.976562 249 104.976562 C 248.882812 105.789062 248.464844 106.289062 247.75 106.480469 C 248.261719 103.878906 248.929688 101.371094 249.75 98.964844 Z M 249.75 98.964844 "/>
<path style=" stroke:none;fill-rule:evenodd;fill:rgb(32.156863%,54.901961%,98.823529%);fill-opacity:1;" d="M 186.75 89.945312 C 185.34375 93.746094 184.007812 97.589844 182.75 101.46875 C 182.082031 102.808594 182.082031 104.144531 182.75 105.480469 C 190.414062 112.71875 199.414062 117.394531 209.75 119.511719 C 210.90625 120.296875 212.238281 120.714844 213.75 120.761719 C 217.621094 121.164062 221.457031 121.078125 225.25 120.511719 C 228.390625 120.757812 231.390625 120.257812 234.25 119.007812 C 234.738281 119.246094 235.15625 119.582031 235.5 120.011719 C 235.628906 118.949219 236.128906 118.113281 237 117.503906 C 237.679688 118.460938 238.429688 119.296875 239.25 120.011719 C 238.082031 121.347656 236.917969 122.683594 235.75 124.019531 C 228.636719 129.730469 220.636719 133.40625 211.75 135.042969 C 206.574219 135.09375 201.40625 134.925781 196.25 134.542969 C 184.382812 131.675781 175.214844 124.996094 168.75 114.5 C 168.675781 113.972656 168.757812 113.46875 169 112.996094 C 170.027344 113.171875 171.027344 112.835938 172 111.992188 C 172.355469 112.433594 172.769531 112.769531 173.25 112.996094 C 174.238281 114.15625 175.238281 115.324219 176.25 116.503906 C 176.832031 113.007812 176.914062 109.5 176.5 105.980469 C 175.511719 104.40625 174.261719 103.066406 172.75 101.972656 C 171.902344 100.140625 170.902344 98.46875 169.75 96.960938 C 169.699219 95.195312 170.199219 93.609375 171.25 92.199219 C 171.582031 91.867188 171.917969 91.867188 172.25 92.199219 C 172.527344 93.140625 173.027344 93.894531 173.75 94.457031 C 175.089844 96.132812 176.421875 97.804688 177.75 99.464844 C 179.207031 96.292969 180.539062 93.121094 181.75 89.945312 C 182.574219 88.859375 183.324219 87.691406 184 86.4375 C 184.5 87.105469 185 87.773438 185.5 88.441406 C 185.707031 88.214844 185.957031 88.046875 186.25 87.941406 C 186.714844 88.535156 186.882812 89.203125 186.75 89.945312 Z M 186.75 89.945312 "/>
<path style=" stroke:none;fill-rule:evenodd;fill:rgb(45.882353%,55.686275%,98.823529%);fill-opacity:1;" d="M 249.75 97.964844 C 249.75 98.296875 249.75 98.632812 249.75 98.964844 C 248.929688 101.371094 248.261719 103.878906 247.75 106.480469 C 245.515625 110.953125 243.015625 115.296875 240.25 119.511719 C 239.917969 119.675781 239.582031 119.84375 239.25 120.011719 C 238.429688 119.296875 237.679688 118.460938 237 117.503906 C 236.128906 118.113281 235.628906 118.949219 235.5 120.011719 C 235.15625 119.582031 234.738281 119.246094 234.25 119.007812 C 231.390625 120.257812 228.390625 120.757812 225.25 120.511719 C 225.25 120.34375 225.25 120.179688 225.25 120.011719 C 228.90625 119.066406 232.40625 117.730469 235.75 116.003906 C 237.792969 115.125 239.128906 113.621094 239.75 111.492188 C 242.121094 107.257812 243.785156 102.746094 244.75 97.964844 C 245.585938 96.457031 245.921875 94.785156 245.75 92.953125 C 246.082031 91.683594 246.414062 90.347656 246.75 88.941406 C 247.394531 90.023438 247.8125 91.191406 248 92.449219 C 248.28125 90.605469 248.613281 88.765625 249 86.9375 C 249.167969 87.105469 249.332031 87.273438 249.5 87.441406 C 249.75 90.945312 249.832031 94.453125 249.75 97.964844 Z M 249.75 97.964844 "/>
<path style=" stroke:none;fill-rule:evenodd;fill:rgb(43.137255%,63.137255%,98.823529%);fill-opacity:1;" d="M 168.75 104.476562 C 170.375 107.234375 171.875 110.074219 173.25 112.996094 C 172.769531 112.769531 172.355469 112.433594 172 111.992188 C 171.027344 112.835938 170.027344 113.171875 169 112.996094 C 168.757812 113.46875 168.675781 113.972656 168.75 114.5 C 168.429688 113.710938 167.929688 113.039062 167.25 112.496094 C 166.800781 110.886719 166.300781 109.300781 165.75 107.734375 C 166.222656 107.492188 166.722656 107.410156 167.25 107.484375 C 167.191406 106.121094 167.691406 105.121094 168.75 104.476562 Z M 168.75 104.476562 "/>
<path style=" stroke:none;fill-rule:evenodd;fill:rgb(78.823529%,85.882353%,99.215686%);fill-opacity:1;" d="M 183.25 112.496094 C 182.601562 113.269531 182.269531 114.273438 182.25 115.5 C 182.363281 117.183594 182.527344 118.851562 182.75 120.511719 C 181.53125 117.691406 181.03125 114.683594 181.25 111.492188 C 182.191406 111.355469 182.855469 111.691406 183.25 112.496094 Z M 183.25 112.496094 "/>
<path style=" stroke:none;fill-rule:evenodd;fill:rgb(96.862745%,97.647059%,99.215686%);fill-opacity:1;" d="M 183.25 112.496094 C 185.25 113.832031 187.25 115.167969 189.25 116.503906 C 190.828125 117.902344 192.660156 118.90625 194.75 119.511719 C 195.515625 120.382812 196.515625 120.886719 197.75 121.011719 C 197.917969 121.011719 198.082031 121.011719 198.25 121.011719 C 199.527344 122.058594 201.027344 122.726562 202.75 123.015625 C 205.160156 123.894531 207.660156 124.394531 210.25 124.519531 C 210.804688 124.917969 211.472656 125.167969 212.25 125.273438 C 216.25 125.4375 220.25 125.605469 224.25 125.773438 C 223.972656 125.964844 223.804688 126.214844 223.75 126.523438 C 220.324219 127.652344 216.824219 128.652344 213.25 129.53125 C 205.917969 130.542969 198.753906 129.875 191.75 127.527344 C 187.410156 126.847656 184.410156 124.511719 182.75 120.511719 C 182.527344 118.851562 182.363281 117.183594 182.25 115.5 C 182.269531 114.273438 182.601562 113.269531 183.25 112.496094 Z M 183.25 112.496094 "/>
<path style=" stroke:none;fill-rule:evenodd;fill:rgb(61.960784%,70.588235%,99.215686%);fill-opacity:1;" d="M 239.75 111.492188 C 239.128906 113.621094 237.792969 115.125 235.75 116.003906 C 237.070312 114.507812 238.40625 113.003906 239.75 111.492188 Z M 239.75 111.492188 "/>
<path style=" stroke:none;fill-rule:evenodd;fill:rgb(58.431373%,70.588235%,98.823529%);fill-opacity:1;" d="M 189.25 116.503906 C 191.339844 117.105469 193.171875 118.109375 194.75 119.511719 C 192.660156 118.90625 190.828125 117.902344 189.25 116.503906 Z M 189.25 116.503906 "/>
<path style=" stroke:none;fill-rule:evenodd;fill:rgb(63.529412%,75.686275%,98.823529%);fill-opacity:1;" d="M 194.75 119.511719 C 195.984375 119.636719 196.984375 120.136719 197.75 121.011719 C 196.515625 120.886719 195.515625 120.382812 194.75 119.511719 Z M 194.75 119.511719 "/>
<path style=" stroke:none;fill-rule:evenodd;fill:rgb(61.176471%,72.54902%,98.823529%);fill-opacity:1;" d="M 209.75 119.511719 C 214.902344 119.945312 220.070312 120.113281 225.25 120.011719 C 225.25 120.179688 225.25 120.34375 225.25 120.511719 C 221.457031 121.078125 217.621094 121.164062 213.75 120.761719 C 212.238281 120.714844 210.90625 120.296875 209.75 119.511719 Z M 209.75 119.511719 "/>
<path style=" stroke:none;fill-rule:evenodd;fill:rgb(66.27451%,78.039216%,98.823529%);fill-opacity:1;" d="M 198.25 121.011719 C 199.972656 121.304688 201.472656 121.972656 202.75 123.015625 C 201.027344 122.726562 199.527344 122.058594 198.25 121.011719 Z M 198.25 121.011719 "/>
<path style=" stroke:none;fill-rule:evenodd;fill:rgb(77.254902%,82.352941%,98.823529%);fill-opacity:1;" d="M 240.25 119.511719 C 239.25 121.515625 237.75 123.015625 235.75 124.019531 C 236.917969 122.683594 238.082031 121.347656 239.25 120.011719 C 239.582031 119.84375 239.917969 119.675781 240.25 119.511719 Z M 240.25 119.511719 "/>
<path style=" stroke:none;fill-rule:evenodd;fill:rgb(54.509804%,68.627451%,98.823529%);fill-opacity:1;" d="M 210.25 124.519531 C 215.257812 124.710938 220.257812 125.046875 225.25 125.523438 C 224.996094 126.234375 224.496094 126.566406 223.75 126.523438 C 223.804688 126.214844 223.972656 125.964844 224.25 125.773438 C 220.25 125.605469 216.25 125.4375 212.25 125.273438 C 211.472656 125.167969 210.804688 124.917969 210.25 124.519531 Z M 210.25 124.519531 "/>
<path style=" stroke:none;fill-rule:evenodd;fill:rgb(70.588235%,80.784314%,99.215686%);fill-opacity:1;" d="M 191.75 127.527344 C 198.753906 129.875 205.917969 130.542969 213.25 129.53125 C 212.695312 129.925781 212.027344 130.179688 211.25 130.285156 C 205.15625 130.847656 199.15625 130.34375 193.25 128.78125 C 192.527344 128.589844 192.027344 128.171875 191.75 127.527344 Z M 191.75 127.527344 "/>
<path style=" stroke:none;fill-rule:evenodd;fill:rgb(61.568627%,75.686275%,99.215686%);fill-opacity:1;" d="M 196.25 134.542969 C 201.40625 134.925781 206.574219 135.09375 211.75 135.042969 C 209.757812 135.378906 207.671875 135.542969 205.5 135.542969 C 202.296875 135.632812 199.214844 135.296875 196.25 134.542969 Z M 196.25 134.542969 "/>
<path style=" stroke:none;fill-rule:evenodd;fill:rgb(2.745098%,2.745098%,2.745098%);fill-opacity:1;" d="M 22.75 161.601562 C 28.75 161.601562 34.75 161.601562 40.75 161.601562 C 40.75 163.105469 40.75 164.609375 40.75 166.109375 C 38.582031 166.109375 36.417969 166.109375 34.25 166.109375 C 34.25 178.136719 34.25 190.164062 34.25 202.191406 C 36.417969 202.191406 38.582031 202.191406 40.75 202.191406 C 40.75 203.691406 40.75 205.195312 40.75 206.699219 C 34.75 206.699219 28.75 206.699219 22.75 206.699219 C 22.75 205.195312 22.75 203.691406 22.75 202.191406 C 24.75 202.191406 26.75 202.191406 28.75 202.191406 C 28.75 190.164062 28.75 178.136719 28.75 166.109375 C 26.75 166.109375 24.75 166.109375 22.75 166.109375 C 22.75 164.609375 22.75 163.105469 22.75 161.601562 Z M 22.75 161.601562 "/>
<path style=" stroke:none;fill-rule:evenodd;fill:rgb(1.176471%,1.176471%,1.176471%);fill-opacity:1;" d="M 50.75 161.601562 C 58.085938 161.519531 65.417969 161.601562 72.75 161.851562 C 79.675781 164.128906 82.425781 168.890625 81 176.132812 C 80.082031 179.722656 77.832031 181.980469 74.25 182.898438 C 82.976562 186.460938 85.226562 192.554688 81 201.1875 C 79.722656 203.300781 77.972656 204.886719 75.75 205.949219 C 67.445312 206.667969 59.113281 206.921875 50.75 206.699219 C 50.75 191.667969 50.75 176.632812 50.75 161.601562 Z M 50.75 161.601562 "/>
<path style=" stroke:none;fill-rule:evenodd;fill:rgb(49.019608%,49.019608%,49.019608%);fill-opacity:1;" d="M 93.25 161.601562 C 93.25 176.632812 93.25 191.667969 93.25 206.699219 C 94.917969 206.699219 96.582031 206.699219 98.25 206.699219 C 96.519531 207.191406 94.683594 207.359375 92.75 207.199219 C 92.585938 191.914062 92.75 176.714844 93.25 161.601562 Z M 93.25 161.601562 "/>
<path style=" stroke:none;fill-rule:evenodd;fill:rgb(0.784314%,0.784314%,0.784314%);fill-opacity:1;" d="M 93.25 161.601562 C 95.714844 161.449219 98.132812 161.617188 100.5 162.101562 C 104.496094 170.113281 108.746094 177.964844 113.25 185.652344 C 117.753906 177.964844 122.003906 170.113281 126 162.101562 C 128.367188 161.617188 130.785156 161.449219 133.25 161.601562 C 133.25 176.632812 133.25 191.667969 133.25 206.699219 C 131.582031 206.699219 129.917969 206.699219 128.25 206.699219 C 128.332031 194.003906 128.25 181.308594 128 168.617188 C 123.210938 177.714844 118.292969 186.734375 113.25 195.675781 C 108.441406 187.207031 103.777344 178.6875 99.25 170.121094 C 99.269531 169.492188 99.019531 168.988281 98.5 168.617188 C 98.25 181.308594 98.167969 194.003906 98.25 206.699219 C 96.582031 206.699219 94.917969 206.699219 93.25 206.699219 C 93.25 191.667969 93.25 176.632812 93.25 161.601562 Z M 93.25 161.601562 "/>
<path style=" stroke:none;fill-rule:evenodd;fill:rgb(42.352941%,42.352941%,42.352941%);fill-opacity:1;" d="M 133.25 161.601562 C 133.75 176.714844 133.914062 191.914062 133.75 207.199219 C 131.816406 207.359375 129.980469 207.191406 128.25 206.699219 C 129.917969 206.699219 131.582031 206.699219 133.25 206.699219 C 133.25 191.667969 133.25 176.632812 133.25 161.601562 Z M 133.25 161.601562 "/>
<path style=" stroke:none;fill-rule:evenodd;fill:rgb(1.176471%,1.176471%,1.176471%);fill-opacity:1;" d="M 154.25 162.101562 C 157.488281 161.605469 160.824219 161.4375 164.25 161.601562 C 166.289062 172.980469 168.453125 184.339844 170.75 195.675781 C 173.210938 184.4375 175.878906 173.246094 178.75 162.101562 C 182.402344 161.601562 186.070312 161.433594 189.75 161.601562 C 192.171875 172.992188 194.757812 184.351562 197.5 195.675781 C 199.664062 184.488281 201.832031 173.296875 204 162.101562 C 207.039062 161.613281 210.121094 161.445312 213.25 161.601562 C 209.851562 176.621094 206.519531 191.652344 203.25 206.699219 C 199.402344 206.863281 195.570312 206.699219 191.75 206.199219 C 189.316406 194.945312 186.652344 183.753906 183.75 172.625 C 180.925781 183.953125 178.257812 195.3125 175.75 206.699219 C 171.917969 206.699219 168.082031 206.699219 164.25 206.699219 C 161.164062 191.722656 157.828125 176.855469 154.25 162.101562 Z M 154.25 162.101562 "/>
<path style=" stroke:none;fill-rule:evenodd;fill:rgb(1.176471%,1.176471%,1.176471%);fill-opacity:1;" d="M 266.25 180.140625 C 265.753906 186.566406 265.585938 193.082031 265.75 199.683594 C 267.917969 199.683594 270.082031 199.683594 272.25 199.683594 C 272.25 202.023438 272.25 204.359375 272.25 206.699219 C 269.078125 206.78125 265.914062 206.699219 262.75 206.449219 C 259.011719 205.207031 256.929688 202.617188 256.5 198.683594 C 256.25 192.503906 256.167969 186.324219 256.25 180.140625 C 254.75 180.140625 253.25 180.140625 251.75 180.140625 C 251.75 177.636719 251.75 175.128906 251.75 172.625 C 253.09375 172.707031 254.425781 172.625 255.75 172.375 C 256.152344 172.21875 256.488281 171.96875 256.75 171.625 C 257.226562 168.980469 257.390625 166.308594 257.25 163.605469 C 260.082031 163.605469 262.917969 163.605469 265.75 163.605469 C 265.75 166.613281 265.75 169.617188 265.75 172.625 C 268.082031 172.625 270.417969 172.625 272.75 172.625 C 272.75 175.128906 272.75 177.636719 272.75 180.140625 C 270.582031 180.140625 268.417969 180.140625 266.25 180.140625 Z M 266.25 180.140625 "/>
<path style=" stroke:none;fill-rule:evenodd;fill:rgb(10.196078%,10.196078%,10.196078%);fill-opacity:1;" d="M 383.75 164.609375 C 388.667969 164.113281 391.085938 166.285156 391 171.121094 C 389.914062 174.796875 387.5 176.050781 383.75 174.878906 C 381.074219 173.191406 380.160156 170.769531 381 167.613281 C 381.679688 166.351562 382.597656 165.347656 383.75 164.609375 Z M 383.75 164.609375 "/>
<path style=" stroke:none;fill-rule:evenodd;fill:rgb(43.921569%,43.921569%,43.921569%);fill-opacity:1;" d="M 70.75 166.613281 C 65.917969 166.613281 61.082031 166.613281 56.25 166.613281 C 56.25 171.457031 56.25 176.300781 56.25 181.144531 C 55.753906 176.222656 55.585938 171.210938 55.75 166.109375 C 60.839844 165.945312 65.839844 166.113281 70.75 166.613281 Z M 70.75 166.613281 "/>
<path style=" stroke:none;fill-rule:evenodd;fill:rgb(98.823529%,98.823529%,98.823529%);fill-opacity:1;" d="M 70.75 166.613281 C 72.65625 166.941406 74.074219 167.941406 75 169.617188 C 75.453125 172.679688 75.289062 175.6875 74.5 178.636719 C 73.632812 179.699219 72.550781 180.449219 71.25 180.894531 C 66.253906 181.144531 61.253906 181.226562 56.25 181.144531 C 56.25 176.300781 56.25 171.457031 56.25 166.613281 C 61.082031 166.613281 65.917969 166.613281 70.75 166.613281 Z M 70.75 166.613281 "/>
<path style=" stroke:none;fill-rule:evenodd;fill:rgb(92.54902%,92.54902%,92.54902%);fill-opacity:1;" d="M 384.25 165.609375 C 389.773438 165.78125 391.273438 168.371094 388.75 173.375 C 383.367188 175.167969 381.285156 173.246094 382.5 167.613281 C 383.1875 167.011719 383.769531 166.34375 384.25 165.609375 Z M 384.25 165.609375 "/>
<path style=" stroke:none;fill-rule:evenodd;fill:rgb(7.843137%,7.843137%,7.843137%);fill-opacity:1;" d="M 383.75 167.113281 C 385.34375 166.871094 386.757812 167.207031 388 168.117188 C 388.414062 169.21875 388.164062 170.136719 387.25 170.871094 C 388.652344 172.21875 388.484375 172.71875 386.75 172.375 C 385.910156 170.636719 385.410156 170.722656 385.25 172.625 C 384.75 172.625 384.25 172.625 383.75 172.625 C 383.75 170.789062 383.75 168.949219 383.75 167.113281 Z M 383.75 167.113281 "/>
<path style=" stroke:none;fill-rule:evenodd;fill:rgb(98.823529%,98.823529%,98.823529%);fill-opacity:1;" d="M 385.25 168.617188 C 385.835938 168.507812 386.335938 168.671875 386.75 169.117188 C 385.972656 169.769531 385.472656 169.601562 385.25 168.617188 Z M 385.25 168.617188 "/>
<path style=" stroke:none;fill-rule:evenodd;fill:rgb(86.27451%,86.27451%,86.27451%);fill-opacity:1;" d="M 99.25 170.121094 C 98.917969 182.3125 98.582031 194.507812 98.25 206.699219 C 98.167969 194.003906 98.25 181.308594 98.5 168.617188 C 99.019531 168.988281 99.269531 169.492188 99.25 170.121094 Z M 99.25 170.121094 "/>
<path style=" stroke:none;fill-rule:evenodd;fill:rgb(1.568627%,1.568627%,1.568627%);fill-opacity:1;" d="M 245.25 199.183594 C 246.132812 199.664062 247.132812 199.832031 248.25 199.683594 C 248.25 202.023438 248.25 204.359375 248.25 206.699219 C 242.304688 208.410156 238.386719 206.40625 236.5 200.6875 C 235.285156 204.511719 232.699219 206.765625 228.75 207.449219 C 219.472656 208.175781 215.222656 203.917969 216 194.671875 C 217.589844 190.660156 220.503906 188.238281 224.75 187.40625 C 228.414062 187.15625 232.078125 187.074219 235.75 187.15625 C 236.253906 180.898438 233.417969 178.476562 227.25 179.890625 C 225.539062 180.6875 224.039062 181.769531 222.75 183.148438 C 220.328125 181.8125 218.578125 179.972656 217.5 177.636719 C 220.765625 173.535156 225.015625 171.699219 230.25 172.125 C 235.542969 171.582031 239.960938 173.25 243.5 177.136719 C 244.136719 178.246094 244.636719 179.414062 245 180.644531 C 245.25 186.820312 245.332031 193 245.25 199.183594 Z M 245.25 199.183594 "/>
<path style=" stroke:none;fill-rule:evenodd;fill:rgb(1.960784%,1.960784%,1.960784%);fill-opacity:1;" d="M 286.25 172.125 C 290.117188 171.945312 293.953125 172.195312 297.75 172.875 C 300.476562 173.769531 302.808594 175.273438 304.75 177.386719 C 302.992188 179.230469 301.160156 180.984375 299.25 182.648438 C 296.09375 179.824219 292.429688 178.902344 288.25 179.890625 C 286.25 181.5625 286.25 183.230469 288.25 184.902344 C 292.9375 185.308594 297.4375 186.476562 301.75 188.410156 C 305.070312 191.269531 306.152344 194.863281 305 199.183594 C 303.929688 202.929688 301.511719 205.351562 297.75 206.449219 C 289.6875 209.269531 282.6875 207.683594 276.75 201.6875 C 278.417969 199.683594 280.25 197.847656 282.25 196.175781 C 285.574219 199.597656 289.574219 200.847656 294.25 199.933594 C 296.386719 198.585938 296.71875 196.914062 295.25 194.921875 C 291.015625 194.207031 286.851562 193.203125 282.75 191.917969 C 277.597656 188.246094 276.347656 183.484375 279 177.636719 C 280.929688 175.113281 283.34375 173.277344 286.25 172.125 Z M 286.25 172.125 "/>
<path style=" stroke:none;fill-rule:evenodd;fill:rgb(1.568627%,1.568627%,1.568627%);fill-opacity:1;" d="M 321.25 172.125 C 336.21875 171.175781 342.96875 178.191406 341.5 193.171875 C 339.675781 204.007812 333.257812 208.769531 322.25 207.449219 C 315.5625 205.757812 311.644531 201.5 310.5 194.671875 C 308.21875 184.21875 311.800781 176.699219 321.25 172.125 Z M 321.25 172.125 "/>
<path style=" stroke:none;fill-rule:evenodd;fill:rgb(0.392157%,0.392157%,0.392157%);fill-opacity:1;" d="M 364.75 172.125 C 371.15625 170.863281 375.570312 173.203125 378 179.140625 C 378.730469 188.292969 378.980469 197.476562 378.75 206.699219 C 375.582031 206.699219 372.417969 206.699219 369.25 206.699219 C 369.332031 198.847656 369.25 190.996094 369 183.148438 C 368.332031 180.722656 366.746094 179.554688 364.25 179.640625 C 361.660156 179.726562 359.742188 180.894531 358.5 183.148438 C 358.25 190.996094 358.167969 198.847656 358.25 206.699219 C 355.082031 206.699219 351.917969 206.699219 348.75 206.699219 C 348.75 195.339844 348.75 183.984375 348.75 172.625 C 351.917969 172.625 355.082031 172.625 358.25 172.625 C 358.167969 174.636719 358.25 176.640625 358.5 178.636719 C 359.675781 175.539062 361.761719 173.367188 364.75 172.125 Z M 364.75 172.125 "/>
<path style=" stroke:none;fill-rule:evenodd;fill:rgb(97.254902%,97.254902%,97.254902%);fill-opacity:1;" d="M 323.25 179.640625 C 326.867188 178.925781 329.617188 180.09375 331.5 183.148438 C 331.832031 187.324219 331.832031 191.5 331.5 195.675781 C 329.902344 199.855469 326.988281 201.109375 322.75 199.433594 C 321.121094 198.261719 320.207031 196.671875 320 194.671875 C 319.667969 191.164062 319.667969 187.65625 320 184.148438 C 320.605469 182.257812 321.6875 180.753906 323.25 179.640625 Z M 323.25 179.640625 "/>
<path style=" stroke:none;fill-rule:evenodd;fill:rgb(58.039216%,58.039216%,58.039216%);fill-opacity:1;" d="M 266.25 180.140625 C 266.25 186.488281 266.25 192.835938 266.25 199.183594 C 268.351562 199.023438 270.351562 199.191406 272.25 199.683594 C 270.082031 199.683594 267.917969 199.683594 265.75 199.683594 C 265.585938 193.082031 265.753906 186.566406 266.25 180.140625 Z M 266.25 180.140625 "/>
<path style=" stroke:none;fill-rule:evenodd;fill:rgb(98.039216%,98.039216%,98.039216%);fill-opacity:1;" d="M 56.25 185.652344 C 61.417969 185.570312 66.585938 185.652344 71.75 185.902344 C 75.679688 187.097656 77.515625 189.769531 77.25 193.921875 C 77.539062 198.382812 75.539062 200.972656 71.25 201.6875 C 66.25 201.6875 61.25 201.6875 56.25 201.6875 C 56.25 196.34375 56.25 191 56.25 185.652344 Z M 56.25 185.652344 "/>
<path style=" stroke:none;fill-rule:evenodd;fill:rgb(96.862745%,96.862745%,96.862745%);fill-opacity:1;" d="M 227.75 192.667969 C 230.417969 192.667969 233.082031 192.667969 235.75 192.667969 C 236.695312 199.320312 233.863281 201.910156 227.25 200.4375 C 225.394531 199.175781 224.8125 197.421875 225.5 195.175781 C 226.011719 194.078125 226.761719 193.242188 227.75 192.667969 Z M 227.75 192.667969 "/>
<path style=" stroke:none;fill-rule:evenodd;fill:rgb(51.372549%,51.372549%,51.372549%);fill-opacity:1;" d="M 245.25 199.183594 C 246.417969 199.183594 247.582031 199.183594 248.75 199.183594 C 248.910156 201.785156 248.742188 204.292969 248.25 206.699219 C 248.25 204.359375 248.25 202.023438 248.25 199.683594 C 247.132812 199.832031 246.132812 199.664062 245.25 199.183594 Z M 245.25 199.183594 "/>
<path style=" stroke:none;fill-rule:evenodd;fill:rgb(58.039216%,58.039216%,58.039216%);fill-opacity:1;" d="M 56.25 185.652344 C 56.25 191 56.25 196.34375 56.25 201.6875 C 61.25 201.6875 66.25 201.6875 71.25 201.6875 C 66.171875 202.1875 61.007812 202.355469 55.75 202.191406 C 55.585938 196.585938 55.753906 191.074219 56.25 185.652344 Z M 56.25 185.652344 "/>
</g>
</svg>
