<svg width="18" height="20" viewBox="0 0 18 20" fill="none" xmlns="http://www.w3.org/2000/svg">
<path d="M7.16801 1.80975L7.81142 2.19513L7.81149 2.19502L7.16801 1.80975ZM7.16801 17.6908L7.81149 17.3055L7.81142 17.3054L7.16801 17.6908ZM10.833 17.6908L10.1896 17.3054L10.1895 17.3055L10.833 17.6908ZM10.833 1.80975L11.4764 1.42437L11.4763 1.42415L10.833 1.80975ZM1.23135 4.89115C0.835581 4.76891 0.415654 4.99065 0.293413 5.38641C0.171173 5.78218 0.392908 6.20211 0.788674 6.32435L1.23135 4.89115ZM17.2104 6.32433C17.6061 6.20207 17.8279 5.78213 17.7056 5.38637C17.5833 4.99061 17.1634 4.7689 16.7676 4.89117L17.2104 6.32433ZM16.7687 14.6083C17.1644 14.7306 17.5844 14.5089 17.7066 14.1131C17.8288 13.7173 17.6071 13.2974 17.2113 13.1752L16.7687 14.6083ZM0.789632 13.1752C0.393874 13.2974 0.172163 13.7174 0.294426 14.1131C0.41669 14.5089 0.836629 14.7306 1.23239 14.6083L0.789632 13.1752ZM6.5246 1.42437C3.49248 6.48664 3.49248 13.0139 6.5246 18.0761L7.81142 17.3054C5.06354 12.7176 5.06354 6.78286 7.81142 2.19513L6.5246 1.42437ZM6.52453 18.076C7.66169 19.9753 10.3393 19.9753 11.4765 18.076L10.1895 17.3055C9.63469 18.2322 8.36633 18.2322 7.81149 17.3055L6.52453 18.076ZM11.4764 18.0761C14.5085 13.0139 14.5085 6.48664 11.4764 1.42437L10.1896 2.19513C12.9375 6.78286 12.9375 12.7176 10.1896 17.3054L11.4764 18.0761ZM11.4763 1.42415C10.3382 -0.474428 7.66187 -0.475114 6.52453 1.42448L7.81149 2.19502C8.36615 1.26861 9.6338 1.26793 10.1897 2.19535L11.4763 1.42415ZM0.788674 6.32435C5.82486 7.87988 12.1752 7.87989 17.2104 6.32433L16.7676 4.89117C12.0209 6.35761 5.97916 6.35762 1.23135 4.89115L0.788674 6.32435ZM17.2113 13.1752C12.1752 11.6196 5.82487 11.6196 0.789632 13.1752L1.23239 14.6083C5.97915 13.1419 12.0209 13.1419 16.7687 14.6083L17.2113 13.1752Z" fill="#8F92A1"/>
</svg>
