<svg width="39" height="39" viewBox="0 0 39 39" fill="none" xmlns="http://www.w3.org/2000/svg">
<g clip-path="url(#clip0_182_32672)">
<path d="M15.1652 4.29785C7.7632 4.29785 1.70703 9.3483 1.70703 15.6578C1.70703 19.2677 3.63799 22.3872 6.7492 24.4851L5.91115 27.5094C5.71324 28.214 6.49679 28.7835 7.10637 28.3877L10.3673 26.2493C11.6498 26.7005 13.1384 26.9548 14.6426 27.0023C14.4684 26.2819 14.3735 25.5375 14.3735 24.7696C14.3735 18.7292 20.0576 13.8132 27.04 13.8132C27.5229 13.8132 27.9892 13.8368 28.4563 13.8843C27.4509 8.4298 21.8626 4.29785 15.1652 4.29785ZM27.04 15.3965C20.9047 15.3965 15.9568 19.5684 15.9568 24.7696C15.9568 29.9707 20.9047 34.1504 27.04 34.1504C28.5758 34.1504 30.0252 33.8975 31.2998 33.47L33.8402 34.9111C34.4498 35.2594 35.1775 34.6889 34.9875 34.0081L34.3705 31.7599C36.6743 30.0579 38.1232 27.5879 38.1232 24.7696C38.1232 19.5684 33.1753 15.3965 27.04 15.3965Z" fill="#a503fc"/>
</g>
<defs>
<clipPath id="clip0_182_32672">
<rect width="37.9995" height="37.9995" fill="white" transform="translate(0.914062 0.291504)"/>
</clipPath>
</defs>
</svg>
