<svg width="39" height="39" viewBox="0 0 39 39" fill="none" xmlns="http://www.w3.org/2000/svg">
<path d="M19.0684 6.01462H19.0683C11.8824 6.01462 6.03855 11.8557 6.03525 19.0371L6.03525 19.0372C6.03443 21.4975 6.72289 23.8938 8.02761 25.9689L8.02781 25.9693L8.20899 26.2569L7.00092 30.6658L6.772 31.5013L7.60995 31.2816L12.1498 30.0913L12.4278 30.2562C14.4283 31.4439 16.722 32.0712 19.0594 32.072H19.0596H19.0643C26.2456 32.072 32.0893 26.2299 32.0918 19.0478V19.0478C32.0926 15.5691 30.7389 12.2949 28.2793 9.83369C25.8199 7.37257 22.5481 6.01544 19.0684 6.01462Z" fill="white" stroke="black"/>
<path fill-rule="evenodd" clip-rule="evenodd" d="M15.2966 12.7379C15.0147 12.1107 14.7178 12.098 14.4487 12.0869C14.2288 12.0773 13.9779 12.0781 13.727 12.0781C13.4762 12.0781 13.0681 12.1726 12.7228 12.5497C12.3774 12.9268 11.4041 13.8374 11.4041 15.6903C11.4041 17.5432 12.7537 19.3342 12.9419 19.5851C13.13 19.836 15.5474 23.7601 19.3755 25.2701C22.5566 26.5244 23.2044 26.2752 23.8951 26.2125C24.5858 26.1497 26.1235 25.3019 26.4371 24.4222C26.7507 23.5426 26.7507 22.7892 26.657 22.632C26.5626 22.4748 26.3117 22.3812 25.9354 22.1922C25.5591 22.0033 23.707 21.0927 23.3616 20.9673C23.0163 20.8418 22.7654 20.7791 22.5138 21.1562C22.2629 21.5325 21.5412 22.3812 21.3213 22.632C21.1014 22.8837 20.8815 22.9155 20.5052 22.7265C20.1289 22.5376 18.9159 22.1406 17.4766 20.8577C16.3572 19.8598 15.6014 18.6269 15.3815 18.2498C15.1616 17.8735 15.3577 17.6695 15.5466 17.4813C15.7157 17.3122 15.9229 17.0415 16.1119 16.8216C16.3 16.6017 16.3627 16.4445 16.4882 16.1936C16.6136 15.942 16.5509 15.7221 16.4564 15.5339C16.3635 15.345 15.6316 13.4825 15.2966 12.7379Z" fill="black"/>
</svg>
