<svg width="22" height="24" viewBox="0 0 22 24" fill="none" xmlns="http://www.w3.org/2000/svg">
<path d="M21.0494 17.0447C20.5741 16.1318 19.8024 15.3882 18.8847 14.9553C18.6494 14.8424 18.4047 14.7576 18.1506 14.6682C18.0612 14.6353 17.9671 14.6024 17.8729 14.5694V10.9835C17.8729 8.78118 17.8729 6.57882 17.8729 4.37176C17.8729 3.63765 17.4918 3.07765 16.8471 2.87059C16.6776 2.81412 16.4847 2.78588 16.2682 2.78588C15.4635 2.78118 14.6447 2.78118 13.8541 2.78118C13.6094 2.78118 13.36 2.78118 13.1153 2.78118C12.7953 2.08941 12.2024 1.78353 11.3035 1.85412C11.2988 1.84 11.2941 1.83059 11.2941 1.81647C11.2847 1.78353 11.2753 1.75529 11.2659 1.72235C11.0024 0.941176 10.4847 0.404706 9.71765 0.131765C9.61882 0.0988235 9.52 0.0705882 9.42588 0.0423529C9.38353 0.0282353 9.33647 0.0188235 9.29412 0.00470588L9.28 0H8.58823L8.5647 0.00941177C8.46118 0.0517647 8.35294 0.0941176 8.24941 0.131765C8.00941 0.221176 7.76 0.315294 7.53882 0.451765C7.05882 0.752941 6.73882 1.20941 6.56471 1.85412C5.96235 1.80706 5.16706 1.88235 4.75765 2.78118H3.86353C3.12471 2.78118 2.39059 2.78118 1.65176 2.78118C0.61647 2.78118 0 3.40235 0 4.44235C0 10.4094 0 16.3718 0 22.3388C0 23.3788 0.61647 24 1.65176 24H2.43294C3.90118 24 5.38353 24 6.87529 24C10.1412 24 13.4447 24 16.7153 24C16.9459 24 17.1765 23.9859 17.3976 23.9624C18.4235 23.8447 19.3647 23.4024 20.1129 22.6824C20.8612 21.9671 21.3506 21.04 21.5247 20.0094C21.6941 19.0071 21.5294 17.9576 21.0494 17.0447ZM1.16235 22.3765C1.16235 16.3859 1.16235 10.4 1.16235 4.40941C1.16235 4.05647 1.27529 3.94353 1.61882 3.94353C2.06118 3.94353 2.50824 3.94353 2.95529 3.94353C3.25176 3.94353 3.54824 3.94353 3.84471 3.94353H4.64471C4.64471 3.95765 4.64471 3.97176 4.64471 3.98588C4.64471 4.09412 4.64 4.19765 4.64941 4.29647C4.66824 4.62588 4.88941 4.84706 5.21412 4.86588C5.31765 4.87059 5.42118 4.87059 5.52 4.87059C5.56235 4.87059 5.6 4.87059 5.64235 4.87059H12.4424C13.0588 4.87059 13.2329 4.69176 13.2376 4.07059C13.2376 4.03294 13.2376 3.99059 13.2376 3.94824C13.2612 3.94353 13.2847 3.94353 13.3035 3.94353C14.4094 3.94353 15.3412 3.94353 16.2729 3.94353C16.5976 3.94353 16.7153 4.06118 16.7153 4.37647C16.7153 7.36941 16.7153 10.3671 16.7153 13.36V14.4471C16.7153 14.4518 16.7153 14.4612 16.7153 14.4659C16.6541 14.4753 16.5976 14.48 16.5365 14.4847C16.3388 14.5082 16.1365 14.5318 15.9341 14.5694C14.8235 14.7812 13.8965 15.3318 13.1718 16.2071C13.0871 16.3059 13.0165 16.3435 12.8941 16.3435C10.8659 16.3388 8.80941 16.3388 6.81412 16.3388H5.44C5.42118 16.3388 5.39765 16.3388 5.37882 16.3388C5.32235 16.3388 5.26118 16.3388 5.2 16.3435C4.87529 16.3671 4.64 16.6212 4.64471 16.9318C4.64941 17.2282 4.88471 17.4682 5.19529 17.4918C5.25176 17.4965 5.30824 17.4965 5.36 17.4965C5.37882 17.4965 5.39765 17.4965 5.41647 17.4965H12.3624L12.0235 19.1247H10.5976C8.87059 19.1247 7.14353 19.1247 5.41647 19.1247C5.39765 19.1247 5.37882 19.1247 5.35529 19.1247C5.28471 19.1247 5.21412 19.1247 5.14353 19.1341C4.85176 19.1765 4.63529 19.4259 4.64 19.7176C4.64471 20 4.85176 20.2353 5.13412 20.2776C5.20941 20.2871 5.28 20.2871 5.35059 20.2871C5.36941 20.2871 5.38824 20.2871 5.40706 20.2871C7.36 20.2871 9.31294 20.2871 11.2659 20.2871H12.1788C12.4235 21.3129 12.9271 22.1506 13.7082 22.8376C9.67529 22.8376 5.64706 22.8376 1.61412 22.8376C1.27059 22.8376 1.16235 22.7247 1.16235 22.3765ZM14.2824 16.7012C14.96 16.0188 15.8682 15.6471 16.8329 15.6471C18.8094 15.6471 20.4188 17.2518 20.4282 19.2282C20.4329 20.1929 20.0565 21.0965 19.3788 21.7835C18.7012 22.4659 17.7976 22.8424 16.8424 22.8424H16.8376C14.8612 22.8424 13.2471 21.2424 13.2376 19.2706C13.2282 18.2965 13.6 17.3835 14.2824 16.7012ZM12.0706 3.68471C12.0706 3.68941 12.0706 3.69882 12.0706 3.70353H5.80235C5.80235 3.69412 5.80235 3.68 5.80235 3.67059C5.80235 3.56235 5.79765 3.46353 5.80706 3.36471C5.81647 3.16235 5.95294 3.03059 6.16 3.02118C6.32471 3.01647 6.49882 3.01647 6.66353 3.01647C6.78118 3.01647 6.89882 3.01647 7.01647 3.01647C7.41647 3.01176 7.63765 2.80471 7.66118 2.4C7.70823 1.68471 8.24 1.16235 8.92706 1.16235H8.93176C9.62353 1.16235 10.16 1.68471 10.2071 2.40941C10.2353 2.80471 10.4565 3.01647 10.8565 3.02118C10.9882 3.02118 11.1153 3.02118 11.2471 3.02118C11.3788 3.02118 11.5106 3.02118 11.6471 3.02118C11.9341 3.02588 12.0612 3.14824 12.0659 3.43529C12.0706 3.51529 12.0706 3.59529 12.0706 3.68471Z" fill="#8F92A1"/>
<path d="M5.16708 9.13885C5.20944 9.14355 5.25179 9.14355 5.29414 9.14355C5.31297 9.14355 5.3365 9.14355 5.35532 9.14355C5.37414 9.14355 5.39297 9.14355 5.41179 9.14355C6.64944 9.14355 7.88708 9.14355 9.12003 9.14355H10.64C11.873 9.14355 13.1059 9.14355 14.3388 9.14355C14.3577 9.14355 14.3718 9.14355 14.3906 9.14355C14.4565 9.14355 14.5224 9.14355 14.5883 9.13414C14.88 9.09179 15.0918 8.83767 15.0824 8.54591C15.073 8.26355 14.8659 8.02826 14.5836 7.99061C14.5177 7.9812 14.4471 7.9812 14.3859 7.9812C14.3671 7.9812 14.353 7.9812 14.3341 7.9812C11.3506 7.9812 8.36708 7.9812 5.38356 7.9812C5.36473 7.9812 5.35061 7.9812 5.33179 7.9812C5.27532 7.9812 5.21885 7.9812 5.16238 7.98591C4.86591 8.01885 4.64473 8.25414 4.64003 8.54591C4.63532 8.85179 4.8612 9.10591 5.16708 9.13885Z" fill="#8F92A1"/>
<path d="M5.17177 11.9247C5.20942 11.9294 5.25177 11.9294 5.28942 11.9294C5.30824 11.9294 5.32707 11.9294 5.34589 11.9294C5.36471 11.9294 5.37883 11.9294 5.39765 11.9294C8.38118 11.9294 11.3647 11.9294 14.3482 11.9294C14.3624 11.9294 14.3812 11.9294 14.3953 11.9294C14.4612 11.9294 14.5271 11.9294 14.5977 11.92C14.8894 11.873 15.1012 11.6236 15.0918 11.3318C15.0824 11.0494 14.8753 10.8189 14.5929 10.7765C14.5271 10.7671 14.4612 10.7671 14.3953 10.7671C14.3765 10.7671 14.3624 10.7671 14.3435 10.7671C13.1341 10.7671 11.9294 10.7671 10.72 10.7671H8.97883C7.79295 10.7671 6.60236 10.7671 5.41648 10.7671C5.39765 10.7671 5.37883 10.7671 5.36001 10.7671C5.29883 10.7671 5.23765 10.7671 5.17177 10.7718C4.8753 10.8047 4.65412 11.0447 4.64942 11.3365C4.6353 11.6377 4.86589 11.8918 5.17177 11.9247Z" fill="#8F92A1"/>
<path d="M5.2753 14.7153C5.30354 14.7153 5.33177 14.7153 5.36001 14.7153H6.39059C9.04471 14.7153 11.6941 14.7153 14.3482 14.7153C14.3624 14.7153 14.3812 14.7153 14.3953 14.7153C14.4141 14.7153 14.4282 14.7153 14.4471 14.7153C14.4941 14.7153 14.5459 14.7153 14.5977 14.7059C14.88 14.6636 15.0871 14.4283 15.0918 14.1459C15.0965 13.8542 14.88 13.6047 14.5929 13.5624C14.5271 13.553 14.4612 13.553 14.3953 13.553C14.3765 13.553 14.3624 13.553 14.3435 13.553C13.1247 13.553 11.9012 13.553 10.6824 13.553H6.55059C6.42354 13.553 6.30118 13.553 6.17412 13.553C5.87765 13.553 5.57177 13.553 5.2753 13.553C4.91295 13.5577 4.65412 13.7883 4.64942 14.1224C4.64001 14.4659 4.89883 14.7059 5.2753 14.7153Z" fill="#8F92A1"/>
<path d="M3.36001 9.14355C3.36471 9.14355 3.36471 9.14355 3.36001 9.14355C3.5153 9.14355 3.66589 9.08237 3.77412 8.96943C3.88236 8.85649 3.94354 8.7059 3.94354 8.55531C3.93883 8.24472 3.68001 7.99061 3.36942 7.9859H3.36471C3.20942 7.9859 3.06354 8.04708 2.9553 8.16002C2.84236 8.27296 2.78589 8.41884 2.78589 8.57414C2.7953 8.88472 3.04942 9.14355 3.36001 9.14355Z" fill="#8F92A1"/>
<path d="M3.34589 11.9294C3.35059 11.9294 3.3553 11.9294 3.36471 11.9294C3.51059 11.9294 3.65648 11.8682 3.76471 11.7647C3.87765 11.6565 3.94354 11.5059 3.94354 11.3506C3.94354 11.04 3.69412 10.7812 3.38354 10.7718C3.22824 10.7671 3.07765 10.8235 2.96471 10.9365C2.85177 11.0447 2.78589 11.1953 2.78589 11.3506C2.78589 11.6565 3.0353 11.92 3.34589 11.9294Z" fill="#8F92A1"/>
<path d="M3.36468 13.5576C3.20938 13.5576 3.0588 13.6235 2.95056 13.7317C2.83762 13.8447 2.78115 13.9906 2.78586 14.1459C2.79527 14.4564 3.05409 14.7106 3.36468 14.7106C3.51527 14.7106 3.66586 14.6447 3.7788 14.5364C3.88703 14.4235 3.94821 14.2729 3.9435 14.1176C3.9388 13.8117 3.67527 13.5576 3.36468 13.5576Z" fill="#8F92A1"/>
<path d="M3.35059 17.5012C3.3553 17.5012 3.36001 17.5012 3.36471 17.5012C3.5153 17.5012 3.66118 17.44 3.76942 17.3365C3.88236 17.2282 3.94354 17.0776 3.94354 16.9223C3.94354 16.6118 3.68942 16.3529 3.37883 16.3435C3.22354 16.3388 3.07765 16.4 2.96001 16.5082C2.84236 16.6165 2.78589 16.767 2.78589 16.9223C2.78589 17.2329 3.04001 17.4918 3.35059 17.5012Z" fill="#8F92A1"/>
<path d="M3.37415 19.1294H3.36944C3.06356 19.1294 2.80473 19.3788 2.79062 19.6847C2.78591 19.8353 2.84238 19.9906 2.95062 20.1035C3.05885 20.2165 3.20944 20.2823 3.36003 20.2823H3.36473C3.51532 20.2823 3.66591 20.2212 3.77415 20.1129C3.88238 20 3.94826 19.8494 3.94356 19.6988C3.93885 19.3882 3.68473 19.1294 3.37415 19.1294Z" fill="#8F92A1"/>
<path d="M15.7459 20.3765L15.8541 20.4848C16.033 20.6636 16.1977 20.753 16.3624 20.753C16.5271 20.753 16.6871 20.6636 16.8706 20.4848C17.36 20.0001 17.873 19.4824 18.5412 18.8142C18.5977 18.7577 18.6588 18.6918 18.7059 18.6212C18.8565 18.3859 18.8235 18.0989 18.6212 17.9059C18.4188 17.7083 18.1318 17.6848 17.9012 17.8401C17.8212 17.8918 17.7553 17.9577 17.6941 18.0236L17.68 18.0377C17.3271 18.3859 16.9788 18.7389 16.6118 19.1106L16.353 19.3695C16.32 19.3365 16.2871 19.2989 16.2588 19.2659C16.1318 19.1295 16.0141 19.0024 15.8871 18.8801C15.6141 18.6118 15.2706 18.5977 15.0259 18.8471C14.7859 19.0918 14.8047 19.4306 15.073 19.7083C15.2941 19.9248 15.5247 20.1554 15.7459 20.3765Z" fill="#8F92A1"/>
<path d="M8.96468 1.8588C8.80938 1.84939 8.6588 1.90586 8.54585 2.0141C8.43291 2.12233 8.36232 2.26821 8.35762 2.42351C8.34821 2.7341 8.59762 2.99763 8.90821 3.01645C8.91762 3.01645 8.92703 3.01645 8.93644 3.01645C9.07762 3.01645 9.2188 2.95998 9.32703 2.86115C9.43997 2.75292 9.51056 2.60704 9.51527 2.45174C9.52468 2.14115 9.27527 1.87292 8.96468 1.8588Z" fill="#8F92A1"/>
</svg>
