<svg width="41" height="40" viewBox="0 0 41 40" fill="none" xmlns="http://www.w3.org/2000/svg">
<g clip-path="url(#clip0_199_1864)">
<path d="M27.8952 5.10571C24.2378 5.10571 20.928 6.59515 18.5283 8.97825L20.2825 10.7325C22.2354 8.77966 24.9164 7.57156 27.8787 7.57156C30.841 7.57156 33.5385 8.77966 35.4748 10.7325L37.229 8.97825C34.8625 6.59515 31.5526 5.10571 27.8952 5.10571Z" fill="white"/>
<path d="M33.7535 12.4868C32.2475 10.9973 30.1789 10.0706 27.8951 10.0706C25.6113 10.0706 23.5426 10.9973 22.0366 12.4868L23.7908 14.241C24.8335 13.1984 26.2898 12.5364 27.8785 12.5364C29.4673 12.5364 30.9236 13.1818 31.9662 14.241L33.7535 12.4868Z" fill="white"/>
<path d="M25.5615 16.0117L27.895 18.3451L30.2284 16.0117C29.6326 15.3994 28.8052 15.0353 27.895 15.0353C26.9848 15.0353 26.1573 15.3994 25.5615 16.0117Z" fill="white"/>
<path d="M26.4719 23.9719L22.3015 28.1092C18.1641 25.7427 14.7384 22.317 12.3719 18.1797L16.5092 14.0092C16.8898 13.6121 17.0553 13.0659 16.956 12.5198L15.7148 6.42966C15.5659 5.66839 14.8874 5.10571 14.093 5.10571H7.22505C6.29829 5.10571 5.52048 5.88353 5.57012 6.81029C5.85146 11.593 7.3078 16.0779 9.5916 20.0001C12.2064 24.518 15.9631 28.2582 20.4645 30.873C24.3867 33.1402 28.8715 34.6131 33.6543 34.8944C34.581 34.9441 35.3589 34.1663 35.3589 33.2395V26.3716C35.3589 25.5772 34.7962 24.8987 34.0349 24.7497L27.9613 23.5416C27.4152 23.4258 26.8525 23.5913 26.4719 23.9719Z" fill="white"/>
</g>
<defs>
<clipPath id="clip0_199_1864">
<rect width="39.7183" height="39.7183" fill="white" transform="translate(0.605469 0.140869)"/>
</clipPath>
</defs>
</svg>
