<svg id="Слой_1" data-name="Слой 1" xmlns="http://www.w3.org/2000/svg" xmlns:xlink="http://www.w3.org/1999/xlink" viewBox="0 0 605.28 600"><defs><style>.cls-1{fill:#ffa555;}.cls-2{fill:#fc5;}.cls-3{fill:url(#linear-gradient);}.cls-4,.cls-5{fill:#fff;}.cls-5{stroke:#fff;stroke-miterlimit:10;}.cls-6{fill:#6600b9;}.cls-7{fill:#d7d7e6;}.cls-8{fill:url(#linear-gradient-2);}.cls-9{fill:url(#linear-gradient-3);}.cls-10{fill:#6e6e6e;}</style><linearGradient id="linear-gradient" x1="308.44" y1="383.8" x2="487.42" y2="383.8" gradientTransform="matrix(1, 0, 0, -1, 0, 600.72)" gradientUnits="userSpaceOnUse"><stop offset="0" stop-color="#ff9f55"/><stop offset="1" stop-color="#ffd255"/></linearGradient><linearGradient id="linear-gradient-2" x1="517.67" y1="429.93" x2="582" y2="429.93" xlink:href="#linear-gradient"/><linearGradient id="linear-gradient-3" x1="561.04" y1="413.76" x2="570.63" y2="413.76" xlink:href="#linear-gradient"/></defs><title>wit</title><path class="cls-1" d="M258.91,9.63c-14.38,0-26.8,9.79-32.63,23.95A42.15,42.15,0,0,0,173.7,74.41v.11c-23.89,1.73-42.76,23-42.76,48.94a51.41,51.41,0,0,0,6.77,25.66,42.13,42.13,0,0,0-8.77,66.52c-7.9,10.93-49.07,62.27-7.62,99.43L87,409.39s49.8-55.39,57.18-61.45c-1.22,3.41,5.14,45.92,50.32,38.37,6.77,22,26.15,37.9,49,37.9,28.48,0,51.57-24.67,51.57-55.1V51.77C295.07,28.5,278.88,9.63,258.91,9.63Z"/><polygon class="cls-2" points="472.53 302.43 471.04 300.94 503.63 268.34 599.97 268.34 599.97 270.45 504.51 270.45 472.53 302.43"/><path class="cls-3" d="M474.57,215.64a42.15,42.15,0,0,0-8.77-66.52,51.42,51.42,0,0,0,6.78-25.66c0-26-18.88-47.21-42.77-48.94v-.11a42.15,42.15,0,0,0-52.58-40.83C371.4,19.42,359,9.63,344.6,9.63c-20,0-36.16,18.87-36.16,42.14V369.11c0,30.43,23.09,55.1,51.57,55.1,22.85,0,42.23-15.89,49-37.9,24.79-.68,44.7-22.37,44.7-49a32.86,32.86,0,0,0-.16-4c16.62-8.2,30.23-31.48,33.26-60.08C489.24,250.1,484.22,229,474.57,215.64Z"/><path class="cls-4" d="M407.17,376.45l-2.49-.49,1.24.25-1.24-.25c0-.12,2.24-12.09-4.92-20.78-5.08-6.17-13.63-9.29-25.43-9.29-12.16,0-20.88-3.38-25.91-10-7.72-10.2-3.87-24.2-3.7-24.79l2.44.69c0,.13-3.67,13.4,3.29,22.59,4.53,6,12.57,9,23.88,9,12.6,0,21.82,3.44,27.41,10.23C409.66,363.21,407.27,375.92,407.17,376.45Z"/><path class="cls-4" d="M370.13,321.42c.15-.79,3.7-19.47,19.1-29.54,9.53-6.24,21.44-7.73,35.42-4.44,12.32,2.91,22.23,1.44,29.47-4.35,13.5-10.82,13.4-33.34,13.39-33.56h2.54c0,1,.13,24-14.33,35.56-7.88,6.32-18.53,8-31.65,4.85s-24.51-1.76-33.44,4.08c-14.48,9.46-18,27.7-18,27.88Z"/><path class="cls-4" d="M423.67,258.65c-8.92,0-19.39-1.7-27.67-8-9.31-7.07-14-18.61-14-34.3,0-16.45-4.7-29.22-14-38-14.82-13.94-36.45-12.79-36.67-12.78l-.15-2.53c.93,0,22.95-1.22,38.56,13.47,9.8,9.22,14.78,22.61,14.78,39.79,0,14.86,4.38,25.72,13,32.28,16.74,12.7,44.14,5.25,44.41,5.18l.68,2.44A77.11,77.11,0,0,1,423.67,258.65Z"/><path class="cls-4" d="M359.26,160l-2.53-.27a53.12,53.12,0,0,1,6-18.08c6.62-11.93,17.15-18.24,30.48-18.24,31.84,0,36.14-18.27,36.14-36.15h2.53c0,12.2-2.29,20.77-7.21,27-6.23,7.87-16.52,11.7-31.46,11.7-12.5,0-22,5.68-28.22,16.88A51.36,51.36,0,0,0,359.26,160Z"/><path class="cls-4" d="M383.76,194.83a32.12,32.12,0,0,1-5.09-.37l.44-2.5c.13,0,13,2.16,21.71-5.16,5.39-4.53,8.12-11.76,8.12-21.49,0-10,3-17.65,8.95-22.78,10.54-9.1,26.35-6.9,27-6.8l-.36,2.51c-.2,0-15.37-2.11-25,6.22-5.34,4.62-8,11.64-8,20.85,0,10.52-3,18.41-9,23.44S388.72,194.83,383.76,194.83Zm60.78-56.59h0l.18-1.26Z"/><path class="cls-4" d="M375.29,121.65c-2.58,0-19.58-.4-29.87-10.5-5.09-5-7.67-11.56-7.67-19.5,0-15.34,9.54-21.05,18.76-26.57s17.8-10.66,17.8-25h2.54c0,15.8-9.68,21.59-19,27.2-9,5.39-17.52,10.48-17.52,24.39,0,7.23,2.32,13.19,6.91,17.69,10.17,10,28.18,9.78,28.36,9.77v2.54Z"/><path class="cls-4" d="M325.11,277.8h-2.53c0-9.78,2.71-32.53,27.83-32.53,9.43,0,16.3-4,20.43-11.83a32.42,32.42,0,0,0,3.47-12.13l2.54.11a34.81,34.81,0,0,1-3.72,13.12c-3.16,6.05-9.67,13.26-22.72,13.26C328.4,247.8,325.11,266.6,325.11,277.8Z"/><path class="cls-4" d="M196.35,376.45c-.11-.53-2.5-13.24,5.43-22.87,5.58-6.79,14.8-10.23,27.4-10.23,11.32,0,19.35-3,23.88-9,7-9.19,3.33-22.46,3.3-22.59l2.44-.69c.16.59,4,14.59-3.7,24.79-5,6.66-13.76,10-25.92,10-11.8,0-20.37,3.13-25.45,9.3-7.16,8.72-4.92,20.65-4.9,20.77Z"/><path class="cls-4" d="M215.75,338.93l-2.54-.13c0-.19.8-18.74-11.12-31.28-7.34-7.73-18-11.64-31.6-11.64s-23.47-4-29.69-12c-11.42-14.61-6-36.95-5.78-37.9l2.46.61c-.06.22-5.33,22.11,5.32,35.74,5.72,7.31,15,11,27.69,11,14.36,0,25.61,4.19,33.46,12.45C216.62,319.13,215.79,338.12,215.75,338.93Z"/><path class="cls-4" d="M173.56,237.09A76.82,76.82,0,0,1,156,229.5l1.33-2.16c.25.15,24.5,14.95,44.1,7.42,10.13-3.89,17.36-13.09,21.51-27.36,4.79-16.49,13.31-28,25.3-34.08,19.09-9.75,39.91-2.48,40.79-2.17l-.86,2.39c-.2-.07-20.7-7.2-38.8,2.05-11.33,5.79-19.4,16.74-24,32.52-4.38,15.07-12.14,24.83-23,29C192.65,240.86,182.12,239.57,173.56,237.09Z"/><path class="cls-4" d="M248.29,168.46a51.43,51.43,0,0,0-5.71-17.18c-6.24-11.2-15.73-16.88-28.22-16.88-15,0-25.24-3.83-31.47-11.7-4.92-6.21-7.21-14.78-7.21-27h2.53c0,17.87,4.3,36.14,36.15,36.14,13.32,0,23.86,6.31,30.47,18.25a53.12,53.12,0,0,1,6,18.08Z"/><path class="cls-4" d="M209.23,207.81c-5,0-12.61-1-18.68-6.07s-9-12.92-9-23.45c0-9.21-2.71-16.23-8.07-20.85-9.66-8.35-24.83-6.24-25-6.22l-.37-2.5c.67-.1,16.48-2.31,27,6.8,5.94,5.13,9,12.79,9,22.77,0,9.74,2.73,17,8.13,21.51,8.72,7.32,21.57,5.17,21.7,5.14l.44,2.5A31.71,31.71,0,0,1,209.23,207.81Z"/><path class="cls-4" d="M228.22,121.65h-.31v-2.54c.18,0,18.22.2,28.37-9.78,4.58-4.5,6.91-10.45,6.91-17.68,0-13.91-8.52-19-17.53-24.39-9.36-5.61-19-11.4-19-27.2h2.54c0,14.36,8.65,19.54,17.81,25s18.75,11.23,18.75,26.57c0,7.94-2.58,14.5-7.67,19.5C247.8,121.25,230.81,121.65,228.22,121.65Z"/><path class="cls-4" d="M275.9,268h-2.54c0-11.2-3.29-30-25.3-30-13,0-19.55-7.21-22.72-13.26a34.39,34.39,0,0,1-3.71-13.12l2.53-.11h0a32.79,32.79,0,0,0,3.47,12.13c4.13,7.85,11,11.83,20.43,11.83C273.18,235.42,275.9,258.17,275.9,268Z"/><circle class="cls-5" cx="152.68" cy="151.38" r="6.94"/><circle class="cls-5" cx="220.57" cy="208.94" r="6.94"/><circle class="cls-5" cx="152.73" cy="226.85" r="6.94"/><circle class="cls-5" cx="216.09" cy="341.04" r="6.94"/><circle class="cls-5" cx="273.86" cy="269.61" r="6.94"/><circle class="cls-5" cx="255.5" cy="308.35" r="6.94"/><circle class="cls-5" cx="135.94" cy="244.99" r="6.94"/><circle class="cls-5" cx="196.61" cy="379.55" r="6.94"/><circle class="cls-5" cx="370.58" cy="323.35" r="6.94"/><circle class="cls-5" cx="346.4" cy="310.14" r="6.94"/><circle class="cls-5" cx="323.56" cy="279.24" r="6.94"/><circle class="cls-5" cx="379.09" cy="223.49" r="6.94"/><circle class="cls-5" cx="328.49" cy="163.49" r="6.94"/><circle class="cls-5" cx="446.04" cy="137.51" r="6.94"/><circle class="cls-5" cx="358.49" cy="163.26" r="6.94"/><circle class="cls-5" cx="429.92" cy="87.58" r="6.94"/><circle class="cls-5" cx="377.08" cy="122.96" r="6.94"/><circle class="cls-5" cx="375.28" cy="43.25" r="6.94"/><circle class="cls-5" cx="440.89" cy="255.29" r="6.94"/><circle class="cls-5" cx="468.43" cy="245.21" r="6.94"/><circle class="cls-5" cx="405.06" cy="379.1" r="6.94"/><circle class="cls-5" cx="227.68" cy="40.99" r="6.94"/><circle class="cls-5" cx="176.64" cy="92.49" r="6.94"/><circle class="cls-5" cx="226.12" cy="123.39" r="6.94"/><circle class="cls-5" cx="250.07" cy="172.42" r="6.94"/><circle class="cls-5" cx="284.33" cy="171.75" r="6.94"/><path class="cls-6" d="M583.51,244.52,517,244.8a10.11,10.11,0,0,1-10.14-10.05l-.58-138.9a10.09,10.09,0,0,1,10-10.14l66.56-.28a10.07,10.07,0,0,1,10.13,10l.59,138.9a10.11,10.11,0,0,1-10,10.19Z"/><path class="cls-4" d="M576.7,220.91l-53.13.23a9.44,9.44,0,0,1-9.47-9.4l-.44-105a9.43,9.43,0,0,1,9.39-9.47h0L576.18,97a9.44,9.44,0,0,1,9.47,9.4l.45,105a9.44,9.44,0,0,1-9.37,9.51Z"/><path class="cls-4" d="M558.77,90.71l-18.36.08a1.34,1.34,0,0,0-1.36,1.34v0h0a1.36,1.36,0,0,0,1.36,1.36h0l18.36-.08a1.36,1.36,0,0,0,1.36-1.36h0a1.34,1.34,0,0,0-1.35-1.35Z"/><path class="cls-4" d="M556.07,231.81a5.89,5.89,0,1,1-5.93-5.85h0A5.88,5.88,0,0,1,556.07,231.81Z"/><path class="cls-7" d="M518.27,109.65v21.22a3.73,3.73,0,0,0,3.91,3.55h56.55a3.73,3.73,0,0,0,3.91-3.55V109.62a3.69,3.69,0,0,0-3.46-3.52h-57A3.73,3.73,0,0,0,518.27,109.65Z"/><path class="cls-7" d="M539.27,132.73c-.08.2-9.58,9.58-9.58,9.26s0-.31,2.47-11.13Z"/><path class="cls-4" d="M538.78,120.34a8.6,8.6,0,0,1-4.82,7.73,8.49,8.49,0,0,1-3.8.89,8.72,8.72,0,0,1-2.44-.35,8.62,8.62,0,1,1,11.06-8.27Z"/><rect class="cls-4" x="541.2" y="112.47" width="31.86" height="1.01"/><rect class="cls-4" x="541.29" y="118.96" width="37.52" height="1.01"/><rect class="cls-4" x="541.1" y="124.72" width="37.52" height="1.01"/><path class="cls-8" d="M582,160.18v21.23a3.73,3.73,0,0,1-3.91,3.55H521.58a3.73,3.73,0,0,1-3.91-3.55V160.16a3.7,3.7,0,0,1,3.47-3.53h57A3.74,3.74,0,0,1,582,160.18Z"/><path class="cls-9" d="M561,183.27c.08.2,9.58,9.58,9.59,9.26s0-.32-2.48-11.14Z"/><path class="cls-4" d="M561.53,170.87a8.6,8.6,0,0,0,8.6,8.62h0a8.72,8.72,0,0,0,2.44-.35,8.62,8.62,0,1,0-11.06-8.27Z"/><rect class="cls-4" x="527.25" y="163" width="31.86" height="1.01"/><rect class="cls-4" x="521.5" y="169.5" width="37.52" height="1.01"/><rect class="cls-4" x="521.69" y="175.25" width="37.52" height="1.01"/><path class="cls-10" d="M418.14,575.86c-.75-.17-1.49-.4-2.25-.51-8.48-1.16-15.88-4.3-21-11.55a29.37,29.37,0,0,1-5.08-15.3c-.38-5.58,0-11,2.32-16.25a21.63,21.63,0,0,1,10.36-10.38,51.72,51.72,0,0,1,14.61-4.45c8.43-1.53,17-1.54,25.48-1.81,1.27,0,1.72-.4,1.61-1.65a46.69,46.69,0,0,0-.48-6.4c-.74-3.27-3.24-5-6.3-6-5.05-1.61-10.22-1.21-15.34-.6a67.86,67.86,0,0,0-18.76,4.83c-1.6.68-1.63.56-1.87-1.18-.84-6.18-1.72-12.36-2.6-18.53-.21-1.48-.41-3-.66-4.44-.15-.88.12-1.32,1-1.67a80.74,80.74,0,0,1,14.31-3.8,98.84,98.84,0,0,1,27.19-1.66c7.22.63,14.05,2.56,20,6.86a27.71,27.71,0,0,1,10.66,15.65c1.53,5.54,1.44,11.18,1.3,16.85-.34,13.06-.66,26.11-.76,39.17a62.4,62.4,0,0,0,1.87,16.2c.59,2.24,1.49,4.39,2.25,6.59H449.35l-.9-4.49c-.44-2.14-.82-2.31-2.55-1A26,26,0,0,1,435,575c-1.7.31-3.41.59-5.12.89Zm8.19-20.94.08.35c2.5-.55,5.13-.78,7.47-1.73,6.88-2.82,10.66-8.61,9.9-16.8-.09-.91-.38-1.21-1.3-1.16-4.27.24-8.56.34-12.83.64a26,26,0,0,0-10.59,2.55c-5.71,3-5.2,10.54-1.4,13.61C420.2,554.42,423.19,554.93,426.33,554.92Z"/><path class="cls-10" d="M131.56,575.86c-.84-3.13-1.66-6.26-2.52-9.37q-3-10.75-6-21.49l-6-21.6q-1.33-4.8-2.68-9.6a2.47,2.47,0,0,0-.85-1.28q-4.92,17.78-9.85,35.56l-.32,0c-.31-1.55-.65-3.09-.94-4.64q-1.56-8.28-3.09-16.55-1.6-8.56-3.22-17.14c-.83-4.41-1.54-8.85-2.53-13.23-.48-2.1.38-3.85.85-5.69,1.34-5.19,2.82-10.34,4.23-15.5.27-1,.64-1.57,1.91-1.56,8.74.08,17.48.06,26.21,0a1.81,1.81,0,0,1,2.11,1.55q4,14.61,8,29.19,3.24,11.7,6.51,23.4c.21.76.46,1.52.69,2.28l.32,0c.35-1.77.72-3.54,1.06-5.31q1.86-9.87,3.71-19.73,2-10.9,4.07-21.81c.52-2.77,1.07-5.55,1.58-8.33.15-.8.46-1.19,1.39-1.19,9,0,18,0,27.08,0,.32,0,.65.06,1.17.12-.26,1.28-.48,2.48-.74,3.68q-3.48,15.76-7,31.52c-2.15,9.77-4.27,19.56-6.42,29.33q-3,13.63-6,27.26c-.66,3-1.34,6-2,9a6.83,6.83,0,0,0-.07,1.11Z"/><path class="cls-10" d="M306.8,575.86a22,22,0,0,0-2.53-.46A52,52,0,0,1,287,571.31a32.73,32.73,0,0,1-18.31-19.68,52.65,52.65,0,0,1-2.83-17.77q0-15.35,0-30.7c0-1.23-.26-1.66-1.58-1.63-4.11.09-8.23,0-12.35.05-1,0-1.47-.21-1.47-1.36q.07-12.56,0-25.09c0-1.08.39-1.32,1.38-1.31,4.24.05,8.49,0,12.73,0,1,0,1.28-.32,1.27-1.29,0-6.16,0-12.32,0-18.47a1.48,1.48,0,0,1,1.11-1.64q14-5.32,27.92-10.69c.76-.3,1.51-.62,2.44-1,0,.66.09,1.17.09,1.69,0,9.94,0,19.88,0,29.83,0,1.28.37,1.6,1.62,1.59,6.82-.06,13.65,0,20.47-.06,1.18,0,1.46.38,1.45,1.5q-.06,12.36,0,24.71c0,1.32-.44,1.58-1.65,1.57-6.86,0-13.73,0-20.59,0-.83,0-1.31.12-1.3,1.14.09,8.77.05,17.55.21,26.33a22.64,22.64,0,0,0,2.53,9.94c2.36,4.62,6.51,6.84,11.25,8.15,1.76.49,3.57.75,5.36,1.12.64.14,1.27.3,2.06.49-.85,2.43-1.66,4.73-2.47,7l-7,20.11Z"/><path class="cls-10" d="M200.21,575.86q0-50.31,0-100.6c0-1,.21-1.45,1.36-1.45,9.78.05,19.56,0,29.33,0,.41,0,.81.05,1.35.09v1.46q0,49.61,0,99.22c0,.42,0,.83-.05,1.25Z"/><path class="cls-10" d="M490.29,575.86c0-.5-.11-1-.11-1.48q0-49.15,0-98.3c0-1.76,0-1.76,1.77-1.76h28.69c.54,0,1.08,0,1.62-.07V575.86Z"/><path class="cls-10" d="M65.4,575.86c-.34-1.79-.64-3.58-1-5.36q-3.29-14.91-6.61-29.8c-2.16-9.73-4.36-19.46-6.51-29.19-2-9-4-18-6-27-.7-3.16-1.46-6.31-2.22-9.45-.18-.74,0-1.13.79-1.19a8.42,8.42,0,0,1,.87,0H71.19c1.71,0,1.77.24,1.94,2,.26,2.52.72,5,1.18,7.5,1,5.56,2.07,11.11,3.12,16.66s2.09,10.94,3.13,16.4,2.06,11,3.11,16.54,2.08,10.94,3.12,16.41,2.06,11,3.11,16.54c.63,3.34,1.31,6.68,2,10Z"/><path class="cls-10" d="M522.25,451.79c-.31,1-.62,2-.91,3a15.71,15.71,0,0,1-30.23-8.53c1.65-6.41,5.86-10.29,12.35-11.77C510.28,432.9,518.23,437,521,444c.51,1.3.82,2.69,1.23,4Z"/><path class="cls-10" d="M352,575.86c-.85-.29-1.7-.6-2.56-.85-7.84-2.23-12.21-10.35-10.92-17.76A15.78,15.78,0,0,1,358.86,545c6,2,9.68,6.26,10.69,12.46,1,6.38-1.25,11.67-6.53,15.41-1.64,1.17-3.75,1.69-5.65,2.5-.45.19-.92.32-1.39.48Z"/><path class="cls-10" d="M216.31,465.7a15.78,15.78,0,0,1,0-31.55,15.6,15.6,0,0,1,15.78,15.78A15.78,15.78,0,0,1,216.31,465.7Z"/></svg>