<?xml version="1.0" encoding="utf-8"?>
<!-- Generator: Adobe Illustrator 26.0.0, SVG Export Plug-In . SVG Version: 6.00 Build 0)  -->
<svg version="1.1" id="Capa_1" xmlns="http://www.w3.org/2000/svg" xmlns:xlink="http://www.w3.org/1999/xlink" x="0px" y="0px"
	 viewBox="0 0 2000 2000" style="enable-background:new 0 0 2000 2000;" xml:space="preserve">
<style type="text/css">
	.st0{fill:#4326C3;}
	.st1{fill:#FEFEFE;}
</style>
<rect class="st0" width="2000" height="2000"/>
<g>
	<path class="st1" d="M1163.6,967.1c-27.3,67.6-52.8,131.2-78.8,194.7c-13.8,33.8-27.3,67.8-42.7,101
		c-17.3,37.3-47.7,56.1-88.9,56.7c-42,0.6-73.6-17.7-91.8-55.3c-32.3-67.1-57.2-137.3-85.5-206.1c-33.5-81.3-65.9-163-99.5-244.3
		c-6.3-15.2-4.5-19.5,12.7-19c36,1.1,72,1,108,0c13.3-0.4,18.8,4.2,23.5,16.2c41,105.2,82.7,210.1,124.3,315
		c1.6,4.2,3.5,8.2,5.4,12.8c7.9-4.2,8.1-12.5,10.6-18.8c33.7-82.6,66.9-165.3,100.3-248c3.8-9.5,8.1-18.8,12.8-27.9
		c18.5-35.5,47.5-55.3,87.9-55.6c40.9-0.4,71.3,18.1,90.6,54.4c16.6,31.2,27.8,64.7,41.2,97.3c28,68.3,55.6,136.7,83.3,205.1
		c2.1,5.1,4.4,10.2,7.7,18c23.2-33.2,38.9-67.3,50.3-103.3c77.6-244.8-69.1-501.9-320.2-552.5c-165.7-33.4-313.6,13.7-435,129.8
		c-235.4,225.3-207.2,597.6,59.2,784.7c139.6,98,293.7,115.8,455.4,62c16.8-5.6,21.6-2.4,26.9,12.7c10.4,29.7,22.1,58.9,34.5,87.7
		c5,11.6,3.5,16.5-8.8,20.7c-207.4,70.4-404.5,49.4-583.7-77.1C473,1393.7,382.1,1204.8,391.3,971.7
		c12.4-312.6,264.1-574,575.1-602.1c273.8-24.7,513,130.6,594.5,392.4c56.1,180.4,24.4,349.4-87,502.3
		c-30,41.2-70.2,63.6-123.6,52.1c-27.7-6-47-23-60.7-46.6c-22.3-38.5-35.4-81-52.5-121.7C1212.6,1089.5,1189.3,1030.4,1163.6,967.1z
		"/>
</g>
</svg>
