<svg viewBox="0 0 101 100" fill="none" xmlns="http://www.w3.org/2000/svg">
<path d="M43.7534 0C19.6285 0 0.0034581 15.9812 0.0034581 35.625C0.0034581 45.575 5.00346 54.9062 13.8285 61.6187C10.9097 66.175 7.13471 70.7875 2.37221 71.9625C0.865958 72.3375 -0.140292 73.7625 0.0159581 75.3062C0.172208 76.8562 1.44096 78.05 2.99721 78.1187C3.06596 78.1187 3.33471 78.1312 3.78471 78.1312C7.01596 78.1312 19.491 77.6125 33.6472 70.2687C36.8909 70.925 40.2847 71.25 43.7534 71.25C67.8722 71.25 87.5034 55.2687 87.5034 35.625C87.5034 15.9812 67.8722 0 43.7534 0Z" />
<path d="M97.6284 93.6062C93.6472 92.625 90.6347 89.7125 88.5284 86.825C95.8597 81.0812 100.003 73.1812 100.003 64.7625C100.003 57.7125 97.0409 51.2312 92.1222 46.05C86.5659 64.1062 67.0222 77.5 43.7534 77.5C40.6472 77.5 37.5784 77.2625 34.5972 76.7937C32.8222 77.65 31.0847 78.4062 29.3784 79.0812C35.6847 88.7687 48.1597 95.3875 62.5034 95.3875C65.4347 95.3875 68.2784 95.1187 70.9784 94.5937C79.9472 99.1625 88.1284 100.006 92.9409 100C95.5784 100 97.2034 99.75 97.3847 99.7187C98.8472 99.4812 99.9409 98.2437 100.003 96.7625C100.06 95.2812 99.0722 93.9562 97.6284 93.6062Z" />
</svg>
