<svg width="227" height="269" viewBox="0 0 227 269" fill="none" xmlns="http://www.w3.org/2000/svg">
<g filter="url(#filter0_d)">
<path fill-rule="evenodd" clip-rule="evenodd" d="M7 132.5C7 98.6672 10.4618 61.7743 13.3773 36.7019C15.4461 18.9114 29.8624 5.3611 47.728 4.0946C68.5667 2.61734 95.9661 1 116.044 1C136.228 1 164.082 2.63441 185.208 4.11791C203.103 5.37461 217.55 18.9464 219.616 36.7666C222.533 61.932 226 98.9641 226 132.813C226 166.575 222.55 203.295 219.638 228.28C217.563 246.079 203.126 259.624 185.251 260.883C164.205 262.367 136.529 264 116.722 264C96.8672 264 68.9747 262.359 47.7893 260.873C29.8955 259.618 15.4415 246.057 13.3705 228.239C10.4563 203.168 7 166.306 7 132.5Z" fill="#F0F2F5"/>
<path fill-rule="evenodd" clip-rule="evenodd" d="M7 132.5C7 98.6672 10.4618 61.7743 13.3773 36.7019C15.4461 18.9114 29.8624 5.3611 47.728 4.0946C68.5667 2.61734 95.9661 1 116.044 1C136.228 1 164.082 2.63441 185.208 4.11791C203.103 5.37461 217.55 18.9464 219.616 36.7666C222.533 61.932 226 98.9641 226 132.813C226 166.575 222.55 203.295 219.638 228.28C217.563 246.079 203.126 259.624 185.251 260.883C164.205 262.367 136.529 264 116.722 264C96.8672 264 68.9747 262.359 47.7893 260.873C29.8955 259.618 15.4415 246.057 13.3705 228.239C10.4563 203.168 7 166.306 7 132.5Z" stroke="#A3B1BF" stroke-width="1.62"/>
</g>
<g filter="url(#filter1_d)">
<path fill-rule="evenodd" clip-rule="evenodd" d="M46.6543 131.992C46.6543 108.015 48.2002 84.0387 49.4838 68.2625C50.3648 57.4347 58.5692 48.7605 69.3595 47.501C81.7499 46.0547 98.9741 44.5167 116.194 44.5167C133.401 44.5167 150.609 46.0524 162.993 47.4977C173.794 48.7582 182.002 57.449 182.878 68.2875C184.164 84.1905 185.719 108.394 185.719 132.428C185.719 156.38 184.175 180.33 182.891 196.096C182.01 206.928 173.799 215.604 163.005 216.862C150.589 218.309 133.33 219.85 116.112 219.85C98.928 219.85 81.7437 218.315 69.3728 216.87C58.5758 215.609 50.371 206.922 49.4939 196.087C48.2083 180.204 46.6543 156.033 46.6543 131.992Z" fill="#A3B1BF" fill-opacity="0.15"/>
<path fill-rule="evenodd" clip-rule="evenodd" d="M46.6543 131.992C46.6543 108.015 48.2002 84.0387 49.4838 68.2625C50.3648 57.4347 58.5692 48.7605 69.3595 47.501C81.7499 46.0547 98.9741 44.5167 116.194 44.5167C133.401 44.5167 150.609 46.0524 162.993 47.4977C173.794 48.7582 182.002 57.449 182.878 68.2875C184.164 84.1905 185.719 108.394 185.719 132.428C185.719 156.38 184.175 180.33 182.891 196.096C182.01 206.928 173.799 215.604 163.005 216.862C150.589 218.309 133.33 219.85 116.112 219.85C98.928 219.85 81.7437 218.315 69.3728 216.87C58.5758 215.609 50.371 206.922 49.4939 196.087C48.2083 180.204 46.6543 156.033 46.6543 131.992Z" stroke="#A3B1BF" stroke-width="1.62"/>
</g>
<g filter="url(#filter2_d)">
<path fill-rule="evenodd" clip-rule="evenodd" d="M161.943 97.4259C161.943 93.7987 164.884 90.8583 168.511 90.8583H183.843V108.392H168.511C164.884 108.392 161.943 105.451 161.943 101.824V97.4259Z" fill="#F0F2F5"/>
<path d="M162.753 97.4259C162.753 94.2461 165.331 91.6683 168.511 91.6683H183.033V107.582H168.511C165.331 107.582 162.753 105.004 162.753 101.824V97.4259Z" stroke="#A3B1BF" stroke-width="1.62"/>
</g>
<g filter="url(#filter3_d)">
<path d="M206.289 97.4259C206.289 93.7987 203.349 90.8583 199.721 90.8583H184.389V108.392H199.722C203.349 108.392 206.289 105.451 206.289 101.824V97.4259Z" fill="#F0F2F5"/>
<path d="M205.479 97.4259C205.479 94.2461 202.901 91.6683 199.721 91.6683H185.199V107.582H199.722C202.901 107.582 205.479 105.004 205.479 101.824V97.4259Z" stroke="#A3B1BF" stroke-width="1.62"/>
</g>
<path fill-rule="evenodd" clip-rule="evenodd" d="M181.152 99.0162L180.553 101.282C178.288 101.573 176.537 103.496 176.537 105.823V107.764H186.52V107.345C186.524 107.336 186.524 107.327 186.52 107.317V107.345C186.435 107.536 184.517 107.468 182.503 107.396H182.503C181.411 107.357 180.29 107.317 179.419 107.317L179.557 106.832C180.722 106.844 181.775 106.899 182.762 106.95H182.762C184.774 107.055 186.507 107.145 188.334 106.829L188.404 107.764H189.313C190.424 107.764 191.324 108.665 191.324 109.776V116.54C191.324 120.984 187.722 124.586 183.279 124.586H179.903C175.459 124.586 171.857 120.984 171.857 116.54V109.776C171.857 108.665 172.758 107.764 173.869 107.764H174.291V105.823C174.291 102.064 177.365 99.0162 181.152 99.0162ZM179.557 106.832C179.403 106.83 179.246 106.829 179.087 106.829L180.553 101.282C180.749 101.257 180.949 101.244 181.152 101.244L179.557 106.832Z" fill="#D4DBE2"/>
<g filter="url(#filter4_d)">
<path fill-rule="evenodd" clip-rule="evenodd" d="M169.61 101.404C170.819 101.404 171.8 100.423 171.8 99.2122C171.8 98.0018 170.819 97.0205 169.61 97.0205C168.4 97.0205 167.42 98.0018 167.42 99.2122C167.42 100.423 168.4 101.404 169.61 101.404Z" fill="#F5F5F5" stroke="#D9D9D9" stroke-width="1.09459"/>
<path fill-rule="evenodd" clip-rule="evenodd" d="M171.201 100.863L168.591 96.9698L167.643 98.5616L167.521 100.863H171.201Z" fill="#D9D9D9"/>
</g>
<g filter="url(#filter5_d)">
<path fill-rule="evenodd" clip-rule="evenodd" d="M198.45 101.404C199.659 101.404 200.64 100.423 200.64 99.2122C200.64 98.0018 199.659 97.0205 198.45 97.0205C197.24 97.0205 196.26 98.0018 196.26 99.2122C196.26 100.423 197.24 101.404 198.45 101.404Z" fill="#F5F5F5" stroke="#D9D9D9" stroke-width="1.09459"/>
<path fill-rule="evenodd" clip-rule="evenodd" d="M200.041 100.863L197.431 96.9698L196.483 98.5616L196.361 100.863H200.041Z" fill="#D9D9D9"/>
</g>
<path fill-rule="evenodd" clip-rule="evenodd" d="M176.117 105.549C176.117 102.138 178.333 99.2492 181.389 98.2749V101.851C180.262 102.639 179.524 103.955 179.524 105.446V107.147H188.167V105.446C188.167 104.241 187.685 103.151 186.905 102.36V98.6627C189.447 99.889 191.204 102.512 191.204 105.549V107.148C192.284 107.182 193.15 108.069 193.15 109.158V116.13C193.15 120.574 189.548 124.176 185.105 124.176H181.729C177.286 124.176 173.684 120.574 173.684 116.13V109.158C173.684 108.047 174.584 107.147 175.695 107.147H176.117V105.549Z" fill="#F0F2F5"/>
<path d="M181.389 98.2749H182.199V97.1665L181.143 97.5032L181.389 98.2749ZM181.389 101.851L181.853 102.514L182.199 102.273V101.851H181.389ZM179.524 107.147H178.714V107.957H179.524V107.147ZM188.167 107.147V107.957H188.977V107.147H188.167ZM186.905 102.36H186.095V102.693L186.328 102.929L186.905 102.36ZM186.905 98.6627L187.257 97.9331L186.095 97.3726V98.6627H186.905ZM191.204 107.148H190.394V107.933L191.178 107.957L191.204 107.148ZM176.117 107.147V107.957H176.927V107.147H176.117ZM181.143 97.5032C177.756 98.583 175.307 101.78 175.307 105.549H176.927C176.927 102.495 178.91 99.9154 181.635 99.0466L181.143 97.5032ZM182.199 101.851V98.2749H180.579V101.851H182.199ZM180.334 105.446C180.334 104.229 180.936 103.156 181.853 102.514L180.925 101.187C179.588 102.122 178.714 103.682 178.714 105.446H180.334ZM180.334 107.147V105.446H178.714V107.147H180.334ZM179.524 107.957H188.167V106.337H179.524V107.957ZM187.357 105.446V107.147H188.977V105.446H187.357ZM186.328 102.929C186.964 103.573 187.357 104.462 187.357 105.446H188.977C188.977 104.021 188.405 102.728 187.481 101.792L186.328 102.929ZM186.095 98.6627V102.36H187.715V98.6627H186.095ZM192.014 105.549C192.014 102.193 190.072 99.291 187.257 97.9331L186.553 99.3922C188.822 100.487 190.394 102.831 190.394 105.549H192.014ZM192.014 107.148V105.549H190.394V107.148H192.014ZM191.178 107.957C191.823 107.978 192.34 108.508 192.34 109.158H193.96C193.96 107.63 192.746 106.386 191.229 106.338L191.178 107.957ZM192.34 109.158V116.13H193.96V109.158H192.34ZM192.34 116.13C192.34 120.126 189.101 123.366 185.105 123.366V124.986C189.996 124.986 193.96 121.021 193.96 116.13H192.34ZM185.105 123.366H181.729V124.986H185.105V123.366ZM181.729 123.366C177.733 123.366 174.494 120.126 174.494 116.13H172.874C172.874 121.021 176.838 124.986 181.729 124.986V123.366ZM174.494 116.13V109.158H172.874V116.13H174.494ZM174.494 109.158C174.494 108.495 175.031 107.957 175.695 107.957V106.337C174.137 106.337 172.874 107.6 172.874 109.158H174.494ZM175.695 107.957H176.117V106.337H175.695V107.957ZM175.307 105.549V107.147H176.927V105.549H175.307Z" fill="#A3B1BF"/>
<g filter="url(#filter6_i)">
<path fill-rule="evenodd" clip-rule="evenodd" d="M184.505 115.047C184.969 114.731 185.274 114.198 185.274 113.593C185.274 112.624 184.492 111.839 183.527 111.839C182.562 111.839 181.78 112.624 181.78 113.593C181.78 114.198 182.085 114.731 182.549 115.047L181.573 117.783C181.431 118.183 181.727 118.604 182.152 118.604H184.901C185.326 118.604 185.623 118.183 185.48 117.783L184.505 115.047Z" fill="#A3B1BF" fill-opacity="0.3"/>
</g>
<g filter="url(#filter7_d)">
<path fill-rule="evenodd" clip-rule="evenodd" d="M73.19 80.9312C74.3995 80.9312 75.38 79.95 75.38 78.7396C75.38 77.5292 74.3995 76.5479 73.19 76.5479C71.9805 76.5479 71 77.5292 71 78.7396C71 79.95 71.9805 80.9312 73.19 80.9312Z" fill="#F5F5F5" stroke="#A3B1BF" stroke-width="1.09459"/>
<path fill-rule="evenodd" clip-rule="evenodd" d="M74.781 80.3901L72.1716 76.4972L71.2231 78.089L71.1011 80.3901H74.781Z" fill="#A3B1BF"/>
</g>
<g filter="url(#filter8_d)">
<path fill-rule="evenodd" clip-rule="evenodd" d="M161.19 80.9312C162.4 80.9312 163.38 79.95 163.38 78.7396C163.38 77.5292 162.4 76.5479 161.19 76.5479C159.98 76.5479 159 77.5292 159 78.7396C159 79.95 159.98 80.9312 161.19 80.9312Z" fill="#F5F5F5" stroke="#A3B1BF" stroke-width="1.09459"/>
<path fill-rule="evenodd" clip-rule="evenodd" d="M162.781 80.3901L160.172 76.4972L159.223 78.089L159.101 80.3901H162.781Z" fill="#A3B1BF"/>
</g>
<g filter="url(#filter9_d)">
<path fill-rule="evenodd" clip-rule="evenodd" d="M66.19 125.931C67.3995 125.931 68.38 124.95 68.38 123.74C68.38 122.529 67.3995 121.548 66.19 121.548C64.9805 121.548 64 122.529 64 123.74C64 124.95 64.9805 125.931 66.19 125.931Z" fill="#F5F5F5" stroke="#A3B1BF" stroke-width="1.09459"/>
<path fill-rule="evenodd" clip-rule="evenodd" d="M67.781 125.39L65.1716 121.497L64.2231 123.089L64.1011 125.39H67.781Z" fill="#A3B1BF"/>
</g>
<g filter="url(#filter10_d)">
<path fill-rule="evenodd" clip-rule="evenodd" d="M66.19 142.931C67.3995 142.931 68.38 141.95 68.38 140.74C68.38 139.529 67.3995 138.548 66.19 138.548C64.9805 138.548 64 139.529 64 140.74C64 141.95 64.9805 142.931 66.19 142.931Z" fill="#F5F5F5" stroke="#A3B1BF" stroke-width="1.09459"/>
<path fill-rule="evenodd" clip-rule="evenodd" d="M67.781 142.39L65.1716 138.497L64.2231 140.089L64.1011 142.39H67.781Z" fill="#A3B1BF"/>
</g>
<g filter="url(#filter11_d)">
<path fill-rule="evenodd" clip-rule="evenodd" d="M73.19 191.931C74.3995 191.931 75.38 190.95 75.38 189.74C75.38 188.529 74.3995 187.548 73.19 187.548C71.9805 187.548 71 188.529 71 189.74C71 190.95 71.9805 191.931 73.19 191.931Z" fill="#F5F5F5" stroke="#A3B1BF" stroke-width="1.09459"/>
<path fill-rule="evenodd" clip-rule="evenodd" d="M74.781 191.39L72.1716 187.497L71.2231 189.089L71.1011 191.39H74.781Z" fill="#A3B1BF"/>
</g>
<g filter="url(#filter12_d)">
<path fill-rule="evenodd" clip-rule="evenodd" d="M102.19 196.931C103.4 196.931 104.38 195.95 104.38 194.74C104.38 193.529 103.4 192.548 102.19 192.548C100.98 192.548 100 193.529 100 194.74C100 195.95 100.98 196.931 102.19 196.931Z" fill="#F5F5F5" stroke="#A3B1BF" stroke-width="1.09459"/>
<path fill-rule="evenodd" clip-rule="evenodd" d="M103.781 196.39L101.172 192.497L100.223 194.089L100.101 196.39H103.781Z" fill="#A3B1BF"/>
</g>
<g filter="url(#filter13_d)">
<path fill-rule="evenodd" clip-rule="evenodd" d="M131.19 196.931C132.4 196.931 133.38 195.95 133.38 194.74C133.38 193.529 132.4 192.548 131.19 192.548C129.98 192.548 129 193.529 129 194.74C129 195.95 129.98 196.931 131.19 196.931Z" fill="#F5F5F5" stroke="#A3B1BF" stroke-width="1.09459"/>
<path fill-rule="evenodd" clip-rule="evenodd" d="M132.781 196.39L130.172 192.497L129.223 194.089L129.101 196.39H132.781Z" fill="#A3B1BF"/>
</g>
<g filter="url(#filter14_d)">
<path fill-rule="evenodd" clip-rule="evenodd" d="M161.19 191.931C162.4 191.931 163.38 190.95 163.38 189.74C163.38 188.529 162.4 187.548 161.19 187.548C159.98 187.548 159 188.529 159 189.74C159 190.95 159.98 191.931 161.19 191.931Z" fill="#F5F5F5" stroke="#A3B1BF" stroke-width="1.09459"/>
<path fill-rule="evenodd" clip-rule="evenodd" d="M162.781 191.39L160.172 187.497L159.223 189.089L159.101 191.39H162.781Z" fill="#A3B1BF"/>
</g>
<g filter="url(#filter15_d)">
<path fill-rule="evenodd" clip-rule="evenodd" d="M169.61 101.404C170.819 101.404 171.8 100.423 171.8 99.2122C171.8 98.0018 170.819 97.0205 169.61 97.0205C168.4 97.0205 167.42 98.0018 167.42 99.2122C167.42 100.423 168.4 101.404 169.61 101.404Z" fill="#F5F5F5" stroke="#A3B1BF" stroke-width="1.09459"/>
<path fill-rule="evenodd" clip-rule="evenodd" d="M171.201 100.863L168.591 96.9698L167.643 98.5616L167.521 100.863H171.201Z" fill="#A3B1BF"/>
</g>
<g filter="url(#filter16_d)">
<path fill-rule="evenodd" clip-rule="evenodd" d="M198.45 101.404C199.659 101.404 200.64 100.423 200.64 99.2122C200.64 98.0018 199.659 97.0205 198.45 97.0205C197.24 97.0205 196.26 98.0018 196.26 99.2122C196.26 100.423 197.24 101.404 198.45 101.404Z" fill="#F7FAFC" stroke="#A3B1BF" stroke-width="1.09459"/>
<path fill-rule="evenodd" clip-rule="evenodd" d="M200.041 100.863L197.431 96.9698L196.483 98.5616L196.361 100.863H200.041Z" fill="#A3B1BF"/>
</g>
<g filter="url(#filter17_d)">
<path fill-rule="evenodd" clip-rule="evenodd" d="M36.38 48.3145C38.799 48.3145 40.76 46.352 40.76 43.9312C40.76 41.5103 38.799 39.5479 36.38 39.5479C33.961 39.5479 32 41.5103 32 43.9312C32 46.352 33.961 48.3145 36.38 48.3145Z" fill="#F7FAFC" stroke="#A3B1BF" stroke-width="1.64189"/>
<path fill-rule="evenodd" clip-rule="evenodd" d="M36.0032 48.1331L39.5611 47.2322L34.3421 39.4464L32.4453 42.63L32.788 46.8059L36.0032 48.1331Z" fill="#A3B1BF"/>
</g>
<g filter="url(#filter18_d)">
<path fill-rule="evenodd" clip-rule="evenodd" d="M36.38 228.315C38.799 228.315 40.76 226.352 40.76 223.931C40.76 221.51 38.799 219.548 36.38 219.548C33.961 219.548 32 221.51 32 223.931C32 226.352 33.961 228.315 36.38 228.315Z" fill="#F7FAFC" stroke="#A3B1BF" stroke-width="1.64189"/>
<path fill-rule="evenodd" clip-rule="evenodd" d="M36.0032 228.133L39.5611 227.232L34.3421 219.446L32.4453 222.63L32.788 226.806L36.0032 228.133Z" fill="#A3B1BF"/>
</g>
<g filter="url(#filter19_d)">
<path fill-rule="evenodd" clip-rule="evenodd" d="M117.38 247.315C119.799 247.315 121.76 245.352 121.76 242.931C121.76 240.51 119.799 238.548 117.38 238.548C114.961 238.548 113 240.51 113 242.931C113 245.352 114.961 247.315 117.38 247.315Z" fill="#F7FAFC" stroke="#A3B1BF" stroke-width="1.64189"/>
<path fill-rule="evenodd" clip-rule="evenodd" d="M117.003 247.133L120.561 246.232L115.342 238.446L113.445 241.63L113.788 245.806L117.003 247.133Z" fill="#A3B1BF"/>
</g>
<g filter="url(#filter20_d)">
<path fill-rule="evenodd" clip-rule="evenodd" d="M196.38 229.315C198.799 229.315 200.76 227.352 200.76 224.931C200.76 222.51 198.799 220.548 196.38 220.548C193.961 220.548 192 222.51 192 224.931C192 227.352 193.961 229.315 196.38 229.315Z" fill="#F7FAFC" stroke="#A3B1BF" stroke-width="1.64189"/>
<path fill-rule="evenodd" clip-rule="evenodd" d="M196.003 229.133L199.561 228.232L194.342 220.446L192.445 223.63L192.788 227.806L196.003 229.133Z" fill="#A3B1BF"/>
</g>
<g filter="url(#filter21_d)">
<path fill-rule="evenodd" clip-rule="evenodd" d="M25.7999 140.013C28.2189 140.013 30.1799 138.051 30.1799 135.63C30.1799 133.209 28.2189 131.247 25.7999 131.247C23.3809 131.247 21.4199 133.209 21.4199 135.63C21.4199 138.051 23.3809 140.013 25.7999 140.013Z" fill="#F7FAFC" stroke="#A3B1BF" stroke-width="1.64189"/>
<path fill-rule="evenodd" clip-rule="evenodd" d="M25.4231 139.832L28.981 138.931L23.7621 131.145L21.8652 134.329L22.2079 138.505L25.4231 139.832Z" fill="#A3B1BF"/>
</g>
<g filter="url(#filter22_d)">
<path fill-rule="evenodd" clip-rule="evenodd" d="M116.825 31.0303C119.244 31.0303 121.205 29.0679 121.205 26.647C121.205 24.2262 119.244 22.2637 116.825 22.2637C114.406 22.2637 112.445 24.2262 112.445 26.647C112.445 29.0679 114.406 31.0303 116.825 31.0303Z" fill="#F7FAFC" stroke="#A3B1BF" stroke-width="1.64189"/>
<path fill-rule="evenodd" clip-rule="evenodd" d="M116.449 30.8489L120.006 29.9481L114.787 22.1622L112.891 25.3458L113.233 29.5217L116.449 30.8489Z" fill="#A3B1BF"/>
</g>
<g filter="url(#filter23_d)">
<path fill-rule="evenodd" clip-rule="evenodd" d="M196.435 48.1208C198.854 48.1208 200.815 46.1583 200.815 43.7375C200.815 41.3166 198.854 39.3541 196.435 39.3541C194.016 39.3541 192.055 41.3166 192.055 43.7375C192.055 46.1583 194.016 48.1208 196.435 48.1208Z" fill="#F5F5F5" stroke="#A3B1BF" stroke-width="1.64189"/>
<path fill-rule="evenodd" clip-rule="evenodd" d="M196.058 47.9393L199.616 47.0385L194.397 39.2527L192.5 42.4363L192.843 46.6122L196.058 47.9393Z" fill="#A3B1BF"/>
</g>
<g filter="url(#filter24_d)">
<path fill-rule="evenodd" clip-rule="evenodd" d="M86.084 69.7939H146.917V94.1458H86.084V69.7939Z" fill="#F0F2F5"/>
<path d="M87.299 71.0089H145.702V92.9308H87.299V71.0089Z" stroke="#A3B1BF" stroke-width="2.43"/>
</g>
<path fill-rule="evenodd" clip-rule="evenodd" d="M126.232 72.2346H144.483V91.7419H126.232V72.2346Z" fill="#A3B1BF" fill-opacity="0.3"/>
<rect x="121.367" y="78.3171" width="1.825" height="8.11728" rx="0.9125" fill="#A3B1BF"/>
<rect x="125.018" y="73.6497" width="2.43333" height="16.2346" rx="1.215" fill="#A3B1BF"/>
<g filter="url(#filter25_d)">
<path fill-rule="evenodd" clip-rule="evenodd" d="M32.125 95.7822C32.125 92.155 35.0654 89.2146 38.6926 89.2146H47.455V119.898H38.6926C35.0654 119.898 32.125 116.958 32.125 113.33V95.7822Z" fill="#EAEFF3"/>
<path d="M32.935 95.7822C32.935 92.6023 35.5128 90.0246 38.6926 90.0246H46.645V119.088H38.6926C35.5128 119.088 32.935 116.51 32.935 113.33V95.7822Z" stroke="#A3B1BF" stroke-width="1.62"/>
</g>
<g filter="url(#filter26_d)">
<path fill-rule="evenodd" clip-rule="evenodd" d="M40.399 100.721C41.6085 100.721 42.589 99.7396 42.589 98.5292C42.589 97.3188 41.6085 96.3375 40.399 96.3375C39.1895 96.3375 38.209 97.3188 38.209 98.5292C38.209 99.7396 39.1895 100.721 40.399 100.721Z" fill="#F7FAFC" stroke="#A3B1BF" stroke-width="1.09459"/>
<path fill-rule="evenodd" clip-rule="evenodd" d="M41.99 100.18L39.3805 96.2868L38.4321 97.8786L38.3101 100.18H41.99Z" fill="#A3B1BF"/>
</g>
<g filter="url(#filter27_d)">
<path fill-rule="evenodd" clip-rule="evenodd" d="M40.7349 113.113C41.9444 113.113 42.9249 112.132 42.9249 110.921C42.9249 109.711 41.9444 108.729 40.7349 108.729C39.5254 108.729 38.5449 109.711 38.5449 110.921C38.5449 112.132 39.5254 113.113 40.7349 113.113Z" fill="#F7FAFC" stroke="#A3B1BF" stroke-width="1.09459"/>
<path fill-rule="evenodd" clip-rule="evenodd" d="M42.326 112.572L39.7165 108.679L38.7681 110.271L38.646 112.572H42.326Z" fill="#A3B1BF"/>
</g>
<path d="M74.0195 100.876V108.237C74.0195 108.594 73.7662 108.776 73.6608 108.79L50.4545 110.796V98.3164L73.6609 100.323C73.7687 100.337 74.0195 100.516 74.0195 100.876Z" fill="#F0F2F5" stroke="#A3B1BF" stroke-width="1.62"/>
<g filter="url(#filter28_d)">
<path fill-rule="evenodd" clip-rule="evenodd" d="M57.19 106.931C58.3995 106.931 59.38 105.95 59.38 104.74C59.38 103.529 58.3995 102.548 57.19 102.548C55.9805 102.548 55 103.529 55 104.74C55 105.95 55.9805 106.931 57.19 106.931Z" fill="#F7FAFC" stroke="#A3B1BF" stroke-width="1.09459"/>
<path fill-rule="evenodd" clip-rule="evenodd" d="M58.781 106.39L56.1716 102.497L55.2231 104.089L55.1011 106.39H58.781Z" fill="#A3B1BF"/>
</g>
<g filter="url(#filter29_d)">
<path fill-rule="evenodd" clip-rule="evenodd" d="M67.19 106.931C68.3995 106.931 69.38 105.95 69.38 104.74C69.38 103.529 68.3995 102.548 67.19 102.548C65.9805 102.548 65 103.529 65 104.74C65 105.95 65.9805 106.931 67.19 106.931Z" fill="#F7FAFC" stroke="#A3B1BF" stroke-width="1.09459"/>
<path fill-rule="evenodd" clip-rule="evenodd" d="M68.781 106.39L66.1716 102.497L65.2231 104.089L65.1011 106.39H68.781Z" fill="#A3B1BF"/>
</g>
<g filter="url(#filter30_d)">
<mask id="path-65-inside-1" fill="white">
<rect x="44.2305" y="95.7896" width="7.1175" height="17.5333" rx="1.09459"/>
</mask>
<rect x="44.2305" y="95.7896" width="7.1175" height="17.5333" rx="1.09459" fill="#EAEFF3"/>
<rect x="44.2305" y="95.7896" width="7.1175" height="17.5333" rx="1.09459" stroke="#A3B1BF" stroke-width="3.24" mask="url(#path-65-inside-1)"/>
</g>
<path d="M45.5996 104.556H49.9796" stroke="#A3B1BF" stroke-width="2.18919" stroke-linecap="square"/>
<g filter="url(#filter31_d)">
<path fill-rule="evenodd" clip-rule="evenodd" d="M32.125 152.782C32.125 149.155 35.0654 146.215 38.6926 146.215H47.455V176.898H38.6926C35.0654 176.898 32.125 173.958 32.125 170.33V152.782Z" fill="#EAEFF3"/>
<path d="M32.935 152.782C32.935 149.602 35.5128 147.025 38.6926 147.025H46.645V176.088H38.6926C35.5128 176.088 32.935 173.51 32.935 170.33V152.782Z" stroke="#A3B1BF" stroke-width="1.62"/>
</g>
<g filter="url(#filter32_d)">
<path fill-rule="evenodd" clip-rule="evenodd" d="M40.399 157.721C41.6085 157.721 42.589 156.74 42.589 155.529C42.589 154.319 41.6085 153.338 40.399 153.338C39.1895 153.338 38.209 154.319 38.209 155.529C38.209 156.74 39.1895 157.721 40.399 157.721Z" fill="#F7FAFC" stroke="#A3B1BF" stroke-width="1.09459"/>
<path fill-rule="evenodd" clip-rule="evenodd" d="M41.99 157.18L39.3805 153.287L38.4321 154.879L38.3101 157.18H41.99Z" fill="#A3B1BF"/>
</g>
<g filter="url(#filter33_d)">
<path fill-rule="evenodd" clip-rule="evenodd" d="M40.7349 170.113C41.9444 170.113 42.9249 169.132 42.9249 167.921C42.9249 166.711 41.9444 165.729 40.7349 165.729C39.5254 165.729 38.5449 166.711 38.5449 167.921C38.5449 169.132 39.5254 170.113 40.7349 170.113Z" fill="#F7FAFC" stroke="#A3B1BF" stroke-width="1.09459"/>
<path fill-rule="evenodd" clip-rule="evenodd" d="M42.326 169.572L39.7165 165.679L38.7681 167.271L38.646 169.572H42.326Z" fill="#A3B1BF"/>
</g>
<path d="M74.0195 157.876V165.237C74.0195 165.594 73.7662 165.776 73.6608 165.79L50.4545 167.796V155.316L73.6609 157.323C73.7687 157.337 74.0195 157.516 74.0195 157.876Z" fill="#F0F2F5" stroke="#A3B1BF" stroke-width="1.62"/>
<g filter="url(#filter34_d)">
<path fill-rule="evenodd" clip-rule="evenodd" d="M57.19 163.931C58.3995 163.931 59.38 162.95 59.38 161.74C59.38 160.529 58.3995 159.548 57.19 159.548C55.9805 159.548 55 160.529 55 161.74C55 162.95 55.9805 163.931 57.19 163.931Z" fill="#F7FAFC" stroke="#A3B1BF" stroke-width="1.09459"/>
<path fill-rule="evenodd" clip-rule="evenodd" d="M58.781 163.39L56.1716 159.497L55.2231 161.089L55.1011 163.39H58.781Z" fill="#A3B1BF"/>
</g>
<g filter="url(#filter35_d)">
<path fill-rule="evenodd" clip-rule="evenodd" d="M67.19 163.931C68.3995 163.931 69.38 162.95 69.38 161.74C69.38 160.529 68.3995 159.548 67.19 159.548C65.9805 159.548 65 160.529 65 161.74C65 162.95 65.9805 163.931 67.19 163.931Z" fill="#F7FAFC" stroke="#A3B1BF" stroke-width="1.09459"/>
<path fill-rule="evenodd" clip-rule="evenodd" d="M68.781 163.39L66.1716 159.497L65.2231 161.089L65.1011 163.39H68.781Z" fill="#A3B1BF"/>
</g>
<g filter="url(#filter36_d)">
<mask id="path-78-inside-2" fill="white">
<rect x="44.2305" y="152.79" width="7.1175" height="17.5333" rx="1.09459"/>
</mask>
<rect x="44.2305" y="152.79" width="7.1175" height="17.5333" rx="1.09459" fill="#EAEFF3"/>
<rect x="44.2305" y="152.79" width="7.1175" height="17.5333" rx="1.09459" stroke="#A3B1BF" stroke-width="3.24" mask="url(#path-78-inside-2)"/>
</g>
<path d="M45.5996 161.556H49.9796" stroke="#A3B1BF" stroke-width="2.18919" stroke-linecap="square"/>
<path fill-rule="evenodd" clip-rule="evenodd" d="M187.116 156.266C187.116 168.673 177.066 178.731 164.668 178.731C152.271 178.731 142.221 168.673 142.221 156.266C142.221 143.86 152.271 133.802 164.668 133.802C177.066 133.802 187.116 143.86 187.116 156.266ZM180.546 156.266C180.546 165.042 173.437 172.156 164.668 172.156C155.899 172.156 148.791 165.042 148.791 156.266C148.791 147.491 155.899 140.377 164.668 140.377C173.437 140.377 180.546 147.491 180.546 156.266Z" fill="#A3B1BF" fill-opacity="0.3"/>
<g filter="url(#filter37_d)">
<path fill-rule="evenodd" clip-rule="evenodd" d="M166.602 136.826C166.602 136.826 167.048 142.536 167.048 145.396C167.048 147.005 166.906 149.524 166.782 151.416C164.896 151.191 162.372 150.87 160.785 150.59C157.957 150.092 152.41 148.727 152.41 148.727L151.617 153.225C151.617 153.225 157.318 153.777 160.135 154.273C161.5 154.514 163.512 154.976 165.221 155.387C164.257 156.873 163.1 158.623 162.278 159.753C160.59 162.077 156.932 166.463 156.932 166.463L160.627 169.148C160.627 169.148 163.622 164.266 165.304 161.952C166.145 160.794 167.5 159.12 168.642 157.739C169.623 159.246 170.79 161.074 171.506 162.314C172.942 164.801 175.462 169.927 175.462 169.927L179.417 167.644C179.417 167.644 176.176 162.922 174.745 160.444C173.993 159.141 172.95 157.086 172.132 155.435C173.92 154.951 176.178 154.361 177.658 154.046C180.467 153.449 186.121 152.637 186.121 152.637L185.171 148.169C185.171 148.169 179.679 149.793 176.881 150.388C175.328 150.718 172.88 151.097 171.013 151.369C170.908 149.48 170.788 146.986 170.788 145.396C170.788 142.524 171.169 136.826 171.169 136.826H166.602Z" fill="#A3B1BF"/>
<path d="M166.602 136.826V136.278H166.01L166.056 136.868L166.602 136.826ZM166.782 151.416L166.718 151.959L167.291 152.027L167.329 151.451L166.782 151.416ZM160.785 150.59L160.88 150.051L160.785 150.59ZM152.41 148.727L152.541 148.195L151.973 148.055L151.871 148.632L152.41 148.727ZM151.617 153.225L151.078 153.13L150.975 153.713L151.564 153.77L151.617 153.225ZM160.135 154.273L160.23 153.734L160.135 154.273ZM165.221 155.387L165.68 155.685L166.101 155.036L165.349 154.855L165.221 155.387ZM162.278 159.753L162.721 160.075L162.278 159.753ZM156.932 166.463L156.512 166.113L156.137 166.562L156.61 166.906L156.932 166.463ZM160.627 169.148L160.306 169.591L160.784 169.939L161.094 169.434L160.627 169.148ZM165.304 161.952L164.861 161.63L165.304 161.952ZM168.642 157.739L169.101 157.44L168.694 156.816L168.22 157.39L168.642 157.739ZM171.506 162.314L171.032 162.588L171.506 162.314ZM175.462 169.927L174.97 170.169L175.229 170.694L175.735 170.401L175.462 169.927ZM179.417 167.644L179.691 168.118L180.203 167.822L179.868 167.334L179.417 167.644ZM174.745 160.444L175.219 160.171H175.219L174.745 160.444ZM172.132 155.435L171.989 154.906L171.346 155.08L171.641 155.678L172.132 155.435ZM177.658 154.046L177.772 154.582H177.772L177.658 154.046ZM186.121 152.637L186.199 153.179L186.778 153.096L186.656 152.523L186.121 152.637ZM185.171 148.169L185.707 148.055L185.584 147.477L185.016 147.644L185.171 148.169ZM176.881 150.388L176.767 149.853L176.881 150.388ZM171.013 151.369L170.466 151.399L170.499 151.996L171.091 151.91L171.013 151.369ZM171.169 136.826L171.715 136.862L171.754 136.278H171.169V136.826ZM167.596 145.396C167.596 143.947 167.483 141.789 167.371 140.004C167.315 139.109 167.259 138.304 167.217 137.723C167.196 137.432 167.179 137.197 167.167 137.035C167.161 136.954 167.156 136.891 167.152 136.848C167.151 136.827 167.15 136.811 167.149 136.8C167.148 136.794 167.148 136.79 167.148 136.787C167.148 136.786 167.147 136.785 167.147 136.784C167.147 136.784 167.147 136.783 167.147 136.783C167.147 136.783 167.147 136.783 167.147 136.783C167.147 136.783 167.147 136.783 166.602 136.826C166.056 136.868 166.056 136.868 166.056 136.868C166.056 136.868 166.056 136.868 166.056 136.868C166.056 136.869 166.056 136.869 166.056 136.869C166.056 136.87 166.056 136.871 166.056 136.872C166.057 136.875 166.057 136.879 166.057 136.884C166.058 136.895 166.059 136.911 166.061 136.932C166.064 136.975 166.069 137.037 166.075 137.118C166.087 137.279 166.105 137.512 166.126 137.802C166.167 138.381 166.223 139.182 166.279 140.072C166.39 141.858 166.501 143.985 166.501 145.396H167.596ZM167.329 151.451C167.452 149.561 167.596 147.025 167.596 145.396H166.501C166.501 146.984 166.36 149.487 166.236 151.38L167.329 151.451ZM166.847 150.872C164.959 150.647 162.45 150.328 160.88 150.051L160.69 151.129C162.294 151.412 164.832 151.734 166.718 151.959L166.847 150.872ZM160.88 150.051C159.482 149.805 157.401 149.342 155.661 148.938C154.792 148.737 154.012 148.551 153.449 148.416C153.168 148.348 152.94 148.293 152.784 148.255C152.705 148.235 152.645 148.221 152.604 148.211C152.583 148.206 152.567 148.202 152.557 148.199C152.552 148.198 152.548 148.197 152.545 148.196C152.544 148.196 152.543 148.196 152.542 148.195C152.542 148.195 152.542 148.195 152.541 148.195C152.541 148.195 152.541 148.195 152.541 148.195C152.541 148.195 152.541 148.195 152.41 148.727C152.28 149.258 152.28 149.258 152.28 149.258C152.28 149.258 152.28 149.258 152.28 149.258C152.28 149.258 152.28 149.258 152.281 149.258C152.281 149.259 152.282 149.259 152.284 149.259C152.286 149.26 152.29 149.261 152.296 149.262C152.307 149.265 152.322 149.269 152.343 149.274C152.385 149.284 152.446 149.299 152.525 149.318C152.682 149.356 152.91 149.412 153.193 149.48C153.758 149.616 154.541 149.802 155.413 150.005C157.153 150.408 159.26 150.877 160.69 151.129L160.88 150.051ZM151.871 148.632L151.078 153.13L152.156 153.32L152.949 148.822L151.871 148.632ZM151.617 153.225C151.564 153.77 151.564 153.77 151.565 153.77C151.565 153.77 151.565 153.77 151.565 153.77C151.565 153.77 151.565 153.77 151.565 153.77C151.566 153.77 151.567 153.77 151.568 153.77C151.571 153.77 151.575 153.771 151.581 153.771C151.591 153.772 151.607 153.774 151.628 153.776C151.671 153.78 151.733 153.786 151.813 153.794C151.974 153.81 152.207 153.834 152.496 153.863C153.073 153.923 153.872 154.007 154.759 154.107C156.536 154.307 158.65 154.567 160.04 154.812L160.23 153.734C158.803 153.483 156.658 153.219 154.881 153.019C153.99 152.919 153.188 152.834 152.608 152.774C152.318 152.745 152.084 152.721 151.922 152.705C151.841 152.697 151.778 152.691 151.735 152.687C151.714 152.684 151.698 152.683 151.687 152.682C151.681 152.681 151.677 152.681 151.674 152.681C151.673 152.68 151.672 152.68 151.671 152.68C151.671 152.68 151.67 152.68 151.67 152.68C151.67 152.68 151.67 152.68 151.67 152.68C151.67 152.68 151.67 152.68 151.617 153.225ZM160.04 154.812C161.387 155.05 163.384 155.508 165.093 155.919L165.349 154.855C163.641 154.444 161.614 153.978 160.23 153.734L160.04 154.812ZM164.762 155.089C163.797 156.576 162.647 158.314 161.835 159.432L162.721 160.075C163.552 158.932 164.716 157.171 165.68 155.685L164.762 155.089ZM161.835 159.432C161.001 160.58 159.673 162.248 158.547 163.635C157.986 164.327 157.477 164.947 157.108 165.393C156.924 165.617 156.774 165.797 156.671 165.921C156.62 165.983 156.58 166.031 156.553 166.063C156.539 166.08 156.529 166.092 156.522 166.1C156.519 166.105 156.516 166.108 156.514 166.11C156.513 166.111 156.513 166.112 156.512 166.112C156.512 166.112 156.512 166.113 156.512 166.113C156.512 166.113 156.512 166.113 156.512 166.113C156.512 166.113 156.512 166.113 156.932 166.463C157.352 166.814 157.352 166.814 157.352 166.814C157.352 166.814 157.353 166.814 157.353 166.814C157.353 166.814 157.353 166.813 157.353 166.813C157.354 166.812 157.354 166.812 157.355 166.811C157.357 166.808 157.36 166.805 157.363 166.801C157.37 166.793 157.381 166.78 157.394 166.764C157.422 166.731 157.462 166.682 157.514 166.62C157.617 166.495 157.767 166.314 157.952 166.09C158.322 165.642 158.833 165.02 159.397 164.325C160.522 162.938 161.867 161.25 162.721 160.075L161.835 159.432ZM156.61 166.906L160.306 169.591L160.949 168.705L157.254 166.021L156.61 166.906ZM160.627 169.148C161.094 169.434 161.094 169.434 161.094 169.434C161.094 169.434 161.094 169.434 161.094 169.434C161.094 169.434 161.094 169.434 161.094 169.434C161.095 169.433 161.095 169.432 161.096 169.431C161.097 169.429 161.099 169.425 161.102 169.421C161.108 169.411 161.116 169.398 161.128 169.38C161.15 169.343 161.183 169.29 161.225 169.221C161.31 169.084 161.433 168.885 161.586 168.638C161.893 168.145 162.319 167.464 162.797 166.711C163.756 165.201 164.917 163.415 165.747 162.273L164.861 161.63C164.009 162.803 162.832 164.615 161.873 166.124C161.392 166.881 160.965 167.565 160.657 168.06C160.503 168.308 160.379 168.508 160.294 168.646C160.251 168.716 160.218 168.769 160.195 168.806C160.184 168.824 160.175 168.838 160.17 168.848C160.167 168.852 160.165 168.856 160.163 168.858C160.162 168.859 160.162 168.86 160.161 168.861C160.161 168.861 160.161 168.862 160.161 168.862C160.161 168.862 160.161 168.862 160.161 168.862C160.161 168.862 160.161 168.862 160.627 169.148ZM165.747 162.273C166.576 161.132 167.921 159.47 169.064 158.088L168.22 157.39C167.078 158.771 165.713 160.457 164.861 161.63L165.747 162.273ZM168.183 158.037C169.165 159.545 170.324 161.361 171.032 162.588L171.98 162.041C171.256 160.786 170.082 158.947 169.101 157.44L168.183 158.037ZM171.032 162.588C171.742 163.817 172.725 165.709 173.535 167.301C173.938 168.096 174.297 168.813 174.556 169.331C174.685 169.591 174.788 169.8 174.86 169.945C174.896 170.017 174.923 170.073 174.942 170.111C174.951 170.13 174.959 170.145 174.963 170.154C174.966 170.159 174.967 170.163 174.969 170.165C174.969 170.166 174.97 170.167 174.97 170.168C174.97 170.168 174.97 170.168 174.97 170.169C174.97 170.169 174.97 170.169 174.97 170.169C174.97 170.169 174.97 170.169 175.462 169.927C175.953 169.686 175.953 169.686 175.953 169.686C175.953 169.686 175.953 169.686 175.953 169.686C175.953 169.686 175.952 169.685 175.952 169.685C175.952 169.684 175.952 169.683 175.951 169.682C175.95 169.68 175.948 169.676 175.945 169.671C175.941 169.661 175.933 169.646 175.924 169.627C175.905 169.589 175.877 169.532 175.841 169.46C175.769 169.314 175.665 169.104 175.535 168.844C175.276 168.323 174.916 167.603 174.51 166.805C173.701 165.213 172.706 163.298 171.98 162.041L171.032 162.588ZM175.735 170.401L179.691 168.118L179.144 167.17L175.188 169.453L175.735 170.401ZM179.417 167.644C179.868 167.334 179.868 167.334 179.868 167.334C179.868 167.334 179.868 167.334 179.868 167.334C179.868 167.333 179.868 167.333 179.868 167.333C179.868 167.332 179.867 167.332 179.866 167.33C179.865 167.328 179.862 167.325 179.859 167.32C179.853 167.312 179.844 167.298 179.832 167.281C179.808 167.246 179.773 167.194 179.727 167.127C179.636 166.994 179.504 166.8 179.341 166.56C179.016 166.08 178.567 165.414 178.074 164.67C177.084 163.18 175.925 161.393 175.219 160.171L174.271 160.718C174.996 161.973 176.173 163.786 177.162 165.276C177.657 166.023 178.108 166.692 178.435 167.174C178.599 167.415 178.731 167.61 178.823 167.744C178.869 167.812 178.905 167.864 178.929 167.899C178.941 167.917 178.95 167.93 178.957 167.939C178.96 167.944 178.962 167.947 178.964 167.95C178.964 167.951 178.965 167.952 178.965 167.952C178.966 167.953 178.966 167.953 178.966 167.953C178.966 167.953 178.966 167.953 178.966 167.953C178.966 167.953 178.966 167.953 179.417 167.644ZM175.219 160.171C174.477 158.885 173.441 156.844 172.622 155.192L171.641 155.678C172.459 157.328 173.509 159.398 174.271 160.718L175.219 160.171ZM172.275 155.963C174.064 155.479 176.308 154.893 177.772 154.582L177.544 153.511C176.048 153.829 173.776 154.423 171.989 154.906L172.275 155.963ZM177.772 154.582C179.161 154.286 181.263 153.936 183.028 153.658C183.908 153.52 184.701 153.4 185.274 153.315C185.561 153.272 185.792 153.238 185.952 153.215C186.031 153.203 186.093 153.194 186.135 153.188C186.156 153.185 186.172 153.183 186.183 153.181C186.188 153.18 186.192 153.18 186.195 153.179C186.196 153.179 186.197 153.179 186.198 153.179C186.198 153.179 186.198 153.179 186.199 153.179C186.199 153.179 186.199 153.179 186.199 153.179C186.199 153.179 186.199 153.179 186.121 152.637C186.043 152.095 186.043 152.095 186.043 152.095C186.043 152.095 186.043 152.095 186.043 152.095C186.043 152.095 186.042 152.095 186.042 152.095C186.041 152.096 186.04 152.096 186.039 152.096C186.036 152.096 186.032 152.097 186.027 152.098C186.016 152.099 186 152.102 185.978 152.105C185.936 152.111 185.874 152.12 185.793 152.132C185.633 152.155 185.401 152.189 185.113 152.232C184.538 152.318 183.742 152.438 182.858 152.577C181.094 152.855 178.965 153.209 177.544 153.511L177.772 154.582ZM186.656 152.523L185.707 148.055L184.636 148.283L185.586 152.751L186.656 152.523ZM185.171 148.169C185.016 147.644 185.016 147.644 185.016 147.644C185.016 147.644 185.016 147.644 185.016 147.644C185.016 147.645 185.016 147.645 185.015 147.645C185.015 147.645 185.014 147.645 185.012 147.646C185.01 147.646 185.006 147.647 185.001 147.649C184.99 147.652 184.975 147.657 184.954 147.663C184.914 147.675 184.854 147.692 184.776 147.715C184.621 147.76 184.396 147.826 184.117 147.907C183.56 148.068 182.788 148.289 181.928 148.528C180.205 149.009 178.147 149.559 176.767 149.853L176.994 150.923C178.412 150.622 180.5 150.063 182.222 149.583C183.086 149.342 183.862 149.12 184.421 148.958C184.701 148.877 184.927 148.811 185.084 148.765C185.162 148.743 185.222 148.725 185.263 148.713C185.284 148.707 185.3 148.702 185.31 148.699C185.316 148.697 185.32 148.696 185.322 148.695C185.324 148.695 185.325 148.695 185.325 148.694C185.326 148.694 185.326 148.694 185.326 148.694C185.326 148.694 185.326 148.694 185.326 148.694C185.326 148.694 185.326 148.694 185.171 148.169ZM176.767 149.853C175.234 150.178 172.802 150.555 170.934 150.827L171.091 151.91C172.957 151.639 175.422 151.258 176.994 150.923L176.767 149.853ZM170.241 145.396C170.241 147.004 170.361 149.512 170.466 151.399L171.559 151.338C171.454 149.448 171.335 146.969 171.335 145.396H170.241ZM171.169 136.826C170.623 136.789 170.623 136.789 170.623 136.789C170.623 136.789 170.623 136.789 170.623 136.789C170.623 136.789 170.623 136.79 170.623 136.79C170.623 136.791 170.623 136.792 170.623 136.793C170.623 136.796 170.622 136.8 170.622 136.806C170.621 136.817 170.62 136.833 170.619 136.854C170.616 136.897 170.612 136.96 170.607 137.041C170.596 137.203 170.581 137.437 170.564 137.727C170.528 138.307 170.48 139.111 170.432 140.005C170.337 141.788 170.241 143.944 170.241 145.396H171.335C171.335 143.977 171.43 141.847 171.525 140.063C171.573 139.173 171.62 138.373 171.656 137.795C171.674 137.506 171.689 137.272 171.699 137.111C171.704 137.031 171.708 136.968 171.711 136.926C171.713 136.905 171.714 136.889 171.714 136.878C171.715 136.873 171.715 136.869 171.715 136.866C171.715 136.865 171.715 136.864 171.715 136.863C171.715 136.863 171.715 136.862 171.715 136.862C171.715 136.862 171.715 136.862 171.715 136.862C171.715 136.862 171.715 136.862 171.169 136.826ZM166.602 137.373H171.169V136.278H166.602V137.373Z" fill="#A3B1BF"/>
</g>
<mask id="mask0" mask-type="alpha" maskUnits="userSpaceOnUse" x="143" y="133" width="45" height="46">
<path fill-rule="evenodd" clip-rule="evenodd" d="M187.926 156.266C187.926 168.673 177.876 178.731 165.479 178.731C153.081 178.731 143.031 168.673 143.031 156.266C143.031 143.86 153.081 133.802 165.479 133.802C177.876 133.802 187.926 143.86 187.926 156.266ZM181.356 156.266C181.356 165.042 174.248 172.156 165.479 172.156C156.71 172.156 149.601 165.042 149.601 156.266C149.601 147.491 156.71 140.377 165.479 140.377C174.248 140.377 181.356 147.491 181.356 156.266Z" fill="white"/>
</mask>
<g mask="url(#mask0)">
<path fill-rule="evenodd" clip-rule="evenodd" d="M172.418 177.467C182.656 175.379 190.36 166.317 190.36 155.455C190.36 143.048 180.31 132.99 167.912 132.99C166.263 132.99 164.656 133.168 163.108 133.506L157.854 139.526L158.936 142.346C161.489 140.592 164.581 139.565 167.912 139.565C176.681 139.565 183.79 146.679 183.79 155.455C183.79 163.517 177.79 170.177 170.014 171.206L172.418 177.467Z" fill="#98A5B3"/>
</g>
<path fill-rule="evenodd" clip-rule="evenodd" d="M191.434 155.171C191.434 167.577 181.384 177.635 168.987 177.635C156.589 177.635 146.539 167.577 146.539 155.171C146.539 142.764 156.589 132.706 168.987 132.706C181.384 132.706 191.434 142.764 191.434 155.171ZM184.864 155.171C184.864 163.946 177.755 171.06 168.987 171.06C160.218 171.06 153.109 163.946 153.109 155.171C153.109 146.395 160.218 139.281 168.987 139.281C177.755 139.281 184.864 146.395 184.864 155.171Z" fill="#A3B1BF"/>
<path d="M179.754 138.974C179.754 138.974 182.541 140.564 185.186 144.996C187.83 149.428 188.172 153.986 188.172 153.986" stroke="#F7FAFC" stroke-width="1.62" stroke-linecap="round"/>
<g filter="url(#filter38_d)">
<path fill-rule="evenodd" clip-rule="evenodd" d="M168.987 159.554C171.406 159.554 173.367 157.591 173.367 155.171C173.367 152.75 171.406 150.787 168.987 150.787C166.568 150.787 164.607 152.75 164.607 155.171C164.607 157.591 166.568 159.554 168.987 159.554Z" fill="#A3B1BF"/>
</g>
<path fill-rule="evenodd" clip-rule="evenodd" d="M171.212 156.862C172.195 155.945 172.248 154.405 171.331 153.421C170.414 152.438 168.873 152.383 167.891 153.3C167.891 153.3 169.095 153.668 170.012 154.651C170.929 155.635 171.212 156.862 171.212 156.862Z" fill="#F7FAFC"/>
<defs>
<filter id="filter0_d" x="0.189453" y="0.189941" width="226.62" height="268.62" filterUnits="userSpaceOnUse" color-interpolation-filters="sRGB">
<feFlood flood-opacity="0" result="BackgroundImageFix"/>
<feColorMatrix in="SourceAlpha" type="matrix" values="0 0 0 0 0 0 0 0 0 0 0 0 0 0 0 0 0 0 127 0" result="hardAlpha"/>
<feOffset dx="-6" dy="4"/>
<feColorMatrix type="matrix" values="0 0 0 0 0.639216 0 0 0 0 0.694118 0 0 0 0 0.74902 0 0 0 0.3 0"/>
<feBlend mode="normal" in2="BackgroundImageFix" result="effect1_dropShadow"/>
<feBlend mode="normal" in="SourceGraphic" in2="effect1_dropShadow" result="shape"/>
</filter>
<filter id="filter1_d" x="40.8438" y="43.7067" width="145.685" height="179.953" filterUnits="userSpaceOnUse" color-interpolation-filters="sRGB">
<feFlood flood-opacity="0" result="BackgroundImageFix"/>
<feColorMatrix in="SourceAlpha" type="matrix" values="0 0 0 0 0 0 0 0 0 0 0 0 0 0 0 0 0 0 127 0" result="hardAlpha"/>
<feOffset dx="-5" dy="3"/>
<feColorMatrix type="matrix" values="0 0 0 0 0.639216 0 0 0 0 0.694118 0 0 0 0 0.74902 0 0 0 0.3 0"/>
<feBlend mode="normal" in2="BackgroundImageFix" result="effect1_dropShadow"/>
<feBlend mode="normal" in="SourceGraphic" in2="effect1_dropShadow" result="shape"/>
</filter>
<filter id="filter2_d" x="159.943" y="90.8583" width="23.9" height="18.5333" filterUnits="userSpaceOnUse" color-interpolation-filters="sRGB">
<feFlood flood-opacity="0" result="BackgroundImageFix"/>
<feColorMatrix in="SourceAlpha" type="matrix" values="0 0 0 0 0 0 0 0 0 0 0 0 0 0 0 0 0 0 127 0" result="hardAlpha"/>
<feOffset dx="-2" dy="1"/>
<feColorMatrix type="matrix" values="0 0 0 0 0.639216 0 0 0 0 0.694118 0 0 0 0 0.74902 0 0 0 0.3 0"/>
<feBlend mode="normal" in2="BackgroundImageFix" result="effect1_dropShadow"/>
<feBlend mode="normal" in="SourceGraphic" in2="effect1_dropShadow" result="shape"/>
</filter>
<filter id="filter3_d" x="184.389" y="90.8583" width="22.9" height="18.5333" filterUnits="userSpaceOnUse" color-interpolation-filters="sRGB">
<feFlood flood-opacity="0" result="BackgroundImageFix"/>
<feColorMatrix in="SourceAlpha" type="matrix" values="0 0 0 0 0 0 0 0 0 0 0 0 0 0 0 0 0 0 127 0" result="hardAlpha"/>
<feOffset dx="1" dy="1"/>
<feColorMatrix type="matrix" values="0 0 0 0 0.639216 0 0 0 0 0.694118 0 0 0 0 0.74902 0 0 0 0.3 0"/>
<feBlend mode="normal" in2="BackgroundImageFix" result="effect1_dropShadow"/>
<feBlend mode="normal" in="SourceGraphic" in2="effect1_dropShadow" result="shape"/>
</filter>
<filter id="filter4_d" x="165.873" y="96.4732" width="6.4746" height="6.47793" filterUnits="userSpaceOnUse" color-interpolation-filters="sRGB">
<feFlood flood-opacity="0" result="BackgroundImageFix"/>
<feColorMatrix in="SourceAlpha" type="matrix" values="0 0 0 0 0 0 0 0 0 0 0 0 0 0 0 0 0 0 127 0" result="hardAlpha"/>
<feOffset dx="-1" dy="1"/>
<feColorMatrix type="matrix" values="0 0 0 0 0.639216 0 0 0 0 0.694118 0 0 0 0 0.74902 0 0 0 0.3 0"/>
<feBlend mode="normal" in2="BackgroundImageFix" result="effect1_dropShadow"/>
<feBlend mode="normal" in="SourceGraphic" in2="effect1_dropShadow" result="shape"/>
</filter>
<filter id="filter5_d" x="194.713" y="96.4732" width="6.4746" height="6.47793" filterUnits="userSpaceOnUse" color-interpolation-filters="sRGB">
<feFlood flood-opacity="0" result="BackgroundImageFix"/>
<feColorMatrix in="SourceAlpha" type="matrix" values="0 0 0 0 0 0 0 0 0 0 0 0 0 0 0 0 0 0 127 0" result="hardAlpha"/>
<feOffset dx="-1" dy="1"/>
<feColorMatrix type="matrix" values="0 0 0 0 0.639216 0 0 0 0 0.694118 0 0 0 0 0.74902 0 0 0 0.3 0"/>
<feBlend mode="normal" in2="BackgroundImageFix" result="effect1_dropShadow"/>
<feBlend mode="normal" in="SourceGraphic" in2="effect1_dropShadow" result="shape"/>
</filter>
<filter id="filter6_i" x="181.537" y="111.839" width="3.97931" height="6.76509" filterUnits="userSpaceOnUse" color-interpolation-filters="sRGB">
<feFlood flood-opacity="0" result="BackgroundImageFix"/>
<feBlend mode="normal" in="SourceGraphic" in2="BackgroundImageFix" result="shape"/>
<feColorMatrix in="SourceAlpha" type="matrix" values="0 0 0 0 0 0 0 0 0 0 0 0 0 0 0 0 0 0 127 0" result="hardAlpha"/>
<feOffset dx="-1" dy="1"/>
<feComposite in2="hardAlpha" operator="arithmetic" k2="-1" k3="1"/>
<feColorMatrix type="matrix" values="0 0 0 0 0.639216 0 0 0 0 0.694118 0 0 0 0 0.74902 0 0 0 1 0"/>
<feBlend mode="normal" in2="shape" result="effect1_innerShadow"/>
</filter>
<filter id="filter7_d" x="69.4531" y="76.0006" width="6.4746" height="6.47793" filterUnits="userSpaceOnUse" color-interpolation-filters="sRGB">
<feFlood flood-opacity="0" result="BackgroundImageFix"/>
<feColorMatrix in="SourceAlpha" type="matrix" values="0 0 0 0 0 0 0 0 0 0 0 0 0 0 0 0 0 0 127 0" result="hardAlpha"/>
<feOffset dx="-1" dy="1"/>
<feColorMatrix type="matrix" values="0 0 0 0 0.639216 0 0 0 0 0.694118 0 0 0 0 0.74902 0 0 0 0.3 0"/>
<feBlend mode="normal" in2="BackgroundImageFix" result="effect1_dropShadow"/>
<feBlend mode="normal" in="SourceGraphic" in2="effect1_dropShadow" result="shape"/>
</filter>
<filter id="filter8_d" x="157.453" y="76.0006" width="6.4746" height="6.47793" filterUnits="userSpaceOnUse" color-interpolation-filters="sRGB">
<feFlood flood-opacity="0" result="BackgroundImageFix"/>
<feColorMatrix in="SourceAlpha" type="matrix" values="0 0 0 0 0 0 0 0 0 0 0 0 0 0 0 0 0 0 127 0" result="hardAlpha"/>
<feOffset dx="-1" dy="1"/>
<feColorMatrix type="matrix" values="0 0 0 0 0.639216 0 0 0 0 0.694118 0 0 0 0 0.74902 0 0 0 0.3 0"/>
<feBlend mode="normal" in2="BackgroundImageFix" result="effect1_dropShadow"/>
<feBlend mode="normal" in="SourceGraphic" in2="effect1_dropShadow" result="shape"/>
</filter>
<filter id="filter9_d" x="62.4531" y="121.001" width="6.4746" height="6.47793" filterUnits="userSpaceOnUse" color-interpolation-filters="sRGB">
<feFlood flood-opacity="0" result="BackgroundImageFix"/>
<feColorMatrix in="SourceAlpha" type="matrix" values="0 0 0 0 0 0 0 0 0 0 0 0 0 0 0 0 0 0 127 0" result="hardAlpha"/>
<feOffset dx="-1" dy="1"/>
<feColorMatrix type="matrix" values="0 0 0 0 0.639216 0 0 0 0 0.694118 0 0 0 0 0.74902 0 0 0 0.3 0"/>
<feBlend mode="normal" in2="BackgroundImageFix" result="effect1_dropShadow"/>
<feBlend mode="normal" in="SourceGraphic" in2="effect1_dropShadow" result="shape"/>
</filter>
<filter id="filter10_d" x="62.4531" y="138.001" width="6.4746" height="6.47793" filterUnits="userSpaceOnUse" color-interpolation-filters="sRGB">
<feFlood flood-opacity="0" result="BackgroundImageFix"/>
<feColorMatrix in="SourceAlpha" type="matrix" values="0 0 0 0 0 0 0 0 0 0 0 0 0 0 0 0 0 0 127 0" result="hardAlpha"/>
<feOffset dx="-1" dy="1"/>
<feColorMatrix type="matrix" values="0 0 0 0 0.639216 0 0 0 0 0.694118 0 0 0 0 0.74902 0 0 0 0.3 0"/>
<feBlend mode="normal" in2="BackgroundImageFix" result="effect1_dropShadow"/>
<feBlend mode="normal" in="SourceGraphic" in2="effect1_dropShadow" result="shape"/>
</filter>
<filter id="filter11_d" x="69.4531" y="187.001" width="6.4746" height="6.47793" filterUnits="userSpaceOnUse" color-interpolation-filters="sRGB">
<feFlood flood-opacity="0" result="BackgroundImageFix"/>
<feColorMatrix in="SourceAlpha" type="matrix" values="0 0 0 0 0 0 0 0 0 0 0 0 0 0 0 0 0 0 127 0" result="hardAlpha"/>
<feOffset dx="-1" dy="1"/>
<feColorMatrix type="matrix" values="0 0 0 0 0.639216 0 0 0 0 0.694118 0 0 0 0 0.74902 0 0 0 0.3 0"/>
<feBlend mode="normal" in2="BackgroundImageFix" result="effect1_dropShadow"/>
<feBlend mode="normal" in="SourceGraphic" in2="effect1_dropShadow" result="shape"/>
</filter>
<filter id="filter12_d" x="98.4531" y="192.001" width="6.4746" height="6.47793" filterUnits="userSpaceOnUse" color-interpolation-filters="sRGB">
<feFlood flood-opacity="0" result="BackgroundImageFix"/>
<feColorMatrix in="SourceAlpha" type="matrix" values="0 0 0 0 0 0 0 0 0 0 0 0 0 0 0 0 0 0 127 0" result="hardAlpha"/>
<feOffset dx="-1" dy="1"/>
<feColorMatrix type="matrix" values="0 0 0 0 0.639216 0 0 0 0 0.694118 0 0 0 0 0.74902 0 0 0 0.3 0"/>
<feBlend mode="normal" in2="BackgroundImageFix" result="effect1_dropShadow"/>
<feBlend mode="normal" in="SourceGraphic" in2="effect1_dropShadow" result="shape"/>
</filter>
<filter id="filter13_d" x="127.453" y="192.001" width="6.4746" height="6.47793" filterUnits="userSpaceOnUse" color-interpolation-filters="sRGB">
<feFlood flood-opacity="0" result="BackgroundImageFix"/>
<feColorMatrix in="SourceAlpha" type="matrix" values="0 0 0 0 0 0 0 0 0 0 0 0 0 0 0 0 0 0 127 0" result="hardAlpha"/>
<feOffset dx="-1" dy="1"/>
<feColorMatrix type="matrix" values="0 0 0 0 0.639216 0 0 0 0 0.694118 0 0 0 0 0.74902 0 0 0 0.3 0"/>
<feBlend mode="normal" in2="BackgroundImageFix" result="effect1_dropShadow"/>
<feBlend mode="normal" in="SourceGraphic" in2="effect1_dropShadow" result="shape"/>
</filter>
<filter id="filter14_d" x="157.453" y="187.001" width="6.4746" height="6.47793" filterUnits="userSpaceOnUse" color-interpolation-filters="sRGB">
<feFlood flood-opacity="0" result="BackgroundImageFix"/>
<feColorMatrix in="SourceAlpha" type="matrix" values="0 0 0 0 0 0 0 0 0 0 0 0 0 0 0 0 0 0 127 0" result="hardAlpha"/>
<feOffset dx="-1" dy="1"/>
<feColorMatrix type="matrix" values="0 0 0 0 0.639216 0 0 0 0 0.694118 0 0 0 0 0.74902 0 0 0 0.3 0"/>
<feBlend mode="normal" in2="BackgroundImageFix" result="effect1_dropShadow"/>
<feBlend mode="normal" in="SourceGraphic" in2="effect1_dropShadow" result="shape"/>
</filter>
<filter id="filter15_d" x="165.873" y="96.4732" width="6.4746" height="6.47793" filterUnits="userSpaceOnUse" color-interpolation-filters="sRGB">
<feFlood flood-opacity="0" result="BackgroundImageFix"/>
<feColorMatrix in="SourceAlpha" type="matrix" values="0 0 0 0 0 0 0 0 0 0 0 0 0 0 0 0 0 0 127 0" result="hardAlpha"/>
<feOffset dx="-1" dy="1"/>
<feColorMatrix type="matrix" values="0 0 0 0 0.639216 0 0 0 0 0.694118 0 0 0 0 0.74902 0 0 0 0.3 0"/>
<feBlend mode="normal" in2="BackgroundImageFix" result="effect1_dropShadow"/>
<feBlend mode="normal" in="SourceGraphic" in2="effect1_dropShadow" result="shape"/>
</filter>
<filter id="filter16_d" x="194.713" y="96.4732" width="6.4746" height="6.47793" filterUnits="userSpaceOnUse" color-interpolation-filters="sRGB">
<feFlood flood-opacity="0" result="BackgroundImageFix"/>
<feColorMatrix in="SourceAlpha" type="matrix" values="0 0 0 0 0 0 0 0 0 0 0 0 0 0 0 0 0 0 127 0" result="hardAlpha"/>
<feOffset dx="-1" dy="1"/>
<feColorMatrix type="matrix" values="0 0 0 0 0.639216 0 0 0 0 0.694118 0 0 0 0 0.74902 0 0 0 0.3 0"/>
<feBlend mode="normal" in2="BackgroundImageFix" result="effect1_dropShadow"/>
<feBlend mode="normal" in="SourceGraphic" in2="effect1_dropShadow" result="shape"/>
</filter>
<filter id="filter17_d" x="29.1797" y="38.7269" width="12.4019" height="12.4086" filterUnits="userSpaceOnUse" color-interpolation-filters="sRGB">
<feFlood flood-opacity="0" result="BackgroundImageFix"/>
<feColorMatrix in="SourceAlpha" type="matrix" values="0 0 0 0 0 0 0 0 0 0 0 0 0 0 0 0 0 0 127 0" result="hardAlpha"/>
<feOffset dx="-2" dy="2"/>
<feColorMatrix type="matrix" values="0 0 0 0 0.639216 0 0 0 0 0.694118 0 0 0 0 0.74902 0 0 0 0.3 0"/>
<feBlend mode="normal" in2="BackgroundImageFix" result="effect1_dropShadow"/>
<feBlend mode="normal" in="SourceGraphic" in2="effect1_dropShadow" result="shape"/>
</filter>
<filter id="filter18_d" x="29.1797" y="218.727" width="12.4019" height="12.4086" filterUnits="userSpaceOnUse" color-interpolation-filters="sRGB">
<feFlood flood-opacity="0" result="BackgroundImageFix"/>
<feColorMatrix in="SourceAlpha" type="matrix" values="0 0 0 0 0 0 0 0 0 0 0 0 0 0 0 0 0 0 127 0" result="hardAlpha"/>
<feOffset dx="-2" dy="2"/>
<feColorMatrix type="matrix" values="0 0 0 0 0.639216 0 0 0 0 0.694118 0 0 0 0 0.74902 0 0 0 0.3 0"/>
<feBlend mode="normal" in2="BackgroundImageFix" result="effect1_dropShadow"/>
<feBlend mode="normal" in="SourceGraphic" in2="effect1_dropShadow" result="shape"/>
</filter>
<filter id="filter19_d" x="110.18" y="237.727" width="12.4019" height="12.4086" filterUnits="userSpaceOnUse" color-interpolation-filters="sRGB">
<feFlood flood-opacity="0" result="BackgroundImageFix"/>
<feColorMatrix in="SourceAlpha" type="matrix" values="0 0 0 0 0 0 0 0 0 0 0 0 0 0 0 0 0 0 127 0" result="hardAlpha"/>
<feOffset dx="-2" dy="2"/>
<feColorMatrix type="matrix" values="0 0 0 0 0.639216 0 0 0 0 0.694118 0 0 0 0 0.74902 0 0 0 0.3 0"/>
<feBlend mode="normal" in2="BackgroundImageFix" result="effect1_dropShadow"/>
<feBlend mode="normal" in="SourceGraphic" in2="effect1_dropShadow" result="shape"/>
</filter>
<filter id="filter20_d" x="189.18" y="219.727" width="12.4019" height="12.4086" filterUnits="userSpaceOnUse" color-interpolation-filters="sRGB">
<feFlood flood-opacity="0" result="BackgroundImageFix"/>
<feColorMatrix in="SourceAlpha" type="matrix" values="0 0 0 0 0 0 0 0 0 0 0 0 0 0 0 0 0 0 127 0" result="hardAlpha"/>
<feOffset dx="-2" dy="2"/>
<feColorMatrix type="matrix" values="0 0 0 0 0.639216 0 0 0 0 0.694118 0 0 0 0 0.74902 0 0 0 0.3 0"/>
<feBlend mode="normal" in2="BackgroundImageFix" result="effect1_dropShadow"/>
<feBlend mode="normal" in="SourceGraphic" in2="effect1_dropShadow" result="shape"/>
</filter>
<filter id="filter21_d" x="18.5996" y="130.426" width="12.4019" height="12.4086" filterUnits="userSpaceOnUse" color-interpolation-filters="sRGB">
<feFlood flood-opacity="0" result="BackgroundImageFix"/>
<feColorMatrix in="SourceAlpha" type="matrix" values="0 0 0 0 0 0 0 0 0 0 0 0 0 0 0 0 0 0 127 0" result="hardAlpha"/>
<feOffset dx="-2" dy="2"/>
<feColorMatrix type="matrix" values="0 0 0 0 0.639216 0 0 0 0 0.694118 0 0 0 0 0.74902 0 0 0 0.3 0"/>
<feBlend mode="normal" in2="BackgroundImageFix" result="effect1_dropShadow"/>
<feBlend mode="normal" in="SourceGraphic" in2="effect1_dropShadow" result="shape"/>
</filter>
<filter id="filter22_d" x="109.625" y="21.4427" width="12.4019" height="12.4086" filterUnits="userSpaceOnUse" color-interpolation-filters="sRGB">
<feFlood flood-opacity="0" result="BackgroundImageFix"/>
<feColorMatrix in="SourceAlpha" type="matrix" values="0 0 0 0 0 0 0 0 0 0 0 0 0 0 0 0 0 0 127 0" result="hardAlpha"/>
<feOffset dx="-2" dy="2"/>
<feColorMatrix type="matrix" values="0 0 0 0 0.639216 0 0 0 0 0.694118 0 0 0 0 0.74902 0 0 0 0.3 0"/>
<feBlend mode="normal" in2="BackgroundImageFix" result="effect1_dropShadow"/>
<feBlend mode="normal" in="SourceGraphic" in2="effect1_dropShadow" result="shape"/>
</filter>
<filter id="filter23_d" x="189.234" y="38.5332" width="12.4019" height="12.4086" filterUnits="userSpaceOnUse" color-interpolation-filters="sRGB">
<feFlood flood-opacity="0" result="BackgroundImageFix"/>
<feColorMatrix in="SourceAlpha" type="matrix" values="0 0 0 0 0 0 0 0 0 0 0 0 0 0 0 0 0 0 127 0" result="hardAlpha"/>
<feOffset dx="-2" dy="2"/>
<feColorMatrix type="matrix" values="0 0 0 0 0.639216 0 0 0 0 0.694118 0 0 0 0 0.74902 0 0 0 0.3 0"/>
<feBlend mode="normal" in2="BackgroundImageFix" result="effect1_dropShadow"/>
<feBlend mode="normal" in="SourceGraphic" in2="effect1_dropShadow" result="shape"/>
</filter>
<filter id="filter24_d" x="85.084" y="69.7939" width="61.8333" height="25.3519" filterUnits="userSpaceOnUse" color-interpolation-filters="sRGB">
<feFlood flood-opacity="0" result="BackgroundImageFix"/>
<feColorMatrix in="SourceAlpha" type="matrix" values="0 0 0 0 0 0 0 0 0 0 0 0 0 0 0 0 0 0 127 0" result="hardAlpha"/>
<feOffset dx="-1" dy="1"/>
<feColorMatrix type="matrix" values="0 0 0 0 0.639216 0 0 0 0 0.694118 0 0 0 0 0.74902 0 0 0 0.3 0"/>
<feBlend mode="normal" in2="BackgroundImageFix" result="effect1_dropShadow"/>
<feBlend mode="normal" in="SourceGraphic" in2="effect1_dropShadow" result="shape"/>
</filter>
<filter id="filter25_d" x="29.125" y="89.2146" width="18.33" height="32.6833" filterUnits="userSpaceOnUse" color-interpolation-filters="sRGB">
<feFlood flood-opacity="0" result="BackgroundImageFix"/>
<feColorMatrix in="SourceAlpha" type="matrix" values="0 0 0 0 0 0 0 0 0 0 0 0 0 0 0 0 0 0 127 0" result="hardAlpha"/>
<feOffset dx="-3" dy="2"/>
<feColorMatrix type="matrix" values="0 0 0 0 0.866667 0 0 0 0 0.890196 0 0 0 0 0.909804 0 0 0 1 0"/>
<feBlend mode="normal" in2="BackgroundImageFix" result="effect1_dropShadow"/>
<feBlend mode="normal" in="SourceGraphic" in2="effect1_dropShadow" result="shape"/>
</filter>
<filter id="filter26_d" x="36.6621" y="95.7902" width="6.4746" height="6.47793" filterUnits="userSpaceOnUse" color-interpolation-filters="sRGB">
<feFlood flood-opacity="0" result="BackgroundImageFix"/>
<feColorMatrix in="SourceAlpha" type="matrix" values="0 0 0 0 0 0 0 0 0 0 0 0 0 0 0 0 0 0 127 0" result="hardAlpha"/>
<feOffset dx="-1" dy="1"/>
<feColorMatrix type="matrix" values="0 0 0 0 0.639216 0 0 0 0 0.694118 0 0 0 0 0.74902 0 0 0 0.3 0"/>
<feBlend mode="normal" in2="BackgroundImageFix" result="effect1_dropShadow"/>
<feBlend mode="normal" in="SourceGraphic" in2="effect1_dropShadow" result="shape"/>
</filter>
<filter id="filter27_d" x="36.998" y="108.182" width="6.4746" height="6.47793" filterUnits="userSpaceOnUse" color-interpolation-filters="sRGB">
<feFlood flood-opacity="0" result="BackgroundImageFix"/>
<feColorMatrix in="SourceAlpha" type="matrix" values="0 0 0 0 0 0 0 0 0 0 0 0 0 0 0 0 0 0 127 0" result="hardAlpha"/>
<feOffset dx="-1" dy="1"/>
<feColorMatrix type="matrix" values="0 0 0 0 0.639216 0 0 0 0 0.694118 0 0 0 0 0.74902 0 0 0 0.3 0"/>
<feBlend mode="normal" in2="BackgroundImageFix" result="effect1_dropShadow"/>
<feBlend mode="normal" in="SourceGraphic" in2="effect1_dropShadow" result="shape"/>
</filter>
<filter id="filter28_d" x="53.4531" y="102.001" width="6.4746" height="6.47793" filterUnits="userSpaceOnUse" color-interpolation-filters="sRGB">
<feFlood flood-opacity="0" result="BackgroundImageFix"/>
<feColorMatrix in="SourceAlpha" type="matrix" values="0 0 0 0 0 0 0 0 0 0 0 0 0 0 0 0 0 0 127 0" result="hardAlpha"/>
<feOffset dx="-1" dy="1"/>
<feColorMatrix type="matrix" values="0 0 0 0 0.639216 0 0 0 0 0.694118 0 0 0 0 0.74902 0 0 0 0.3 0"/>
<feBlend mode="normal" in2="BackgroundImageFix" result="effect1_dropShadow"/>
<feBlend mode="normal" in="SourceGraphic" in2="effect1_dropShadow" result="shape"/>
</filter>
<filter id="filter29_d" x="63.4531" y="102.001" width="6.4746" height="6.47793" filterUnits="userSpaceOnUse" color-interpolation-filters="sRGB">
<feFlood flood-opacity="0" result="BackgroundImageFix"/>
<feColorMatrix in="SourceAlpha" type="matrix" values="0 0 0 0 0 0 0 0 0 0 0 0 0 0 0 0 0 0 127 0" result="hardAlpha"/>
<feOffset dx="-1" dy="1"/>
<feColorMatrix type="matrix" values="0 0 0 0 0.639216 0 0 0 0 0.694118 0 0 0 0 0.74902 0 0 0 0.3 0"/>
<feBlend mode="normal" in2="BackgroundImageFix" result="effect1_dropShadow"/>
<feBlend mode="normal" in="SourceGraphic" in2="effect1_dropShadow" result="shape"/>
</filter>
<filter id="filter30_d" x="42.2305" y="95.7896" width="9.1175" height="18.5333" filterUnits="userSpaceOnUse" color-interpolation-filters="sRGB">
<feFlood flood-opacity="0" result="BackgroundImageFix"/>
<feColorMatrix in="SourceAlpha" type="matrix" values="0 0 0 0 0 0 0 0 0 0 0 0 0 0 0 0 0 0 127 0" result="hardAlpha"/>
<feOffset dx="-2" dy="1"/>
<feColorMatrix type="matrix" values="0 0 0 0 0.639216 0 0 0 0 0.694118 0 0 0 0 0.74902 0 0 0 0.3 0"/>
<feBlend mode="normal" in2="BackgroundImageFix" result="effect1_dropShadow"/>
<feBlend mode="normal" in="SourceGraphic" in2="effect1_dropShadow" result="shape"/>
</filter>
<filter id="filter31_d" x="29.125" y="146.215" width="18.33" height="32.6833" filterUnits="userSpaceOnUse" color-interpolation-filters="sRGB">
<feFlood flood-opacity="0" result="BackgroundImageFix"/>
<feColorMatrix in="SourceAlpha" type="matrix" values="0 0 0 0 0 0 0 0 0 0 0 0 0 0 0 0 0 0 127 0" result="hardAlpha"/>
<feOffset dx="-3" dy="2"/>
<feColorMatrix type="matrix" values="0 0 0 0 0.866667 0 0 0 0 0.890196 0 0 0 0 0.909804 0 0 0 1 0"/>
<feBlend mode="normal" in2="BackgroundImageFix" result="effect1_dropShadow"/>
<feBlend mode="normal" in="SourceGraphic" in2="effect1_dropShadow" result="shape"/>
</filter>
<filter id="filter32_d" x="36.6621" y="152.79" width="6.4746" height="6.47793" filterUnits="userSpaceOnUse" color-interpolation-filters="sRGB">
<feFlood flood-opacity="0" result="BackgroundImageFix"/>
<feColorMatrix in="SourceAlpha" type="matrix" values="0 0 0 0 0 0 0 0 0 0 0 0 0 0 0 0 0 0 127 0" result="hardAlpha"/>
<feOffset dx="-1" dy="1"/>
<feColorMatrix type="matrix" values="0 0 0 0 0.639216 0 0 0 0 0.694118 0 0 0 0 0.74902 0 0 0 0.3 0"/>
<feBlend mode="normal" in2="BackgroundImageFix" result="effect1_dropShadow"/>
<feBlend mode="normal" in="SourceGraphic" in2="effect1_dropShadow" result="shape"/>
</filter>
<filter id="filter33_d" x="36.998" y="165.182" width="6.4746" height="6.47793" filterUnits="userSpaceOnUse" color-interpolation-filters="sRGB">
<feFlood flood-opacity="0" result="BackgroundImageFix"/>
<feColorMatrix in="SourceAlpha" type="matrix" values="0 0 0 0 0 0 0 0 0 0 0 0 0 0 0 0 0 0 127 0" result="hardAlpha"/>
<feOffset dx="-1" dy="1"/>
<feColorMatrix type="matrix" values="0 0 0 0 0.639216 0 0 0 0 0.694118 0 0 0 0 0.74902 0 0 0 0.3 0"/>
<feBlend mode="normal" in2="BackgroundImageFix" result="effect1_dropShadow"/>
<feBlend mode="normal" in="SourceGraphic" in2="effect1_dropShadow" result="shape"/>
</filter>
<filter id="filter34_d" x="53.4531" y="159.001" width="6.4746" height="6.47793" filterUnits="userSpaceOnUse" color-interpolation-filters="sRGB">
<feFlood flood-opacity="0" result="BackgroundImageFix"/>
<feColorMatrix in="SourceAlpha" type="matrix" values="0 0 0 0 0 0 0 0 0 0 0 0 0 0 0 0 0 0 127 0" result="hardAlpha"/>
<feOffset dx="-1" dy="1"/>
<feColorMatrix type="matrix" values="0 0 0 0 0.639216 0 0 0 0 0.694118 0 0 0 0 0.74902 0 0 0 0.3 0"/>
<feBlend mode="normal" in2="BackgroundImageFix" result="effect1_dropShadow"/>
<feBlend mode="normal" in="SourceGraphic" in2="effect1_dropShadow" result="shape"/>
</filter>
<filter id="filter35_d" x="63.4531" y="159.001" width="6.4746" height="6.47793" filterUnits="userSpaceOnUse" color-interpolation-filters="sRGB">
<feFlood flood-opacity="0" result="BackgroundImageFix"/>
<feColorMatrix in="SourceAlpha" type="matrix" values="0 0 0 0 0 0 0 0 0 0 0 0 0 0 0 0 0 0 127 0" result="hardAlpha"/>
<feOffset dx="-1" dy="1"/>
<feColorMatrix type="matrix" values="0 0 0 0 0.639216 0 0 0 0 0.694118 0 0 0 0 0.74902 0 0 0 0.3 0"/>
<feBlend mode="normal" in2="BackgroundImageFix" result="effect1_dropShadow"/>
<feBlend mode="normal" in="SourceGraphic" in2="effect1_dropShadow" result="shape"/>
</filter>
<filter id="filter36_d" x="42.2305" y="152.79" width="9.1175" height="18.5333" filterUnits="userSpaceOnUse" color-interpolation-filters="sRGB">
<feFlood flood-opacity="0" result="BackgroundImageFix"/>
<feColorMatrix in="SourceAlpha" type="matrix" values="0 0 0 0 0 0 0 0 0 0 0 0 0 0 0 0 0 0 127 0" result="hardAlpha"/>
<feOffset dx="-2" dy="1"/>
<feColorMatrix type="matrix" values="0 0 0 0 0.639216 0 0 0 0 0.694118 0 0 0 0 0.74902 0 0 0 0.3 0"/>
<feBlend mode="normal" in2="BackgroundImageFix" result="effect1_dropShadow"/>
<feBlend mode="normal" in="SourceGraphic" in2="effect1_dropShadow" result="shape"/>
</filter>
<filter id="filter37_d" x="147.975" y="136.278" width="38.8025" height="37.4157" filterUnits="userSpaceOnUse" color-interpolation-filters="sRGB">
<feFlood flood-opacity="0" result="BackgroundImageFix"/>
<feColorMatrix in="SourceAlpha" type="matrix" values="0 0 0 0 0 0 0 0 0 0 0 0 0 0 0 0 0 0 127 0" result="hardAlpha"/>
<feOffset dx="-3" dy="3"/>
<feColorMatrix type="matrix" values="0 0 0 0 0.639216 0 0 0 0 0.694118 0 0 0 0 0.74902 0 0 0 0.3 0"/>
<feBlend mode="normal" in2="BackgroundImageFix" result="effect1_dropShadow"/>
<feBlend mode="normal" in="SourceGraphic" in2="effect1_dropShadow" result="shape"/>
</filter>
<filter id="filter38_d" x="162.607" y="150.787" width="10.76" height="9.76667" filterUnits="userSpaceOnUse" color-interpolation-filters="sRGB">
<feFlood flood-opacity="0" result="BackgroundImageFix"/>
<feColorMatrix in="SourceAlpha" type="matrix" values="0 0 0 0 0 0 0 0 0 0 0 0 0 0 0 0 0 0 127 0" result="hardAlpha"/>
<feOffset dx="-2" dy="1"/>
<feColorMatrix type="matrix" values="0 0 0 0 0.596078 0 0 0 0 0.647059 0 0 0 0 0.701961 0 0 0 1 0"/>
<feBlend mode="normal" in2="BackgroundImageFix" result="effect1_dropShadow"/>
<feBlend mode="normal" in="SourceGraphic" in2="effect1_dropShadow" result="shape"/>
</filter>
</defs>
</svg>
