<?xml version="1.0" encoding="utf-8"?>
<!-- Generator: Adobe Illustrator 23.0.5, SVG Export Plug-In . SVG Version: 6.00 Build 0)  -->
<svg version="1.1" id="Capa_1" xmlns="http://www.w3.org/2000/svg" xmlns:xlink="http://www.w3.org/1999/xlink" x="0px" y="0px"
	 viewBox="0 0 850.4 850.4" style="enable-background:new 0 0 850.4 850.4;" xml:space="preserve">
<style type="text/css">
	.st0{fill:#7721AD;}
	.st1{fill:#FFFFFF;}
	.st2{fill:#381052;}
	.st3{fill:#2AAD65;}
	.st4{fill:#55BD84;}
	.st5{fill:#F5ECDC;}
</style>
<path class="st0" d="M595.1,419.4c-3.1-91.1-78.1-164.3-169.9-164.3c-93.4,0-169.5,75.8-170.1,169.1h0c0,0.2,0,0.3,0,0.5
	c0,0.2,0,0.3,0,0.5c0,93.8,76.3,170.1,170.1,170.1S595.3,519,595.3,425.2C595.3,423.3,595.2,421.3,595.1,419.4z M425.2,576.4
	c-48.2,0-91.2-22.7-118.9-57.9c17.6,11.5,38.7,18.2,61.3,18.2c62,0,112.5-50.5,112.5-112.5c0-23.1-6.9-45.3-20.1-64.2l-15.5,10.8
	c10.9,15.7,16.7,34.2,16.7,53.4c0,51.6-42,93.6-93.6,93.6c-51.4,0-93.3-41.7-93.6-93.1c0.3-83.1,68-150.7,151.2-150.7
	c47.3,0,89.5,21.8,117.3,55.9c-17.3-10.9-37.8-17.2-59.7-17.2c-62,0-112.5,50.5-112.5,112.5c0,23.1,6.9,45.3,20.1,64.2l15.5-10.8
	c-10.9-15.7-16.7-34.2-16.7-53.4c0-51.6,42-93.6,93.6-93.6c50,0,91,39.4,93.5,88.8c0.1,1.6,0.1,3.2,0.1,4.8
	C576.4,508.6,508.6,576.4,425.2,576.4z"/>
</svg>
