<?xml version="1.0" encoding="UTF-8"?>
<svg id="Capa_1" data-name="Capa 1" xmlns="http://www.w3.org/2000/svg" xmlns:xlink="http://www.w3.org/1999/xlink" viewBox="560 470 770 80">
  <defs>
    <linearGradient id="Degradado_sin_nombre_10" data-name="Degradado sin nombre 10" x1="597.9" y1="670.4" x2="947.4" y2="670.4" gradientUnits="userSpaceOnUse">
      <stop offset="0" stop-color="#0c0931"/>
      <stop offset=".5" stop-color="#1d1856"/>
      <stop offset="1" stop-color="#c200db"/>
    </linearGradient>
    <linearGradient id="Degradado_sin_nombre_10-2" data-name="Degradado sin nombre 10" x1="585" y1="457.9" x2="1335" y2="457.9" xlink:href="#Degradado_sin_nombre_10"/>
  </defs>
  <path style="stroke-width: 0px; fill: url(#Degradado_sin_nombre_10);" class="cls-3" d="m842.2,609.7v19.2c0,57.8-31.4,78.8-71.4,78.8s-62.1-16.6-68.9-42.5h-104c9.3,81.8,75.7,133.5,177.8,133.5s171.7-78.1,171.7-169.8v-86.9l-105.2,67.7Z"/>
  <path style="stroke-width: 0px; fill: url(#Degradado_sin_nombre_10-2);" class="cls-2" d="m1335,457.9c0,108.9-78.8,176.6-179.7,176.6s-146.4-43.8-168.8-117.6l98.8-63.5c0,1.5,0,3,0,4.6,0,57.8,32,85.5,70.1,85.5s72.6-27.7,72.6-85.5-27.1-79-58.9-84.5c-4.1-.7-8.2-1.1-12.4-1.1s-9.2.4-13.7,1.2c-25.8,4.7-47.3,23.1-54.8,56.7l-106.1,68.3-34.6,22.3-105.2,67.7v-8.2c-3.6,5.7-7.8,11.2-12.6,16.3-5.3,5.6-11.2,10.8-17.8,15.4-19.5,13.6-44.9,22.4-75.4,22.4-84.3,0-151.3-68.9-151.3-177.2s67-176,151.3-176,87.4,22.8,105.8,53.5v-48.6h105.2v76.1l-118.1,80.8c-4.9-53.1-41.6-82.1-83-82.1s-83.6,32.9-83.6,93.9,39.7,95.2,83.6,95.2,49.9-11.3,65.4-32.8c9.9-13.6,16.4-31.2,17.8-52.7h0c0-.1,117.8-80.8,117.8-80.8l87.4-59.8c1.2-1,2.4-2.1,3.6-3.1.9-.8,1.9-1.5,2.8-2.3.6-.5,1.2-1,1.8-1.4,2.2-1.7,4.5-3.3,6.8-4.9,1.3-.9,2.6-1.8,4-2.6,2.7-1.7,5.4-3.4,8.2-4.9,1.4-.8,2.8-1.5,4.2-2.3h0c0,0,0-.1.1-.1,2.1-1.1,4.2-2.1,6.3-3.2h0c2.1-1,4.3-2,6.4-2.9,1.5-.7,3.1-1.3,4.7-1.9,22.1-8.7,46.7-13.3,72.8-13.3,100.9,0,178.4,67.7,178.4,176.6Z"/>
  <path style="stroke-width: 0px; " class="cls-1" d="m842.2,580.3v8.2l-12.6,8.1c4.8-5.1,9-10.6,12.6-16.3Z"/>
  <path style="stroke-width: 0px; " class="cls-1" d="m842.2,580.3v8.2l-12.6,8.1c4.8-5.1,9-10.6,12.6-16.3Z"/>
</svg>