<svg width="681" height="201" viewBox="0 0 681 201" fill="none" xmlns="http://www.w3.org/2000/svg">
<path d="M100.2 200.4C155.2 200.4 200.1 155.8 200.4 100.8C200.4 100.7 200.4 100.6 200.4 100.5C200.4 100.4 200.4 100.3 200.4 100.2C200.4 45 155.5 0 100.2 0C44.9 0 0 44.9 0 100.2C0 101.3 -1.52737e-06 102.5 0.0999985 103.6C1.9 157.3 46.1 200.4 100.2 200.4ZM31.1 156.3C41.3 162.7 53.4 166.4 66.3 166.4C102.8 166.4 132.6 136.7 132.6 100.1C132.6 86.5 128.5 73.4 120.8 62.3L111.7 68.7C118.1 78 121.5 88.8 121.5 100.2C121.5 130.6 96.8 155.3 66.4 155.3C36.9 155.3 12.8 132.1 11.3 103C11.3 102.1 11.2 101.1 11.2 100.2C11.2 51.1 51.2 11.1 100.3 11.1C128.7 11.1 154 24.5 170.3 45.2C159.9 38.4 147.5 34.5 134.2 34.5C97.7 34.5 67.9 64.2 67.9 100.8C67.9 114.4 72 127.5 79.7 138.6L88.8 132.2C82.4 122.9 79 112.1 79 100.7C79 70.3 103.7 45.6 134.1 45.6C164.4 45.6 189.1 70.2 189.2 100.4C189 149.4 149.2 189.2 100.1 189.2C72.4 189.3 47.5 176.4 31.1 156.3Z" fill="#7721AD"/>
<path d="M246.7 42.4H257.8V87.6H289.8V97.4H246.7V42.4Z" fill="#7721AD"/>
<path d="M325.1 42.4H336.9L363.5 97.4H351.8L347.4 88.2H315.3L311 97.4H299.3L325.1 42.4ZM343 79L331.1 54L319.5 79H343Z" fill="#7721AD"/>
<path d="M375.3 42.4H403.3C407.5 42.4 411.2 42.8 414.3 43.7C417.4 44.6 420 45.9 422 47.5C424 49.2 425.6 51.2 426.6 53.6C427.6 56 428.1 58.7 428.1 61.7C428.1 63.7 427.9 65.7 427.4 67.5C426.9 69.3 426.2 71 425.1 72.6C424.1 74.1 422.8 75.5 421.2 76.7C419.7 77.9 417.8 78.9 415.7 79.7L427.7 97.3H414.1L403.8 81.7H403.5H386.6V97.3H375.5V42.4H375.3ZM403.5 72.1C405.6 72.1 407.5 71.9 409 71.4C410.6 70.9 411.9 70.2 413 69.3C414.1 68.4 414.9 67.3 415.4 66C415.9 64.7 416.2 63.3 416.2 61.7C416.2 58.6 415.1 56.3 413 54.6C410.9 52.9 407.7 52.1 403.5 52.1H386.4V72.1H403.5V72.1Z" fill="#7721AD"/>
<path d="M464.2 42.4H476L502.6 97.4H490.9L486.5 88.2H454.4L450.1 97.4H438.4L464.2 42.4ZM482.1 79L470.2 54L458.6 79H482.1Z" fill="#7721AD"/>
<path d="M513.7 42.4H524.9V97.4H513.7V42.4Z" fill="#7721AD"/>
<path d="M539.2 69.4001C539.2 65.5001 539.9 61.9001 541.4 58.6001C542.9 55.2001 545 52.3 547.8 49.8C550.6 47.3 554 45.4001 558.1 43.9001C562.2 42.5001 566.8 41.8 572.1 41.8C574 41.8 575.9 41.9001 577.8 42.1001C579.7 42.3001 581.6 42.6001 583.5 43.0001C585.4 43.4001 587.2 44.0001 589 44.6001C590.8 45.2001 592.5 46.0001 594 46.9001L588.9 55.3C587.9 54.7 586.8 54.2 585.6 53.8C584.4 53.3 583.1 53.0001 581.7 52.6001C580.3 52.3001 578.9 52.0001 577.4 51.9001C575.9 51.7001 574.4 51.7001 572.9 51.7001C569.4 51.7001 566.3 52.1001 563.6 53.0001C560.9 53.9001 558.6 55.1001 556.7 56.7001C554.8 58.3001 553.4 60.2001 552.4 62.4001C551.4 64.6001 550.9 67.0001 550.9 69.6001C550.9 72.3001 551.4 74.8001 552.4 77.1001C553.4 79.4001 554.9 81.3001 556.8 83.0001C558.7 84.6001 561 85.9001 563.7 86.9001C566.4 87.8001 569.4 88.3 572.7 88.3C575.3 88.3 577.8 88.0001 580 87.4001C582.2 86.8001 584.1 86.0001 585.8 84.9001C587.4 83.8001 588.8 82.5001 589.8 80.9001C590.8 79.3001 591.5 77.6001 591.8 75.6001H572.6V66.4001H601.8C602.4 69.2001 602.6 72.0001 602.3 74.6001C602.1 77.3001 601.5 79.8001 600.5 82.1001C599.5 84.5001 598.1 86.6001 596.4 88.6001C594.7 90.6001 592.6 92.3001 590.2 93.7001C587.8 95.1001 585 96.2001 582 97.0001C578.9 97.8001 575.6 98.2001 571.9 98.2001C566.8 98.2001 562.2 97.5001 558.2 95.9001C554.2 94.4001 550.7 92.3001 547.9 89.7001C545.1 87.1001 542.9 84.1001 541.4 80.6001C540 77.1001 539.2 73.4001 539.2 69.4001Z" fill="#7721AD"/>
<path d="M614.6 69.8C614.6 65.7 615.4 61.9001 616.9 58.4001C618.4 55.0001 620.6 52.0001 623.3 49.5001C626.1 47.0001 629.4 45.1 633.2 43.8C637.1 42.4 641.3 41.8 646 41.8C650.7 41.8 654.9 42.5 658.8 43.8C662.7 45.2 666 47.1001 668.7 49.5001C671.5 52.0001 673.6 54.9001 675.1 58.4001C676.6 61.8001 677.4 65.6 677.4 69.8C677.4 74 676.6 77.8 675.1 81.3C673.6 84.8 671.4 87.8 668.7 90.3C665.9 92.8 662.6 94.8001 658.8 96.2001C654.9 97.6001 650.7 98.3 646 98.3C641.3 98.3 637 97.6001 633.2 96.2001C629.3 94.8001 626 92.9 623.3 90.3C620.5 87.8 618.4 84.8 616.9 81.3C615.4 77.8 614.6 73.9 614.6 69.8ZM625.8 69.8C625.8 72.6 626.3 75.2001 627.3 77.5001C628.3 79.8001 629.7 81.7 631.6 83.3C633.4 84.9 635.6 86.1001 638 87.0001C640.5 87.9001 643.2 88.3 646.1 88.3C649 88.3 651.7 87.9001 654.2 87.0001C656.7 86.1001 658.8 84.9 660.6 83.3C662.4 81.7 663.8 79.8001 664.9 77.5001C665.9 75.2001 666.4 72.7 666.4 69.8C666.4 67 665.9 64.4001 664.9 62.2001C663.9 59.9001 662.4 58.0001 660.6 56.5001C658.8 54.9001 656.7 53.8001 654.2 52.9001C651.7 52.1001 649 51.7001 646.1 51.7001C643.2 51.7001 640.5 52.1001 638 52.9001C635.5 53.7001 633.4 54.9001 631.6 56.5001C629.8 58.1001 628.4 60.0001 627.3 62.2001C626.3 64.4001 625.8 66.9 625.8 69.8Z" fill="#7721AD"/>
<path d="M254.8 149.9C254.5 150.1 254.1 150.2 253.6 150.4C253.1 150.6 252.6 150.8 251.9 150.9C251.3 151 250.6 151.1 250 151.1C249.2 151.1 248.5 151 247.8 150.7C247.1 150.4 246.6 150 246.2 149.4C245.8 148.8 245.6 148 245.6 147V135.6H243.2V132.6H245.6V126.6H249.5V132.6H253.5V135.6H249.5V145.8C249.5 146.4 249.8 146.9 250.1 147.2C250.5 147.5 250.9 147.7 251.5 147.7C252 147.7 252.6 147.6 253 147.4C253.5 147.2 253.9 147.1 254.1 146.9L254.8 149.9Z" fill="#7721AD"/>
<path d="M273.7 150.7H269.8V140.5C269.8 138.9 269.5 137.6 268.9 136.8C268.3 136 267.4 135.6 266.3 135.6C265.6 135.6 264.9 135.8 264.2 136.2C263.5 136.6 262.8 137.1 262.3 137.7C261.7 138.3 261.3 139.1 261.1 139.9V150.7H257.2V125.1H261.1V136.2C261.8 135 262.8 134 264 133.3C265.2 132.6 266.5 132.2 267.9 132.2C269 132.2 270 132.4 270.7 132.8C271.4 133.2 272 133.7 272.5 134.4C272.9 135.1 273.2 135.9 273.4 136.8C273.6 137.7 273.7 138.6 273.7 139.6V150.7Z" fill="#7721AD"/>
<path d="M286.4 151.1C285 151.1 283.7 150.8 282.5 150.4C281.3 149.9 280.3 149.2 279.5 148.3C278.7 147.4 278 146.4 277.6 145.3C277.2 144.2 276.9 143 276.9 141.7C276.9 140 277.3 138.4 278.1 137C278.9 135.6 280 134.4 281.4 133.6C282.8 132.7 284.5 132.3 286.4 132.3C288.3 132.3 290 132.7 291.4 133.6C292.8 134.5 293.9 135.6 294.6 137C295.4 138.4 295.8 139.9 295.8 141.6C295.8 141.9 295.8 142.1 295.8 142.4C295.8 142.6 295.8 142.8 295.7 143H281C281.1 144.1 281.4 145 281.9 145.8C282.4 146.6 283.1 147.2 283.9 147.7C284.7 148.2 285.6 148.4 286.5 148.4C287.5 148.4 288.5 148.1 289.4 147.6C290.3 147.1 291 146.4 291.3 145.6L294.6 146.6C294.2 147.5 293.6 148.3 292.8 149C292 149.7 291 150.3 289.9 150.7C288.9 150.9 287.7 151.1 286.4 151.1ZM280.9 140.3H292C291.9 139.3 291.6 138.4 291.1 137.6C290.6 136.8 289.9 136.2 289.1 135.7C288.3 135.3 287.4 135 286.4 135C285.4 135 284.6 135.2 283.8 135.7C283 136.1 282.3 136.8 281.8 137.6C281.3 138.4 281 139.3 280.9 140.3Z" fill="#7721AD"/>
<path d="M316 151.1C314.6 151.1 313.3 150.8 312.1 150.4C310.9 149.9 309.9 149.2 309.1 148.3C308.3 147.4 307.6 146.4 307.2 145.3C306.7 144.2 306.5 143 306.5 141.7C306.5 140 306.9 138.4 307.7 137C308.5 135.6 309.6 134.4 311 133.6C312.4 132.7 314.1 132.3 316 132.3C317.9 132.3 319.5 132.7 320.9 133.5C322.3 134.3 323.3 135.4 324 136.8L320.2 138C319.8 137.2 319.2 136.6 318.4 136.2C317.6 135.8 316.8 135.5 315.9 135.5C314.9 135.5 313.9 135.8 313.1 136.3C312.3 136.8 311.6 137.5 311.1 138.4C310.6 139.3 310.4 140.4 310.4 141.6C310.4 142.8 310.6 143.8 311.1 144.7C311.6 145.6 312.3 146.4 313.1 146.9C313.9 147.4 314.9 147.7 315.9 147.7C316.5 147.7 317.1 147.6 317.7 147.4C318.3 147.2 318.8 146.9 319.3 146.5C319.7 146.1 320.1 145.7 320.2 145.2L324 146.3C323.6 147.2 323 148 322.2 148.7C321.4 149.4 320.5 150 319.4 150.4C318.5 150.9 317.3 151.1 316 151.1Z" fill="#7721AD"/>
<path d="M326.7 142.9V139.4H337.2V142.9H326.7Z" fill="#7721AD"/>
<path d="M350.4 151.1C349 151.1 347.7 150.8 346.5 150.4C345.3 149.9 344.3 149.2 343.5 148.3C342.7 147.4 342 146.4 341.6 145.3C341.1 144.2 340.9 143 340.9 141.7C340.9 140 341.3 138.4 342.1 137C342.9 135.6 344 134.4 345.4 133.6C346.8 132.7 348.5 132.3 350.4 132.3C352.3 132.3 353.9 132.7 355.3 133.5C356.7 134.3 357.7 135.4 358.4 136.8L354.6 138C354.2 137.2 353.6 136.6 352.8 136.2C352 135.8 351.2 135.5 350.3 135.5C349.3 135.5 348.3 135.8 347.5 136.3C346.7 136.8 346 137.5 345.5 138.4C345 139.3 344.8 140.4 344.8 141.6C344.8 142.8 345 143.8 345.5 144.7C346 145.6 346.7 146.4 347.5 146.9C348.3 147.4 349.3 147.7 350.3 147.7C350.9 147.7 351.5 147.6 352.1 147.4C352.7 147.2 353.2 146.9 353.7 146.5C354.1 146.1 354.5 145.7 354.6 145.2L358.4 146.3C358 147.2 357.4 148 356.6 148.7C355.8 149.4 354.9 150 353.8 150.4C352.9 150.9 351.7 151.1 350.4 151.1Z" fill="#7721AD"/>
<path d="M369.6 151.1C368.1 151.1 366.8 150.8 365.7 150.4C364.6 149.9 363.6 149.2 362.7 148.3C361.9 147.4 361.2 146.4 360.8 145.3C360.4 144.2 360.1 143 360.1 141.7C360.1 140.4 360.3 139.2 360.8 138.1C361.2 137 361.9 136 362.7 135.1C363.5 134.2 364.5 133.5 365.7 133C366.9 132.5 368.2 132.3 369.6 132.3C371 132.3 372.3 132.5 373.5 133C374.7 133.5 375.7 134.2 376.5 135.1C377.3 136 378 137 378.4 138.1C378.8 139.2 379.1 140.4 379.1 141.7C379.1 143 378.9 144.2 378.4 145.3C378 146.4 377.3 147.4 376.5 148.3C375.7 149.2 374.7 149.9 373.5 150.4C372.3 150.8 371 151.1 369.6 151.1ZM364.1 141.7C364.1 142.9 364.3 143.9 364.8 144.8C365.3 145.7 365.9 146.4 366.8 147C367.6 147.5 368.5 147.8 369.6 147.8C370.6 147.8 371.5 147.5 372.4 147C373.2 146.5 373.9 145.7 374.4 144.8C374.9 143.9 375.1 142.8 375.1 141.7C375.1 140.5 374.9 139.5 374.4 138.6C373.9 137.7 373.2 136.9 372.4 136.4C371.6 135.9 370.7 135.6 369.6 135.6C368.6 135.6 367.6 135.9 366.8 136.4C366 137 365.3 137.7 364.8 138.6C364.3 139.5 364.1 140.5 364.1 141.7Z" fill="#7721AD"/>
<path d="M410.4 150.7H406.5V140.5C406.5 138.8 406.2 137.6 405.7 136.8C405.1 136 404.3 135.6 403.2 135.6C402.1 135.6 401.1 136 400.2 136.8C399.3 137.6 398.6 138.6 398.3 139.9V150.7H394.4V140.5C394.4 138.8 394.1 137.6 393.6 136.8C393 136 392.2 135.6 391.2 135.6C390.1 135.6 389.1 136 388.2 136.8C387.3 137.6 386.6 138.6 386.2 139.9V150.7H382.3V132.5H385.8V136.2C386.5 134.9 387.5 133.9 388.7 133.3C389.9 132.6 391.2 132.3 392.8 132.3C394.3 132.3 395.5 132.7 396.4 133.5C397.3 134.3 397.8 135.3 398 136.5C398.8 135.2 399.8 134.1 400.9 133.4C402.1 132.7 403.4 132.3 404.9 132.3C406 132.3 406.9 132.5 407.6 132.9C408.3 133.3 408.9 133.8 409.3 134.5C409.7 135.2 410 136 410.2 136.9C410.4 137.8 410.5 138.7 410.5 139.7V150.7H410.4Z" fill="#7721AD"/>
<path d="M442.9 150.7H439V140.5C439 138.8 438.7 137.6 438.2 136.8C437.6 136 436.8 135.6 435.7 135.6C434.6 135.6 433.6 136 432.7 136.8C431.8 137.6 431.1 138.6 430.8 139.9V150.7H426.9V140.5C426.9 138.8 426.6 137.6 426.1 136.8C425.5 136 424.7 135.6 423.7 135.6C422.6 135.6 421.6 136 420.7 136.8C419.8 137.6 419.1 138.6 418.7 139.9V150.7H414.8V132.5H418.3V136.2C419 134.9 420 133.9 421.2 133.3C422.4 132.6 423.7 132.3 425.3 132.3C426.8 132.3 428 132.7 428.9 133.5C429.8 134.3 430.3 135.3 430.5 136.5C431.3 135.2 432.3 134.1 433.4 133.4C434.6 132.7 435.9 132.3 437.4 132.3C438.5 132.3 439.4 132.5 440.1 132.9C440.8 133.3 441.4 133.8 441.8 134.5C442.2 135.2 442.5 136 442.7 136.9C442.9 137.8 443 138.7 443 139.7V150.7H442.9Z" fill="#7721AD"/>
<path d="M455.6 151.1C454.2 151.1 452.9 150.8 451.7 150.4C450.5 149.9 449.5 149.2 448.7 148.3C447.9 147.4 447.2 146.4 446.8 145.3C446.4 144.2 446.1 143 446.1 141.7C446.1 140 446.5 138.4 447.3 137C448.1 135.6 449.2 134.4 450.6 133.6C452 132.7 453.7 132.3 455.6 132.3C457.5 132.3 459.2 132.7 460.6 133.6C462 134.5 463.1 135.6 463.8 137C464.6 138.4 465 139.9 465 141.6C465 141.9 465 142.1 465 142.4C465 142.6 465 142.8 464.9 143H450.2C450.3 144.1 450.6 145 451.1 145.8C451.6 146.6 452.3 147.2 453.1 147.7C453.9 148.2 454.8 148.4 455.7 148.4C456.7 148.4 457.7 148.1 458.6 147.6C459.5 147.1 460.2 146.4 460.5 145.6L463.8 146.6C463.4 147.5 462.8 148.3 462 149C461.2 149.7 460.2 150.3 459.1 150.7C458.1 150.9 456.9 151.1 455.6 151.1ZM450.1 140.3H461.2C461.1 139.3 460.8 138.4 460.3 137.6C459.8 136.8 459.1 136.2 458.3 135.7C457.5 135.3 456.6 135 455.6 135C454.6 135 453.8 135.2 453 135.7C452.2 136.1 451.5 136.8 451 137.6C450.5 138.4 450.2 139.3 450.1 140.3Z" fill="#7721AD"/>
<path d="M478.5 135.7C477 135.7 475.7 136.1 474.5 136.7C473.3 137.4 472.5 138.3 472 139.5V150.7H468.1V132.5H471.7V136.5C472.3 135.2 473.2 134.2 474.2 133.5C475.2 132.8 476.3 132.3 477.5 132.3C477.7 132.3 477.9 132.3 478.1 132.3C478.3 132.3 478.4 132.3 478.5 132.3V135.7Z" fill="#7721AD"/>
<path d="M489.1 151.1C487.7 151.1 486.4 150.8 485.2 150.4C484 149.9 483 149.2 482.2 148.3C481.4 147.4 480.7 146.4 480.3 145.3C479.8 144.2 479.6 143 479.6 141.7C479.6 140 480 138.4 480.8 137C481.6 135.6 482.7 134.4 484.1 133.6C485.5 132.7 487.2 132.3 489.1 132.3C491 132.3 492.6 132.7 494 133.5C495.4 134.3 496.4 135.4 497.1 136.8L493.3 138C492.9 137.2 492.3 136.6 491.5 136.2C490.7 135.8 489.9 135.5 489 135.5C488 135.5 487 135.8 486.2 136.3C485.4 136.8 484.7 137.5 484.2 138.4C483.7 139.3 483.5 140.4 483.5 141.6C483.5 142.8 483.7 143.8 484.2 144.7C484.7 145.6 485.4 146.4 486.2 146.9C487 147.4 488 147.7 489 147.7C489.6 147.7 490.2 147.6 490.8 147.4C491.4 147.2 491.9 146.9 492.4 146.5C492.8 146.1 493.2 145.7 493.3 145.2L497.1 146.3C496.7 147.2 496.1 148 495.3 148.7C494.5 149.4 493.6 150 492.5 150.4C491.6 150.9 490.5 151.1 489.1 151.1Z" fill="#7721AD"/>
<path d="M508.4 151.1C507 151.1 505.7 150.8 504.5 150.4C503.3 149.9 502.3 149.2 501.5 148.3C500.7 147.4 500 146.4 499.6 145.3C499.2 144.2 498.9 143 498.9 141.7C498.9 140 499.3 138.4 500.1 137C500.9 135.6 502 134.4 503.4 133.6C504.8 132.7 506.5 132.3 508.4 132.3C510.3 132.3 512 132.7 513.4 133.6C514.8 134.5 515.9 135.6 516.6 137C517.4 138.4 517.8 139.9 517.8 141.6C517.8 141.9 517.8 142.1 517.8 142.4C517.8 142.6 517.8 142.8 517.7 143H503C503.1 144.1 503.4 145 503.9 145.8C504.4 146.6 505.1 147.2 505.9 147.7C506.7 148.2 507.6 148.4 508.5 148.4C509.5 148.4 510.5 148.1 511.4 147.6C512.3 147.1 513 146.4 513.3 145.6L516.6 146.6C516.2 147.5 515.6 148.3 514.8 149C514 149.7 513 150.3 511.9 150.7C510.9 150.9 509.7 151.1 508.4 151.1ZM502.9 140.3H514C513.9 139.3 513.6 138.4 513.1 137.6C512.6 136.8 511.9 136.2 511.1 135.7C510.3 135.3 509.4 135 508.4 135C507.4 135 506.6 135.2 505.8 135.7C505 136.1 504.3 136.8 503.8 137.6C503.2 138.4 503 139.3 502.9 140.3Z" fill="#7721AD"/>
<path d="M530.3 155.1C530.7 155.1 531 155.2 531.3 155.3C531.6 155.4 531.9 155.4 532.1 155.4C532.5 155.4 532.8 155.3 533.1 155C533.4 154.8 533.7 154.3 534 153.7C534.3 153.1 534.7 152.1 535.1 150.9L527.6 132.6H531.6L537.2 146.9L542.2 132.6H545.9L537.6 155.1C537.3 155.8 537 156.4 536.5 157C536 157.6 535.4 158 534.7 158.3C534 158.6 533.1 158.8 532.1 158.8C531.8 158.8 531.5 158.8 531.2 158.7C530.9 158.7 530.6 158.6 530.2 158.5V155.1H530.3Z" fill="#7721AD"/>
<path d="M556.1 151.1C554.6 151.1 553.3 150.8 552.2 150.4C551.1 149.9 550.1 149.2 549.2 148.3C548.4 147.4 547.7 146.4 547.3 145.3C546.9 144.2 546.6 143 546.6 141.7C546.6 140.4 546.8 139.2 547.3 138.1C547.7 137 548.4 136 549.2 135.1C550 134.2 551 133.5 552.2 133C553.4 132.5 554.7 132.3 556.1 132.3C557.5 132.3 558.8 132.5 560 133C561.2 133.5 562.2 134.2 563 135.1C563.8 136 564.5 137 564.9 138.1C565.3 139.2 565.6 140.4 565.6 141.7C565.6 143 565.4 144.2 564.9 145.3C564.5 146.4 563.8 147.4 563 148.3C562.2 149.2 561.2 149.9 560 150.4C558.9 150.8 557.6 151.1 556.1 151.1ZM550.7 141.7C550.7 142.9 550.9 143.9 551.4 144.8C551.9 145.7 552.5 146.4 553.4 147C554.2 147.5 555.1 147.8 556.2 147.8C557.2 147.8 558.1 147.5 559 147C559.8 146.5 560.5 145.7 561 144.8C561.5 143.9 561.7 142.8 561.7 141.7C561.7 140.5 561.5 139.5 561 138.6C560.5 137.7 559.8 136.9 559 136.4C558.2 135.9 557.3 135.6 556.2 135.6C555.2 135.6 554.2 135.9 553.4 136.4C552.6 137 551.9 137.7 551.4 138.6C550.9 139.5 550.7 140.5 550.7 141.7Z" fill="#7721AD"/>
<path d="M568.8 143.7V132.6H572.7V143C572.7 144.6 573 145.8 573.6 146.7C574.2 147.5 575.1 147.9 576.2 147.9C576.9 147.9 577.6 147.7 578.3 147.4C579 147.1 579.6 146.7 580.2 146.1C580.8 145.5 581.2 144.8 581.6 144V132.6H585.5V146.5C585.5 146.9 585.6 147.3 585.7 147.4C585.9 147.6 586.1 147.7 586.5 147.7V150.8C586.1 150.9 585.8 150.9 585.5 150.9C585.2 150.9 585 150.9 584.8 150.9C584.1 150.9 583.5 150.7 583 150.3C582.5 149.9 582.3 149.4 582.2 148.8L582.1 147C581.3 148.3 580.2 149.3 578.9 150C577.6 150.7 576.1 151 574.6 151C572.7 151 571.2 150.4 570.2 149.1C569.3 148 568.8 146.1 568.8 143.7Z" fill="#7721AD"/>
<path d="M615.4 150.7H611.5V140.5C611.5 138.8 611.2 137.6 610.7 136.8C610.2 136 609.3 135.6 608.3 135.6C607.6 135.6 606.8 135.8 606.1 136.2C605.4 136.6 604.7 137.1 604.1 137.7C603.5 138.3 603.1 139.1 602.8 139.9V150.7H599V132.5H602.5V136.2C603 135.4 603.6 134.7 604.3 134.1C605.1 133.5 605.9 133 606.9 132.7C607.9 132.4 608.9 132.2 610 132.2C611.1 132.2 612 132.4 612.7 132.8C613.4 133.2 614 133.7 614.4 134.4C614.8 135.1 615.1 135.9 615.2 136.8C615.4 137.7 615.4 138.6 615.4 139.6V150.7V150.7Z" fill="#7721AD"/>
<path d="M628.2 151.1C626.8 151.1 625.5 150.8 624.3 150.4C623.1 149.9 622.1 149.2 621.3 148.3C620.5 147.4 619.8 146.4 619.4 145.3C619 144.2 618.7 143 618.7 141.7C618.7 140 619.1 138.4 619.9 137C620.7 135.6 621.8 134.4 623.2 133.6C624.6 132.7 626.3 132.3 628.2 132.3C630.1 132.3 631.8 132.7 633.2 133.6C634.6 134.5 635.7 135.6 636.4 137C637.2 138.4 637.6 139.9 637.6 141.6C637.6 141.9 637.6 142.1 637.6 142.4C637.6 142.6 637.6 142.8 637.5 143H622.8C622.9 144.1 623.2 145 623.7 145.8C624.2 146.6 624.9 147.2 625.7 147.7C626.5 148.2 627.4 148.4 628.3 148.4C629.3 148.4 630.3 148.1 631.2 147.6C632.1 147.1 632.8 146.4 633.1 145.6L636.4 146.6C636 147.5 635.4 148.3 634.6 149C633.8 149.7 632.8 150.3 631.7 150.7C630.7 150.9 629.5 151.1 628.2 151.1ZM622.7 140.3H633.8C633.7 139.3 633.4 138.4 632.9 137.6C632.4 136.8 631.7 136.2 630.9 135.7C630.1 135.3 629.2 135 628.2 135C627.2 135 626.4 135.2 625.6 135.7C624.8 136.1 624.1 136.8 623.6 137.6C623.1 138.4 622.8 139.3 622.7 140.3Z" fill="#7721AD"/>
<path d="M649.2 151.1C647.8 151.1 646.5 150.8 645.3 150.4C644.1 149.9 643.1 149.2 642.3 148.3C641.5 147.4 640.8 146.4 640.4 145.3C640 144.2 639.7 143 639.7 141.7C639.7 140 640.1 138.4 640.9 137C641.7 135.6 642.8 134.4 644.2 133.6C645.6 132.7 647.3 132.3 649.2 132.3C651.1 132.3 652.8 132.7 654.2 133.6C655.6 134.5 656.7 135.6 657.4 137C658.2 138.4 658.6 139.9 658.6 141.6C658.6 141.9 658.6 142.1 658.6 142.4C658.6 142.6 658.6 142.8 658.5 143H643.8C643.9 144.1 644.2 145 644.7 145.8C645.2 146.6 645.9 147.2 646.7 147.7C647.5 148.2 648.4 148.4 649.3 148.4C650.3 148.4 651.3 148.1 652.2 147.6C653.1 147.1 653.8 146.4 654.1 145.6L657.4 146.6C657 147.5 656.4 148.3 655.6 149C654.8 149.7 653.8 150.3 652.7 150.7C651.7 150.9 650.5 151.1 649.2 151.1ZM643.7 140.3H654.8C654.7 139.3 654.4 138.4 653.9 137.6C653.4 136.8 652.7 136.2 651.9 135.7C651.1 135.3 650.2 135 649.2 135C648.2 135 647.4 135.2 646.6 135.7C645.8 136.1 645.1 136.8 644.6 137.6C644.1 138.4 643.8 139.3 643.7 140.3Z" fill="#7721AD"/>
<path d="M660.7 141.7C660.7 140 661.1 138.4 661.8 137C662.5 135.6 663.5 134.4 664.7 133.6C665.9 132.8 667.4 132.3 669 132.3C670.4 132.3 671.7 132.7 672.8 133.4C673.9 134.1 674.8 135 675.4 136.1V125.2H679.3V146.5C679.3 146.9 679.4 147.3 679.5 147.4C679.7 147.6 679.9 147.7 680.3 147.7V150.8C679.6 150.9 679 151 678.6 151C677.9 151 677.3 150.8 676.8 150.4C676.3 150 676 149.5 676 148.9V147.5C675.3 148.7 674.4 149.6 673.2 150.2C672 150.8 670.8 151.2 669.5 151.2C668.2 151.2 667.1 151 666 150.5C664.9 150 664 149.3 663.2 148.4C662.4 147.5 661.8 146.5 661.4 145.4C660.9 144.1 660.7 142.9 660.7 141.7ZM675.4 144.2V139.5C675.1 138.8 674.7 138.1 674.2 137.5C673.6 136.9 673 136.4 672.3 136.1C671.6 135.8 670.9 135.6 670.2 135.6C669.4 135.6 668.6 135.8 668 136.1C667.3 136.4 666.8 136.9 666.3 137.5C665.8 138.1 665.5 138.7 665.2 139.5C664.9 140.2 664.8 141 664.8 141.8C664.8 142.6 664.9 143.4 665.2 144.1C665.5 144.8 665.9 145.5 666.4 146C666.9 146.6 667.5 147 668.2 147.3C668.9 147.6 669.6 147.8 670.5 147.8C671 147.8 671.5 147.7 672.1 147.5C672.6 147.3 673.1 147.1 673.6 146.7C674.1 146.4 674.5 146 674.8 145.6C675.1 145.2 675.3 144.7 675.4 144.2Z" fill="#7721AD"/>
</svg>
