<svg width="443" height="340" viewBox="0 0 443 340" fill="none" xmlns="http://www.w3.org/2000/svg">
<path opacity="0.6" fill-rule="evenodd" clip-rule="evenodd" d="M244.468 289.419C178.54 289.419 125.094 235.984 125.094 170.069C125.094 104.154 178.54 50.7191 244.468 50.7191C310.397 50.7191 363.842 104.154 363.842 170.069C363.842 235.984 310.397 289.419 244.468 289.419Z" stroke="#A3B1BF" stroke-width="1.62" stroke-linejoin="round" stroke-dasharray="12.15"/>
<path opacity="0.6" fill-rule="evenodd" clip-rule="evenodd" d="M244.299 339.084C150.921 339.084 75.2227 263.401 75.2227 170.042C75.2227 76.6827 150.921 1 244.299 1C337.677 1 413.375 76.6827 413.375 170.042C413.375 263.401 337.677 339.084 244.299 339.084Z" stroke="#A3B1BF" stroke-width="1.62" stroke-linejoin="round" stroke-dasharray="12.15"/>
<path fill-rule="evenodd" clip-rule="evenodd" d="M98.0936 195.766L118.371 194.714L103.528 208.565L98.0936 195.766Z" fill="#F5F5F5"/>
<path fill-rule="evenodd" clip-rule="evenodd" d="M98.0936 195.766L118.371 194.714L103.528 208.565L98.0936 195.766V195.766Z" stroke="#A3B1BF" stroke-width="1.62" stroke-linejoin="round"/>
<path fill-rule="evenodd" clip-rule="evenodd" d="M41.515 208.337L61.7666 199.743L75.4314 231.927L55.1798 240.52L41.515 208.337V208.337Z" stroke="#A3B1BF" stroke-width="1.62" stroke-linejoin="round"/>
<path fill-rule="evenodd" clip-rule="evenodd" d="M58.3436 192.779L63.3403 190.659L83.0621 237.106L78.0647 239.226L58.3436 192.779Z" fill="#F5F5F5"/>
<path fill-rule="evenodd" clip-rule="evenodd" d="M58.3436 192.779L63.3403 190.659L83.0621 237.106L78.0647 239.226L58.3436 192.779Z" fill="#F0F2F5" stroke="#A3B1BF" stroke-width="1.62" stroke-linejoin="round"/>
<path fill-rule="evenodd" clip-rule="evenodd" d="M62.9622 250.368L81.7137 242.411L105.388 298.168L86.6368 306.125L62.9622 250.368V250.368Z" stroke="#A3B1BF" stroke-width="1.62" stroke-linejoin="round"/>
<path fill-rule="evenodd" clip-rule="evenodd" d="M67.5447 200.56L71.0074 199.091L82.3204 225.734L78.8572 227.203L67.5447 200.56V200.56Z" stroke="#A3B1BF" stroke-width="1.62" stroke-linejoin="round"/>
<path fill-rule="evenodd" clip-rule="evenodd" d="M73.2603 203.784L81.2822 200.38L82.0473 202.182L74.0254 205.586L73.2603 203.784Z" fill="#F5F5F5"/>
<path fill-rule="evenodd" clip-rule="evenodd" d="M73.2603 203.784L81.2822 200.38L82.0473 202.182L74.0254 205.586L73.2603 203.784V203.784Z" stroke="#A3B1BF" stroke-width="1.62" stroke-linejoin="round"/>
<path fill-rule="evenodd" clip-rule="evenodd" d="M79.7603 219.095L87.7822 215.691L88.5473 217.493L80.5254 220.897L79.7603 219.095Z" fill="#F5F5F5"/>
<path fill-rule="evenodd" clip-rule="evenodd" d="M79.7603 219.095L87.7822 215.691L88.5473 217.493L80.5254 220.897L79.7603 219.095V219.095Z" stroke="#A3B1BF" stroke-width="1.62" stroke-linejoin="round"/>
<path fill-rule="evenodd" clip-rule="evenodd" d="M68.9125 238.376L72.3182 246.398L70.5162 247.162L67.1104 239.141L68.9125 238.376V238.376Z" stroke="#A3B1BF" stroke-width="1.62" stroke-linejoin="round"/>
<path fill-rule="evenodd" clip-rule="evenodd" d="M36.9095 216.499L41.514 208.337L55.1792 240.521L46.1075 238.162L36.9095 216.499V216.499Z" stroke="#A3B1BF" stroke-width="1.62" stroke-linejoin="round"/>
<path fill-rule="evenodd" clip-rule="evenodd" d="M36.9106 216.499L31.2578 212.69L44.923 244.874L46.1087 238.162L36.9106 216.499V216.499Z" stroke="#A3B1BF" stroke-width="1.62" stroke-linejoin="round"/>
<path fill-rule="evenodd" clip-rule="evenodd" d="M33.5929 218.555L27.8213 217.39L31.8956 226.985L35.0665 222.025L33.5929 218.555V218.555Z" stroke="#A3B1BF" stroke-width="1.62" stroke-linejoin="round"/>
<path fill-rule="evenodd" clip-rule="evenodd" d="M40.8507 235.649L35.0792 234.484L39.1534 244.079L42.3243 239.119L40.8507 235.649V235.649Z" stroke="#A3B1BF" stroke-width="1.62" stroke-linejoin="round"/>
<path fill-rule="evenodd" clip-rule="evenodd" d="M71.9744 200.758L74.3851 199.735L77.6847 207.505L75.2737 208.528L71.9744 200.758Z" fill="#F0F2F5"/>
<path fill-rule="evenodd" clip-rule="evenodd" d="M71.9744 200.758L74.3851 199.735L77.6847 207.505L75.2737 208.528L71.9744 200.758V200.758Z" stroke="#A3B1BF" stroke-width="1.62" stroke-linejoin="round"/>
<path fill-rule="evenodd" clip-rule="evenodd" d="M78.4939 216.111L80.9046 215.088L84.2042 222.858L81.7933 223.881L78.4939 216.111Z" fill="#F0F2F5"/>
<path fill-rule="evenodd" clip-rule="evenodd" d="M78.4939 216.111L80.9046 215.088L84.2042 222.858L81.7933 223.881L78.4939 216.111V216.111Z" stroke="#A3B1BF" stroke-width="1.62" stroke-linejoin="round"/>
<path fill-rule="evenodd" clip-rule="evenodd" d="M64.8859 236.402L68.4866 234.874L70.1361 238.759L66.5354 240.287L64.8859 236.402Z" fill="#F5F5F5" stroke="#A3B1BF" stroke-width="1.62" stroke-linejoin="round"/>
<path fill-rule="evenodd" clip-rule="evenodd" d="M86.2941 208.408C80.1992 194.054 81.1506 179.462 87.9532 172.891C89.078 171.805 91.6551 169.983 93.7011 174.801C95.7464 179.62 113.611 221.693 115.474 226.082C117.338 230.47 114.567 231.832 113.006 231.887C103.551 232.216 92.3893 222.764 86.2941 208.408Z" fill="#F5F5F5"/>
<path fill-rule="evenodd" clip-rule="evenodd" d="M86.2941 208.408C80.1992 194.054 81.1506 179.462 87.9532 172.891C89.078 171.805 91.6551 169.983 93.7011 174.801C95.7464 179.62 113.611 221.693 115.474 226.082C117.338 230.47 114.567 231.832 113.006 231.887C103.551 232.216 92.3893 222.764 86.2941 208.408Z" fill="#F0F2F5" stroke="#A3B1BF" stroke-width="1.62" stroke-linejoin="round"/>
<path fill-rule="evenodd" clip-rule="evenodd" d="M80.6306 198.846L83.0413 197.823L91.5923 217.962L89.1815 218.985L80.6306 198.846Z" fill="#F0F2F5"/>
<path fill-rule="evenodd" clip-rule="evenodd" d="M80.6306 198.846L83.0413 197.823L91.5923 217.962L89.1815 218.985L80.6306 198.846V198.846Z" stroke="#A3B1BF" stroke-width="1.62" stroke-linejoin="round"/>
<path fill-rule="evenodd" clip-rule="evenodd" d="M120.207 197.045C118.751 197.662 117.071 196.983 116.453 195.528C115.835 194.073 116.514 192.392 117.969 191.775C119.424 191.157 121.105 191.836 121.723 193.291C122.341 194.747 121.662 196.427 120.207 197.045Z" fill="#A3B1BF"/>
<path fill-rule="evenodd" clip-rule="evenodd" d="M80.1219 249.919L79.2287 247.816L81.3325 246.923L82.2258 249.027L80.1219 249.919Z" fill="#A3B1BF" fill-opacity="0.6"/>
<path fill-rule="evenodd" clip-rule="evenodd" d="M81.573 253.338L80.6798 251.235L82.7837 250.342L83.6769 252.446L81.573 253.338Z" fill="#A3B1BF" fill-opacity="0.6"/>
<path fill-rule="evenodd" clip-rule="evenodd" d="M83.0262 256.757L82.1329 254.653L84.2368 253.761L85.1301 255.864L83.0262 256.757Z" fill="#A3B1BF" fill-opacity="0.6"/>
<path fill-rule="evenodd" clip-rule="evenodd" d="M84.4773 260.176L83.5841 258.072L85.688 257.179L86.5812 259.283L84.4773 260.176Z" fill="#A3B1BF" fill-opacity="0.6"/>
<path fill-rule="evenodd" clip-rule="evenodd" d="M76.9656 251.259L76.0724 249.155L78.1763 248.262L79.0695 250.366L76.9656 251.259Z" fill="#A3B1BF" fill-opacity="0.6"/>
<path fill-rule="evenodd" clip-rule="evenodd" d="M78.4168 254.678L77.5236 252.574L79.6275 251.681L80.5207 253.785L78.4168 254.678Z" fill="#A3B1BF" fill-opacity="0.6"/>
<path fill-rule="evenodd" clip-rule="evenodd" d="M79.8699 258.096L78.9767 255.993L81.0806 255.1L81.9738 257.204L79.8699 258.096Z" fill="#A3B1BF" fill-opacity="0.6"/>
<path fill-rule="evenodd" clip-rule="evenodd" d="M81.3211 261.515L80.4279 259.412L82.5318 258.519L83.425 260.622L81.3211 261.515Z" fill="#A3B1BF" fill-opacity="0.6"/>
<path fill-rule="evenodd" clip-rule="evenodd" d="M73.8094 252.598L72.9162 250.494L75.02 249.602L75.9133 251.705L73.8094 252.598Z" fill="#A3B1BF" fill-opacity="0.6"/>
<path fill-rule="evenodd" clip-rule="evenodd" d="M75.2605 256.017L74.3673 253.913L76.4712 253.02L77.3644 255.124L75.2605 256.017Z" fill="#A3B1BF" fill-opacity="0.6"/>
<path fill-rule="evenodd" clip-rule="evenodd" d="M76.7137 259.436L75.8204 257.332L77.9243 256.439L78.8176 258.543L76.7137 259.436Z" fill="#A3B1BF" fill-opacity="0.6"/>
<path fill-rule="evenodd" clip-rule="evenodd" d="M78.1648 262.855L77.2716 260.751L79.3755 259.858L80.2687 261.962L78.1648 262.855Z" fill="#A3B1BF" fill-opacity="0.6"/>
<path fill-rule="evenodd" clip-rule="evenodd" d="M70.6531 253.937L69.7599 251.834L71.8638 250.941L72.757 253.045L70.6531 253.937Z" fill="#A3B1BF" fill-opacity="0.6"/>
<path fill-rule="evenodd" clip-rule="evenodd" d="M72.1062 257.356L71.213 255.253L73.3169 254.36L74.2101 256.463L72.1062 257.356Z" fill="#A3B1BF" fill-opacity="0.6"/>
<path fill-rule="evenodd" clip-rule="evenodd" d="M73.5574 260.775L72.6642 258.671L74.7681 257.779L75.6613 259.882L73.5574 260.775Z" fill="#A3B1BF" fill-opacity="0.6"/>
<path fill-rule="evenodd" clip-rule="evenodd" d="M75.0086 264.194L74.1154 262.09L76.2193 261.197L77.1125 263.301L75.0086 264.194Z" fill="#A3B1BF" fill-opacity="0.6"/>
<path fill-rule="evenodd" clip-rule="evenodd" d="M67.4969 255.277L66.6037 253.173L68.7075 252.28L69.6008 254.384L67.4969 255.277Z" fill="#A3B1BF" fill-opacity="0.6"/>
<path fill-rule="evenodd" clip-rule="evenodd" d="M68.95 258.696L68.0568 256.592L70.1607 255.699L71.0539 257.803L68.95 258.696Z" fill="#A3B1BF" fill-opacity="0.6"/>
<path fill-rule="evenodd" clip-rule="evenodd" d="M70.4012 262.114L69.5079 260.011L71.6118 259.118L72.5051 261.222L70.4012 262.114Z" fill="#A3B1BF" fill-opacity="0.6"/>
<path fill-rule="evenodd" clip-rule="evenodd" d="M71.8523 265.533L70.9591 263.429L73.063 262.537L73.9562 264.64L71.8523 265.533Z" fill="#A3B1BF" fill-opacity="0.6"/>
<path fill-rule="evenodd" clip-rule="evenodd" d="M87.7234 267.824L86.8302 265.721L88.9341 264.828L89.8273 266.932L87.7234 267.824Z" fill="#A3B1BF" fill-opacity="0.6"/>
<path fill-rule="evenodd" clip-rule="evenodd" d="M89.1766 271.243L88.2833 269.139L90.3872 268.247L91.2805 270.35L89.1766 271.243Z" fill="#A3B1BF" fill-opacity="0.6"/>
<path fill-rule="evenodd" clip-rule="evenodd" d="M90.6277 274.662L89.7345 272.558L91.8384 271.666L92.7316 273.769L90.6277 274.662Z" fill="#A3B1BF" fill-opacity="0.6"/>
<path fill-rule="evenodd" clip-rule="evenodd" d="M92.0789 278.081L91.1857 275.977L93.2896 275.084L94.1828 277.188L92.0789 278.081Z" fill="#A3B1BF" fill-opacity="0.6"/>
<path fill-rule="evenodd" clip-rule="evenodd" d="M84.5691 269.164L83.6759 267.06L85.7798 266.167L86.673 268.271L84.5691 269.164Z" fill="#A3B1BF" fill-opacity="0.6"/>
<path fill-rule="evenodd" clip-rule="evenodd" d="M86.0203 272.582L85.1271 270.479L87.231 269.586L88.1242 271.69L86.0203 272.582Z" fill="#A3B1BF" fill-opacity="0.6"/>
<path fill-rule="evenodd" clip-rule="evenodd" d="M87.4715 276.001L86.5783 273.898L88.6822 273.005L89.5754 275.109L87.4715 276.001Z" fill="#A3B1BF" fill-opacity="0.6"/>
<path fill-rule="evenodd" clip-rule="evenodd" d="M88.9227 279.42L88.0294 277.316L90.1333 276.424L91.0265 278.527L88.9227 279.42Z" fill="#A3B1BF" fill-opacity="0.6"/>
<path fill-rule="evenodd" clip-rule="evenodd" d="M81.4129 270.503L80.5197 268.399L82.6236 267.507L83.5168 269.61L81.4129 270.503Z" fill="#A3B1BF" fill-opacity="0.6"/>
<path fill-rule="evenodd" clip-rule="evenodd" d="M82.8641 273.922L81.9708 271.818L84.0747 270.925L84.968 273.029L82.8641 273.922Z" fill="#A3B1BF" fill-opacity="0.6"/>
<path fill-rule="evenodd" clip-rule="evenodd" d="M84.3152 277.341L83.422 275.237L85.5259 274.344L86.4191 276.448L84.3152 277.341Z" fill="#A3B1BF" fill-opacity="0.6"/>
<path fill-rule="evenodd" clip-rule="evenodd" d="M85.7664 280.759L84.8732 278.656L86.9771 277.763L87.8703 279.867L85.7664 280.759Z" fill="#A3B1BF" fill-opacity="0.6"/>
<path fill-rule="evenodd" clip-rule="evenodd" d="M78.2566 271.842L77.3634 269.739L79.4673 268.846L80.3605 270.95L78.2566 271.842Z" fill="#A3B1BF" fill-opacity="0.6"/>
<path fill-rule="evenodd" clip-rule="evenodd" d="M79.7078 275.261L78.8146 273.157L80.9185 272.265L81.8117 274.368L79.7078 275.261Z" fill="#A3B1BF" fill-opacity="0.6"/>
<path fill-rule="evenodd" clip-rule="evenodd" d="M81.159 278.68L80.2658 276.576L82.3697 275.683L83.2629 277.787L81.159 278.68Z" fill="#A3B1BF" fill-opacity="0.6"/>
<path fill-rule="evenodd" clip-rule="evenodd" d="M82.6102 282.099L81.7169 279.995L83.8208 279.102L84.714 281.206L82.6102 282.099Z" fill="#A3B1BF" fill-opacity="0.6"/>
<path fill-rule="evenodd" clip-rule="evenodd" d="M75.1004 273.182L74.2072 271.078L76.3111 270.185L77.2043 272.289L75.1004 273.182Z" fill="#A3B1BF" fill-opacity="0.6"/>
<path fill-rule="evenodd" clip-rule="evenodd" d="M76.5516 276.6L75.6583 274.497L77.7622 273.604L78.6555 275.708L76.5516 276.6Z" fill="#A3B1BF" fill-opacity="0.6"/>
<path fill-rule="evenodd" clip-rule="evenodd" d="M78.0027 280.019L77.1095 277.915L79.2134 277.023L80.1066 279.126L78.0027 280.019Z" fill="#A3B1BF" fill-opacity="0.6"/>
<path fill-rule="evenodd" clip-rule="evenodd" d="M79.4539 283.438L78.5607 281.334L80.6646 280.442L81.5578 282.545L79.4539 283.438Z" fill="#A3B1BF" fill-opacity="0.6"/>
<path fill-rule="evenodd" clip-rule="evenodd" d="M95.327 285.729L94.4337 283.626L96.5376 282.733L97.4308 284.837L95.327 285.729Z" fill="#A3B1BF" fill-opacity="0.6"/>
<path fill-rule="evenodd" clip-rule="evenodd" d="M96.7781 289.148L95.8849 287.044L97.9888 286.152L98.882 288.255L96.7781 289.148Z" fill="#A3B1BF" fill-opacity="0.6"/>
<path fill-rule="evenodd" clip-rule="evenodd" d="M98.2293 292.567L97.3361 290.463L99.44 289.57L100.333 291.674L98.2293 292.567Z" fill="#A3B1BF" fill-opacity="0.6"/>
<path fill-rule="evenodd" clip-rule="evenodd" d="M99.6824 295.986L98.7892 293.882L100.893 292.989L101.786 295.093L99.6824 295.986Z" fill="#A3B1BF" fill-opacity="0.6"/>
<path fill-rule="evenodd" clip-rule="evenodd" d="M92.1707 287.069L91.2775 284.965L93.3814 284.072L94.2746 286.176L92.1707 287.069Z" fill="#A3B1BF" fill-opacity="0.6"/>
<path fill-rule="evenodd" clip-rule="evenodd" d="M93.6219 290.487L92.7287 288.384L94.8325 287.491L95.7258 289.595L93.6219 290.487Z" fill="#A3B1BF" fill-opacity="0.6"/>
<path fill-rule="evenodd" clip-rule="evenodd" d="M95.073 293.906L94.1798 291.803L96.2837 290.91L97.1769 293.013L95.073 293.906Z" fill="#A3B1BF" fill-opacity="0.6"/>
<path fill-rule="evenodd" clip-rule="evenodd" d="M96.5262 297.325L95.6329 295.221L97.7368 294.329L98.6301 296.432L96.5262 297.325Z" fill="#A3B1BF" fill-opacity="0.6"/>
<path fill-rule="evenodd" clip-rule="evenodd" d="M89.0145 288.408L88.1212 286.304L90.2251 285.411L91.1183 287.515L89.0145 288.408Z" fill="#A3B1BF" fill-opacity="0.6"/>
<path fill-rule="evenodd" clip-rule="evenodd" d="M90.4656 291.827L89.5724 289.723L91.6763 288.83L92.5695 290.934L90.4656 291.827Z" fill="#A3B1BF" fill-opacity="0.6"/>
<path fill-rule="evenodd" clip-rule="evenodd" d="M91.9168 295.246L91.0236 293.142L93.1275 292.249L94.0207 294.353L91.9168 295.246Z" fill="#A3B1BF" fill-opacity="0.6"/>
<path fill-rule="evenodd" clip-rule="evenodd" d="M93.3699 298.664L92.4767 296.561L94.5806 295.668L95.4738 297.772L93.3699 298.664Z" fill="#A3B1BF" fill-opacity="0.6"/>
<path fill-rule="evenodd" clip-rule="evenodd" d="M85.8582 289.747L84.965 287.644L87.0689 286.751L87.9621 288.854L85.8582 289.747Z" fill="#A3B1BF" fill-opacity="0.6"/>
<path fill-rule="evenodd" clip-rule="evenodd" d="M87.3094 293.166L86.4162 291.062L88.52 290.17L89.4133 292.273L87.3094 293.166Z" fill="#A3B1BF" fill-opacity="0.6"/>
<path fill-rule="evenodd" clip-rule="evenodd" d="M88.7625 296.585L87.8693 294.481L89.9732 293.588L90.8664 295.692L88.7625 296.585Z" fill="#A3B1BF" fill-opacity="0.6"/>
<path fill-rule="evenodd" clip-rule="evenodd" d="M90.2137 300.004L89.3204 297.9L91.4243 297.007L92.3176 299.111L90.2137 300.004Z" fill="#A3B1BF" fill-opacity="0.6"/>
<path fill-rule="evenodd" clip-rule="evenodd" d="M82.702 291.087L81.8087 288.983L83.9126 288.09L84.8058 290.194L82.702 291.087Z" fill="#A3B1BF" fill-opacity="0.6"/>
<path fill-rule="evenodd" clip-rule="evenodd" d="M84.1531 294.505L83.2599 292.402L85.3638 291.509L86.257 293.613L84.1531 294.505Z" fill="#A3B1BF" fill-opacity="0.6"/>
<path fill-rule="evenodd" clip-rule="evenodd" d="M85.6062 297.924L84.713 295.82L86.8169 294.928L87.7101 297.031L85.6062 297.924Z" fill="#A3B1BF" fill-opacity="0.6"/>
<path fill-rule="evenodd" clip-rule="evenodd" d="M87.0574 301.343L86.1642 299.239L88.2681 298.346L89.1613 300.45L87.0574 301.343Z" fill="#A3B1BF" fill-opacity="0.6"/>
<path fill-rule="evenodd" clip-rule="evenodd" d="M52.4803 199.675L49.0746 191.654L47.2725 192.419L50.6783 200.44L52.4803 199.675V199.675Z" stroke="#A3B1BF" stroke-width="1.62" stroke-linejoin="round"/>
<path fill-rule="evenodd" clip-rule="evenodd" d="M51.1057 203.943L54.7065 202.415L53.0569 198.53L49.4562 200.058L51.1057 203.943Z" fill="#A3B1BF" fill-opacity="0.8"/>
<path fill-rule="evenodd" clip-rule="evenodd" d="M51.1057 203.943L54.7065 202.415L53.0569 198.53L49.4562 200.058L51.1057 203.943Z" fill="white" stroke="#A3B1BF" stroke-width="1.62" stroke-linejoin="round"/>
<path fill-rule="evenodd" clip-rule="evenodd" d="M51.9611 183.596L52.8543 185.7L54.9582 184.807L54.065 182.703L51.9611 183.596Z" fill="#A3B1BF" fill-opacity="0.8"/>
<path fill-rule="evenodd" clip-rule="evenodd" d="M50.5099 180.177L51.4031 182.281L53.507 181.388L52.6138 179.285L50.5099 180.177Z" fill="#A3B1BF" fill-opacity="0.8"/>
<path fill-rule="evenodd" clip-rule="evenodd" d="M49.0587 176.759L49.952 178.862L52.0558 177.969L51.1626 175.866L49.0587 176.759Z" fill="#A3B1BF" fill-opacity="0.8"/>
<path fill-rule="evenodd" clip-rule="evenodd" d="M47.6076 173.34L48.5008 175.443L50.6047 174.551L49.7114 172.447L47.6076 173.34Z" fill="#A3B1BF" fill-opacity="0.8"/>
<path fill-rule="evenodd" clip-rule="evenodd" d="M48.8048 184.935L49.698 187.039L51.8019 186.146L50.9087 184.043L48.8048 184.935Z" fill="#A3B1BF" fill-opacity="0.8"/>
<path fill-rule="evenodd" clip-rule="evenodd" d="M47.3537 181.517L48.2469 183.62L50.3508 182.728L49.4575 180.624L47.3537 181.517Z" fill="#A3B1BF" fill-opacity="0.8"/>
<path fill-rule="evenodd" clip-rule="evenodd" d="M45.9025 178.098L46.7957 180.202L48.8996 179.309L48.0064 177.205L45.9025 178.098Z" fill="#A3B1BF" fill-opacity="0.8"/>
<path fill-rule="evenodd" clip-rule="evenodd" d="M44.4513 174.679L45.3445 176.783L47.4484 175.89L46.5552 173.786L44.4513 174.679Z" fill="#A3B1BF" fill-opacity="0.8"/>
<path fill-rule="evenodd" clip-rule="evenodd" d="M45.6486 186.275L46.5418 188.378L48.6457 187.486L47.7525 185.382L45.6486 186.275Z" fill="#A3B1BF" fill-opacity="0.8"/>
<path fill-rule="evenodd" clip-rule="evenodd" d="M44.1974 182.856L45.0906 184.96L47.1945 184.067L46.3013 181.963L44.1974 182.856Z" fill="#A3B1BF" fill-opacity="0.8"/>
<path fill-rule="evenodd" clip-rule="evenodd" d="M42.7462 179.437L43.6395 181.541L45.7433 180.648L44.8501 178.544L42.7462 179.437Z" fill="#A3B1BF" fill-opacity="0.8"/>
<path fill-rule="evenodd" clip-rule="evenodd" d="M41.2951 176.018L42.1883 178.122L44.2922 177.229L43.3989 175.126L41.2951 176.018Z" fill="#A3B1BF" fill-opacity="0.8"/>
<path fill-rule="evenodd" clip-rule="evenodd" d="M42.4923 187.614L43.3855 189.718L45.4894 188.825L44.5962 186.721L42.4923 187.614Z" fill="#A3B1BF" fill-opacity="0.8"/>
<path fill-rule="evenodd" clip-rule="evenodd" d="M41.0412 184.195L41.9344 186.299L44.0383 185.406L43.145 183.302L41.0412 184.195Z" fill="#A3B1BF" fill-opacity="0.8"/>
<path fill-rule="evenodd" clip-rule="evenodd" d="M39.59 180.776L40.4832 182.88L42.5871 181.987L41.6939 179.884L39.59 180.776Z" fill="#A3B1BF" fill-opacity="0.8"/>
<path fill-rule="evenodd" clip-rule="evenodd" d="M38.1388 177.358L39.032 179.461L41.1359 178.569L40.2427 176.465L38.1388 177.358Z" fill="#A3B1BF" fill-opacity="0.8"/>
<path fill-rule="evenodd" clip-rule="evenodd" d="M39.338 188.953L40.2312 191.057L42.3351 190.164L41.4419 188.061L39.338 188.953Z" fill="#A3B1BF" fill-opacity="0.8"/>
<path fill-rule="evenodd" clip-rule="evenodd" d="M37.8849 185.535L38.7781 187.638L40.882 186.745L39.9888 184.642L37.8849 185.535Z" fill="#A3B1BF" fill-opacity="0.8"/>
<path fill-rule="evenodd" clip-rule="evenodd" d="M36.4337 182.116L37.327 184.219L39.4308 183.327L38.5376 181.223L36.4337 182.116Z" fill="#A3B1BF" fill-opacity="0.8"/>
<path fill-rule="evenodd" clip-rule="evenodd" d="M34.9826 178.697L35.8758 180.801L37.9797 179.908L37.0864 177.804L34.9826 178.697Z" fill="#A3B1BF" fill-opacity="0.8"/>
<path fill-rule="evenodd" clip-rule="evenodd" d="M44.3595 165.691L45.2527 167.795L47.3566 166.902L46.4634 164.798L44.3595 165.691Z" fill="#A3B1BF" fill-opacity="0.8"/>
<path fill-rule="evenodd" clip-rule="evenodd" d="M42.9083 162.272L43.8016 164.376L45.9055 163.483L45.0122 161.38L42.9083 162.272Z" fill="#A3B1BF" fill-opacity="0.8"/>
<path fill-rule="evenodd" clip-rule="evenodd" d="M41.4552 158.854L42.3484 160.957L44.4523 160.065L43.5591 157.961L41.4552 158.854Z" fill="#A3B1BF" fill-opacity="0.8"/>
<path fill-rule="evenodd" clip-rule="evenodd" d="M40.004 155.435L40.8973 157.538L43.0012 156.646L42.1079 154.542L40.004 155.435Z" fill="#A3B1BF" fill-opacity="0.8"/>
<path fill-rule="evenodd" clip-rule="evenodd" d="M41.2033 167.031L42.0965 169.134L44.2004 168.241L43.3072 166.138L41.2033 167.031Z" fill="#A3B1BF" fill-opacity="0.8"/>
<path fill-rule="evenodd" clip-rule="evenodd" d="M39.7521 163.612L40.6453 165.715L42.7492 164.823L41.856 162.719L39.7521 163.612Z" fill="#A3B1BF" fill-opacity="0.8"/>
<path fill-rule="evenodd" clip-rule="evenodd" d="M38.299 160.193L39.1922 162.297L41.2961 161.404L40.4029 159.3L38.299 160.193Z" fill="#A3B1BF" fill-opacity="0.8"/>
<path fill-rule="evenodd" clip-rule="evenodd" d="M36.8478 156.774L37.741 158.878L39.8449 157.985L38.9517 155.881L36.8478 156.774Z" fill="#A3B1BF" fill-opacity="0.8"/>
<path fill-rule="evenodd" clip-rule="evenodd" d="M38.047 168.37L38.9402 170.474L41.0441 169.581L40.1509 167.477L38.047 168.37Z" fill="#A3B1BF" fill-opacity="0.8"/>
<path fill-rule="evenodd" clip-rule="evenodd" d="M36.5958 164.951L37.4891 167.055L39.593 166.162L38.6997 164.058L36.5958 164.951Z" fill="#A3B1BF" fill-opacity="0.8"/>
<path fill-rule="evenodd" clip-rule="evenodd" d="M35.1447 161.532L36.0379 163.636L38.1418 162.743L37.2486 160.639L35.1447 161.532Z" fill="#A3B1BF" fill-opacity="0.8"/>
<path fill-rule="evenodd" clip-rule="evenodd" d="M33.6915 158.113L34.5848 160.217L36.6887 159.324L35.7954 157.221L33.6915 158.113Z" fill="#A3B1BF" fill-opacity="0.8"/>
<path fill-rule="evenodd" clip-rule="evenodd" d="M34.8908 169.709L35.784 171.813L37.8879 170.92L36.9947 168.816L34.8908 169.709Z" fill="#A3B1BF" fill-opacity="0.8"/>
<path fill-rule="evenodd" clip-rule="evenodd" d="M33.4396 166.29L34.3328 168.394L36.4367 167.501L35.5435 165.398L33.4396 166.29Z" fill="#A3B1BF" fill-opacity="0.8"/>
<path fill-rule="evenodd" clip-rule="evenodd" d="M31.9884 162.872L32.8816 164.975L34.9855 164.082L34.0923 161.979L31.9884 162.872Z" fill="#A3B1BF" fill-opacity="0.8"/>
<path fill-rule="evenodd" clip-rule="evenodd" d="M30.5353 159.453L31.4285 161.556L33.5324 160.664L32.6392 158.56L30.5353 159.453Z" fill="#A3B1BF" fill-opacity="0.8"/>
<path fill-rule="evenodd" clip-rule="evenodd" d="M31.7345 171.048L32.6277 173.152L34.7316 172.259L33.8384 170.156L31.7345 171.048Z" fill="#A3B1BF" fill-opacity="0.8"/>
<path fill-rule="evenodd" clip-rule="evenodd" d="M30.2833 167.63L31.1766 169.733L33.2805 168.841L32.3872 166.737L30.2833 167.63Z" fill="#A3B1BF" fill-opacity="0.8"/>
<path fill-rule="evenodd" clip-rule="evenodd" d="M28.8322 164.211L29.7254 166.314L31.8293 165.422L30.9361 163.318L28.8322 164.211Z" fill="#A3B1BF" fill-opacity="0.8"/>
<path fill-rule="evenodd" clip-rule="evenodd" d="M27.379 160.792L28.2723 162.896L30.3762 162.003L29.4829 159.899L27.379 160.792Z" fill="#A3B1BF" fill-opacity="0.8"/>
<path fill-rule="evenodd" clip-rule="evenodd" d="M36.756 147.786L37.6492 149.89L39.7531 148.997L38.8599 146.894L36.756 147.786Z" fill="#A3B1BF" fill-opacity="0.8"/>
<path fill-rule="evenodd" clip-rule="evenodd" d="M35.3048 144.367L36.198 146.471L38.3019 145.578L37.4087 143.475L35.3048 144.367Z" fill="#A3B1BF" fill-opacity="0.8"/>
<path fill-rule="evenodd" clip-rule="evenodd" d="M33.8537 140.949L34.7469 143.052L36.8508 142.16L35.9575 140.056L33.8537 140.949Z" fill="#A3B1BF" fill-opacity="0.8"/>
<path fill-rule="evenodd" clip-rule="evenodd" d="M32.4025 137.53L33.2957 139.634L35.3996 138.741L34.5064 136.637L32.4025 137.53Z" fill="#A3B1BF" fill-opacity="0.8"/>
<path fill-rule="evenodd" clip-rule="evenodd" d="M33.2957 139.634L35.3996 138.741L34.5064 136.637L32.4025 137.53L33.2957 139.634Z" fill="#B2BECA"/>
<path fill-rule="evenodd" clip-rule="evenodd" d="M33.6017 149.126L34.4949 151.229L36.5988 150.337L35.7056 148.233L33.6017 149.126Z" fill="#A3B1BF" fill-opacity="0.8"/>
<path fill-rule="evenodd" clip-rule="evenodd" d="M32.1486 145.707L33.0418 147.811L35.1457 146.918L34.2525 144.814L32.1486 145.707Z" fill="#A3B1BF" fill-opacity="0.8"/>
<path fill-rule="evenodd" clip-rule="evenodd" d="M30.6974 142.288L31.5906 144.392L33.6945 143.499L32.8013 141.395L30.6974 142.288Z" fill="#A3B1BF" fill-opacity="0.8"/>
<path fill-rule="evenodd" clip-rule="evenodd" d="M29.2462 138.869L30.1395 140.973L32.2433 140.08L31.3501 137.976L29.2462 138.869Z" fill="#A3B1BF" fill-opacity="0.8"/>
<path fill-rule="evenodd" clip-rule="evenodd" d="M30.4454 150.465L31.3387 152.569L33.4426 151.676L32.5493 149.572L30.4454 150.465Z" fill="#A3B1BF" fill-opacity="0.8"/>
<path fill-rule="evenodd" clip-rule="evenodd" d="M28.9923 147.046L29.8855 149.15L31.9894 148.257L31.0962 146.153L28.9923 147.046Z" fill="#A3B1BF" fill-opacity="0.8"/>
<path fill-rule="evenodd" clip-rule="evenodd" d="M27.5412 143.627L28.4344 145.731L30.5383 144.838L29.645 142.734L27.5412 143.627Z" fill="#A3B1BF" fill-opacity="0.8"/>
<path fill-rule="evenodd" clip-rule="evenodd" d="M26.09 140.208L26.9832 142.312L29.0871 141.419L28.1939 139.316L26.09 140.208Z" fill="#A3B1BF" fill-opacity="0.8"/>
<path fill-rule="evenodd" clip-rule="evenodd" d="M27.2892 151.804L28.1824 153.908L30.2863 153.015L29.3931 150.911L27.2892 151.804Z" fill="#A3B1BF" fill-opacity="0.8"/>
<path fill-rule="evenodd" clip-rule="evenodd" d="M25.8361 148.385L26.7293 150.489L28.8332 149.596L27.94 147.493L25.8361 148.385Z" fill="#A3B1BF" fill-opacity="0.8"/>
<path fill-rule="evenodd" clip-rule="evenodd" d="M24.3849 144.967L25.2781 147.07L27.382 146.177L26.4888 144.074L24.3849 144.967Z" fill="#A3B1BF" fill-opacity="0.8"/>
<path fill-rule="evenodd" clip-rule="evenodd" d="M22.9337 141.548L23.827 143.652L25.9308 142.759L25.0376 140.655L22.9337 141.548Z" fill="#A3B1BF" fill-opacity="0.8"/>
<path fill-rule="evenodd" clip-rule="evenodd" d="M24.1329 153.144L25.0262 155.247L27.1301 154.354L26.2368 152.251L24.1329 153.144Z" fill="#A3B1BF" fill-opacity="0.8"/>
<path fill-rule="evenodd" clip-rule="evenodd" d="M22.6818 149.725L23.575 151.828L25.6789 150.936L24.7857 148.832L22.6818 149.725Z" fill="#A3B1BF" fill-opacity="0.8"/>
<path fill-rule="evenodd" clip-rule="evenodd" d="M21.2287 146.306L22.1219 148.41L24.2258 147.517L23.3325 145.413L21.2287 146.306Z" fill="#A3B1BF" fill-opacity="0.8"/>
<path fill-rule="evenodd" clip-rule="evenodd" d="M19.7775 142.887L20.6707 144.991L22.7746 144.098L21.8814 141.994L19.7775 142.887Z" fill="#A3B1BF" fill-opacity="0.8"/>
<path fill-rule="evenodd" clip-rule="evenodd" d="M128.453 189.804C126.827 185.974 126.164 182.592 126.972 182.249C127.78 181.906 129.752 184.733 131.379 188.563C133.005 192.393 133.668 195.775 132.86 196.118C132.052 196.461 130.08 193.634 128.453 189.804Z" fill="#F5F5F5"/>
<path fill-rule="evenodd" clip-rule="evenodd" d="M128.453 189.804C126.827 185.974 126.164 182.592 126.972 182.249C127.78 181.906 129.752 184.733 131.379 188.563C133.005 192.393 133.668 195.775 132.86 196.118C132.052 196.461 130.08 193.634 128.453 189.804Z" stroke="#A3B1BF" stroke-width="1.62" stroke-linejoin="round"/>
<path fill-rule="evenodd" clip-rule="evenodd" d="M134.882 187.075C131.633 179.423 130.307 172.664 131.922 171.979C133.536 171.294 137.478 176.942 140.728 184.595C143.977 192.248 145.303 199.007 143.688 199.692C142.074 200.377 138.132 194.729 134.882 187.075Z" fill="#F5F5F5"/>
<path fill-rule="evenodd" clip-rule="evenodd" d="M134.882 187.075C131.633 179.423 130.307 172.664 131.922 171.979C133.536 171.294 137.478 176.942 140.728 184.595C143.977 192.248 145.303 199.007 143.688 199.692C142.074 200.377 138.132 194.729 134.882 187.075Z" stroke="#A3B1BF" stroke-width="1.62" stroke-linejoin="round"/>
<path fill-rule="evenodd" clip-rule="evenodd" d="M145.266 182.669C140.912 172.414 139.135 163.356 141.298 162.438C143.462 161.52 148.745 169.09 153.099 179.345C157.454 189.601 159.231 198.659 157.067 199.577C154.904 200.495 149.62 192.925 145.266 182.669Z" fill="#F5F5F5" fill-opacity="0.35"/>
<path fill-rule="evenodd" clip-rule="evenodd" d="M145.266 182.669C140.912 172.414 139.135 163.356 141.298 162.438C143.462 161.52 148.745 169.09 153.099 179.345C157.454 189.601 159.231 198.659 157.067 199.577C154.904 200.495 149.62 192.925 145.266 182.669Z" stroke="#A3B1BF" stroke-width="1.62" stroke-linejoin="round"/>
<path opacity="0.85" fill-rule="evenodd" clip-rule="evenodd" d="M65.3672 86.6709C62.6961 85.9151 60.5409 85.8723 60.2576 86.6508C59.9739 87.4302 61.6564 88.7849 64.193 89.9236C63.4621 92.5375 63.4095 94.6257 64.1501 94.8952C64.8907 95.1648 66.1927 93.5314 67.313 91.0592C69.9881 91.8174 72.1477 91.8611 72.4314 91.0818C72.7148 90.3032 71.0363 88.9507 68.5043 87.8128C69.2673 85.1431 69.3329 82.9951 68.581 82.7214C67.8292 82.4478 66.4987 84.1354 65.3672 86.6709Z" fill="#A3B1BF" fill-opacity="0.4"/>
<path fill-rule="evenodd" clip-rule="evenodd" d="M118.253 329.505L117.903 329.891C117 330.884 115.463 330.957 114.47 330.054C114.075 329.695 113.809 329.215 113.713 328.689L113.621 328.177L113.147 327.964C111.923 327.412 111.379 325.974 111.93 324.75C112.15 324.263 112.524 323.861 112.995 323.608L113.453 323.362L113.51 322.844C113.656 321.51 114.857 320.547 116.191 320.694C116.722 320.752 117.219 320.984 117.605 321.353L117.982 321.714L118.491 321.608C119.805 321.335 121.092 322.179 121.364 323.493C121.473 324.016 121.406 324.561 121.174 325.042L120.948 325.51L121.207 325.962C121.872 327.128 121.467 328.612 120.302 329.277C119.838 329.543 119.299 329.647 118.77 329.575L118.253 329.505Z" fill="#A3B1BF" fill-opacity="0.4"/>
<path fill-rule="evenodd" clip-rule="evenodd" d="M432.443 120.366C431.358 121.011 430.003 120.132 430.152 118.879C429.203 118.046 429.621 116.487 430.859 116.24C431.358 115.08 432.97 114.996 433.587 116.097C434.844 116.213 435.423 117.72 434.566 118.647C434.844 119.879 433.589 120.894 432.443 120.366Z" fill="#A3B1BF" fill-opacity="0.4"/>
<path fill-rule="evenodd" clip-rule="evenodd" d="M97.7369 38.874L96.9037 39.0019C94.913 39.3075 93.436 37.1978 94.4042 35.4318L94.809 34.6935L94.4304 33.942C93.5242 32.1432 95.0742 30.0861 97.0532 30.4612L97.8805 30.618L98.4793 30.0248C99.9101 28.6076 102.345 29.446 102.6 31.4437L102.707 32.2798L103.455 32.6656C105.245 33.5883 105.2 36.1636 103.379 37.0232L102.618 37.3823L102.482 38.2133C102.158 40.201 99.6952 40.9541 98.3147 39.4877L97.7369 38.874Z" fill="#A3B1BF" fill-opacity="0.4"/>
<path fill-rule="evenodd" clip-rule="evenodd" d="M396.109 306.109L395.576 305.973C394.275 305.643 393.489 304.32 393.82 303.019C393.951 302.501 394.25 302.041 394.67 301.71L395.101 301.37L395.065 300.823C394.978 299.484 395.992 298.327 397.332 298.24C397.865 298.205 398.395 298.347 398.839 298.644L399.296 298.949L399.807 298.745C401.054 298.248 402.467 298.856 402.964 300.103C403.162 300.599 403.19 301.147 403.045 301.661L402.896 302.191L403.247 302.613C404.105 303.645 403.964 305.177 402.932 306.035C402.521 306.376 402.009 306.573 401.475 306.594L400.926 306.616L400.633 307.08C399.917 308.215 398.416 308.554 397.281 307.838C396.83 307.552 396.484 307.126 396.299 306.625L396.109 306.109Z" fill="#A3B1BF" fill-opacity="0.4"/>
<path fill-rule="evenodd" clip-rule="evenodd" d="M439.739 146.659C438.768 147.466 437.293 146.81 437.243 145.548C436.175 144.875 436.344 143.269 437.529 142.832C437.84 141.608 439.419 141.273 440.201 142.264C441.461 142.182 442.268 143.58 441.567 144.629C442.034 145.802 440.954 147.001 439.739 146.659Z" fill="#A3B1BF" fill-opacity="0.4"/>
<path fill-rule="evenodd" clip-rule="evenodd" d="M244.098 220.978C276.635 220.978 303.012 194.607 303.012 162.076C303.012 129.546 276.635 103.174 244.098 103.174C211.56 103.174 185.184 129.546 185.184 162.076C185.184 194.607 211.56 220.978 244.098 220.978Z" fill="#A3B1BF" fill-opacity="0.66"/>
<path fill-rule="evenodd" clip-rule="evenodd" d="M244.823 141.425C240.624 141.425 237.358 142.707 235.025 145.272C232.692 147.72 231.584 150.984 231.584 155.064H236.191C236.191 152.208 236.833 149.993 238.116 148.361C239.516 146.437 241.673 145.505 244.589 145.505C247.039 145.505 248.963 146.146 250.305 147.545C251.588 148.827 252.288 150.634 252.288 152.965C252.288 154.597 251.704 156.113 250.538 157.57C250.188 158.036 249.488 158.736 248.555 159.668C245.406 162.466 243.481 164.681 242.665 166.429C241.965 167.887 241.615 169.577 241.615 171.5V172.841H246.281V171.5C246.281 169.927 246.631 168.528 247.389 167.245C247.972 166.196 248.847 165.147 250.13 164.04C252.696 161.767 254.27 160.251 254.854 159.552C256.312 157.628 257.07 155.355 257.07 152.732C257.07 149.235 255.962 146.496 253.804 144.514C251.529 142.416 248.555 141.425 244.823 141.425ZM243.948 176.921C242.956 176.921 242.14 177.212 241.44 177.912C240.74 178.553 240.449 179.369 240.449 180.36C240.449 181.351 240.74 182.167 241.44 182.866C242.14 183.507 242.956 183.857 243.948 183.857C244.939 183.857 245.756 183.507 246.456 182.866C247.155 182.225 247.505 181.409 247.505 180.36C247.505 179.369 247.155 178.553 246.514 177.912C245.814 177.212 244.939 176.921 243.948 176.921Z" fill="white"/>
<path fill-rule="evenodd" clip-rule="evenodd" d="M222.739 133.505C228.554 130.148 239.109 126.193 235.751 120.379C232.393 114.564 220.043 115.409 214.227 118.766C208.411 122.123 202.207 131.989 205.564 137.803C208.922 143.618 216.923 136.862 222.739 133.505Z" fill="#FAFAFA"/>
<path fill-rule="evenodd" clip-rule="evenodd" d="M249.157 120.185C251.843 120.185 254.02 118.008 254.02 115.323C254.02 112.637 251.843 110.46 249.157 110.46C246.471 110.46 244.293 112.637 244.293 115.323C244.293 118.008 246.471 120.185 249.157 120.185Z" fill="#FAFAFA"/>
</svg>
