<svg width="140" height="124" viewBox="0 0 140 124" fill="none" xmlns="http://www.w3.org/2000/svg">
<g clip-path="url(#clip0_143_577)">
<path d="M187 -20H-48V136H187V-20Z" fill="white"/>
<path d="M65.6934 119.677C50.8653 118.776 37.1331 109.728 28.7727 97.4467C16.186 78.9678 11.1769 48.9733 26.2255 30.4376C40.7974 12.4905 67.465 10.8029 88.0848 18.0144C102.571 23.0773 115.279 33.8767 121.106 48.0302C134.718 81.0951 101.276 120.726 66.967 119.733C66.5401 119.719 66.1203 119.705 65.6934 119.677Z" fill="#D3DFEB"/>
<path d="M102.045 79.4996H97.9251C97.8468 79.4996 97.7828 79.4358 97.7828 79.3578V75.2522C97.7828 75.1742 97.8468 75.1104 97.9251 75.1104H102.045C102.123 75.1104 102.187 75.1742 102.187 75.2522V79.3578C102.187 79.4358 102.123 79.4996 102.045 79.4996ZM98.0674 79.216H101.895V75.4011H98.0674V79.216Z" fill="#8800A2"/>
<path d="M99.6826 78.5849C99.6399 78.5849 99.6043 78.5707 99.5758 78.5423L98.4516 77.3511C98.3947 77.2943 98.4018 77.2022 98.4587 77.1525C98.5157 77.0958 98.6082 77.1029 98.658 77.1596L99.6683 78.2303L101.504 75.8053C101.554 75.7414 101.639 75.7273 101.703 75.7769C101.767 75.8265 101.782 75.9116 101.732 75.9754L99.7964 78.5353C99.7679 78.5707 99.7324 78.592 99.6897 78.592L99.6826 78.5849Z" fill="#8800A2"/>
<path d="M33.0205 87.1224H28.9008C28.8225 87.1224 28.7585 87.0585 28.7585 86.9805V82.8749C28.7585 82.7969 28.8225 82.7331 28.9008 82.7331H33.0205C33.0987 82.7331 33.1628 82.7969 33.1628 82.8749V86.9805C33.1699 87.0585 33.1059 87.1224 33.0205 87.1224ZM29.0502 86.8387H32.8782V83.0238H29.0502V86.8387Z" fill="#8800A2"/>
<path d="M30.6654 86.2076C30.6227 86.2076 30.5871 86.1934 30.5586 86.1651L29.4344 84.9738C29.3775 84.9171 29.3846 84.8249 29.4416 84.7753C29.4985 84.7256 29.591 84.7256 29.6408 84.7824L30.6511 85.8531L32.4868 83.428C32.5367 83.3642 32.622 83.35 32.6861 83.3996C32.7501 83.4493 32.7643 83.5344 32.7145 83.5982L30.7792 86.158C30.7507 86.1934 30.7152 86.2147 30.6725 86.2147L30.6654 86.2076Z" fill="#8800A2"/>
<path d="M37.0263 36.1175C37.005 36.1175 36.9765 36.1104 36.9552 36.1033L35.3827 35.2807L33.8103 36.1033C33.7534 36.1316 33.6893 36.1245 33.6466 36.0891C33.5968 36.0536 33.5755 35.9969 33.5826 35.9402L33.8814 34.1958L32.6149 32.962C32.5722 32.9195 32.558 32.8627 32.5722 32.806C32.5936 32.7493 32.6363 32.7067 32.7003 32.6996L34.4578 32.4444L35.2404 30.856C35.2973 30.7496 35.4681 30.7496 35.5179 30.856L36.3006 32.4444L38.058 32.6996C38.115 32.7067 38.1648 32.7493 38.1861 32.806C38.2075 32.8627 38.1861 32.9265 38.1434 32.962L36.8769 34.1958L37.1757 35.9402C37.1829 35.9969 37.1615 36.0607 37.1117 36.0891C37.0904 36.1104 37.0619 36.1175 37.0263 36.1175ZM35.3827 34.9475C35.4041 34.9475 35.4325 34.9545 35.4539 34.9616L36.8129 35.6778L36.5496 34.1675C36.5425 34.1178 36.5567 34.0682 36.5923 34.0327L37.6952 32.962L36.1725 32.7422C36.1227 32.7351 36.08 32.7067 36.0516 32.6571L35.3685 31.2815L34.6854 32.6571C34.6641 32.7067 34.6214 32.7351 34.5645 32.7422L33.0418 32.962L34.1447 34.0327C34.1803 34.0682 34.2016 34.1178 34.1874 34.1675L33.9241 35.6778L35.2831 34.9616C35.3329 34.9545 35.3614 34.9475 35.3827 34.9475Z" fill="#8800A2"/>
<path d="M97.4128 36.8266C97.3772 36.8266 97.3345 36.8195 97.299 36.7982C97.2207 36.7556 97.178 36.6776 97.178 36.5925V30.4589C97.178 30.3738 97.2278 30.2887 97.3061 30.2533C97.3843 30.2107 97.4768 30.2178 97.548 30.2675L102.073 33.4371C102.137 33.4796 102.173 33.5576 102.173 33.6356C102.173 33.7136 102.13 33.7845 102.066 33.8271L97.5409 36.7911C97.5053 36.8124 97.4555 36.8266 97.4128 36.8266ZM97.6476 30.9127V36.16L101.518 33.6285L97.6476 30.9127Z" fill="#8800A2"/>
<path d="M98.971 38.4858C96.2673 38.4858 94.0758 36.2947 94.0758 33.6073C94.0758 30.9127 96.2744 28.7287 98.971 28.7287C101.675 28.7287 103.866 30.9198 103.866 33.6073C103.866 36.2947 101.675 38.4858 98.971 38.4858ZM98.971 29.1896C96.5305 29.1896 94.5454 31.168 94.5454 33.6002C94.5454 36.0324 96.5305 38.0107 98.971 38.0107C101.412 38.0107 103.397 36.0324 103.397 33.6002C103.397 31.168 101.412 29.1896 98.971 29.1896Z" fill="#8800A2"/>
<path d="M35.9519 65.2682L26.7591 65.1334C26.6737 65.1334 26.6026 65.0625 26.6026 64.9704L26.7378 55.6529C26.7378 55.5678 26.8089 55.4969 26.9014 55.4969L36.0942 55.6316C36.1796 55.6316 36.2508 55.7025 36.2508 55.7947L36.1156 65.1122C36.1085 65.1973 36.0373 65.2682 35.9519 65.2682ZM26.9157 64.8214L35.7954 64.9491L35.9306 55.9436L27.0509 55.816L26.9157 64.8214Z" fill="#8800A2"/>
<path d="M35.3187 62.8998L34.9772 62.8927C34.9772 62.8714 34.9843 62.8573 34.9772 62.836L32.6007 57.9504C32.5651 57.8865 32.5011 57.844 32.4299 57.844C32.3588 57.844 32.2876 57.8794 32.2521 57.9504L30.7365 60.8364L29.8329 60.1273C29.7902 60.0918 29.7333 60.0776 29.6835 60.0918C29.6266 60.0989 29.5839 60.1344 29.5554 60.1769L27.8762 62.7934L27.4208 62.7864C27.3141 62.7864 27.2287 62.8714 27.2216 62.9778C27.2216 63.0842 27.307 63.1693 27.4137 63.1764L35.3116 63.2898C35.4183 63.2898 35.5037 63.2047 35.5108 63.0984C35.5108 62.992 35.4254 62.9069 35.3187 62.8998ZM29.7689 60.5669L30.6867 61.2831C30.7365 61.3185 30.7934 61.3327 30.8504 61.3185C30.9073 61.3044 30.9571 61.2689 30.9784 61.2193L32.4228 58.468L34.5716 62.8927L28.3316 62.8005L29.7689 60.5669Z" fill="#8800A2"/>
<path d="M30.0677 59.5813C30.7081 59.5884 31.2346 59.0778 31.2417 58.4396C31.2488 57.8015 30.7365 57.2767 30.0962 57.2696C29.4558 57.2625 28.9293 57.7731 28.9221 58.4113C28.915 59.0424 29.4273 59.5742 30.0677 59.5813ZM30.0962 57.6525C30.5231 57.6596 30.8646 58.0071 30.8575 58.4325C30.8504 58.858 30.5017 59.1984 30.0748 59.1913C29.6479 59.1842 29.3064 58.8367 29.3135 58.4113C29.3135 57.9858 29.6692 57.6455 30.0962 57.6525Z" fill="#8800A2"/>
<path d="M103.61 59.3544C103.582 59.3544 103.553 59.3402 103.532 59.3189C103.205 58.9714 102.892 58.6453 102.6 58.3474C101.376 57.0924 100.565 56.2556 100.551 55.5394C100.543 55.0998 100.707 54.6885 101.006 54.3694C101.312 54.0504 101.717 53.8731 102.159 53.866H102.194C102.714 53.866 103.197 54.1071 103.503 54.5254C103.802 54.0929 104.293 53.8234 104.82 53.8093H104.855C105.745 53.8093 106.485 54.5325 106.499 55.4189C106.513 56.206 105.503 57.3122 104.229 58.7162C104.051 58.9147 103.866 59.1133 103.674 59.326C103.667 59.3402 103.639 59.3544 103.61 59.3544ZM102.201 54.0716H102.173C101.789 54.0787 101.433 54.2347 101.163 54.5113C100.899 54.7878 100.757 55.1494 100.764 55.5324C100.778 56.1705 101.604 57.0214 102.749 58.2056C103.02 58.4822 103.304 58.78 103.61 59.0991C103.774 58.9218 103.93 58.7445 104.087 58.5744C105.332 57.2058 106.314 56.128 106.3 55.426C106.285 54.6531 105.638 54.022 104.862 54.022H104.834C104.329 54.0291 103.859 54.3198 103.61 54.7736C103.589 54.8091 103.56 54.8304 103.518 54.8304C103.482 54.8304 103.446 54.8091 103.425 54.7807C103.162 54.334 102.707 54.0716 102.201 54.0716Z" fill="#8800A2"/>
<path d="M99.8035 98.7798H98.6437C98.5939 98.7798 98.5512 98.7585 98.5228 98.7231C98.4943 98.6876 98.4801 98.6451 98.4872 98.5955L98.8003 96.3831H97.9322L97.6191 98.638C97.6049 98.716 97.5409 98.7798 97.4626 98.7798H96.2957C96.2459 98.7798 96.2032 98.7585 96.1748 98.7231C96.1463 98.6876 96.1321 98.6451 96.1392 98.5955L96.4523 96.3831H95.634C95.5486 96.3831 95.4704 96.3122 95.4704 96.22V95.1493C95.4704 95.0642 95.5415 94.9862 95.634 94.9862H96.6444L96.808 93.802H95.9898C95.9044 93.802 95.8261 93.7311 95.8261 93.6389V92.5682C95.8261 92.4831 95.8973 92.4051 95.9898 92.4051H97.0001L97.3132 90.1502C97.3274 90.0722 97.3915 90.0084 97.4697 90.0084H98.6295C98.6793 90.0084 98.722 90.0296 98.7505 90.0651C98.7789 90.1005 98.7932 90.1431 98.786 90.1927L98.4801 92.4051H99.341L99.6541 90.1502C99.6683 90.0722 99.7323 90.0084 99.8106 90.0084H100.97C101.02 90.0084 101.063 90.0296 101.091 90.0651C101.12 90.1005 101.134 90.1431 101.127 90.1927L100.814 92.4051H101.632C101.717 92.4051 101.796 92.476 101.796 92.5682V93.6389C101.796 93.724 101.725 93.802 101.632 93.802H100.622L100.465 94.9862H101.283C101.369 94.9862 101.447 95.0571 101.447 95.1493V96.22C101.447 96.3051 101.376 96.3831 101.283 96.3831H100.28L99.9672 98.638C99.9529 98.7231 99.8818 98.7798 99.8035 98.7798ZM98.8287 98.4607H99.6612L99.9743 96.2058C99.9885 96.1278 100.053 96.064 100.131 96.064H101.12V95.3124H100.28C100.23 95.3124 100.188 95.2911 100.159 95.2556C100.131 95.2202 100.117 95.1776 100.124 95.128L100.33 93.6247C100.344 93.5467 100.408 93.4829 100.487 93.4829H101.476V92.7313H100.629C100.579 92.7313 100.536 92.71 100.508 92.6745C100.479 92.6391 100.465 92.5965 100.472 92.5469L100.785 90.3345H99.9529L99.6399 92.5895C99.6256 92.6675 99.5616 92.7313 99.4833 92.7313H98.288C98.2382 92.7313 98.1955 92.71 98.167 92.6745C98.1386 92.6391 98.1243 92.5965 98.1314 92.5469L98.4374 90.3345H97.6049L97.2919 92.5895C97.2776 92.6675 97.2136 92.7313 97.1353 92.7313H96.1463V93.4829H96.993C97.0428 93.4829 97.0855 93.5042 97.114 93.5396C97.1424 93.5751 97.1567 93.6176 97.1495 93.6673L96.9432 95.1705C96.929 95.2485 96.8649 95.3124 96.7867 95.3124H95.7977V96.064H96.6444C96.6942 96.064 96.7369 96.0853 96.7653 96.1207C96.7938 96.1562 96.808 96.1987 96.8009 96.2484L96.4878 98.4607H97.3203L97.6334 96.2058C97.6476 96.1278 97.7116 96.064 97.7899 96.064H98.971C99.0208 96.064 99.0635 96.0853 99.092 96.1207C99.1205 96.1562 99.1347 96.1987 99.1276 96.2484L98.8287 98.4607ZM99.1204 95.3124H97.9393C97.8895 95.3124 97.8468 95.2911 97.8184 95.2556C97.7899 95.2202 97.7757 95.1776 97.7828 95.128L97.9891 93.6247C98.0034 93.5467 98.0674 93.4829 98.1457 93.4829H99.3339C99.3837 93.4829 99.4264 93.5042 99.4549 93.5396C99.4833 93.5751 99.4975 93.6176 99.4904 93.6673L99.2841 95.1705C99.2699 95.2485 99.2058 95.3124 99.1204 95.3124ZM98.1243 94.9933H98.9853L99.1489 93.8091H98.288L98.1243 94.9933Z" fill="#8800A2"/>
<g opacity="0.35">
<path d="M34.102 20.7089C34.102 14.7171 29.2281 9.86691 23.2229 9.86691C17.2106 9.86691 12.3438 14.7242 12.3438 20.7089C12.3438 25.2825 15.1899 29.1825 19.2028 30.778L22.6537 38.5922L26.8232 30.9269C31.0567 29.4449 34.102 25.4315 34.102 20.7089Z" fill="#706664"/>
</g>
<path d="M33.2838 20.404C33.2838 14.4122 28.4099 9.562 22.4046 9.562C16.3923 9.562 11.5255 14.4193 11.5255 20.404C11.5255 24.9776 14.3716 28.8776 18.3846 30.4731L21.8354 38.2873L26.0049 30.622C30.2456 29.14 33.2838 25.1265 33.2838 20.404Z" fill="#EEBE80"/>
<path d="M18.9111 23.1198H17.1394V21.2336H19.1672L19.523 18.5887H17.7513V16.7025H19.772L20.3626 12.4834H22.4046L21.8141 16.7025H23.8988L24.4894 12.4834H26.5315L25.9409 16.7025H27.7126V18.5887H25.6919L25.3361 21.2336H27.1078V23.1198H25.0871L24.4965 27.3389H22.4545L23.045 23.1198H20.9603L20.3697 27.3389H18.3277L18.9111 23.1198ZM23.6498 18.5887H21.5651L21.2093 21.2336H23.294L23.6498 18.5887Z" fill="white"/>
<path d="M89.6786 21.2053H46.1622V73.0114H89.6786V21.2053Z" fill="white"/>
<path d="M87.8643 28.0338H48.681V64.5804H87.8643V28.0338Z" fill="#A6BFD5"/>
<path d="M52.0749 27.3885C53.3638 27.3885 54.4087 26.3472 54.4087 25.0627C54.4087 23.7782 53.3638 22.7369 52.0749 22.7369C50.786 22.7369 49.7411 23.7782 49.7411 25.0627C49.7411 26.3472 50.786 27.3885 52.0749 27.3885Z" fill="#615DA7"/>
<path d="M50.5736 26.4454H53.5691C53.5691 26.4454 53.2418 24.7365 52.018 24.7365C50.7942 24.7365 50.5736 26.4454 50.5736 26.4454Z" fill="white"/>
<path d="M52.0749 24.9351C52.5701 24.9351 52.9714 24.5351 52.9714 24.0416C52.9714 23.5482 52.5701 23.1482 52.0749 23.1482C51.5798 23.1482 51.1784 23.5482 51.1784 24.0416C51.1784 24.5351 51.5798 24.9351 52.0749 24.9351Z" fill="white"/>
<path d="M80.1799 24.5167H56.1377C55.8033 24.5167 55.5329 24.2473 55.5329 23.914C55.5329 23.5807 55.8033 23.3113 56.1377 23.3113H80.1799C80.5143 23.3113 80.7847 23.5807 80.7847 23.914C80.7847 24.2473 80.5143 24.5167 80.1799 24.5167Z" fill="#D3DFEB"/>
<path d="M69.1656 26.722H56.0736C55.7392 26.722 55.4689 26.4525 55.4689 26.1193C55.4689 25.786 55.7392 25.5165 56.0736 25.5165H69.1656C69.5 25.5165 69.7704 25.786 69.7704 26.1193C69.7704 26.4596 69.5 26.722 69.1656 26.722Z" fill="#D3DFEB"/>
<path d="M64.2063 67.8209H58.2295C57.8951 67.8209 57.6248 67.5514 57.6248 67.2182C57.6248 66.8849 57.8951 66.6154 58.2295 66.6154H64.2063C64.5407 66.6154 64.8111 66.8849 64.8111 67.2182C64.8111 67.5514 64.5407 67.8209 64.2063 67.8209Z" fill="#D3DFEB"/>
<path d="M83.2821 67.75H66.8958C66.5614 67.75 66.291 67.4805 66.291 67.1473C66.291 66.814 66.5614 66.5445 66.8958 66.5445H83.2821C83.6165 66.5445 83.8869 66.814 83.8869 67.1473C83.8798 67.4876 83.6094 67.75 83.2821 67.75Z" fill="#D3DFEB"/>
<path d="M76.6294 69.7567H58.0232C57.6888 69.7567 57.4184 69.4873 57.4184 69.154C57.4184 68.8207 57.6888 68.5513 58.0232 68.5513H76.6294C76.9638 68.5513 77.2342 68.8207 77.2342 69.154C77.2342 69.4873 76.9638 69.7567 76.6294 69.7567Z" fill="#D3DFEB"/>
<path d="M54.6364 65.5164C54.0601 65.5305 53.562 65.8567 53.3059 66.3318C53.0284 65.8709 52.5232 65.566 51.9397 65.5731C51.0788 65.5944 50.3957 66.3034 50.41 67.1614C50.4313 68.0194 51.7121 69.1327 53.3984 70.9196C54.9281 69.2249 56.2444 67.8989 56.2302 67.0409C56.216 66.1829 55.4973 65.5022 54.6364 65.5164Z" fill="#E17660"/>
<path d="M86.6404 59.5245L85.0395 59.5033C85.0253 59.4182 85.068 59.326 85.0253 59.248L73.8118 36.2025C73.6624 35.8905 73.3493 35.692 73.0006 35.692C72.652 35.6849 72.3389 35.8764 72.1753 36.1813L65.0245 49.7958L60.7768 46.456C60.5776 46.3 60.3143 46.2291 60.0581 46.2716C59.802 46.3142 59.5743 46.4631 59.4391 46.6758L51.5199 59.0069L49.3854 58.9785C48.8802 58.9714 48.4675 59.3685 48.4604 59.872C48.4533 60.3754 48.8589 60.7867 49.3569 60.7938L86.5977 61.3398C87.1029 61.3469 87.5156 60.9498 87.5227 60.4464C87.5441 59.95 87.1385 59.5316 86.6404 59.5245ZM60.4424 48.5053L64.7613 51.9018C64.9818 52.0649 65.2522 52.1358 65.5155 52.0791C65.7787 52.0224 66.0064 51.8522 66.1345 51.6111L72.958 38.6205L83.1113 59.4749L53.6829 59.0424L60.4424 48.5053Z" fill="#7B00A2"/>
<path d="M61.8583 43.8607C64.8751 43.9033 67.3654 41.4924 67.4081 38.4858C67.4508 35.4793 65.0316 32.9974 62.0148 32.9549C58.998 32.9124 56.5077 35.3233 56.465 38.3298C56.4223 41.3364 58.8414 43.8182 61.8583 43.8607ZM61.9935 34.7773C64.0071 34.8056 65.6151 36.4649 65.5866 38.4645C65.5582 40.4713 63.9003 42.0738 61.8867 42.0454C59.8731 42.0171 58.2651 40.3578 58.2936 38.3582C58.322 36.3514 59.9799 34.7418 61.9935 34.7773Z" fill="#7B00A2"/>
<g opacity="0.35">
<path d="M84.1999 79.5138H48.126C46.7314 79.5138 45.6001 80.6413 45.6001 82.0311V89.4765C45.6001 90.8664 46.7314 91.9938 48.126 91.9938H63.7082L66.4262 94.2629L69.066 91.9938H84.1999C85.5945 91.9938 86.7258 90.8664 86.7258 89.4765V82.0311C86.7329 80.6413 85.5945 79.5138 84.1999 79.5138Z" fill="#706664"/>
</g>
<path d="M83.8157 78.982H47.7418C46.3472 78.982 45.2159 80.1094 45.2159 81.4993V88.9447C45.2159 90.3345 46.3472 91.462 47.7418 91.462H63.324L66.042 93.7311L68.6817 91.462H83.8086C85.2032 91.462 86.3345 90.3345 86.3345 88.9447V81.4993C86.3487 80.1094 85.2174 78.982 83.8157 78.982Z" fill="#FAEFE4"/>
<path d="M82.4283 82.4282C81.8733 82.4424 81.4108 82.7544 81.1618 83.2011C80.8985 82.7615 80.4147 82.4707 79.8597 82.4778C79.0414 82.492 78.3868 83.1727 78.4011 83.9882C78.4153 84.8036 79.6391 85.8673 81.2471 87.5691C82.6986 85.9524 83.958 84.6902 83.9438 83.8747C83.9296 83.0593 83.2465 82.4069 82.4283 82.4282Z" fill="#F0D9D3"/>
<path d="M55.267 88.016C56.8619 86.4265 56.8619 83.8494 55.2669 82.26C53.672 80.6705 51.0861 80.6705 49.4912 82.26C47.8963 83.8494 47.8963 86.4265 49.4912 88.016C51.0861 89.6055 53.672 89.6055 55.267 88.016Z" fill="#F0D9D3"/>
<path d="M54.7075 87.3989H49.8906C49.8906 87.3989 50.6234 84.9384 52.3311 84.9384C54.0387 84.9384 54.7075 87.3989 54.7075 87.3989Z" fill="#FAEFE4"/>
<path d="M52.6368 84.5405C53.3409 84.3762 53.778 83.6742 53.6131 82.9726C53.4482 82.271 52.7439 81.8354 52.0398 81.9997C51.3358 82.164 50.8987 82.8659 51.0636 83.5676C51.2284 84.2692 51.9328 84.7048 52.6368 84.5405Z" fill="#FAEFE4"/>
<path d="M66.718 81.6765H58.4501C58.2794 81.6765 58.1442 81.5418 58.1442 81.3716C58.1442 81.2014 58.2794 81.0667 58.4501 81.0667H66.718C66.8887 81.0667 67.0239 81.2014 67.0239 81.3716C67.0239 81.5418 66.8887 81.6765 66.718 81.6765Z" fill="#F0D9D3"/>
<path d="M66.0349 84.0449H58.3007C58.1299 84.0449 57.9948 83.9102 57.9948 83.74C57.9948 83.5698 58.1299 83.4351 58.3007 83.4351H66.0349C66.2057 83.4351 66.3409 83.5698 66.3409 83.74C66.3409 83.9102 66.1985 84.0449 66.0349 84.0449Z" fill="#F0D9D3"/>
<path d="M75.7542 84.0449H67.2587C67.088 84.0449 66.9528 83.9102 66.9528 83.74C66.9528 83.5698 67.088 83.4351 67.2587 83.4351H75.7542C75.925 83.4351 76.0602 83.5698 76.0602 83.74C76.0602 83.9102 75.9179 84.0449 75.7542 84.0449Z" fill="#F0D9D3"/>
<path d="M71.7697 85.6474H58.3719C58.2011 85.6474 58.0659 85.5127 58.0659 85.3425C58.0659 85.1724 58.2011 85.0376 58.3719 85.0376H71.7697C71.9405 85.0376 72.0757 85.1724 72.0757 85.3425C72.0757 85.5127 71.9405 85.6474 71.7697 85.6474Z" fill="#F0D9D3"/>
<path d="M74.9075 87.3989H58.3719C58.2011 87.3989 58.0659 87.2642 58.0659 87.094C58.0659 86.9238 58.2011 86.7891 58.3719 86.7891H74.9075C75.0783 86.7891 75.2135 86.9238 75.2135 87.094C75.2135 87.2642 75.0783 87.3989 74.9075 87.3989Z" fill="#F0D9D3"/>
<path d="M65.5724 89.1575H58.379C58.2082 89.1575 58.073 89.0227 58.073 88.8525C58.073 88.6824 58.2082 88.5476 58.379 88.5476H65.5724C65.7432 88.5476 65.8784 88.6824 65.8784 88.8525C65.8784 89.0227 65.7432 89.1575 65.5724 89.1575Z" fill="#F0D9D3"/>
<g opacity="0.35">
<path d="M84.1999 96.7518H48.126C46.7314 96.7518 45.6001 97.8793 45.6001 99.2691V106.715C45.6001 108.104 46.7314 109.232 48.126 109.232H63.7082L66.4262 111.501L69.066 109.232H84.1999C85.5945 109.232 86.7258 108.104 86.7258 106.715V99.2691C86.7329 97.8793 85.5945 96.7518 84.1999 96.7518Z" fill="#706664"/>
</g>
<path d="M83.8157 96.22H47.7418C46.3472 96.22 45.2159 97.3475 45.2159 98.7373V106.183C45.2159 107.573 46.3472 108.7 47.7418 108.7H63.324L66.042 110.969L68.6817 108.7H83.8086C85.2032 108.7 86.3345 107.573 86.3345 106.183V98.7373C86.3487 97.3475 85.2174 96.22 83.8157 96.22Z" fill="#FAEFE4"/>
<path d="M82.4283 99.6662C81.8733 99.6804 81.4108 99.9924 81.1618 100.439C80.8985 99.9995 80.4147 99.7087 79.8597 99.7158C79.0414 99.73 78.3868 100.411 78.4011 101.226C78.4153 102.042 79.6391 103.105 81.2471 104.807C82.6986 103.19 83.958 101.928 83.9438 101.113C83.9296 100.297 83.2465 99.652 82.4283 99.6662Z" fill="#F0D9D3"/>
<path d="M53.3423 106.337C55.5345 105.808 56.881 103.608 56.3498 101.423C55.8186 99.2384 53.6109 97.8964 51.4187 98.4258C49.2265 98.9552 47.8799 101.155 48.4111 103.34C48.9423 105.525 51.1501 106.867 53.3423 106.337Z" fill="#F0D9D3"/>
<path d="M54.7075 104.637H49.8906C49.8906 104.637 50.6234 102.176 52.3311 102.176C54.0387 102.176 54.7075 104.637 54.7075 104.637Z" fill="#FAEFE4"/>
<path d="M52.3311 101.815C53.0541 101.815 53.6403 101.231 53.6403 100.51C53.6403 99.7894 53.0541 99.2053 52.3311 99.2053C51.608 99.2053 51.0219 99.7894 51.0219 100.51C51.0219 101.231 51.608 101.815 52.3311 101.815Z" fill="#FAEFE4"/>
<path d="M66.718 98.9216H58.4501C58.2794 98.9216 58.1442 98.7869 58.1442 98.6167C58.1442 98.4465 58.2794 98.3118 58.4501 98.3118H66.718C66.8887 98.3118 67.0239 98.4465 67.0239 98.6167C67.0239 98.7869 66.8887 98.9216 66.718 98.9216Z" fill="#F0D9D3"/>
<path d="M66.0349 101.283H58.3007C58.1299 101.283 57.9948 101.148 57.9948 100.978C57.9948 100.808 58.1299 100.673 58.3007 100.673H66.0349C66.2057 100.673 66.3409 100.808 66.3409 100.978C66.3409 101.148 66.1985 101.283 66.0349 101.283Z" fill="#F0D9D3"/>
<path d="M75.7542 101.283H67.2587C67.088 101.283 66.9528 101.148 66.9528 100.978C66.9528 100.808 67.088 100.673 67.2587 100.673H75.7542C75.925 100.673 76.0602 100.808 76.0602 100.978C76.0602 101.148 75.9179 101.283 75.7542 101.283Z" fill="#F0D9D3"/>
<path d="M71.7697 102.885H58.3719C58.2011 102.885 58.0659 102.751 58.0659 102.581C58.0659 102.41 58.2011 102.276 58.3719 102.276H71.7697C71.9405 102.276 72.0757 102.41 72.0757 102.581C72.0757 102.751 71.9405 102.885 71.7697 102.885Z" fill="#F0D9D3"/>
<path d="M74.9075 104.637H58.3719C58.2011 104.637 58.0659 104.502 58.0659 104.332C58.0659 104.162 58.2011 104.027 58.3719 104.027H74.9075C75.0783 104.027 75.2135 104.162 75.2135 104.332C75.2135 104.502 75.0783 104.637 74.9075 104.637Z" fill="#F0D9D3"/>
<path d="M65.5724 106.395H58.379C58.2082 106.395 58.073 106.261 58.073 106.091C58.073 105.92 58.2082 105.786 58.379 105.786H65.5724C65.7432 105.786 65.8784 105.92 65.8784 106.091C65.8784 106.261 65.7432 106.395 65.5724 106.395Z" fill="#F0D9D3"/>
</g>
<defs>
<clipPath id="clip0_143_577">
<rect width="140" height="124" fill="white"/>
</clipPath>
</defs>
</svg>
