<?xml version="1.0" encoding="utf-8"?><!-- Uploaded to: SVG Repo, www.svgrepo.com, Generator: SVG Repo Mixer Tools -->
<svg fill="#000000" width="800px" height="800px" viewBox="0 0 24 24" xmlns="http://www.w3.org/2000/svg">
  <path d="M11.9996631,2.00067387 C14.4835037,1.9712793 16.8828349,2.90455669 18.6906006,4.60209273 L18.6906006,4.60209273 L15.8356536,7.45703971 C14.8031696,6.47232184 13.4252994,5.93587105 11.9996631,5.95791698 C9.39089556,5.95791698 7.17528033,7.71791646 6.38530144,10.0878531 C5.96642891,11.3297735 5.96642891,12.6745747 6.38530144,13.916495 L6.38530144,13.916495 C7.18262898,16.2827574 9.39456988,18.0427569 12.0033374,18.0427569 C13.351813,18.0427569 14.5092239,17.6973708 15.4057581,17.0874336 L15.402,17.089 C16.3863118,16.4358541 17.0792723,15.4353938 17.3495215,14.2951678 L17.4009141,14.0487706 L11.9996631,14.0487706 L11.9996631,10.1980828 L21.4316436,10.1980828 C21.5492219,10.8668091 21.6043367,11.5502327 21.6043367,12.229982 C21.6043367,15.2723193 20.5167378,17.8443436 18.6244628,19.5859715 L18.626,19.583 C17.0430672,21.0480315 14.8932217,21.9217835 12.349027,21.9949981 L11.9996631,22 C8.21878734,22 4.76125181,19.8688941 3.06371577,16.4921937 L3.06371577,16.4921937 L2.91718349,16.1875756 C1.64723712,13.4295023 1.69608121,10.2367943 3.06371577,7.51215452 L3.06371577,7.51215452 L3.20922038,7.23336735 C4.95358661,4.01502932 8.32381166,2.00067387 11.9996631,2.00067387 Z"/>
</svg>