<?xml version="1.0" encoding="utf-8"?>

<!-- Uploaded to: SVG Repo, www.svgrepo.com, Generator: SVG Repo Mixer Tools -->
<svg version="1.1" id="Icons" xmlns="http://www.w3.org/2000/svg" xmlns:xlink="http://www.w3.org/1999/xlink" 
	 viewBox="0 0 32 32" xml:space="preserve">
<style type="text/css">
	.st0{fill:none;stroke:#000000;stroke-width:2;stroke-linecap:round;stroke-linejoin:round;stroke-miterlimit:10;}
	.st1{fill:none;stroke:#000000;stroke-width:2;}
	.st2{fill:none;stroke:#000000;stroke-width:2;stroke-miterlimit:10;}
</style>
<path class="st0" d="M17,1C9.3,1,3,7.3,3,15c0,3.4,1.3,6.6,3.3,9L4,31l7.3-3.2C13,28.6,15,29,17,29c7.7,0,14-6.3,14-14S24.7,1,17,1z
	"/>
<g id="Page-1">
	<g id="Whatsapp" transform="translate(1.000000, 1.000000)">
		<path id="Stroke-28" class="st1" d="M23.7,19.1c0.3-0.9,0.3-1.6,0.2-1.8c-0.1-0.2-0.3-0.2-0.7-0.4c-0.4-0.2-2.2-1.1-2.5-1.2
			c-0.3-0.1-0.7-0.1-0.9,0.3c-0.4,0.5-0.7,1-1,1.3c-0.2,0.2-0.6,0.3-0.9,0.1c-0.4-0.2-1.6-0.6-3-1.8c-1.1-1-1.8-2.2-2.1-2.6
			c-0.2-0.4,0-0.6,0.2-0.8c0.2-0.2,0.4-0.4,0.6-0.6c0.2-0.2,0.3-0.3,0.4-0.6c0.1-0.2,0-0.5-0.1-0.7c-0.1-0.2-0.8-2-1.1-2.7
			c-0.2-0.6-0.4-0.6-0.8-0.6c-0.1,0-0.3,0-0.4,0c-0.5,0-1,0.1-1.3,0.5C9.9,7.9,9,8.8,9,10.6c0,1.8,1.3,3.6,1.5,3.8
			c0.2,0.2,2.6,4,6.3,5.6c2.9,1.2,3.8,1.1,4.4,1C22.2,20.7,23.4,20,23.7,19.1L23.7,19.1z"/>
	</g>
</g>
</svg>