<?xml version="1.0" encoding="utf-8"?><!-- Uploaded to: SVG Repo, www.svgrepo.com, Generator: SVG Repo Mixer Tools -->
<svg fill="#000000" width="800px" height="800px" viewBox="0 0 24 24" id="tiktok" data-name="Flat Color" xmlns="http://www.w3.org/2000/svg" class="icon flat-color"><path id="primary" d="M21,7V9a1,1,0,0,1-1,1,8,8,0,0,1-4-1.08V15.5A6.5,6.5,0,1,1,6.53,9.72a1,1,0,0,1,1.47.9v2.52a.92.92,0,0,1-.28.62,2.49,2.49,0,0,0,2,4.23A2.61,2.61,0,0,0,12,15.35V3a1,1,0,0,1,1-1h2.11a1,1,0,0,1,1,.83A4,4,0,0,0,20,6,1,1,0,0,1,21,7Z" style="fill: rgb(0, 0, 0);"></path></svg>