<?xml version="1.0" encoding="iso-8859-1"?>
<!-- Uploaded to: SVG Repo, www.svgrepo.com, Generator: SVG Repo Mixer Tools -->
<!DOCTYPE svg PUBLIC "-//W3C//DTD SVG 1.1//EN" "http://www.w3.org/Graphics/SVG/1.1/DTD/svg11.dtd">
<svg fill="#000000" height="800px" width="800px" version="1.1" id="Capa_1" xmlns="http://www.w3.org/2000/svg" xmlns:xlink="http://www.w3.org/1999/xlink" 
	 viewBox="0 0 330 330" xml:space="preserve">
<g>
	<path d="M315,40H15C6.716,40,0,46.716,0,55v220c0,8.284,6.716,15,15,15h300c8.284,0,15-6.716,15-15V55
		C330,46.716,323.284,40,315,40z M30,87.849l87.104,75.492L30,241.412V87.849z M165,165.15L55.212,70h219.576L165,165.15z
		 M139.957,183.145l15.219,13.19c2.819,2.443,6.321,3.665,9.824,3.665s7.005-1.222,9.824-3.665l15.22-13.19L275.791,260H54.209
		L139.957,183.145z M212.895,163.341L300,87.85v153.563L212.895,163.341z"/>
</g>
</svg>