<?xml version="1.0" encoding="utf-8"?>

<!DOCTYPE svg PUBLIC "-//W3C//DTD SVG 1.1//EN" "http://www.w3.org/Graphics/SVG/1.1/DTD/svg11.dtd">
<!-- Uploaded to: SVG Repo, www.svgrepo.com, Generator: SVG Repo Mixer Tools -->
<svg height="800px" width="800px" version="1.1" id="_x32_" xmlns="http://www.w3.org/2000/svg" xmlns:xlink="http://www.w3.org/1999/xlink" 
	 viewBox="0 0 512 512"  xml:space="preserve">
<style type="text/css">
	.st0{fill:#000000;}
</style>
<g>
	<path class="st0" d="M337.469,206.488v-79.735l-42.812,7.654v32.814H217.34v-32.814l-42.809-7.654v79.735h-50.883L65.566,333.609
		v25.135v18.062v53.512v7.096v10.341c0,10.862,8.016,19.668,17.898,19.668h345.066c9.887,0,17.902-8.806,17.902-19.668v-10.341
		v-7.096v-53.512v-18.062v-25.135l-58.82-127.121H337.469z M256,410.493c-39.942,0-72.32-32.38-72.32-72.322
		c0-39.942,32.379-72.322,72.32-72.322s72.32,32.38,72.32,72.322C328.32,378.113,295.942,410.493,256,410.493z"/>
	<path class="st0" d="M434.02,70.476c-38.508-16.331-123.258-25.9-178.02-25.9c-53.02,0-139.512,9.568-178.02,25.9
		C39.016,87,0,123.985,0,167.556c0,23.89,11.906,38.075,14.754,41.373c0,0,16.304,0,20.652,0h24.308c13.367,0,29.328,0,37.938,0
		c4.934,0,15.734-21.419,15.734-30.166c0-15.386-8.148-36.78-8.148-36.78c0.469-10.588,4.676-18.324,21.918-25.736
		c31.262-13.438,100.019-14.041,128.844-14.041c28.824,0,97.582,0.604,128.844,14.041c17.242,7.412,21.449,15.148,21.918,25.736
		c0,0-8.148,21.394-8.148,36.78c0,8.747,10.801,30.166,15.734,30.166c8.606,0,24.566,0,37.938,0h24.308c4.348,0,20.652,0,20.652,0
		c2.848-3.298,14.754-17.484,14.754-41.373C512,123.985,472.984,87,434.02,70.476z"/>
</g>
</svg>