<?xml version="1.0" encoding="iso-8859-1"?>
<!-- Uploaded to: SVG Repo, www.svgrepo.com, Generator: SVG Repo Mixer Tools -->
<svg fill="#000000" height="800px" width="800px" version="1.1" id="Layer_1" xmlns="http://www.w3.org/2000/svg" xmlns:xlink="http://www.w3.org/1999/xlink" 
	 viewBox="0 0 512.043 512.043" xml:space="preserve">
<g>
	<g>
		<path d="M452.886,0H165.825c-32.667,0-59.136,26.469-59.136,59.136v47.531H59.156c-32.667,0-59.136,26.469-59.136,59.136v180.395
			c0,32.667,26.469,59.136,59.136,59.136h4.864v85.333c0,19.006,22.979,28.524,36.418,15.085l100.418-100.418h81.361
			c32.667,0,59.136-26.469,59.136-59.136v-47.531h9.257l57.786,96.309c11.132,18.553,39.627,10.661,39.627-10.976v-85.333h4.864
			c32.667,0,59.136-26.469,59.136-59.136V59.136C512.022,26.469,485.554,0,452.886,0z M298.687,346.197
			c0,9.103-7.366,16.469-16.469,16.469H192.02c-5.658,0-11.084,2.248-15.085,6.248l-70.248,70.248V384
			c0-11.782-9.551-21.333-21.333-21.333H59.156c-9.103,0-16.469-7.366-16.469-16.469V165.803c0-9.103,7.366-16.469,16.469-16.469
			h68.866h154.195c9.103,0,16.469,7.366,16.469,16.469V346.197z M469.356,239.531c0,9.103-7.366,16.469-16.469,16.469h-26.197
			c-11.782,0-21.333,9.551-21.333,21.333v29.647l-24.373-40.622c-3.855-6.426-10.8-10.357-18.293-10.357h-21.333v-90.197
			c0-32.667-26.469-59.136-59.136-59.136h-0.002H149.356V59.136c0-9.103,7.366-16.469,16.469-16.469h287.061
			c9.103,0,16.469,7.366,16.469,16.469V239.531z"/>
	</g>
</g>
</svg>