<svg width="24" height="24" viewBox="0 0 24 24" fill="none" xmlns="http://www.w3.org/2000/svg">
<path d="M22.2997 8.19457C22.07 7.99301 21.9059 7.63675 21.9059 7.32738C21.8918 5.36332 20.7997 3.68051 19.1262 3.03832C18.7465 2.89301 18.4981 2.65863 18.3247 2.27894C17.809 1.14457 16.8668 0.347693 15.7325 0.0945676C14.5981 -0.158557 13.4028 0.160193 12.4465 0.97113C12.3762 1.02738 12.3106 1.07426 12.2497 1.11644L12.2403 1.12113C12.2215 1.13519 12.1981 1.14926 12.1793 1.16332L11.87 1.38363L11.5981 1.12113C10.8762 0.413318 10.0887 0.0523801 9.1934 0.00550508C7.64184 -0.0788699 6.24497 0.811755 5.5559 2.32582C5.49028 2.46644 5.30278 2.81332 4.97934 2.94925C3.02465 3.75082 2.05434 5.20394 2.01215 7.38832C2.00747 7.60394 1.9184 7.93676 1.67465 8.14769C-0.261283 9.85863 -0.551908 12.5305 0.976217 14.6493C1.1684 14.9164 1.15903 15.2774 1.13559 15.4649C1.11215 15.6758 1.06997 15.8868 1.03247 16.0836C0.980904 16.3649 0.929342 16.6321 0.919967 16.8899C0.835592 19.1539 2.38715 21.0758 4.60434 21.4649C4.84809 21.5071 5.09653 21.6383 5.35903 21.8727C6.47465 22.843 7.67465 23.2039 9.02465 22.9789C9.99497 22.8149 10.8481 22.3227 11.6262 21.4743L11.9637 21.1039L12.3012 21.4743C12.3481 21.5258 12.3856 21.568 12.4231 21.6149C12.4887 21.6899 12.545 21.7508 12.5965 21.8024C14.1997 23.3493 16.5903 23.4618 18.2872 22.0649C18.7325 21.7133 19.1543 21.5024 19.6606 21.3852C20.8043 21.1227 21.7653 20.4055 22.3747 19.3696C23.0215 18.268 23.1809 16.9133 22.8106 15.6571C22.684 15.2211 22.7403 14.8836 23.0075 14.5274C24.4465 12.5727 24.1372 9.78832 22.2997 8.19457ZM21.3012 14.0024C20.6262 14.6071 20.6028 14.7383 21.0247 15.5399C21.4887 16.4211 21.5075 17.4711 21.0715 18.3524C20.6778 19.1493 19.9793 19.693 19.145 19.8383C18.9387 19.8758 18.7372 19.8758 18.5497 19.8711C18.245 19.8664 18.0293 19.9602 17.8934 20.1571C17.3543 20.9446 16.4918 21.4133 15.5918 21.4133C15.2918 21.4133 14.9965 21.3618 14.72 21.2586C13.5622 20.8321 12.784 19.6508 12.7747 18.3243L11.134 18.2727C11.1293 19.6555 10.3325 20.8602 9.14653 21.2727C8.86528 21.3711 8.57465 21.418 8.28403 21.418C7.48715 21.418 6.74184 21.0524 6.23559 20.4102C5.91684 20.0071 5.60278 19.8524 5.11997 19.8571H5.09184C3.87309 19.8571 2.77153 18.8305 2.57934 17.518C2.46684 16.7539 2.5934 16.0508 2.95434 15.4227C3.30122 14.818 3.24965 14.5368 2.70122 14.068C1.93715 13.4164 1.53872 12.4321 1.64653 11.443C1.75434 10.4352 2.3309 9.58207 3.22622 9.09926C3.73715 8.82269 3.84965 8.56957 3.72778 7.97426C3.48872 6.78363 3.76059 5.82269 4.53403 5.12426C4.96997 4.7305 5.54653 4.52894 5.95903 4.42582C6.61059 4.26644 6.7559 4.12582 6.88715 3.54926L6.89653 3.50707C7.1684 2.28832 8.11059 1.51957 9.1934 1.63207C10.2762 1.74457 11.1293 2.76644 11.134 3.95238L12.77 3.95707C12.77 2.76175 13.595 1.768 14.6872 1.63675C15.7887 1.5055 16.7637 2.28832 17.0028 3.49769C17.1434 4.18676 17.4106 4.34613 17.7715 4.36957C18.4934 4.42113 19.1731 4.79144 19.6372 5.38207C20.1622 6.05238 20.3637 6.93363 20.209 7.86175C20.0684 8.67269 20.12 8.78051 20.8278 9.17426C21.6153 9.61019 22.1497 10.4446 22.2575 11.3961C22.37 12.3899 22.009 13.3649 21.3012 14.0024Z" fill="#8F92A1"/>
<path d="M17.7529 7.48209C16.9747 7.09771 16.056 6.63834 15.1091 6.1649C14.8607 6.03834 14.6216 6.04303 14.3779 6.1649C14.0122 6.3524 13.6372 6.5399 13.2716 6.72271C12.8685 6.92428 12.456 7.13053 12.0482 7.33678C11.9779 7.36959 11.9497 7.37428 11.8654 7.33209C11.4669 7.13053 11.0591 6.92428 10.6654 6.7274C10.2997 6.54459 9.92004 6.35709 9.55442 6.16959C9.29661 6.03834 9.05754 6.03834 8.80442 6.1649C8.04036 6.55396 7.25754 6.93834 6.50286 7.31334L6.16067 7.48209C5.91692 7.60397 5.79504 7.80553 5.79504 8.08678C5.79973 8.92115 5.80442 9.80709 5.79504 10.6977C5.79504 11.0212 5.93098 11.2462 6.22161 11.3915C6.62004 11.5837 7.01848 11.7852 7.40754 11.9821C7.77786 12.1696 8.15754 12.3571 8.53723 12.5446C8.57004 12.5587 8.57942 12.5727 8.57942 12.5727C8.57942 12.5727 8.58411 12.5868 8.58411 12.629C8.57942 12.9899 8.57942 13.3602 8.57942 13.7165C8.57942 14.0962 8.57942 14.4899 8.57473 14.8743C8.57004 15.2071 8.71536 15.4368 9.01536 15.5821C9.86848 15.9993 10.7075 16.4259 11.6357 16.8946C11.7435 16.9509 11.8513 16.979 11.9544 16.979C12.0529 16.979 12.1513 16.9555 12.2544 16.904C13.0513 16.5009 13.9794 16.0321 14.8935 15.5821C15.1888 15.4368 15.3294 15.2118 15.3247 14.8883C15.32 14.4946 15.32 14.0915 15.32 13.7071C15.32 13.3602 15.32 12.9993 15.3154 12.6477C15.3154 12.5962 15.32 12.5821 15.32 12.5821C15.32 12.5821 15.3294 12.568 15.3669 12.5493C15.8169 12.329 16.2716 12.104 16.7075 11.8837C17.0357 11.7196 17.3732 11.5508 17.7013 11.3868C17.9732 11.2555 18.1044 11.0352 18.0997 10.7399C18.095 10.4352 18.095 10.1212 18.095 9.82116C18.095 9.76959 18.095 9.72272 18.095 9.67116H18.1044V9.43678C18.1044 9.30553 18.1044 9.17897 18.1044 9.04772C18.1044 8.73365 18.1044 8.41022 18.1044 8.09147C18.1185 7.81022 17.9966 7.60397 17.7529 7.48209ZM11.3169 9.01022L11.3638 8.98678V8.99615C11.3638 9.49772 11.3638 9.97584 11.3591 10.454C10.8435 10.7165 10.3279 10.9743 9.78879 11.2462L9.76536 11.2602V10.8196C9.76536 10.7305 9.76536 10.6462 9.76536 10.5571C9.76536 10.304 9.76536 10.0462 9.77004 9.79303C10.2763 9.53053 10.7825 9.2774 11.3169 9.01022ZM8.57473 11.2368V11.2649L8.51379 11.2321C7.97942 10.9649 7.47317 10.7118 6.96692 10.454C6.96223 9.97584 6.96223 9.50241 6.96223 9.00553V8.98209C7.49192 9.24459 8.03567 9.51647 8.57004 9.78834C8.57473 10.2618 8.57473 10.7352 8.57473 11.2368ZM9.16536 8.7524C8.68254 8.51803 8.20911 8.28365 7.70754 8.03053L7.69817 8.02584C8.20442 7.77272 8.68723 7.52896 9.17473 7.2899C9.66223 7.52896 10.1404 7.77272 10.6513 8.02584C10.4638 8.11959 10.281 8.21334 10.0982 8.3024C10.0279 8.3399 9.95754 8.37272 9.88254 8.41022C9.66223 8.52272 9.43723 8.63522 9.21223 8.74303C9.19348 8.74772 9.17473 8.7524 9.16536 8.7524ZM11.3638 15.3571C11.3638 15.3852 11.3638 15.4134 11.3638 15.4415L11.3029 15.4087C10.7685 15.1415 10.2669 14.8883 9.75598 14.6305C9.75129 14.1524 9.75129 13.6837 9.75129 13.1868V13.1587L9.88254 13.2243C10.3607 13.4633 10.8529 13.7071 11.331 13.9508C11.3357 13.9555 11.3497 13.9649 11.3544 13.9743C11.3685 14.4383 11.3685 14.9071 11.3638 15.3571ZM11.9544 12.943C11.4716 12.704 10.9935 12.4649 10.4872 12.2118C10.7216 12.0946 10.9466 11.9821 11.1716 11.8696L11.3169 11.7993C11.5232 11.6962 11.7388 11.5883 11.9497 11.4899C11.9544 11.4899 11.9544 11.4852 11.9591 11.4852C12.4419 11.7243 12.92 11.9633 13.4216 12.2165C12.92 12.4602 12.4419 12.6993 11.9544 12.943ZM14.1575 14.6352C13.6232 14.9071 13.0747 15.179 12.545 15.4415V15.418C12.545 14.9446 12.545 14.4524 12.5497 13.9696C13.0654 13.7071 13.5763 13.454 14.12 13.1821L14.1622 13.1633V13.7774C14.1622 13.8524 14.1622 13.9321 14.1622 14.0071C14.1622 14.2133 14.1622 14.429 14.1575 14.6352ZM14.1716 10.1727C14.1388 10.5055 14.1482 10.8477 14.1529 11.1758C14.1529 11.1993 14.1529 11.2274 14.1529 11.2508L14.1154 11.2321C13.6044 10.979 13.0747 10.7165 12.5591 10.4493C12.5544 10.4493 12.5497 10.4446 12.5497 10.4399C12.545 9.97584 12.545 9.51178 12.545 9.01959C12.545 9.00553 12.545 8.99147 12.545 8.9774C12.5966 9.00553 12.6482 9.03365 12.6997 9.05709C13.0794 9.25397 13.4404 9.44147 13.8247 9.59615C14.1247 9.73209 14.1997 9.85866 14.1716 10.1727ZM14.7763 8.74772C14.7669 8.7524 14.7529 8.75709 14.7435 8.75709C14.256 8.52272 13.7779 8.27897 13.2716 8.02584C13.3794 7.96959 13.4872 7.91803 13.5904 7.86647C13.6747 7.82428 13.7591 7.78209 13.8435 7.7399C14.1294 7.59459 14.42 7.44928 14.7154 7.30865C14.7247 7.30396 14.7388 7.29928 14.7529 7.29928C15.245 7.53834 15.7372 7.78678 16.22 8.02584L15.6482 8.31178C15.5732 8.34928 15.4982 8.38678 15.4185 8.42428C15.2075 8.53678 14.9919 8.64459 14.7763 8.74772ZM16.9372 10.4399C16.9372 10.4446 16.9325 10.454 16.9279 10.4633C16.4216 10.7258 15.9013 10.9837 15.3997 11.2321L15.32 11.2696V11.2321C15.32 10.7399 15.32 10.2712 15.3247 9.79772C15.8404 9.53522 16.356 9.27741 16.8997 9.00553L16.9419 8.98678V9.36647C16.9419 9.46022 16.9419 9.55397 16.9419 9.64772C16.9466 9.91022 16.9466 10.1774 16.9372 10.4399Z" fill="#8F92A1"/>
</svg>
