<svg viewBox="0 0 82 100" fill="none" xmlns="http://www.w3.org/2000/svg">
<path d="M68.0045 53.1306C67.8741 40.4584 78.3365 34.394 78.8002 34.0897C72.9241 25.5039 63.7804 24.3229 60.5128 24.1924C52.7384 23.3955 45.3264 28.7715 41.3704 28.7715C37.4289 28.7715 31.3282 24.3011 24.8726 24.4171C16.381 24.5475 8.56317 29.3584 4.18694 36.9516C-4.63072 52.2539 1.92638 74.9176 10.5194 87.3434C14.7218 93.4151 19.7356 100.233 26.3072 99.9939C32.6397 99.7403 35.0307 95.893 42.689 95.893C50.3474 95.893 52.4993 99.9939 59.1941 99.8708C66.012 99.7403 70.323 93.6759 74.4892 87.5898C79.3146 80.54 81.2998 73.7076 81.423 73.367C81.2636 73.2801 68.1422 68.259 68.0045 53.1306Z" fill="current"/>
<path d="M55.4121 15.9689C58.8971 11.7448 61.2591 5.86154 60.6143 0C55.5787 0.202871 49.4998 3.34013 45.8844 7.57145C42.6457 11.3173 39.8272 17.2948 40.5807 23.0404C46.1887 23.4824 51.927 20.1857 55.4121 15.9689Z" />
</svg>
