<svg width="25" height="25" viewBox="0 0 25 25" fill="none" xmlns="http://www.w3.org/2000/svg">
<path d="M10.5097 13.6101L11.4627 14.5631V14.5631C13.0248 16.1253 15.5574 16.1253 17.1196 14.5633C17.1196 14.5632 17.1197 14.5632 17.1197 14.5631L20.1507 11.5321V11.5321C21.9629 9.71974 21.9629 6.7815 20.1507 4.96912V4.96912V4.96912C18.3383 3.15694 15.4001 3.15694 13.5877 4.96912L12.7007 5.85712" stroke="#171717" stroke-width="1.5" stroke-linecap="round" stroke-linejoin="round"/>
<path d="M14.5098 10.6096L13.5568 9.65663V9.65663C11.9948 8.09449 9.46212 8.09443 7.89999 9.65648C7.89994 9.65653 7.89989 9.65658 7.89984 9.65663L4.86884 12.6876V12.6876C3.05666 14.5 3.05666 17.4383 4.86884 19.2506V19.2506V19.2506C6.68122 21.0628 9.61946 21.0628 11.4318 19.2506L12.3188 18.3626" stroke="#171717" stroke-width="1.5" stroke-linecap="round" stroke-linejoin="round"/>
</svg>
