<svg width="25" height="25" viewBox="0 0 25 25" fill="none" xmlns="http://www.w3.org/2000/svg">
<path d="M19.723 15.787L19.2532 16.3716L19.2535 16.3719L19.723 15.787ZM20.032 16.035L20.5014 15.4501L20.5014 15.4501L20.032 16.035ZM4.96798 16.035L4.49854 15.4501L4.49853 15.4501L4.96798 16.035ZM5.27698 15.787L5.74643 16.3719L5.74643 16.3719L5.27698 15.787ZM11 20.5C10.5858 20.5 10.25 20.8358 10.25 21.25C10.25 21.6642 10.5858 22 11 22V20.5ZM14 22C14.4142 22 14.75 21.6642 14.75 21.25C14.75 20.8358 14.4142 20.5 14 20.5V22ZM7.24398 13.25V9.25H5.74398V13.25H7.24398ZM7.24398 9.25C7.24398 6.35095 9.59646 4 12.5 4V2.5C8.7695 2.5 5.74398 5.52105 5.74398 9.25H7.24398ZM12.5 4C15.4035 4 17.756 6.35095 17.756 9.25H19.256C19.256 5.52105 16.2305 2.5 12.5 2.5V4ZM17.756 9.25V13.25H19.256V9.25H17.756ZM17.756 13.25C17.756 14.4638 18.3074 15.6116 19.2532 16.3716L20.1928 15.2024C19.6005 14.7264 19.256 14.0082 19.256 13.25H17.756ZM19.2535 16.3719L19.5625 16.6199L20.5014 15.4501L20.1924 15.2021L19.2535 16.3719ZM19.5625 16.6199C19.926 16.9116 19.721 17.5 19.252 17.5V19C21.135 19 21.9719 16.6304 20.5014 15.4501L19.5625 16.6199ZM19.252 17.5H5.74798V19H19.252V17.5ZM5.74798 17.5C5.27896 17.5 5.07395 16.9116 5.43744 16.6199L4.49853 15.4501C3.02802 16.6304 3.86501 19 5.74798 19V17.5ZM5.43743 16.6199L5.74643 16.3719L4.80754 15.2021L4.49854 15.4501L5.43743 16.6199ZM5.74643 16.3719C6.69387 15.6115 7.24398 14.4633 7.24398 13.25H5.74398C5.74398 14.0087 5.40009 14.7265 4.80753 15.2021L5.74643 16.3719ZM11 22H14V20.5H11V22Z" fill="#171717"/>
</svg>
