<?xml version="1.0" encoding="utf-8"?>
<!-- Generator: Adobe Illustrator 23.0.5, SVG Export Plug-In . SVG Version: 6.00 Build 0)  -->
<svg version="1.1" xmlns="http://www.w3.org/2000/svg" xmlns:xlink="http://www.w3.org/1999/xlink" x="0px" y="0px"
	 viewBox="0 0 300 300" style="enable-background:new 0 0 300 300;" xml:space="preserve">
<style type="text/css">
	.st0{display:none;fill:url(#SVGID_1_);}
	.st1{display:none;fill:url(#SVGID_2_);}
	.st2{display:none;fill:url(#SVGID_3_);}
	.st3{fill:#F5ECDC;}
	.st4{fill:#FFFFFF;}
	.st5{fill:#55BD84;}
	.st6{display:none;}
	.st7{display:inline;fill:url(#SVGID_4_);}
	.st8{display:inline;}
	.st9{clip-path:url(#SVGID_6_);}
	.st10{fill:#381052;}
	.st11{fill:#7721AD;}
	.st12{fill:#FFB09E;}
	.st13{display:none;clip-path:url(#SVGID_8_);}
	.st14{clip-path:url(#SVGID_8_);}
	.st15{fill-rule:evenodd;clip-rule:evenodd;fill:#F5ECDC;}
	.st16{fill-rule:evenodd;clip-rule:evenodd;fill:#7721AD;}
	.st17{fill-rule:evenodd;clip-rule:evenodd;fill:#381052;}
	.st18{fill-rule:evenodd;clip-rule:evenodd;fill:#FFFFFF;}
	.st19{fill-rule:evenodd;clip-rule:evenodd;fill:#55BD84;}
	.st20{clip-path:url(#SVGID_10_);}
	.st21{clip-path:url(#SVGID_12_);}
	.st22{fill:#2AAD65;}
</style>
<g id="Capa_1">
	<linearGradient id="SVGID_1_" gradientUnits="userSpaceOnUse" x1="-2.5" y1="150" x2="302.5" y2="150">
		<stop  offset="0" style="stop-color:#381052"/>
		<stop  offset="0.2882" style="stop-color:#471468"/>
		<stop  offset="0.8871" style="stop-color:#6F1FA1"/>
		<stop  offset="1" style="stop-color:#7721AD"/>
	</linearGradient>
	<rect x="-2.5" y="-2.5" class="st0" width="305" height="305"/>
</g>
<g id="Capa_2">
	<g>
		<circle class="st5" cx="150" cy="150" r="148.5"/>
	</g>
	<g id="Page-1">
		<g transform="translate(-1)">
			<path class="st15" d="M267.5,150c0,53.1-52.2,96.2-116.5,96.2c-25.7,0.2-50.9-7.1-72.5-21l-34.7,10.5c-2.7,0.9-5.7,0-7.5-2.2
				c-1.8-2.2-2.2-5.3-0.9-7.8l14.3-28.5c-9.7-13.9-15-30.4-15.1-47.3c0-53.1,52.2-96.2,116.5-96.2c9.7,0,19.3,1,28.8,3
				c27.7,5.3,52.6,20.4,70.1,42.5h0.1C261.2,113.8,267.3,131.6,267.5,150z"/>
			<path class="st16" d="M151,134.8c-2.8,0-5.1-2.3-5.1-5.1V89.2c0-2.8,2.3-5.1,5.1-5.1s5.1,2.3,5.1,5.1v40.5
				C156.1,132.5,153.8,134.8,151,134.8z"/>
			<path class="st16" d="M221.9,134.8l17.5,8.7c1.7,0.9,2.8,2.6,2.8,4.5v29.2c0,1.9-1.1,3.7-2.8,4.5l-17.5,8.7H80.1l-17.5-8.7
				c-1.7-0.9-2.8-2.6-2.8-4.5v-29.2c0-1.9,1.1-3.7,2.8-4.5l17.5-8.7H221.9z"/>
			<path id="Rectangle" class="st17" d="M95.3,119.6h111.4c8.4,0,15.2,6.8,15.2,15.2v55.7c0,8.4-6.8,15.2-15.2,15.2H95.3
				c-8.4,0-15.2-6.8-15.2-15.2v-55.7C80.1,126.4,86.9,119.6,95.3,119.6z"/>
			<path class="st18" d="M151,190.5c-9.6,0-18.6-4.5-24.3-12.2c-1.1-1.4-1.3-3.4-0.6-5s2.3-2.8,4.1-3c1.8-0.2,3.6,0.5,4.7,2
				c3.8,5.1,9.8,8.1,16.2,8.1s12.4-3,16.2-8.1c1.7-2.2,4.9-2.7,7.1-1c2.2,1.7,2.7,4.9,1,7.1C169.6,186,160.6,190.5,151,190.5
				L151,190.5z"/>
			<circle id="Oval" class="st18" cx="113" cy="152.5" r="12.7"/>
			<circle class="st18" cx="189" cy="152.5" r="12.7"/>
			<circle class="st19" cx="151" cy="89.2" r="10.1"/>
		</g>
	</g>
</g>
</svg>
