<svg width="24" height="24" viewBox="0 0 24 24" fill="none" xmlns="http://www.w3.org/2000/svg">
<path d="M16.75 2C16.75 1.58579 16.4142 1.25 16 1.25C15.5858 1.25 15.25 1.58579 15.25 2H16.75ZM15.25 6C15.25 6.41421 15.5858 6.75 16 6.75C16.4142 6.75 16.75 6.41421 16.75 6H15.25ZM8.75 2C8.75 1.58579 8.41421 1.25 8 1.25C7.58579 1.25 7.25 1.58579 7.25 2H8.75ZM7.25 6C7.25 6.41421 7.58579 6.75 8 6.75C8.41421 6.75 8.75 6.41421 8.75 6H7.25ZM3 8.25C2.58579 8.25 2.25 8.58579 2.25 9C2.25 9.41421 2.58579 9.75 3 9.75V8.25ZM21 9.75C21.4142 9.75 21.75 9.41421 21.75 9C21.75 8.58579 21.4142 8.25 21 8.25V9.75ZM15.25 2V6H16.75V2H15.25ZM7.25 2V6H8.75V2H7.25ZM3 9.75H21V8.25H3V9.75ZM19 3.25H5V4.75H19V3.25ZM5 3.25C3.48079 3.25 2.25 4.48079 2.25 6H3.75C3.75 5.30921 4.30921 4.75 5 4.75V3.25ZM2.25 6V19H3.75V6H2.25ZM2.25 19C2.25 20.5192 3.48079 21.75 5 21.75V20.25C4.30921 20.25 3.75 19.6908 3.75 19H2.25ZM5 21.75H19V20.25H5V21.75ZM19 21.75C20.5192 21.75 21.75 20.5192 21.75 19H20.25C20.25 19.6908 19.6908 20.25 19 20.25V21.75ZM21.75 19V6H20.25V19H21.75ZM21.75 6C21.75 4.48079 20.5192 3.25 19 3.25V4.75C19.6908 4.75 20.25 5.30921 20.25 6H21.75Z" fill="#8F92A1"/>
<path d="M7.01268 13.479C7.42689 13.479 7.76268 13.1432 7.76268 12.729C7.76268 12.3148 7.42689 11.979 7.01268 11.979V13.479ZM6.76368 12.979H7.5137L7.51366 12.9736L6.76368 12.979ZM7.01268 11.979C6.59846 11.979 6.26268 12.3148 6.26268 12.729C6.26268 13.1432 6.59846 13.479 7.01268 13.479V11.979ZM12.0127 13.479C12.4269 13.479 12.7627 13.1432 12.7627 12.729C12.7627 12.3148 12.4269 11.979 12.0127 11.979V13.479ZM11.7637 12.979H12.5137L12.5137 12.9736L11.7637 12.979ZM12.0127 11.979C11.5985 11.979 11.2627 12.3148 11.2627 12.729C11.2627 13.1432 11.5985 13.479 12.0127 13.479V11.979ZM17.0127 13.479C17.4269 13.479 17.7627 13.1432 17.7627 12.729C17.7627 12.3148 17.4269 11.979 17.0127 11.979V13.479ZM16.7637 12.979H17.5137L17.5137 12.9736L16.7637 12.979ZM17.0127 11.979C16.5985 11.979 16.2627 12.3148 16.2627 12.729C16.2627 13.1432 16.5985 13.479 17.0127 13.479V11.979ZM7.01268 17.479C7.42689 17.479 7.76268 17.1432 7.76268 16.729C7.76268 16.3148 7.42689 15.979 7.01268 15.979V17.479ZM6.76368 16.979H7.5137L7.51366 16.9736L6.76368 16.979ZM7.01268 15.979C6.59846 15.979 6.26268 16.3148 6.26268 16.729C6.26268 17.1432 6.59846 17.479 7.01268 17.479V15.979ZM12.0127 17.479C12.4269 17.479 12.7627 17.1432 12.7627 16.729C12.7627 16.3148 12.4269 15.979 12.0127 15.979V17.479ZM11.7637 16.979H12.5137L12.5137 16.9736L11.7637 16.979ZM12.0127 15.979C11.5985 15.979 11.2627 16.3148 11.2627 16.729C11.2627 17.1432 11.5985 17.479 12.0127 17.479V15.979ZM7.01268 11.979C6.46152 11.979 6.00966 12.4269 6.0137 12.9844L7.51366 12.9736C7.5157 13.2551 7.28783 13.479 7.01268 13.479V11.979ZM6.01368 12.979C6.01368 13.5312 6.46146 13.979 7.01368 13.979V12.479C7.28989 12.479 7.51368 12.7028 7.51368 12.979H6.01368ZM7.01368 13.979C7.56589 13.979 8.01368 13.5312 8.01368 12.979H6.51368C6.51368 12.7028 6.73746 12.479 7.01368 12.479V13.979ZM8.01368 12.979C8.01368 12.4248 7.56394 11.979 7.01268 11.979V13.479C6.73942 13.479 6.51368 13.2572 6.51368 12.979H8.01368ZM12.0127 11.979C11.4615 11.979 11.0097 12.4269 11.0137 12.9844L12.5137 12.9736C12.5157 13.2551 12.2878 13.479 12.0127 13.479V11.979ZM11.0137 12.979C11.0137 13.5312 11.4615 13.979 12.0137 13.979V12.479C12.2899 12.479 12.5137 12.7028 12.5137 12.979H11.0137ZM12.0137 13.979C12.5659 13.979 13.0137 13.5312 13.0137 12.979H11.5137C11.5137 12.7028 11.7375 12.479 12.0137 12.479V13.979ZM13.0137 12.979C13.0137 12.4248 12.5639 11.979 12.0127 11.979V13.479C11.7394 13.479 11.5137 13.2572 11.5137 12.979H13.0137ZM17.0127 11.979C16.4615 11.979 16.0097 12.4269 16.0137 12.9844L17.5137 12.9736C17.5157 13.2551 17.2878 13.479 17.0127 13.479V11.979ZM16.0137 12.979C16.0137 13.5312 16.4615 13.979 17.0137 13.979V12.479C17.2899 12.479 17.5137 12.7028 17.5137 12.979H16.0137ZM17.0137 13.979C17.5659 13.979 18.0137 13.5312 18.0137 12.979H16.5137C16.5137 12.7028 16.7375 12.479 17.0137 12.479V13.979ZM18.0137 12.979C18.0137 12.4248 17.5639 11.979 17.0127 11.979V13.479C16.7394 13.479 16.5137 13.2572 16.5137 12.979H18.0137ZM7.01268 15.979C6.46152 15.979 6.00966 16.4269 6.0137 16.9844L7.51366 16.9736C7.5157 17.2551 7.28783 17.479 7.01268 17.479V15.979ZM6.01368 16.979C6.01368 17.5312 6.46146 17.979 7.01368 17.979V16.479C7.28989 16.479 7.51368 16.7028 7.51368 16.979H6.01368ZM7.01368 17.979C7.56589 17.979 8.01368 17.5312 8.01368 16.979H6.51368C6.51368 16.7028 6.73746 16.479 7.01368 16.479V17.979ZM8.01368 16.979C8.01368 16.4248 7.56394 15.979 7.01268 15.979V17.479C6.73942 17.479 6.51368 17.2572 6.51368 16.979H8.01368ZM12.0127 15.979C11.4615 15.979 11.0097 16.4269 11.0137 16.9844L12.5137 16.9736C12.5157 17.2551 12.2878 17.479 12.0127 17.479V15.979ZM11.0137 16.979C11.0137 17.5312 11.4615 17.979 12.0137 17.979V16.479C12.2899 16.479 12.5137 16.7028 12.5137 16.979H11.0137ZM12.0137 17.979C12.5659 17.979 13.0137 17.5312 13.0137 16.979H11.5137C11.5137 16.7028 11.7375 16.479 12.0137 16.479V17.979ZM13.0137 16.979C13.0137 16.4248 12.5639 15.979 12.0127 15.979V17.479C11.7394 17.479 11.5137 17.2572 11.5137 16.979H13.0137Z" fill="#8F92A1"/>
</svg>
