<?xml version="1.0" encoding="utf-8"?>
<!-- Generator: Adobe Illustrator 26.0.0, SVG Export Plug-In . SVG Version: 6.00 Build 0)  -->
<svg version="1.1" id="Capa_1" xmlns="http://www.w3.org/2000/svg" xmlns:xlink="http://www.w3.org/1999/xlink" x="0px" y="0px"
	 viewBox="0 0 24 24" style="enable-background:new 0 0 24 24;" xml:space="preserve">
<g>
	<path d="M18,2.5H6c-1,0-1.8,0.4-2.5,1C2.9,4.1,2.5,5,2.5,6v8c0,0.9,0.4,1.8,1,2.5c0.7,0.6,1.5,1,2.4,1h1.5V21
		c0.1,0.2,0.2,0.4,0.3,0.4c0.1,0,0.4,0.1,0.5-0.1l4.8-3.9h5c0.9,0,1.8-0.4,2.5-1c0.6-0.7,1-1.5,1-2.4V5.8C21.5,4,20,2.5,18,2.5z
		 M18,16.4h-4.9c-0.1,0-0.3-0.1-0.4,0.1l-4.2,3.3V17c0-0.3-0.2-0.5-0.5-0.5H6v-0.1c-0.6,0-1.3-0.3-1.7-0.7c-0.5-0.5-0.7-1.1-0.7-1.7
		V6c0-0.6,0.3-1.3,0.7-1.7C4.7,3.8,5.4,3.5,6,3.5h12c0.6,0,1.3,0.3,1.7,0.7c0.5,0.5,0.7,1.1,0.7,1.7l0.1,8
		C20.5,15.3,19.4,16.4,18,16.4z"/>
	
</g>
</svg>
