<svg width="25" height="23" viewBox="0 0 25 23" fill="none" xmlns="http://www.w3.org/2000/svg">
<path d="M21.875 0.0253906H3.125C1.40209 0.0253906 0 1.42748 0 3.15039V19.817C0 21.5399 1.40209 22.942 3.125 22.942H21.875C23.5979 22.942 25 21.5399 25 19.817V3.15039C25 1.42748 23.5979 0.0253906 21.875 0.0253906ZM7.8125 7.31699H11.4584V10.442H7.8125V7.31699ZM5.7291 10.442H2.0834V7.31699H5.7291V10.442ZM13.5416 7.31699H17.1875V10.442H13.5416V7.31699ZM19.2709 7.31699H22.9166V10.442H19.2709V7.31699ZM2.0834 12.5254H5.7291V15.6504H2.0834V12.5254ZM7.8125 12.5254H11.4584V15.6504H7.8125V12.5254ZM11.4584 17.7338V20.8588H7.8125V17.7338H11.4584ZM13.5416 17.7338H17.1875V20.8588H13.5416V17.7338ZM13.5416 15.6504V12.5254H17.1875V15.6504H13.5416ZM19.2709 12.5254H22.9166V15.6504H19.2709V12.5254ZM2.0834 19.817V17.7338H5.7291V20.8588H3.125C2.55108 20.8588 2.0834 20.3911 2.0834 19.817ZM21.875 20.8588H19.2709V17.7338H22.9166V19.817C22.9166 20.3911 22.4489 20.8588 21.875 20.8588Z" stroke="none" fill="current"/>
</svg>
