<svg width="17" height="16" viewBox="0 0 17 16" fill="none" xmlns="http://www.w3.org/2000/svg">
<mask id="mask0" style="mask-type:alpha" maskUnits="userSpaceOnUse" x="0" y="0" width="17" height="16">
<rect x="0.635544" width="15.6145" height="15.6145" fill="black"/>
</mask>
<g mask="url(#mask0)">
<path opacity="0.01" d="M16.2501 0V15.6145H0.635544V0H16.2501Z" fill="#7721AD"/>
<path d="M2.58715 7.807C2.91245 7.807 3.23775 8.1323 3.23775 8.4576C3.23775 8.67447 3.23775 9.75881 3.23775 11.7106C3.23775 12.4293 3.82032 13.0118 4.53896 13.0118H12.3462C13.0649 13.0118 13.6474 12.4293 13.6474 11.7106V8.4576C13.6474 8.09828 13.9387 7.807 14.298 7.807C14.6574 7.807 14.9486 8.09829 14.9486 8.4576V11.7106C14.9486 13.1479 13.7835 14.313 12.3462 14.313H4.53896C3.10168 14.313 1.93654 13.1479 1.93654 11.7106C1.93654 9.75881 1.93654 8.67446 1.93654 8.4576C1.93654 8.1323 2.26184 7.807 2.58714 7.807L2.58715 7.807Z" fill="#7721AD"/>
<path d="M7.79255 9.10886L7.79255 1.30161C7.79255 0.94229 8.08384 0.651 8.44315 0.651C8.80247 0.651 9.09375 0.94229 9.09375 1.30161L9.09375 9.10886C9.09375 9.46818 8.80246 9.75946 8.44315 9.75946C8.08383 9.75946 7.79255 9.46817 7.79255 9.10886Z" fill="#7721AD"/>
<path d="M12.1562 6.04557C12.4103 6.29965 12.4103 6.71159 12.1562 6.96566L8.90322 10.2187C8.65854 10.4634 8.26514 10.4737 8.00794 10.2422L4.75492 7.3145C4.48784 7.07413 4.46619 6.66276 4.70656 6.39568C4.94693 6.1286 5.3583 6.10695 5.62538 6.34732L8.41959 8.86211L11.2361 6.04556C11.4902 5.79148 11.9022 5.79148 12.1562 6.04556L12.1562 6.04557Z" fill="#7721AD"/>
</g>
</svg>
