<svg width="25" height="25" viewBox="0 0 25 25" fill="none" xmlns="http://www.w3.org/2000/svg">
<path d="M6.92847 10.1364C6.6669 10.4575 6.71522 10.9299 7.03639 11.1915C7.35756 11.4531 7.82997 11.4048 8.09154 11.0836L6.92847 10.1364ZM9.93725 11.0942C10.2047 11.4105 10.6779 11.4502 10.9942 11.1827C11.3105 10.9153 11.3502 10.4421 11.0828 10.1258L9.93725 11.0942ZM13.9285 10.1364C13.6669 10.4575 13.7152 10.9299 14.0364 11.1915C14.3576 11.4531 14.83 11.4048 15.0915 11.0836L13.9285 10.1364ZM16.9372 11.0942C17.2047 11.4105 17.6779 11.4502 17.9942 11.1827C18.3105 10.9153 18.3502 10.4421 18.0828 10.1258L16.9372 11.0942ZM8.09154 11.0836C8.36268 10.7507 8.69839 10.6 9.01001 10.6V9.09998C8.19163 9.09998 7.44734 9.49927 6.92847 10.1364L8.09154 11.0836ZM9.01001 10.6C9.31411 10.6 9.64161 10.7444 9.93725 11.0942L11.0828 10.1258C10.5584 9.5055 9.83591 9.09998 9.01001 9.09998V10.6ZM15.0915 11.0836C15.3627 10.7507 15.6984 10.6 16.01 10.6V9.09998C15.1916 9.09998 14.4473 9.49927 13.9285 10.1364L15.0915 11.0836ZM16.01 10.6C16.3141 10.6 16.6416 10.7444 16.9372 11.0942L18.0828 10.1258C17.5584 9.5055 16.8359 9.09998 16.01 9.09998V10.6Z" fill="#323232"/>
<path d="M18.874 6.24603C22.3887 9.76075 22.3887 15.4592 18.874 18.9739C15.3592 22.4886 9.66075 22.4886 6.14605 18.9739C2.63133 15.4592 2.63133 9.76073 6.14605 6.24603C9.66077 2.73131 15.3593 2.73131 18.874 6.24603" stroke="#323232" stroke-width="1.5" stroke-linecap="round" stroke-linejoin="round"/>
<path d="M16.01 15.298C16.01 15.298 14.697 16.61 12.51 16.61C10.322 16.61 9.01001 15.298 9.01001 15.298" stroke="#323232" stroke-width="1.5" stroke-linecap="round" stroke-linejoin="round"/>
</svg>
