<?xml version="1.0" encoding="utf-8"?>
<!-- Generator: Adobe Illustrator 26.0.0, SVG Export Plug-In . SVG Version: 6.00 Build 0)  -->
<svg version="1.1" id="Layer_1" xmlns="http://www.w3.org/2000/svg" xmlns:xlink="http://www.w3.org/1999/xlink" x="0px" y="0px"
	 viewBox="0 0 1000 1000" style="enable-background:new 0 0 1000 1000;" xml:space="preserve">
<style type="text/css">
	.st0{fill:#FEFEFE;}
</style>
<g>
	<g>
		<path d="M358.2,797.9h-0.3c0-14.8,0.6-29.6-0.1-44.3c-1.5-28.8-26.4-52.9-54.9-53.9c-31.1-1.1-58.2,19.8-61.2,49.5
			c-3.2,31.9-1.1,64-0.9,96.1c0.1,10.3,9.3,17.4,19.4,17.1c10-0.4,17.5-8.2,17.7-18.8c0.1-5.6,0.2-11.2,0-16.8
			c-0.2-3.6,1.1-4.5,4.6-4.5c11.2,0.2,22.5,0.2,33.7,0c3.2-0.1,5,0.4,4.7,4.3c-0.3,5.4-0.1,10.8-0.1,16.2c0,4.7,1.2,9,4.3,12.7
			c5,6,12.8,8.4,20.2,6c8.1-2.7,12.8-9.1,12.9-18.5C358.4,827.9,358.2,812.9,358.2,797.9z M316.8,784.9c-5.8-0.3-11.6-0.1-17.4-0.1
			c-5.2,0-10.4-0.4-15.6,0.1s-6.2-1.6-5.9-6.2c0.4-6.6-0.1-13.3,0.1-19.9c0.3-12.4,9.3-21.5,21.2-21.6c12-0.1,21,8.5,21.6,21
			c0.3,7.5,0,15,0.2,22.4C320.9,783.7,320.3,785.1,316.8,784.9z"/>
		<path d="M497.7,818.8c-4.7,29.8-31.5,50.3-63,48.4c-28.4-1.7-52.7-26.5-53.4-55.5c-0.6-29.5-0.3-59.1-0.2-88.7
			c0-10,7.4-17.6,16.9-18.3c10-0.8,18.2,5.5,20.1,15.6c0.4,2.4,0.4,5,0.4,7.4c0,27.1,0,54.1,0.1,81.2c0,9,4.5,15.6,12.6,19.1
			s15.9,2.3,22.7-3.5c5.4-4.6,7.4-10.7,7.4-17.8c-0.1-27.7-0.1-55.4,0-83c0.1-14,13.6-23.1,26.1-17.5c7.6,3.4,11.3,9.6,11.3,17.8
			c0.1,14.6,0,29.1,0,47C498,784.7,500.4,801.9,497.7,818.8z"/>
		<path d="M629.1,723.2c0.1,10.6-7.9,18.5-19.1,18.9c-5.2,0.2-10.4,0.3-15.6,0c-4.3-0.3-5.6,1-5.5,5.4c0.2,30,0.1,59.9,0.1,89.9
			c0,1.6,0,3.3,0,5c-0.2,11.8-7.7,19.9-18.5,20c-11,0.1-18.9-8.2-19-20.2c-0.1-15.8,0-31.6,0-47.4c0-16-0.1-32,0.1-48.1
			c0-3.4-0.7-4.8-4.4-4.6c-5.4,0.3-10.8,0.2-16.2,0c-11.3-0.3-19.8-8.7-19.5-19.2s8.4-18.2,19.7-18.2c26.2-0.1,52.4-0.1,78.7,0
			C621.1,704.7,629.1,712.6,629.1,723.2z"/>
		<path d="M759.3,753.5c-2.1-29.6-25.9-52.4-53.7-53.8c-30.9-1.5-56.2,17.3-62.3,47c-2.5,11.9-0.8,24.1-0.9,36.1
			c0,10.2-0.5,20.4,0.1,30.6c1.7,28.8,26.4,52.8,55,53.8c31.1,1.1,57.6-19.8,61.3-49.5C761.4,796.4,760.8,774.9,759.3,753.5z
			 M722.3,807.5c-0.2,12.9-9,22.2-21,22.4c-12.5,0.2-21.6-8.8-21.8-22.1c-0.2-16.2-0.2-32.4,0-48.6c0.2-13.3,9.2-22.3,21.8-22.1
			c12,0.2,20.8,9.4,21,22.4c0.1,8.1,0,16.2,0,24.3C722.3,791.7,722.4,799.6,722.3,807.5z"/>
		<path d="M816.9,624.4c-8.4-25.2-30.7-40.3-59.6-40.3c-110.1,0-220.2,0-330.2,0c-61.6,0-123.2-0.1-184.8,0
			c-28.3,0-50.5,15.3-59,40.3c-1,3.1-0.8,6.5-3,9.2v299.8c2.1,2.7,1.9,6.1,3,9.2c8.5,25.1,30.8,40.3,59.7,40.3
			c120.7,0,241.4,0,362.1,0c51,0,102,0,152.9,0c19.4,0,35.7-6.5,48.5-21.4c7-8.2,10.2-18.2,13.6-28.1V634.8
			C818.9,631.3,818,627.8,816.9,624.4z M782.5,920.1c0,17.3-8.1,25.4-25.7,25.4c-85.7,0-171.5,0-257.3,0c-85.5,0-171.1,0-256.6,0
			c-13.5,0-21.9-5.7-24.4-16.7c-0.6-2.6-0.6-5.4-0.6-8c0-91.4,0-182.8,0-274.1c0-17,8.2-25.1,25.4-25.1h470.2c14.6,0,29.1,0,43.7,0
			c17.2,0,25.4,8.1,25.4,25.1C782.5,737.8,782.5,828.9,782.5,920.1z"/>
		<path class="st0" d="M358.2,797.9h-0.3c0-14.8,0.6-29.6-0.1-44.3c-1.5-28.8-26.4-52.9-54.9-53.9c-31.1-1.1-58.2,19.8-61.2,49.5
			c-3.2,31.9-1.1,64-0.9,96.1c0.1,10.3,9.3,17.4,19.4,17.1c10-0.4,17.5-8.2,17.7-18.8c0.1-5.6,0.2-11.2,0-16.8
			c-0.2-3.6,1.1-4.5,4.6-4.5c11.2,0.2,22.5,0.2,33.7,0c3.2-0.1,5,0.4,4.7,4.3c-0.3,5.4-0.1,10.8-0.1,16.2c0,4.7,1.2,9,4.3,12.7
			c5,6,12.8,8.4,20.2,6c8.1-2.7,12.8-9.1,12.9-18.5C358.4,827.9,358.2,812.9,358.2,797.9z M316.8,784.9c-5.8-0.3-11.6-0.1-17.4-0.1
			c-5.2,0-10.4-0.4-15.6,0.1s-6.2-1.6-5.9-6.2c0.4-6.6-0.1-13.3,0.1-19.9c0.3-12.4,9.3-21.5,21.2-21.6c12-0.1,21,8.5,21.6,21
			c0.3,7.5,0,15,0.2,22.4C320.9,783.7,320.3,785.1,316.8,784.9z"/>
		<path class="st0" d="M497.7,818.8c-4.7,29.8-31.5,50.3-63,48.4c-28.4-1.7-52.7-26.5-53.4-55.5c-0.6-29.5-0.3-59.1-0.2-88.7
			c0-10,7.4-17.6,16.9-18.3c10-0.8,18.2,5.5,20.1,15.6c0.4,2.4,0.4,5,0.4,7.4c0,27.1,0,54.1,0.1,81.2c0,9,4.5,15.6,12.6,19.1
			s15.9,2.3,22.7-3.5c5.4-4.6,7.4-10.7,7.4-17.8c-0.1-27.7-0.1-55.4,0-83c0.1-14,13.6-23.1,26.1-17.5c7.6,3.4,11.3,9.6,11.3,17.8
			c0.1,14.6,0,29.1,0,47C498,784.7,500.4,801.9,497.7,818.8z"/>
		<path class="st0" d="M629.1,723.2c0.1,10.6-7.9,18.5-19.1,18.9c-5.2,0.2-10.4,0.3-15.6,0c-4.3-0.3-5.6,1-5.5,5.4
			c0.2,30,0.1,59.9,0.1,89.9c0,1.6,0,3.3,0,5c-0.2,11.8-7.7,19.9-18.5,20c-11,0.1-18.9-8.2-19-20.2c-0.1-15.8,0-31.6,0-47.4
			c0-16-0.1-32,0.1-48.1c0-3.4-0.7-4.8-4.4-4.6c-5.4,0.3-10.8,0.2-16.2,0c-11.3-0.3-19.8-8.7-19.5-19.2s8.4-18.2,19.7-18.2
			c26.2-0.1,52.4-0.1,78.7,0C621.1,704.7,629.1,712.6,629.1,723.2z"/>
		<path class="st0" d="M759.3,753.5c-2.1-29.6-25.9-52.4-53.7-53.8c-30.9-1.5-56.2,17.3-62.3,47c-2.5,11.9-0.8,24.1-0.9,36.1
			c0,10.2-0.5,20.4,0.1,30.6c1.7,28.8,26.4,52.8,55,53.8c31.1,1.1,57.6-19.8,61.3-49.5C761.4,796.4,760.8,774.9,759.3,753.5z
			 M722.3,807.5c-0.2,12.9-9,22.2-21,22.4c-12.5,0.2-21.6-8.8-21.8-22.1c-0.2-16.2-0.2-32.4,0-48.6c0.2-13.3,9.2-22.3,21.8-22.1
			c12,0.2,20.8,9.4,21,22.4c0.1,8.1,0,16.2,0,24.3C722.3,791.7,722.4,799.6,722.3,807.5z"/>
		<path d="M358.2,797.9h-0.3c0-14.8,0.6-29.6-0.1-44.3c-1.5-28.8-26.4-52.9-54.9-53.9c-31.1-1.1-58.2,19.8-61.2,49.5
			c-3.2,31.9-1.1,64-0.9,96.1c0.1,10.3,9.3,17.4,19.4,17.1c10-0.4,17.5-8.2,17.7-18.8c0.1-5.6,0.2-11.2,0-16.8
			c-0.2-3.6,1.1-4.5,4.6-4.5c11.2,0.2,22.5,0.2,33.7,0c3.2-0.1,5,0.4,4.7,4.3c-0.3,5.4-0.1,10.8-0.1,16.2c0,4.7,1.2,9,4.3,12.7
			c5,6,12.8,8.4,20.2,6c8.1-2.7,12.8-9.1,12.9-18.5C358.4,827.9,358.2,812.9,358.2,797.9z M316.8,784.9c-5.8-0.3-11.6-0.1-17.4-0.1
			c-5.2,0-10.4-0.4-15.6,0.1s-6.2-1.6-5.9-6.2c0.4-6.6-0.1-13.3,0.1-19.9c0.3-12.4,9.3-21.5,21.2-21.6c12-0.1,21,8.5,21.6,21
			c0.3,7.5,0,15,0.2,22.4C320.9,783.7,320.3,785.1,316.8,784.9z"/>
		<path d="M759.3,753.5c-2.1-29.6-25.9-52.4-53.7-53.8c-30.9-1.5-56.2,17.3-62.3,47c-2.5,11.9-0.8,24.1-0.9,36.1
			c0,10.2-0.5,20.4,0.1,30.6c1.7,28.8,26.4,52.8,55,53.8c31.1,1.1,57.6-19.8,61.3-49.5C761.4,796.4,760.8,774.9,759.3,753.5z
			 M722.3,807.5c-0.2,12.9-9,22.2-21,22.4c-12.5,0.2-21.6-8.8-21.8-22.1c-0.2-16.2-0.2-32.4,0-48.6c0.2-13.3,9.2-22.3,21.8-22.1
			c12,0.2,20.8,9.4,21,22.4c0.1,8.1,0,16.2,0,24.3C722.3,791.7,722.4,799.6,722.3,807.5z"/>
		<path d="M497.7,818.8c-4.7,29.8-31.5,50.3-63,48.4c-28.4-1.7-52.7-26.5-53.4-55.5c-0.6-29.5-0.3-59.1-0.2-88.7
			c0-10,7.4-17.6,16.9-18.3c10-0.8,18.2,5.5,20.1,15.6c0.4,2.4,0.4,5,0.4,7.4c0,27.1,0,54.1,0.1,81.2c0,9,4.5,15.6,12.6,19.1
			s15.9,2.3,22.7-3.5c5.4-4.6,7.4-10.7,7.4-17.8c-0.1-27.7-0.1-55.4,0-83c0.1-14,13.6-23.1,26.1-17.5c7.6,3.4,11.3,9.6,11.3,17.8
			c0.1,14.6,0,29.1,0,47C498,784.7,500.4,801.9,497.7,818.8z"/>
		<path d="M629.1,723.2c0.1,10.6-7.9,18.5-19.1,18.9c-5.2,0.2-10.4,0.3-15.6,0c-4.3-0.3-5.6,1-5.5,5.4c0.2,30,0.1,59.9,0.1,89.9
			c0,1.6,0,3.3,0,5c-0.2,11.8-7.7,19.9-18.5,20c-11,0.1-18.9-8.2-19-20.2c-0.1-15.8,0-31.6,0-47.4c0-16-0.1-32,0.1-48.1
			c0-3.4-0.7-4.8-4.4-4.6c-5.4,0.3-10.8,0.2-16.2,0c-11.3-0.3-19.8-8.7-19.5-19.2s8.4-18.2,19.7-18.2c26.2-0.1,52.4-0.1,78.7,0
			C621.1,704.7,629.1,712.6,629.1,723.2z"/>
	</g>
	<g>
		<path d="M180.1,225.8c0-10.8,5.2-17.5,14.9-21c45.6-16.1,91.1-32.3,136.7-48.4C444.6,116.7,557.5,76.9,670.3,37
			c8.8-3.1,16.8-3,23.7,3.8c7.1,7,7.2,15,4,24.1C642.3,222.5,586.7,380.3,531,538c-5.9,16.8-20.7,22.3-33,12.3c-3-2.4-5-5.6-6.5-9
			c-27.9-59.8-55.8-119.6-83.8-179.3c-1.8-3.9-0.7-5.8,1.9-8.4c28.8-28.6,57.5-57.3,86.1-86.1c12-12.1,6.6-30.1-10-34.3
			c-7.8-2-13.6,1.4-18.9,6.7c-27.9,28-56,55.9-83.8,84c-4.2,4.3-7.3,4.7-12.6,2.2C311.8,298.5,252.9,271,194,243.6
			C185.5,239.7,180.4,233.7,180.1,225.8z"/>
	</g>
</g>
</svg>
