<?xml version="1.0" encoding="utf-8"?>
<!-- Generator: Adobe Illustrator 26.0.0, SVG Export Plug-In . SVG Version: 6.00 Build 0)  -->
<svg version="1.1" id="Layer_1" xmlns="http://www.w3.org/2000/svg" xmlns:xlink="http://www.w3.org/1999/xlink" x="0px" y="0px"
	 viewBox="0 0 37 36" style="enable-background:new 0 0 37 36;" xml:space="preserve">
<linearGradient id="yyywweee" gradientUnits="userSpaceOnUse" x1="8.2993" y1="29.9594" x2="30.7864" y2="7.4724" gradientTransform="matrix(1 0 0 -1 0 38)">
	<stop  offset="0" style="stop-color:#2AA4F4"/>
	<stop  offset="1" style="stop-color:#007AD9"/>
</linearGradient>
<path style="fill:url(#yyywweee)" d="M18.6,3.6c-8.1,0-14.7,6.6-14.7,14.7c0,8.1,6.6,14.7,14.7,14.7c8.1,0,14.7-6.6,14.7-14.7
	C33.3,10.2,26.7,3.6,18.6,3.6z"/>
<path style="fill:#FFFFFF" d="M20.6,22.2h3.8l0.6-3.9h-4.4v-2.1c0-1.6,0.5-3,2-3H25V9.9c-0.4-0.1-1.3-0.2-3-0.2c-3.5,0-5.6,1.9-5.6,6.1v2.6
	h-3.6v3.9h3.6v10.6c0.7,0.1,1.4,0.2,2.2,0.2c0.7,0,1.3-0.1,2-0.1V22.2z"/>
</svg>