<?xml version="1.0" encoding="utf-8"?>
<!-- Generator: Adobe Illustrator 26.0.0, SVG Export Plug-In . SVG Version: 6.00 Build 0)  -->
<svg version="1.1" xmlns="http://www.w3.org/2000/svg" xmlns:xlink="http://www.w3.org/1999/xlink" x="0px" y="0px"
	 viewBox="0 0 31 31" style="enable-background:new 0 0 31 31;" xml:space="preserve">
<radialGradient id="zzz" cx="-912.8547" cy="538.7117" r="1" gradientTransform="matrix(30.3096 0 0 -30.3096 27675.4629 16355.582)" gradientUnits="userSpaceOnUse">
	<stop  offset="0" style="stop-color:#1292FF"/>
	<stop  offset="7.900000e-02" style="stop-color:#2982FF"/>
	<stop  offset="0.23" style="stop-color:#4E69FF"/>
	<stop  offset="0.351" style="stop-color:#6559FF"/>
	<stop  offset="0.428" style="stop-color:#6D53FF"/>
	<stop  offset="0.754" style="stop-color:#DF47AA"/>
	<stop  offset="0.946" style="stop-color:#FF6257"/>
</radialGradient>
<path style="fill:url(#zzz)" d="M28.2,15c0,6.9-5.7,12.4-12.7,12.4c-1.1,0-2.1-0.1-3-0.4c-0.3-0.1-0.6,0-0.9,0.1l-2.8,1.4
	c-0.7,0.4-1.6-0.2-1.6-1v-2.6c0-0.4-0.2-0.7-0.4-1c-2.5-2.3-4-5.5-4-9.1c0-6.9,5.7-12.4,12.7-12.4C22.5,2.6,28.2,8.2,28.2,15z"/>
<path style="opacity:5.000000e-02;enable-background:new" d="M22.4,11.1c-0.3,0-0.5,0.1-0.8,0.3L18,14c-0.1,0.1-0.2,0.1-0.3,0.1c-0.1,0-0.2,0-0.3-0.1L15,12.1
	c-0.5-0.4-1.1-0.6-1.8-0.6c-1,0-1.9,0.5-2.5,1.3L10,14.1l-2.6,4.3c-0.2,0.4-0.3,0.9,0,1.3c0.2,0.4,0.7,0.7,1.1,0.7
	c0.3,0,0.5-0.1,0.8-0.3l3.6-2.7c0.1-0.1,0.2-0.1,0.3-0.1c0.1,0,0.2,0,0.3,0.1l2.5,1.9c0.5,0.4,1.1,0.6,1.8,0.6c1,0,1.9-0.5,2.5-1.3
	l0.8-1.2l2.6-4.3c0.2-0.4,0.3-0.9,0-1.3C23.3,11.4,22.9,11.1,22.4,11.1z"/>
<path style="opacity:7.000000e-02;enable-background:new" d="M22.4,11.4c-0.2,0-0.4,0.1-0.6,0.2l-3.6,2.7c-0.1,0.1-0.3,0.2-0.5,0.2c-0.2,0-0.3-0.1-0.5-0.2l-2.5-1.9
	c-0.5-0.3-1-0.5-1.6-0.5c-0.9,0-1.7,0.4-2.2,1.2l-0.8,1.2l-2.6,4.3c-0.2,0.3-0.2,0.7,0,1C7.7,19.8,8.1,20,8.4,20
	c0.2,0,0.4-0.1,0.6-0.2l3.6-2.7c0.1-0.1,0.3-0.2,0.5-0.2c0.2,0,0.3,0.1,0.5,0.2l2.5,1.9c0.5,0.3,1,0.5,1.6,0.5
	c0.9,0,1.7-0.4,2.2-1.2l0.8-1.2l2.6-4.3c0.2-0.3,0.2-0.7,0-1C23.1,11.6,22.8,11.4,22.4,11.4z"/>
<path style="fill:#FFFFFF" d="M22,11.9l-3.6,2.7c-0.4,0.3-0.9,0.3-1.3,0l-2.5-1.9c-1.1-0.8-2.6-0.5-3.3,0.6l-0.8,1.2l-2.6,4.3
	c-0.4,0.6,0.4,1.3,0.9,0.9l3.6-2.7c0.4-0.3,0.9-0.3,1.3,0l2.5,1.9c1.1,0.8,2.6,0.5,3.3-0.6l0.8-1.2l2.6-4.3
	C23.3,12.1,22.6,11.4,22,11.9z"/>
</svg>