<svg viewBox="0 0 24 24" width="24" height="24" class=""><path fill="currentColor" d="M13.177 12.013l-.001-.125v-.541-.512c0-.464 0-.827-.002-1.178a.723.723 0 0 0-.557-.7.715.715 0 0 0-.826.4c-.05.115-.072.253-.073.403-.003 1.065-.003 1.917-.002 3.834v.653c0 .074.003.136.009.195a.72.72 0 0 0 .57.619c.477.091.878-.242.881-.734.002-.454.003-.817.002-1.633l-.001-.681zm-3.21-.536a35.751 35.751 0 0 0-1.651-.003c-.263.005-.498.215-.565.48a.622.622 0 0 0 .276.7.833.833 0 0 0 .372.104c.179.007.32.008.649.005l.137-.001v.102c-.001.28-.001.396.003.546.001.044-.006.055-.047.081-.242.15-.518.235-.857.275-.767.091-1.466-.311-1.745-1.006a2.083 2.083 0 0 1-.117-1.08 1.64 1.64 0 0 1 1.847-1.41c.319.044.616.169.917.376.196.135.401.184.615.131a.692.692 0 0 0 .541-.562c.063-.315-.057-.579-.331-.766-.789-.542-1.701-.694-2.684-.482-2.009.433-2.978 2.537-2.173 4.378.483 1.105 1.389 1.685 2.658 1.771.803.054 1.561-.143 2.279-.579.318-.193.498-.461.508-.803.014-.52.015-1.046.001-1.578-.009-.362-.29-.669-.633-.679zM18 4.25H6A4.75 4.75 0 0 0 1.25 9v6A4.75 4.75 0 0 0 6 19.75h12A4.75 4.75 0 0 0 22.75 15V9A4.75 4.75 0 0 0 18 4.25zM21.25 15A3.25 3.25 0 0 1 18 18.25H6A3.25 3.25 0 0 1 2.75 15V9A3.25 3.25 0 0 1 6 5.75h12A3.25 3.25 0 0 1 21.25 9v6zm-2.869-6.018H15.3c-.544 0-.837.294-.837.839V14.309c0 .293.124.525.368.669.496.292 1.076-.059 1.086-.651.005-.285.006-.532.004-1.013v-.045l-.001-.46v-.052h1.096l1.053-.001a.667.667 0 0 0 .655-.478c.09-.298-.012-.607-.271-.757a.985.985 0 0 0-.468-.122 82.064 82.064 0 0 0-1.436-.006h-.05l-.523.001h-.047v-1.051h1.267l1.22-.001c.458-.001.768-.353.702-.799-.053-.338-.35-.56-.737-.561z"></path></svg>