<?xml version="1.0" encoding="utf-8"?>
<!-- Generator: Adobe Illustrator 25.2.1, SVG Export Plug-In . SVG Version: 6.00 Build 0)  -->
<svg version="1.1" id="Capa_1" xmlns="http://www.w3.org/2000/svg" xmlns:xlink="http://www.w3.org/1999/xlink" x="0px" y="0px"
	 viewBox="0 0 195 160" style="enable-background:new 0 0 195 160;" xml:space="preserve">

<g>
	<path d="M159.5,48h-3.3c-1.9,0-3.4,1.5-3.4,3.4c0,1.6,0.2,3,0.3,4.3c0.7,4.9-2.7,9.5-7.6,10.3
		c-0.5,0.1-0.9,0.1-1.4,0.1c-4.5,0-8.3-3.2-8.9-7.7c-0.1-0.7-0.4-2.8-0.5-5.7c-0.1-2.6-2.2-4.7-4.9-4.7l-64.4,0
		c-6.5,0-11.8,5.3-11.8,11.8v66.8c0,6.5,5.3,11.8,11.8,11.8h45.1l9.7,11.3c3.1,3.6,8.7,3.7,11.9,0.1l10.3-11.4h17.1
		c6.5,0,11.8-5.3,11.8-11.8V59.8C171.4,53.3,166.1,48,159.5,48z"/>
	<path d="M179.9,24.5l-11.1-8.9c-2-1.6-4.9-0.2-4.9,2.4v3c-6.5-0.3-11.9,1.3-16,5c-11.2,10-8.2,30.9-8.1,31.8
		c0.3,2.2,2.3,3.8,4.5,3.8c0.2,0,0.5,0,0.7-0.1c2.5-0.4,4.2-2.7,3.8-5.1c-0.7-4.7-1.2-18.1,5.1-23.6c2.4-2.1,5.7-3,10-2.7v5.6
		c0,2.5,2.9,3.9,4.9,2.4l11.1-8.9C181.4,28,181.4,25.7,179.9,24.5z"/>
	<g>
		<path style="fill: #FFF" d="M93.3,111.8h-6.9V99.7H75.3v12.1h-7v-30h7v12.6h11.1V81.8h6.9V111.8z"/>
		<path style="fill: #FFF" d="M113.6,103.8c0-1.1-0.4-1.9-1.1-2.5c-0.7-0.6-2-1.2-3.8-1.8c-3.7-1.2-6.5-2.5-8.3-3.9s-2.7-3.3-2.7-5.9
			c0-2.5,1.1-4.5,3.2-6.1s4.8-2.3,8-2.3c3.4,0,6.2,0.8,8.3,2.4s3.1,3.9,3,6.8l0,0.1h-6.8c0-1.4-0.4-2.4-1.2-3.1
			c-0.8-0.6-1.9-1-3.5-1c-1.3,0-2.3,0.3-3,0.9c-0.7,0.6-1.1,1.4-1.1,2.3c0,0.9,0.4,1.6,1.1,2.1c0.7,0.5,2.1,1.2,4.2,2
			c3.5,1,6.1,2.3,7.9,3.8c1.8,1.5,2.7,3.5,2.7,6.1c0,2.6-1,4.7-3.1,6.2c-2.1,1.5-4.8,2.2-8.2,2.2c-3.4,0-6.3-0.8-8.6-2.4
			c-2.4-1.6-3.5-4.1-3.4-7.6l0-0.1h6.8c0,1.7,0.4,3,1.3,3.7c0.9,0.7,2.2,1.1,3.9,1.1c1.5,0,2.5-0.3,3.3-0.9
			C113.2,105.5,113.6,104.8,113.6,103.8z"/>
		<path style="fill: #FFF" d="M140.2,102.8h0.1l6.8-21h9.2v30h-7V92.5l-0.1,0l-6.6,19.4h-4.7l-6.5-19.1l-0.1,0v19.1h-7v-30h9.1L140.2,102.8
			z"/>
	</g>
	<g>
		<path d="M50.5,76.9c-1.3,0-2.5,0-3.8,0c-0.1-0.4-0.4-0.3-0.7-0.3c-1.5-0.1-2.9-0.3-4.4-0.7c-3.4-0.8-6.5-2.1-9.6-3.7
			c-0.3-0.2-0.6-0.2-1-0.1c-5.7,1.6-11.4,3.1-17.2,4.6c0-0.3,0-0.5,0-0.8c0.3,0,0.3-0.4,0.4-0.6c1.3-4.7,2.6-9.4,3.9-14.1
			c0.4-1.2,0.3-2.3-0.3-3.4c-2-3.7-3.3-7.8-3.7-12c0-0.2-0.1-0.3-0.3-0.3c0-2.4,0-4.9,0-7.3c0.2,0,0.3-0.2,0.3-0.4
			c0.1-1.4,0.4-2.8,0.8-4.2c0.7-3,1.9-5.9,3.5-8.6c2.2-3.8,5-7.1,8.4-9.8c2.4-1.9,5-3.6,7.9-4.8c2.8-1.2,5.7-2.1,8.7-2.5
			c0.4-0.1,1,0.1,1.3-0.4c2.5,0,5,0,7.4,0c0.2,0.5,0.7,0.2,1,0.3c3.2,0.5,6.2,1.3,9.2,2.6c3.9,1.7,7.4,4,10.4,7
			c1.1,1.1,2.2,2.3,3.1,3.5c1.9,2.4,3.5,5,4.6,7.8c1.5,3.4,2.4,7,2.6,10.7c0,0.2,0,0.4,0.3,0.4c0,1.4,0,2.8,0,4.2
			c-0.3,0-0.3,0.3-0.3,0.5c0,1.2-0.2,2.3-0.4,3.4c-0.7,4.3-2.3,8.3-4.6,12c-2.1,3.5-4.8,6.6-8,9.1c-2.7,2.1-5.6,3.9-8.8,5.2
			c-3.4,1.4-6.8,2.2-10.4,2.4C50.7,76.6,50.6,76.6,50.5,76.9z M22.4,68.4c2.9-0.7,5.6-1.3,8.3-2.2c1.4-0.4,2.6-0.2,3.8,0.5
			c5.6,3.3,11.6,4.7,18.1,3.7c8.7-1.3,15.4-5.8,20.2-13.2c3.8-5.9,5.2-12.4,4.3-19.4c-0.8-6-3.4-11.2-7.6-15.6
			c-5.5-5.7-12.2-8.6-20-8.9c-4.8-0.2-9.3,0.8-13.6,3c-5.5,2.8-9.7,6.9-12.6,12.3c-2.5,4.6-3.5,9.6-3.2,14.9
			c0.3,4.6,1.5,8.9,3.9,12.8c0.9,1.4,1.1,2.6,0.5,4.2C23.7,63.1,23.1,65.7,22.4,68.4z"/>
		<path style="fill: #FFF" d="M50.5,76.9c-1.3,0-2.5,0-3.8,0c-0.1-0.4-0.4-0.3-0.7-0.3c-1.5-0.1-2.9-0.3-4.4-0.7c-3.4-0.8-6.5-2.1-9.6-3.7
			c-0.3-0.2-0.6-0.2-1-0.1c-5.7,1.6-11.4,3.1-17.2,4.6c0-0.3,0-0.5,0-0.8c0.3,0,0.3-0.4,0.4-0.6c1.3-4.7,2.6-9.4,3.9-14.1
			c0.4-1.2,0.3-2.3-0.3-3.4c-2-3.7-3.3-7.8-3.7-12c0-0.2-0.1-0.3-0.3-0.3c0-2.4,0-4.9,0-7.3c0.2,0,0.3-0.2,0.3-0.4
			c0.1-1.4,0.4-2.8,0.8-4.2c0.7-3,1.9-5.9,3.5-8.6c2.2-3.8,5-7.1,8.4-9.8c2.4-1.9,5-3.6,7.9-4.8c2.8-1.2,5.7-2.1,8.7-2.5
			c0.4-0.1,1,0.1,1.3-0.4c2.5,0,5,0,7.4,0c0.2,0.5,0.7,0.2,1,0.3c3.2,0.5,6.2,1.3,9.2,2.6c3.9,1.7,7.4,4,10.4,7
			c1.1,1.1,2.2,2.3,3.1,3.5c1.9,2.4,3.5,5,4.6,7.8c1.5,3.4,2.4,7,2.6,10.7c0,0.2,0,0.4,0.3,0.4c0,1.4,0,2.8,0,4.2
			c-0.3,0-0.3,0.3-0.3,0.5c0,1.2-0.2,2.3-0.4,3.4c-0.7,4.3-2.3,8.3-4.6,12c-2.1,3.5-4.8,6.6-8,9.1c-2.7,2.1-5.6,3.9-8.8,5.2
			c-3.4,1.4-6.8,2.2-10.4,2.4C50.7,76.6,50.6,76.6,50.5,76.9z M22.4,68.4c2.9-0.7,5.6-1.3,8.3-2.2c1.4-0.4,2.6-0.2,3.8,0.5
			c5.6,3.3,11.6,4.7,18.1,3.7c8.7-1.3,15.4-5.8,20.2-13.2c3.8-5.9,5.2-12.4,4.3-19.4c-0.8-6-3.4-11.2-7.6-15.6
			c-5.5-5.7-12.2-8.6-20-8.9c-4.8-0.2-9.3,0.8-13.6,3c-5.5,2.8-9.7,6.9-12.6,12.3c-2.5,4.6-3.5,9.6-3.2,14.9
			c0.3,4.6,1.5,8.9,3.9,12.8c0.9,1.4,1.1,2.6,0.5,4.2C23.7,63.1,23.1,65.7,22.4,68.4z"/>
		<path d="M22.4,68.4c0.7-2.7,1.3-5.2,2.1-7.7c0.5-1.6,0.3-2.8-0.5-4.2c-2.4-3.9-3.6-8.2-3.9-12.8
			c-0.3-5.3,0.7-10.2,3.2-14.9c2.9-5.4,7.1-9.5,12.6-12.3c4.3-2.1,8.8-3.1,13.6-3c7.8,0.3,14.6,3.2,20,8.9c4.2,4.4,6.8,9.6,7.6,15.6
			c0.9,7-0.4,13.5-4.3,19.4C68,64.6,61.3,69.1,52.6,70.5c-6.5,1-12.5-0.4-18.1-3.7c-1.3-0.8-2.4-1-3.8-0.5
			C28,67,25.2,67.6,22.4,68.4z M37.7,25.8c-1.5-0.1-2,0.2-3.1,1.2c-2.3,2.2-3.3,4.8-2.9,7.9c0.2,2.2,0.9,4.2,2,6.1
			c2.8,4.9,6.6,9,11.3,12.3c3.7,2.5,7.7,4.5,12.2,5.1c2.9,0.4,5.4-0.5,7.5-2.7c1.2-1.3,1.6-3,1.9-4.7c0.2-0.9,0-1.3-0.9-1.7
			c-2.3-1.1-4.6-2.1-6.9-3.2c-1-0.4-1.3-0.4-2,0.5c-0.8,1.1-1.7,2.2-2.5,3.3c-0.4,0.5-0.8,0.7-1.4,0.4c-5.2-2.1-9.4-5.3-12.1-10.3
			c-0.4-0.6-0.3-1.2,0.2-1.7c0.8-0.8,1.6-1.7,2.3-2.6c0.5-0.6,0.6-1.1,0.3-1.9c-1.1-2.3-2.1-4.7-3.1-7c-0.3-0.7-0.8-1.1-1.6-1.1
			C38.4,25.9,37.9,25.8,37.7,25.8z"/>
		<path style="fill: #FFF" d="M37.7,25.8c0.2,0,0.7,0.1,1.1,0.1c0.8,0,1.3,0.3,1.6,1.1c1,2.4,2.1,4.7,3.1,7c0.3,0.7,0.2,1.3-0.3,1.9
			c-0.8,0.9-1.5,1.8-2.3,2.6c-0.5,0.5-0.6,1.1-0.2,1.7c2.8,4.9,6.9,8.2,12.1,10.3c0.6,0.2,1,0,1.4-0.4c0.8-1.1,1.7-2.2,2.5-3.3
			c0.7-0.8,1-0.9,2-0.5c2.3,1.1,4.6,2.1,6.9,3.2c0.8,0.4,1,0.8,0.9,1.7c-0.3,1.7-0.7,3.4-1.9,4.7c-2,2.2-4.6,3-7.5,2.7
			c-4.5-0.6-8.5-2.5-12.2-5.1C40.3,50.1,36.5,46,33.7,41c-1.1-1.9-1.8-3.9-2-6.1c-0.3-3.1,0.6-5.8,2.9-7.9
			C35.7,25.9,36.2,25.7,37.7,25.8z"/>
	</g>
</g>
</svg>
