<svg width="25" height="25" viewBox="0 0 25 25" fill="none" xmlns="http://www.w3.org/2000/svg">
<path d="M20.5107 22.3099C21.7039 22.0361 22.7064 21.2879 23.3422 20.2071C24.017 19.0579 24.1833 17.6447 23.7969 16.3341C23.6649 15.8793 23.7236 15.5272 24.0023 15.1556C25.5036 13.1163 25.1809 10.2116 23.2639 8.54891C23.0243 8.33863 22.8531 7.96698 22.8531 7.64422C22.8385 5.59523 21.699 3.83965 19.9532 3.1697C19.5571 3.0181 19.298 2.77359 19.117 2.37749C18.5791 1.19406 17.5962 0.362727 16.4128 0.0986567C15.2293 -0.165414 13.9823 0.167119 12.9847 1.01312C12.9114 1.0718 12.8429 1.12071 12.7793 1.16472L12.7696 1.16961C12.75 1.18428 12.7255 1.19895 12.706 1.21362L12.3832 1.44346L12.0996 1.16961C11.3465 0.43119 10.525 0.054645 9.59093 0.00574312C7.97228 -0.0822803 6.515 0.846856 5.79615 2.42639C5.72768 2.57309 5.53207 2.93497 5.19465 3.07678C3.15544 3.91301 2.14317 5.42897 2.09916 7.7078C2.09427 7.93274 2.00136 8.27995 1.74707 8.50001C-0.272581 10.2849 -0.575773 13.0723 1.01843 15.2827C1.21893 15.5614 1.20915 15.938 1.1847 16.1336C1.16024 16.3537 1.11623 16.5737 1.07711 16.7791C1.02332 17.0725 0.969527 17.3513 0.959747 17.6202C0.871723 19.9822 2.49038 21.9872 4.80344 22.393C5.05773 22.4371 5.31691 22.574 5.59076 22.8185C6.75462 23.8308 8.00651 24.2073 9.41489 23.9726C10.4272 23.8014 11.3172 23.2879 12.1289 22.4028L12.481 22.0165L12.8331 22.4028C12.882 22.4566 12.9212 22.5006 12.9603 22.5495C13.0287 22.6278 13.0874 22.6913 13.1412 22.7451C14.8137 24.3589 17.3077 24.4763 19.0779 23.019C19.5425 22.6522 19.9826 22.4322 20.5107 22.3099ZM11.6204 13.9477V13.9624C11.6204 15.6348 11.6204 17.361 11.6155 19.0628C11.6106 20.5054 10.7793 21.7622 9.54203 22.1925C9.24862 22.2952 8.94543 22.3441 8.64224 22.3441C7.8109 22.3441 7.03336 21.9627 6.50522 21.2927C6.17269 20.8722 5.84505 20.7108 5.34136 20.7157H5.31202C4.04057 20.7157 2.89137 19.6448 2.69087 18.2755C2.57351 17.4784 2.70554 16.7449 3.08209 16.0896C3.44396 15.4587 3.39017 15.1653 2.81802 14.6763C2.02092 13.9966 1.60525 12.9696 1.71773 11.9378C1.8302 10.8864 2.43169 9.9964 3.36572 9.49271C3.89875 9.20419 4.01612 8.94012 3.88897 8.31907C3.63957 7.07696 3.9232 6.07447 4.73008 5.34583C5.18487 4.93506 5.78637 4.72478 6.2167 4.61719C6.89644 4.45093 7.04803 4.30422 7.18496 3.70273L7.19474 3.65872C7.47837 2.38727 8.4613 1.58527 9.59093 1.70264C10.7206 1.82 11.6106 2.88607 11.6155 4.12328C11.6204 5.92777 11.6204 7.74203 11.6204 9.5025C11.6204 10.2214 11.6204 10.9402 11.6204 11.6591C11.6204 12.4219 11.6204 13.1848 11.6204 13.9477ZM18.6671 21.0287C18.1048 21.8502 17.205 22.3392 16.266 22.3392C15.9531 22.3392 15.645 22.2855 15.3565 22.1779C14.1486 21.7329 13.3368 20.5005 13.327 19.1166C13.3173 17.3268 13.3221 15.5174 13.3221 13.7716V13.4978C13.3221 12.8572 13.3221 12.2166 13.3221 11.5759C13.3221 9.09172 13.3221 6.61239 13.3221 4.12817C13.3221 2.88118 14.1828 1.84445 15.3222 1.70753C16.4714 1.5706 17.4886 2.38727 17.738 3.64894C17.8847 4.36779 18.1634 4.53406 18.54 4.55851C19.2931 4.6123 20.0022 4.99863 20.4863 5.61479C21.034 6.31409 21.2443 7.23345 21.0829 8.2017C20.9362 9.04771 20.99 9.16018 21.7284 9.57096C22.5499 10.0257 23.1074 10.8962 23.2199 11.8889C23.3373 12.9256 22.9607 13.9428 22.2223 14.6079C21.5181 15.2387 21.4937 15.3756 21.9338 16.2118C22.4179 17.1312 22.4375 18.2266 21.9827 19.146C21.5719 19.9773 20.8433 20.5445 19.9728 20.6961C19.7576 20.7353 19.5474 20.7353 19.3518 20.7304C19.0339 20.7255 18.8089 20.8233 18.6671 21.0287Z" stroke="none" fill="current"/>
</svg>
