<svg width="25" height="25" viewBox="0 0 25 25" fill="none" xmlns="http://www.w3.org/2000/svg">
<path d="M9.71773 8.40378C9.42521 8.11051 8.95034 8.1099 8.65707 8.40242C8.3638 8.69494 8.36319 9.16981 8.65571 9.46308L9.71773 8.40378ZM8.83294 9.28676L8.30261 9.81709L8.30263 9.81712L8.83294 9.28676ZM9.18627 8.93298L9.71659 8.40264L9.71592 8.40197L9.18627 8.93298ZM8.6564 9.46377C8.94929 9.75666 9.42417 9.75665 9.71706 9.46375C10.0099 9.17085 10.0099 8.69598 9.71704 8.40309L8.6564 9.46377ZM21.3967 11.4635C21.8061 11.5264 22.189 11.2455 22.2519 10.8361C22.3148 10.4267 22.034 10.0438 21.6246 9.98089L21.3967 11.4635ZM9.87932 21.7261C9.94226 22.1355 10.3252 22.4164 10.7346 22.3535C11.144 22.2905 11.4248 21.9076 11.3619 21.4982L9.87932 21.7261ZM8.65571 9.46308C8.46079 9.26767 8.46107 8.95126 8.6564 8.75619L9.71635 9.81755C10.107 9.42745 10.1076 8.79462 9.71773 8.40378L8.65571 9.46308ZM8.6564 8.75619C8.8517 8.56115 9.16808 8.56126 9.36324 8.7564L8.30263 9.81712C8.69298 10.2074 9.32576 10.2076 9.71635 9.81755L8.6564 8.75619ZM9.36327 8.75643C9.55844 8.9516 9.55854 9.26802 9.36348 9.46333L8.30217 8.40332C7.91205 8.79392 7.91226 9.42674 8.30261 9.81709L9.36327 8.75643ZM9.36348 9.46333C9.16845 9.6586 8.85205 9.65892 8.65662 9.46399L9.71592 8.40197C9.32507 8.01212 8.69227 8.01274 8.30217 8.40332L9.36348 9.46333ZM8.65595 9.46332L8.6564 9.46377L9.71704 8.40309L9.71659 8.40264L8.65595 9.46332ZM21.6246 9.98089C18.3821 9.48248 15.0962 10.5584 12.7765 12.8781L13.8372 13.9388C15.819 11.9569 18.6264 11.0376 21.3967 11.4635L21.6246 9.98089ZM12.7765 12.8781C10.4568 15.1978 9.3809 18.4837 9.87932 21.7261L11.3619 21.4982C10.9361 18.728 11.8553 15.9206 13.8372 13.9388L12.7765 12.8781Z" fill="#323232"/>
<path d="M16.5097 3.60999H8.50971C5.74829 3.60999 3.50971 5.84857 3.50971 8.60999V16.61C3.50971 19.3714 5.74829 21.61 8.50971 21.61H16.5097C19.2711 21.61 21.5097 19.3714 21.5097 16.61V8.60999C21.5097 5.84857 19.2711 3.60999 16.5097 3.60999Z" stroke="#323232" stroke-width="1.5" stroke-linecap="round" stroke-linejoin="round"/>
</svg>
