<?xml version="1.0" encoding="utf-8"?>
<!-- Generator: Adobe Illustrator 23.0.5, SVG Export Plug-In . SVG Version: 6.00 Build 0)  -->
<svg version="1.1" id="Bold" xmlns="http://www.w3.org/2000/svg" xmlns:xlink="http://www.w3.org/1999/xlink" x="0px" y="0px"
	 viewBox="0 0 512 512" style="enable-background:new 0 0 512 512;" xml:space="preserve">
<g>
	<path d="M299.2,406.1c-10.1-0.8-20.2-0.8-29.9-0.8h-7.4c-6.8,0-14.8,2.7-14.8,15.6v75.9c0,9.2,5.4,15.2,13.8,15.2
		c7.9,0,12.9-5.5,13.4-14.7c0.2-3.9,0.2-8.2,0-12.4v-2.8c1.7,0,3.4,0.1,5.1,0.2h0.1c6.4,0.2,13,0.4,19.7-0.2
		c19.1-1.5,33.9-17.8,34.3-37.8C333.9,424.4,318.9,407.6,299.2,406.1z M305.9,444.2c-0.3,5.4-4.2,9.9-8.6,10.1
		c-5.8,0.2-11.5,0.2-17.6,0h-5.1v-20.8c1.4,0,2.8-0.1,4.2-0.2c8.5-0.2,14.6-0.1,20.2,0.4C303.1,434.5,306.2,440.1,305.9,444.2z"/>
	<path d="M227.4,489c-1.8-4.6-3.5-9.3-5.3-14c-2.6-7-5.3-14.2-7.9-21c-4.8-13.3-9.2-24.9-13.3-35.2c-3.9-11-7.3-13.3-19.1-13.3
		c-12.8,0-16.1,2.3-19.7,13.6c-6.4,16.4-12.4,32.9-18.1,48.2l-4.8,12.9c-0.4,1.2-0.9,2.5-1.4,3.7c-1.2,3.2-2.5,6.6-3.5,9.8
		c-2.4,7.4,0.8,14.5,7.8,17.2c1.5,0.6,3.4,1.2,5.3,1.2c5.3,0,10-3.3,12.6-9c1.5-3.4,2.4-6,3-8.3c0.5-2.2,0.6-2.5,3.5-2.2h0.2
		c5.3,0.2,10.9,0.2,16.2,0h7.8c3.6,0,7,0,7.8,0.5c0.9,0.6,2.1,3.8,3.3,6.8l0.2,0.7c0.1,0.2,0.2,0.5,0.3,0.7c0.3,0.8,0.6,1.9,1.4,2.9
		c2.6,5,7.4,7.9,12.5,7.9c1.6,0,3.2-0.3,4.8-0.8l0.1-0.1c6.6-2.8,9.5-8.5,8.2-15.9C229.1,492.9,228.3,490.9,227.4,489z M174.7,464.2
		c1-2.5,1.9-5.1,2.9-7.6c1.4-3.6,2.8-7.3,4.3-11.2c0.3,0.7,0.6,1.4,0.8,2.2c1.3,3.4,2.6,6.7,3.8,10c0.8,2.2,1.7,4.4,2.5,6.6H174.7z"
		/>
	<path d="M363.7,405.7c-7.2,0-11.9,4.2-12.9,11.6c-0.4,2.2-0.4,4.4-0.4,6.2V494c0,2.1,0,4.4,0.4,6.8c1,6.5,5.3,10.5,12,11h1.4
		c6.1,0,10.7-3.4,12.7-9.4c0.9-3,0.9-5.8,0.9-8.6V459c0-11.7,0-22.8,0.6-34.6v-0.1c0-2.8-0.4-5.3-0.9-7.7
		C376.1,409.5,370.6,405.3,363.7,405.7z"/>
	<path d="M141.5,213.9c0-5.3-4.3-9.7-9.6-9.8h-0.1c-2.5,0-4.9,1-6.8,2.9c-1.9,1.9-2.9,4.4-2.9,6.9c0.1,5.3,4.4,9.6,9.8,9.6
		C137.3,223.5,141.5,219.4,141.5,213.9z"/>
	<path d="M390.1,213.9c0-5.3-4.3-9.7-9.6-9.8h-0.1c-2.5,0-4.9,1-6.8,2.9c-1.9,1.9-2.9,4.4-2.9,6.9c0.1,5.3,4.4,9.6,9.8,9.6
		C385.9,223.5,390.1,219.4,390.1,213.9z"/>
	<path d="M467.8,334.5c-2.5-0.8-5-0.8-6.9-0.9h-0.1c-12.4,0-24.8,0-37.2,0h-11.9c-0.6,0-1.1-0.3-1.4-0.8
		c-3.3-6.4-8.2-11.3-14.6-14.7c-0.5-0.3-0.8-0.8-0.8-1.3v-13.6c0-0.4,0.2-0.8,0.4-1.1c0.3-0.3,0.7-0.4,1.1-0.4h10.2
		c16.5,0,39.9,0,49.8,0c11.2,0,16.8-5.6,16.8-16.6c0-88.8,0-177.5,0-266.3c0-10.8-5.7-16.5-16.6-16.5c-35.5,0-117.5,0-152.7,0
		C292.7,2.3,287,7.9,287,19c0,90.7,0,180.3,0,266.3c0,10.7,5.8,16.4,16.7,16.4c6.7,0,19.3,0,32,0h4.5c9.2,0,18,0,24.2,0
		c0.8,0,1.5,0.7,1.5,1.5c0,4.3,0,9-0.1,13.5c0,0.6-0.3,1.1-0.8,1.3c-6.4,3.4-11.4,8.3-14.8,14.8c-0.3,0.5-0.8,0.8-1.3,0.8
		c-38.6,0.1-148.4,0.1-185.6,0c-0.6,0-1.1-0.3-1.3-0.8c-3.5-6.5-8.5-11.5-14.7-14.7c-0.5-0.3-0.8-0.8-0.8-1.3c0-4.3-0.1-8.5,0-13.6
		c0-0.8,0.7-1.5,1.5-1.5h24.7c13.7,0,27.6,0,35.1,0c11.9,0,17.4-5.4,17.4-17.1c0-88.5,0-176.9,0-265.4c0-11.2-5.8-16.9-17.1-16.9
		c-34.7,0-117.1,0-151.8,0C44.5,2.3,39,7.7,39,19.4c0,25.5,0,50.9,0,76.4v27.3v49.6c0,37.2,0,74.5,0,111.7c0,12,5.4,17.3,17.5,17.3
		c4.1,0,16.6,0,27.5,0h32c0.8,0,1.5,0.7,1.5,1.5c0,4.5,0,9.3-0.1,14c0,0.4-0.2,0.9-0.5,1.1c-1.1,1-2.4,2-3.7,3
		c-3.5,2.6-7.4,5.6-9.9,10c-0.7,1.2-1.2,1.9-1.5,2.2c-0.3,0.3-0.7,0.4-1,0.5c-0.4,0-0.9,0-1.4-0.1c-1.4-0.2-2.7-0.2-3.7-0.1
		l-0.2-1.5l0.1,1.5c-0.3,0-0.5,0-0.8,0H81.9c-10.4,0-20.9,0-31.3,0c-4.8,0-9,1.6-11.9,4.6c-2.6,2.6-4,6.2-4,10
		c0.1,8.3,6.6,14.2,15.9,14.3c1,0,2.1,0,3.1,0h47.1c0.6,0,1.1,0.3,1.4,0.8c6.2,12,16.5,18.4,29.8,18.5h0.3c13.1,0,23.5-6.4,30-18.4
		c0.3-0.5,0.8-0.8,1.3-0.8c21.5-0.1,68.5-0.1,109.9-0.1c31,0,59.9,0,75.7,0c0.6,0,1.1,0.3,1.4,0.8c6,11.9,16.6,18.5,29.7,18.5h0.2
		c13.3,0,23.9-6.6,29.9-18.5c0.3-0.5,0.8-0.9,1.4-0.8c6.5,0.1,13.2,0,19.1,0h7h7c6.6,0,12.5,0,18.5-0.1c7.7-0.1,13.7-5.6,14.3-13
		C478.1,342.4,474.3,336.7,467.8,334.5z M108.4,51.4c5.2,0,10.4,0,15.5,0h1.6c1.8,0,3.5,0,5.2,0c2.6,0,5.2,0,7.8,0h0.1
		c5.4,0,10.9-0.1,16.4,0c9.1,0.1,15.3,5.8,15.3,14.3c0,8.4-6.4,14.5-15.3,14.5c-16.4,0.1-31.6,0.1-46.5,0c-4.5-0.1-8.5-1.7-11.3-4.5
		c-2.6-2.8-4-6.4-3.9-10.3C93.5,57.4,99.8,51.5,108.4,51.4z M109,89.7c3.1,0,6.2,0,9.3,0c2.4,0,4.8,0,7.1,0h6.8h7c5.2,0,10.5,0,16,0
		c9,0.1,15.3,6,15.3,14.4c-0.1,8.5-6.4,14.4-15.4,14.5c-14.8,0.1-30.4,0.1-46.1,0c-4.7,0-8.9-1.7-11.8-4.7c-2.7-2.8-4-6.4-3.9-10.3
		C93.6,95.5,100,89.8,109,89.7z M109.2,127.9c3.1,0,6.1,0,9.2,0c2.1,0,4.2,0,6.2,0h2.6c1.6,0,3.2,0,4.8,0c2.1,0,4.1,0,6.1,0h0.6
		c4.8,0,10.3,0,15.7,0c9.7,0.1,15.8,5.6,15.9,14.2c0,4-1.3,7.6-3.9,10.2c-2,2-5.7,4.5-11.8,4.5c-14.9,0.1-30.4,0.1-45.6,0
		c-4.7,0-9-1.6-11.9-4.6c-2.6-2.7-3.9-6.2-3.9-10.1C93.3,133.8,99.9,128,109.2,127.9z M104.5,241.1c-7.3-7.3-11.3-16.9-11.3-27.2
		c0-21.3,17.3-38.7,38.6-38.7c10.3,0,20,4,27.3,11.3c7.3,7.3,11.3,17,11.3,27.3c0,21.3-17.3,38.6-38.5,38.6h-0.1
		C121.5,252.4,111.8,248.4,104.5,241.1z M131.9,353c-1.8,0-3-1-3.4-1.4c-0.6-0.6-1.5-1.8-1.5-3.6c0-2.7,2.2-4.9,4.8-4.9
		c1.2,0,2.5,0.6,3.5,1.5c1,1,1.5,2.2,1.5,3.5C136.8,350.6,134.4,353,131.9,353z M357.2,51.3c3.2,0,6.5,0,9.7,0c2.3,0,4.6,0,6.8,0
		c4.6,0,9.1,0,13.7,0c5.4,0,10.7,0,15.9,0c8.9,0.1,15.4,5.9,15.6,14c0.1,3.9-1.3,7.5-3.9,10.2c-2.9,3-7.1,4.7-11.8,4.7
		c-16.8,0.1-31.8,0.1-46.1,0c-9-0.1-15.3-6-15.2-14.6C341.9,57.3,348.2,51.4,357.2,51.3z M342.3,99.7c2.1-6.3,7.3-9.9,14.4-9.9
		c6.8,0,13.6,0,20.4,0c8.8,0,17.7,0,26.5,0c8.6,0,14.9,5.9,15.1,14c0.2,8.2-6.2,14.5-14.7,14.7c-5.6,0.2-11.2,0.1-16.6,0.1h-3.6
		h-3.6c-2.1,0-4.3,0-6.4,0h-0.7c-2.2,0-4.5,0-6.8,0c-3.6,0-6.6,0-9.4-0.1c-5.3-0.1-10-2.4-12.8-6.3
		C341.5,108.6,340.9,104.1,342.3,99.7z M357.6,127.9c3,0,6.1,0,9.1,0c2.3,0,4.6,0,6.9,0h2.6c1.5,0,2.9,0,4.4,0c2.2,0,4.4,0,6.6,0
		h0.5c4.9,0,10.1,0,15,0.1c9.4,0.1,15.8,5.7,16,14.1c0.1,3.9-1.3,7.4-3.9,10.1c-2.8,2.9-7,4.6-11.8,4.6c-7.5,0.1-15.2,0.1-22.8,0.1
		c-7.5,0-15.2-0.1-22.8-0.1c-6.2-0.1-9.8-2.5-11.8-4.5c-2.6-2.7-3.9-6.2-3.9-10.2C341.8,133.4,347.9,128,357.6,127.9z M353.2,241.2
		c-7.3-7.2-11.4-16.9-11.4-27.2c-0.1-21.3,17.1-38.7,38.3-38.8h0.2c10.1,0,19.7,4,27.3,11.1c7.3,7.3,11.4,17,11.5,27.2
		c0,10.3-3.9,20-11.2,27.3c-7.3,7.4-17,11.5-27.3,11.5h-0.2C370.1,252.3,360.4,248.4,353.2,241.2z M383.6,351.6
		c-0.5,0.5-1.7,1.4-3.3,1.4c-2.6,0-5-2.4-5-4.9c0-1.2,0.5-2.5,1.5-3.5s2.2-1.5,3.5-1.5c2.7,0,4.8,2.2,4.9,4.9
		C385.1,349.8,384.2,351,383.6,351.6z"/>
</g>
</svg>
