<svg width="35" height="35" viewBox="0 0 35 35" fill="none" xmlns="http://www.w3.org/2000/svg">
<g clip-path="url(#clip0_182_32733)">
<path d="M23.3363 32.0793C22.0754 32.0793 21.2081 31.6701 20.4429 31.3091C19.7053 30.9616 19.0678 30.6609 18.0175 30.6609C16.9672 30.6609 16.3296 30.9616 15.5921 31.3091C14.8268 31.6701 13.9595 32.0793 12.6986 32.0793C9.63066 32.0793 4.54297 25.0377 4.54297 17.5408C4.54297 12.5694 7.96975 8.67595 12.344 8.67595C13.7815 8.67595 14.6552 9.08799 15.4261 9.4511C16.158 9.79648 16.7906 10.0943 18.0175 10.0943C19.2444 10.0943 19.8769 9.79648 20.6088 9.4511C21.3797 9.08799 22.2534 8.67595 23.6909 8.67595C25.5802 8.67595 27.2603 9.37238 28.685 10.7475C28.9247 10.9787 29.0424 11.3099 29.002 11.6411C28.9616 11.9723 28.7687 12.2652 28.4808 12.4325C26.8383 13.3878 25.8185 15.4126 25.8185 17.7181C25.8185 20.3145 27.2397 22.547 29.3545 23.2718C29.6318 23.3668 29.8573 23.5718 29.9779 23.8385C30.0991 24.1044 30.1055 24.4094 29.9942 24.681C28.273 28.8985 25.41 32.0793 23.3363 32.0793ZM18.3721 7.96676C18.1182 7.96676 17.87 7.87599 17.6742 7.70578C17.4168 7.48168 17.2813 7.14694 17.3125 6.80582C17.321 6.71859 17.5274 4.64633 19.1515 2.98895C20.679 1.42873 22.1662 0.964918 22.33 0.916693C22.6768 0.815988 23.0513 0.898254 23.3236 1.13512C23.5966 1.37128 23.7307 1.73014 23.6803 2.08828C23.6562 2.25919 23.4044 3.81587 22.0974 5.5626C20.6982 7.43203 18.6997 7.91854 18.6153 7.9384C18.5345 7.95754 18.4529 7.96676 18.3721 7.96676Z" fill="black"/>
</g>
<defs>
<clipPath id="clip0_182_32733">
<rect width="34.0408" height="34.0412" fill="white" transform="translate(0.289062 0.875)"/>
</clipPath>
</defs>
</svg>
