<?xml version="1.0" encoding="utf-8"?>
<!-- Generator: Adobe Illustrator 23.0.5, SVG Export Plug-In . SVG Version: 6.00 Build 0)  -->
<svg version="1.1" id="Capa_1" xmlns="http://www.w3.org/2000/svg" xmlns:xlink="http://www.w3.org/1999/xlink" x="0px" y="0px"
	 viewBox="0 0 469.3 469.3" style="enable-background:new 0 0 469.3 469.3;" xml:space="preserve">
<style type="text/css">
	.st0{stroke:#000000;stroke-width:5;stroke-miterlimit:10;}
</style>
<g>
	<path d="M468.4,211.1c-4.8-49.5-24-93.7-57.3-131.4C374.7,38.6,329,12.9,275.2,3.3C269.1,2.2,263,1.5,257,0.7
		c-2.7-0.3-5.5-0.7-8.2-1l-27.7,0l-0.6,0c-2.7,0.4-5.5,0.7-8.3,1.1c-5.9,0.7-12,1.5-18,2.6c-53,9.4-98.2,34.5-134.3,74.6
		c-33.5,37.2-53.3,81.9-59,132.9c-0.2,1.9-0.4,3.9-0.7,5.8l-0.4,3.9l0,27.6l0.1,0.8c0.1,0.4,0.1,0.8,0.2,1.3l0.1,0.5
		c0.2,0.9,0.3,1.9,0.5,2.8c0.5,3.2,0.9,6.5,1.3,9.5c0.8,6.7,1.7,13.7,3.2,20.5c12.3,56.7,41.7,103,87.2,137.5
		c42.5,32.2,89.6,48.6,139.8,48.6c16.9,0,34.3-1.9,51.9-5.5c55.5-11.6,101.6-40.7,136.9-86.6C458.3,328.8,474.3,272.8,468.4,211.1z
		 M439.8,234.9c-0.2,54.8-21.8,106.3-60.7,145.1c-38.7,38.5-89.7,59.8-143.7,59.8l-1,0C121,439.2,29.1,347.1,29.5,234.3
		c0.5-113,92.3-204.8,204.6-204.8l0.8,0c54.7,0.2,106.2,21.8,145,60.7C418.8,129.1,440,180.5,439.8,234.9z"/>
	<path d="M331.4,281.5L331.4,281.5c-5.8-3-12-2-17.5,2.9c-1.7,1.6-3.4,3.2-5.1,4.8c-3.2,3.1-6.2,6-9.5,8.4
		c-34.1,24.7-71.1,28.7-110,11.8c-11.5-5-22.1-12.8-33.3-24.4c-3.2-3.4-7.3-5.2-11.5-5.2c-3.8,0-7.5,1.6-10.3,4.5
		c-6,6.1-5.7,15,0.6,21.7c27,28.6,60.1,42.9,101.1,43.7l0.2,0l0.3,0c1.2-0.1,2.6-0.2,4.1-0.3c3.6-0.2,7.6-0.5,11.8-1
		c32.2-4.3,59.8-18.6,82.2-42.5c2.2-2.4,3.9-5.4,4.6-8.4C340.6,291,337.6,284.7,331.4,281.5z"/>
	<path d="M154.6,229.6l0.3,0c9.3-0.1,18-3.8,24.6-10.5c6.6-6.7,10.1-15.5,10-24.8c-0.2-19-15.8-34.6-34.7-34.6h-0.1
		c-9.2,0-17.9,3.6-24.5,10.2c-6.7,6.7-10.3,15.5-10.3,24.8c0,9.4,3.7,18.2,10.5,24.8C136.9,226,145.5,229.6,154.6,229.6z
		 M149.7,194.6c0-1.3,0.6-2.6,1.6-3.5c0.9-0.9,2.2-1.4,3.4-1.4l0.1,0c2.6,0.1,4.9,2.5,4.8,5c0,1.3-0.6,2.5-1.5,3.4
		c-1,0.9-2.3,1.5-3.6,1.4C151.9,199.4,149.7,197.2,149.7,194.6z"/>
	<path d="M314.3,159.7L314.3,159.7c-19,0.3-34.4,16-34.4,34.9c0,9.3,3.7,18.2,10.4,24.8c6.6,6.6,15.2,10.2,24.4,10.2l0.2,0
		c9.3-0.1,18-3.8,24.6-10.4c6.6-6.7,10.2-15.5,10.1-24.7c-0.1-9.4-3.9-18.2-10.6-24.8C332.2,163,323.5,159.6,314.3,159.7z
		 M319.6,194.7L319.6,194.7c0,1.3-0.6,2.5-1.6,3.4c-1,0.9-2.3,1.4-3.6,1.3c-2.6-0.1-4.8-2.4-4.7-5c0.1-2.5,2.4-4.8,4.9-4.8
		c1.3,0,2.5,0.6,3.5,1.5C319.1,192.2,319.6,193.5,319.6,194.7z"/>
</g>
</svg>
