<?xml version="1.0" encoding="utf-8"?>
<!-- Generator: Adobe Illustrator 23.0.5, SVG Export Plug-In . SVG Version: 6.00 Build 0)  -->
<svg version="1.1" id="Capa_1" xmlns="http://www.w3.org/2000/svg" xmlns:xlink="http://www.w3.org/1999/xlink" x="0px" y="0px"
	 viewBox="0 0 469.3 469.3" style="enable-background:new 0 0 469.3 469.3;" xml:space="preserve">
<style type="text/css">
	.st0{stroke:#000000;stroke-width:5;stroke-miterlimit:10;}
</style>
<g>
	<path d="M467.5,222.1c-0.5-1.7-1-3.4-1.6-5.1c-1.1-3.8-2.3-7.8-3.8-11.6c-3.2-8.1-8.9-14.3-14.5-20.2c-1.3-1.4-2.6-2.8-3.8-4.2
		c-2.7-3-4.8-6.3-6-9.5c-7.9-20.8-15.8-42.1-23.4-62.6l-0.3-0.8c-2.9-7.7-5.7-15.4-8.6-23.2c-7.6-20.4-23.1-31.2-44.9-31.2
		c-39.9,0-79.8,0-119.6,0c-42,0-84.1,0-126.1,0c-22.1,0-37.2,10.5-44.9,31.1c-2.5,6.7-5.2,13.8-7.5,20c-6.1,16-12.4,32.6-17.9,49.1
		c-5.2,15.6-12.8,27.2-23.9,36.4c-12.3,10.2-18.8,24.7-18.9,42c-0.3,51.1-0.3,96.5,0,138.8c0.1,23.5,16.4,41.4,39.6,43.7
		c4.2,0.4,8.6,0.6,13.7,0.6c6.3,0,12.6-0.3,18.7-0.6l3.5-0.2c5.2-0.2,10.2-2.3,13.5-3.9c16.2-8.1,24.6-21.7,24.9-40.6
		c0.1-4.1,0-8.3,0-12.4l0-3.1H354l0,0.5c0,1.1,0,2.3-0.1,3.4l0,0.7c-0.1,5.4-0.2,11,0.2,16.6c1.4,19.9,17.6,36.9,37.1,38.7
		c10.1,1,21,1.1,35.4,0.5c13.6-0.6,25.1-6.9,32.3-17.8c2.9-4.4,4.6-9.4,6.3-14.3c0.7-2.1,1.5-4.2,2.3-6.2l0.2-0.5V222.5L467.5,222.1
		z M79.8,131.8c1.5-3.9,2.9-7.9,4.4-11.8c3.3-8.8,6.6-17.9,10-26.9c3.7-9.9,9.2-13.8,19.7-13.8c82.6,0,165.2,0,247.9,0
		c10.3,0,16.1,4,19.7,13.7c7.8,21,15.8,42.3,23.4,62.9l5,13.5h-16.1l-0.1-0.4c-3.8-18.2-13.2-32.8-27.7-43.5
		c-13.1-9.5-27.9-14-44-13.4c-27.1,1.1-58.2,19.1-66.5,56.8l-0.1,0.4H65.8L79.8,131.8z M367.1,169.6h-85.3l0.2-0.6
		c4.8-17,22.6-30.7,40.7-31.1c20.4-0.5,38.6,12.3,44.3,31.1L367.1,169.6z M89.6,375.5c-0.8,7.4-8.2,13.9-16.1,14.2
		c-5,0.2-10,0.3-14.9,0.3c-4.9,0-9.7-0.1-14.5-0.3c-8.7-0.3-16.1-7.6-16.5-16.2c-0.3-6.1-0.3-12.1-0.2-18.5c0-1.1,0-2.3,0-3.4l0-0.7
		l0.7,0.2c10.8,4,21.9,3.7,32.6,3.3c4.8-0.2,9.7-0.3,14.5-0.1c3.9,0.2,7.7,0.2,11.8,0.1l2.8,0l0,0.5c0,1.5,0.1,3,0.1,4.4
		C90,365,90.1,370.3,89.6,375.5z M378.9,328.9c-34.7,0-69.4,0-104.1,0l-40,0l-74.9,0c-37.2,0-74.3,0-111.5,0
		c-11.3,0-18.1-4.7-20.4-13.9c-0.5-2-0.6-4.3-0.6-6.4c0-10.9,0-21.7,0-32.6v-1.4c0-12.9,0-25.8,0-38.8c0-11.2,3.5-20,10.8-26.9
		c1.1-1,2.2-2.1,3.2-3.1c3.3-3.2,6.7-6.4,10.1-9.5c0.3-0.3,1.1-0.5,2.3-0.9l0.3-0.1c0.2,0,0.5,0,0.9,0c0.4,0,0.7,0,1.1,0l46,0
		c107.3,0,212.2,0,316.5-0.1c2.8,0,4.5,0.7,6.2,2.7c1.3,1.5,2.7,2.9,4,4.4c5.2,5.5,10.1,10.8,11.7,18.1c0.8,3.5,1.5,7.3,1.5,10.9
		c0.1,25.5,0.1,50.9,0.1,79c0,10.7-7.3,18.3-17.8,18.5c-6.9,0.1-13.9,0.2-20.9,0.2c-4,0-8,0-12,0l-0.9,0c-3.7,0-7.5,0-11.2,0H378.9z
		 M441.7,374.5c-0.7,8.3-8.2,15-17,15.2c-4.8,0.1-9.5,0.2-14.2,0.2c-4.7,0-9.4-0.1-13.9-0.2c-9.1-0.3-16.4-7.2-17-16.2
		c-0.3-4.8-0.2-9.6-0.2-14.7v0c0-1.3,0-2.6,0.1-3.9l0-0.5l0.5,0c1.9,0,3.7,0,5.5,0c6.9,0,13.4,0.1,20-0.1l1.5,0
		c8.5-0.1,17.4-0.3,26-1.1c2.9-0.3,5.6-1.2,8.2-2.2l0.7-0.3l0,0.7c0,1.3,0,2.5,0.1,3.7C442,361.7,442.2,368.2,441.7,374.5z"/>
	<path d="M131.8,228.8c-7.6,0-15.1,0-22.7,0l-11.4,0c-2.2,0-4.4,0-6.5,0l-4.1,0c-7.5,0-16.1,0-24.4,0c-9.5,0.1-14.6,5-14.7,14.3
		c-0.1,14.8-0.2,30.4,0,47.6c0.1,9.4,5.2,14.6,14.5,14.6c11.3,0.1,23.1,0.1,35.3,0.1c11.6,0,23.3,0,34.8-0.1c9.7,0,14.6-5,14.6-14.8
		c0.1-14.7,0.1-30,0-46.7C147.1,233.6,142.2,228.9,131.8,228.8z M121.3,279.5H73.6v-24.8h47.7V279.5z"/>
	<path d="M421.5,290.8c0.1-15.1,0.1-30.5,0-47.2c-0.1-9.8-5.2-14.7-15.2-14.8c-8,0-16,0-23.9,0l-10.6,0l-10.2,0c-3.5,0-7,0-10.5,0
		c-4.5,0-9,0-13.5,0c-10.4,0-15.3,4.8-15.3,15c-0.1,16.7-0.1,32,0,46.7c0,9.8,5,14.8,14.7,14.8c23.4,0.1,47.7,0.1,70,0
		C416.2,305.3,421.4,300.2,421.5,290.8z M395.7,279.6H348v-24.9h47.7V279.6z"/>
	<path d="M182.6,264.1c2.2,0.7,4.7,1,7.9,1.1c7.3,0,14.8,0,22.1,0l21.9,0l10.5,0c11.2,0,22.3,0,33.5,0c2.4,0,4.5-0.2,6.4-0.6
		c3.4-0.7,6.3-2.7,8-5.6c1.8-2.9,2.2-6.5,1.3-9.9c-1.6-5.9-6.4-9.3-13-9.3c-28.5-0.1-57.9,0-83.8,0l-9.5,0c-1.5,0-2.8,0.2-3.9,0.5
		c-5.4,1.5-8.7,5.5-9.4,11.1C173.9,256.6,177.6,262.5,182.6,264.1z"/>
	<path d="M280.8,270.1c-10.8-0.1-21.7-0.1-32.2-0.1l-6,0c-2.5,0-5.1,0-7.6,0c-4.5,0-8.9,0-13.3,0c-10.1,0.1-20.4,0.1-30.6-0.1
		c-13.6-0.4-16.2,7.6-16.5,12.4c-0.2,3.3,0.7,6.3,2.9,8.6c2.8,3,7.6,4.7,13.7,4.7c29.2,0,58.3,0,87.5,0c0,0,0.1,0,0.1,0
		c0.2,0,0.5,0,0.7,0l0.2,0c1.8,0,4.2,0.2,6.2-1.1c3.3-2,6.6-4.3,8-7.6c1.6-3.7,1.3-7.7-0.8-10.8C290.6,272.4,286,270.2,280.8,270.1z
		"/>
</g>
</svg>
