<?xml version="1.0" encoding="utf-8"?>
<!-- Generator: Adobe Illustrator 23.0.5, SVG Export Plug-In . SVG Version: 6.00 Build 0)  -->
<svg version="1.1" id="Capa_1" xmlns="http://www.w3.org/2000/svg" xmlns:xlink="http://www.w3.org/1999/xlink" x="0px" y="0px"
	 viewBox="0 0 469.3 469.3" style="enable-background:new 0 0 469.3 469.3;" xml:space="preserve">
<style type="text/css">
	.st0{stroke:#000000;stroke-width:5;stroke-miterlimit:10;}
</style>
<g>
	<path d="M468.1,272.3c0-12.5,0-25,0-37.5l0-29.1c0-30.1,0-61.3,0-91.9c0-6.3-0.1-12.4-1-18.3C459,40,414.2,1.3,358.2,1.2
		c-35.5,0-69.8-0.1-103.2-0.1c-49.6,0-97.1,0-143.5,0.1c-8.5,0-16.4,0.8-23.3,2.2C36.2,14.4,1.3,57.9,1.2,111.9
		c-0.1,75.6-0.1,152.4,0,226.7l0,19c0,4.9,0.1,10.6,0.9,16.3c8.1,55.3,52.7,94.1,108.4,94.2c60.9,0.1,122.8,0.1,182.7,0.1
		c21.8,0,43.7,0,65.5,0c14.8,0,28.8-2.7,41.8-8c41.5-17.1,67.4-56.4,67.5-102.6C468.2,329,468.2,300.2,468.1,272.3z M438.6,358.7
		c-0.1,45.5-34.4,79.9-79.9,80c-41.6,0.1-83.2,0.1-124.5,0.1c-41.7,0-83,0-123.7-0.1c-45.5-0.1-79.8-34.5-79.9-80
		c-0.1-81.7-0.1-165.2,0-248.2c0-45.4,34.4-79.8,79.9-80c28.9-0.1,58.2-0.1,86.6-0.1c13.3,0,26.6,0,39.9,0c12.2,0,24.5,0,36.7,0
		c28.2,0,57.4-0.1,86.1,0.1c37.9,0.2,68.9,25.3,77,62.4c1.2,5.3,1.7,11.2,1.8,17.6C438.7,200.6,438.7,281.8,438.6,358.7z"/>
	<path d="M311.7,156.4v-45.3h-29.2v45.1c0,0.6-0.4,1-1,1h-93.9c-0.6,0-1-0.4-1-1v-45.1h-29.3v45.5c0,0.6-0.4,1-1,1h-45.2v29.2h45.1
		c0.6,0,1,0.4,1,1v93.7c0,0.6-0.4,1-1,1h-45v29.4h45.5c0.6,0,1,0.4,1,1v45.2H187v-45c0-0.6,0.4-1,1-1h93.7c0.6,0,1,0.4,1,1v45.1
		h29.2v-45.4c0-0.6,0.4-1,1-1h45.3v-29.6h-44.9c-0.6,0-1-0.4-1-1v-93.6c0-0.6,0.4-1,1-1h45v-29.2h-45.4
		C312.2,157.4,311.7,156.9,311.7,156.4z M282.1,281.2c0,0.6-0.4,1-1,1h-92.9c-0.6,0-1-0.4-1-1v-93.3c0-0.6,0.4-1,1-1h92.9
		c0.6,0,1,0.4,1,1V281.2z"/>
</g>
</svg>
