<?xml version="1.0" encoding="utf-8"?>
<!-- Generator: Adobe Illustrator 23.0.5, SVG Export Plug-In . SVG Version: 6.00 Build 0)  -->
<svg version="1.1" id="Capa_1" xmlns="http://www.w3.org/2000/svg" xmlns:xlink="http://www.w3.org/1999/xlink" x="0px" y="0px"
	 viewBox="0 0 469.3 469.3" style="enable-background:new 0 0 469.3 469.3;" xml:space="preserve">
<style type="text/css">
	.st0{stroke:#000000;stroke-width:5;stroke-miterlimit:10;}
</style>
<g>
	<path d="M234.7,1.1h-0.1C105.8,1.2,1.1,105.5,1.1,233.5c0,63.1,24.3,122.1,68.3,166.2c44,44.1,102.7,68.4,165.5,68.4h0.2
		c62.1-0.1,120.6-24.4,164.7-68.6c44.1-44.2,68.4-102.7,68.3-164.8C468,106,363.3,1.1,234.7,1.1z M436.3,235.4
		c-0.2,53.8-21.5,104.4-59.7,142.3c-38.1,37.8-88.7,58.6-142.4,58.6l-0.6,0c-53.5-0.1-103.9-21.3-141.9-59.6
		c-38-38.3-58.9-88.8-58.8-142.4c0.1-53.9,21.3-104.6,59.8-142.8c38-37.8,88.1-58.6,141.2-58.6c0.3,0,0.5,0,0.8,0
		c54,0.2,104.8,21.4,142.9,59.7C415.7,130.9,436.6,181.6,436.3,235.4z"/>
	<path d="M355.6,238.8c-23-0.1-46.3,0-68.8,0l-4.6,0c-7.6,0-15.2,0-22.8,0h-6.8l0-35.5c0-22.5,0-45,0-67.6c0-10-6.4-17-15.5-17.1
		l-0.3,0c-4.3,0-8,1.5-10.9,4.3c-3.2,3.1-4.9,7.6-4.9,12.8c-0.1,41.8-0.1,80.3,0,117.7c0,10.4,6.6,16.9,17.1,17c3,0,6,0,8.9,0
		c2.3,0,4.6,0,6.7,0c2.3,0,4.6,0,6.8,0l28.3,0c22.2,0,44.3,0,66.5,0c8,0,13.4-3.3,16.2-9.9c2.1-4.8,1.7-10-1.1-14.2
		C367.4,241.7,361.8,238.9,355.6,238.8z"/>
</g>
</svg>
