<?xml version="1.0" encoding="utf-8"?>
<!-- Generator: Adobe Illustrator 25.2.1, SVG Export Plug-In . SVG Version: 6.00 Build 0)  -->
<svg version="1.1" xmlns="http://www.w3.org/2000/svg" xmlns:xlink="http://www.w3.org/1999/xlink" x="0px" y="0px"
	 viewBox="0 0 195 160" style="enable-background:new 0 0 195 160;" xml:space="preserve">

<g>
	<path d="M179.7,107.5l-0.2-1.1c-0.1-0.8-0.3-1.6-0.4-2.4c-1.8-11.7-8.7-22.3-18.8-29.3c-5.7-3.9-12.1-6.4-18.7-7.3
		c0-11.4,0-19.5,0-23.5c0-1.8-0.2-3.4-0.5-4.8c-2-8.7-9.3-14.6-18.3-14.7c-2.2,0-4.5,0-6.8,0l-1.1,0c0-0.2,0-0.4,0-0.6
		c-0.1-3.9-2.1-5.9-6-6l-0.2,0c-2.6,0-5.3,0-7.9,0C98.3,9.6,91.3,4.4,83,4.4c0,0-0.1,0-0.1,0c-8.2,0-15.3,5.4-17.8,13.3
		c-2.5,0-5.1,0-8.3,0c-3.6,0-5.8,2.2-5.9,5.8c0,0.3,0,0.5,0,0.8l-6.9,0c-11.5,0-19.6,8.1-19.6,19.6c0,28.2,0,56.4,0,84.5
		c0,11.6,8.1,19.7,19.7,19.7c13.2,0,40.9,0,57.2,0l5.6,0c0.1,0,0.2,0,0.4,0c0.3,0,0.6,0,0.9,0c0.6-0.1,1.2-0.2,1.7-0.5
		c3.8,2.7,8.1,4.8,12.6,6.1c2,0.6,4.1,1,6.2,1.4c0.9,0.2,1.8,0.3,2.7,0.5c0.1,0,0.3,0,0.4,0h7c0.2,0,0.3,0,0.4,0
		c1-0.2,2-0.4,2.9-0.6c2.2-0.4,4.5-0.8,6.8-1.6c17.5-6.3,27.7-18.8,30.4-37.2c0-0.1,0.1-0.2,0.1-0.4c0-0.1,0.1-0.3,0.1-0.4
		c0-0.2,0.1-0.4,0.1-0.5v-7C179.7,107.7,179.7,107.6,179.7,107.5z M130.7,67.2c-1.5,0.2-3,0.4-4.4,0.7c-10,2.3-18.4,7.5-24.5,14.6
		c-0.2-2.9-2.5-5-5.7-5c-0.2,0-0.4,0-0.6,0l-44.4,0l-0.2,0c-0.5,0-1,0-1.6,0.1c-2.5,0.3-4.4,2.2-4.8,4.6c-0.4,2.5,1.1,4.9,3.5,5.8
		c1,0.4,2,0.4,2.8,0.4c5.8,0,11.6,0,17.4,0l5,0l6.4,0c2.1,0,4.3,0,6.4,0c3.3,0,6.6,0,9.9,0c0.7,0,1.3-0.1,1.9-0.3
		c-5.1,8.3-7.5,18.3-6.3,28.8c0.8,7.4,3.7,14.4,8.1,20.3l-4.4,0c-16.3,0-39.2,0-50.7,0c-1.4,0-2.4-0.1-3.3-0.3c-3.7-1-5.8-4-5.8-8.4
		c0-22.5,0-45.1,0-67.6l0-17c0-0.3,0-0.6,0-1c0.3-4.2,3-7.2,7-7.5c2.3-0.2,4.7-0.1,7.2-0.1c0.5,0,0.9,0,1.4,0c0,0.2,0,0.5,0,0.7
		c0.1,7.4,5.3,12.5,12.7,12.5c13,0,25.9,0,38.9,0c7.2,0,12.4-5.1,12.5-12.4c0-0.3,0-0.6,0-0.9l0.9,0c2.1,0,4.2,0,6.2,0
		c5.4,0,8.6,3.2,8.6,8.6c0,3.2,0,8.6,0,13.8C130.7,61,130.7,64.5,130.7,67.2z M101.7,109.6c0.3-8.8,4.1-16.9,10.7-23
		c6.4-5.9,14.6-9.1,23.2-9.1c0.5,0,1,0,1.5,0c18,0.8,32.6,16.6,31.9,34.5c-0.4,9.1-4.2,17.5-10.7,23.8c-6.5,6.2-15,9.4-23.8,9.1
		C115.4,144.2,101,128.7,101.7,109.6z M104.1,36.3c0,0.6-0.2,1.2-1.3,1.3c-0.3,0-0.6,0-0.8,0l-0.3,0c-12.4,0-24.9,0-37.3,0
		c-2.3,0-2.4-0.1-2.4-2.4l0-5.7l0-0.9l5.6,0c0.6,0,1.2,0,1.8,0c3.4-0.1,5.5-2,5.8-5.4c0.4-4.1,2.3-6.6,5.7-7.6
		c2.2-0.7,4.7-0.2,6.6,1.1c1.9,1.3,3.1,3.4,3.3,5.7c0.3,4.3,2.2,6.1,6.6,6.1l5.8,0l0.9,0c0,0.3,0,0.6,0,0.9
		C104.1,31.8,104.1,34.1,104.1,36.3z"/>
	<path d="M115,57.5l-64,0l-0.2,0c-0.5,0-1,0-1.5,0.1c-2.6,0.3-4.6,2.3-4.8,4.8c-0.3,2.5,1.2,4.8,3.6,5.6
		c0.9,0.3,1.9,0.3,2.6,0.3c7,0,13.9,0,20.9,0c1.9,0,3.8,0,5.8,0l37.7,0c2.4,0,4.2-0.6,5.3-1.8c0.9-1,1.4-2.3,1.4-3.8
		C121.6,61.2,120.9,57.5,115,57.5z"/>
	<path d="M49.9,108.2c5.2,0,10.5,0,15.7,0c4,0,8.1,0,12.1,0l5.1,0c2.2,0,3.9-1,4.9-2.9c0.9-1.7,0.9-3.6-0.1-5.2
		c-1-1.7-2.8-2.7-4.9-2.7c-3.9,0-7.7,0-11.6,0l-4.8,0l-4.7,0c-3.9,0-7.9,0-11.8,0c-1.6,0-3.1,0.6-4.1,1.7c-1,1-1.5,2.4-1.5,3.8
		C44.4,105.9,46.8,108.2,49.9,108.2z"/>
	<path d="M124.9,127.8c1.5,1.5,3,1.9,4.1,1.9c0.1,0,0.1,0,0.2,0c1,0,2.5-0.4,4-2c7.3-8.3,14.8-16.9,22.5-25.7
		c1-1.2,1.5-2.6,1.4-4.1c-0.1-1.4-0.8-2.7-1.9-3.6c-2.2-1.9-5.4-1.7-7.5,0.6c-0.9,1-1.8,2-2.7,3l-16.3,18.7c-3.2-3.2-5.9-6-8.8-8.8
		c-2.3-2.2-5.5-2.4-7.7-0.3c-1,1-1.6,2.3-1.6,3.7c0,1.5,0.6,3,1.8,4.1C116.5,119.5,120.7,123.7,124.9,127.8z"/>
</g>
</svg>
