<svg width="30" height="30" viewBox="0 0 30 30" fill="none" xmlns="http://www.w3.org/2000/svg">
<path d="M0.22998 2.34619C0.22998 1.17773 1.20742 0.230164 2.41296 0.230164H27.5867C28.7922 0.230164 29.7697 1.17773 29.7697 2.34619V27.6538C29.7697 28.8226 28.7922 29.7699 27.5867 29.7699H2.41296C1.20742 29.7699 0.22998 28.8226 0.22998 27.6538V2.34619Z" fill="#006699"/>
<path d="M6.95345 9.79808C8.5092 9.79808 9.47778 8.77371 9.47778 7.49366C9.44889 6.18472 8.50953 5.1889 6.98299 5.1889C5.45677 5.1889 4.45898 6.18472 4.45898 7.49366C4.45898 8.77371 5.42723 9.79808 6.92456 9.79808H6.95345Z" fill="white"/>
<path d="M9.18446 24.9578V11.619H4.72266V24.9578H9.18446Z" fill="white"/>
<path d="M11.6533 24.9578H16.1151V17.5089C16.1151 17.1101 16.144 16.712 16.2618 16.4271C16.5845 15.6305 17.3184 14.8057 18.5512 14.8057C20.1657 14.8057 20.8116 16.029 20.8116 17.822V24.9578H25.2728V17.3097C25.2728 13.2125 23.0717 11.3062 20.1361 11.3062C17.7293 11.3062 16.6724 12.6431 16.0853 13.5536H16.1151V11.619H11.6533C11.7117 12.8709 11.6533 24.9578 11.6533 24.9578Z" fill="white"/>
</svg>
