<?xml version="1.0" encoding="utf-8"?>
<!-- Generator: Adobe Illustrator 23.0.5, SVG Export Plug-In . SVG Version: 6.00 Build 0)  -->
<svg version="1.1" id="Bold" xmlns="http://www.w3.org/2000/svg" xmlns:xlink="http://www.w3.org/1999/xlink" x="0px" y="0px"
	 viewBox="0 0 512 512" style="enable-background:new 0 0 512 512;" xml:space="preserve">
<g>
	<path d="M492.7,440.1c-1.2-0.1-2.4-0.1-3.6-0.1v-0.2c0-49,0-149.8,0-198.9c0-0.4,0-0.8,0-1.2c0-1,0-2,0-3.1c0-52,0-103.9,0-155.9
		v-8.7c0.8,0,1.5,0,2.2,0c12-0.2,19.5-7.7,19.6-19.6c0.1-11.6,0.1-22.1,0-32.2c-0.1-11.3-7.5-19-18.5-19.2c-11.5-0.2-23-0.2-34.2,0
		C448,1.3,440.5,8.8,440,19.3c-0.1,1.3-0.1,2.5-0.1,3.7h-25.2c-73.2,0-170.9,0-237.5,0l-1,0c-0.8,0-1.5,0-2.2,0l-0.8,0
		c-27.9,0-55.8,0-83.7,0H72c0-0.5,0-1,0-1.5C71.9,8.8,64.3,1.2,51.7,1.1c-3.2,0-6.5,0-9.6,0c-6,0.1-12.2,0.1-18.3-0.2
		C13.4,0.5,5.9,4.7,1.7,13.4L1,14.7v43.6l0.5,1.2c4.7,10.6,13.2,12.5,21.3,12.7v47.4c0,79,0,179.7,0,250.3c0,0.7,0,1.3,0,2l0,67.9
		c-8.1,0.1-16.6,2-21.3,12.7L1,453.8v44.8L13.5,511h44.8l1.2-0.6c10.9-4.9,12.6-14,12.7-21h367.7c0.2,7.6,2.1,16.3,12.7,21l1.2,0.5
		h43.8l1.5-0.8c3.3-1.9,11.9-6.8,11.9-17.8c0-3.2,0-6.4,0-9.6l0-0.3c0-7.9,0.1-16.2-0.1-24.3C510.7,448,503.2,440.5,492.7,440.1z
		 M28.6,44.4V28.6h15.9v15.8H28.6z M461.8,239.6l0,9.6c0,0.3,0,0.6,0,0.9c-0.1,1.2-0.1,2.5,0,4c0,52.3,0,140.9,0,186.1
		c-5.1,0-11.1,0.3-16.4,5.4c-5.3,5.2-5.5,11.5-5.5,16.2H72c0-4.8-0.3-11.1-5.6-16.3c-5.3-5.2-11.6-5.3-16.3-5.3l0-67.1l0-1.1
		c0-0.9,0-1.8,0-2.6c0-72.2,0-175,0-254.4V72.2c5.2,0.1,12.7,0.1,17.2-7.1c2.7-4.3,3.7-9.2,4.8-13.9l0-0.2c0.1-0.3,0.1-0.5,0.2-0.8
		l18.4,0c27.3,0,54.7,0,82,0c0.7,0,1.3,0,1.9,0c0.9,0,1.8,0,2.7,0c63.9,0,156.3,0,228.4,0h34.2c0,4.8,0.3,11.1,5.4,16.3
		c5.3,5.3,11.7,5.4,16.4,5.5v0.4c0,54.7,0,109.4,0,164C461.8,237.6,461.8,238.6,461.8,239.6z M44.4,467.6v15.9H28.6v-15.9H44.4z
		 M467.6,44.4V28.7h15.9v15.8H467.6z M483.4,467.7v15.8h-15.8v-15.8H483.4z"/>
	<path d="M422.6,197.8l-245.8,0c-29.6,0-59.1,0-88.7,0c-11.8,0-16.7,4.8-16.7,16.7c0,27,0,54,0,81.1c0,12,5,16.9,17.1,16.9
		c53.6,0,112.3,0,170.8,0c56.3,0,112.6,0,164.2,0c12.3,0,17.2-4.9,17.2-17.3c0-22,0-44.1,0-66.1l0-13
		C440.6,202.1,436.4,197.8,422.6,197.8z M98.7,240.7l0-1.5c0-4.5,0-9.1,0-13.6H413v59.7l-72,0c-78.4,0-167.2,0-242.5,0.1
		C98.8,270.4,98.7,255.3,98.7,240.7z"/>
	<path d="M221.6,186.1c6.7,0.1,24.7,0.1,47.9,0.1c12.7,0,25.3,0,34.4,0c0.4,0,0.7,0,1.1,0c39.3,0,78.6,0,117.9,0
		c12.8,0,17.6-4.7,17.6-17.4c0-26.7,0-53.4,0-80.1c0-12.5-4.7-17.2-17.1-17.2c-53.1,0-106.1,0-159.2,0l-39.8,0l-0.6,0
		c-0.7,0-1.4,0-2.1,0c-12.8,0.5-14.3,10.2-14.3,14.4c-0.1,29.1-0.1,58,0,86C207.5,180.5,212.9,186,221.6,186.1z M413.4,159
		c-21.2-0.1-42.2-0.1-58.2-0.1c-9,0-17.9,0-26.7,0l-20.3,0c-15.9,0-45.9,0-60.2,0l-12.9,0V99.3h178.3c0,5.1,0,10.1,0,15.2
		C413.2,129,413.2,144.1,413.4,159z"/>
	<path d="M88.1,186.2c14.1,0,27.7,0,40.9,0c13.9,0,27.4,0,40.6,0c11.4,0,16.5-5.1,16.5-16.5c0-28.4,0-56,0-82
		c0-11.2-5-16.1-16.2-16.2c-9.6,0-19.1,0-28.7,0l-12.1,0l-11.9,0c-9.8,0-19.6,0-29.3,0c-11.5,0-16.5,4.9-16.5,16.4
		c0,24.7,0,51.4,0,81.5C71.4,181.2,76.4,186.2,88.1,186.2z M99.1,158.5V99.1h59.3v59.4H99.1z"/>
	<path d="M169.7,324.1c-9.6,0-19.1,0-28.7,0l-12.1,0l-12.1,0c-9.5,0-19.1,0-28.6,0c-11.9,0-16.8,4.8-16.8,16.5c0,27.2,0,54.6,0,81.5
		c0,11.5,5.1,16.6,16.4,16.6c13.6,0,27.3,0,41,0s27.4,0,41,0c11.3,0,16.3-5,16.3-16.2c0-27.4,0-55.1,0-82.5
		C186,329.1,181,324.1,169.7,324.1z M158.3,351.8v59.4H99v-59.4H158.3z"/>
	<path d="M296.7,324.1L296.7,324.1c-9.6,0-19.2,0-28.7,0l-12,0l-12.2,0c-9.5,0-19.1,0-28.6,0c-11.6,0-16.6,4.9-16.6,16.3
		c0,27.2,0,54.8,0,82c0,11.3,5.1,16.4,16.6,16.4c13.4,0,27,0,40.8,0c13.5,0,27.1,0,40.8,0c11.5,0,16.6-5.1,16.6-16.4
		c0-26.8,0-54.4,0-82C313.3,329,308.3,324.1,296.7,324.1z M285.7,351.7v59.4h-59.4v-59.4H285.7z"/>
	<path d="M424.3,324.1L424.3,324.1c-25.4,0-52.3,0-82,0c-11.5,0-16.4,4.9-16.4,16.4c0,9.5,0,19,0,28.5l0,12.2c0,4.1,0,8.2,0,12.4
		v0.3c0,9.5,0,19.4,0,29.1c0.1,10.6,5.2,15.7,15.7,15.7c13.7,0,27.5,0,41.6,0c13.4,0,27.2,0,41.4,0c10.9,0,15.9-5.1,15.9-16
		c0-25.9,0-52.9,0-82.5C440.6,329.1,435.6,324.1,424.3,324.1z M413,351.8v59.3h-59.4v-59.3H413z"/>
</g>
</svg>
