<svg width="34" height="34" viewBox="0 0 34 34" fill="none" xmlns="http://www.w3.org/2000/svg">
<path d="M31.167 15.5833V21.25C31.167 23.5974 29.2644 25.5 26.917 25.5C24.5696 25.5 22.667 23.5974 22.667 21.25V14.1667H29.7503C30.533 14.1667 31.167 14.8006 31.167 15.5833ZM26.917 11.3333C28.4817 11.3333 29.7503 10.0647 29.7503 8.49999C29.7503 6.93528 28.4817 5.66666 26.917 5.66666C25.3523 5.66666 24.0837 6.93528 24.0837 8.49999C24.0837 10.0647 25.3523 11.3333 26.917 11.3333Z" fill="#5059C9"/>
<path d="M24.7917 15.5833V23.375C24.7917 27.4429 21.3626 30.7105 17.2366 30.4427C13.4718 30.199 10.625 26.9046 10.625 23.132V14.1666H23.375C24.1577 14.1666 24.7917 14.8006 24.7917 15.5833ZM17.7083 12.0416C20.0558 12.0416 21.9583 10.139 21.9583 7.79163C21.9583 5.44421 20.0558 3.54163 17.7083 3.54163C15.3609 3.54163 13.4583 5.44421 13.4583 7.79163C13.4583 10.139 15.3609 12.0416 17.7083 12.0416Z" fill="#7B83EB"/>
<path d="M17.708 12.0417C20.0552 12.0417 21.958 10.1389 21.958 7.79166C21.958 5.44445 20.0552 3.54166 17.708 3.54166C15.3608 3.54166 13.458 5.44445 13.458 7.79166C13.458 10.1389 15.3608 12.0417 17.708 12.0417Z" fill="#7B83EB"/>
<path opacity="0.05" d="M18.4167 23.6009V14.1666H10.625V23.132C10.625 24.2186 10.868 25.2627 11.2937 26.2083H15.8086C17.2493 26.2083 18.4167 25.041 18.4167 23.6009Z" fill="black"/>
<path opacity="0.07" d="M10.625 14.1666V23.132C10.625 23.9537 10.7674 24.7498 11.0174 25.5H15.7335C16.9547 25.5 17.9442 24.5104 17.9442 23.2893V14.1666H10.625Z" fill="black"/>
<path opacity="0.09" d="M17.4725 14.1666H10.625V23.132C10.625 23.7001 10.6965 24.254 10.8191 24.7916H15.6584C16.66 24.7916 17.4718 23.9799 17.4718 22.9783V14.1666H17.4725Z" fill="black"/>
<path d="M15.583 24.0833H4.24967C3.46697 24.0833 2.83301 23.4494 2.83301 22.6667V11.3333C2.83301 10.5506 3.46697 9.91666 4.24967 9.91666H15.583C16.3657 9.91666 16.9997 10.5506 16.9997 11.3333V22.6667C16.9997 23.4494 16.3657 24.0833 15.583 24.0833Z" fill="url(#paint0_linear_110_9)"/>
<path d="M12.7982 13.4576H7.03516V14.6759H9.19345V20.5409H10.6399V14.6759H12.7982V13.4576Z" fill="white"/>
<defs>
<linearGradient id="paint0_linear_110_9" x1="3.29201" y1="10.3757" x2="16.5768" y2="23.6604" gradientUnits="userSpaceOnUse">
<stop stop-color="#5961C3"/>
<stop offset="1" stop-color="#3A41AC"/>
</linearGradient>
</defs>
</svg>
