<svg width="25" height="25" viewBox="0 0 25 25" fill="none" xmlns="http://www.w3.org/2000/svg">
<path d="M20.5098 0H4.49019C2.01421 0 0 2.01421 0 4.49019V20.5098C0 22.9858 2.01421 25 4.49019 25H20.5098C22.9858 25 25 22.9858 25 20.5098V4.49019C25 2.01421 22.9858 0 20.5098 0ZM21.1274 19.5098H13.1152C12.411 21.5943 9.45278 21.5975 8.74756 19.5098H3.87256C2.8998 19.5098 2.89956 18.0392 3.87256 18.0392H8.74756C9.45171 15.9547 12.41 15.9516 13.1152 18.0392H21.1274C22.1002 18.0392 22.1005 19.5098 21.1274 19.5098ZM21.1274 13.2353H19.3897C18.6855 15.3198 15.7273 15.3229 15.022 13.2353H3.87256C2.8998 13.2353 2.89956 11.7647 3.87256 11.7647H15.0221C15.7262 9.68022 18.6845 9.67705 19.3897 11.7647H21.1275C22.1002 11.7647 22.1005 13.2353 21.1274 13.2353ZM21.1274 6.96079H9.97793C9.27373 9.04526 6.31553 9.04844 5.6103 6.96079H3.87256C2.8998 6.96079 2.89956 5.49019 3.87256 5.49019H5.6103C6.31445 3.40571 9.27271 3.40254 9.97793 5.49019H21.1274C22.1002 5.49019 22.1005 6.96079 21.1274 6.96079Z" stroke="none" fill="current"/>
<path d="M10.9314 17.9412C9.82881 17.9412 9.82939 19.6078 10.9314 19.6078C12.0339 19.6079 12.0333 17.9412 10.9314 17.9412Z" stroke="none" fill="current"/>
<path d="M7.79413 5.39209C6.69154 5.39209 6.69213 7.05874 7.79413 7.05874C8.89667 7.05879 8.89608 5.39209 7.79413 5.39209Z" stroke="none" fill="current"/>
<path d="M17.2059 11.6666C16.1033 11.6666 16.1039 13.3333 17.2059 13.3333C18.3085 13.3333 18.3079 11.6666 17.2059 11.6666Z" stroke="none" fill="current"/>
</svg>
