<?xml version="1.0" encoding="utf-8"?>
<!-- Generator: Adobe Illustrator 23.0.5, SVG Export Plug-In . SVG Version: 6.00 Build 0)  -->
<svg version="1.1" id="Bold" xmlns="http://www.w3.org/2000/svg" xmlns:xlink="http://www.w3.org/1999/xlink" x="0px" y="0px"
	 viewBox="0 0 512 512" style="enable-background:new 0 0 512 512;" xml:space="preserve">
<g>
	<path d="M228.9,203.7c-3.1-2-6.3-3.9-9.5-5.8c-12.3-7.3-24.7-14.5-37.5-22.1c1.4-1.6,2.4-2.7,3.3-3.8
		c11.5-13.4,20.2-28.2,20.8-46.2c0.6-20.9,0.3-41.9,0-62.8c-0.1-11.5-4.4-21.7-11.4-30.7C179.7,13.5,159.7,4,136.4,1.5
		C119.2-0.4,103,2.7,89.9,15.3c-1,0.9-2.6,1.2-3.9,1.6c-9.9,2.6-17.3,8.3-22.5,17c-4.7,7.9-7.3,16.6-7.6,25.7
		c-0.6,19.6-0.4,39.3-1,58.9c-0.5,16.8,4.9,31.6,14.5,45.1c3,4.1,6.3,8,9.6,12.3c-9.2,5.5-18.2,10.9-27.1,16.2
		c-6.5,3.9-13.1,7.6-19.5,11.6c-12.4,7.8-21,18.6-21.6,33.6c-0.8,20.3-0.4,40.6-0.3,60.9c0,4.8,2.8,9.3,7.9,9.7
		c7.3,0.5,39.9,0.6,62.4,0.5c0.3,0.1,0.6,0.1,0.9,0.2c1.6,0.2,3.2,0.1,4.8,0.1c49.9,0,99.9,0,149.8,0c10.4,0,14.4-3.8,14.5-14.2
		c0.1-16.7-0.1-33.5,0-50.2C251,226.5,243.8,213,228.9,203.7z"/>
	<path d="M501.6,446.6c0.1-17.5-7.1-31-22-40.4c-3.1-2-6.3-3.9-9.5-5.8c-12.3-7.3-24.7-14.5-37.5-22.1c1.4-1.6,2.4-2.7,3.3-3.8
		c11.5-13.4,20.2-28.2,20.8-46.2c0.6-20.9,0.3-41.9,0-62.8c-0.1-11.5-4.4-21.7-11.4-30.7c-14.8-18.8-34.8-28.2-58.1-30.8
		c-17.3-1.9-33.4,1.2-46.6,13.8c-1,0.9-2.6,1.2-3.9,1.6c-9.9,2.6-17.3,8.3-22.5,17c-4.7,7.9-7.3,16.6-7.6,25.7
		c-0.6,19.6-0.4,39.3-1,58.9c-0.5,16.8,4.9,31.6,14.5,45.1c3,4.1,6.3,8,9.6,12.3c-9.2,5.5-18.2,10.9-27.1,16.2
		c-6.5,3.9-13.1,7.6-19.5,11.6c-12.4,7.8-21,18.6-21.6,33.6c-0.8,20.3-0.4,40.6-0.3,60.9c0,4.8,2.8,9.3,7.9,9.7
		c7.3,0.5,39.9,0.6,62.4,0.5c0.3,0.1,0.6,0.1,0.9,0.2c1.6,0.2,3.2,0.1,4.8,0.1c49.9,0,99.9,0,149.8,0c10.4,0,14.4-3.8,14.5-14.2
		C501.7,480.1,501.6,463.3,501.6,446.6z"/>
	<path d="M242.4,88.6c1.5,0.3,2.9,0.3,4.2,0.3h0.3c10.1,0,21.6,0,33.5,0c19.4,0,39.6,0,56.1,0c16.6,0,29.1,12.6,29.1,29.2
		c0,9.2,0,10.7,0,14.1v4.1c-1.7-1.7-3.4-3.4-5.1-5c-4.2-4.1-9.3-5.3-14.8-3.5c-4.8,1.6-8.4,5.4-9.6,10.3c-1.2,5,0.3,10.2,4,14
		c7.3,7.4,14.8,14.8,22,22l6.9,6.9c3.4,3.4,7.2,5.1,11.1,5.1c3.8,0,7.7-1.7,11.1-5.2l7.6-7.6c6.2-6.2,12.5-12.5,18.7-18.7
		c2.6-2.6,5.6-5.6,6.8-10l0.1-0.5v-5.8l-0.6-0.7c-1.3-4.8-5.1-8.6-10-10c-5.3-1.5-10.9,0.1-14.9,4.3c-1.4,1.5-3,3-4.5,4.5
		c0-1.8,0-3.1,0-4.1c0-3.5,0-4.9,0-14.3c0-7.4-1.2-14.5-3.8-21c-8.8-22.9-29.7-37.1-54.3-37.2c-20.4,0-46.5,0-69.6,0l-20.6,0
		c-1,0-2,0.1-2.9,0.2c-7,1-12.3,6.8-12.5,13.7C230.6,80.9,235.5,87.1,242.4,88.6z"/>
</g>
</svg>
