<?xml version="1.0" encoding="utf-8"?>
<!-- Generator: Adobe Illustrator 26.0.0, SVG Export Plug-In . SVG Version: 6.00 Build 0)  -->
<svg version="1.1" id="Capa_1" xmlns="http://www.w3.org/2000/svg" xmlns:xlink="http://www.w3.org/1999/xlink" x="0px" y="0px"
	 viewBox="0 0 1000 800" style="enable-background:new 0 0 1000 800;" xml:space="preserve">
<style type="text/css">
	.st0{fill:#881FB6;}
	.st1{fill:#6C6C6C;}
	.st2{fill:#55BD84;}
	.st3{fill:#F5ECDC;}
	.st4{fill:#381052;}
</style>
<g>
	<g>
		<path class="st0" d="M501.9,723.5c-57.9-0.1-113.7-9.6-167.9-28.7c-12.4-4.4-17.7-11.5-17.9-24.6c-0.2-16.1,0.4-32.2-0.1-48.3
			c-1.2-33.5,13.4-58.8,39.7-78c24.4-17.9,52.4-28,81.6-35c2.3-0.5,5.3,0.3,7.5,1.4c37.9,20.2,75.6,20.1,113.5,0.1
			c2.4-1.3,5.7-2.1,8.2-1.4c30.3,7.6,59.4,18.1,84.3,37.6c23.9,18.8,37,42.9,36.2,73.9c-0.4,15.6,0,31.2-0.1,46.9
			c0,16.5-4.6,22.9-20,28.3C613.3,714.1,558.1,723.3,501.9,723.5z"/>
		<path class="st0" d="M501,501.9c-50.6-0.3-90.9-41.3-90.5-91.9c0.4-49.4,42-90.2,91.5-89.7c50.6,0.5,91,41.6,90.5,92.1
			C592,462,550.9,502.2,501,501.9z"/>
	</g>
	<g>
		<g>
			<path class="st1" d="M271.9,517.3c-36-0.1-70.7-6-104.5-17.8c-7.7-2.7-11-7.2-11.1-15.3c-0.1-10,0.3-20.1-0.1-30.1
				c-0.7-20.8,8.4-36.6,24.7-48.5c15.2-11.1,32.6-17.4,50.7-21.8c1.4-0.3,3.3,0.2,4.7,0.9c23.6,12.6,47.1,12.5,70.6,0.1
				c1.5-0.8,3.6-1.3,5.1-0.9c18.8,4.8,36.9,11.2,52.5,23.4c14.9,11.7,23,26.7,22.5,46c-0.2,9.7,0,19.4,0,29.2
				c0,10.2-2.9,14.3-12.4,17.6C341.3,511.5,306.9,517.3,271.9,517.3z"/>
			<path class="st1" d="M271.4,379.5c-31.5-0.2-56.6-25.7-56.3-57.2c0.3-30.7,26.2-56.1,56.9-55.8c31.5,0.3,56.6,25.9,56.3,57.3
				C328,354.6,302.4,379.7,271.4,379.5z"/>
		</g>
	</g>
	<g>
		<g>
			<path class="st2" d="M421.7,271c-27.9-0.1-54.9-4.6-81-13.8c-6-2.1-8.6-5.5-8.6-11.9c-0.1-7.8,0.2-15.6-0.1-23.3
				c-0.6-16.1,6.5-28.3,19.2-37.6c11.8-8.6,25.3-13.5,39.3-16.9c1.1-0.3,2.6,0.1,3.6,0.7c18.3,9.8,36.5,9.7,54.8,0
				c1.1-0.6,2.8-1,4-0.7c14.6,3.7,28.7,8.7,40.7,18.1c11.5,9.1,17.8,20.7,17.5,35.7c-0.2,7.5,0,15.1,0,22.6c0,7.9-2.2,11.1-9.6,13.6
				C475.5,266.5,448.9,271,421.7,271z"/>
			<path class="st2" d="M421.3,164.1c-24.4-0.2-43.9-19.9-43.7-44.3c0.2-23.8,20.3-43.5,44.1-43.3c24.4,0.2,43.9,20.1,43.7,44.4
				C465.2,144.9,445.4,164.3,421.3,164.1z"/>
		</g>
	</g>
	<g>
		<g>
			<path class="st3" d="M621.6,271c-27.9-0.1-54.9-4.6-81-13.8c-6-2.1-8.6-5.5-8.6-11.9c-0.1-7.8,0.2-15.6-0.1-23.3
				c-0.6-16.1,6.5-28.3,19.2-37.6c11.8-8.6,25.3-13.5,39.3-16.9c1.1-0.3,2.6,0.1,3.6,0.7c18.3,9.8,36.5,9.7,54.8,0
				c1.1-0.6,2.8-1,4-0.7c14.6,3.7,28.7,8.7,40.7,18.1c11.5,9.1,17.8,20.7,17.5,35.7c-0.2,7.5,0,15.1,0,22.6c0,7.9-2.2,11.1-9.6,13.6
				C675.4,266.5,648.8,271,621.6,271z"/>
			<path class="st3" d="M621.2,164.1c-24.4-0.2-43.9-19.9-43.7-44.3c0.2-23.8,20.3-43.5,44.1-43.3c24.4,0.2,43.9,20.1,43.7,44.4
				C665.1,144.9,645.3,164.3,621.2,164.1z"/>
		</g>
	</g>
	<g>
		<g>
			<path class="st4" d="M728.6,517.3c-36-0.1-70.7-6-104.5-17.8c-7.7-2.7-11-7.2-11.1-15.3c-0.1-10,0.3-20.1-0.1-30.1
				c-0.7-20.8,8.4-36.6,24.7-48.5c15.2-11.1,32.6-17.4,50.7-21.8c1.4-0.3,3.3,0.2,4.7,0.9c23.6,12.6,47.1,12.5,70.6,0.1
				c1.5-0.8,3.6-1.3,5.1-0.9c18.8,4.8,36.9,11.2,52.5,23.4c14.9,11.7,23,26.7,22.5,46c-0.2,9.7,0,19.4,0,29.2
				c0,10.2-2.9,14.3-12.4,17.6C798,511.5,763.6,517.3,728.6,517.3z"/>
			<path class="st4" d="M728.1,379.5c-31.5-0.2-56.6-25.7-56.3-57.2c0.3-30.7,26.2-56.1,56.9-55.8c31.5,0.3,56.6,25.9,56.3,57.3
				C784.7,354.6,759.1,379.7,728.1,379.5z"/>
		</g>
	</g>
</g>
</svg>
