<?xml version="1.0" encoding="utf-8"?>
<!-- Generator: Adobe Illustrator 23.0.5, SVG Export Plug-In . SVG Version: 6.00 Build 0)  -->
<svg version="1.1" id="Bold" xmlns="http://www.w3.org/2000/svg" xmlns:xlink="http://www.w3.org/1999/xlink" x="0px" y="0px"
	 viewBox="0 0 512 512" style="enable-background:new 0 0 512 512;" xml:space="preserve">
<g>
	<path d="M469.4,61.7c0-24.9-10.7-43.2-31.8-54.3c-4-2.1-8.2-3.3-12.2-4.5c-1.7-0.5-3.4-1-5-1.5L419.5,1H92.8l-0.6,0.1
		C78.5,4.3,68.5,9.3,60.7,16.8C49.4,27.7,43.4,41,42.7,56.1c-0.1,1.8-0.1,3.7-0.1,5.6c0,34.6,0,69.2,0,103.7
		c0,93.4,0,189.9-0.1,284.9c0,23.9,9.9,41.8,29.5,53.1c4.4,2.5,9.1,4,13.7,5.4c2,0.6,3.9,1.2,5.7,1.9l1,0.3h326.8l0.7-0.2
		c9.3-2.2,21.2-5.9,31.1-15.3c11.5-11,17.7-24.3,18.3-39.6c0.1-1.9,0.1-3.8,0.1-5.6c0-35.5,0-70.9,0-106.4
		C469.4,251.4,469.4,155.8,469.4,61.7z M437,450.1c0,18.1-10.3,28.5-28.2,28.5c-101.8,0-203.7,0-305.5,0
		c-17.9,0-28.2-10.4-28.2-28.5c0-46.9,0-93.7,0-140.6l0-53.5l0-54.6c0-46.5,0-93,0-139.5c0-18.1,10.3-28.5,28.2-28.5
		c50.9,0,101.8,0,152.8,0c50.9,0,101.8,0,152.8,0c17.9,0,28.2,10.4,28.2,28.5C437,191.3,437,320.7,437,450.1z"/>
	<path d="M213.9,386.4c0.2,0,0.4,0,0.6,0c29.1,0,56.5-11.3,77.2-31.9c20.9-20.7,32.4-48.2,32.5-77.4c0.2-60.5-49-110-109.6-110.2
		c-0.1,0-0.3,0-0.4,0c-28.9,0-56.2,11.4-76.9,32c-20.8,20.8-32.3,48.3-32.4,77.5C104.7,336.8,153.6,386.1,213.9,386.4z M230.7,219.6
		c0-6.1,0-12.2,0-18.3c25.7,4.3,51.1,28,58.4,55.7c8.7,32.8-4.9,67.1-33.7,85.2c-25.2,15.8-59.6,15.3-82.8-0.6l10.3-10.4
		c13.4-13.4,27.2-27.2,40.8-40.7c4.8-4.7,7-10,6.9-16.7C230.7,255.7,230.7,237.3,230.7,219.6z M143,247.6
		c9.6-23.2,35.6-44.5,55.3-46.5l0,14c0,17.5,0,35.6-0.1,53.3c0,0.8-0.2,1.5-0.3,1.7c-14.1,14.3-28.5,28.7-42.4,42.6l-5.7,5.7
		C137.9,302.2,132.3,273.3,143,247.6L143,247.6z"/>
	<path d="M388.8,416.3c-33.2,0-66.4,0-99.6,0l-33.2,0c-43.5,0-86.9,0-130.4,0l-1,0c-1.7,0-3.5,0-5.5,0.2c-8.1,0.9-14,7.2-14.2,15.5
		c-0.1,4.6,1.3,8.6,4.2,11.6c2.3,2.4,6.6,5.2,14.3,5.2c82.5,0,165,0,247.4,0l17.7,0l0.6,0c0.2,0,0.5,0,0.8,0c0.8,0,1.7,0,2.7-0.1
		c9.1-1.1,15.3-8.9,14.3-18.1C406,421.6,399.2,416.3,388.8,416.3z"/>
	<path d="M350.5,199.6L350.5,199.6c6.7,0,13.3,0.1,19.8,0.1c6.7,0,13.3,0,19.7-0.1c9.9-0.1,16.9-6.6,17.1-16
		c0.1-9.7-6.8-16.2-17.1-16.4c-4.5-0.1-9.1-0.1-13.5,0c-2,0-4,0-6,0l-19.2,0c-0.3,0-0.6,0-1,0c-9.9,0.3-16.9,6.8-17,15.9
		c-0.1,4.3,1.5,8.4,4.4,11.4C340.8,197.7,345.4,199.5,350.5,199.6z"/>
	<path d="M390.8,229.5c-13-0.1-26.4-0.1-41,0c-9.4,0.1-16.5,7-16.6,16c-0.1,9.1,7.2,16.2,16.9,16.3c4.7,0.1,9.5,0.1,14.1,0
		c2,0,4.1,0,6.1,0c2,0,4.1,0,6.1,0c2,0,4.1,0,6.1,0c2.7,0,5.5,0,8.2-0.1c9.4-0.2,16.3-7,16.4-16.1
		C407.1,236.5,400.3,229.6,390.8,229.5z"/>
	<path d="M389.9,291.8L389.9,291.8c-4.6-0.1-9.2-0.1-13.7,0c-2,0-3.9,0-5.9,0c-2,0-4.1,0-6.1,0c-4.6,0-9.3,0-13.9,0
		c-9.8,0.2-17,6.8-17.1,15.9c-0.1,4.3,1.5,8.4,4.4,11.4c3.2,3.3,7.8,5.1,12.9,5.1c6.7,0,13.3,0.1,19.9,0.1c6.7,0,13.2,0,19.6-0.1
		c9.9-0.1,16.9-6.6,17.1-16C407.2,298.5,400.3,291.9,389.9,291.8z"/>
	<path d="M389.9,354.1c-4.6-0.1-9.3-0.1-13.9,0c-2.1,0-4.1,0-6.2,0l-18.7,0c-0.3,0-0.6,0-1,0c-9.9,0.3-16.9,6.8-17,15.9
		c-0.1,4.3,1.5,8.4,4.4,11.4c3.2,3.3,7.8,5.1,12.9,5.1c6.7,0,13.3,0.1,19.9,0.1c6.7,0,13.2,0,19.6-0.1c9.9-0.1,16.9-6.6,17.1-16
		C407.2,360.8,400.3,354.2,389.9,354.1z"/>
</g>
</svg>
