<?xml version="1.0" encoding="utf-8"?>
<!-- Generator: Adobe Illustrator 26.0.0, SVG Export Plug-In . SVG Version: 6.00 Build 0)  -->
<svg version="1.1" id="Capa_1" xmlns="http://www.w3.org/2000/svg" xmlns:xlink="http://www.w3.org/1999/xlink" x="0px" y="0px"
	 viewBox="0 0 1000 800" style="enable-background:new 0 0 1000 800;" xml:space="preserve">
<style type="text/css">
	.st0{fill:#3F0753;}
	.st1{fill:#B2873B;}
	.st2{fill:#004C28;}
	.st3{fill:#881FB6;}
	.st4{fill:#FFE3A5;}
	.st5{fill:#01B060;}
	.st6{fill:#FFFFFF;}
	.st7{font-family:'ArialRoundedMTBold';}
	.st8{font-size:72.0423px;}
	.st9{font-size:48.8312px;}
	.st10{font-size:73.8979px;}
</style>
<g>
	<g>
		<g>
			<path class="st0" d="M482.7,159.8h33.2c16.6,0,30,13.5,30,30.1v2c0,16.6-13.5,30-30,30h-10.8l6.7,17.8l-25.7-17.8h-3.5
				c-16.6,0-30-13.5-30-30v-2C452.6,173.3,466.1,159.8,482.7,159.8z"/>
			<path class="st1" d="M430.4,104.4h-51.6c-25.7,0-46.8,21-46.8,46.7v3.1c0,25.7,21,46.8,46.8,46.8h16.7L385,228.7l39.9-27.7h5.5
				c4.9,0,9.7-0.8,14.2-2.2c-0.8-3-1.2-6-1.2-9.1v-2c0-4.7,0.9-9.2,2.8-13.5c1.8-4.1,4.3-7.9,7.5-11.1c3.2-3.2,6.9-5.7,11.1-7.5
				c4-1.7,8.2-2.6,12.5-2.7v-1.8C477.2,125.3,456.1,104.4,430.4,104.4z"/>
		</g>
		<g>
			<path class="st2" d="M522.8,151.1v1.8c4.3,0.1,8.5,1,12.5,2.7c4.1,1.8,7.9,4.3,11.1,7.5c3.2,3.2,5.7,6.9,7.5,11.1
				c1.8,4.3,2.8,8.8,2.8,13.5v2c0,3.1-0.4,6.1-1.2,9.1c4.5,1.4,9.2,2.2,14.2,2.2h5.5l39.9,27.7L604.5,201h16.7
				c25.7,0,46.8-21.1,46.8-46.8v-3.1c0-25.7-21-46.7-46.8-46.7h-51.6C543.9,104.4,522.8,125.3,522.8,151.1z"/>
		</g>
	</g>
	<g>
		<path class="st3" d="M500.5,695.6c-65.2-0.2-128.2-10.8-189.2-32.3c-14-4.9-20-13-20.1-27.7c-0.2-18.2,0.5-36.3-0.2-54.5
			c-1.3-37.7,15.1-66.2,44.8-87.9c27.5-20.2,59-31.6,91.9-39.5c2.6-0.6,6,0.3,8.4,1.6c42.7,22.8,85.2,22.7,127.9,0.1
			c2.7-1.4,6.5-2.3,9.3-1.6c34.1,8.6,66.9,20.3,95,42.4c27,21.2,41.7,48.4,40.8,83.3c-0.4,17.6,0,35.2-0.1,52.8
			c0,18.6-5.2,25.9-22.5,31.9C626.1,685.1,563.9,695.5,500.5,695.6z"/>
		<path class="st3" d="M499.5,445.9c-57-0.4-102.5-46.5-102-103.6c0.5-55.6,47.4-101.6,103.1-101.1c57,0.6,102.5,46.9,102,103.8
			C602.1,400.9,555.7,446.2,499.5,445.9z"/>
		<path class="st4" d="M379.3,399.1c-0.1,37.2-30.9,67.6-68.1,67.4c-37.2-0.2-67.7-31.1-67.4-68.2C244,361,274.5,331,312,331.2
			C349.6,331.4,379.5,361.6,379.3,399.1z"/>
		<path class="st5" d="M620.8,398.5c0.1-37.4,30.4-67.4,68-67.3c37.5,0.1,67.7,30.5,67.6,67.9c-0.1,37.1-31,67.7-68.1,67.5
			C651,466.4,620.7,435.8,620.8,398.5z"/>
		<path class="st4" d="M264.6,638.3c-15.8-3-30.4-5.2-44.8-8.6c-13.1-3.1-25.8-7.5-38.8-11.3c-8.6-2.6-12.3-8.2-12-17.2
			c0.4-11.8,0.5-23.7,0-35.5c-1.2-26.7,10.8-46.4,32.1-61.3c17.1-12,36.5-19.1,56.5-24.2c2.2-0.6,5-0.5,7.1,0.3
			c9.9,3.9,19.7,8.1,30.1,12.3c-0.4,0.6-1.1,2-2,3.1c-18.5,22.8-28.1,48.8-28.3,78.2c-0.1,17.9,0,35.7,0,53.6
			C264.6,630.7,264.6,633.6,264.6,638.3z"/>
		<path class="st5" d="M735.5,636.7c0-19.5-0.2-38.7,0.1-57.9c0.2-19-2.4-37.4-10.8-54.4c-5.5-11.2-12.7-21.7-18.7-31.8
			c9.3-3.9,19.3-8.2,29.4-12.3c1.9-0.7,4.4-0.8,6.3-0.3c22.3,5.6,43.6,13.5,61.9,27.9c18.2,14.4,27.9,32.7,27.3,56.3
			c-0.4,12.9-0.1,25.8,0,38.7c0,6.7-2.4,12.4-9.1,14.1c-26.8,6.9-53.8,13.3-80.7,19.8C739.6,637.3,737.9,636.8,735.5,636.7z"/>
	</g>
	<text transform="matrix(1 0 0 1 374.0859 179.2327)" class="st6 st7 st8">4</text>
	<text transform="matrix(1 0 0 1 481.9824 206.6536)" class="st6 st7 st9">2</text>
	<text transform="matrix(1 0 0 1 570.5352 179.8391)" class="st6 st7 st10">5</text>
</g>
</svg>
