<?xml version="1.0" encoding="utf-8"?>
<!-- Generator: Adobe Illustrator 26.0.0, SVG Export Plug-In . SVG Version: 6.00 Build 0)  -->
<svg version="1.1" id="Layer_1" xmlns="http://www.w3.org/2000/svg" xmlns:xlink="http://www.w3.org/1999/xlink" x="0px" y="0px"
	 viewBox="0 0 1000 1000" style="enable-background:new 0 0 1000 1000;" xml:space="preserve">
<path d="M738.1,324.2c-31.6-31.4-63.1-63-94.7-94.5c-3.7-3.7-8.1-6.6-12.1-9.9c-82.1,0-164.1,0-246.2,0c-6.4,2.6-13.5,4.2-19.2,7.9
	c-14.3,9.2-20.8,23-20.8,39.9c0,64.9,0,129.8,0,194.8c0,2,0,4,0,6.4c-16.2,2.1-31.3,6.5-45.7,13.5c-53.5,26.1-84.8,85.2-76.1,143.6
	c9,60.4,55.3,107.6,114.8,117.2c3.7,0.6,7.4,1.3,11,1.9c118.6,0,237.3,0,355.9,0c3.9-1.2,8-2,11.6-3.7c18.6-8.5,28.2-23.2,28.3-43.6
	c0.2-48.7,0.1-97.4,0.1-146.1c0-70-0.1-140.1,0.1-210.1C745.3,334.5,743,329.1,738.1,324.2z M643,274.4
	c15.8,15.8,31.8,31.8,47.7,47.7c-15.4,0-31.4,0-47.7,0C643,306.2,643,290.1,643,274.4z M360.8,714.2c-59.5,0.1-108-48.3-107.9-107.8
	c0.1-59.3,48.4-107.5,107.7-107.5c59.3,0,107.6,48.3,107.7,107.6C468.3,665.7,420,714.1,360.8,714.2z M714.4,695.7
	c0,12.7-5.8,18.5-18.4,18.5c-80.7,0-161.3,0-242,0c-1.7,0-3.3,0-6,0c32.4-31.2,40.9-46.7,50.6-92.3c1.9,0,3.9,0,5.9,0
	c50.1,0,100.2,0,150.2,0c2.2,0,4.5,0.1,6.6-0.4c7.8-1.8,13-9.1,12-16.7c-1-8-7.5-13.5-16-13.6c-31.8-0.1-63.6,0-95.4,0
	c-19.3,0-38.6,0-57.9,0c-1.8,0-3.7,0-5.7,0c-2.8-22.1-9.9-42.2-22.6-61.5c2.8,0,4.7,0,6.6,0c57.4,0,114.9,0,172.3,0
	c2.2,0,4.5,0.1,6.6-0.4c7.6-1.6,12.8-8.6,12.2-16.1c-0.6-7.8-6.9-13.9-14.9-14.2c-3.6-0.2-7.2,0-10.8,0c-65.1,0-130.2,0-195.4-0.1
	c-2.8,0-6-1.1-8.3-2.7c-20.2-14.9-42.7-24-68.1-27.1c0-1.8,0-3.5,0-5.2c0-64.9,0-129.9,0-194.8c0-12.3,5.9-18.2,18.2-18.2
	c70.8,0,141.5,0,212.3,0c1.5,0,3.1,0,5.4,0c0,1.9,0,3.7,0,5.5c0,26.3,0,52.6,0,79c0,12.3,5.9,18.1,18.3,18.1c26,0,52,0,77.9,0
	c1.9,0,3.7,0,6.3,0c0,2.1,0,3.9,0,5.7C714.4,471.2,714.4,583.4,714.4,695.7z"/>
<path d="M656.6,406.6c-56.7,0-113.4,0-170.1,0c-17.8,0-35.5,0-53.3,0c-6.3,0-11.3,2.5-14.3,8.2c-5.8,10.6,1.9,22.6,14.6,22.6
	c37.1,0.1,74.1,0,111.2,0c1.4,0,2.7,0,4.1,0c35.9,0,71.7,0,107.6,0c6.9,0,12.4-2.5,15.5-8.9C676.9,417.8,669.2,406.6,656.6,406.6z"
	/>
<path d="M413.8,563.8c-6.1-1.3-10.9,1.1-15.2,5.4c-19.6,19.7-39.3,39.4-59.7,59.8c-6.4-6.5-12.3-12.6-18.3-18.6
	c-7.4-7.4-16.7-7.9-23.2-1.5c-6.5,6.4-6,15.8,1.4,23.2c8.9,9,17.9,17.9,26.8,26.8c9.5,9.5,17.4,9.5,26.8,0.1
	c21.3-21.2,42.5-42.5,63.8-63.8c2.2-2.2,4.5-4.3,6.4-6.6C429.9,579.5,425.3,566.2,413.8,563.8z"/>
<path d="M524.1,908.1c-3-0.1-5.9,0-8.8,0c-1.3,0-2.7,0.1-4,0.1c-47.7,0.5-90.1-5.8-129.6-19.1c-142.3-48-235.4-144.1-276.6-285.6
	C87.6,543.8,85.5,491.3,98.5,443c4.7-17.6,10.4-35.3,15.8-52.4c1.1-3.4,2.2-6.8,3.2-10.2c1.7,3.2,3.2,6.5,4.8,9.9l1.2,2.5
	c6,12.7,17,17.3,28.7,12.1c11.8-5.3,15.7-16.6,9.9-29.6c-8.1-18.3-16.6-37.2-25.3-56.2c-3.4-7.4-7.8-12-13.4-14
	c-5.6-2-11.9-1.2-19.2,2.4l-3.5,1.7c-15.7,7.7-31.9,15.7-47.6,24.1c-4.1,2.2-7.2,5.2-10.2,8.2c-1.2,1.2-2.4,2.3-3.5,3.4
	c-1.4,1.2-2.2,3-2.2,4.9v8.9c0,1.4,0.4,2.7,1.2,3.8c10.2,14.3,18.3,16.2,34.5,8.2c1.3-0.7,2.7-1.3,4.1-2
	c-25.3,68.4-33.5,126.3-26,182c8.2,60.6,26.4,116.3,54,165.8c27.6,49.5,65.5,94.1,112.6,132.5c67.7,55.2,146.6,88.3,234.5,98.4
	c18.7,2.1,37.8,2.3,56.2,2.5c5.2,0,10.5,0.1,15.7,0.2c0.1,0,0.3,0,0.4,0c5.8,0,11-2.1,14.8-5.8c3.9-3.9,6.1-9.4,6-15.4
	C545.1,917,536.6,908.6,524.1,908.1z"/>
<path d="M147.3,249.7c9.1,7.5,21.8,6.1,30.3-3.5c1.5-1.7,2.9-3.4,4.2-5.1c1.1-1.4,2.2-2.7,3.2-4C282.7,124.8,406.4,75.4,552.8,90.5
	c87.7,9,169,45.3,241.9,107.9c14.2,12.2,27.7,26,40.7,39.4c3.5,3.6,7,7.2,10.6,10.8c-0.2,0-0.3,0-0.5,0c-8.2,0-16.6-0.1-24.9,0.1
	c-13.8,0.2-23,8.3-23.3,20.7c-0.2,6,1.8,11.4,5.6,15.3c4.1,4.3,9.9,6.6,16.8,6.7c11.2,0.2,22.3,0.2,33.4,0.2c11.1,0,22-0.1,32.8-0.2
	c13.1-0.2,22.8-9.4,22.9-21.8c0.2-22.7,0-43.6-0.5-63.7c-0.3-12.1-9.4-21.3-21.2-21.3c0,0,0,0-0.1,0c-11.8,0-20.7,9.3-21.2,22.1
	c0,0.4,0,0.8,0,1.2c-37.6-41.3-81.8-75.7-131.5-102.5c-43.4-23.4-87.7-40.2-131.7-50c-46.2-10.3-93.6-13.2-140.7-8.6
	c-100.5,9.8-188.7,48.4-262.3,114.6c-15.5,13.9-29.5,29.7-43.1,45c-3.7,4.1-7.5,8.4-11.2,12.5c-4.2,4.7-6.3,10.4-5.9,16.1
	C139.8,240.6,142.6,245.8,147.3,249.7z"/>
<path d="M953.1,399.3c-3.2-16.3-8.6-32.2-13.7-47.6c-1.5-4.5-3.1-9.2-4.5-13.8c-2.1-6.6-6.3-11.7-11.6-14.3
	c-4.9-2.4-10.6-2.7-16-0.8c-12,4.3-16.9,15.9-12.3,29.6c0.7,2,1.4,4,2.1,5.9c0.7,1.7,1.3,3.4,1.9,5.1
	c30.1,88.7,30.7,174.5,1.6,254.9C861.6,725.7,787.3,808.4,679.4,864c-2.3,1.2-4.7,2.4-7.1,3.5c5.2-10.9,2.6-21.9-7.1-28
	c-10.1-6.4-22.6-3.3-29.7,7.3c-12.6,18.8-23.6,35.8-33.7,51.8c-4,6.3-5.2,12.8-3.4,18.7c1.8,6,6.4,10.9,13.4,14.1
	c18.3,8.3,37.3,16.7,56.4,24.9c3.4,1.5,6.8,2.2,10.1,2.2c8,0,14.9-4.4,18.6-12.5c5.1-11.4,0.8-22.5-11.1-28.3
	c-3.3-1.6-6.7-3.1-10.1-4.7c1.5-0.7,3.1-1.5,4.6-2.2c13-6.2,25.3-12.2,37.5-19c16-9,34.4-19.6,51.2-32.5
	c77.6-59.4,132.7-127,163.6-201C964.9,580.6,971.9,493.4,953.1,399.3z"/>
</svg>
