<?xml version="1.0" encoding="utf-8"?>
<!-- Generator: Adobe Illustrator 23.0.5, SVG Export Plug-In . SVG Version: 6.00 Build 0)  -->
<svg version="1.1" id="Bold" xmlns="http://www.w3.org/2000/svg" xmlns:xlink="http://www.w3.org/1999/xlink" x="0px" y="0px"
	 viewBox="0 0 512 512" style="enable-background:new 0 0 512 512;" xml:space="preserve">
<g>
	<path d="M507.6,200.1c-29.3-49.9-58.6-99.8-87.9-149.7C413.6,40,405.9,38,395.6,44c-15.9,9.2-31.9,18.3-47.8,27.7
		c-3,1.8-5.6,1.9-8.8,0.7c-14.6-5.5-29.2-10.8-43.8-16.2c-14.8-5.4-29.6-5.5-43.4,2.2c-29,16.1-57.8,32.6-86.2,49.7
		c-17.8,10.7-22,34.2-10.6,51.6c11,16.7,32.3,21.6,50.5,11.2c28.5-16.2,56.9-32.7,85.3-49.2c12.1-7.1,23.5-6.9,35.6,0.1
		c55.6,32.3,111.3,64.4,167,96.6c11,6.3,11,6.3,17.4-4.3c0-2.7,0-5.3,0-8C509.9,204.1,508.7,202.1,507.6,200.1z"/>
	<path d="M484.9,247.8c-57.4-33.2-114.9-66.3-172.3-99.6c-3.2-1.9-5.4-1.6-8.5,0.2c-28.8,16.7-57.5,33.7-86.7,49.9
		c-25.5,14.1-57.6,9.2-78.2-11.1c-21-20.6-26.6-52.3-12.9-78.3c4.5-8.5,11.2-15.8,17.1-23.8c-10.1-5.8-21.1-12.2-32.2-18.6
		c-11.6-6.7-19-4.5-25.3,7.2c-18.4,34.3-36.8,68.7-55.2,103c-9.1,16.9-18.3,33.9-27.3,50.9c-4.7,8.9-2.4,16.5,6.1,21.7
		c2.1,1.3,4.3,2.4,6.8,3.9c4.7-8.2,9.2-16.1,13.8-23.9c21.3-35.5,68.4-42.1,98.5-13.8c2.1,2,3.8,2.3,6.5,1.5
		c35-10.2,70.5,10.1,79.4,45.5c0.8,3.1,2.1,4.5,5.2,5.5c22.7,7.5,37.3,22.7,43.2,46c0.7,2.9,2.1,3.9,4.8,4.8
		c39,11.8,56.9,55.7,37.3,91.6c-5.3,9.7-11.1,19.3-16.6,28.9c-0.8,1.4-1.5,2.8-2.3,4.4c14.2,8.1,27.8,16.5,41.9,23.8
		c11.9,6.2,24,4.8,34.7-3.3c10.7-8,15.6-19.2,12.7-32.4c-1.5-6.8-5.4-13.1-7.8-18.8c5.3,3,11.8,6.9,18.5,10.5
		c14.4,7.7,31.9,4.3,41.9-8c10.3-12.7,10.3-30.4-0.2-43.1c-0.7-0.9-1.4-1.8-2.1-2.7c3.6,1.2,6.6,3,9.6,4.7
		c17.2,9.6,37.3,4.5,46.7-11.8c9.5-16.4,3.9-36.2-13.1-46.4c-3.2-2-6.5-3.8-8.9-5.2c5.7-0.3,12.1,0.4,18-1.1
		c14.2-3.7,22.4-13.7,24.7-28.1C504.9,268.4,498,255.4,484.9,247.8z"/>
	<path d="M269.9,352.8c-12.3-9.4-29.5-9.1-41.5,0.7c-1.2,1-2.4,1.9-4.7,3.8c5.5-9.7,11.3-17.6,11.3-27.8c0-10.3-3.7-19.1-11.5-26
		c-6.8-6-14.8-8.8-23.8-8.4c-8.8,0.4-16.4,4.1-23,10c1.8-4,4-7.7,6-11.5c8.5-16.4,2.9-35.9-12.8-45c-15.8-9.1-35.4-4.2-45.3,11.5
		c-2.1,3.3-4,6.8-6.1,10.2c-0.3,0-0.6-0.1-0.9-0.1c0.1-1,0.1-2,0.3-2.9c2.8-15.8-5.6-31.1-20.4-37.1c-14.6-6-32.2-1.1-40.4,12.4
		c-13.3,22-26.5,44.1-38.5,66.8c-11.6,22,5.5,48.2,30.4,48c10.6-0.1,19.1-4.7,26.3-12.8c-4.2,19.1-0.2,32.4,12.8,40.6
		c16.3,10.3,31.4,7,45.1-6.2c-3.6,18.9,0.5,32,13.2,39.9c16,9.9,30.9,7,45-6.2c-0.4,2.2-0.7,3.4-1,4.7c-3.4,15.6,4.5,31.3,18.9,37.9
		c14.4,6.6,32.3,2.5,40.8-10.8c10.7-16.8,20.6-34.1,29.8-51.7C287.3,379.2,282.3,362.2,269.9,352.8z"/>
</g>
</svg>
