<svg viewBox="0 0 100 81" fill="none" xmlns="http://www.w3.org/2000/svg">
<path d="M0 0V65.6055H20.0391V80.0586L36.3086 65.6055H100V0H0ZM24.7266 44.4531C20.1758 44.4531 16.4844 40.7617 16.4844 36.2109H22.3438C22.3438 37.5195 23.418 38.5938 24.7266 38.5938C26.0352 38.5938 27.1094 37.5195 27.1094 36.2109C27.1094 34.9023 26.0352 33.8281 24.7266 33.8281C20.5273 33.8281 17.1094 30.4102 17.1094 26.2109C17.1094 22.0117 20.5273 18.5938 24.7266 18.5938C28.9258 18.5938 32.3438 22.0117 32.3438 26.2109H26.4844C26.4844 25.2344 25.7031 24.4531 24.7266 24.4531C23.75 24.4531 22.9688 25.2344 22.9688 26.2109C22.9688 27.1875 23.75 27.9688 24.7266 27.9688C29.2773 27.9688 32.9688 31.6602 32.9688 36.2109C32.9688 40.7617 29.2773 44.4531 24.7266 44.4531ZM63.5547 44.0625H57.6953V26.8359C57.6953 25.5273 56.6211 24.4531 55.3125 24.4531C54.0039 24.4531 52.9297 25.5273 52.9297 26.8359V44.0625H47.0703V26.8359C47.0703 25.5273 45.9961 24.4531 44.6875 24.4531C43.3789 24.4531 42.3047 25.5273 42.3047 26.8359V44.0625H36.4453V26.8359C36.4453 22.2852 40.1367 18.5938 44.6875 18.5938C46.7188 18.5938 48.5547 19.3359 50 20.5469C51.4258 19.3359 53.2813 18.5938 55.3125 18.5938C59.8633 18.5938 63.5547 22.2852 63.5547 26.8359V44.0625ZM75.2734 44.4531C70.7227 44.4531 67.0312 40.7617 67.0312 36.2109H72.8906C72.8906 37.5195 73.9648 38.5938 75.2734 38.5938C76.582 38.5938 77.6562 37.5195 77.6562 36.2109C77.6562 34.9023 76.582 33.8281 75.2734 33.8281C71.0742 33.8281 67.6562 30.4102 67.6562 26.2109C67.6562 22.0117 71.0742 18.5938 75.2734 18.5938C79.4727 18.5938 82.8906 22.0117 82.8906 26.2109H77.0312C77.0312 25.2344 76.25 24.4531 75.2734 24.4531C74.2969 24.4531 73.5156 25.2344 73.5156 26.2109C73.5156 27.1875 74.2969 27.9688 75.2734 27.9688C79.8242 27.9688 83.5156 31.6602 83.5156 36.2109C83.5156 40.7617 79.8047 44.4531 75.2734 44.4531Z"/>
</svg>
