<svg width="40" height="40" viewBox="0 0 40 40" fill="none" xmlns="http://www.w3.org/2000/svg">
<path d="M4.82422 35.2856L6.96294 27.4777C5.64351 25.1929 4.94965 22.6001 4.95045 19.9446C4.95442 11.6366 11.7151 4.87744 20.0239 4.87744C24.0561 4.87903 27.8397 6.44854 30.6858 9.2962C33.5311 12.1447 35.0982 15.9299 35.0966 19.9565C35.0934 28.2645 28.3311 35.0244 20.0239 35.0244C20.0231 35.0244 20.0239 35.0244 20.0239 35.0244H20.0176C17.4954 35.0236 15.0161 34.3909 12.8147 33.1897L4.82422 35.2856Z" fill="white"/>
<path d="M4.82628 35.6825C4.72149 35.6825 4.61987 35.6412 4.54445 35.565C4.44522 35.4642 4.40632 35.3173 4.44363 35.1816L6.53869 27.5317C5.2399 25.2247 4.55477 22.6048 4.55636 19.9453C4.55954 11.4174 11.4989 4.48047 20.026 4.48047C24.1621 4.48206 28.0482 6.09285 30.9689 9.01593C33.8896 11.9398 35.4972 15.8251 35.4956 19.9564C35.4924 28.4836 28.5523 35.4213 20.026 35.4213C17.4943 35.4205 14.9896 34.7957 12.7667 33.6136L4.92711 35.669C4.89376 35.6785 4.86042 35.6825 4.82628 35.6825Z" fill="white"/>
<path d="M20.0252 4.87738C24.0573 4.87897 27.841 6.44848 30.687 9.29614C33.5323 12.1446 35.0994 15.9298 35.0978 19.9564C35.0947 28.2644 28.3324 35.0243 20.0252 35.0243H20.0188C17.4966 35.0235 15.0173 34.3908 12.8159 33.1897L4.82546 35.2855L6.96418 27.4777C5.64475 25.1929 4.95089 22.6 4.95169 19.9445C4.95566 11.6365 11.7164 4.87738 20.0252 4.87738ZM20.0252 4.0835C11.2797 4.0835 4.16177 11.1983 4.1578 19.9445C4.15701 22.6175 4.83181 25.2516 6.11155 27.5833L4.05936 35.0767C3.98474 35.3506 4.06095 35.6428 4.26101 35.8444C4.41185 35.9968 4.61588 36.0802 4.82546 36.0802C4.89294 36.0802 4.96042 36.0715 5.02711 36.054L12.7175 34.0375C14.9626 35.203 17.4792 35.8182 20.0188 35.819C28.7706 35.819 35.8886 28.7034 35.8925 19.9572C35.8941 15.7187 34.2452 11.7334 31.2499 8.73566C28.253 5.73716 24.2669 4.08508 20.0252 4.0835Z" fill="#CFD8DC"/>
<path d="M28.8865 11.0954C26.5207 8.728 23.3762 7.42365 20.0291 7.42285C13.1192 7.42285 7.49927 13.0404 7.49609 19.9456C7.4953 22.3121 8.1574 24.616 9.41174 26.611L9.71024 27.085L8.44399 31.7062L13.1859 30.463L13.6439 30.7345C15.5667 31.8761 17.7721 32.4794 20.0204 32.4802H20.0252C26.9304 32.4802 32.5503 26.8619 32.5527 19.9559C32.5535 16.6097 31.2523 13.4627 28.8865 11.0954Z" fill="#40C351"/>
<path fill-rule="evenodd" clip-rule="evenodd" d="M16.2557 13.6461C15.9739 13.0189 15.677 13.0062 15.4078 12.9951C15.1879 12.9856 14.9371 12.9863 14.6862 12.9863C14.4353 12.9863 14.0273 13.0808 13.6819 13.4579C13.3366 13.835 12.3633 14.7456 12.3633 16.5985C12.3633 18.4514 13.7129 20.2424 13.901 20.4933C14.0892 20.7442 16.5066 24.6683 20.3347 26.1783C23.5158 27.4327 24.1636 27.1834 24.8543 27.1207C25.5449 27.0579 27.0827 26.2101 27.3963 25.3304C27.7099 24.4508 27.7099 23.6974 27.6162 23.5402C27.5217 23.383 27.2708 23.2894 26.8945 23.1004C26.5182 22.9115 24.6661 22.0009 24.3208 21.8755C23.9754 21.75 23.7246 21.6873 23.4729 22.0644C23.222 22.4407 22.5004 23.2894 22.2805 23.5402C22.0606 23.7919 21.8407 23.8237 21.4644 23.6347C21.0881 23.4458 19.875 23.0488 18.4357 21.7659C17.3163 20.768 16.5605 19.5351 16.3406 19.158C16.1207 18.7817 16.3168 18.5777 16.5058 18.3895C16.6749 18.2204 16.8821 17.9497 17.071 17.7298C17.2592 17.5099 17.3219 17.3527 17.4473 17.1018C17.5727 16.8502 17.51 16.6303 17.4156 16.4421C17.3227 16.2532 16.5907 14.3907 16.2557 13.6461Z" fill="white"/>
</svg>
