<svg width="34" height="34" viewBox="0 0 34 34" fill="none" xmlns="http://www.w3.org/2000/svg">
<path d="M33.0394 8.94214C32.6544 7.50183 31.5198 6.36729 30.0795 5.98229C27.4689 5.28259 16.9999 5.28259 16.9999 5.28259C16.9999 5.28259 6.53086 5.28259 3.92029 5.98229C2.47998 6.36729 1.34544 7.50183 0.960439 8.94214C0.260742 11.5527 0.260742 17 0.260742 17C0.260742 17 0.260742 22.4473 0.960439 25.0579C1.34544 26.4982 2.47998 27.6327 3.92029 28.0177C6.53086 28.7174 16.9999 28.7174 16.9999 28.7174C16.9999 28.7174 27.4689 28.7174 30.0795 28.0177C31.5198 27.6327 32.6544 26.4982 33.0394 25.0579C33.7391 22.4473 33.7391 17 33.7391 17C33.7391 17 33.7391 11.5527 33.0394 8.94214Z" fill="#FF0000"/>
<path d="M13.6519 22.0217L22.3488 17L13.6519 11.9782V22.0217Z" fill="white"/>
</svg>
