<?xml version="1.0" encoding="utf-8"?>
<!-- Generator: Adobe Illustrator 25.2.1, SVG Export Plug-In . SVG Version: 6.00 Build 0) -->
<svg version="1.1" id="Capa_1" xmlns="http://www.w3.org/2000/svg" xmlns:xlink="http://www.w3.org/1999/xlink" x="0px" y="0px" viewBox="0 0 357.6 409.4" style="enable-background:new 0 0 357.6 409.4;" xml:space="preserve">
	<g>
		<g>
			<path style="fill:#E1E4E6" d="M69.4,0C131.7,0,194,0,256.2,0c0,0.2,0,0.5,0,0.7c-1.4,1.3-0.8,3-0.8,4.5c0,23.2,0,46.4,0,69.6
			c0,16,10.2,26.6,26.3,27.4c0.2,1.6,1.5,2.5,2.5,3.5c23.3,23.3,46.6,46.6,69.9,69.8c1,1,1.8,2.3,3.5,2.4c0,67.9,0,135.8,0,203.7
			c0,12.7-6.9,22.1-18.9,25.9c-1.1,0.3-2.5,0.1-2.7,1.8c-87.8,0-175.6,0-263.4,0c-0.3-2.1-2.2-1.6-3.4-2
			c-11-3.6-18.1-13.2-18.1-24.8c0-8.4,0-16.7,0-25.1c80.7,0,161.4,0,242,0c0.4,0,0.8,0,1.2,0c6.6-0.3,11.8-5.5,12.1-12
			c0.1-3.6-0.1-7.2-0.1-10.8c0.1-2.1,0.2-4.2,0.2-6.4c0-40.3,0-80.5,0-120.8c0-11.6-4.5-16-16.2-16c-78,0-156,0-234.1,0
			c-1.7,0-3.5-0.1-5.2-0.1c0-4.9,0-9.8,0-14.8c0-50.1,0-100.3,0-150.4c0-8.4,3.2-15.4,9.9-20.8C63.7,3.3,67.4,3,69.4,0z" />
			<path style="fill:#84BD5A" d="M51.1,344.9c-12.2,0-24.4-0.1-36.7-0.1c-9.2,0-14.4-5.1-14.4-14.2c0-41.6,0-83.2,0-124.8
			c0-9.2,5.1-14.2,14.4-14.2c12.2-0.1,24.4-0.1,36.7-0.1c1.7,0,3.5,0.1,5.2,0.1c78,0,156,0,234.1,0c11.7,0,16.2,4.4,16.2,16
			c0,40.3,0,80.5,0,120.8c0,2.1-0.1,4.2-0.2,6.4c-2.7,7.4-8.1,10.1-15.8,10.1c-78.1-0.1-156.2-0.1-234.3-0.1
			C54.5,344.8,52.8,344.9,51.1,344.9z" />
			<path style="fill:#B0B7BD" d="M256.2,0.7c33.5,33.5,67,67.1,100.5,100.6c-1.3,1.3-3,0.8-4.6,0.8c-23.5,0.1-47,0.1-70.5,0.1
			c-16.1-0.8-26.3-11.4-26.3-27.4c0-23.2,0-46.4,0-69.6C255.4,3.7,254.9,2,256.2,0.7z" />
			<path style="fill:#C9D0D7" d="M51.1,344.9c1.7,0,3.4-0.1,5.2-0.1c78.1,0,156.2,0,234.3,0.1c7.6,0,13.1-2.7,15.8-10.1
			c0.1,3.6,0.3,7.2,0.1,10.8c-0.3,6.6-5.5,11.7-12.1,12c-0.4,0-0.8,0-1.2,0c-80.7,0-161.4,0-242,0C51.1,353.3,51.1,349.1,51.1,344.9
			z" />
			<path style="fill:#C9D0D7" d="M281.7,102.2c23.5,0,47,0,70.5-0.1c1.5,0,3.2,0.5,4.6-0.8c1.2,1.1,0.8,2.5,0.8,3.7c0,24.3,0,48.6,0,72.9
			c-1.7,0-2.5-1.4-3.5-2.4c-23.3-23.3-46.6-46.6-69.9-69.8C283.2,104.7,281.9,103.9,281.7,102.2z" />
		</g>
		<text transform="matrix(1 0 0 1 56.3749 307.7107)" style="fill:#FFFFFF; font-family:'ArialRoundedMTBold'; font-size:99.1775px">
			ZIP
		</text>
	</g>
</svg>
